

const sound bgm3 =
{ 
	0x04, 0x00, 
	0x4D, 0x54, 0x68, 0x64, 0x00, 0x00, 0x00, 0x06, 0x00, 0x01, 0x00, 0x12, 0x01, 0xE0, 0x4D, 0x54, 0x72, 0x6B, 0x00, 0x00, 0x00, 0xE8, 0x00, 0xFF, 0x03, 0x07, 0x45, 0x34, 0x4E, 0x33, 0x31, 0x47, 0x4D, 0x00, 0xFF, 0x54, 0x05, 0x60, 0x00, 0x00, 0x00, 0x00, 0x00, 0xFF, 0x58, 0x04, 0x01, 0x02, 0x18, 0x08, 0x00, 0xFF, 0x51, 0x03, 0x16, 0xE3, 0x60, 0x83, 0x60, 0xFF, 0x51, 0x03, 0x0B, 0x71, 
	0xB0, 0x00, 0xFF, 0x58, 0x04, 0x04, 0x02, 0x18, 0x08, 0x89, 0x92, 0x00, 0xFF, 0x51, 0x03, 0x0B, 0x8F, 0x60, 0x8E, 0x30, 0xFF, 0x51, 0x03, 0x0B, 0xC2, 0xF2, 0x14, 0xFF, 0x51, 0x03, 0x0B, 0xCB, 0xC3, 0x8D, 0x74, 0xFF, 0x51, 0x03, 0x0B, 0xED, 0xD4, 0x14, 0xFF, 0x51, 0x03, 0x0C, 0x09, 0x61, 0x8D, 0x4C, 0xFF, 0x51, 0x03, 0x0C, 0x0B, 0x8A, 0x14, 0xFF, 0x51, 0x03, 0x0C, 0x2E, 0xD9, 0x82, 
	0x54, 0xFF, 0x51, 0x03, 0x0C, 0x35, 0x00, 0x8F, 0x00, 0xFF, 0x51, 0x03, 0x0B, 0x71, 0xB0, 0x82, 0xF7, 0x00, 0xFF, 0x51, 0x03, 0x0B, 0x8F, 0x5C, 0x84, 0x58, 0xFF, 0x51, 0x03, 0x0B, 0xA1, 0x96, 0x14, 0xFF, 0x51, 0x03, 0x0B, 0xCB, 0xBA, 0x84, 0x44, 0xFF, 0x51, 0x03, 0x0B, 0xD8, 0x26, 0x14, 0xFF, 0x51, 0x03, 0x0C, 0x09, 0x58, 0x84, 0x44, 0xFF, 0x51, 0x03, 0x0C, 0x35, 0x72, 0x14, 0xFF, 
	0x51, 0x03, 0x0C, 0x48, 0x36, 0x84, 0x30, 0xFF, 0x51, 0x03, 0x0C, 0x7B, 0x85, 0x14, 0xFF, 0x51, 0x03, 0x0C, 0x88, 0x52, 0x84, 0x1C, 0xFF, 0x51, 0x03, 0x0C, 0xA9, 0x0F, 0x14, 0xFF, 0x51, 0x03, 0x0C, 0xC9, 0xBB, 0x84, 0x1C, 0xFF, 0x51, 0x03, 0x0C, 0xF2, 0x1D, 0x14, 0xFF, 0x51, 0x03, 0x0C, 0xFF, 0x85, 0x82, 0x40, 0xFF, 0x51, 0x03, 0x0D, 0x14, 0x36, 0x00, 0xFF, 0x2F, 0x00, 0x4D, 0x54, 
	0x72, 0x6B, 0x00, 0x00, 0x00, 0x18, 0x00, 0xFF, 0x03, 0x03, 0x53, 0x79, 0x73, 0x00, 0xFF, 0x20, 0x01, 0x00, 0x00, 0xF0, 0x05, 0x7E, 0x7F, 0x09, 0x01, 0xF7, 0x00, 0xFF, 0x2F, 0x00, 0x4D, 0x54, 0x72, 0x6B, 0x00, 0x00, 0x16, 0x39, 0x00, 0xFF, 0x03, 0x03, 0x47, 0x54, 0x52, 0x81, 0x70, 0xB0, 0x79, 0x00, 0x0A, 0xB0, 0x00, 0x00, 0x0A, 0xC0, 0x19, 0x0A, 0xB0, 0x0B, 0x7F, 0x0A, 0xB0, 0x07, 
	0x40, 0x0A, 0xB0, 0x0A, 0x20, 0x0A, 0xB0, 0x5B, 0x78, 0x0A, 0xB0, 0x5D, 0x46, 0x0A, 0xB0, 0x01, 0x00, 0x0A, 0xB0, 0x65, 0x00, 0x0A, 0xB0, 0x64, 0x00, 0x0A, 0xB0, 0x06, 0x02, 0x0A, 0xB0, 0x65, 0x7F, 0x0A, 0xB0, 0x64, 0x7F, 0x0A, 0xB0, 0x06, 0x00, 0x0A, 0xE0, 0x00, 0x40, 0x5A, 0x90, 0x44, 0x6C, 0x00, 0x90, 0x3C, 0x69, 0x81, 0x70, 0x90, 0x33, 0x5B, 0x6A, 0x80, 0x3C, 0x35, 0x81, 0x06, 
	0x90, 0x3C, 0x61, 0x60, 0x80, 0x44, 0x05, 0x81, 0x10, 0x90, 0x44, 0x56, 0x86, 0x05, 0x80, 0x3C, 0x34, 0x0C, 0x80, 0x33, 0x27, 0x82, 0x3E, 0x80, 0x44, 0x15, 0x61, 0x90, 0x44, 0x6E, 0x00, 0x90, 0x31, 0x6B, 0x81, 0x70, 0x90, 0x38, 0x5F, 0x81, 0x06, 0x80, 0x44, 0x13, 0x6A, 0x90, 0x41, 0x65, 0x81, 0x70, 0x90, 0x49, 0x4F, 0x86, 0x4E, 0x80, 0x31, 0x20, 0x01, 0x80, 0x38, 0x14, 0x7C, 0x80, 
	0x41, 0x22, 0x01, 0x80, 0x49, 0x30, 0x81, 0x64, 0x90, 0x44, 0x69, 0x00, 0x90, 0x3C, 0x69, 0x81, 0x70, 0x90, 0x33, 0x5A, 0x79, 0x80, 0x3C, 0x30, 0x77, 0x90, 0x3C, 0x5E, 0x32, 0x80, 0x44, 0x14, 0x81, 0x3E, 0x90, 0x44, 0x5C, 0x19, 0x80, 0x3C, 0x31, 0x85, 0x2A, 0x80, 0x33, 0x4A, 0x83, 0x14, 0x80, 0x44, 0x12, 0x59, 0x90, 0x31, 0x64, 0x00, 0x90, 0x44, 0x6F, 0x81, 0x70, 0x90, 0x38, 0x50, 
	0x5C, 0x80, 0x44, 0x25, 0x81, 0x14, 0x90, 0x41, 0x65, 0x81, 0x3F, 0x80, 0x41, 0x31, 0x31, 0x90, 0x49, 0x5B, 0x85, 0x7F, 0x80, 0x31, 0x3D, 0x81, 0x70, 0x80, 0x49, 0x37, 0x17, 0x80, 0x38, 0x3D, 0x81, 0x2A, 0x90, 0x44, 0x6A, 0x00, 0x90, 0x3C, 0x63, 0x81, 0x70, 0x90, 0x33, 0x54, 0x64, 0x80, 0x3C, 0x38, 0x81, 0x0C, 0x90, 0x3C, 0x61, 0x5D, 0x80, 0x44, 0x2B, 0x81, 0x13, 0x90, 0x44, 0x6A, 
	0x85, 0x62, 0x80, 0x3C, 0x21, 0x81, 0x0A, 0x80, 0x44, 0x20, 0x14, 0x80, 0x33, 0x3C, 0x82, 0x30, 0x90, 0x44, 0x6D, 0x00, 0x90, 0x31, 0x62, 0x81, 0x70, 0x90, 0x38, 0x64, 0x81, 0x27, 0x80, 0x44, 0x16, 0x49, 0x90, 0x41, 0x69, 0x78, 0x90, 0x44, 0x50, 0x87, 0x24, 0x80, 0x31, 0x2F, 0x03, 0x80, 0x38, 0x26, 0x4D, 0x80, 0x44, 0x38, 0x17, 0x80, 0x41, 0x07, 0x82, 0x1D, 0x90, 0x3C, 0x65, 0x00, 
	0x90, 0x44, 0x6C, 0x81, 0x70, 0x90, 0x33, 0x5B, 0x67, 0x80, 0x3C, 0x42, 0x81, 0x09, 0x90, 0x3C, 0x66, 0x63, 0x80, 0x44, 0x2D, 0x81, 0x0D, 0x90, 0x44, 0x63, 0x86, 0x6E, 0x80, 0x33, 0x48, 0x3D, 0x80, 0x3C, 0x2F, 0x6D, 0x80, 0x44, 0x02, 0x81, 0x18, 0x90, 0x44, 0x6F, 0x00, 0x90, 0x31, 0x66, 0x81, 0x70, 0x90, 0x38, 0x69, 0x81, 0x14, 0x80, 0x44, 0x2F, 0x5C, 0x90, 0x41, 0x64, 0x81, 0x70, 
	0x90, 0x49, 0x63, 0x83, 0x73, 0x80, 0x31, 0x48, 0x83, 0x1C, 0x80, 0x41, 0x2E, 0x36, 0x80, 0x38, 0x39, 0x4C, 0x80, 0x49, 0x4B, 0x81, 0x1F, 0x90, 0x3D, 0x55, 0x00, 0x90, 0x44, 0x62, 0x81, 0x70, 0x90, 0x35, 0x69, 0x7F, 0x80, 0x3D, 0x3A, 0x71, 0x90, 0x3D, 0x67, 0x17, 0x80, 0x44, 0x20, 0x81, 0x59, 0x90, 0x44, 0x5E, 0x87, 0x05, 0x80, 0x3D, 0x38, 0x03, 0x80, 0x44, 0x19, 0x5D, 0x80, 0x35, 
	0x2E, 0x81, 0x4B, 0x90, 0x44, 0x6D, 0x81, 0x70, 0x90, 0x38, 0x6F, 0x81, 0x68, 0x80, 0x44, 0x24, 0x08, 0x90, 0x3F, 0x67, 0x81, 0x70, 0x90, 0x48, 0x6E, 0x86, 0x3C, 0x80, 0x48, 0x06, 0x1A, 0x80, 0x3F, 0x10, 0x6A, 0x90, 0x48, 0x6D, 0x00, 0x90, 0x3F, 0x50, 0x75, 0x80, 0x48, 0x3B, 0x1D, 0x80, 0x38, 0x04, 0x5A, 0x80, 0x3F, 0x1D, 0x04, 0x90, 0x31, 0x67, 0x00, 0x90, 0x44, 0x72, 0x81, 0x70, 
	0x90, 0x38, 0x6A, 0x81, 0x46, 0x80, 0x44, 0x0C, 0x2A, 0x90, 0x3F, 0x63, 0x81, 0x70, 0x90, 0x44, 0x65, 0x86, 0x7E, 0x80, 0x3F, 0x17, 0x0B, 0x80, 0x44, 0x0B, 0x1A, 0x80, 0x38, 0x29, 0x09, 0x80, 0x31, 0x39, 0x82, 0x04, 0x90, 0x27, 0x56, 0x00, 0x90, 0x44, 0x6C, 0x81, 0x70, 0x90, 0x2E, 0x66, 0x4A, 0x80, 0x44, 0x21, 0x81, 0x26, 0x90, 0x43, 0x68, 0x81, 0x70, 0x90, 0x33, 0x63, 0x61, 0x80, 
	0x43, 0x0D, 0x81, 0x0F, 0x90, 0x41, 0x6B, 0x83, 0x2A, 0x80, 0x41, 0x6D, 0x36, 0x90, 0x3A, 0x60, 0x00, 0x90, 0x43, 0x69, 0x81, 0x02, 0x80, 0x2E, 0x3F, 0x2B, 0x80, 0x27, 0x20, 0x60, 0x80, 0x33, 0x46, 0x5C, 0x80, 0x3A, 0x40, 0x5F, 0x80, 0x43, 0x5A, 0x18, 0x90, 0x44, 0x6C, 0x00, 0x90, 0x3C, 0x69, 0x81, 0x70, 0x90, 0x33, 0x5B, 0x6A, 0x80, 0x3C, 0x35, 0x81, 0x06, 0x90, 0x3C, 0x61, 0x60, 
	0x80, 0x44, 0x05, 0x81, 0x10, 0x90, 0x44, 0x56, 0x86, 0x05, 0x80, 0x3C, 0x34, 0x0C, 0x80, 0x33, 0x27, 0x82, 0x3E, 0x80, 0x44, 0x15, 0x61, 0x90, 0x44, 0x6E, 0x00, 0x90, 0x31, 0x6B, 0x81, 0x70, 0x90, 0x38, 0x5F, 0x81, 0x06, 0x80, 0x44, 0x13, 0x6A, 0x90, 0x41, 0x65, 0x81, 0x70, 0x90, 0x49, 0x4F, 0x86, 0x4E, 0x80, 0x31, 0x20, 0x01, 0x80, 0x38, 0x14, 0x7C, 0x80, 0x41, 0x22, 0x01, 0x80, 
	0x49, 0x30, 0x81, 0x64, 0x90, 0x44, 0x69, 0x00, 0x90, 0x3C, 0x69, 0x81, 0x70, 0x90, 0x33, 0x5A, 0x79, 0x80, 0x3C, 0x30, 0x77, 0x90, 0x3C, 0x5E, 0x32, 0x80, 0x44, 0x14, 0x81, 0x3E, 0x90, 0x44, 0x5C, 0x19, 0x80, 0x3C, 0x31, 0x85, 0x2A, 0x80, 0x33, 0x4A, 0x83, 0x14, 0x80, 0x44, 0x12, 0x59, 0x90, 0x31, 0x64, 0x00, 0x90, 0x44, 0x6F, 0x81, 0x70, 0x90, 0x38, 0x50, 0x5C, 0x80, 0x44, 0x25, 
	0x81, 0x14, 0x90, 0x41, 0x65, 0x81, 0x3F, 0x80, 0x41, 0x31, 0x31, 0x90, 0x49, 0x5B, 0x85, 0x7F, 0x80, 0x31, 0x3D, 0x81, 0x41, 0x90, 0x30, 0x54, 0x2F, 0x80, 0x49, 0x37, 0x17, 0x80, 0x38, 0x3D, 0x56, 0x80, 0x30, 0x43, 0x54, 0x90, 0x2E, 0x67, 0x00, 0x90, 0x44, 0x71, 0x81, 0x70, 0x90, 0x35, 0x69, 0x81, 0x70, 0x90, 0x3D, 0x5B, 0x7D, 0x80, 0x44, 0x02, 0x73, 0x90, 0x44, 0x61, 0x76, 0x80, 
	0x2E, 0x1A, 0x82, 0x1F, 0x80, 0x35, 0x6B, 0x4B, 0x90, 0x35, 0x66, 0x23, 0x80, 0x3D, 0x3A, 0x21, 0x80, 0x44, 0x0D, 0x81, 0x2C, 0x90, 0x3D, 0x5F, 0x81, 0x70, 0x90, 0x3C, 0x62, 0x1F, 0x80, 0x3D, 0x49, 0x81, 0x28, 0x80, 0x35, 0x2A, 0x29, 0x90, 0x44, 0x74, 0x81, 0x70, 0x90, 0x38, 0x67, 0x01, 0x80, 0x3C, 0x40, 0x81, 0x06, 0x80, 0x44, 0x16, 0x69, 0x90, 0x3F, 0x5B, 0x81, 0x19, 0x80, 0x38, 
	0x26, 0x57, 0x90, 0x38, 0x49, 0x82, 0x7A, 0x80, 0x3F, 0x22, 0x66, 0x90, 0x3D, 0x66, 0x81, 0x41, 0x80, 0x38, 0x33, 0x2F, 0x90, 0x38, 0x5E, 0x31, 0x80, 0x3D, 0x48, 0x81, 0x3F, 0x90, 0x44, 0x72, 0x81, 0x32, 0x80, 0x44, 0x3A, 0x3E, 0x90, 0x44, 0x74, 0x1F, 0x80, 0x38, 0x0E, 0x81, 0x51, 0x90, 0x38, 0x66, 0x74, 0x80, 0x44, 0x1C, 0x7C, 0x90, 0x41, 0x57, 0x81, 0x70, 0x90, 0x49, 0x55, 0x83, 
	0x02, 0x80, 0x41, 0x39, 0x81, 0x0B, 0x80, 0x49, 0x17, 0x4B, 0x90, 0x3F, 0x62, 0x78, 0x90, 0x41, 0x5D, 0x59, 0x80, 0x38, 0x27, 0x35, 0x80, 0x41, 0x3A, 0x27, 0x80, 0x3F, 0x1D, 0x3B, 0x90, 0x38, 0x6A, 0x5A, 0x80, 0x38, 0x50, 0x81, 0x16, 0x90, 0x44, 0x4A, 0x81, 0x70, 0x90, 0x2E, 0x56, 0x81, 0x4F, 0x80, 0x44, 0x37, 0x21, 0x90, 0x43, 0x6D, 0x81, 0x70, 0x90, 0x33, 0x5F, 0x50, 0x80, 0x43, 
	0x13, 0x81, 0x20, 0x90, 0x41, 0x69, 0x68, 0x80, 0x33, 0x2A, 0x81, 0x08, 0x90, 0x33, 0x45, 0x81, 0x71, 0x80, 0x41, 0x3D, 0x81, 0x35, 0x80, 0x33, 0x37, 0x3A, 0x80, 0x2E, 0x36, 0x00, 0x90, 0x33, 0x4C, 0x81, 0x70, 0x80, 0x33, 0x40, 0x00, 0x90, 0x3C, 0x3A, 0x00, 0x90, 0x44, 0x69, 0x81, 0x70, 0x90, 0x31, 0x5A, 0x82, 0x74, 0x80, 0x3C, 0x1D, 0x6C, 0x90, 0x3A, 0x42, 0x87, 0x08, 0x80, 0x3A, 
	0x35, 0x4F, 0x80, 0x31, 0x6B, 0x81, 0x08, 0x80, 0x44, 0x28, 0x51, 0x90, 0x44, 0x5B, 0x00, 0x90, 0x25, 0x55, 0x81, 0x70, 0x90, 0x2C, 0x5D, 0x1B, 0x80, 0x25, 0x32, 0x81, 0x5F, 0x80, 0x2C, 0x59, 0x81, 0x66, 0x90, 0x38, 0x52, 0x88, 0x51, 0x80, 0x44, 0x18, 0x5F, 0x90, 0x44, 0x55, 0x00, 0x90, 0x2C, 0x47, 0x81, 0x56, 0x80, 0x38, 0x0C, 0x1A, 0x90, 0x33, 0x46, 0x83, 0x60, 0x90, 0x3C, 0x2C, 
	0x84, 0x4D, 0x80, 0x3C, 0x2D, 0x81, 0x03, 0x90, 0x48, 0x32, 0x28, 0x80, 0x44, 0x20, 0x8B, 0x6F, 0x80, 0x48, 0x5C, 0x81, 0x3A, 0x80, 0x33, 0x21, 0x10, 0x80, 0x2C, 0x1A, 0x84, 0x7F, 0x90, 0x39, 0x53, 0x00, 0x90, 0x40, 0x65, 0x81, 0x70, 0x90, 0x31, 0x51, 0x82, 0x36, 0x80, 0x31, 0x14, 0x81, 0x2A, 0x90, 0x31, 0x4D, 0x2E, 0x80, 0x39, 0x35, 0x82, 0x1F, 0x80, 0x31, 0x1A, 0x81, 0x13, 0x90, 
	0x31, 0x4C, 0x82, 0x44, 0x80, 0x31, 0x13, 0x81, 0x09, 0x80, 0x40, 0x02, 0x13, 0x90, 0x31, 0x54, 0x5F, 0x80, 0x31, 0x55, 0x81, 0x11, 0x90, 0x3D, 0x67, 0x00, 0x90, 0x35, 0x57, 0x81, 0x70, 0x90, 0x2C, 0x44, 0x82, 0x3F, 0x80, 0x35, 0x1E, 0x81, 0x21, 0x90, 0x35, 0x51, 0x50, 0x80, 0x3D, 0x34, 0x81, 0x7B, 0x80, 0x2C, 0x03, 0x81, 0x15, 0x90, 0x2C, 0x50, 0x38, 0x80, 0x35, 0x20, 0x81, 0x38, 
	0x90, 0x35, 0x5C, 0x67, 0x80, 0x2C, 0x2F, 0x0E, 0x80, 0x35, 0x5D, 0x7B, 0x90, 0x3D, 0x5E, 0x74, 0x80, 0x3D, 0x20, 0x7C, 0x90, 0x2A, 0x6C, 0x00, 0x90, 0x40, 0x55, 0x0E, 0x80, 0x40, 0x68, 0x81, 0x62, 0x90, 0x31, 0x5A, 0x82, 0x54, 0x80, 0x31, 0x27, 0x81, 0x0C, 0x90, 0x31, 0x60, 0x81, 0x70, 0x90, 0x3F, 0x62, 0x81, 0x70, 0x90, 0x36, 0x56, 0x82, 0x0A, 0x80, 0x3F, 0x33, 0x2F, 0x80, 0x31, 
	0x20, 0x81, 0x18, 0x80, 0x36, 0x28, 0x4F, 0x80, 0x2A, 0x42, 0x81, 0x30, 0x90, 0x3D, 0x57, 0x81, 0x70, 0x90, 0x2C, 0x3B, 0x83, 0x60, 0x90, 0x35, 0x61, 0x82, 0x4E, 0x80, 0x3D, 0x1A, 0x81, 0x03, 0x80, 0x2C, 0x02, 0x0F, 0x90, 0x3D, 0x75, 0x83, 0x2B, 0x80, 0x3D, 0x37, 0x35, 0x90, 0x3D, 0x61, 0x81, 0x26, 0x80, 0x35, 0x51, 0x4A, 0x90, 0x28, 0x65, 0x00, 0x90, 0x44, 0x6B, 0x0F, 0x80, 0x3D, 
	0x31, 0x81, 0x61, 0x90, 0x2F, 0x5E, 0x82, 0x0D, 0x80, 0x2F, 0x2D, 0x81, 0x24, 0x80, 0x28, 0x54, 0x2F, 0x90, 0x2F, 0x41, 0x82, 0x46, 0x80, 0x2F, 0x2F, 0x81, 0x1A, 0x90, 0x2F, 0x65, 0x82, 0x21, 0x80, 0x44, 0x0D, 0x81, 0x3F, 0x90, 0x38, 0x53, 0x21, 0x80, 0x2F, 0x56, 0x81, 0x48, 0x80, 0x38, 0x17, 0x07, 0x90, 0x3D, 0x69, 0x81, 0x70, 0x90, 0x34, 0x52, 0x82, 0x62, 0x80, 0x34, 0x45, 0x7E, 
	0x90, 0x34, 0x51, 0x82, 0x48, 0x80, 0x34, 0x0A, 0x81, 0x18, 0x90, 0x3F, 0x61, 0x81, 0x1D, 0x80, 0x3D, 0x26, 0x53, 0x90, 0x40, 0x6C, 0x1D, 0x80, 0x3F, 0x05, 0x81, 0x4C, 0x80, 0x40, 0x5E, 0x07, 0x90, 0x39, 0x56, 0x81, 0x07, 0x80, 0x39, 0x2E, 0x69, 0x90, 0x2A, 0x5A, 0x00, 0x90, 0x45, 0x69, 0x81, 0x70, 0x90, 0x31, 0x59, 0x82, 0x04, 0x80, 0x31, 0x21, 0x81, 0x5C, 0x90, 0x31, 0x64, 0x11, 
	0x80, 0x2A, 0x5A, 0x82, 0x11, 0x80, 0x31, 0x46, 0x81, 0x3E, 0x90, 0x31, 0x65, 0x00, 0x90, 0x44, 0x6F, 0x0D, 0x80, 0x45, 0x59, 0x81, 0x5B, 0x80, 0x44, 0x30, 0x08, 0x90, 0x42, 0x64, 0x00, 0x90, 0x36, 0x59, 0x5D, 0x80, 0x31, 0x21, 0x81, 0x13, 0x90, 0x40, 0x6C, 0x2F, 0x80, 0x42, 0x3F, 0x7C, 0x80, 0x36, 0x4A, 0x15, 0x80, 0x40, 0x58, 0x30, 0x90, 0x40, 0x75, 0x81, 0x70, 0x90, 0x36, 0x6B, 
	0x82, 0x42, 0x80, 0x36, 0x1B, 0x81, 0x1E, 0x90, 0x36, 0x67, 0x81, 0x7B, 0x80, 0x40, 0x1A, 0x2E, 0x80, 0x36, 0x42, 0x81, 0x37, 0x90, 0x36, 0x62, 0x83, 0x41, 0x90, 0x39, 0x4B, 0x23, 0x80, 0x36, 0x27, 0x81, 0x35, 0x80, 0x39, 0x56, 0x37, 0x90, 0x47, 0x72, 0x81, 0x70, 0x90, 0x33, 0x63, 0x82, 0x53, 0x80, 0x33, 0x3C, 0x81, 0x0D, 0x90, 0x33, 0x5D, 0x82, 0x75, 0x80, 0x33, 0x12, 0x42, 0x80, 
	0x47, 0x5A, 0x29, 0x90, 0x45, 0x66, 0x82, 0x68, 0x90, 0x44, 0x63, 0x25, 0x80, 0x45, 0x46, 0x81, 0x2F, 0x80, 0x44, 0x3A, 0x81, 0x14, 0x90, 0x42, 0x7E, 0x81, 0x70, 0x90, 0x2C, 0x55, 0x82, 0x71, 0x80, 0x42, 0x2D, 0x6F, 0x90, 0x40, 0x71, 0x3B, 0x80, 0x2C, 0x10, 0x81, 0x35, 0x90, 0x2C, 0x36, 0x83, 0x60, 0x90, 0x3F, 0x6F, 0x11, 0x80, 0x40, 0x1A, 0x7F, 0x80, 0x2C, 0x52, 0x60, 0x90, 0x40, 
	0x6F, 0x23, 0x80, 0x3F, 0x3B, 0x81, 0x4D, 0x90, 0x3D, 0x75, 0x30, 0x80, 0x40, 0x2B, 0x81, 0x40, 0x90, 0x34, 0x51, 0x82, 0x73, 0x80, 0x34, 0x43, 0x6D, 0x90, 0x34, 0x60, 0x82, 0x36, 0x80, 0x34, 0x18, 0x81, 0x2A, 0x90, 0x34, 0x53, 0x82, 0x49, 0x80, 0x34, 0x25, 0x81, 0x17, 0x90, 0x3F, 0x6F, 0x2A, 0x80, 0x3D, 0x28, 0x81, 0x46, 0x90, 0x40, 0x75, 0x00, 0x90, 0x2F, 0x6A, 0x04, 0x80, 0x3F, 
	0x32, 0x81, 0x6C, 0x90, 0x36, 0x63, 0x82, 0x32, 0x80, 0x36, 0x3D, 0x81, 0x2E, 0x90, 0x36, 0x62, 0x51, 0x80, 0x40, 0x22, 0x81, 0x1F, 0x90, 0x42, 0x6F, 0x6B, 0x80, 0x36, 0x41, 0x81, 0x05, 0x90, 0x36, 0x6B, 0x82, 0x58, 0x80, 0x36, 0x38, 0x81, 0x08, 0x90, 0x36, 0x73, 0x6D, 0x80, 0x36, 0x3B, 0x39, 0x80, 0x2F, 0x3B, 0x46, 0x80, 0x42, 0x45, 0x04, 0x90, 0x31, 0x5E, 0x00, 0x90, 0x41, 0x73, 
	0x81, 0x70, 0x90, 0x25, 0x52, 0x82, 0x1B, 0x80, 0x31, 0x16, 0x7D, 0x80, 0x25, 0x05, 0x48, 0x90, 0x31, 0x4C, 0x83, 0x60, 0x90, 0x38, 0x6A, 0x81, 0x51, 0x80, 0x41, 0x2C, 0x81, 0x35, 0x80, 0x31, 0x1C, 0x5A, 0x90, 0x35, 0x45, 0x81, 0x70, 0x90, 0x41, 0x54, 0x2E, 0x80, 0x35, 0x2B, 0x51, 0x80, 0x38, 0x20, 0x71, 0x90, 0x38, 0x51, 0x82, 0x20, 0x80, 0x41, 0x2C, 0x51, 0x80, 0x38, 0x33, 0x6F, 
	0x90, 0x38, 0x50, 0x81, 0x70, 0x90, 0x49, 0x2C, 0x83, 0x78, 0x80, 0x38, 0x29, 0x82, 0x24, 0x80, 0x49, 0x3F, 0x81, 0x24, 0x90, 0x44, 0x6A, 0x00, 0x90, 0x3C, 0x63, 0x81, 0x70, 0x90, 0x33, 0x54, 0x64, 0x80, 0x3C, 0x38, 0x81, 0x0C, 0x90, 0x3C, 0x61, 0x5D, 0x80, 0x44, 0x2B, 0x81, 0x13, 0x90, 0x44, 0x6A, 0x85, 0x62, 0x80, 0x3C, 0x21, 0x81, 0x0A, 0x80, 0x44, 0x20, 0x14, 0x80, 0x33, 0x3C, 
	0x82, 0x30, 0x90, 0x44, 0x6D, 0x00, 0x90, 0x31, 0x62, 0x81, 0x70, 0x90, 0x38, 0x64, 0x81, 0x27, 0x80, 0x44, 0x16, 0x49, 0x90, 0x41, 0x69, 0x81, 0x70, 0x90, 0x49, 0x47, 0x86, 0x2C, 0x80, 0x31, 0x2F, 0x03, 0x80, 0x38, 0x26, 0x47, 0x80, 0x49, 0x54, 0x1D, 0x80, 0x41, 0x07, 0x82, 0x1D, 0x90, 0x3C, 0x65, 0x00, 0x90, 0x44, 0x6C, 0x81, 0x70, 0x90, 0x33, 0x5B, 0x67, 0x80, 0x3C, 0x42, 0x81, 
	0x09, 0x90, 0x3C, 0x66, 0x63, 0x80, 0x44, 0x2D, 0x81, 0x0D, 0x90, 0x44, 0x63, 0x86, 0x6E, 0x80, 0x33, 0x48, 0x3D, 0x80, 0x3C, 0x2F, 0x6D, 0x80, 0x44, 0x02, 0x81, 0x18, 0x90, 0x44, 0x6F, 0x00, 0x90, 0x31, 0x66, 0x81, 0x70, 0x90, 0x38, 0x69, 0x81, 0x14, 0x80, 0x44, 0x2F, 0x5C, 0x90, 0x41, 0x64, 0x81, 0x70, 0x90, 0x49, 0x63, 0x83, 0x73, 0x80, 0x31, 0x48, 0x83, 0x1C, 0x80, 0x41, 0x2E, 
	0x36, 0x80, 0x38, 0x39, 0x4C, 0x80, 0x49, 0x4B, 0x81, 0x1F, 0x90, 0x3D, 0x55, 0x00, 0x90, 0x44, 0x62, 0x81, 0x70, 0x90, 0x35, 0x69, 0x7F, 0x80, 0x3D, 0x3A, 0x71, 0x90, 0x3D, 0x67, 0x17, 0x80, 0x44, 0x20, 0x81, 0x59, 0x90, 0x44, 0x5E, 0x87, 0x05, 0x80, 0x3D, 0x38, 0x03, 0x80, 0x44, 0x19, 0x5D, 0x80, 0x35, 0x2E, 0x81, 0x4B, 0x90, 0x44, 0x6D, 0x81, 0x70, 0x90, 0x38, 0x6F, 0x81, 0x68, 
	0x80, 0x44, 0x24, 0x08, 0x90, 0x3F, 0x67, 0x81, 0x70, 0x90, 0x48, 0x6E, 0x86, 0x3C, 0x80, 0x48, 0x06, 0x1A, 0x80, 0x3F, 0x10, 0x6A, 0x90, 0x48, 0x6D, 0x00, 0x90, 0x3F, 0x50, 0x75, 0x80, 0x48, 0x3B, 0x1D, 0x80, 0x38, 0x04, 0x5A, 0x80, 0x3F, 0x1D, 0x04, 0x90, 0x31, 0x67, 0x00, 0x90, 0x44, 0x72, 0x81, 0x70, 0x90, 0x38, 0x6A, 0x81, 0x46, 0x80, 0x44, 0x0C, 0x2A, 0x90, 0x3F, 0x63, 0x81, 
	0x70, 0x90, 0x44, 0x65, 0x86, 0x7E, 0x80, 0x3F, 0x17, 0x0B, 0x80, 0x44, 0x0B, 0x1A, 0x80, 0x38, 0x29, 0x09, 0x80, 0x31, 0x39, 0x82, 0x04, 0x90, 0x27, 0x56, 0x00, 0x90, 0x44, 0x6C, 0x81, 0x70, 0x90, 0x2E, 0x66, 0x4A, 0x80, 0x44, 0x21, 0x81, 0x26, 0x90, 0x43, 0x68, 0x81, 0x70, 0x90, 0x33, 0x63, 0x61, 0x80, 0x43, 0x0D, 0x81, 0x0F, 0x90, 0x41, 0x6B, 0x83, 0x2A, 0x80, 0x41, 0x6D, 0x36, 
	0x90, 0x3A, 0x60, 0x00, 0x90, 0x43, 0x69, 0x81, 0x02, 0x80, 0x2E, 0x3F, 0x2B, 0x80, 0x27, 0x20, 0x60, 0x80, 0x33, 0x46, 0x5C, 0x80, 0x3A, 0x40, 0x5F, 0x80, 0x43, 0x5A, 0x18, 0x90, 0x44, 0x6C, 0x00, 0x90, 0x3C, 0x69, 0x81, 0x70, 0x90, 0x33, 0x5B, 0x6A, 0x80, 0x3C, 0x35, 0x81, 0x06, 0x90, 0x3C, 0x61, 0x60, 0x80, 0x44, 0x05, 0x81, 0x10, 0x90, 0x44, 0x56, 0x86, 0x05, 0x80, 0x3C, 0x34, 
	0x0C, 0x80, 0x33, 0x27, 0x82, 0x3E, 0x80, 0x44, 0x15, 0x61, 0x90, 0x44, 0x6E, 0x00, 0x90, 0x31, 0x6B, 0x81, 0x70, 0x90, 0x38, 0x5F, 0x81, 0x06, 0x80, 0x44, 0x13, 0x6A, 0x90, 0x41, 0x65, 0x81, 0x70, 0x90, 0x49, 0x4F, 0x86, 0x4E, 0x80, 0x31, 0x20, 0x01, 0x80, 0x38, 0x14, 0x7C, 0x80, 0x41, 0x22, 0x01, 0x80, 0x49, 0x30, 0x81, 0x64, 0x90, 0x44, 0x69, 0x00, 0x90, 0x3C, 0x69, 0x81, 0x70, 
	0x90, 0x33, 0x5A, 0x79, 0x80, 0x3C, 0x30, 0x77, 0x90, 0x3C, 0x5E, 0x32, 0x80, 0x44, 0x14, 0x81, 0x3E, 0x90, 0x44, 0x5C, 0x19, 0x80, 0x3C, 0x31, 0x85, 0x2A, 0x80, 0x33, 0x4A, 0x83, 0x14, 0x80, 0x44, 0x12, 0x59, 0x90, 0x31, 0x64, 0x00, 0x90, 0x44, 0x6F, 0x81, 0x70, 0x90, 0x38, 0x50, 0x5C, 0x80, 0x44, 0x25, 0x81, 0x14, 0x90, 0x41, 0x65, 0x81, 0x3F, 0x80, 0x41, 0x31, 0x31, 0x90, 0x49, 
	0x5B, 0x85, 0x7F, 0x80, 0x31, 0x3D, 0x81, 0x41, 0x90, 0x30, 0x54, 0x2F, 0x80, 0x49, 0x37, 0x17, 0x80, 0x38, 0x3D, 0x56, 0x80, 0x30, 0x43, 0x54, 0x90, 0x2E, 0x67, 0x00, 0x90, 0x44, 0x71, 0x81, 0x70, 0x90, 0x35, 0x69, 0x81, 0x70, 0x90, 0x3D, 0x5B, 0x7D, 0x80, 0x44, 0x02, 0x73, 0x90, 0x44, 0x61, 0x76, 0x80, 0x2E, 0x1A, 0x82, 0x1F, 0x80, 0x35, 0x6B, 0x4B, 0x90, 0x35, 0x66, 0x23, 0x80, 
	0x3D, 0x3A, 0x21, 0x80, 0x44, 0x0D, 0x81, 0x2C, 0x90, 0x3D, 0x5F, 0x81, 0x70, 0x90, 0x3C, 0x62, 0x1F, 0x80, 0x3D, 0x49, 0x81, 0x28, 0x80, 0x35, 0x2A, 0x29, 0x90, 0x44, 0x74, 0x81, 0x70, 0x90, 0x38, 0x67, 0x01, 0x80, 0x3C, 0x40, 0x81, 0x06, 0x80, 0x44, 0x16, 0x69, 0x90, 0x3F, 0x5B, 0x81, 0x19, 0x80, 0x38, 0x26, 0x57, 0x90, 0x38, 0x49, 0x82, 0x7A, 0x80, 0x3F, 0x22, 0x66, 0x90, 0x3D, 
	0x66, 0x81, 0x41, 0x80, 0x38, 0x33, 0x2F, 0x90, 0x38, 0x5E, 0x31, 0x80, 0x3D, 0x48, 0x81, 0x3F, 0x90, 0x44, 0x72, 0x81, 0x32, 0x80, 0x44, 0x3A, 0x3E, 0x90, 0x44, 0x74, 0x1F, 0x80, 0x38, 0x0E, 0x81, 0x51, 0x90, 0x38, 0x66, 0x74, 0x80, 0x44, 0x1C, 0x7C, 0x90, 0x41, 0x57, 0x81, 0x70, 0x90, 0x49, 0x55, 0x83, 0x02, 0x80, 0x41, 0x39, 0x81, 0x0B, 0x80, 0x49, 0x17, 0x4B, 0x90, 0x3F, 0x62, 
	0x81, 0x51, 0x80, 0x38, 0x27, 0x1F, 0x90, 0x44, 0x6E, 0x3D, 0x80, 0x3F, 0x1D, 0x55, 0x80, 0x44, 0x23, 0x5E, 0x90, 0x44, 0x71, 0x5C, 0x80, 0x44, 0x24, 0x1C, 0x90, 0x44, 0x4A, 0x81, 0x70, 0x90, 0x2E, 0x56, 0x81, 0x4F, 0x80, 0x44, 0x37, 0x21, 0x90, 0x43, 0x6D, 0x81, 0x70, 0x90, 0x33, 0x5F, 0x50, 0x80, 0x43, 0x13, 0x81, 0x20, 0x90, 0x41, 0x69, 0x68, 0x80, 0x33, 0x2A, 0x81, 0x08, 0x90, 
	0x33, 0x45, 0x81, 0x71, 0x80, 0x41, 0x3D, 0x81, 0x35, 0x80, 0x33, 0x37, 0x3A, 0x80, 0x2E, 0x36, 0x00, 0x90, 0x33, 0x4C, 0x81, 0x70, 0x80, 0x33, 0x40, 0x00, 0x90, 0x3C, 0x3A, 0x00, 0x90, 0x44, 0x69, 0x81, 0x70, 0x90, 0x31, 0x5A, 0x82, 0x74, 0x80, 0x3C, 0x1D, 0x6C, 0x90, 0x3A, 0x42, 0x87, 0x08, 0x80, 0x3A, 0x35, 0x4F, 0x80, 0x31, 0x6B, 0x81, 0x08, 0x80, 0x44, 0x28, 0x51, 0x90, 0x44, 
	0x5B, 0x00, 0x90, 0x25, 0x55, 0x81, 0x70, 0x90, 0x2C, 0x5D, 0x1B, 0x80, 0x25, 0x32, 0x81, 0x5F, 0x80, 0x2C, 0x59, 0x81, 0x66, 0x90, 0x38, 0x52, 0x88, 0x51, 0x80, 0x44, 0x18, 0x5F, 0x90, 0x44, 0x55, 0x00, 0x90, 0x2C, 0x47, 0x81, 0x56, 0x80, 0x38, 0x0C, 0x1A, 0x90, 0x33, 0x46, 0x83, 0x60, 0x90, 0x3C, 0x2C, 0x84, 0x4D, 0x80, 0x3C, 0x2D, 0x81, 0x03, 0x90, 0x48, 0x32, 0x28, 0x80, 0x44, 
	0x20, 0x8B, 0x6F, 0x80, 0x48, 0x5C, 0x81, 0x3A, 0x80, 0x33, 0x21, 0x10, 0x80, 0x2C, 0x1A, 0x84, 0x7F, 0x90, 0x39, 0x53, 0x00, 0x90, 0x40, 0x65, 0x81, 0x70, 0x90, 0x31, 0x51, 0x82, 0x36, 0x80, 0x31, 0x14, 0x81, 0x2A, 0x90, 0x31, 0x4D, 0x2E, 0x80, 0x39, 0x35, 0x82, 0x1F, 0x80, 0x31, 0x1A, 0x81, 0x13, 0x90, 0x31, 0x4C, 0x82, 0x44, 0x80, 0x31, 0x13, 0x81, 0x09, 0x80, 0x40, 0x02, 0x13, 
	0x90, 0x31, 0x54, 0x5F, 0x80, 0x31, 0x55, 0x81, 0x11, 0x90, 0x3D, 0x67, 0x00, 0x90, 0x25, 0x5E, 0x00, 0x90, 0x35, 0x57, 0x83, 0x60, 0x90, 0x33, 0x5E, 0x4F, 0x80, 0x35, 0x1E, 0x81, 0x71, 0x80, 0x3D, 0x34, 0x81, 0x20, 0x90, 0x3D, 0x62, 0x82, 0x18, 0x80, 0x33, 0x2D, 0x50, 0x90, 0x33, 0x5A, 0x81, 0x29, 0x80, 0x25, 0x25, 0x13, 0x80, 0x3D, 0x1B, 0x34, 0x90, 0x38, 0x6D, 0x33, 0x80, 0x33, 
	0x2E, 0x58, 0x80, 0x38, 0x47, 0x65, 0x90, 0x36, 0x4D, 0x78, 0x90, 0x2A, 0x6C, 0x00, 0x90, 0x40, 0x55, 0x0E, 0x80, 0x40, 0x68, 0x81, 0x62, 0x90, 0x31, 0x5A, 0x1E, 0x80, 0x36, 0x31, 0x82, 0x36, 0x80, 0x31, 0x27, 0x81, 0x0C, 0x90, 0x31, 0x60, 0x81, 0x70, 0x90, 0x3F, 0x62, 0x81, 0x70, 0x90, 0x36, 0x56, 0x82, 0x0A, 0x80, 0x3F, 0x33, 0x2F, 0x80, 0x31, 0x20, 0x81, 0x18, 0x80, 0x36, 0x28, 
	0x4F, 0x80, 0x2A, 0x42, 0x81, 0x30, 0x90, 0x3D, 0x57, 0x81, 0x70, 0x90, 0x2C, 0x3B, 0x83, 0x60, 0x90, 0x35, 0x61, 0x82, 0x4E, 0x80, 0x3D, 0x1A, 0x81, 0x03, 0x80, 0x2C, 0x02, 0x0F, 0x90, 0x3D, 0x75, 0x83, 0x2B, 0x80, 0x3D, 0x37, 0x35, 0x90, 0x3D, 0x61, 0x81, 0x26, 0x80, 0x35, 0x51, 0x4A, 0x90, 0x28, 0x65, 0x00, 0x90, 0x44, 0x6B, 0x0F, 0x80, 0x3D, 0x31, 0x81, 0x61, 0x90, 0x2F, 0x5E, 
	0x82, 0x0D, 0x80, 0x2F, 0x2D, 0x81, 0x24, 0x80, 0x28, 0x54, 0x2F, 0x90, 0x2F, 0x41, 0x82, 0x46, 0x80, 0x2F, 0x2F, 0x81, 0x1A, 0x90, 0x2F, 0x65, 0x82, 0x21, 0x80, 0x44, 0x0D, 0x81, 0x3F, 0x90, 0x38, 0x53, 0x21, 0x80, 0x2F, 0x56, 0x81, 0x48, 0x80, 0x38, 0x17, 0x07, 0x90, 0x3D, 0x69, 0x81, 0x70, 0x90, 0x34, 0x52, 0x82, 0x62, 0x80, 0x34, 0x45, 0x7E, 0x90, 0x34, 0x51, 0x82, 0x48, 0x80, 
	0x34, 0x0A, 0x81, 0x18, 0x90, 0x3F, 0x61, 0x81, 0x1D, 0x80, 0x3D, 0x26, 0x53, 0x90, 0x40, 0x6C, 0x1D, 0x80, 0x3F, 0x05, 0x81, 0x4C, 0x80, 0x40, 0x5E, 0x07, 0x90, 0x39, 0x56, 0x81, 0x07, 0x80, 0x39, 0x2E, 0x69, 0x90, 0x2A, 0x5A, 0x00, 0x90, 0x45, 0x69, 0x81, 0x70, 0x90, 0x31, 0x59, 0x82, 0x04, 0x80, 0x31, 0x21, 0x81, 0x5C, 0x90, 0x31, 0x64, 0x11, 0x80, 0x2A, 0x5A, 0x82, 0x11, 0x80, 
	0x31, 0x46, 0x81, 0x3E, 0x90, 0x31, 0x65, 0x00, 0x90, 0x44, 0x6F, 0x0D, 0x80, 0x45, 0x59, 0x81, 0x5B, 0x80, 0x44, 0x30, 0x08, 0x90, 0x42, 0x64, 0x00, 0x90, 0x36, 0x59, 0x5D, 0x80, 0x31, 0x21, 0x81, 0x13, 0x90, 0x40, 0x6C, 0x2F, 0x80, 0x42, 0x3F, 0x7C, 0x80, 0x36, 0x4A, 0x15, 0x80, 0x40, 0x58, 0x30, 0x90, 0x40, 0x75, 0x81, 0x70, 0x90, 0x36, 0x6B, 0x82, 0x42, 0x80, 0x36, 0x1B, 0x81, 
	0x1E, 0x90, 0x36, 0x67, 0x81, 0x7B, 0x80, 0x40, 0x1A, 0x2E, 0x80, 0x36, 0x42, 0x81, 0x37, 0x90, 0x36, 0x62, 0x83, 0x41, 0x90, 0x39, 0x4B, 0x23, 0x80, 0x36, 0x27, 0x81, 0x35, 0x80, 0x39, 0x56, 0x37, 0x90, 0x47, 0x72, 0x81, 0x70, 0x90, 0x33, 0x63, 0x82, 0x53, 0x80, 0x33, 0x3C, 0x81, 0x0D, 0x90, 0x33, 0x5D, 0x82, 0x75, 0x80, 0x33, 0x12, 0x42, 0x80, 0x47, 0x5A, 0x29, 0x90, 0x45, 0x66, 
	0x82, 0x68, 0x90, 0x44, 0x63, 0x25, 0x80, 0x45, 0x46, 0x81, 0x2F, 0x80, 0x44, 0x3A, 0x81, 0x14, 0x90, 0x42, 0x7E, 0x81, 0x70, 0x90, 0x2C, 0x55, 0x82, 0x71, 0x80, 0x42, 0x2D, 0x6F, 0x90, 0x40, 0x71, 0x3B, 0x80, 0x2C, 0x10, 0x81, 0x35, 0x90, 0x2C, 0x36, 0x83, 0x60, 0x90, 0x3F, 0x6F, 0x11, 0x80, 0x40, 0x1A, 0x7F, 0x80, 0x2C, 0x52, 0x60, 0x90, 0x40, 0x6F, 0x23, 0x80, 0x3F, 0x3B, 0x81, 
	0x4D, 0x90, 0x3D, 0x75, 0x30, 0x80, 0x40, 0x2B, 0x81, 0x40, 0x90, 0x34, 0x51, 0x82, 0x73, 0x80, 0x34, 0x43, 0x6D, 0x90, 0x34, 0x60, 0x82, 0x36, 0x80, 0x34, 0x18, 0x81, 0x2A, 0x90, 0x34, 0x53, 0x82, 0x49, 0x80, 0x34, 0x25, 0x81, 0x17, 0x90, 0x3F, 0x6F, 0x2A, 0x80, 0x3D, 0x28, 0x81, 0x46, 0x90, 0x40, 0x75, 0x00, 0x90, 0x2F, 0x6A, 0x04, 0x80, 0x3F, 0x32, 0x81, 0x6C, 0x90, 0x36, 0x63, 
	0x82, 0x32, 0x80, 0x36, 0x3D, 0x81, 0x2E, 0x90, 0x36, 0x62, 0x51, 0x80, 0x40, 0x22, 0x81, 0x1F, 0x90, 0x42, 0x6F, 0x6B, 0x80, 0x36, 0x41, 0x81, 0x05, 0x90, 0x36, 0x6B, 0x82, 0x58, 0x80, 0x36, 0x38, 0x81, 0x08, 0x90, 0x36, 0x73, 0x6D, 0x80, 0x36, 0x3B, 0x39, 0x80, 0x2F, 0x3B, 0x46, 0x80, 0x42, 0x45, 0x04, 0x90, 0x31, 0x5E, 0x00, 0x90, 0x41, 0x73, 0x81, 0x70, 0x90, 0x25, 0x52, 0x82, 
	0x1B, 0x80, 0x31, 0x16, 0x7D, 0x80, 0x25, 0x05, 0x48, 0x90, 0x31, 0x4C, 0x83, 0x60, 0x90, 0x38, 0x6A, 0x81, 0x51, 0x80, 0x41, 0x2C, 0x81, 0x35, 0x80, 0x31, 0x1C, 0x5A, 0x90, 0x35, 0x45, 0x81, 0x70, 0x90, 0x41, 0x54, 0x2E, 0x80, 0x35, 0x2B, 0x51, 0x80, 0x38, 0x20, 0x71, 0x90, 0x38, 0x51, 0x82, 0x20, 0x80, 0x41, 0x2C, 0x51, 0x80, 0x38, 0x33, 0x6F, 0x90, 0x38, 0x50, 0x81, 0x70, 0x90, 
	0x49, 0x2C, 0x83, 0x78, 0x80, 0x38, 0x29, 0x82, 0x24, 0x80, 0x49, 0x3F, 0x81, 0x24, 0x90, 0x49, 0x5B, 0x78, 0x90, 0x3D, 0x4E, 0x18, 0x80, 0x49, 0x11, 0x60, 0x90, 0x41, 0x65, 0x1F, 0x80, 0x3D, 0x20, 0x68, 0x80, 0x41, 0x5B, 0x69, 0x90, 0x48, 0x75, 0x78, 0x90, 0x3F, 0x51, 0x2F, 0x80, 0x48, 0x3E, 0x49, 0x90, 0x44, 0x57, 0x1A, 0x80, 0x3F, 0x0A, 0x69, 0x80, 0x44, 0x3B, 0x6D, 0x90, 0x46, 
	0x47, 0x78, 0x90, 0x31, 0x3F, 0x6A, 0x80, 0x31, 0x6F, 0x81, 0x06, 0x90, 0x3A, 0x51, 0x81, 0x00, 0x80, 0x46, 0x38, 0x70, 0x90, 0x41, 0x3E, 0x54, 0x80, 0x41, 0x33, 0x81, 0x14, 0x80, 0x3A, 0x02, 0x08, 0x90, 0x36, 0x62, 0x81, 0x70, 0x90, 0x3D, 0x5F, 0x81, 0x12, 0x80, 0x3D, 0x07, 0x39, 0x80, 0x36, 0x19, 0x25, 0x90, 0x46, 0x56, 0x40, 0x80, 0x46, 0x3B, 0x38, 0x90, 0x44, 0x57, 0x78, 0x90, 
	0x3D, 0x54, 0x3E, 0x80, 0x44, 0x14, 0x81, 0x32, 0x90, 0x44, 0x40, 0x2A, 0x80, 0x3D, 0x47, 0x1D, 0x80, 0x44, 0x42, 0x31, 0x90, 0x42, 0x58, 0x78, 0x90, 0x36, 0x4C, 0x81, 0x2B, 0x80, 0x42, 0x1C, 0x45, 0x90, 0x42, 0x5C, 0x81, 0x5A, 0x80, 0x42, 0x09, 0x16, 0x90, 0x3A, 0x4C, 0x81, 0x12, 0x80, 0x3A, 0x17, 0x5E, 0x90, 0x33, 0x52, 0x58, 0x80, 0x36, 0x04, 0x81, 0x18, 0x90, 0x3A, 0x58, 0x81, 
	0x70, 0x90, 0x42, 0x66, 0x38, 0x80, 0x42, 0x54, 0x03, 0x80, 0x33, 0x2A, 0x1E, 0x80, 0x3A, 0x02, 0x1F, 0x90, 0x41, 0x60, 0x78, 0x90, 0x38, 0x5D, 0x2A, 0x80, 0x41, 0x36, 0x81, 0x46, 0x90, 0x41, 0x65, 0x3B, 0x80, 0x38, 0x02, 0x05, 0x80, 0x41, 0x4E, 0x38, 0x90, 0x3F, 0x5E, 0x78, 0x90, 0x36, 0x4F, 0x4D, 0x80, 0x3F, 0x10, 0x81, 0x18, 0x80, 0x36, 0x10, 0x0B, 0x90, 0x3F, 0x5D, 0x81, 0x4B, 
	0x80, 0x3F, 0x09, 0x25, 0x90, 0x3B, 0x60, 0x81, 0x12, 0x80, 0x3B, 0x24, 0x5E, 0x90, 0x36, 0x56, 0x78, 0x90, 0x3F, 0x5B, 0x01, 0x80, 0x36, 0x40, 0x77, 0x90, 0x33, 0x5D, 0x23, 0x80, 0x3F, 0x0E, 0x64, 0x80, 0x33, 0x12, 0x69, 0x90, 0x3F, 0x5F, 0x81, 0x38, 0x80, 0x3F, 0x17, 0x38, 0x90, 0x38, 0x5C, 0x81, 0x12, 0x80, 0x38, 0x27, 0x5E, 0x90, 0x33, 0x65, 0x78, 0x90, 0x3C, 0x55, 0x32, 0x80, 
	0x33, 0x3D, 0x46, 0x90, 0x33, 0x4C, 0x79, 0x80, 0x3C, 0x14, 0x77, 0x90, 0x3C, 0x60, 0x0E, 0x80, 0x33, 0x12, 0x81, 0x39, 0x80, 0x3C, 0x0B, 0x29, 0x90, 0x38, 0x51, 0x81, 0x1E, 0x80, 0x38, 0x2A, 0x52, 0x90, 0x33, 0x62, 0x5A, 0x80, 0x33, 0x31, 0x1E, 0x90, 0x49, 0x5B, 0x78, 0x90, 0x3D, 0x4E, 0x18, 0x80, 0x49, 0x11, 0x60, 0x90, 0x41, 0x65, 0x1F, 0x80, 0x3D, 0x20, 0x68, 0x80, 0x41, 0x5B, 
	0x69, 0x90, 0x48, 0x75, 0x78, 0x90, 0x3F, 0x51, 0x2F, 0x80, 0x48, 0x3E, 0x49, 0x90, 0x44, 0x57, 0x1A, 0x80, 0x3F, 0x0A, 0x69, 0x80, 0x44, 0x3B, 0x6D, 0x90, 0x46, 0x47, 0x78, 0x90, 0x31, 0x3F, 0x6A, 0x80, 0x31, 0x6F, 0x81, 0x06, 0x90, 0x3A, 0x51, 0x81, 0x00, 0x80, 0x46, 0x38, 0x70, 0x90, 0x41, 0x3E, 0x54, 0x80, 0x41, 0x33, 0x81, 0x14, 0x80, 0x3A, 0x02, 0x08, 0x90, 0x36, 0x62, 0x81, 
	0x70, 0x90, 0x3D, 0x5F, 0x81, 0x12, 0x80, 0x3D, 0x07, 0x39, 0x80, 0x36, 0x19, 0x25, 0x90, 0x46, 0x56, 0x40, 0x80, 0x46, 0x3B, 0x38, 0x90, 0x44, 0x57, 0x78, 0x90, 0x3D, 0x54, 0x3E, 0x80, 0x44, 0x14, 0x81, 0x32, 0x90, 0x44, 0x40, 0x2A, 0x80, 0x3D, 0x47, 0x1D, 0x80, 0x44, 0x42, 0x31, 0x90, 0x42, 0x58, 0x78, 0x90, 0x36, 0x4C, 0x81, 0x2B, 0x80, 0x42, 0x1C, 0x45, 0x90, 0x42, 0x5C, 0x81, 
	0x5A, 0x80, 0x42, 0x09, 0x16, 0x90, 0x3A, 0x4C, 0x81, 0x12, 0x80, 0x3A, 0x17, 0x5E, 0x90, 0x33, 0x52, 0x58, 0x80, 0x36, 0x04, 0x20, 0x90, 0x3A, 0x44, 0x00, 0x90, 0x4E, 0x7B, 0x49, 0x80, 0x4E, 0x40, 0x2F, 0x90, 0x46, 0x45, 0x81, 0x70, 0x90, 0x4E, 0x69, 0x02, 0x80, 0x3A, 0x2B, 0x2E, 0x80, 0x46, 0x02, 0x06, 0x80, 0x4E, 0x5B, 0x05, 0x80, 0x33, 0x2A, 0x3D, 0x90, 0x3A, 0x5A, 0x00, 0x90, 
	0x4D, 0x64, 0x71, 0x80, 0x4D, 0x3D, 0x07, 0x90, 0x46, 0x4E, 0x81, 0x1A, 0x80, 0x46, 0x12, 0x24, 0x80, 0x3A, 0x48, 0x32, 0x90, 0x4D, 0x5E, 0x2D, 0x80, 0x4D, 0x5D, 0x4B, 0x90, 0x2F, 0x54, 0x00, 0x90, 0x4B, 0x57, 0x5C, 0x80, 0x4B, 0x32, 0x1C, 0x90, 0x42, 0x4B, 0x81, 0x18, 0x80, 0x42, 0x1A, 0x58, 0x90, 0x4B, 0x5F, 0x1D, 0x80, 0x2F, 0x3A, 0x13, 0x80, 0x4B, 0x50, 0x48, 0x90, 0x2D, 0x49, 
	0x00, 0x90, 0x49, 0x5B, 0x75, 0x80, 0x49, 0x43, 0x03, 0x90, 0x40, 0x48, 0x81, 0x22, 0x80, 0x40, 0x20, 0x46, 0x80, 0x2D, 0x3C, 0x08, 0x90, 0x49, 0x4C, 0x2A, 0x80, 0x49, 0x51, 0x4E, 0x90, 0x40, 0x4C, 0x00, 0x90, 0x28, 0x54, 0x00, 0x90, 0x47, 0x51, 0x8A, 0x5B, 0x80, 0x40, 0x28, 0x5A, 0x80, 0x47, 0x0A, 0x63, 0x80, 0x28, 0x27, 0x82, 0x68, 0x90, 0x3F, 0x45, 0x00, 0x90, 0x27, 0x32, 0x00, 
	0x90, 0x46, 0x53, 0x8C, 0x3F, 0x80, 0x27, 0x1B, 0x78, 0x80, 0x3F, 0x10, 0x32, 0x80, 0x46, 0x25, 0x81, 0x17, 0x90, 0x2E, 0x14, 0x14, 0x90, 0x3A, 0x35, 0x14, 0x90, 0x41, 0x43, 0x95, 0x01, 0x80, 0x2E, 0x19, 0x05, 0x80, 0x3A, 0x39, 0x4D, 0x80, 0x41, 0x5C, 0x88, 0x05, 0x90, 0x2A, 0x56, 0x82, 0x68, 0x90, 0x38, 0x61, 0x81, 0x6A, 0x80, 0x38, 0x23, 0x06, 0x90, 0x3A, 0x5A, 0x81, 0x70, 0x90, 
	0x31, 0x5F, 0x1F, 0x80, 0x2A, 0x23, 0x81, 0x08, 0x80, 0x31, 0x3C, 0x81, 0x41, 0x90, 0x33, 0x4D, 0x6A, 0x80, 0x3A, 0x1B, 0x81, 0x06, 0x90, 0x3F, 0x62, 0x81, 0x07, 0x80, 0x33, 0x0E, 0x69, 0x90, 0x33, 0x5A, 0x81, 0x4B, 0x80, 0x33, 0x34, 0x82, 0x15, 0x90, 0x35, 0x46, 0x3B, 0x80, 0x3F, 0x13, 0x81, 0x35, 0x90, 0x3C, 0x4C, 0x81, 0x18, 0x80, 0x35, 0x3C, 0x58, 0x90, 0x35, 0x46, 0x0C, 0x80, 
	0x3C, 0x26, 0x81, 0x64, 0x90, 0x46, 0x7D, 0x82, 0x1D, 0x80, 0x35, 0x34, 0x82, 0x0E, 0x80, 0x46, 0x19, 0x83, 0x15, 0x90, 0x3A, 0x51, 0x81, 0x70, 0x90, 0x31, 0x56, 0x81, 0x20, 0x80, 0x3A, 0x3D, 0x50, 0x90, 0x3A, 0x5B, 0x70, 0x80, 0x31, 0x33, 0x81, 0x00, 0x90, 0x31, 0x46, 0x1F, 0x80, 0x3A, 0x15, 0x81, 0x51, 0x90, 0x2C, 0x50, 0x00, 0x90, 0x3D, 0x65, 0x01, 0x80, 0x31, 0x2D, 0x81, 0x6F, 
	0x90, 0x33, 0x50, 0x4D, 0x80, 0x3D, 0x42, 0x81, 0x23, 0x90, 0x38, 0x41, 0x81, 0x49, 0x80, 0x38, 0x26, 0x81, 0x07, 0x80, 0x2C, 0x0F, 0x18, 0x80, 0x33, 0x41, 0x78, 0x90, 0x25, 0x5C, 0x00, 0x90, 0x41, 0x78, 0x81, 0x70, 0x90, 0x2C, 0x4D, 0x83, 0x60, 0x90, 0x38, 0x2E, 0x84, 0x3C, 0x80, 0x25, 0x39, 0x09, 0x80, 0x2C, 0x18, 0x81, 0x58, 0x80, 0x38, 0x04, 0x83, 0x13, 0x90, 0x2A, 0x52, 0x00, 
	0x90, 0x3A, 0x5B, 0x81, 0x70, 0x90, 0x31, 0x52, 0x46, 0x80, 0x41, 0x3D, 0x25, 0x80, 0x3A, 0x3B, 0x81, 0x05, 0x90, 0x3A, 0x56, 0x81, 0x70, 0x90, 0x36, 0x5A, 0x0A, 0x80, 0x3A, 0x2C, 0x61, 0x80, 0x2A, 0x15, 0x81, 0x05, 0x90, 0x3C, 0x61, 0x0E, 0x80, 0x31, 0x41, 0x81, 0x55, 0x80, 0x36, 0x2E, 0x0D, 0x90, 0x33, 0x43, 0x81, 0x02, 0x80, 0x3C, 0x30, 0x6E, 0x90, 0x38, 0x1B, 0x82, 0x2F, 0x80, 
	0x33, 0x1D, 0x81, 0x31, 0x90, 0x2E, 0x4E, 0x00, 0x90, 0x3F, 0x5C, 0x81, 0x01, 0x80, 0x38, 0x0E, 0x81, 0x35, 0x80, 0x3F, 0x21, 0x32, 0x90, 0x3D, 0x57, 0x86, 0x7F, 0x80, 0x2E, 0x44, 0x85, 0x19, 0x90, 0x3A, 0x5A, 0x01, 0x80, 0x3D, 0x4D, 0x81, 0x6F, 0x90, 0x31, 0x53, 0x81, 0x01, 0x80, 0x3A, 0x21, 0x6F, 0x90, 0x3A, 0x61, 0x82, 0x1C, 0x80, 0x3A, 0x22, 0x4A, 0x80, 0x31, 0x2A, 0x02, 0x90, 
	0x3A, 0x3F, 0x78, 0x90, 0x3F, 0x58, 0x81, 0x70, 0x90, 0x33, 0x38, 0x22, 0x80, 0x3A, 0x25, 0x3B, 0x80, 0x3F, 0x24, 0x1B, 0x90, 0x3D, 0x51, 0x82, 0x68, 0x90, 0x3C, 0x4B, 0x0F, 0x80, 0x33, 0x49, 0x0B, 0x80, 0x3D, 0x14, 0x81, 0x56, 0x90, 0x31, 0x19, 0x81, 0x70, 0x90, 0x2C, 0x3F, 0x81, 0x27, 0x80, 0x3C, 0x20, 0x82, 0x39, 0x90, 0x35, 0x2D, 0x85, 0x72, 0x80, 0x2C, 0x29, 0x81, 0x36, 0x80, 
	0x35, 0x35, 0x09, 0x80, 0x31, 0x2A, 0x81, 0x7F, 0x90, 0x3A, 0x62, 0x00, 0x90, 0x31, 0x22, 0x3B, 0x80, 0x31, 0x12, 0x81, 0x35, 0x90, 0x31, 0x57, 0x43, 0x80, 0x3A, 0x21, 0x82, 0x25, 0x90, 0x3A, 0x4D, 0x81, 0x39, 0x80, 0x3A, 0x15, 0x37, 0x90, 0x3A, 0x11, 0x42, 0x80, 0x31, 0x12, 0x36, 0x90, 0x3F, 0x5A, 0x81, 0x64, 0x80, 0x3A, 0x2F, 0x0C, 0x90, 0x33, 0x46, 0x46, 0x80, 0x3F, 0x29, 0x32, 
	0x90, 0x3D, 0x55, 0x82, 0x68, 0x90, 0x3C, 0x5F, 0x19, 0x80, 0x3D, 0x15, 0x0D, 0x80, 0x33, 0x20, 0x81, 0x4A, 0x90, 0x3D, 0x67, 0x2B, 0x80, 0x3C, 0x3B, 0x81, 0x45, 0x90, 0x35, 0x59, 0x3E, 0x80, 0x3D, 0x3B, 0x83, 0x22, 0x90, 0x46, 0x36, 0x87, 0x24, 0x80, 0x46, 0x17, 0x82, 0x0C, 0x90, 0x3A, 0x5F, 0x81, 0x17, 0x80, 0x35, 0x2C, 0x59, 0x90, 0x31, 0x57, 0x81, 0x67, 0x80, 0x3A, 0x15, 0x81, 
	0x01, 0x90, 0x3A, 0x59, 0x81, 0x2A, 0x80, 0x31, 0x54, 0x81, 0x3E, 0x90, 0x3F, 0x65, 0x81, 0x70, 0x90, 0x33, 0x4D, 0x83, 0x64, 0x80, 0x33, 0x2C, 0x01, 0x80, 0x3A, 0x42, 0x73, 0x90, 0x38, 0x47, 0x70, 0x80, 0x3F, 0x0A, 0x08, 0x90, 0x25, 0x3A, 0x00, 0x90, 0x41, 0x6C, 0x81, 0x54, 0x80, 0x38, 0x3A, 0x83, 0x7C, 0x90, 0x33, 0x38, 0x84, 0x10, 0x80, 0x33, 0x13, 0x82, 0x3F, 0x80, 0x25, 0x19, 
	0x5C, 0x80, 0x41, 0x3D, 0x15, 0x90, 0x3F, 0x63, 0x81, 0x6B, 0x80, 0x3F, 0x35, 0x05, 0x90, 0x3D, 0x61, 0x00, 0x90, 0x2A, 0x59, 0x82, 0x68, 0x90, 0x38, 0x57, 0x35, 0x80, 0x3D, 0x2E, 0x82, 0x3D, 0x80, 0x2A, 0x19, 0x81, 0x66, 0x90, 0x3C, 0x6C, 0x81, 0x59, 0x80, 0x38, 0x33, 0x17, 0x90, 0x33, 0x54, 0x41, 0x80, 0x3C, 0x34, 0x83, 0x1F, 0x90, 0x3A, 0x53, 0x81, 0x2A, 0x80, 0x33, 0x14, 0x23, 
	0x80, 0x3A, 0x4D, 0x23, 0x90, 0x3A, 0x61, 0x81, 0x58, 0x80, 0x3A, 0x3F, 0x18, 0x90, 0x35, 0x5B, 0x81, 0x70, 0x90, 0x3C, 0x63, 0x81, 0x70, 0x90, 0x46, 0x43, 0x86, 0x21, 0x80, 0x46, 0x1B, 0x81, 0x27, 0x80, 0x3C, 0x15, 0x12, 0x80, 0x35, 0x55, 0x81, 0x56, 0x90, 0x2A, 0x59, 0x00, 0x90, 0x3D, 0x5D, 0x81, 0x70, 0x90, 0x31, 0x51, 0x6B, 0x80, 0x3D, 0x25, 0x82, 0x75, 0x90, 0x3D, 0x47, 0x28, 
	0x80, 0x2A, 0x27, 0x58, 0x80, 0x31, 0x2D, 0x70, 0x90, 0x2C, 0x44, 0x00, 0x90, 0x3F, 0x5C, 0x32, 0x80, 0x3D, 0x43, 0x81, 0x3E, 0x90, 0x33, 0x53, 0x59, 0x80, 0x3F, 0x41, 0x83, 0x07, 0x90, 0x3C, 0x61, 0x03, 0x80, 0x33, 0x45, 0x0B, 0x80, 0x2C, 0x1B, 0x81, 0x5D, 0x80, 0x3C, 0x29, 0x05, 0x90, 0x3D, 0x7B, 0x81, 0x70, 0x90, 0x2C, 0x2B, 0x8A, 0x47, 0x80, 0x2C, 0x1B, 0x81, 0x12, 0x80, 0x3D, 
	0x59, 0x81, 0x37, 0x90, 0x2A, 0x59, 0x00, 0x90, 0x3D, 0x5D, 0x81, 0x70, 0x90, 0x31, 0x51, 0x6B, 0x80, 0x3D, 0x25, 0x82, 0x75, 0x90, 0x3D, 0x47, 0x28, 0x80, 0x2A, 0x27, 0x58, 0x80, 0x31, 0x2D, 0x70, 0x90, 0x2C, 0x44, 0x00, 0x90, 0x3F, 0x5C, 0x32, 0x80, 0x3D, 0x43, 0x81, 0x3E, 0x90, 0x33, 0x53, 0x59, 0x80, 0x3F, 0x41, 0x83, 0x07, 0x90, 0x3C, 0x61, 0x03, 0x80, 0x33, 0x45, 0x0B, 0x80, 
	0x2C, 0x1B, 0x81, 0x5D, 0x80, 0x3C, 0x29, 0x05, 0x90, 0x3D, 0x7B, 0x81, 0x70, 0x90, 0x2C, 0x2B, 0x8A, 0x47, 0x80, 0x2C, 0x1B, 0x81, 0x12, 0x80, 0x3D, 0x59, 0x81, 0x37, 0x90, 0x41, 0x50, 0x00, 0x90, 0x36, 0x33, 0x86, 0x10, 0x80, 0x36, 0x1E, 0x62, 0x80, 0x41, 0x2A, 0x4E, 0x90, 0x3F, 0x4A, 0x00, 0x90, 0x2C, 0x21, 0x00, 0x90, 0x38, 0x23, 0x84, 0x5F, 0x80, 0x2C, 0x24, 0x81, 0x54, 0x80, 
	0x38, 0x1D, 0x17, 0x80, 0x3F, 0x12, 0x76, 0x90, 0x38, 0x24, 0x00, 0x90, 0x41, 0x47, 0x8B, 0x7B, 0x80, 0x38, 0x15, 0x82, 0x07, 0x80, 0x41, 0x17, 0x7E, 0x90, 0x41, 0x52, 0x00, 0x90, 0x36, 0x2D, 0x00, 0x90, 0x2A, 0x22, 0x81, 0x70, 0x90, 0x31, 0x3C, 0x81, 0x27, 0x80, 0x36, 0x18, 0x82, 0x39, 0x90, 0x3A, 0x3F, 0x26, 0x80, 0x2A, 0x1C, 0x5E, 0x80, 0x31, 0x34, 0x6C, 0x90, 0x3F, 0x4A, 0x23, 
	0x80, 0x41, 0x50, 0x81, 0x4D, 0x90, 0x33, 0x23, 0x83, 0x0B, 0x80, 0x3A, 0x17, 0x21, 0x80, 0x3F, 0x02, 0x34, 0x90, 0x3F, 0x3F, 0x1F, 0x80, 0x33, 0x61, 0x81, 0x51, 0x90, 0x3D, 0x38, 0x2B, 0x80, 0x3F, 0x15, 0x81, 0x45, 0x90, 0x38, 0x27, 0x83, 0x60, 0x90, 0x41, 0x3B, 0x86, 0x33, 0x80, 0x38, 0x47, 0x20, 0x80, 0x3D, 0x18, 0x2C, 0x80, 0x41, 0x3E, 0x82, 0x31, 0x90, 0x31, 0x26, 0x00, 0x90, 
	0x3A, 0x18, 0x00, 0x90, 0x41, 0x51, 0x81, 0x05, 0x80, 0x31, 0x14, 0x6B, 0x90, 0x31, 0x38, 0x82, 0x56, 0x80, 0x3A, 0x0B, 0x81, 0x0A, 0x90, 0x3A, 0x3F, 0x81, 0x16, 0x80, 0x31, 0x25, 0x5A, 0x90, 0x3F, 0x52, 0x00, 0x90, 0x2C, 0x10, 0x16, 0x80, 0x41, 0x5C, 0x81, 0x19, 0x80, 0x3A, 0x14, 0x41, 0x90, 0x33, 0x2A, 0x83, 0x29, 0x80, 0x3F, 0x16, 0x29, 0x80, 0x2C, 0x02, 0x0E, 0x90, 0x41, 0x51, 
	0x58, 0x80, 0x41, 0x47, 0x81, 0x18, 0x90, 0x41, 0x40, 0x0D, 0x80, 0x33, 0x15, 0x81, 0x63, 0x90, 0x38, 0x28, 0x88, 0x32, 0x80, 0x38, 0x28, 0x82, 0x6E, 0x90, 0x3A, 0x13, 0x49, 0x80, 0x3A, 0x36, 0x2D, 0x80, 0x41, 0x2A, 0x7A, 0x90, 0x41, 0x4D, 0x00, 0x90, 0x36, 0x2A, 0x81, 0x70, 0x90, 0x31, 0x30, 0x67, 0x80, 0x36, 0x34, 0x82, 0x79, 0x90, 0x44, 0x4B, 0x23, 0x80, 0x41, 0x3D, 0x81, 0x39, 
	0x80, 0x31, 0x4C, 0x82, 0x04, 0x90, 0x33, 0x2C, 0x83, 0x04, 0x80, 0x33, 0x11, 0x82, 0x4C, 0x90, 0x49, 0x47, 0x81, 0x70, 0x90, 0x38, 0x11, 0x83, 0x60, 0x90, 0x41, 0x29, 0x72, 0x80, 0x44, 0x0D, 0x81, 0x13, 0x80, 0x38, 0x14, 0x66, 0x80, 0x49, 0x15, 0x75, 0x90, 0x38, 0x2B, 0x82, 0x66, 0x80, 0x38, 0x39, 0x7A, 0x90, 0x38, 0x29, 0x82, 0x3E, 0x80, 0x41, 0x13, 0x7C, 0x80, 0x38, 0x2A, 0x26, 
	0x90, 0x38, 0x20, 0x82, 0x32, 0x80, 0x38, 0x2F, 0x81, 0x2E, 0x90, 0x38, 0x2B, 0x83, 0x15, 0x80, 0x38, 0x2F, 0x4B, 0x90, 0x38, 0x20, 0x88, 0x2C, 0x80, 0x38, 0x28, 0x00, 0xFF, 0x2F, 0x00, 0x4D, 0x54, 0x72, 0x6B, 0x00, 0x00, 0x11, 0xEB, 0x00, 0xFF, 0x03, 0x03, 0x47, 0x54, 0x52, 0x81, 0x70, 0xB3, 0x79, 0x00, 0x0A, 0xB3, 0x00, 0x00, 0x0A, 0xC3, 0x19, 0x0A, 0xB3, 0x0B, 0x7F, 0x0A, 0xB3, 
	0x07, 0x40, 0x0A, 0xB3, 0x0A, 0x60, 0x0A, 0xB3, 0x5B, 0x78, 0x0A, 0xB3, 0x5D, 0x46, 0x0A, 0xB3, 0x01, 0x00, 0x0A, 0xB3, 0x65, 0x00, 0x0A, 0xB3, 0x64, 0x00, 0x0A, 0xB3, 0x06, 0x02, 0x0A, 0xB3, 0x65, 0x7F, 0x0A, 0xB3, 0x64, 0x7F, 0x0A, 0xB3, 0x06, 0x00, 0x0A, 0xE3, 0x00, 0x40, 0x5A, 0x93, 0x3F, 0x6C, 0x00, 0x93, 0x2C, 0x52, 0x82, 0x41, 0x83, 0x3F, 0x1C, 0x27, 0x93, 0x3A, 0x61, 0x81, 
	0x70, 0x93, 0x3F, 0x4C, 0x86, 0x57, 0x83, 0x2C, 0x0B, 0x81, 0x56, 0x83, 0x3A, 0x51, 0x54, 0x83, 0x3F, 0x0C, 0x81, 0x27, 0x93, 0x41, 0x71, 0x82, 0x40, 0x83, 0x41, 0x3E, 0x28, 0x93, 0x3F, 0x52, 0x81, 0x70, 0x93, 0x44, 0x57, 0x85, 0x78, 0x83, 0x3F, 0x14, 0x82, 0x57, 0x83, 0x44, 0x21, 0x81, 0x59, 0x93, 0x2C, 0x58, 0x00, 0x93, 0x3F, 0x6C, 0x82, 0x34, 0x83, 0x3F, 0x18, 0x34, 0x93, 0x3A, 
	0x5D, 0x81, 0x70, 0x93, 0x3F, 0x54, 0x81, 0x16, 0x83, 0x3F, 0x33, 0x84, 0x7A, 0x83, 0x2C, 0x10, 0x81, 0x16, 0x83, 0x3A, 0x43, 0x83, 0x02, 0x93, 0x41, 0x6C, 0x82, 0x17, 0x83, 0x41, 0x28, 0x51, 0x93, 0x3F, 0x55, 0x81, 0x70, 0x93, 0x44, 0x44, 0x81, 0x04, 0x83, 0x44, 0x4C, 0x83, 0x54, 0x93, 0x50, 0x3F, 0x81, 0x0B, 0x83, 0x3F, 0x21, 0x83, 0x11, 0x83, 0x50, 0x49, 0x81, 0x34, 0x93, 0x3F, 
	0x6E, 0x00, 0x93, 0x2C, 0x55, 0x82, 0x68, 0x93, 0x3A, 0x6D, 0x07, 0x83, 0x3F, 0x24, 0x81, 0x69, 0x93, 0x3F, 0x55, 0x87, 0x2D, 0x83, 0x3F, 0x35, 0x29, 0x83, 0x2C, 0x1E, 0x62, 0x93, 0x44, 0x54, 0x81, 0x37, 0x83, 0x3A, 0x37, 0x09, 0x83, 0x44, 0x2F, 0x30, 0x93, 0x41, 0x72, 0x82, 0x46, 0x83, 0x41, 0x15, 0x22, 0x93, 0x3F, 0x62, 0x82, 0x68, 0x93, 0x49, 0x47, 0x83, 0x4E, 0x83, 0x3F, 0x35, 
	0x83, 0x28, 0x83, 0x49, 0x54, 0x82, 0x3A, 0x93, 0x2C, 0x57, 0x00, 0x93, 0x3F, 0x66, 0x82, 0x4E, 0x83, 0x3F, 0x21, 0x1A, 0x93, 0x3A, 0x6C, 0x81, 0x70, 0x93, 0x3F, 0x4E, 0x87, 0x3D, 0x83, 0x2C, 0x0E, 0x81, 0x28, 0x83, 0x3F, 0x20, 0x0F, 0x83, 0x3A, 0x2F, 0x81, 0x34, 0x93, 0x41, 0x6F, 0x82, 0x58, 0x83, 0x41, 0x0C, 0x10, 0x93, 0x3F, 0x4C, 0x81, 0x70, 0x93, 0x44, 0x52, 0x82, 0x4D, 0x83, 
	0x3F, 0x17, 0x83, 0x7B, 0x93, 0x30, 0x4E, 0x81, 0x2D, 0x83, 0x44, 0x27, 0x7F, 0x83, 0x30, 0x3A, 0x81, 0x34, 0x93, 0x2E, 0x6E, 0x00, 0x93, 0x41, 0x62, 0x82, 0x38, 0x83, 0x41, 0x39, 0x30, 0x93, 0x3A, 0x6D, 0x81, 0x70, 0x93, 0x41, 0x5B, 0x87, 0x73, 0x83, 0x41, 0x1A, 0x45, 0x93, 0x44, 0x63, 0x0A, 0x83, 0x2E, 0x08, 0x81, 0x37, 0x83, 0x44, 0x3D, 0x2F, 0x93, 0x30, 0x69, 0x19, 0x83, 0x3A, 
	0x33, 0x82, 0x4F, 0x93, 0x3C, 0x65, 0x81, 0x70, 0x93, 0x44, 0x60, 0x87, 0x77, 0x83, 0x44, 0x03, 0x41, 0x93, 0x44, 0x46, 0x1E, 0x83, 0x30, 0x19, 0x07, 0x83, 0x44, 0x29, 0x81, 0x4B, 0x93, 0x41, 0x72, 0x10, 0x83, 0x3C, 0x28, 0x82, 0x36, 0x83, 0x41, 0x36, 0x22, 0x93, 0x3D, 0x69, 0x81, 0x70, 0x93, 0x41, 0x6C, 0x86, 0x1D, 0x83, 0x3D, 0x13, 0x81, 0x42, 0x83, 0x41, 0x14, 0x59, 0x93, 0x44, 
	0x69, 0x81, 0x45, 0x83, 0x44, 0x47, 0x2B, 0x93, 0x3F, 0x6D, 0x82, 0x16, 0x83, 0x3F, 0x12, 0x81, 0x4A, 0x93, 0x3A, 0x6D, 0x82, 0x53, 0x83, 0x3A, 0x13, 0x81, 0x0D, 0x93, 0x3A, 0x65, 0x83, 0x1A, 0x83, 0x3A, 0x2D, 0x46, 0x93, 0x3F, 0x5F, 0x83, 0x1B, 0x83, 0x3F, 0x11, 0x45, 0x93, 0x3F, 0x6C, 0x00, 0x93, 0x2C, 0x52, 0x82, 0x41, 0x83, 0x3F, 0x1C, 0x27, 0x93, 0x3A, 0x61, 0x81, 0x70, 0x93, 
	0x3F, 0x4C, 0x86, 0x57, 0x83, 0x2C, 0x0B, 0x81, 0x56, 0x83, 0x3A, 0x51, 0x54, 0x83, 0x3F, 0x0C, 0x81, 0x27, 0x93, 0x41, 0x71, 0x82, 0x40, 0x83, 0x41, 0x3E, 0x28, 0x93, 0x3F, 0x52, 0x81, 0x70, 0x93, 0x44, 0x57, 0x85, 0x78, 0x83, 0x3F, 0x14, 0x82, 0x57, 0x83, 0x44, 0x21, 0x81, 0x59, 0x93, 0x2C, 0x58, 0x00, 0x93, 0x3F, 0x6C, 0x82, 0x34, 0x83, 0x3F, 0x18, 0x34, 0x93, 0x3A, 0x5D, 0x81, 
	0x70, 0x93, 0x3F, 0x54, 0x81, 0x16, 0x83, 0x3F, 0x33, 0x84, 0x7A, 0x83, 0x2C, 0x10, 0x81, 0x16, 0x83, 0x3A, 0x43, 0x83, 0x02, 0x93, 0x41, 0x6C, 0x82, 0x17, 0x83, 0x41, 0x28, 0x51, 0x93, 0x3F, 0x55, 0x81, 0x70, 0x93, 0x44, 0x44, 0x81, 0x04, 0x83, 0x44, 0x4C, 0x83, 0x54, 0x93, 0x50, 0x40, 0x81, 0x0B, 0x83, 0x3F, 0x21, 0x83, 0x11, 0x83, 0x50, 0x49, 0x81, 0x34, 0x93, 0x3D, 0x47, 0x82, 
	0x65, 0x83, 0x3D, 0x3D, 0x03, 0x93, 0x3C, 0x63, 0x81, 0x70, 0x93, 0x41, 0x56, 0x82, 0x55, 0x83, 0x3C, 0x13, 0x81, 0x0B, 0x93, 0x2E, 0x5F, 0x6A, 0x83, 0x41, 0x2E, 0x81, 0x06, 0x93, 0x3C, 0x6A, 0x81, 0x70, 0x93, 0x44, 0x6C, 0x06, 0x83, 0x3C, 0x5D, 0x81, 0x24, 0x83, 0x2E, 0x1E, 0x29, 0x83, 0x44, 0x10, 0x1D, 0x93, 0x3D, 0x64, 0x78, 0x93, 0x30, 0x64, 0x81, 0x79, 0x83, 0x3D, 0x29, 0x6F, 
	0x93, 0x3D, 0x64, 0x81, 0x70, 0x93, 0x44, 0x66, 0x82, 0x5F, 0x83, 0x3D, 0x38, 0x81, 0x01, 0x93, 0x3C, 0x67, 0x1A, 0x83, 0x44, 0x14, 0x81, 0x56, 0x93, 0x44, 0x6C, 0x81, 0x5A, 0x83, 0x44, 0x13, 0x16, 0x93, 0x3D, 0x5F, 0x81, 0x24, 0x83, 0x3D, 0x36, 0x0A, 0x83, 0x30, 0x1B, 0x42, 0x93, 0x3D, 0x6A, 0x78, 0x93, 0x31, 0x6E, 0x05, 0x83, 0x3D, 0x50, 0x81, 0x52, 0x83, 0x3C, 0x45, 0x81, 0x11, 
	0x93, 0x3F, 0x5A, 0x81, 0x70, 0x93, 0x44, 0x5B, 0x82, 0x35, 0x83, 0x3F, 0x11, 0x81, 0x3A, 0x83, 0x44, 0x21, 0x69, 0x93, 0x3D, 0x41, 0x82, 0x5B, 0x83, 0x3D, 0x20, 0x0D, 0x93, 0x44, 0x6E, 0x81, 0x12, 0x83, 0x44, 0x23, 0x36, 0x83, 0x31, 0x42, 0x28, 0x93, 0x44, 0x71, 0x5C, 0x83, 0x44, 0x24, 0x1C, 0x93, 0x27, 0x4E, 0x83, 0x60, 0x93, 0x3A, 0x63, 0x82, 0x7F, 0x83, 0x3A, 0x08, 0x61, 0x93, 
	0x3A, 0x55, 0x83, 0x60, 0x93, 0x43, 0x5E, 0x81, 0x29, 0x83, 0x3A, 0x1E, 0x65, 0x83, 0x27, 0x20, 0x81, 0x3C, 0x83, 0x43, 0x45, 0x16, 0x93, 0x2A, 0x56, 0x00, 0x93, 0x3F, 0x56, 0x83, 0x60, 0x93, 0x38, 0x57, 0x88, 0x27, 0x83, 0x38, 0x11, 0x62, 0x83, 0x2A, 0x14, 0x32, 0x83, 0x3F, 0x1E, 0x6D, 0x93, 0x3D, 0x4C, 0x78, 0x93, 0x41, 0x4D, 0x83, 0x60, 0x93, 0x35, 0x5B, 0x82, 0x0D, 0x83, 0x35, 
	0x37, 0x86, 0x78, 0x83, 0x3D, 0x10, 0x5C, 0x83, 0x41, 0x30, 0x47, 0x93, 0x3C, 0x48, 0x78, 0x93, 0x3F, 0x43, 0x83, 0x60, 0x93, 0x3A, 0x4D, 0x32, 0x83, 0x3C, 0x45, 0x2B, 0x83, 0x3F, 0x09, 0x84, 0x73, 0x93, 0x3F, 0x30, 0x83, 0x60, 0x93, 0x4B, 0x32, 0x8A, 0x29, 0x83, 0x4B, 0x3B, 0x68, 0x83, 0x3A, 0x37, 0x4C, 0x83, 0x3F, 0x17, 0x85, 0x13, 0x93, 0x3D, 0x49, 0x00, 0x93, 0x2A, 0x55, 0x83, 
	0x60, 0x93, 0x36, 0x5E, 0x83, 0x60, 0x93, 0x39, 0x55, 0x82, 0x33, 0x83, 0x36, 0x37, 0x81, 0x2D, 0x93, 0x36, 0x5A, 0x81, 0x31, 0x83, 0x3D, 0x37, 0x17, 0x83, 0x39, 0x1B, 0x2E, 0x83, 0x36, 0x49, 0x33, 0x83, 0x2A, 0x0A, 0x81, 0x37, 0x93, 0x38, 0x5D, 0x00, 0x93, 0x25, 0x5E, 0x83, 0x60, 0x93, 0x33, 0x5E, 0x57, 0x83, 0x38, 0x1C, 0x83, 0x09, 0x93, 0x3D, 0x62, 0x82, 0x18, 0x83, 0x33, 0x2D, 
	0x50, 0x93, 0x33, 0x5A, 0x81, 0x29, 0x83, 0x25, 0x25, 0x13, 0x83, 0x3D, 0x1B, 0x34, 0x93, 0x38, 0x6D, 0x33, 0x83, 0x33, 0x2E, 0x58, 0x83, 0x38, 0x47, 0x65, 0x93, 0x36, 0x4D, 0x78, 0x93, 0x39, 0x66, 0x82, 0x0E, 0x83, 0x36, 0x31, 0x81, 0x52, 0x93, 0x38, 0x57, 0x81, 0x50, 0x83, 0x39, 0x15, 0x82, 0x10, 0x93, 0x39, 0x60, 0x6E, 0x83, 0x38, 0x24, 0x84, 0x62, 0x93, 0x31, 0x32, 0x2A, 0x83, 
	0x31, 0x17, 0x81, 0x34, 0x83, 0x39, 0x42, 0x12, 0x93, 0x25, 0x56, 0x83, 0x60, 0x93, 0x31, 0x67, 0x83, 0x60, 0x93, 0x38, 0x69, 0x82, 0x41, 0x83, 0x31, 0x4D, 0x81, 0x1F, 0x93, 0x31, 0x6F, 0x81, 0x23, 0x83, 0x38, 0x20, 0x81, 0x53, 0x83, 0x25, 0x1B, 0x13, 0x83, 0x31, 0x3C, 0x57, 0x93, 0x3B, 0x6B, 0x83, 0x60, 0x93, 0x34, 0x5F, 0x82, 0x18, 0x83, 0x34, 0x36, 0x81, 0x48, 0x93, 0x38, 0x61, 
	0x82, 0x4C, 0x83, 0x38, 0x2D, 0x1A, 0x83, 0x3B, 0x32, 0x7A, 0x93, 0x3B, 0x63, 0x83, 0x60, 0x93, 0x2D, 0x63, 0x3F, 0x83, 0x3B, 0x52, 0x83, 0x21, 0x93, 0x3B, 0x64, 0x82, 0x3D, 0x83, 0x3B, 0x3B, 0x81, 0x23, 0x93, 0x39, 0x4F, 0x81, 0x70, 0x93, 0x34, 0x5A, 0x7B, 0x83, 0x39, 0x1D, 0x75, 0x93, 0x3D, 0x51, 0x81, 0x77, 0x83, 0x34, 0x3E, 0x19, 0x83, 0x2D, 0x42, 0x81, 0x50, 0x93, 0x42, 0x62, 
	0x82, 0x63, 0x83, 0x42, 0x30, 0x38, 0x83, 0x3D, 0x08, 0x45, 0x93, 0x36, 0x5D, 0x81, 0x6D, 0x83, 0x36, 0x2E, 0x81, 0x73, 0x93, 0x39, 0x64, 0x81, 0x6D, 0x83, 0x39, 0x54, 0x03, 0x93, 0x3D, 0x3B, 0x81, 0x45, 0x83, 0x3D, 0x20, 0x2B, 0x93, 0x3D, 0x3C, 0x81, 0x70, 0x93, 0x31, 0x62, 0x4F, 0x83, 0x31, 0x66, 0x59, 0x83, 0x3D, 0x39, 0x48, 0x93, 0x2F, 0x6B, 0x83, 0x60, 0x93, 0x3B, 0x62, 0x83, 
	0x60, 0x93, 0x3F, 0x6C, 0x82, 0x1C, 0x83, 0x2F, 0x23, 0x2C, 0x83, 0x3B, 0x50, 0x81, 0x18, 0x93, 0x2D, 0x76, 0x82, 0x5F, 0x83, 0x2D, 0x4F, 0x81, 0x01, 0x93, 0x2C, 0x5D, 0x82, 0x08, 0x83, 0x3F, 0x23, 0x81, 0x58, 0x93, 0x38, 0x67, 0x83, 0x60, 0x93, 0x3B, 0x6B, 0x78, 0x83, 0x3B, 0x31, 0x82, 0x68, 0x93, 0x33, 0x46, 0x81, 0x79, 0x83, 0x38, 0x32, 0x43, 0x83, 0x2C, 0x29, 0x08, 0x83, 0x33, 
	0x5D, 0x24, 0x93, 0x42, 0x6D, 0x62, 0x83, 0x42, 0x5D, 0x16, 0x93, 0x25, 0x5C, 0x83, 0x60, 0x93, 0x31, 0x61, 0x81, 0x70, 0x93, 0x38, 0x69, 0x82, 0x4D, 0x83, 0x31, 0x21, 0x74, 0x83, 0x38, 0x27, 0x1F, 0x93, 0x31, 0x4E, 0x81, 0x70, 0x93, 0x38, 0x63, 0x56, 0x83, 0x25, 0x35, 0x70, 0x83, 0x31, 0x4B, 0x82, 0x1A, 0x93, 0x2D, 0x64, 0x29, 0x83, 0x38, 0x24, 0x83, 0x37, 0x93, 0x3B, 0x69, 0x82, 
	0x1B, 0x83, 0x3B, 0x1B, 0x81, 0x45, 0x93, 0x39, 0x6B, 0x82, 0x6D, 0x83, 0x39, 0x38, 0x73, 0x93, 0x39, 0x69, 0x81, 0x70, 0x93, 0x34, 0x58, 0x3A, 0x83, 0x2D, 0x50, 0x81, 0x1D, 0x83, 0x34, 0x20, 0x19, 0x93, 0x3D, 0x4D, 0x82, 0x00, 0x83, 0x39, 0x39, 0x81, 0x60, 0x93, 0x3B, 0x60, 0x82, 0x08, 0x83, 0x3D, 0x0B, 0x81, 0x58, 0x93, 0x3D, 0x6A, 0x82, 0x7E, 0x83, 0x3B, 0x34, 0x62, 0x93, 0x3B, 
	0x5F, 0x81, 0x35, 0x83, 0x3B, 0x44, 0x6A, 0x83, 0x3D, 0x17, 0x81, 0x41, 0x93, 0x38, 0x5C, 0x83, 0x60, 0x93, 0x2C, 0x45, 0x81, 0x7E, 0x83, 0x2C, 0x55, 0x81, 0x62, 0x93, 0x35, 0x61, 0x0C, 0x83, 0x38, 0x2B, 0x83, 0x54, 0x93, 0x3D, 0x69, 0x66, 0x83, 0x35, 0x45, 0x82, 0x7A, 0x93, 0x31, 0x57, 0x82, 0x0D, 0x83, 0x3D, 0x35, 0x81, 0x53, 0x93, 0x3D, 0x56, 0x83, 0x60, 0x93, 0x41, 0x2B, 0x83, 
	0x58, 0x83, 0x3D, 0x1F, 0x4F, 0x83, 0x31, 0x4B, 0x81, 0x4A, 0x83, 0x41, 0x48, 0x81, 0x4F, 0x93, 0x3F, 0x6E, 0x00, 0x93, 0x2C, 0x55, 0x82, 0x68, 0x93, 0x3A, 0x6D, 0x07, 0x83, 0x3F, 0x24, 0x81, 0x69, 0x93, 0x3F, 0x55, 0x87, 0x2D, 0x83, 0x3F, 0x35, 0x29, 0x83, 0x2C, 0x1E, 0x62, 0x93, 0x44, 0x54, 0x81, 0x37, 0x83, 0x3A, 0x37, 0x09, 0x83, 0x44, 0x2F, 0x30, 0x93, 0x41, 0x72, 0x82, 0x46, 
	0x83, 0x41, 0x15, 0x22, 0x93, 0x3F, 0x62, 0x81, 0x70, 0x93, 0x44, 0x50, 0x84, 0x46, 0x83, 0x3F, 0x35, 0x83, 0x2E, 0x83, 0x44, 0x38, 0x82, 0x34, 0x93, 0x2C, 0x57, 0x00, 0x93, 0x3F, 0x66, 0x82, 0x4E, 0x83, 0x3F, 0x21, 0x1A, 0x93, 0x3A, 0x6C, 0x81, 0x70, 0x93, 0x3F, 0x4E, 0x87, 0x3D, 0x83, 0x2C, 0x0E, 0x81, 0x28, 0x83, 0x3F, 0x20, 0x0F, 0x83, 0x3A, 0x2F, 0x81, 0x34, 0x93, 0x41, 0x6F, 
	0x82, 0x58, 0x83, 0x41, 0x0C, 0x10, 0x93, 0x3F, 0x4C, 0x81, 0x70, 0x93, 0x44, 0x52, 0x82, 0x4D, 0x83, 0x3F, 0x17, 0x83, 0x7B, 0x93, 0x30, 0x4E, 0x81, 0x2D, 0x83, 0x44, 0x27, 0x7F, 0x83, 0x30, 0x3A, 0x81, 0x34, 0x93, 0x2E, 0x6E, 0x00, 0x93, 0x41, 0x62, 0x82, 0x38, 0x83, 0x41, 0x39, 0x30, 0x93, 0x3A, 0x6D, 0x81, 0x70, 0x93, 0x41, 0x5B, 0x87, 0x73, 0x83, 0x41, 0x1A, 0x45, 0x93, 0x44, 
	0x63, 0x0A, 0x83, 0x2E, 0x08, 0x81, 0x37, 0x83, 0x44, 0x3D, 0x2F, 0x93, 0x30, 0x69, 0x19, 0x83, 0x3A, 0x33, 0x82, 0x4F, 0x93, 0x3C, 0x65, 0x81, 0x70, 0x93, 0x44, 0x60, 0x87, 0x77, 0x83, 0x44, 0x03, 0x41, 0x93, 0x44, 0x46, 0x1E, 0x83, 0x30, 0x19, 0x07, 0x83, 0x44, 0x29, 0x81, 0x4B, 0x93, 0x41, 0x72, 0x10, 0x83, 0x3C, 0x28, 0x82, 0x36, 0x83, 0x41, 0x36, 0x22, 0x93, 0x3D, 0x69, 0x81, 
	0x70, 0x93, 0x41, 0x6C, 0x86, 0x1D, 0x83, 0x3D, 0x13, 0x81, 0x42, 0x83, 0x41, 0x14, 0x59, 0x93, 0x44, 0x69, 0x81, 0x45, 0x83, 0x44, 0x47, 0x2B, 0x93, 0x3F, 0x6D, 0x82, 0x16, 0x83, 0x3F, 0x12, 0x81, 0x4A, 0x93, 0x3A, 0x6D, 0x82, 0x53, 0x83, 0x3A, 0x13, 0x81, 0x0D, 0x93, 0x3A, 0x65, 0x83, 0x1A, 0x83, 0x3A, 0x2D, 0x46, 0x93, 0x3F, 0x5F, 0x83, 0x1B, 0x83, 0x3F, 0x11, 0x45, 0x93, 0x3F, 
	0x6C, 0x00, 0x93, 0x2C, 0x52, 0x82, 0x41, 0x83, 0x3F, 0x1C, 0x27, 0x93, 0x3A, 0x61, 0x81, 0x70, 0x93, 0x3F, 0x4C, 0x86, 0x57, 0x83, 0x2C, 0x0B, 0x81, 0x56, 0x83, 0x3A, 0x51, 0x54, 0x83, 0x3F, 0x0C, 0x81, 0x27, 0x93, 0x41, 0x71, 0x82, 0x40, 0x83, 0x41, 0x3E, 0x28, 0x93, 0x3F, 0x52, 0x81, 0x70, 0x93, 0x44, 0x57, 0x85, 0x78, 0x83, 0x3F, 0x14, 0x82, 0x57, 0x83, 0x44, 0x21, 0x81, 0x59, 
	0x93, 0x2C, 0x58, 0x00, 0x93, 0x3F, 0x6C, 0x82, 0x34, 0x83, 0x3F, 0x18, 0x34, 0x93, 0x3A, 0x5D, 0x81, 0x70, 0x93, 0x3F, 0x54, 0x81, 0x16, 0x83, 0x3F, 0x33, 0x84, 0x7A, 0x83, 0x2C, 0x10, 0x81, 0x16, 0x83, 0x3A, 0x43, 0x83, 0x02, 0x93, 0x41, 0x6C, 0x82, 0x17, 0x83, 0x41, 0x28, 0x51, 0x93, 0x3F, 0x55, 0x81, 0x70, 0x93, 0x44, 0x44, 0x81, 0x04, 0x83, 0x44, 0x4C, 0x83, 0x54, 0x93, 0x50, 
	0x22, 0x81, 0x0B, 0x83, 0x3F, 0x21, 0x83, 0x11, 0x83, 0x50, 0x49, 0x81, 0x34, 0x93, 0x3D, 0x47, 0x82, 0x65, 0x83, 0x3D, 0x3D, 0x03, 0x93, 0x3C, 0x63, 0x81, 0x70, 0x93, 0x41, 0x56, 0x82, 0x55, 0x83, 0x3C, 0x13, 0x81, 0x0B, 0x93, 0x2E, 0x5F, 0x6A, 0x83, 0x41, 0x2E, 0x81, 0x06, 0x93, 0x3C, 0x6A, 0x81, 0x70, 0x93, 0x44, 0x6C, 0x06, 0x83, 0x3C, 0x5D, 0x81, 0x24, 0x83, 0x2E, 0x1E, 0x29, 
	0x83, 0x44, 0x10, 0x1D, 0x93, 0x3D, 0x64, 0x78, 0x93, 0x30, 0x64, 0x81, 0x79, 0x83, 0x3D, 0x29, 0x6F, 0x93, 0x3D, 0x64, 0x81, 0x70, 0x93, 0x44, 0x66, 0x82, 0x5F, 0x83, 0x3D, 0x38, 0x81, 0x01, 0x93, 0x3C, 0x67, 0x1A, 0x83, 0x44, 0x14, 0x81, 0x56, 0x93, 0x44, 0x6C, 0x81, 0x5A, 0x83, 0x44, 0x13, 0x16, 0x93, 0x3D, 0x5F, 0x81, 0x24, 0x83, 0x3D, 0x36, 0x0A, 0x83, 0x30, 0x1B, 0x42, 0x93, 
	0x3D, 0x6A, 0x78, 0x93, 0x31, 0x6E, 0x05, 0x83, 0x3D, 0x50, 0x81, 0x52, 0x83, 0x3C, 0x45, 0x81, 0x11, 0x93, 0x3F, 0x5A, 0x81, 0x70, 0x93, 0x44, 0x5B, 0x82, 0x35, 0x83, 0x3F, 0x11, 0x81, 0x3A, 0x83, 0x44, 0x21, 0x69, 0x93, 0x3D, 0x41, 0x81, 0x70, 0x93, 0x41, 0x5D, 0x6B, 0x83, 0x3D, 0x20, 0x23, 0x83, 0x41, 0x3A, 0x62, 0x93, 0x38, 0x6A, 0x50, 0x83, 0x31, 0x42, 0x0A, 0x83, 0x38, 0x50, 
	0x81, 0x16, 0x93, 0x27, 0x4E, 0x83, 0x60, 0x93, 0x3A, 0x63, 0x82, 0x7F, 0x83, 0x3A, 0x08, 0x61, 0x93, 0x3A, 0x55, 0x83, 0x60, 0x93, 0x43, 0x5E, 0x81, 0x29, 0x83, 0x3A, 0x1E, 0x65, 0x83, 0x27, 0x20, 0x81, 0x3C, 0x83, 0x43, 0x45, 0x16, 0x93, 0x2A, 0x56, 0x00, 0x93, 0x3F, 0x56, 0x83, 0x60, 0x93, 0x38, 0x57, 0x88, 0x27, 0x83, 0x38, 0x11, 0x62, 0x83, 0x2A, 0x14, 0x32, 0x83, 0x3F, 0x1E, 
	0x6D, 0x93, 0x3D, 0x4C, 0x78, 0x93, 0x41, 0x4D, 0x83, 0x60, 0x93, 0x35, 0x5B, 0x82, 0x0D, 0x83, 0x35, 0x37, 0x86, 0x78, 0x83, 0x3D, 0x10, 0x5C, 0x83, 0x41, 0x30, 0x47, 0x93, 0x3C, 0x48, 0x78, 0x93, 0x3F, 0x43, 0x83, 0x60, 0x93, 0x3A, 0x4D, 0x32, 0x83, 0x3C, 0x45, 0x2B, 0x83, 0x3F, 0x09, 0x84, 0x73, 0x93, 0x3F, 0x30, 0x83, 0x60, 0x93, 0x4B, 0x32, 0x8A, 0x29, 0x83, 0x4B, 0x3B, 0x68, 
	0x83, 0x3A, 0x37, 0x4C, 0x83, 0x3F, 0x17, 0x85, 0x13, 0x93, 0x3D, 0x49, 0x00, 0x93, 0x2A, 0x55, 0x83, 0x60, 0x93, 0x36, 0x5E, 0x83, 0x60, 0x93, 0x39, 0x55, 0x82, 0x33, 0x83, 0x36, 0x37, 0x81, 0x2D, 0x93, 0x36, 0x5A, 0x81, 0x31, 0x83, 0x3D, 0x37, 0x17, 0x83, 0x39, 0x1B, 0x2E, 0x83, 0x36, 0x49, 0x33, 0x83, 0x2A, 0x0A, 0x81, 0x37, 0x93, 0x38, 0x5D, 0x81, 0x70, 0x93, 0x2C, 0x44, 0x82, 
	0x47, 0x83, 0x38, 0x1C, 0x81, 0x19, 0x93, 0x35, 0x51, 0x82, 0x4B, 0x83, 0x2C, 0x03, 0x81, 0x15, 0x93, 0x2C, 0x50, 0x38, 0x83, 0x35, 0x20, 0x81, 0x38, 0x93, 0x35, 0x5C, 0x67, 0x83, 0x2C, 0x2F, 0x0E, 0x83, 0x35, 0x5D, 0x7B, 0x93, 0x3D, 0x5E, 0x74, 0x83, 0x3D, 0x20, 0x7C, 0x93, 0x39, 0x66, 0x83, 0x60, 0x93, 0x38, 0x57, 0x81, 0x50, 0x83, 0x39, 0x15, 0x82, 0x10, 0x93, 0x39, 0x60, 0x6E, 
	0x83, 0x38, 0x24, 0x84, 0x62, 0x93, 0x31, 0x32, 0x2A, 0x83, 0x31, 0x17, 0x81, 0x34, 0x83, 0x39, 0x42, 0x12, 0x93, 0x25, 0x56, 0x83, 0x60, 0x93, 0x31, 0x67, 0x83, 0x60, 0x93, 0x38, 0x69, 0x82, 0x41, 0x83, 0x31, 0x4D, 0x81, 0x1F, 0x93, 0x31, 0x6F, 0x81, 0x23, 0x83, 0x38, 0x20, 0x81, 0x53, 0x83, 0x25, 0x1B, 0x13, 0x83, 0x31, 0x3C, 0x57, 0x93, 0x3B, 0x6B, 0x83, 0x60, 0x93, 0x34, 0x5F, 
	0x82, 0x18, 0x83, 0x34, 0x36, 0x81, 0x48, 0x93, 0x38, 0x61, 0x82, 0x4C, 0x83, 0x38, 0x2D, 0x1A, 0x83, 0x3B, 0x32, 0x7A, 0x93, 0x3B, 0x63, 0x83, 0x60, 0x93, 0x2D, 0x63, 0x3F, 0x83, 0x3B, 0x52, 0x83, 0x21, 0x93, 0x3B, 0x64, 0x82, 0x3D, 0x83, 0x3B, 0x3B, 0x81, 0x23, 0x93, 0x39, 0x4F, 0x81, 0x70, 0x93, 0x34, 0x5A, 0x7B, 0x83, 0x39, 0x1D, 0x75, 0x93, 0x3D, 0x51, 0x81, 0x77, 0x83, 0x34, 
	0x3E, 0x19, 0x83, 0x2D, 0x42, 0x81, 0x50, 0x93, 0x42, 0x62, 0x82, 0x63, 0x83, 0x42, 0x30, 0x38, 0x83, 0x3D, 0x08, 0x45, 0x93, 0x36, 0x5D, 0x81, 0x6D, 0x83, 0x36, 0x2E, 0x81, 0x73, 0x93, 0x39, 0x64, 0x81, 0x6D, 0x83, 0x39, 0x54, 0x03, 0x93, 0x3D, 0x3B, 0x81, 0x45, 0x83, 0x3D, 0x20, 0x2B, 0x93, 0x3D, 0x3C, 0x81, 0x70, 0x93, 0x31, 0x62, 0x4F, 0x83, 0x31, 0x66, 0x59, 0x83, 0x3D, 0x39, 
	0x48, 0x93, 0x2F, 0x6B, 0x83, 0x60, 0x93, 0x3B, 0x62, 0x83, 0x60, 0x93, 0x3F, 0x6C, 0x82, 0x1C, 0x83, 0x2F, 0x23, 0x2C, 0x83, 0x3B, 0x50, 0x81, 0x18, 0x93, 0x2D, 0x76, 0x82, 0x5F, 0x83, 0x2D, 0x4F, 0x81, 0x01, 0x93, 0x2C, 0x5D, 0x82, 0x08, 0x83, 0x3F, 0x23, 0x81, 0x58, 0x93, 0x38, 0x67, 0x83, 0x60, 0x93, 0x3B, 0x6B, 0x78, 0x83, 0x3B, 0x31, 0x82, 0x68, 0x93, 0x33, 0x46, 0x81, 0x79, 
	0x83, 0x38, 0x32, 0x43, 0x83, 0x2C, 0x29, 0x08, 0x83, 0x33, 0x5D, 0x24, 0x93, 0x42, 0x6D, 0x62, 0x83, 0x42, 0x5D, 0x16, 0x93, 0x25, 0x5C, 0x83, 0x60, 0x93, 0x31, 0x61, 0x81, 0x70, 0x93, 0x38, 0x69, 0x82, 0x4D, 0x83, 0x31, 0x21, 0x74, 0x83, 0x38, 0x27, 0x1F, 0x93, 0x31, 0x4E, 0x81, 0x70, 0x93, 0x38, 0x63, 0x56, 0x83, 0x25, 0x35, 0x70, 0x83, 0x31, 0x4B, 0x82, 0x1A, 0x93, 0x2D, 0x64, 
	0x29, 0x83, 0x38, 0x24, 0x83, 0x37, 0x93, 0x3B, 0x69, 0x82, 0x1B, 0x83, 0x3B, 0x1B, 0x81, 0x45, 0x93, 0x39, 0x6B, 0x82, 0x6D, 0x83, 0x39, 0x38, 0x73, 0x93, 0x39, 0x69, 0x81, 0x70, 0x93, 0x34, 0x58, 0x3A, 0x83, 0x2D, 0x50, 0x81, 0x1D, 0x83, 0x34, 0x20, 0x19, 0x93, 0x3D, 0x4D, 0x82, 0x00, 0x83, 0x39, 0x39, 0x81, 0x60, 0x93, 0x3B, 0x60, 0x82, 0x08, 0x83, 0x3D, 0x0B, 0x81, 0x58, 0x93, 
	0x3D, 0x6A, 0x82, 0x7E, 0x83, 0x3B, 0x34, 0x62, 0x93, 0x3B, 0x5F, 0x81, 0x35, 0x83, 0x3B, 0x44, 0x6A, 0x83, 0x3D, 0x17, 0x81, 0x41, 0x93, 0x38, 0x5C, 0x83, 0x60, 0x93, 0x2C, 0x45, 0x81, 0x7E, 0x83, 0x2C, 0x55, 0x81, 0x62, 0x93, 0x35, 0x61, 0x0C, 0x83, 0x38, 0x2B, 0x83, 0x54, 0x93, 0x3D, 0x69, 0x66, 0x83, 0x35, 0x45, 0x82, 0x7A, 0x93, 0x31, 0x57, 0x82, 0x0D, 0x83, 0x3D, 0x35, 0x81, 
	0x53, 0x93, 0x3D, 0x56, 0x83, 0x60, 0x93, 0x41, 0x2B, 0x83, 0x58, 0x83, 0x3D, 0x1F, 0x4F, 0x83, 0x31, 0x4B, 0x81, 0x4A, 0x83, 0x41, 0x48, 0x81, 0x4F, 0x93, 0x2E, 0x4C, 0x78, 0x93, 0x35, 0x3A, 0x81, 0x52, 0x83, 0x2E, 0x24, 0x1E, 0x93, 0x49, 0x56, 0x2E, 0x83, 0x49, 0x58, 0x4A, 0x93, 0x2C, 0x47, 0x1C, 0x83, 0x35, 0x25, 0x5C, 0x93, 0x35, 0x3C, 0x81, 0x5E, 0x83, 0x35, 0x4B, 0x12, 0x93, 
	0x48, 0x67, 0x1C, 0x83, 0x2C, 0x27, 0x1C, 0x83, 0x48, 0x55, 0x40, 0x93, 0x2A, 0x55, 0x81, 0x44, 0x83, 0x2A, 0x47, 0x2C, 0x93, 0x36, 0x60, 0x81, 0x70, 0x93, 0x3D, 0x6B, 0x81, 0x0A, 0x83, 0x36, 0x37, 0x66, 0x93, 0x46, 0x53, 0x6C, 0x83, 0x3D, 0x52, 0x04, 0x83, 0x46, 0x24, 0x81, 0x00, 0x93, 0x46, 0x57, 0x81, 0x1B, 0x83, 0x46, 0x0D, 0x55, 0x93, 0x42, 0x5F, 0x74, 0x83, 0x42, 0x14, 0x7C, 
	0x93, 0x35, 0x45, 0x81, 0x70, 0x93, 0x41, 0x51, 0x62, 0x83, 0x41, 0x3E, 0x25, 0x83, 0x35, 0x29, 0x69, 0x93, 0x33, 0x47, 0x81, 0x70, 0x93, 0x3A, 0x45, 0x81, 0x16, 0x83, 0x33, 0x2F, 0x5A, 0x93, 0x33, 0x2F, 0x01, 0x83, 0x3A, 0x2D, 0x81, 0x6F, 0x93, 0x42, 0x49, 0x24, 0x83, 0x33, 0x29, 0x72, 0x83, 0x42, 0x0B, 0x5A, 0x93, 0x42, 0x58, 0x81, 0x31, 0x83, 0x42, 0x0C, 0x3F, 0x93, 0x3F, 0x56, 
	0x81, 0x0F, 0x83, 0x3F, 0x28, 0x61, 0x93, 0x31, 0x5A, 0x81, 0x70, 0x93, 0x3D, 0x5F, 0x65, 0x83, 0x31, 0x5D, 0x22, 0x83, 0x3D, 0x19, 0x69, 0x93, 0x2F, 0x53, 0x81, 0x70, 0x93, 0x3B, 0x59, 0x81, 0x09, 0x83, 0x3B, 0x26, 0x67, 0x93, 0x36, 0x5F, 0x81, 0x35, 0x83, 0x36, 0x0E, 0x3B, 0x93, 0x3F, 0x50, 0x81, 0x1A, 0x83, 0x3F, 0x24, 0x52, 0x83, 0x2F, 0x4A, 0x04, 0x93, 0x2C, 0x53, 0x81, 0x70, 
	0x93, 0x38, 0x4F, 0x81, 0x01, 0x83, 0x38, 0x33, 0x6F, 0x93, 0x33, 0x5F, 0x75, 0x83, 0x33, 0x2C, 0x7B, 0x93, 0x3F, 0x5B, 0x5C, 0x83, 0x2C, 0x21, 0x14, 0x83, 0x3F, 0x2E, 0x81, 0x00, 0x93, 0x2C, 0x49, 0x81, 0x70, 0x93, 0x38, 0x50, 0x81, 0x05, 0x83, 0x38, 0x33, 0x6B, 0x93, 0x33, 0x57, 0x81, 0x6F, 0x83, 0x33, 0x05, 0x01, 0x93, 0x3C, 0x60, 0x43, 0x83, 0x2C, 0x17, 0x35, 0x83, 0x3C, 0x2F, 
	0x78, 0x93, 0x2E, 0x4C, 0x78, 0x93, 0x35, 0x3A, 0x81, 0x52, 0x83, 0x2E, 0x24, 0x1E, 0x93, 0x49, 0x56, 0x2E, 0x83, 0x49, 0x58, 0x4A, 0x93, 0x2C, 0x47, 0x1C, 0x83, 0x35, 0x25, 0x5C, 0x93, 0x35, 0x3C, 0x81, 0x5E, 0x83, 0x35, 0x4B, 0x12, 0x93, 0x48, 0x67, 0x1C, 0x83, 0x2C, 0x27, 0x1C, 0x83, 0x48, 0x55, 0x40, 0x93, 0x2A, 0x55, 0x81, 0x44, 0x83, 0x2A, 0x47, 0x2C, 0x93, 0x36, 0x60, 0x81, 
	0x70, 0x93, 0x3D, 0x6B, 0x81, 0x0A, 0x83, 0x36, 0x37, 0x66, 0x93, 0x46, 0x53, 0x6C, 0x83, 0x3D, 0x52, 0x04, 0x83, 0x46, 0x24, 0x81, 0x00, 0x93, 0x46, 0x57, 0x81, 0x1B, 0x83, 0x46, 0x0D, 0x55, 0x93, 0x42, 0x5F, 0x74, 0x83, 0x42, 0x14, 0x7C, 0x93, 0x35, 0x45, 0x81, 0x70, 0x93, 0x41, 0x51, 0x62, 0x83, 0x41, 0x3E, 0x25, 0x83, 0x35, 0x29, 0x69, 0x93, 0x33, 0x47, 0x81, 0x70, 0x93, 0x3A, 
	0x45, 0x81, 0x16, 0x83, 0x33, 0x2F, 0x5A, 0x93, 0x33, 0x2F, 0x01, 0x83, 0x3A, 0x2D, 0x81, 0x6F, 0x93, 0x42, 0x49, 0x24, 0x83, 0x33, 0x29, 0x72, 0x83, 0x42, 0x0B, 0x5A, 0x93, 0x33, 0x44, 0x00, 0x93, 0x3F, 0x38, 0x81, 0x70, 0x93, 0x4B, 0x4E, 0x09, 0x83, 0x3F, 0x06, 0x5F, 0x83, 0x33, 0x25, 0x0D, 0x83, 0x4B, 0x16, 0x7B, 0x93, 0x31, 0x26, 0x00, 0x93, 0x3D, 0x52, 0x81, 0x70, 0x93, 0x49, 
	0x51, 0x39, 0x83, 0x3D, 0x23, 0x09, 0x83, 0x31, 0x39, 0x1D, 0x83, 0x49, 0x20, 0x81, 0x11, 0x93, 0x3B, 0x4A, 0x81, 0x70, 0x93, 0x47, 0x51, 0x49, 0x83, 0x3B, 0x25, 0x2C, 0x83, 0x47, 0x0C, 0x7B, 0x93, 0x39, 0x49, 0x81, 0x70, 0x93, 0x45, 0x59, 0x46, 0x83, 0x39, 0x2C, 0x20, 0x83, 0x45, 0x2F, 0x81, 0x0A, 0x93, 0x34, 0x38, 0x00, 0x93, 0x44, 0x41, 0x8A, 0x2A, 0x83, 0x44, 0x0D, 0x4B, 0x83, 
	0x34, 0x3F, 0x84, 0x0B, 0x93, 0x33, 0x31, 0x00, 0x93, 0x43, 0x44, 0x8C, 0x77, 0x83, 0x43, 0x0A, 0x2D, 0x83, 0x33, 0x37, 0x81, 0x66, 0x93, 0x35, 0x30, 0x14, 0x93, 0x3E, 0x2C, 0x14, 0x93, 0x46, 0x27, 0x95, 0x09, 0x83, 0x35, 0x38, 0x1B, 0x83, 0x3E, 0x43, 0x5C, 0x83, 0x46, 0x59, 0x89, 0x3E, 0x93, 0x31, 0x54, 0x81, 0x70, 0x93, 0x3D, 0x63, 0x81, 0x70, 0x93, 0x36, 0x5F, 0x02, 0x83, 0x3D, 
	0x05, 0x1B, 0x83, 0x31, 0x39, 0x81, 0x53, 0x93, 0x2C, 0x5D, 0x81, 0x5C, 0x83, 0x36, 0x47, 0x81, 0x0C, 0x93, 0x38, 0x58, 0x81, 0x70, 0x93, 0x3C, 0x41, 0x81, 0x46, 0x83, 0x2C, 0x1C, 0x81, 0x22, 0x93, 0x2E, 0x46, 0x81, 0x63, 0x83, 0x3C, 0x40, 0x00, 0x83, 0x38, 0x45, 0x81, 0x05, 0x93, 0x3A, 0x57, 0x81, 0x70, 0x93, 0x41, 0x51, 0x81, 0x70, 0x93, 0x3C, 0x51, 0x0A, 0x83, 0x41, 0x3B, 0x84, 
	0x6A, 0x83, 0x3A, 0x3B, 0x36, 0x83, 0x2E, 0x15, 0x81, 0x19, 0x83, 0x3C, 0x26, 0x81, 0x75, 0x93, 0x2A, 0x53, 0x82, 0x68, 0x93, 0x38, 0x5B, 0x81, 0x70, 0x93, 0x3C, 0x68, 0x81, 0x23, 0x83, 0x38, 0x5F, 0x4D, 0x93, 0x36, 0x40, 0x35, 0x83, 0x2A, 0x34, 0x43, 0x93, 0x3A, 0x3A, 0x0A, 0x83, 0x3C, 0x13, 0x81, 0x3F, 0x83, 0x36, 0x34, 0x81, 0x1F, 0x93, 0x3F, 0x4D, 0x81, 0x46, 0x83, 0x3A, 0x1D, 
	0x82, 0x1A, 0x93, 0x31, 0x2D, 0x78, 0x93, 0x38, 0x46, 0x3A, 0x83, 0x3F, 0x12, 0x81, 0x4E, 0x83, 0x38, 0x34, 0x60, 0x93, 0x35, 0x2C, 0x87, 0x19, 0x83, 0x35, 0x43, 0x56, 0x83, 0x31, 0x3F, 0x84, 0x29, 0x93, 0x36, 0x2F, 0x81, 0x6F, 0x83, 0x36, 0x4C, 0x79, 0x93, 0x38, 0x40, 0x81, 0x70, 0x93, 0x3D, 0x59, 0x37, 0x83, 0x38, 0x30, 0x81, 0x39, 0x93, 0x3A, 0x59, 0x50, 0x83, 0x3D, 0x37, 0x28, 
	0x93, 0x2C, 0x50, 0x81, 0x45, 0x83, 0x3A, 0x28, 0x81, 0x23, 0x93, 0x3D, 0x64, 0x82, 0x68, 0x93, 0x3F, 0x59, 0x12, 0x83, 0x3D, 0x37, 0x0A, 0x83, 0x2C, 0x10, 0x81, 0x21, 0x83, 0x3F, 0x2B, 0x33, 0x93, 0x3C, 0x58, 0x81, 0x70, 0x93, 0x35, 0x51, 0x10, 0x83, 0x3C, 0x29, 0x89, 0x20, 0x93, 0x2C, 0x33, 0x82, 0x27, 0x83, 0x2C, 0x0C, 0x81, 0x39, 0x93, 0x2A, 0x56, 0x6B, 0x83, 0x35, 0x05, 0x81, 
	0x7D, 0x93, 0x36, 0x54, 0x81, 0x70, 0x93, 0x41, 0x68, 0x2D, 0x83, 0x36, 0x53, 0x81, 0x20, 0x83, 0x2A, 0x10, 0x23, 0x93, 0x36, 0x1A, 0x78, 0x93, 0x2C, 0x4F, 0x0D, 0x83, 0x41, 0x39, 0x82, 0x5B, 0x93, 0x3A, 0x42, 0x82, 0x54, 0x83, 0x3A, 0x02, 0x12, 0x83, 0x36, 0x10, 0x35, 0x83, 0x2C, 0x33, 0x81, 0x3D, 0x93, 0x25, 0x4D, 0x82, 0x68, 0x93, 0x3D, 0x59, 0x88, 0x76, 0x83, 0x25, 0x33, 0x83, 
	0x22, 0x93, 0x2A, 0x4C, 0x00, 0x93, 0x36, 0x35, 0x81, 0x0D, 0x83, 0x36, 0x0E, 0x81, 0x03, 0x83, 0x3D, 0x1D, 0x58, 0x93, 0x38, 0x52, 0x82, 0x1A, 0x83, 0x38, 0x0E, 0x4E, 0x93, 0x41, 0x5A, 0x65, 0x83, 0x2A, 0x0D, 0x81, 0x0B, 0x93, 0x2C, 0x51, 0x03, 0x83, 0x41, 0x68, 0x82, 0x65, 0x93, 0x3A, 0x29, 0x82, 0x72, 0x83, 0x3A, 0x02, 0x08, 0x83, 0x2C, 0x17, 0x81, 0x5E, 0x93, 0x2E, 0x55, 0x82, 
	0x68, 0x93, 0x3C, 0x4A, 0x82, 0x68, 0x93, 0x3D, 0x39, 0x84, 0x2A, 0x83, 0x3C, 0x1C, 0x82, 0x59, 0x83, 0x2E, 0x02, 0x81, 0x66, 0x83, 0x3D, 0x0E, 0x47, 0x93, 0x2A, 0x59, 0x82, 0x68, 0x93, 0x38, 0x46, 0x82, 0x68, 0x93, 0x41, 0x61, 0x36, 0x83, 0x2A, 0x29, 0x81, 0x37, 0x83, 0x41, 0x52, 0x03, 0x93, 0x2C, 0x47, 0x05, 0x83, 0x38, 0x19, 0x82, 0x63, 0x93, 0x44, 0x51, 0x83, 0x08, 0x83, 0x2C, 
	0x27, 0x2E, 0x83, 0x44, 0x2A, 0x81, 0x22, 0x93, 0x3D, 0x55, 0x81, 0x10, 0x83, 0x3D, 0x3B, 0x60, 0x93, 0x2C, 0x43, 0x85, 0x50, 0x93, 0x35, 0x25, 0x82, 0x7B, 0x83, 0x35, 0x10, 0x81, 0x4C, 0x83, 0x2C, 0x1A, 0x81, 0x09, 0x93, 0x3C, 0x42, 0x81, 0x2A, 0x83, 0x3C, 0x34, 0x46, 0x93, 0x3A, 0x60, 0x81, 0x70, 0x93, 0x31, 0x5B, 0x81, 0x08, 0x83, 0x3A, 0x1C, 0x82, 0x58, 0x93, 0x3D, 0x62, 0x23, 
	0x83, 0x31, 0x39, 0x81, 0x4D, 0x93, 0x2C, 0x50, 0x2C, 0x83, 0x3D, 0x22, 0x82, 0x3C, 0x93, 0x3C, 0x6F, 0x83, 0x02, 0x83, 0x3C, 0x2B, 0x0E, 0x83, 0x2C, 0x09, 0x81, 0x48, 0x93, 0x2E, 0x51, 0x82, 0x68, 0x93, 0x3A, 0x57, 0x81, 0x70, 0x93, 0x41, 0x52, 0x84, 0x74, 0x83, 0x3A, 0x10, 0x34, 0x83, 0x2E, 0x39, 0x81, 0x20, 0x93, 0x2C, 0x46, 0x81, 0x7D, 0x83, 0x41, 0x2C, 0x54, 0x83, 0x2C, 0x20, 
	0x81, 0x0F, 0x93, 0x3A, 0x48, 0x82, 0x39, 0x83, 0x3A, 0x25, 0x2F, 0x93, 0x38, 0x5F, 0x82, 0x68, 0x93, 0x3A, 0x44, 0x81, 0x44, 0x83, 0x3A, 0x1A, 0x2C, 0x93, 0x3A, 0x3C, 0x82, 0x3E, 0x83, 0x3A, 0x0C, 0x07, 0x83, 0x38, 0x37, 0x23, 0x93, 0x3D, 0x44, 0x83, 0x0E, 0x83, 0x3D, 0x15, 0x81, 0x4A, 0x93, 0x25, 0x55, 0x82, 0x68, 0x93, 0x35, 0x5F, 0x8A, 0x1A, 0x83, 0x25, 0x2F, 0x13, 0x83, 0x35, 
	0x55, 0x81, 0x6B, 0x93, 0x3A, 0x48, 0x82, 0x39, 0x83, 0x3A, 0x25, 0x2F, 0x93, 0x38, 0x5F, 0x82, 0x68, 0x93, 0x3A, 0x44, 0x81, 0x44, 0x83, 0x3A, 0x1A, 0x2C, 0x93, 0x3A, 0x3C, 0x82, 0x3E, 0x83, 0x3A, 0x0C, 0x07, 0x83, 0x38, 0x37, 0x23, 0x93, 0x3D, 0x44, 0x83, 0x0E, 0x83, 0x3D, 0x15, 0x81, 0x4A, 0x93, 0x25, 0x55, 0x82, 0x68, 0x93, 0x35, 0x5F, 0x8A, 0x1A, 0x83, 0x25, 0x2F, 0x13, 0x83, 
	0x35, 0x55, 0x81, 0x6B, 0x93, 0x3A, 0x3E, 0x00, 0x93, 0x2A, 0x37, 0x85, 0x31, 0x83, 0x2A, 0x25, 0x81, 0x36, 0x83, 0x3A, 0x2E, 0x59, 0x93, 0x33, 0x3D, 0x00, 0x93, 0x3C, 0x46, 0x84, 0x7E, 0x83, 0x33, 0x42, 0x7E, 0x83, 0x3C, 0x14, 0x81, 0x44, 0x93, 0x31, 0x27, 0x00, 0x93, 0x3C, 0x48, 0x8C, 0x2F, 0x83, 0x31, 0x43, 0x15, 0x83, 0x3C, 0x0F, 0x82, 0x3C, 0x93, 0x31, 0x3F, 0x00, 0x93, 0x3A, 
	0x45, 0x81, 0x29, 0x83, 0x31, 0x1C, 0x82, 0x37, 0x93, 0x36, 0x3D, 0x38, 0x83, 0x3A, 0x0B, 0x83, 0x28, 0x93, 0x2C, 0x27, 0x82, 0x49, 0x83, 0x36, 0x12, 0x81, 0x17, 0x93, 0x38, 0x1C, 0x81, 0x56, 0x83, 0x2C, 0x24, 0x82, 0x0A, 0x93, 0x31, 0x30, 0x34, 0x83, 0x38, 0x30, 0x83, 0x2C, 0x93, 0x3F, 0x19, 0x85, 0x50, 0x93, 0x50, 0x42, 0x82, 0x42, 0x83, 0x31, 0x2D, 0x31, 0x83, 0x3F, 0x15, 0x82, 
	0x27, 0x83, 0x50, 0x2D, 0x36, 0x93, 0x3D, 0x30, 0x00, 0x93, 0x36, 0x23, 0x00, 0x93, 0x2A, 0x2B, 0x82, 0x0D, 0x83, 0x36, 0x27, 0x81, 0x53, 0x93, 0x38, 0x3D, 0x82, 0x01, 0x83, 0x2A, 0x2B, 0x7F, 0x83, 0x3D, 0x25, 0x60, 0x93, 0x3C, 0x2E, 0x82, 0x62, 0x83, 0x38, 0x14, 0x7E, 0x93, 0x38, 0x34, 0x81, 0x07, 0x83, 0x3C, 0x0C, 0x69, 0x93, 0x3C, 0x32, 0x81, 0x70, 0x93, 0x31, 0x26, 0x70, 0x83, 
	0x38, 0x0A, 0x81, 0x07, 0x83, 0x3C, 0x10, 0x85, 0x49, 0x93, 0x49, 0x23, 0x81, 0x3A, 0x83, 0x49, 0x09, 0x82, 0x14, 0x83, 0x31, 0x3B, 0x83, 0x72, 0x93, 0x3A, 0x3B, 0x00, 0x93, 0x2A, 0x39, 0x83, 0x60, 0x93, 0x36, 0x45, 0x82, 0x6F, 0x83, 0x2A, 0x26, 0x71, 0x93, 0x2C, 0x48, 0x76, 0x83, 0x3A, 0x26, 0x82, 0x47, 0x83, 0x36, 0x02, 0x23, 0x93, 0x48, 0x2F, 0x81, 0x23, 0x83, 0x2C, 0x1E, 0x82, 
	0x3D, 0x93, 0x31, 0x42, 0x2D, 0x83, 0x48, 0x32, 0x83, 0x33, 0x93, 0x3F, 0x22, 0x83, 0x60, 0x93, 0x44, 0x20, 0x83, 0x60, 0x93, 0x55, 0x40, 0x82, 0x5A, 0x83, 0x3F, 0x14, 0x81, 0x06, 0x93, 0x3F, 0x35, 0x83, 0x60, 0x93, 0x41, 0x1E, 0x41, 0x83, 0x44, 0x0A, 0x83, 0x1F, 0x93, 0x44, 0x0E, 0x82, 0x4C, 0x83, 0x55, 0x25, 0x81, 0x14, 0x93, 0x49, 0x15, 0x85, 0x58, 0x83, 0x3F, 0x29, 0x5C, 0x83, 
	0x41, 0x29, 0x07, 0x83, 0x44, 0x29, 0x36, 0x83, 0x49, 0x15, 0x08, 0x83, 0x31, 0x5D, 0x00, 0xFF, 0x2F, 0x00, 0x4D, 0x54, 0x72, 0x6B, 0x00, 0x00, 0x07, 0x45, 0x00, 0xFF, 0x03, 0x07, 0x4F, 0x43, 0x41, 0x52, 0x49, 0x4E, 0x41, 0x81, 0x70, 0xB1, 0x79, 0x00, 0x0A, 0xB1, 0x00, 0x00, 0x0A, 0xC1, 0x4F, 0x0A, 0xB1, 0x0B, 0x7F, 0x0A, 0xB1, 0x07, 0x58, 0x0A, 0xB1, 0x0A, 0x50, 0x0A, 0xB1, 0x5B, 
	0x5A, 0x0A, 0xB1, 0x5D, 0x1E, 0x0A, 0xB1, 0x01, 0x00, 0x0A, 0xB1, 0x65, 0x00, 0x0A, 0xB1, 0x64, 0x00, 0x0A, 0xB1, 0x06, 0x02, 0x0A, 0xB1, 0x65, 0x7F, 0x0A, 0xB1, 0x64, 0x7F, 0x0A, 0xB1, 0x06, 0x00, 0x0A, 0xE1, 0x00, 0x40, 0x82, 0xE4, 0x7A, 0x91, 0x42, 0x46, 0x78, 0x91, 0x44, 0x58, 0x1B, 0x81, 0x42, 0x4D, 0x5D, 0x91, 0x46, 0x6E, 0x27, 0x81, 0x44, 0x54, 0x46, 0x81, 0x46, 0x58, 0x0B, 
	0x91, 0x48, 0x79, 0x78, 0x91, 0x49, 0x69, 0x15, 0x81, 0x48, 0x54, 0x85, 0x3B, 0xB1, 0x01, 0x50, 0x84, 0x4C, 0x81, 0x49, 0x34, 0x7A, 0xB1, 0x01, 0x00, 0x0A, 0x91, 0x4B, 0x5B, 0x81, 0x6F, 0x81, 0x4B, 0x2D, 0x01, 0x91, 0x49, 0x5E, 0x81, 0x41, 0x81, 0x49, 0x42, 0x2F, 0x91, 0x49, 0x63, 0x83, 0x60, 0x91, 0x44, 0x55, 0x0B, 0x81, 0x49, 0x2E, 0x85, 0x45, 0xB1, 0x01, 0x50, 0x83, 0x53, 0x81, 
	0x44, 0x42, 0x81, 0x73, 0xB1, 0x01, 0x00, 0x0A, 0x91, 0x49, 0x6D, 0x85, 0x50, 0xB1, 0x01, 0x50, 0x82, 0x46, 0x81, 0x49, 0x0C, 0x81, 0x10, 0xB1, 0x01, 0x00, 0x0A, 0x91, 0x4D, 0x67, 0x81, 0x70, 0x91, 0x4B, 0x4E, 0x12, 0x81, 0x4D, 0x27, 0x83, 0x3F, 0x81, 0x4B, 0x48, 0x0F, 0x91, 0x49, 0x54, 0x85, 0x50, 0xB1, 0x01, 0x50, 0x85, 0x2D, 0x81, 0x49, 0x21, 0x19, 0xB1, 0x01, 0x00, 0x0A, 0x91, 
	0x4D, 0x52, 0x81, 0x70, 0x91, 0x4E, 0x71, 0x12, 0x81, 0x4D, 0x3B, 0x81, 0x54, 0x81, 0x4E, 0x5B, 0x0A, 0x91, 0x50, 0x63, 0x85, 0x50, 0xB1, 0x01, 0x50, 0x83, 0x68, 0x81, 0x50, 0x34, 0x81, 0x5E, 0xB1, 0x01, 0x00, 0x0A, 0x91, 0x47, 0x6A, 0x83, 0x26, 0x81, 0x47, 0x42, 0x3A, 0x91, 0x49, 0x6E, 0x85, 0x50, 0xB1, 0x01, 0x50, 0x83, 0x66, 0x81, 0x49, 0x47, 0x81, 0x60, 0xB1, 0x01, 0x00, 0x0A, 
	0x91, 0x4B, 0x46, 0x78, 0x91, 0x4C, 0x61, 0x20, 0x81, 0x4B, 0x19, 0x58, 0x91, 0x4E, 0x71, 0x09, 0x81, 0x4C, 0x48, 0x6F, 0x81, 0x4E, 0x48, 0x00, 0x91, 0x50, 0x67, 0x78, 0x91, 0x51, 0x68, 0x1B, 0x81, 0x50, 0x38, 0x85, 0x35, 0xB1, 0x01, 0x50, 0x82, 0x4A, 0x81, 0x51, 0x47, 0x81, 0x0C, 0xB1, 0x01, 0x00, 0x0A, 0x91, 0x50, 0x6E, 0x81, 0x5B, 0x81, 0x50, 0x37, 0x15, 0x91, 0x4E, 0x75, 0x81, 
	0x63, 0x81, 0x4E, 0x3B, 0x0D, 0x91, 0x4C, 0x66, 0x81, 0x40, 0x81, 0x4C, 0x49, 0x30, 0x91, 0x4C, 0x60, 0x85, 0x50, 0xB1, 0x01, 0x50, 0x49, 0x81, 0x4C, 0x30, 0x81, 0x1D, 0xB1, 0x01, 0x00, 0x0A, 0x91, 0x4B, 0x4D, 0x83, 0x3E, 0x81, 0x4B, 0x27, 0x22, 0x91, 0x4C, 0x65, 0x72, 0x81, 0x4C, 0x51, 0x06, 0x91, 0x4E, 0x6B, 0x78, 0x91, 0x50, 0x62, 0x0D, 0x81, 0x4E, 0x59, 0x67, 0x81, 0x50, 0x2C, 
	0x04, 0x91, 0x51, 0x6B, 0x78, 0x91, 0x53, 0x75, 0x0C, 0x81, 0x51, 0x32, 0x85, 0x44, 0xB1, 0x01, 0x50, 0x81, 0x6E, 0x81, 0x53, 0x23, 0x81, 0x68, 0xB1, 0x01, 0x00, 0x0A, 0x91, 0x51, 0x64, 0x82, 0x48, 0x81, 0x51, 0x4B, 0x20, 0x91, 0x50, 0x72, 0x81, 0x4C, 0x81, 0x50, 0x36, 0x24, 0x91, 0x4E, 0x7D, 0x6B, 0x81, 0x4E, 0x4E, 0x0D, 0x91, 0x4E, 0x76, 0x85, 0x2A, 0x81, 0x4E, 0x7F, 0x26, 0x91, 
	0x4C, 0x5B, 0x85, 0x50, 0xB1, 0x01, 0x50, 0x81, 0x23, 0x81, 0x4C, 0x42, 0x82, 0x33, 0xB1, 0x01, 0x00, 0x0A, 0x91, 0x49, 0x54, 0x85, 0x50, 0xB1, 0x01, 0x50, 0x86, 0x0F, 0x81, 0x49, 0x27, 0x81, 0x27, 0xB1, 0x01, 0x00, 0x0A, 0x91, 0x4B, 0x54, 0x75, 0x81, 0x4B, 0x35, 0x03, 0x91, 0x4C, 0x5E, 0x78, 0x91, 0x4E, 0x71, 0x10, 0x81, 0x4C, 0x25, 0x83, 0x31, 0x81, 0x4E, 0x30, 0x1F, 0x91, 0x4C, 
	0x5D, 0x83, 0x5F, 0x81, 0x4C, 0x32, 0x01, 0x91, 0x4B, 0x5C, 0x83, 0x60, 0x91, 0x47, 0x64, 0x0B, 0x81, 0x4B, 0x27, 0x83, 0x3A, 0x81, 0x47, 0x41, 0x1B, 0x91, 0x49, 0x6B, 0x85, 0x50, 0xB1, 0x01, 0x50, 0x92, 0x34, 0x81, 0x49, 0x39, 0x82, 0xAA, 0x3C, 0xB1, 0x01, 0x00, 0x83, 0x60, 0x91, 0x42, 0x46, 0x78, 0x91, 0x44, 0x58, 0x1B, 0x81, 0x42, 0x4D, 0x5D, 0x91, 0x46, 0x6E, 0x27, 0x81, 0x44, 
	0x54, 0x46, 0x81, 0x46, 0x58, 0x0B, 0x91, 0x48, 0x79, 0x78, 0x91, 0x49, 0x69, 0x15, 0x81, 0x48, 0x54, 0x85, 0x3B, 0xB1, 0x01, 0x50, 0x84, 0x4C, 0x81, 0x49, 0x34, 0x7A, 0xB1, 0x01, 0x00, 0x0A, 0x91, 0x4B, 0x5B, 0x81, 0x6F, 0x81, 0x4B, 0x2D, 0x01, 0x91, 0x49, 0x5E, 0x81, 0x41, 0x81, 0x49, 0x42, 0x2F, 0x91, 0x49, 0x63, 0x83, 0x60, 0x91, 0x44, 0x55, 0x0B, 0x81, 0x49, 0x2E, 0x85, 0x45, 
	0xB1, 0x01, 0x50, 0x83, 0x53, 0x81, 0x44, 0x42, 0x81, 0x73, 0xB1, 0x01, 0x00, 0x0A, 0x91, 0x49, 0x6D, 0x85, 0x50, 0xB1, 0x01, 0x50, 0x82, 0x46, 0x81, 0x49, 0x0C, 0x81, 0x10, 0xB1, 0x01, 0x00, 0x0A, 0x91, 0x4D, 0x67, 0x81, 0x70, 0x91, 0x4B, 0x4E, 0x12, 0x81, 0x4D, 0x27, 0x83, 0x3F, 0x81, 0x4B, 0x48, 0x0F, 0x91, 0x49, 0x54, 0x85, 0x50, 0xB1, 0x01, 0x50, 0x85, 0x2D, 0x81, 0x49, 0x21, 
	0x19, 0xB1, 0x01, 0x00, 0x0A, 0x91, 0x4D, 0x52, 0x81, 0x70, 0x91, 0x4E, 0x71, 0x12, 0x81, 0x4D, 0x3B, 0x81, 0x54, 0x81, 0x4E, 0x5B, 0x0A, 0x91, 0x50, 0x63, 0x85, 0x50, 0xB1, 0x01, 0x50, 0x83, 0x68, 0x81, 0x50, 0x34, 0x81, 0x5E, 0xB1, 0x01, 0x00, 0x0A, 0x91, 0x47, 0x6A, 0x83, 0x26, 0x81, 0x47, 0x42, 0x3A, 0x91, 0x49, 0x6E, 0x85, 0x50, 0xB1, 0x01, 0x50, 0x83, 0x66, 0x81, 0x49, 0x47, 
	0x81, 0x60, 0xB1, 0x01, 0x00, 0x0A, 0x91, 0x4B, 0x46, 0x78, 0x91, 0x4C, 0x61, 0x20, 0x81, 0x4B, 0x19, 0x58, 0x91, 0x4E, 0x71, 0x09, 0x81, 0x4C, 0x48, 0x6F, 0x81, 0x4E, 0x48, 0x00, 0x91, 0x50, 0x67, 0x78, 0x91, 0x51, 0x68, 0x1B, 0x81, 0x50, 0x38, 0x85, 0x35, 0xB1, 0x01, 0x50, 0x82, 0x4A, 0x81, 0x51, 0x47, 0x81, 0x0C, 0xB1, 0x01, 0x00, 0x0A, 0x91, 0x50, 0x6E, 0x81, 0x5B, 0x81, 0x50, 
	0x37, 0x15, 0x91, 0x4E, 0x75, 0x81, 0x63, 0x81, 0x4E, 0x3B, 0x0D, 0x91, 0x4C, 0x66, 0x81, 0x40, 0x81, 0x4C, 0x49, 0x30, 0x91, 0x4C, 0x60, 0x85, 0x50, 0xB1, 0x01, 0x50, 0x49, 0x81, 0x4C, 0x30, 0x81, 0x1D, 0xB1, 0x01, 0x00, 0x0A, 0x91, 0x4B, 0x4D, 0x83, 0x3E, 0x81, 0x4B, 0x27, 0x22, 0x91, 0x4C, 0x65, 0x72, 0x81, 0x4C, 0x51, 0x06, 0x91, 0x4E, 0x6B, 0x78, 0x91, 0x50, 0x62, 0x0D, 0x81, 
	0x4E, 0x59, 0x67, 0x81, 0x50, 0x2C, 0x04, 0x91, 0x51, 0x6B, 0x78, 0x91, 0x53, 0x75, 0x0C, 0x81, 0x51, 0x32, 0x85, 0x44, 0xB1, 0x01, 0x50, 0x81, 0x6E, 0x81, 0x53, 0x23, 0x81, 0x68, 0xB1, 0x01, 0x00, 0x0A, 0x91, 0x51, 0x64, 0x82, 0x48, 0x81, 0x51, 0x4B, 0x20, 0x91, 0x50, 0x72, 0x81, 0x4C, 0x81, 0x50, 0x36, 0x24, 0x91, 0x4E, 0x7D, 0x6B, 0x81, 0x4E, 0x4E, 0x0D, 0x91, 0x4E, 0x76, 0x85, 
	0x2A, 0x81, 0x4E, 0x7F, 0x26, 0x91, 0x4C, 0x5B, 0x85, 0x50, 0xB1, 0x01, 0x50, 0x81, 0x23, 0x81, 0x4C, 0x42, 0x82, 0x33, 0xB1, 0x01, 0x00, 0x0A, 0x91, 0x49, 0x54, 0x85, 0x50, 0xB1, 0x01, 0x50, 0x86, 0x0F, 0x81, 0x49, 0x27, 0x81, 0x27, 0xB1, 0x01, 0x00, 0x0A, 0x91, 0x4B, 0x54, 0x75, 0x81, 0x4B, 0x35, 0x03, 0x91, 0x4C, 0x5E, 0x78, 0x91, 0x4E, 0x71, 0x10, 0x81, 0x4C, 0x25, 0x83, 0x31, 
	0x81, 0x4E, 0x30, 0x1F, 0x91, 0x4C, 0x5D, 0x83, 0x5F, 0x81, 0x4C, 0x32, 0x01, 0x91, 0x4B, 0x5C, 0x83, 0x60, 0x91, 0x47, 0x64, 0x0B, 0x81, 0x4B, 0x27, 0x83, 0x3A, 0x81, 0x47, 0x41, 0x1B, 0x91, 0x49, 0x6B, 0x85, 0x50, 0xB1, 0x01, 0x50, 0x92, 0x34, 0x81, 0x49, 0x39, 0x81, 0x9F, 0x5C, 0xB1, 0x01, 0x00, 0x83, 0x60, 0x91, 0x4E, 0x64, 0x83, 0x60, 0x81, 0x4E, 0x44, 0x00, 0x91, 0x50, 0x5A, 
	0x83, 0x60, 0x81, 0x50, 0x33, 0x00, 0x91, 0x52, 0x4B, 0x85, 0x50, 0xB1, 0x01, 0x50, 0x5D, 0x81, 0x52, 0x20, 0x81, 0x09, 0xB1, 0x01, 0x00, 0x0A, 0x91, 0x50, 0x52, 0x85, 0x2B, 0x81, 0x50, 0x12, 0x25, 0x91, 0x49, 0x41, 0x81, 0x70, 0x91, 0x4B, 0x5B, 0x15, 0x81, 0x49, 0x3B, 0x82, 0x22, 0x81, 0x4B, 0x31, 0x31, 0x91, 0x4D, 0x55, 0x85, 0x50, 0xB1, 0x01, 0x50, 0x82, 0x2D, 0x81, 0x4D, 0x73, 
	0x84, 0x11, 0xB1, 0x01, 0x00, 0x0A, 0x91, 0x52, 0x56, 0x85, 0x50, 0xB1, 0x01, 0x50, 0x81, 0x66, 0xB1, 0x01, 0x00, 0x0A, 0x91, 0x50, 0x40, 0x0C, 0x81, 0x52, 0x17, 0x85, 0x44, 0x91, 0x49, 0x36, 0x0C, 0x81, 0x50, 0x0D, 0x81, 0x64, 0x91, 0x4B, 0x5B, 0x1C, 0x81, 0x49, 0x41, 0x81, 0x54, 0x91, 0x49, 0x54, 0x05, 0x81, 0x4B, 0x5A, 0x85, 0x4B, 0xB1, 0x01, 0x50, 0x82, 0x4B, 0x81, 0x49, 0x2C, 
	0x82, 0x7B, 0xB1, 0x01, 0x00, 0x0A, 0x91, 0x4E, 0x54, 0x78, 0x91, 0x50, 0x62, 0x39, 0x81, 0x4E, 0x3B, 0x3F, 0x91, 0x52, 0x60, 0x37, 0x81, 0x50, 0x47, 0x85, 0x19, 0x91, 0x55, 0x51, 0x26, 0x81, 0x52, 0x4A, 0x31, 0x81, 0x55, 0x38, 0x21, 0x91, 0x54, 0x5C, 0x82, 0x68, 0x91, 0x50, 0x51, 0x0B, 0x81, 0x54, 0x4D, 0x81, 0x65, 0x91, 0x4B, 0x56, 0x06, 0x81, 0x50, 0x33, 0x81, 0x6A, 0x91, 0x50, 
	0x51, 0x15, 0x81, 0x4B, 0x3D, 0x45, 0x81, 0x50, 0x3D, 0x1E, 0x91, 0x49, 0x60, 0x82, 0x3E, 0x81, 0x49, 0x55, 0x2A, 0x91, 0x4B, 0x58, 0x78, 0x91, 0x4D, 0x57, 0x31, 0x81, 0x4B, 0x31, 0x85, 0x1F, 0xB1, 0x01, 0x50, 0x81, 0x19, 0x81, 0x4D, 0x38, 0x83, 0x35, 0xB1, 0x01, 0x00, 0x0A, 0x91, 0x44, 0x52, 0x5B, 0x81, 0x44, 0x3B, 0x1D, 0x91, 0x46, 0x5C, 0x86, 0x27, 0x81, 0x46, 0x46, 0x21, 0x91, 
	0x49, 0x60, 0x78, 0x91, 0x4B, 0x62, 0x08, 0x81, 0x49, 0x66, 0x84, 0x50, 0x91, 0x4D, 0x69, 0x23, 0x81, 0x4B, 0x3D, 0x81, 0x4D, 0x91, 0x4B, 0x65, 0x10, 0x81, 0x4D, 0x39, 0x68, 0x91, 0x49, 0x59, 0x09, 0x81, 0x4B, 0x46, 0x85, 0x47, 0xB1, 0x01, 0x50, 0x85, 0x03, 0x81, 0x49, 0x14, 0x83, 0x2B, 0xB1, 0x01, 0x00, 0x0A, 0x91, 0x50, 0x68, 0x6A, 0x81, 0x50, 0x46, 0x0E, 0x91, 0x52, 0x59, 0x85, 
	0x50, 0xB1, 0x01, 0x50, 0x6A, 0x81, 0x52, 0x2B, 0x04, 0xB1, 0x01, 0x00, 0x0A, 0x91, 0x54, 0x6E, 0x81, 0x70, 0x91, 0x55, 0x64, 0x05, 0x81, 0x54, 0x66, 0x81, 0x6B, 0x91, 0x54, 0x63, 0x11, 0x81, 0x55, 0x36, 0x5A, 0x81, 0x54, 0x41, 0x0D, 0x91, 0x52, 0x5D, 0x82, 0x68, 0x91, 0x50, 0x63, 0x18, 0x81, 0x52, 0x3B, 0x81, 0x51, 0x81, 0x50, 0x45, 0x07, 0x91, 0x4D, 0x5D, 0x82, 0x68, 0x91, 0x50, 
	0x59, 0x09, 0x81, 0x4D, 0x4E, 0x85, 0x47, 0xB1, 0x01, 0x50, 0x41, 0x81, 0x50, 0x27, 0x84, 0x0D, 0xB1, 0x01, 0x00, 0x0A, 0x91, 0x50, 0x64, 0x5B, 0x81, 0x50, 0x4D, 0x1D, 0x91, 0x52, 0x56, 0x85, 0x50, 0xB1, 0x01, 0x50, 0x6A, 0x81, 0x52, 0x42, 0x04, 0xB1, 0x01, 0x00, 0x0A, 0x91, 0x55, 0x62, 0x81, 0x70, 0x91, 0x54, 0x6B, 0x14, 0x81, 0x55, 0x3F, 0x82, 0x38, 0x81, 0x54, 0x49, 0x1C, 0x91, 
	0x50, 0x61, 0x82, 0x68, 0x91, 0x4B, 0x5F, 0x0A, 0x81, 0x50, 0x40, 0x45, 0x81, 0x4B, 0x42, 0x29, 0x91, 0x49, 0x60, 0x85, 0x50, 0xB1, 0x01, 0x50, 0x81, 0x41, 0x81, 0x49, 0x53, 0x86, 0x6D, 0xB1, 0x01, 0x00, 0x0A, 0x91, 0x50, 0x69, 0x40, 0x81, 0x50, 0x52, 0x38, 0x91, 0x52, 0x6C, 0x86, 0x0A, 0x81, 0x52, 0x24, 0x3E, 0x91, 0x55, 0x62, 0x38, 0x81, 0x55, 0x49, 0x40, 0x91, 0x54, 0x6A, 0x83, 
	0x57, 0x81, 0x54, 0x56, 0x09, 0x91, 0x50, 0x5F, 0x82, 0x68, 0x91, 0x49, 0x60, 0x1C, 0x81, 0x50, 0x20, 0x81, 0x54, 0x91, 0x4B, 0x69, 0x02, 0x81, 0x49, 0x50, 0x82, 0x66, 0x91, 0x4D, 0x63, 0x06, 0x81, 0x4B, 0x24, 0x82, 0x3C, 0x81, 0x4D, 0x49, 0x26, 0x91, 0x49, 0x5A, 0x85, 0x12, 0x81, 0x49, 0x73, 0x82, 0x2E, 0x91, 0x49, 0x56, 0x78, 0x91, 0x48, 0x68, 0x1B, 0x81, 0x49, 0x3B, 0x5D, 0x91, 
	0x46, 0x5B, 0x1B, 0x81, 0x48, 0x3D, 0x84, 0x46, 0x81, 0x46, 0x34, 0x6F, 0x91, 0x48, 0x73, 0x6A, 0x81, 0x48, 0x38, 0x0E, 0x91, 0x49, 0x57, 0x78, 0x91, 0x4B, 0x62, 0x17, 0x81, 0x49, 0x28, 0x81, 0x43, 0x81, 0x4B, 0x3A, 0x16, 0x91, 0x49, 0x4E, 0x81, 0x70, 0x91, 0x48, 0x6A, 0x14, 0x81, 0x49, 0x49, 0x81, 0x5C, 0x91, 0x4B, 0x5F, 0x03, 0x81, 0x48, 0x3D, 0x2E, 0x81, 0x4B, 0x3E, 0x47, 0x91, 
	0x49, 0x5C, 0x85, 0x50, 0xB1, 0x01, 0x50, 0x86, 0x39, 0x81, 0x49, 0x51, 0x81, 0x75, 0xB1, 0x01, 0x00, 0x0A, 0x91, 0x49, 0x5C, 0x78, 0x91, 0x48, 0x69, 0x1A, 0x81, 0x49, 0x48, 0x5E, 0x91, 0x46, 0x65, 0x0F, 0x81, 0x48, 0x35, 0x84, 0x4A, 0x81, 0x46, 0x1F, 0x77, 0x91, 0x4B, 0x69, 0x81, 0x48, 0x81, 0x4B, 0x54, 0x28, 0x91, 0x49, 0x5F, 0x82, 0x7B, 0x81, 0x49, 0x4C, 0x65, 0x91, 0x48, 0x70, 
	0x81, 0x70, 0x91, 0x49, 0x67, 0x01, 0x81, 0x48, 0x2B, 0x42, 0x81, 0x49, 0x5F, 0x35, 0x91, 0x49, 0x69, 0x85, 0x50, 0xB1, 0x01, 0x50, 0x88, 0x65, 0x81, 0x49, 0x65, 0x00, 0xFF, 0x2F, 0x00, 0x4D, 0x54, 0x72, 0x6B, 0x00, 0x00, 0x07, 0x43, 0x00, 0xFF, 0x03, 0x05, 0x28, 0x64, 0x6C, 0x79, 0x29, 0x81, 0x70, 0xBF, 0x79, 0x00, 0x0A, 0xBF, 0x00, 0x00, 0x0A, 0xCF, 0x4F, 0x0A, 0xBF, 0x0B, 0x7F, 
	0x0A, 0xBF, 0x07, 0x30, 0x0A, 0xBF, 0x0A, 0x00, 0x0A, 0xBF, 0x5B, 0x32, 0x0A, 0xBF, 0x5D, 0x14, 0x0A, 0xBF, 0x01, 0x00, 0x0A, 0xBF, 0x65, 0x00, 0x0A, 0xBF, 0x64, 0x00, 0x0A, 0xBF, 0x06, 0x02, 0x0A, 0xBF, 0x65, 0x7F, 0x0A, 0xBF, 0x64, 0x7F, 0x0A, 0xBF, 0x06, 0x00, 0x0A, 0xEF, 0x44, 0x3A, 0x82, 0xE6, 0x2E, 0x9F, 0x42, 0x46, 0x78, 0x9F, 0x44, 0x58, 0x1B, 0x8F, 0x42, 0x4D, 0x5D, 0x9F, 
	0x46, 0x6E, 0x27, 0x8F, 0x44, 0x54, 0x46, 0x8F, 0x46, 0x58, 0x0B, 0x9F, 0x48, 0x79, 0x78, 0x9F, 0x49, 0x69, 0x15, 0x8F, 0x48, 0x54, 0x85, 0x3B, 0xBF, 0x01, 0x50, 0x84, 0x4C, 0x8F, 0x49, 0x34, 0x7A, 0xBF, 0x01, 0x00, 0x0A, 0x9F, 0x4B, 0x5B, 0x81, 0x6F, 0x8F, 0x4B, 0x2D, 0x01, 0x9F, 0x49, 0x5E, 0x81, 0x41, 0x8F, 0x49, 0x42, 0x2F, 0x9F, 0x49, 0x63, 0x83, 0x60, 0x9F, 0x44, 0x55, 0x0B, 
	0x8F, 0x49, 0x2E, 0x85, 0x45, 0xBF, 0x01, 0x50, 0x83, 0x53, 0x8F, 0x44, 0x42, 0x81, 0x73, 0xBF, 0x01, 0x00, 0x0A, 0x9F, 0x49, 0x6D, 0x85, 0x50, 0xBF, 0x01, 0x50, 0x82, 0x46, 0x8F, 0x49, 0x0C, 0x81, 0x10, 0xBF, 0x01, 0x00, 0x0A, 0x9F, 0x4D, 0x67, 0x81, 0x70, 0x9F, 0x4B, 0x4E, 0x12, 0x8F, 0x4D, 0x27, 0x83, 0x3F, 0x8F, 0x4B, 0x48, 0x0F, 0x9F, 0x49, 0x54, 0x85, 0x50, 0xBF, 0x01, 0x50, 
	0x85, 0x2D, 0x8F, 0x49, 0x21, 0x19, 0xBF, 0x01, 0x00, 0x0A, 0x9F, 0x4D, 0x52, 0x81, 0x70, 0x9F, 0x4E, 0x71, 0x12, 0x8F, 0x4D, 0x3B, 0x81, 0x54, 0x8F, 0x4E, 0x5B, 0x0A, 0x9F, 0x50, 0x63, 0x85, 0x50, 0xBF, 0x01, 0x50, 0x83, 0x68, 0x8F, 0x50, 0x34, 0x81, 0x5E, 0xBF, 0x01, 0x00, 0x0A, 0x9F, 0x47, 0x6A, 0x83, 0x26, 0x8F, 0x47, 0x42, 0x3A, 0x9F, 0x49, 0x6E, 0x85, 0x50, 0xBF, 0x01, 0x50, 
	0x83, 0x66, 0x8F, 0x49, 0x47, 0x81, 0x60, 0xBF, 0x01, 0x00, 0x0A, 0x9F, 0x4B, 0x46, 0x78, 0x9F, 0x4C, 0x61, 0x20, 0x8F, 0x4B, 0x19, 0x58, 0x9F, 0x4E, 0x71, 0x09, 0x8F, 0x4C, 0x48, 0x6F, 0x8F, 0x4E, 0x48, 0x00, 0x9F, 0x50, 0x67, 0x78, 0x9F, 0x51, 0x68, 0x1B, 0x8F, 0x50, 0x38, 0x85, 0x35, 0xBF, 0x01, 0x50, 0x82, 0x4A, 0x8F, 0x51, 0x47, 0x81, 0x0C, 0xBF, 0x01, 0x00, 0x0A, 0x9F, 0x50, 
	0x6E, 0x81, 0x5B, 0x8F, 0x50, 0x37, 0x15, 0x9F, 0x4E, 0x75, 0x81, 0x63, 0x8F, 0x4E, 0x3B, 0x0D, 0x9F, 0x4C, 0x66, 0x81, 0x40, 0x8F, 0x4C, 0x49, 0x30, 0x9F, 0x4C, 0x60, 0x85, 0x50, 0xBF, 0x01, 0x50, 0x49, 0x8F, 0x4C, 0x30, 0x81, 0x1D, 0xBF, 0x01, 0x00, 0x0A, 0x9F, 0x4B, 0x4D, 0x83, 0x3E, 0x8F, 0x4B, 0x27, 0x22, 0x9F, 0x4C, 0x65, 0x72, 0x8F, 0x4C, 0x51, 0x06, 0x9F, 0x4E, 0x6B, 0x78, 
	0x9F, 0x50, 0x62, 0x0D, 0x8F, 0x4E, 0x59, 0x67, 0x8F, 0x50, 0x2C, 0x04, 0x9F, 0x51, 0x6B, 0x78, 0x9F, 0x53, 0x75, 0x0C, 0x8F, 0x51, 0x32, 0x85, 0x44, 0xBF, 0x01, 0x50, 0x81, 0x6E, 0x8F, 0x53, 0x23, 0x81, 0x68, 0xBF, 0x01, 0x00, 0x0A, 0x9F, 0x51, 0x64, 0x82, 0x48, 0x8F, 0x51, 0x4B, 0x20, 0x9F, 0x50, 0x72, 0x81, 0x4C, 0x8F, 0x50, 0x36, 0x24, 0x9F, 0x4E, 0x7D, 0x6B, 0x8F, 0x4E, 0x4E, 
	0x0D, 0x9F, 0x4E, 0x76, 0x85, 0x2A, 0x8F, 0x4E, 0x7F, 0x26, 0x9F, 0x4C, 0x5B, 0x85, 0x50, 0xBF, 0x01, 0x50, 0x81, 0x23, 0x8F, 0x4C, 0x42, 0x82, 0x33, 0xBF, 0x01, 0x00, 0x0A, 0x9F, 0x49, 0x54, 0x85, 0x50, 0xBF, 0x01, 0x50, 0x86, 0x0F, 0x8F, 0x49, 0x27, 0x81, 0x27, 0xBF, 0x01, 0x00, 0x0A, 0x9F, 0x4B, 0x54, 0x75, 0x8F, 0x4B, 0x35, 0x03, 0x9F, 0x4C, 0x5E, 0x78, 0x9F, 0x4E, 0x71, 0x10, 
	0x8F, 0x4C, 0x25, 0x83, 0x31, 0x8F, 0x4E, 0x30, 0x1F, 0x9F, 0x4C, 0x5D, 0x83, 0x5F, 0x8F, 0x4C, 0x32, 0x01, 0x9F, 0x4B, 0x5C, 0x83, 0x60, 0x9F, 0x47, 0x64, 0x0B, 0x8F, 0x4B, 0x27, 0x83, 0x3A, 0x8F, 0x47, 0x41, 0x1B, 0x9F, 0x49, 0x6B, 0x85, 0x50, 0xBF, 0x01, 0x50, 0x92, 0x34, 0x8F, 0x49, 0x39, 0x82, 0xAA, 0x3C, 0xBF, 0x01, 0x00, 0x83, 0x60, 0x9F, 0x42, 0x46, 0x78, 0x9F, 0x44, 0x58, 
	0x1B, 0x8F, 0x42, 0x4D, 0x5D, 0x9F, 0x46, 0x6E, 0x27, 0x8F, 0x44, 0x54, 0x46, 0x8F, 0x46, 0x58, 0x0B, 0x9F, 0x48, 0x79, 0x78, 0x9F, 0x49, 0x69, 0x15, 0x8F, 0x48, 0x54, 0x85, 0x3B, 0xBF, 0x01, 0x50, 0x84, 0x4C, 0x8F, 0x49, 0x34, 0x7A, 0xBF, 0x01, 0x00, 0x0A, 0x9F, 0x4B, 0x5B, 0x81, 0x6F, 0x8F, 0x4B, 0x2D, 0x01, 0x9F, 0x49, 0x5E, 0x81, 0x41, 0x8F, 0x49, 0x42, 0x2F, 0x9F, 0x49, 0x63, 
	0x83, 0x60, 0x9F, 0x44, 0x55, 0x0B, 0x8F, 0x49, 0x2E, 0x85, 0x45, 0xBF, 0x01, 0x50, 0x83, 0x53, 0x8F, 0x44, 0x42, 0x81, 0x73, 0xBF, 0x01, 0x00, 0x0A, 0x9F, 0x49, 0x6D, 0x85, 0x50, 0xBF, 0x01, 0x50, 0x82, 0x46, 0x8F, 0x49, 0x0C, 0x81, 0x10, 0xBF, 0x01, 0x00, 0x0A, 0x9F, 0x4D, 0x67, 0x81, 0x70, 0x9F, 0x4B, 0x4E, 0x12, 0x8F, 0x4D, 0x27, 0x83, 0x3F, 0x8F, 0x4B, 0x48, 0x0F, 0x9F, 0x49, 
	0x54, 0x85, 0x50, 0xBF, 0x01, 0x50, 0x85, 0x2D, 0x8F, 0x49, 0x21, 0x19, 0xBF, 0x01, 0x00, 0x0A, 0x9F, 0x4D, 0x52, 0x81, 0x70, 0x9F, 0x4E, 0x71, 0x12, 0x8F, 0x4D, 0x3B, 0x81, 0x54, 0x8F, 0x4E, 0x5B, 0x0A, 0x9F, 0x50, 0x63, 0x85, 0x50, 0xBF, 0x01, 0x50, 0x83, 0x68, 0x8F, 0x50, 0x34, 0x81, 0x5E, 0xBF, 0x01, 0x00, 0x0A, 0x9F, 0x47, 0x6A, 0x83, 0x26, 0x8F, 0x47, 0x42, 0x3A, 0x9F, 0x49, 
	0x6E, 0x85, 0x50, 0xBF, 0x01, 0x50, 0x83, 0x66, 0x8F, 0x49, 0x47, 0x81, 0x60, 0xBF, 0x01, 0x00, 0x0A, 0x9F, 0x4B, 0x46, 0x78, 0x9F, 0x4C, 0x61, 0x20, 0x8F, 0x4B, 0x19, 0x58, 0x9F, 0x4E, 0x71, 0x09, 0x8F, 0x4C, 0x48, 0x6F, 0x8F, 0x4E, 0x48, 0x00, 0x9F, 0x50, 0x67, 0x78, 0x9F, 0x51, 0x68, 0x1B, 0x8F, 0x50, 0x38, 0x85, 0x35, 0xBF, 0x01, 0x50, 0x82, 0x4A, 0x8F, 0x51, 0x47, 0x81, 0x0C, 
	0xBF, 0x01, 0x00, 0x0A, 0x9F, 0x50, 0x6E, 0x81, 0x5B, 0x8F, 0x50, 0x37, 0x15, 0x9F, 0x4E, 0x75, 0x81, 0x63, 0x8F, 0x4E, 0x3B, 0x0D, 0x9F, 0x4C, 0x66, 0x81, 0x40, 0x8F, 0x4C, 0x49, 0x30, 0x9F, 0x4C, 0x60, 0x85, 0x50, 0xBF, 0x01, 0x50, 0x49, 0x8F, 0x4C, 0x30, 0x81, 0x1D, 0xBF, 0x01, 0x00, 0x0A, 0x9F, 0x4B, 0x4D, 0x83, 0x3E, 0x8F, 0x4B, 0x27, 0x22, 0x9F, 0x4C, 0x65, 0x72, 0x8F, 0x4C, 
	0x51, 0x06, 0x9F, 0x4E, 0x6B, 0x78, 0x9F, 0x50, 0x62, 0x0D, 0x8F, 0x4E, 0x59, 0x67, 0x8F, 0x50, 0x2C, 0x04, 0x9F, 0x51, 0x6B, 0x78, 0x9F, 0x53, 0x75, 0x0C, 0x8F, 0x51, 0x32, 0x85, 0x44, 0xBF, 0x01, 0x50, 0x81, 0x6E, 0x8F, 0x53, 0x23, 0x81, 0x68, 0xBF, 0x01, 0x00, 0x0A, 0x9F, 0x51, 0x64, 0x82, 0x48, 0x8F, 0x51, 0x4B, 0x20, 0x9F, 0x50, 0x72, 0x81, 0x4C, 0x8F, 0x50, 0x36, 0x24, 0x9F, 
	0x4E, 0x7D, 0x6B, 0x8F, 0x4E, 0x4E, 0x0D, 0x9F, 0x4E, 0x76, 0x85, 0x2A, 0x8F, 0x4E, 0x7F, 0x26, 0x9F, 0x4C, 0x5B, 0x85, 0x50, 0xBF, 0x01, 0x50, 0x81, 0x23, 0x8F, 0x4C, 0x42, 0x82, 0x33, 0xBF, 0x01, 0x00, 0x0A, 0x9F, 0x49, 0x54, 0x85, 0x50, 0xBF, 0x01, 0x50, 0x86, 0x0F, 0x8F, 0x49, 0x27, 0x81, 0x27, 0xBF, 0x01, 0x00, 0x0A, 0x9F, 0x4B, 0x54, 0x75, 0x8F, 0x4B, 0x35, 0x03, 0x9F, 0x4C, 
	0x5E, 0x78, 0x9F, 0x4E, 0x71, 0x10, 0x8F, 0x4C, 0x25, 0x83, 0x31, 0x8F, 0x4E, 0x30, 0x1F, 0x9F, 0x4C, 0x5D, 0x83, 0x5F, 0x8F, 0x4C, 0x32, 0x01, 0x9F, 0x4B, 0x5C, 0x83, 0x60, 0x9F, 0x47, 0x64, 0x0B, 0x8F, 0x4B, 0x27, 0x83, 0x3A, 0x8F, 0x47, 0x41, 0x1B, 0x9F, 0x49, 0x6B, 0x85, 0x50, 0xBF, 0x01, 0x50, 0x92, 0x34, 0x8F, 0x49, 0x39, 0x81, 0x9F, 0x5C, 0xBF, 0x01, 0x00, 0x83, 0x60, 0x9F, 
	0x4E, 0x64, 0x83, 0x60, 0x8F, 0x4E, 0x44, 0x00, 0x9F, 0x50, 0x5A, 0x83, 0x60, 0x8F, 0x50, 0x33, 0x00, 0x9F, 0x52, 0x4B, 0x85, 0x50, 0xBF, 0x01, 0x50, 0x5D, 0x8F, 0x52, 0x20, 0x81, 0x09, 0xBF, 0x01, 0x00, 0x0A, 0x9F, 0x50, 0x52, 0x85, 0x2B, 0x8F, 0x50, 0x12, 0x25, 0x9F, 0x49, 0x41, 0x81, 0x70, 0x9F, 0x4B, 0x5B, 0x15, 0x8F, 0x49, 0x3B, 0x82, 0x22, 0x8F, 0x4B, 0x31, 0x31, 0x9F, 0x4D, 
	0x55, 0x85, 0x50, 0xBF, 0x01, 0x50, 0x82, 0x2D, 0x8F, 0x4D, 0x73, 0x84, 0x11, 0xBF, 0x01, 0x00, 0x0A, 0x9F, 0x52, 0x56, 0x85, 0x50, 0xBF, 0x01, 0x50, 0x81, 0x66, 0xBF, 0x01, 0x00, 0x0A, 0x9F, 0x50, 0x40, 0x0C, 0x8F, 0x52, 0x17, 0x85, 0x44, 0x9F, 0x49, 0x36, 0x0C, 0x8F, 0x50, 0x0D, 0x81, 0x64, 0x9F, 0x4B, 0x5B, 0x1C, 0x8F, 0x49, 0x41, 0x81, 0x54, 0x9F, 0x49, 0x54, 0x05, 0x8F, 0x4B, 
	0x5A, 0x85, 0x4B, 0xBF, 0x01, 0x50, 0x82, 0x4B, 0x8F, 0x49, 0x2C, 0x82, 0x7B, 0xBF, 0x01, 0x00, 0x0A, 0x9F, 0x4E, 0x54, 0x78, 0x9F, 0x50, 0x62, 0x39, 0x8F, 0x4E, 0x3B, 0x3F, 0x9F, 0x52, 0x60, 0x37, 0x8F, 0x50, 0x47, 0x85, 0x19, 0x9F, 0x55, 0x51, 0x26, 0x8F, 0x52, 0x4A, 0x31, 0x8F, 0x55, 0x38, 0x21, 0x9F, 0x54, 0x5C, 0x82, 0x68, 0x9F, 0x50, 0x51, 0x0B, 0x8F, 0x54, 0x4D, 0x81, 0x65, 
	0x9F, 0x4B, 0x56, 0x06, 0x8F, 0x50, 0x33, 0x81, 0x6A, 0x9F, 0x50, 0x51, 0x15, 0x8F, 0x4B, 0x3D, 0x45, 0x8F, 0x50, 0x3D, 0x1E, 0x9F, 0x49, 0x60, 0x82, 0x3E, 0x8F, 0x49, 0x55, 0x2A, 0x9F, 0x4B, 0x58, 0x78, 0x9F, 0x4D, 0x57, 0x31, 0x8F, 0x4B, 0x31, 0x85, 0x1F, 0xBF, 0x01, 0x50, 0x81, 0x19, 0x8F, 0x4D, 0x38, 0x83, 0x35, 0xBF, 0x01, 0x00, 0x0A, 0x9F, 0x44, 0x52, 0x5B, 0x8F, 0x44, 0x3B, 
	0x1D, 0x9F, 0x46, 0x5C, 0x86, 0x27, 0x8F, 0x46, 0x46, 0x21, 0x9F, 0x49, 0x60, 0x78, 0x9F, 0x4B, 0x62, 0x08, 0x8F, 0x49, 0x66, 0x84, 0x50, 0x9F, 0x4D, 0x69, 0x23, 0x8F, 0x4B, 0x3D, 0x81, 0x4D, 0x9F, 0x4B, 0x65, 0x10, 0x8F, 0x4D, 0x39, 0x68, 0x9F, 0x49, 0x59, 0x09, 0x8F, 0x4B, 0x46, 0x85, 0x47, 0xBF, 0x01, 0x50, 0x85, 0x03, 0x8F, 0x49, 0x14, 0x83, 0x2B, 0xBF, 0x01, 0x00, 0x0A, 0x9F, 
	0x50, 0x68, 0x6A, 0x8F, 0x50, 0x46, 0x0E, 0x9F, 0x52, 0x59, 0x85, 0x50, 0xBF, 0x01, 0x50, 0x6A, 0x8F, 0x52, 0x2B, 0x04, 0xBF, 0x01, 0x00, 0x0A, 0x9F, 0x54, 0x6E, 0x81, 0x70, 0x9F, 0x55, 0x64, 0x05, 0x8F, 0x54, 0x66, 0x81, 0x6B, 0x9F, 0x54, 0x63, 0x11, 0x8F, 0x55, 0x36, 0x5A, 0x8F, 0x54, 0x41, 0x0D, 0x9F, 0x52, 0x5D, 0x82, 0x68, 0x9F, 0x50, 0x63, 0x18, 0x8F, 0x52, 0x3B, 0x81, 0x51, 
	0x8F, 0x50, 0x45, 0x07, 0x9F, 0x4D, 0x5D, 0x82, 0x68, 0x9F, 0x50, 0x59, 0x09, 0x8F, 0x4D, 0x4E, 0x85, 0x47, 0xBF, 0x01, 0x50, 0x41, 0x8F, 0x50, 0x27, 0x84, 0x0D, 0xBF, 0x01, 0x00, 0x0A, 0x9F, 0x50, 0x64, 0x5B, 0x8F, 0x50, 0x4D, 0x1D, 0x9F, 0x52, 0x56, 0x85, 0x50, 0xBF, 0x01, 0x50, 0x6A, 0x8F, 0x52, 0x42, 0x04, 0xBF, 0x01, 0x00, 0x0A, 0x9F, 0x55, 0x62, 0x81, 0x70, 0x9F, 0x54, 0x6B, 
	0x14, 0x8F, 0x55, 0x3F, 0x82, 0x38, 0x8F, 0x54, 0x49, 0x1C, 0x9F, 0x50, 0x61, 0x82, 0x68, 0x9F, 0x4B, 0x5F, 0x0A, 0x8F, 0x50, 0x40, 0x45, 0x8F, 0x4B, 0x42, 0x29, 0x9F, 0x49, 0x60, 0x85, 0x50, 0xBF, 0x01, 0x50, 0x81, 0x41, 0x8F, 0x49, 0x53, 0x86, 0x6D, 0xBF, 0x01, 0x00, 0x0A, 0x9F, 0x50, 0x69, 0x40, 0x8F, 0x50, 0x52, 0x38, 0x9F, 0x52, 0x6C, 0x86, 0x0A, 0x8F, 0x52, 0x24, 0x3E, 0x9F, 
	0x55, 0x62, 0x38, 0x8F, 0x55, 0x49, 0x40, 0x9F, 0x54, 0x6A, 0x83, 0x57, 0x8F, 0x54, 0x56, 0x09, 0x9F, 0x50, 0x5F, 0x82, 0x68, 0x9F, 0x49, 0x60, 0x1C, 0x8F, 0x50, 0x20, 0x81, 0x54, 0x9F, 0x4B, 0x69, 0x02, 0x8F, 0x49, 0x50, 0x82, 0x66, 0x9F, 0x4D, 0x63, 0x06, 0x8F, 0x4B, 0x24, 0x82, 0x3C, 0x8F, 0x4D, 0x49, 0x26, 0x9F, 0x49, 0x5A, 0x85, 0x12, 0x8F, 0x49, 0x73, 0x82, 0x2E, 0x9F, 0x49, 
	0x56, 0x78, 0x9F, 0x48, 0x68, 0x1B, 0x8F, 0x49, 0x3B, 0x5D, 0x9F, 0x46, 0x5B, 0x1B, 0x8F, 0x48, 0x3D, 0x84, 0x46, 0x8F, 0x46, 0x34, 0x6F, 0x9F, 0x48, 0x73, 0x6A, 0x8F, 0x48, 0x38, 0x0E, 0x9F, 0x49, 0x57, 0x78, 0x9F, 0x4B, 0x62, 0x17, 0x8F, 0x49, 0x28, 0x81, 0x43, 0x8F, 0x4B, 0x3A, 0x16, 0x9F, 0x49, 0x4E, 0x81, 0x70, 0x9F, 0x48, 0x6A, 0x14, 0x8F, 0x49, 0x49, 0x81, 0x5C, 0x9F, 0x4B, 
	0x5F, 0x03, 0x8F, 0x48, 0x3D, 0x2E, 0x8F, 0x4B, 0x3E, 0x47, 0x9F, 0x49, 0x5C, 0x85, 0x50, 0xBF, 0x01, 0x50, 0x86, 0x39, 0x8F, 0x49, 0x51, 0x81, 0x75, 0xBF, 0x01, 0x00, 0x0A, 0x9F, 0x49, 0x5C, 0x78, 0x9F, 0x48, 0x69, 0x1A, 0x8F, 0x49, 0x48, 0x5E, 0x9F, 0x46, 0x65, 0x0F, 0x8F, 0x48, 0x35, 0x84, 0x4A, 0x8F, 0x46, 0x1F, 0x77, 0x9F, 0x4B, 0x69, 0x81, 0x48, 0x8F, 0x4B, 0x54, 0x28, 0x9F, 
	0x49, 0x5F, 0x82, 0x7B, 0x8F, 0x49, 0x4C, 0x65, 0x9F, 0x48, 0x70, 0x81, 0x70, 0x9F, 0x49, 0x67, 0x01, 0x8F, 0x48, 0x2B, 0x42, 0x8F, 0x49, 0x5F, 0x35, 0x9F, 0x49, 0x69, 0x85, 0x50, 0xBF, 0x01, 0x50, 0x88, 0x65, 0x8F, 0x49, 0x65, 0x00, 0xFF, 0x2F, 0x00, 0x4D, 0x54, 0x72, 0x6B, 0x00, 0x00, 0x16, 0xF6, 0x00, 0xFF, 0x03, 0x04, 0x42, 0x41, 0x53, 0x53, 0x81, 0x70, 0xB2, 0x79, 0x00, 0x0A, 
	0xB2, 0x00, 0x00, 0x0A, 0xC2, 0x23, 0x0A, 0xB2, 0x0B, 0x7F, 0x0A, 0xB2, 0x07, 0x4C, 0x0A, 0xB2, 0x0A, 0x40, 0x0A, 0xB2, 0x5B, 0x1E, 0x0A, 0xB2, 0x5D, 0x05, 0x0A, 0xB2, 0x01, 0x00, 0x0A, 0xB2, 0x65, 0x00, 0x0A, 0xB2, 0x64, 0x00, 0x0A, 0xB2, 0x06, 0x02, 0x0A, 0xB2, 0x65, 0x7F, 0x0A, 0xB2, 0x64, 0x7F, 0x0A, 0xB2, 0x06, 0x00, 0x0A, 0xE2, 0x00, 0x40, 0xBC, 0x5A, 0x92, 0x20, 0x7B, 0x8D, 
	0x10, 0x92, 0x22, 0x72, 0x01, 0x82, 0x20, 0x4C, 0x56, 0x82, 0x22, 0x3B, 0x21, 0x92, 0x20, 0x5F, 0x8B, 0x25, 0xE2, 0x18, 0x36, 0x03, 0xE2, 0x06, 0x31, 0x02, 0x82, 0x20, 0x37, 0x05, 0xE2, 0x41, 0x2A, 0x0D, 0xE2, 0x2E, 0x1E, 0x06, 0xE2, 0x25, 0x18, 0x06, 0xE2, 0x60, 0x11, 0x0D, 0xE2, 0x34, 0x08, 0x07, 0xE2, 0x5E, 0x03, 0x06, 0xE2, 0x77, 0x00, 0x0D, 0xE2, 0x00, 0x00, 0x29, 0x92, 0x25, 
	0x72, 0x25, 0xE2, 0x12, 0x0C, 0x05, 0xE2, 0x24, 0x11, 0x06, 0xE2, 0x0B, 0x14, 0x0E, 0xE2, 0x14, 0x1A, 0x06, 0xE2, 0x72, 0x1D, 0x06, 0xE2, 0x0D, 0x22, 0x0F, 0xE2, 0x28, 0x2D, 0x04, 0xE2, 0x29, 0x34, 0x07, 0xE2, 0x32, 0x3A, 0x0E, 0xE2, 0x00, 0x40, 0x82, 0x6E, 0x92, 0x24, 0x72, 0x0D, 0x82, 0x25, 0x44, 0x8B, 0x13, 0x92, 0x20, 0x5C, 0x1D, 0x82, 0x24, 0x4C, 0x82, 0x74, 0x82, 0x20, 0x3B, 
	0x4F, 0x92, 0x20, 0x67, 0x8E, 0x05, 0x82, 0x20, 0x27, 0x7B, 0x92, 0x22, 0x72, 0x8E, 0x0F, 0x82, 0x22, 0x4D, 0x71, 0x92, 0x24, 0x79, 0x8A, 0x60, 0xE2, 0x06, 0x31, 0x06, 0xE2, 0x0E, 0x29, 0x07, 0xE2, 0x51, 0x21, 0x0D, 0xE2, 0x2D, 0x17, 0x06, 0xE2, 0x4F, 0x13, 0x06, 0xE2, 0x1C, 0x12, 0x0D, 0xE2, 0x57, 0x12, 0x0D, 0x92, 0x20, 0x5B, 0x05, 0xE2, 0x4F, 0x13, 0x01, 0x82, 0x24, 0x4A, 0x0D, 
	0xE2, 0x27, 0x26, 0x07, 0xE2, 0x17, 0x2F, 0x0E, 0xE2, 0x00, 0x40, 0x82, 0x66, 0xE2, 0x75, 0x32, 0x05, 0xE2, 0x49, 0x29, 0x07, 0xE2, 0x0D, 0x22, 0x0E, 0xE2, 0x36, 0x16, 0x05, 0xE2, 0x71, 0x0F, 0x06, 0xE2, 0x23, 0x0A, 0x0E, 0xE2, 0x5E, 0x03, 0x05, 0xE2, 0x2A, 0x02, 0x07, 0xE2, 0x6F, 0x01, 0x13, 0x92, 0x25, 0x72, 0x01, 0xE2, 0x34, 0x08, 0x05, 0xE2, 0x79, 0x0E, 0x12, 0x82, 0x20, 0x2A, 
	0x02, 0xE2, 0x38, 0x2B, 0x06, 0xE2, 0x64, 0x34, 0x0E, 0xE2, 0x00, 0x40, 0x8A, 0x3A, 0x82, 0x25, 0x46, 0x38, 0x92, 0x25, 0x6F, 0x83, 0x1D, 0x82, 0x25, 0x51, 0x43, 0x92, 0x27, 0x6F, 0x8A, 0x77, 0x82, 0x27, 0x42, 0x29, 0x92, 0x27, 0x6C, 0x83, 0x58, 0x82, 0x27, 0x52, 0x08, 0x92, 0x20, 0x7B, 0x00, 0xE2, 0x32, 0x40, 0x8D, 0x10, 0x92, 0x22, 0x72, 0x01, 0x82, 0x20, 0x4C, 0x56, 0x82, 0x22, 
	0x3B, 0x21, 0x92, 0x20, 0x5F, 0x8B, 0x25, 0xE2, 0x18, 0x36, 0x03, 0xE2, 0x06, 0x31, 0x02, 0x82, 0x20, 0x37, 0x05, 0xE2, 0x41, 0x2A, 0x0D, 0xE2, 0x2E, 0x1E, 0x06, 0xE2, 0x25, 0x18, 0x06, 0xE2, 0x60, 0x11, 0x0D, 0xE2, 0x34, 0x08, 0x07, 0xE2, 0x5E, 0x03, 0x06, 0xE2, 0x77, 0x00, 0x0D, 0xE2, 0x00, 0x00, 0x29, 0x92, 0x25, 0x72, 0x25, 0xE2, 0x12, 0x0C, 0x05, 0xE2, 0x24, 0x11, 0x06, 0xE2, 
	0x0B, 0x14, 0x0E, 0xE2, 0x14, 0x1A, 0x06, 0xE2, 0x72, 0x1D, 0x06, 0xE2, 0x0D, 0x22, 0x0F, 0xE2, 0x28, 0x2D, 0x04, 0xE2, 0x29, 0x34, 0x07, 0xE2, 0x32, 0x3A, 0x0E, 0xE2, 0x00, 0x40, 0x82, 0x6E, 0x92, 0x24, 0x72, 0x0D, 0x82, 0x25, 0x44, 0x8B, 0x13, 0x92, 0x20, 0x5C, 0x1D, 0x82, 0x24, 0x4C, 0x82, 0x74, 0x82, 0x20, 0x3B, 0x4F, 0x92, 0x20, 0x67, 0x8E, 0x05, 0x82, 0x20, 0x27, 0x7B, 0x92, 
	0x22, 0x72, 0x8E, 0x0F, 0x82, 0x22, 0x4D, 0x71, 0x92, 0x24, 0x79, 0x8A, 0x60, 0xE2, 0x06, 0x31, 0x06, 0xE2, 0x0E, 0x29, 0x07, 0xE2, 0x51, 0x21, 0x0D, 0xE2, 0x2D, 0x17, 0x06, 0xE2, 0x4F, 0x13, 0x06, 0xE2, 0x1C, 0x12, 0x0D, 0xE2, 0x57, 0x12, 0x0D, 0x92, 0x20, 0x5B, 0x05, 0xE2, 0x4F, 0x13, 0x01, 0x82, 0x24, 0x4A, 0x0D, 0xE2, 0x27, 0x26, 0x07, 0xE2, 0x17, 0x2F, 0x0E, 0xE2, 0x00, 0x40, 
	0x82, 0x66, 0xE2, 0x75, 0x32, 0x05, 0xE2, 0x49, 0x29, 0x07, 0xE2, 0x0D, 0x22, 0x0E, 0xE2, 0x36, 0x16, 0x05, 0xE2, 0x71, 0x0F, 0x06, 0xE2, 0x23, 0x0A, 0x0E, 0xE2, 0x5E, 0x03, 0x05, 0xE2, 0x2A, 0x02, 0x07, 0xE2, 0x6F, 0x01, 0x13, 0x92, 0x25, 0x72, 0x01, 0xE2, 0x34, 0x08, 0x05, 0xE2, 0x79, 0x0E, 0x12, 0x82, 0x20, 0x2A, 0x02, 0xE2, 0x38, 0x2B, 0x06, 0xE2, 0x64, 0x34, 0x0E, 0xE2, 0x00, 
	0x40, 0x8A, 0x3A, 0x82, 0x25, 0x46, 0x38, 0x92, 0x25, 0x6F, 0x83, 0x1D, 0x82, 0x25, 0x51, 0x43, 0x92, 0x27, 0x6F, 0x8A, 0x77, 0x82, 0x27, 0x42, 0x29, 0x92, 0x27, 0x6C, 0x83, 0x58, 0x82, 0x27, 0x52, 0x08, 0x92, 0x1E, 0x7E, 0x8C, 0x18, 0x92, 0x1D, 0x62, 0x1E, 0x82, 0x1E, 0x41, 0x55, 0x82, 0x1D, 0x50, 0x05, 0x92, 0x1B, 0x5D, 0x81, 0x6A, 0x82, 0x1B, 0x59, 0x06, 0x92, 0x19, 0x7A, 0x8D, 
	0x38, 0x82, 0x19, 0x25, 0x23, 0xE2, 0x5D, 0x3C, 0x0E, 0xE2, 0x6D, 0x33, 0x05, 0xE2, 0x0E, 0x30, 0x07, 0xE2, 0x7D, 0x2A, 0x0E, 0xE2, 0x62, 0x1F, 0x05, 0xE2, 0x14, 0x1A, 0x0A, 0xE2, 0x47, 0x14, 0x0A, 0xE2, 0x3C, 0x07, 0x06, 0xE2, 0x00, 0x00, 0x5E, 0x92, 0x20, 0x6B, 0x1E, 0xE2, 0x78, 0x07, 0x05, 0xE2, 0x1C, 0x12, 0x05, 0xE2, 0x3F, 0x1C, 0x0F, 0xE2, 0x53, 0x2F, 0x05, 0xE2, 0x5C, 0x35, 
	0x06, 0xE2, 0x32, 0x3A, 0x0E, 0xE2, 0x00, 0x40, 0x8C, 0x2A, 0x82, 0x20, 0x27, 0x16, 0x92, 0x1B, 0x50, 0x81, 0x70, 0x92, 0x20, 0x5B, 0x15, 0x82, 0x1B, 0x3D, 0x8D, 0x50, 0x82, 0x20, 0x56, 0x81, 0x1B, 0x92, 0x2A, 0x76, 0x8D, 0x31, 0xE2, 0x50, 0x3D, 0x07, 0xE2, 0x1A, 0x3C, 0x07, 0xE2, 0x2E, 0x39, 0x0E, 0xE2, 0x3B, 0x37, 0x06, 0xE2, 0x4F, 0x34, 0x07, 0xE2, 0x26, 0x31, 0x0E, 0xE2, 0x7E, 
	0x2D, 0x07, 0xE2, 0x48, 0x2C, 0x06, 0xE2, 0x55, 0x2A, 0x0E, 0xE2, 0x39, 0x25, 0x07, 0xE2, 0x4D, 0x22, 0x07, 0xE2, 0x68, 0x1E, 0x0D, 0xE2, 0x24, 0x16, 0x07, 0xE2, 0x08, 0x11, 0x07, 0xE2, 0x36, 0x0A, 0x0D, 0xE2, 0x00, 0x00, 0x47, 0x92, 0x25, 0x75, 0x0B, 0x82, 0x2A, 0x58, 0x0E, 0xE2, 0x0B, 0x2C, 0x0F, 0xE2, 0x00, 0x40, 0x85, 0x7F, 0xE2, 0x50, 0x3D, 0x06, 0xE2, 0x4F, 0x34, 0x0F, 0xE2, 
	0x6F, 0x26, 0x06, 0xE2, 0x1E, 0x20, 0x07, 0xE2, 0x4C, 0x19, 0x0F, 0xE2, 0x29, 0x0C, 0x05, 0xE2, 0x5E, 0x04, 0x07, 0xE2, 0x00, 0x00, 0x5C, 0x92, 0x31, 0x6E, 0x04, 0xE2, 0x29, 0x0C, 0x07, 0xE2, 0x24, 0x16, 0x06, 0xE2, 0x0A, 0x23, 0x10, 0x82, 0x25, 0x30, 0x05, 0xE2, 0x00, 0x40, 0x83, 0x37, 0x82, 0x31, 0x2C, 0x03, 0x92, 0x25, 0x72, 0x83, 0x54, 0x82, 0x25, 0x68, 0x0C, 0x92, 0x2A, 0x75, 
	0x85, 0x50, 0x92, 0x2D, 0x6F, 0x39, 0x82, 0x2A, 0x48, 0x83, 0x27, 0x92, 0x2F, 0x7C, 0x19, 0x82, 0x2D, 0x48, 0x84, 0x3F, 0xE2, 0x13, 0x3D, 0x05, 0xE2, 0x21, 0x3B, 0x11, 0xE2, 0x3B, 0x37, 0x04, 0xE2, 0x56, 0x33, 0x07, 0xE2, 0x26, 0x31, 0x0F, 0xE2, 0x69, 0x27, 0x05, 0xE2, 0x17, 0x21, 0x07, 0xE2, 0x4C, 0x19, 0x0F, 0xE2, 0x1C, 0x0E, 0x05, 0xE2, 0x30, 0x0B, 0x07, 0xE2, 0x44, 0x08, 0x04, 
	0x82, 0x2F, 0x4D, 0x0B, 0xE2, 0x0E, 0x07, 0x12, 0x92, 0x31, 0x7B, 0x20, 0xE2, 0x4D, 0x22, 0x06, 0xE2, 0x6B, 0x39, 0x05, 0xE2, 0x00, 0x40, 0x85, 0x73, 0xE2, 0x1A, 0x3C, 0x07, 0xE2, 0x35, 0x38, 0x05, 0xE2, 0x20, 0x32, 0x11, 0xE2, 0x47, 0x23, 0x04, 0xE2, 0x38, 0x1C, 0x06, 0xE2, 0x1D, 0x17, 0x11, 0xE2, 0x15, 0x0F, 0x05, 0xE2, 0x6D, 0x0B, 0x06, 0xE2, 0x30, 0x0B, 0x10, 0xE2, 0x36, 0x0A, 
	0x04, 0xE2, 0x30, 0x0B, 0x07, 0xE2, 0x1C, 0x0E, 0x0F, 0xE2, 0x16, 0x18, 0x07, 0xE2, 0x6E, 0x1D, 0x05, 0xE2, 0x03, 0x24, 0x10, 0xE2, 0x6A, 0x30, 0x04, 0xE2, 0x7F, 0x36, 0x07, 0xE2, 0x13, 0x3D, 0x0E, 0x92, 0x25, 0x63, 0x01, 0xE2, 0x00, 0x40, 0x12, 0x82, 0x31, 0x2E, 0x84, 0x67, 0xE2, 0x57, 0x3C, 0x05, 0xE2, 0x64, 0x3A, 0x10, 0xE2, 0x78, 0x37, 0x06, 0xE2, 0x3B, 0x37, 0x05, 0xE2, 0x4F, 
	0x34, 0x11, 0xE2, 0x2D, 0x30, 0x05, 0xE2, 0x7E, 0x2D, 0x05, 0xE2, 0x12, 0x2B, 0x11, 0xE2, 0x2C, 0x27, 0x05, 0xE2, 0x6F, 0x26, 0x06, 0xE2, 0x39, 0x25, 0x10, 0xE2, 0x47, 0x23, 0x05, 0xE2, 0x5B, 0x20, 0x06, 0xE2, 0x3F, 0x1B, 0x10, 0xE2, 0x3E, 0x12, 0x06, 0xE2, 0x52, 0x0F, 0x05, 0xE2, 0x6D, 0x0B, 0x08, 0x82, 0x25, 0x33, 0x13, 0xE2, 0x3C, 0x00, 0x11, 0xE2, 0x00, 0x00, 0x3B, 0xE2, 0x3C, 
	0x00, 0x06, 0xE2, 0x51, 0x06, 0x10, 0xE2, 0x24, 0x16, 0x06, 0xE2, 0x61, 0x1F, 0x05, 0xE2, 0x55, 0x2A, 0x10, 0xE2, 0x21, 0x3B, 0x06, 0xE2, 0x00, 0x40, 0x1B, 0x92, 0x28, 0x7A, 0x86, 0x7C, 0xB2, 0x01, 0x16, 0x06, 0xB2, 0x01, 0x45, 0x06, 0xB2, 0x01, 0x53, 0x15, 0xB2, 0x01, 0x70, 0x07, 0xB2, 0x01, 0x71, 0x14, 0xB2, 0x01, 0x75, 0x07, 0xB2, 0x01, 0x77, 0x14, 0xB2, 0x01, 0x79, 0x22, 0xB2, 
	0x01, 0x7B, 0x15, 0xB2, 0x01, 0x7C, 0x1B, 0xB2, 0x01, 0x7D, 0x22, 0xB2, 0x01, 0x7E, 0x14, 0xB2, 0x01, 0x7D, 0x07, 0xB2, 0x01, 0x7E, 0x31, 0xB2, 0x01, 0x7F, 0x1B, 0xB2, 0x01, 0x7E, 0x04, 0xB2, 0x01, 0x7D, 0x18, 0xB2, 0x01, 0x7A, 0x04, 0xB2, 0x01, 0x7C, 0x17, 0xB2, 0x01, 0x7D, 0x1B, 0xB2, 0x01, 0x7C, 0x20, 0xB2, 0x01, 0x7D, 0x1A, 0xB2, 0x01, 0x7E, 0x47, 0xB2, 0x01, 0x78, 0x05, 0xB2, 
	0x01, 0x7C, 0x07, 0xB2, 0x01, 0x74, 0x15, 0xB2, 0x01, 0x00, 0x82, 0x41, 0xE2, 0x42, 0x36, 0x05, 0xE2, 0x7E, 0x2D, 0x07, 0xE2, 0x2C, 0x27, 0x0F, 0xE2, 0x7C, 0x1B, 0x05, 0xE2, 0x53, 0x18, 0x07, 0xE2, 0x24, 0x16, 0x0F, 0xE2, 0x7B, 0x12, 0x07, 0xE2, 0x3E, 0x12, 0x05, 0xE2, 0x37, 0x13, 0x15, 0xE2, 0x32, 0x1D, 0x06, 0xE2, 0x33, 0x26, 0x10, 0xE2, 0x50, 0x3D, 0x05, 0xE2, 0x00, 0x40, 0x18, 
	0x82, 0x28, 0x58, 0x13, 0x92, 0x21, 0x6A, 0x89, 0x30, 0x92, 0x23, 0x6B, 0x10, 0x82, 0x21, 0x43, 0x83, 0x45, 0x82, 0x23, 0x35, 0x0B, 0x92, 0x25, 0x72, 0x81, 0x70, 0x92, 0x2A, 0x7A, 0x27, 0x82, 0x25, 0x61, 0x8D, 0x0E, 0xE2, 0x13, 0x3D, 0x0F, 0xE2, 0x49, 0x35, 0x06, 0xE2, 0x56, 0x33, 0x05, 0xE2, 0x63, 0x31, 0x10, 0xE2, 0x6A, 0x30, 0x06, 0xE2, 0x2D, 0x30, 0x05, 0xE2, 0x34, 0x2F, 0x11, 
	0xE2, 0x48, 0x2C, 0x05, 0xE2, 0x4E, 0x2B, 0x05, 0xE2, 0x12, 0x2B, 0x1C, 0xE2, 0x48, 0x2C, 0x10, 0xE2, 0x4F, 0x34, 0x05, 0xE2, 0x6B, 0x39, 0x06, 0xE2, 0x00, 0x40, 0x44, 0x92, 0x23, 0x6B, 0x0F, 0x82, 0x2A, 0x42, 0x89, 0x41, 0xE2, 0x57, 0x3C, 0x07, 0xE2, 0x2E, 0x39, 0x0F, 0xE2, 0x35, 0x38, 0x05, 0xE2, 0x3B, 0x37, 0x07, 0xE2, 0x7F, 0x36, 0x0E, 0xE2, 0x2D, 0x30, 0x06, 0xE2, 0x55, 0x2A, 
	0x07, 0xE2, 0x39, 0x25, 0x0F, 0xE2, 0x32, 0x1D, 0x06, 0xE2, 0x46, 0x1A, 0x06, 0xE2, 0x10, 0x19, 0x0F, 0xE2, 0x5A, 0x17, 0x06, 0xE2, 0x16, 0x18, 0x07, 0xE2, 0x5A, 0x17, 0x0F, 0xE2, 0x16, 0x18, 0x0C, 0xE2, 0x10, 0x19, 0x0D, 0xE2, 0x7C, 0x1B, 0x07, 0xE2, 0x6E, 0x1D, 0x07, 0xE2, 0x54, 0x21, 0x0F, 0xE2, 0x3A, 0x2E, 0x05, 0xE2, 0x42, 0x36, 0x07, 0xE2, 0x00, 0x40, 0x0B, 0x92, 0x21, 0x72, 
	0x0F, 0x82, 0x23, 0x31, 0x83, 0x51, 0x92, 0x20, 0x6A, 0x26, 0x82, 0x21, 0x51, 0x8B, 0x41, 0xE2, 0x50, 0x3D, 0x04, 0xE2, 0x05, 0x36, 0x07, 0xE2, 0x6A, 0x30, 0x0F, 0xE2, 0x1F, 0x29, 0x07, 0xE2, 0x6F, 0x26, 0x05, 0xE2, 0x03, 0x24, 0x11, 0xE2, 0x47, 0x23, 0x04, 0xE2, 0x0A, 0x23, 0x16, 0xE2, 0x4D, 0x22, 0x06, 0x82, 0x20, 0x5F, 0x00, 0xE2, 0x17, 0x21, 0x06, 0xE2, 0x68, 0x1E, 0x16, 0xE2, 
	0x02, 0x1B, 0x05, 0xE2, 0x46, 0x1A, 0x0F, 0xE2, 0x02, 0x1B, 0x07, 0xE2, 0x75, 0x1C, 0x05, 0xE2, 0x68, 0x1E, 0x10, 0xE2, 0x47, 0x23, 0x04, 0xE2, 0x40, 0x24, 0x02, 0x92, 0x20, 0x71, 0x31, 0xE2, 0x18, 0x2A, 0x05, 0xE2, 0x7E, 0x2D, 0x06, 0xE2, 0x12, 0x34, 0x10, 0xE2, 0x00, 0x40, 0x81, 0x24, 0x92, 0x25, 0x78, 0x09, 0x82, 0x20, 0x40, 0x8B, 0x17, 0x92, 0x23, 0x68, 0x2D, 0x82, 0x25, 0x60, 
	0x83, 0x33, 0x92, 0x21, 0x6F, 0x0A, 0x82, 0x23, 0x2D, 0x8C, 0x50, 0x82, 0x21, 0x4B, 0x36, 0x92, 0x21, 0x71, 0x81, 0x70, 0x92, 0x23, 0x75, 0x09, 0x82, 0x21, 0x55, 0x8C, 0x2E, 0x82, 0x23, 0x36, 0x59, 0x92, 0x23, 0x75, 0x81, 0x70, 0x92, 0x25, 0x7E, 0x0E, 0x82, 0x23, 0x19, 0x8C, 0x0A, 0x92, 0x20, 0x73, 0x01, 0x82, 0x25, 0x56, 0x82, 0x2C, 0x82, 0x20, 0x51, 0x3B, 0x92, 0x19, 0x78, 0x8D, 
	0x37, 0x82, 0x19, 0x49, 0x81, 0x49, 0x92, 0x20, 0x7B, 0x00, 0xE2, 0x32, 0x40, 0x8D, 0x10, 0x92, 0x22, 0x72, 0x01, 0x82, 0x20, 0x4C, 0x56, 0x82, 0x22, 0x3B, 0x21, 0x92, 0x20, 0x5F, 0x8B, 0x25, 0xE2, 0x18, 0x36, 0x03, 0xE2, 0x06, 0x31, 0x02, 0x82, 0x20, 0x37, 0x05, 0xE2, 0x41, 0x2A, 0x0D, 0xE2, 0x2E, 0x1E, 0x06, 0xE2, 0x25, 0x18, 0x06, 0xE2, 0x60, 0x11, 0x0D, 0xE2, 0x34, 0x08, 0x07, 
	0xE2, 0x5E, 0x03, 0x06, 0xE2, 0x77, 0x00, 0x0D, 0xE2, 0x00, 0x00, 0x29, 0x92, 0x25, 0x72, 0x25, 0xE2, 0x12, 0x0C, 0x05, 0xE2, 0x24, 0x11, 0x06, 0xE2, 0x0B, 0x14, 0x0E, 0xE2, 0x14, 0x1A, 0x06, 0xE2, 0x72, 0x1D, 0x06, 0xE2, 0x0D, 0x22, 0x0F, 0xE2, 0x28, 0x2D, 0x04, 0xE2, 0x29, 0x34, 0x07, 0xE2, 0x32, 0x3A, 0x0E, 0xE2, 0x00, 0x40, 0x82, 0x6E, 0x92, 0x24, 0x72, 0x0D, 0x82, 0x25, 0x44, 
	0x8B, 0x13, 0x92, 0x20, 0x5C, 0x1D, 0x82, 0x24, 0x4C, 0x82, 0x74, 0x82, 0x20, 0x3B, 0x4F, 0x92, 0x20, 0x67, 0x8E, 0x05, 0x82, 0x20, 0x27, 0x7B, 0x92, 0x22, 0x72, 0x8E, 0x0F, 0x82, 0x22, 0x4D, 0x71, 0x92, 0x24, 0x79, 0x8A, 0x60, 0xE2, 0x06, 0x31, 0x06, 0xE2, 0x0E, 0x29, 0x07, 0xE2, 0x51, 0x21, 0x0D, 0xE2, 0x2D, 0x17, 0x06, 0xE2, 0x4F, 0x13, 0x06, 0xE2, 0x1C, 0x12, 0x0D, 0xE2, 0x57, 
	0x12, 0x0D, 0x92, 0x20, 0x5B, 0x05, 0xE2, 0x4F, 0x13, 0x01, 0x82, 0x24, 0x4A, 0x0D, 0xE2, 0x27, 0x26, 0x07, 0xE2, 0x17, 0x2F, 0x0E, 0xE2, 0x00, 0x40, 0x82, 0x66, 0xE2, 0x75, 0x32, 0x05, 0xE2, 0x49, 0x29, 0x07, 0xE2, 0x0D, 0x22, 0x0E, 0xE2, 0x36, 0x16, 0x05, 0xE2, 0x71, 0x0F, 0x06, 0xE2, 0x23, 0x0A, 0x0E, 0xE2, 0x5E, 0x03, 0x05, 0xE2, 0x2A, 0x02, 0x07, 0xE2, 0x6F, 0x01, 0x13, 0x92, 
	0x25, 0x72, 0x01, 0xE2, 0x34, 0x08, 0x05, 0xE2, 0x79, 0x0E, 0x12, 0x82, 0x20, 0x2A, 0x02, 0xE2, 0x38, 0x2B, 0x06, 0xE2, 0x64, 0x34, 0x0E, 0xE2, 0x00, 0x40, 0x8A, 0x3A, 0x82, 0x25, 0x46, 0x38, 0x92, 0x25, 0x6F, 0x83, 0x1D, 0x82, 0x25, 0x51, 0x43, 0x92, 0x27, 0x6F, 0x8A, 0x77, 0x82, 0x27, 0x42, 0x29, 0x92, 0x27, 0x6C, 0x83, 0x58, 0x82, 0x27, 0x52, 0x08, 0x92, 0x20, 0x7B, 0x00, 0xE2, 
	0x32, 0x40, 0x8D, 0x10, 0x92, 0x22, 0x72, 0x01, 0x82, 0x20, 0x4C, 0x56, 0x82, 0x22, 0x3B, 0x21, 0x92, 0x20, 0x5F, 0x8B, 0x25, 0xE2, 0x18, 0x36, 0x03, 0xE2, 0x06, 0x31, 0x02, 0x82, 0x20, 0x37, 0x05, 0xE2, 0x41, 0x2A, 0x0D, 0xE2, 0x2E, 0x1E, 0x06, 0xE2, 0x25, 0x18, 0x06, 0xE2, 0x60, 0x11, 0x0D, 0xE2, 0x34, 0x08, 0x07, 0xE2, 0x5E, 0x03, 0x06, 0xE2, 0x77, 0x00, 0x0D, 0xE2, 0x00, 0x00, 
	0x29, 0x92, 0x25, 0x72, 0x25, 0xE2, 0x12, 0x0C, 0x05, 0xE2, 0x24, 0x11, 0x06, 0xE2, 0x0B, 0x14, 0x0E, 0xE2, 0x14, 0x1A, 0x06, 0xE2, 0x72, 0x1D, 0x06, 0xE2, 0x0D, 0x22, 0x0F, 0xE2, 0x28, 0x2D, 0x04, 0xE2, 0x29, 0x34, 0x07, 0xE2, 0x32, 0x3A, 0x0E, 0xE2, 0x00, 0x40, 0x82, 0x6E, 0x92, 0x24, 0x72, 0x0D, 0x82, 0x25, 0x44, 0x8B, 0x13, 0x92, 0x20, 0x5C, 0x1D, 0x82, 0x24, 0x4C, 0x82, 0x74, 
	0x82, 0x20, 0x3B, 0x4F, 0x92, 0x20, 0x67, 0x8E, 0x05, 0x82, 0x20, 0x27, 0x7B, 0x92, 0x22, 0x72, 0x8E, 0x0F, 0x82, 0x22, 0x4D, 0x71, 0x92, 0x24, 0x79, 0x8A, 0x60, 0xE2, 0x06, 0x31, 0x06, 0xE2, 0x0E, 0x29, 0x07, 0xE2, 0x51, 0x21, 0x0D, 0xE2, 0x2D, 0x17, 0x06, 0xE2, 0x4F, 0x13, 0x06, 0xE2, 0x1C, 0x12, 0x0D, 0xE2, 0x57, 0x12, 0x0D, 0x92, 0x20, 0x5B, 0x05, 0xE2, 0x4F, 0x13, 0x01, 0x82, 
	0x24, 0x4A, 0x0D, 0xE2, 0x27, 0x26, 0x07, 0xE2, 0x17, 0x2F, 0x0E, 0xE2, 0x00, 0x40, 0x82, 0x66, 0xE2, 0x75, 0x32, 0x05, 0xE2, 0x49, 0x29, 0x07, 0xE2, 0x0D, 0x22, 0x0E, 0xE2, 0x36, 0x16, 0x05, 0xE2, 0x71, 0x0F, 0x06, 0xE2, 0x23, 0x0A, 0x0E, 0xE2, 0x5E, 0x03, 0x05, 0xE2, 0x2A, 0x02, 0x07, 0xE2, 0x6F, 0x01, 0x13, 0x92, 0x25, 0x72, 0x01, 0xE2, 0x34, 0x08, 0x05, 0xE2, 0x79, 0x0E, 0x12, 
	0x82, 0x20, 0x2A, 0x02, 0xE2, 0x38, 0x2B, 0x06, 0xE2, 0x64, 0x34, 0x0E, 0xE2, 0x00, 0x40, 0x8A, 0x3A, 0x82, 0x25, 0x46, 0x38, 0x92, 0x25, 0x6F, 0x83, 0x1D, 0x82, 0x25, 0x51, 0x43, 0x92, 0x27, 0x6F, 0x8A, 0x77, 0x82, 0x27, 0x42, 0x29, 0x92, 0x27, 0x6C, 0x83, 0x58, 0x82, 0x27, 0x52, 0x08, 0x92, 0x1E, 0x7E, 0x8C, 0x18, 0x92, 0x1D, 0x62, 0x1E, 0x82, 0x1E, 0x41, 0x55, 0x82, 0x1D, 0x50, 
	0x05, 0x92, 0x1B, 0x5D, 0x81, 0x6A, 0x82, 0x1B, 0x59, 0x06, 0x92, 0x19, 0x7A, 0x8D, 0x38, 0x82, 0x19, 0x25, 0x23, 0xE2, 0x5D, 0x3C, 0x0E, 0xE2, 0x6D, 0x33, 0x05, 0xE2, 0x0E, 0x30, 0x07, 0xE2, 0x7D, 0x2A, 0x0E, 0xE2, 0x62, 0x1F, 0x05, 0xE2, 0x14, 0x1A, 0x0A, 0xE2, 0x47, 0x14, 0x0A, 0xE2, 0x3C, 0x07, 0x06, 0xE2, 0x00, 0x00, 0x5E, 0x92, 0x20, 0x6B, 0x1E, 0xE2, 0x78, 0x07, 0x05, 0xE2, 
	0x1C, 0x12, 0x05, 0xE2, 0x3F, 0x1C, 0x0F, 0xE2, 0x53, 0x2F, 0x05, 0xE2, 0x5C, 0x35, 0x06, 0xE2, 0x32, 0x3A, 0x0E, 0xE2, 0x00, 0x40, 0x8C, 0x2A, 0x82, 0x20, 0x27, 0x16, 0x92, 0x1B, 0x50, 0x81, 0x70, 0x92, 0x20, 0x5B, 0x15, 0x82, 0x1B, 0x3D, 0x8D, 0x50, 0x82, 0x20, 0x56, 0x81, 0x1B, 0x92, 0x2A, 0x76, 0x8D, 0x31, 0xE2, 0x50, 0x3D, 0x07, 0xE2, 0x1A, 0x3C, 0x07, 0xE2, 0x2E, 0x39, 0x0E, 
	0xE2, 0x3B, 0x37, 0x06, 0xE2, 0x4F, 0x34, 0x07, 0xE2, 0x26, 0x31, 0x0E, 0xE2, 0x7E, 0x2D, 0x07, 0xE2, 0x48, 0x2C, 0x06, 0xE2, 0x55, 0x2A, 0x0E, 0xE2, 0x39, 0x25, 0x07, 0xE2, 0x4D, 0x22, 0x07, 0xE2, 0x68, 0x1E, 0x0D, 0xE2, 0x24, 0x16, 0x07, 0xE2, 0x08, 0x11, 0x07, 0xE2, 0x36, 0x0A, 0x0D, 0xE2, 0x00, 0x00, 0x47, 0x92, 0x25, 0x75, 0x0B, 0x82, 0x2A, 0x58, 0x0E, 0xE2, 0x0B, 0x2C, 0x0F, 
	0xE2, 0x00, 0x40, 0x85, 0x7F, 0xE2, 0x50, 0x3D, 0x06, 0xE2, 0x4F, 0x34, 0x0F, 0xE2, 0x6F, 0x26, 0x06, 0xE2, 0x1E, 0x20, 0x07, 0xE2, 0x4C, 0x19, 0x0F, 0xE2, 0x29, 0x0C, 0x05, 0xE2, 0x5E, 0x04, 0x07, 0xE2, 0x00, 0x00, 0x5C, 0x92, 0x31, 0x6E, 0x04, 0xE2, 0x29, 0x0C, 0x07, 0xE2, 0x24, 0x16, 0x06, 0xE2, 0x0A, 0x23, 0x10, 0x82, 0x25, 0x30, 0x05, 0xE2, 0x00, 0x40, 0x83, 0x37, 0x82, 0x31, 
	0x2C, 0x03, 0x92, 0x25, 0x72, 0x83, 0x54, 0x82, 0x25, 0x68, 0x0C, 0x92, 0x2A, 0x75, 0x85, 0x50, 0x92, 0x2D, 0x6F, 0x39, 0x82, 0x2A, 0x48, 0x83, 0x27, 0x92, 0x2F, 0x7C, 0x19, 0x82, 0x2D, 0x48, 0x84, 0x3F, 0xE2, 0x13, 0x3D, 0x05, 0xE2, 0x21, 0x3B, 0x11, 0xE2, 0x3B, 0x37, 0x04, 0xE2, 0x56, 0x33, 0x07, 0xE2, 0x26, 0x31, 0x0F, 0xE2, 0x69, 0x27, 0x05, 0xE2, 0x17, 0x21, 0x07, 0xE2, 0x4C, 
	0x19, 0x0F, 0xE2, 0x1C, 0x0E, 0x05, 0xE2, 0x30, 0x0B, 0x07, 0xE2, 0x44, 0x08, 0x04, 0x82, 0x2F, 0x4D, 0x0B, 0xE2, 0x0E, 0x07, 0x12, 0x92, 0x31, 0x7B, 0x20, 0xE2, 0x4D, 0x22, 0x06, 0xE2, 0x6B, 0x39, 0x05, 0xE2, 0x00, 0x40, 0x85, 0x73, 0xE2, 0x1A, 0x3C, 0x07, 0xE2, 0x35, 0x38, 0x05, 0xE2, 0x20, 0x32, 0x11, 0xE2, 0x47, 0x23, 0x04, 0xE2, 0x38, 0x1C, 0x06, 0xE2, 0x1D, 0x17, 0x11, 0xE2, 
	0x15, 0x0F, 0x05, 0xE2, 0x6D, 0x0B, 0x06, 0xE2, 0x30, 0x0B, 0x10, 0xE2, 0x36, 0x0A, 0x04, 0xE2, 0x30, 0x0B, 0x07, 0xE2, 0x1C, 0x0E, 0x0F, 0xE2, 0x16, 0x18, 0x07, 0xE2, 0x6E, 0x1D, 0x05, 0xE2, 0x03, 0x24, 0x10, 0xE2, 0x6A, 0x30, 0x04, 0xE2, 0x7F, 0x36, 0x07, 0xE2, 0x13, 0x3D, 0x0E, 0x92, 0x25, 0x63, 0x01, 0xE2, 0x00, 0x40, 0x12, 0x82, 0x31, 0x2E, 0x84, 0x67, 0xE2, 0x57, 0x3C, 0x05, 
	0xE2, 0x64, 0x3A, 0x10, 0xE2, 0x78, 0x37, 0x06, 0xE2, 0x3B, 0x37, 0x05, 0xE2, 0x4F, 0x34, 0x11, 0xE2, 0x2D, 0x30, 0x05, 0xE2, 0x7E, 0x2D, 0x05, 0xE2, 0x12, 0x2B, 0x11, 0xE2, 0x2C, 0x27, 0x05, 0xE2, 0x6F, 0x26, 0x06, 0xE2, 0x39, 0x25, 0x10, 0xE2, 0x47, 0x23, 0x05, 0xE2, 0x5B, 0x20, 0x06, 0xE2, 0x3F, 0x1B, 0x10, 0xE2, 0x3E, 0x12, 0x06, 0xE2, 0x52, 0x0F, 0x05, 0xE2, 0x6D, 0x0B, 0x08, 
	0x82, 0x25, 0x33, 0x13, 0xE2, 0x3C, 0x00, 0x11, 0xE2, 0x00, 0x00, 0x3B, 0xE2, 0x3C, 0x00, 0x06, 0xE2, 0x51, 0x06, 0x10, 0xE2, 0x24, 0x16, 0x06, 0xE2, 0x61, 0x1F, 0x05, 0xE2, 0x55, 0x2A, 0x10, 0xE2, 0x21, 0x3B, 0x06, 0xE2, 0x00, 0x40, 0x1B, 0x92, 0x28, 0x7A, 0x86, 0x7C, 0xB2, 0x01, 0x16, 0x06, 0xB2, 0x01, 0x45, 0x06, 0xB2, 0x01, 0x53, 0x15, 0xB2, 0x01, 0x70, 0x07, 0xB2, 0x01, 0x71, 
	0x14, 0xB2, 0x01, 0x75, 0x07, 0xB2, 0x01, 0x77, 0x14, 0xB2, 0x01, 0x79, 0x22, 0xB2, 0x01, 0x7B, 0x15, 0xB2, 0x01, 0x7C, 0x1B, 0xB2, 0x01, 0x7D, 0x22, 0xB2, 0x01, 0x7E, 0x14, 0xB2, 0x01, 0x7D, 0x07, 0xB2, 0x01, 0x7E, 0x31, 0xB2, 0x01, 0x7F, 0x1B, 0xB2, 0x01, 0x7E, 0x04, 0xB2, 0x01, 0x7D, 0x18, 0xB2, 0x01, 0x7A, 0x04, 0xB2, 0x01, 0x7C, 0x17, 0xB2, 0x01, 0x7D, 0x1B, 0xB2, 0x01, 0x7C, 
	0x20, 0xB2, 0x01, 0x7D, 0x1A, 0xB2, 0x01, 0x7E, 0x47, 0xB2, 0x01, 0x78, 0x05, 0xB2, 0x01, 0x7C, 0x07, 0xB2, 0x01, 0x74, 0x15, 0xB2, 0x01, 0x00, 0x82, 0x41, 0xE2, 0x42, 0x36, 0x05, 0xE2, 0x7E, 0x2D, 0x07, 0xE2, 0x2C, 0x27, 0x0F, 0xE2, 0x7C, 0x1B, 0x05, 0xE2, 0x53, 0x18, 0x07, 0xE2, 0x24, 0x16, 0x0F, 0xE2, 0x7B, 0x12, 0x07, 0xE2, 0x3E, 0x12, 0x05, 0xE2, 0x37, 0x13, 0x15, 0xE2, 0x32, 
	0x1D, 0x06, 0xE2, 0x33, 0x26, 0x10, 0xE2, 0x50, 0x3D, 0x05, 0xE2, 0x00, 0x40, 0x18, 0x82, 0x28, 0x58, 0x13, 0x92, 0x21, 0x6A, 0x89, 0x30, 0x92, 0x23, 0x6B, 0x10, 0x82, 0x21, 0x43, 0x83, 0x45, 0x82, 0x23, 0x35, 0x0B, 0x92, 0x25, 0x72, 0x81, 0x70, 0x92, 0x2A, 0x7A, 0x27, 0x82, 0x25, 0x61, 0x8D, 0x0E, 0xE2, 0x13, 0x3D, 0x0F, 0xE2, 0x49, 0x35, 0x06, 0xE2, 0x56, 0x33, 0x05, 0xE2, 0x63, 
	0x31, 0x10, 0xE2, 0x6A, 0x30, 0x06, 0xE2, 0x2D, 0x30, 0x05, 0xE2, 0x34, 0x2F, 0x11, 0xE2, 0x48, 0x2C, 0x05, 0xE2, 0x4E, 0x2B, 0x05, 0xE2, 0x12, 0x2B, 0x1C, 0xE2, 0x48, 0x2C, 0x10, 0xE2, 0x4F, 0x34, 0x05, 0xE2, 0x6B, 0x39, 0x06, 0xE2, 0x00, 0x40, 0x44, 0x92, 0x23, 0x6B, 0x0F, 0x82, 0x2A, 0x42, 0x89, 0x41, 0xE2, 0x57, 0x3C, 0x07, 0xE2, 0x2E, 0x39, 0x0F, 0xE2, 0x35, 0x38, 0x05, 0xE2, 
	0x3B, 0x37, 0x07, 0xE2, 0x7F, 0x36, 0x0E, 0xE2, 0x2D, 0x30, 0x06, 0xE2, 0x55, 0x2A, 0x07, 0xE2, 0x39, 0x25, 0x0F, 0xE2, 0x32, 0x1D, 0x06, 0xE2, 0x46, 0x1A, 0x06, 0xE2, 0x10, 0x19, 0x0F, 0xE2, 0x5A, 0x17, 0x06, 0xE2, 0x16, 0x18, 0x07, 0xE2, 0x5A, 0x17, 0x0F, 0xE2, 0x16, 0x18, 0x0C, 0xE2, 0x10, 0x19, 0x0D, 0xE2, 0x7C, 0x1B, 0x07, 0xE2, 0x6E, 0x1D, 0x07, 0xE2, 0x54, 0x21, 0x0F, 0xE2, 
	0x3A, 0x2E, 0x05, 0xE2, 0x42, 0x36, 0x07, 0xE2, 0x00, 0x40, 0x0B, 0x92, 0x21, 0x72, 0x0F, 0x82, 0x23, 0x31, 0x83, 0x51, 0x92, 0x20, 0x6A, 0x26, 0x82, 0x21, 0x51, 0x8B, 0x41, 0xE2, 0x50, 0x3D, 0x04, 0xE2, 0x05, 0x36, 0x07, 0xE2, 0x6A, 0x30, 0x0F, 0xE2, 0x1F, 0x29, 0x07, 0xE2, 0x6F, 0x26, 0x05, 0xE2, 0x03, 0x24, 0x11, 0xE2, 0x47, 0x23, 0x04, 0xE2, 0x0A, 0x23, 0x16, 0xE2, 0x4D, 0x22, 
	0x06, 0x82, 0x20, 0x5F, 0x00, 0xE2, 0x17, 0x21, 0x06, 0xE2, 0x68, 0x1E, 0x16, 0xE2, 0x02, 0x1B, 0x05, 0xE2, 0x46, 0x1A, 0x0F, 0xE2, 0x02, 0x1B, 0x07, 0xE2, 0x75, 0x1C, 0x05, 0xE2, 0x68, 0x1E, 0x10, 0xE2, 0x47, 0x23, 0x04, 0xE2, 0x40, 0x24, 0x02, 0x92, 0x20, 0x71, 0x31, 0xE2, 0x18, 0x2A, 0x05, 0xE2, 0x7E, 0x2D, 0x06, 0xE2, 0x12, 0x34, 0x10, 0xE2, 0x00, 0x40, 0x81, 0x24, 0x92, 0x25, 
	0x78, 0x09, 0x82, 0x20, 0x40, 0x8B, 0x17, 0x92, 0x23, 0x68, 0x2D, 0x82, 0x25, 0x60, 0x83, 0x33, 0x92, 0x21, 0x6F, 0x0A, 0x82, 0x23, 0x2D, 0x8C, 0x50, 0x82, 0x21, 0x4B, 0x36, 0x92, 0x21, 0x71, 0x81, 0x70, 0x92, 0x23, 0x75, 0x09, 0x82, 0x21, 0x55, 0x8C, 0x2E, 0x82, 0x23, 0x36, 0x59, 0x92, 0x23, 0x75, 0x81, 0x70, 0x92, 0x25, 0x7E, 0x0E, 0x82, 0x23, 0x19, 0x8C, 0x0A, 0x92, 0x20, 0x73, 
	0x01, 0x82, 0x25, 0x56, 0x82, 0x2C, 0x82, 0x20, 0x51, 0x3B, 0x92, 0x19, 0x78, 0x8D, 0x37, 0x82, 0x19, 0x49, 0x81, 0x49, 0x92, 0x2E, 0x77, 0x83, 0x53, 0x82, 0x2E, 0x43, 0x0D, 0x92, 0x2C, 0x74, 0x83, 0x51, 0x82, 0x2C, 0x24, 0x0F, 0x92, 0x2A, 0x7D, 0x83, 0x7D, 0xB2, 0x01, 0x04, 0x04, 0xB2, 0x01, 0x09, 0x07, 0xB2, 0x01, 0x0A, 0x15, 0xB2, 0x01, 0x1A, 0x1B, 0xB2, 0x01, 0x60, 0x07, 0xB2, 
	0x01, 0x67, 0x1B, 0xB2, 0x01, 0x75, 0x14, 0xB2, 0x01, 0x77, 0x07, 0xB2, 0x01, 0x78, 0x14, 0xB2, 0x01, 0x77, 0x07, 0xB2, 0x01, 0x75, 0x15, 0xB2, 0x01, 0x6B, 0x06, 0xB2, 0x01, 0x65, 0x15, 0xB2, 0x01, 0x4A, 0x07, 0xB2, 0x01, 0x52, 0x14, 0xB2, 0x01, 0x00, 0x81, 0x09, 0x82, 0x2A, 0x61, 0x5C, 0x92, 0x2A, 0x7F, 0x83, 0x60, 0x92, 0x29, 0x79, 0x0B, 0x82, 0x2A, 0x19, 0x83, 0x4C, 0x82, 0x29, 
	0x29, 0x09, 0x92, 0x27, 0x72, 0x82, 0x68, 0x92, 0x33, 0x63, 0x4A, 0x82, 0x27, 0x30, 0x81, 0x4E, 0xB2, 0x01, 0x44, 0x17, 0xB2, 0x01, 0x6E, 0x04, 0xB2, 0x01, 0x6B, 0x16, 0xB2, 0x01, 0x5A, 0x06, 0xB2, 0x01, 0x3B, 0x13, 0x82, 0x33, 0x50, 0x03, 0xB2, 0x01, 0x00, 0x03, 0x92, 0x27, 0x65, 0x81, 0x3D, 0x82, 0x27, 0x53, 0x33, 0x92, 0x27, 0x63, 0x83, 0x2B, 0x82, 0x27, 0x18, 0x35, 0x92, 0x25, 
	0x67, 0x81, 0x45, 0xB2, 0x01, 0x49, 0x04, 0xB2, 0x01, 0x5E, 0x06, 0xB2, 0x01, 0x6B, 0x1B, 0xB2, 0x01, 0x78, 0x1B, 0xB2, 0x01, 0x77, 0x1B, 0xB2, 0x01, 0x17, 0x1C, 0xB2, 0x01, 0x00, 0x81, 0x24, 0x92, 0x23, 0x60, 0x38, 0x82, 0x25, 0x4C, 0x82, 0x45, 0xB2, 0x01, 0x04, 0x16, 0xB2, 0x01, 0x07, 0x1B, 0xB2, 0x01, 0x08, 0x05, 0xB2, 0x01, 0x0C, 0x16, 0xB2, 0x01, 0x1A, 0x06, 0xB2, 0x01, 0x1B, 
	0x15, 0xB2, 0x01, 0x20, 0x06, 0xB2, 0x01, 0x23, 0x15, 0xB2, 0x01, 0x24, 0x06, 0xB2, 0x01, 0x28, 0x2B, 0xB2, 0x01, 0x2D, 0x05, 0xB2, 0x01, 0x2A, 0x06, 0xB2, 0x01, 0x29, 0x1C, 0xB2, 0x01, 0x2C, 0x1B, 0xB2, 0x01, 0x2A, 0x1B, 0xB2, 0x01, 0x0B, 0x1B, 0xB2, 0x01, 0x00, 0x81, 0x32, 0xE2, 0x2E, 0x3B, 0x07, 0xE2, 0x4A, 0x38, 0x06, 0xE2, 0x2A, 0x35, 0x10, 0xE2, 0x14, 0x31, 0x04, 0xE2, 0x1D, 
	0x30, 0x07, 0xE2, 0x26, 0x2F, 0x0F, 0xE2, 0x62, 0x2F, 0x05, 0xE2, 0x59, 0x30, 0x07, 0xE2, 0x3D, 0x33, 0x0B, 0x82, 0x23, 0x46, 0x09, 0xE2, 0x00, 0x40, 0x0F, 0x92, 0x20, 0x6B, 0x89, 0x25, 0xE2, 0x60, 0x3C, 0x0F, 0xE2, 0x53, 0x37, 0x05, 0xE2, 0x2A, 0x35, 0x07, 0xE2, 0x78, 0x33, 0x0F, 0xE2, 0x26, 0x2F, 0x06, 0xE2, 0x19, 0x2A, 0x06, 0xE2, 0x1F, 0x23, 0x10, 0xE2, 0x21, 0x16, 0x05, 0xE2, 
	0x62, 0x0F, 0x07, 0xE2, 0x55, 0x0A, 0x0F, 0xE2, 0x51, 0x04, 0x05, 0xE2, 0x5A, 0x03, 0x07, 0xE2, 0x28, 0x02, 0x0F, 0xE2, 0x6D, 0x01, 0x07, 0x92, 0x1E, 0x6C, 0x05, 0xE2, 0x5A, 0x03, 0x0C, 0x82, 0x20, 0x3B, 0x03, 0xE2, 0x01, 0x13, 0x05, 0xE2, 0x44, 0x1F, 0x07, 0xE2, 0x62, 0x2F, 0x2C, 0xE2, 0x00, 0x40, 0x81, 0x31, 0x82, 0x1E, 0x65, 0x6B, 0x92, 0x20, 0x3E, 0x81, 0x6D, 0x82, 0x20, 0x48, 
	0x03, 0x92, 0x2E, 0x79, 0x82, 0x0D, 0xB2, 0x01, 0x08, 0x14, 0xB2, 0x01, 0x4D, 0x07, 0xB2, 0x01, 0x4F, 0x14, 0xB2, 0x01, 0x25, 0x07, 0xB2, 0x01, 0x00, 0x81, 0x12, 0x82, 0x2E, 0x1C, 0x0B, 0x92, 0x2C, 0x72, 0x83, 0x60, 0x92, 0x2A, 0x7B, 0x06, 0x82, 0x2C, 0x13, 0x82, 0x62, 0x92, 0x36, 0x65, 0x00, 0x92, 0x35, 0x4F, 0x0C, 0x82, 0x35, 0x6B, 0x1F, 0x82, 0x2A, 0x64, 0x82, 0x1D, 0x82, 0x36, 
	0x40, 0x20, 0x92, 0x2A, 0x6E, 0x81, 0x31, 0x82, 0x2A, 0x65, 0x3F, 0x92, 0x2A, 0x66, 0x83, 0x60, 0x92, 0x29, 0x6B, 0x21, 0x82, 0x2A, 0x50, 0x83, 0x27, 0x82, 0x29, 0x44, 0x18, 0x92, 0x27, 0x62, 0x81, 0x6F, 0xB2, 0x01, 0x34, 0x07, 0xB2, 0x01, 0x5F, 0x15, 0xB2, 0x01, 0x74, 0x1B, 0xB2, 0x01, 0x68, 0x07, 0xB2, 0x01, 0x61, 0x14, 0xB2, 0x01, 0x00, 0x27, 0x92, 0x33, 0x67, 0x0F, 0x82, 0x27, 
	0x18, 0x82, 0x57, 0x82, 0x33, 0x16, 0x02, 0x92, 0x27, 0x5D, 0x81, 0x20, 0x82, 0x27, 0x4A, 0x50, 0x92, 0x27, 0x70, 0x83, 0x5A, 0x82, 0x27, 0x14, 0x06, 0x92, 0x25, 0x6A, 0x83, 0x60, 0x92, 0x23, 0x67, 0x1A, 0x82, 0x25, 0x55, 0x83, 0x46, 0x92, 0x21, 0x5C, 0x07, 0x82, 0x23, 0x44, 0x82, 0x7F, 0x82, 0x21, 0x4D, 0x5A, 0x92, 0x20, 0x5F, 0x8F, 0x00, 0x92, 0x22, 0x5A, 0x04, 0x82, 0x20, 0x43, 
	0x8E, 0x2E, 0x82, 0x22, 0x34, 0x4E, 0x92, 0x22, 0x54, 0x95, 0x1F, 0x82, 0x22, 0x44, 0x88, 0x61, 0x92, 0x1E, 0x5C, 0x87, 0x2C, 0x82, 0x1E, 0x68, 0x14, 0x92, 0x20, 0x62, 0x86, 0x38, 0x82, 0x20, 0x39, 0x10, 0x92, 0x20, 0x4A, 0x78, 0x92, 0x22, 0x5B, 0x05, 0x82, 0x20, 0x51, 0x88, 0x17, 0xE2, 0x40, 0x39, 0x05, 0xE2, 0x2A, 0x35, 0x07, 0xE2, 0x14, 0x31, 0x0E, 0xE2, 0x71, 0x27, 0x06, 0xE2, 
	0x6D, 0x21, 0x07, 0xE2, 0x40, 0x19, 0x0E, 0xE2, 0x5E, 0x09, 0x07, 0xE2, 0x28, 0x02, 0x06, 0xE2, 0x00, 0x00, 0x46, 0xE2, 0x16, 0x04, 0x05, 0xE2, 0x07, 0x0C, 0x07, 0x92, 0x2E, 0x64, 0x1B, 0xE2, 0x69, 0x3B, 0x0F, 0xE2, 0x00, 0x40, 0x6E, 0x82, 0x22, 0x1A, 0x4C, 0x82, 0x2E, 0x53, 0x0C, 0x92, 0x22, 0x52, 0x82, 0x24, 0xB2, 0x01, 0x30, 0x07, 0xB2, 0x01, 0x5B, 0x05, 0xB2, 0x01, 0x69, 0x16, 
	0xB2, 0x01, 0x6A, 0x05, 0xB2, 0x01, 0x63, 0x16, 0xB2, 0x01, 0x00, 0x7F, 0x92, 0x1E, 0x5A, 0x0F, 0x82, 0x22, 0x33, 0x85, 0x6E, 0xB2, 0x01, 0x12, 0x06, 0xB2, 0x01, 0x14, 0x05, 0xB2, 0x01, 0x00, 0x81, 0x38, 0x92, 0x20, 0x59, 0x16, 0x82, 0x1E, 0x4E, 0x86, 0x0F, 0x82, 0x20, 0x3D, 0x07, 0xE2, 0x37, 0x3A, 0x05, 0xE2, 0x78, 0x33, 0x05, 0xE2, 0x30, 0x2E, 0x11, 0xE2, 0x32, 0x21, 0x05, 0xE2, 
	0x37, 0x1A, 0x06, 0xE2, 0x46, 0x12, 0x10, 0xE2, 0x3F, 0x06, 0x05, 0xE2, 0x3B, 0x00, 0x06, 0xE2, 0x00, 0x00, 0x53, 0x92, 0x25, 0x5B, 0x2A, 0xE2, 0x51, 0x04, 0x05, 0xE2, 0x55, 0x0A, 0x07, 0xE2, 0x4F, 0x11, 0x0F, 0xE2, 0x09, 0x1F, 0x06, 0xE2, 0x3F, 0x26, 0x06, 0xE2, 0x4C, 0x2B, 0x0F, 0xE2, 0x01, 0x33, 0x07, 0xE2, 0x6F, 0x34, 0x06, 0xE2, 0x4A, 0x38, 0x10, 0xE2, 0x00, 0x40, 0x84, 0x10, 
	0xE2, 0x53, 0x37, 0x10, 0xE2, 0x10, 0x2B, 0x04, 0xE2, 0x2C, 0x28, 0x07, 0xE2, 0x5A, 0x23, 0x0F, 0xE2, 0x73, 0x1A, 0x05, 0xE2, 0x7C, 0x19, 0x12, 0x82, 0x25, 0x42, 0x02, 0x92, 0x20, 0x47, 0x24, 0xE2, 0x00, 0x40, 0x83, 0x25, 0x82, 0x20, 0x33, 0x17, 0x92, 0x1D, 0x34, 0x85, 0x50, 0x92, 0x1E, 0x56, 0x18, 0x82, 0x1D, 0x56, 0x83, 0x72, 0xB2, 0x01, 0x04, 0x06, 0xB2, 0x01, 0x16, 0x16, 0xB2, 
	0x01, 0x57, 0x05, 0xB2, 0x01, 0x5E, 0x16, 0xB2, 0x01, 0x6A, 0x05, 0xB2, 0x01, 0x6D, 0x16, 0xB2, 0x01, 0x73, 0x1B, 0xB2, 0x01, 0x76, 0x31, 0xB2, 0x01, 0x72, 0x06, 0xB2, 0x01, 0x6E, 0x06, 0xB2, 0x01, 0x66, 0x15, 0xB2, 0x01, 0x00, 0x81, 0x77, 0x92, 0x20, 0x52, 0x0B, 0x82, 0x1E, 0x48, 0x85, 0x30, 0xE2, 0x73, 0x3A, 0x07, 0xE2, 0x18, 0x37, 0x06, 0xE2, 0x2A, 0x35, 0x10, 0xE2, 0x4F, 0x31, 
	0x04, 0xE2, 0x59, 0x30, 0x06, 0xE2, 0x26, 0x2F, 0x10, 0xE2, 0x55, 0x2A, 0x05, 0xE2, 0x51, 0x24, 0x06, 0xE2, 0x09, 0x1F, 0x10, 0xE2, 0x2A, 0x15, 0x05, 0xE2, 0x46, 0x12, 0x07, 0xE2, 0x62, 0x0F, 0x0F, 0xE2, 0x39, 0x0D, 0x07, 0xE2, 0x42, 0x0C, 0x1A, 0xE2, 0x7E, 0x0C, 0x05, 0xE2, 0x39, 0x0D, 0x11, 0xE2, 0x01, 0x13, 0x05, 0xE2, 0x18, 0x17, 0x06, 0xE2, 0x60, 0x1C, 0x10, 0xE2, 0x39, 0x2D, 
	0x05, 0xE2, 0x5C, 0x36, 0x07, 0xE2, 0x00, 0x40, 0x3A, 0x92, 0x22, 0x48, 0x28, 0x82, 0x20, 0x33, 0x84, 0x55, 0xE2, 0x59, 0x30, 0x07, 0xE2, 0x19, 0x2A, 0x05, 0xE2, 0x16, 0x24, 0x11, 0xE2, 0x25, 0x1C, 0x04, 0xE2, 0x37, 0x1A, 0x07, 0xE2, 0x05, 0x19, 0x14, 0xE2, 0x37, 0x1A, 0x07, 0xE2, 0x09, 0x1F, 0x0F, 0xE2, 0x39, 0x2D, 0x01, 0x92, 0x27, 0x56, 0x02, 0x82, 0x22, 0x39, 0x34, 0xE2, 0x00, 
	0x40, 0x42, 0x92, 0x29, 0x53, 0x08, 0x82, 0x27, 0x2C, 0x81, 0x68, 0x92, 0x2C, 0x52, 0x0D, 0x82, 0x29, 0x55, 0x81, 0x4C, 0xB2, 0x01, 0x3A, 0x05, 0xB2, 0x01, 0x67, 0x1B, 0xB2, 0x01, 0x78, 0x1C, 0xB2, 0x01, 0x5F, 0x1B, 0xB2, 0x01, 0x00, 0x38, 0x92, 0x2E, 0x59, 0x12, 0x82, 0x2C, 0x11, 0x81, 0x2B, 0xB2, 0x01, 0x2C, 0x15, 0xB2, 0x01, 0x6B, 0x06, 0xB2, 0x01, 0x6D, 0x16, 0xB2, 0x01, 0x72, 
	0x05, 0xB2, 0x01, 0x73, 0x16, 0xB2, 0x01, 0x78, 0x05, 0xB2, 0x01, 0x79, 0x16, 0xB2, 0x01, 0x7A, 0x1B, 0xB2, 0x01, 0x79, 0x06, 0xB2, 0x01, 0x7A, 0x15, 0xB2, 0x01, 0x7B, 0x06, 0xB2, 0x01, 0x79, 0x16, 0xB2, 0x01, 0x69, 0x05, 0xB2, 0x01, 0x4E, 0x1E, 0x82, 0x2E, 0x58, 0x03, 0xB2, 0x01, 0x00, 0x44, 0x92, 0x1E, 0x5A, 0x87, 0x40, 0x92, 0x20, 0x50, 0x02, 0x82, 0x1E, 0x58, 0x86, 0x2E, 0xE2, 
	0x60, 0x3C, 0x10, 0xE2, 0x59, 0x30, 0x04, 0xE2, 0x42, 0x2C, 0x07, 0xE2, 0x7A, 0x26, 0x0F, 0xE2, 0x7C, 0x19, 0x05, 0xE2, 0x3D, 0x13, 0x07, 0xE2, 0x74, 0x0D, 0x12, 0xE2, 0x51, 0x04, 0x03, 0xE2, 0x00, 0x00, 0x45, 0x92, 0x25, 0x5C, 0x18, 0xE2, 0x23, 0x09, 0x05, 0x82, 0x20, 0x2E, 0x06, 0xE2, 0x0E, 0x18, 0x0D, 0xE2, 0x5E, 0x29, 0x0F, 0xE2, 0x46, 0x32, 0x05, 0xE2, 0x2A, 0x35, 0x06, 0xE2, 
	0x05, 0x39, 0x10, 0xE2, 0x00, 0x40, 0x8C, 0x0E, 0xE2, 0x60, 0x3C, 0x06, 0xE2, 0x7C, 0x39, 0x06, 0xE2, 0x4A, 0x38, 0x0E, 0xE2, 0x5C, 0x36, 0x07, 0xE2, 0x6F, 0x34, 0x07, 0xE2, 0x33, 0x34, 0x0F, 0xE2, 0x0B, 0x32, 0x05, 0xE2, 0x62, 0x2F, 0x07, 0xE2, 0x7E, 0x2C, 0x0D, 0xE2, 0x5E, 0x29, 0x07, 0xE2, 0x2C, 0x28, 0x07, 0xE2, 0x35, 0x27, 0x0F, 0xE2, 0x16, 0x24, 0x05, 0xE2, 0x44, 0x1F, 0x06, 
	0x82, 0x25, 0x40, 0x01, 0xE2, 0x7C, 0x19, 0x0F, 0xE2, 0x62, 0x0F, 0x06, 0xE2, 0x10, 0x0B, 0x06, 0xE2, 0x2C, 0x08, 0x0F, 0xE2, 0x51, 0x04, 0x0D, 0xE2, 0x16, 0x04, 0x0D, 0xE2, 0x2C, 0x08, 0x07, 0xE2, 0x07, 0x0C, 0x07, 0xE2, 0x1D, 0x10, 0x0F, 0xE2, 0x76, 0x20, 0x05, 0xE2, 0x39, 0x2D, 0x07, 0xE2, 0x7C, 0x39, 0x0E, 0xE2, 0x00, 0x40, 0x24, 0x92, 0x1E, 0x52, 0x85, 0x41, 0xB2, 0x01, 0x07, 
	0x07, 0xB2, 0x01, 0x0E, 0x14, 0xB2, 0x01, 0x1B, 0x07, 0xB2, 0x01, 0x17, 0x14, 0xB2, 0x01, 0x00, 0x81, 0x49, 0x92, 0x20, 0x55, 0x0B, 0x82, 0x1E, 0x4D, 0x87, 0x35, 0x92, 0x22, 0x47, 0x17, 0x82, 0x20, 0x44, 0x83, 0x3B, 0xB2, 0x01, 0x67, 0x05, 0xB2, 0x01, 0x72, 0x07, 0xB2, 0x01, 0x77, 0x15, 0xB2, 0x01, 0x7C, 0x06, 0xB2, 0x01, 0x7D, 0x15, 0xB2, 0x01, 0x7C, 0x07, 0xB2, 0x01, 0x7B, 0x14, 
	0xB2, 0x01, 0x75, 0x07, 0xB2, 0x01, 0x71, 0x14, 0xB2, 0x01, 0x6D, 0x07, 0xB2, 0x01, 0x6A, 0x14, 0xB2, 0x01, 0x48, 0x07, 0xB2, 0x01, 0x17, 0x15, 0xB2, 0x01, 0x00, 0x55, 0x92, 0x1D, 0x3D, 0x11, 0x82, 0x22, 0x34, 0x56, 0x82, 0x1D, 0x60, 0x11, 0x92, 0x22, 0x39, 0x81, 0x00, 0xB2, 0x01, 0x10, 0x16, 0xB2, 0x01, 0x6A, 0x05, 0xB2, 0x01, 0x6E, 0x1B, 0xB2, 0x01, 0x67, 0x16, 0xB2, 0x01, 0x6E, 
	0x05, 0xB2, 0x01, 0x6C, 0x16, 0xB2, 0x01, 0x52, 0x06, 0xB2, 0x01, 0x5A, 0x15, 0xB2, 0x01, 0x00, 0x66, 0x92, 0x25, 0x51, 0x09, 0x82, 0x22, 0x3B, 0x81, 0x67, 0x92, 0x27, 0x54, 0x23, 0x82, 0x25, 0x43, 0x6D, 0xB2, 0x01, 0x57, 0x04, 0xB2, 0x01, 0x5F, 0x07, 0xB2, 0x01, 0x5D, 0x14, 0xB2, 0x01, 0x25, 0x07, 0xB2, 0x01, 0x00, 0x34, 0x82, 0x27, 0x4B, 0x06, 0x92, 0x29, 0x4D, 0x81, 0x70, 0x92, 
	0x1E, 0x5D, 0x1C, 0x82, 0x29, 0x56, 0x84, 0x67, 0xB2, 0x01, 0x16, 0x04, 0xB2, 0x01, 0x26, 0x07, 0xB2, 0x01, 0x46, 0x16, 0xB2, 0x01, 0x66, 0x05, 0xB2, 0x01, 0x6B, 0x16, 0xB2, 0x01, 0x67, 0x1B, 0xB2, 0x01, 0x56, 0x06, 0xB2, 0x01, 0x59, 0x15, 0xB2, 0x01, 0x5F, 0x1B, 0xB2, 0x01, 0x2B, 0x06, 0xB2, 0x01, 0x1E, 0x16, 0xB2, 0x01, 0x00, 0x7A, 0x82, 0x1E, 0x5B, 0x1A, 0x92, 0x20, 0x4E, 0x86, 
	0x0E, 0xE2, 0x57, 0x3D, 0x10, 0xE2, 0x7C, 0x39, 0x04, 0xE2, 0x0E, 0x38, 0x07, 0xE2, 0x18, 0x37, 0x0F, 0xE2, 0x1D, 0x30, 0x07, 0xE2, 0x4C, 0x2B, 0x05, 0xE2, 0x03, 0x26, 0x11, 0xE2, 0x69, 0x1B, 0x04, 0xE2, 0x0E, 0x18, 0x07, 0xE2, 0x3D, 0x13, 0x0F, 0xE2, 0x7E, 0x0C, 0x06, 0xE2, 0x2C, 0x08, 0x06, 0xE2, 0x51, 0x04, 0x10, 0xE2, 0x00, 0x00, 0x2D, 0x82, 0x20, 0x45, 0x08, 0x92, 0x25, 0x48, 
	0x1D, 0xE2, 0x76, 0x20, 0x05, 0xE2, 0x19, 0x2A, 0x06, 0xE2, 0x46, 0x32, 0x10, 0xE2, 0x00, 0x40, 0x88, 0x25, 0xE2, 0x53, 0x37, 0x05, 0xE2, 0x2A, 0x35, 0x06, 0xE2, 0x46, 0x32, 0x10, 0xE2, 0x1D, 0x30, 0x0C, 0xE2, 0x62, 0x2F, 0x2C, 0x92, 0x31, 0x41, 0x04, 0xE2, 0x42, 0x2C, 0x05, 0xE2, 0x5E, 0x29, 0x11, 0xE2, 0x6D, 0x21, 0x06, 0xE2, 0x57, 0x1D, 0x04, 0xE2, 0x37, 0x1A, 0x2D, 0xE2, 0x66, 
	0x15, 0x04, 0xE2, 0x4A, 0x18, 0x06, 0xE2, 0x57, 0x1D, 0x10, 0xE2, 0x30, 0x2E, 0x0E, 0x82, 0x25, 0x3C, 0x0F, 0xE2, 0x00, 0x40, 0x82, 0x23, 0x82, 0x31, 0x3F, 0x35, 0x92, 0x25, 0x2D, 0x81, 0x67, 0x82, 0x25, 0x1C, 0x09, 0x92, 0x1E, 0x51, 0x85, 0x0B, 0xB2, 0x01, 0x02, 0x16, 0xB2, 0x01, 0x4C, 0x05, 0xB2, 0x01, 0x4D, 0x14, 0xB2, 0x01, 0x2F, 0x07, 0xB2, 0x01, 0x28, 0x14, 0xB2, 0x01, 0x00, 
	0x81, 0x6B, 0x92, 0x20, 0x5B, 0x21, 0x82, 0x1E, 0x4E, 0x86, 0x50, 0xE2, 0x1B, 0x3D, 0x06, 0xE2, 0x2A, 0x35, 0x0F, 0xE2, 0x7E, 0x2C, 0x06, 0xE2, 0x23, 0x29, 0x07, 0xE2, 0x2C, 0x28, 0x0F, 0xE2, 0x71, 0x27, 0x05, 0xE2, 0x23, 0x29, 0x07, 0xE2, 0x55, 0x2A, 0x0F, 0xE2, 0x0B, 0x32, 0x03, 0x92, 0x22, 0x52, 0x02, 0xE2, 0x4A, 0x38, 0x09, 0x82, 0x20, 0x2A, 0x19, 0xE2, 0x00, 0x40, 0x8A, 0x7C, 
	0x92, 0x20, 0x4A, 0x1B, 0x82, 0x22, 0x2C, 0x83, 0x3C, 0x82, 0x20, 0x37, 0x09, 0x92, 0x1E, 0x5A, 0x85, 0x01, 0xB2, 0x01, 0x04, 0x05, 0xB2, 0x01, 0x0B, 0x1B, 0xB2, 0x01, 0x00, 0x82, 0x1F, 0x92, 0x20, 0x55, 0x15, 0x82, 0x1E, 0x45, 0x86, 0x22, 0xE2, 0x69, 0x3B, 0x07, 0xE2, 0x05, 0x39, 0x0F, 0xE2, 0x46, 0x32, 0x05, 0xE2, 0x39, 0x2D, 0x07, 0xE2, 0x35, 0x27, 0x0F, 0xE2, 0x40, 0x19, 0x05, 
	0xE2, 0x3D, 0x13, 0x07, 0xE2, 0x6B, 0x0E, 0x10, 0xE2, 0x35, 0x07, 0x05, 0xE2, 0x51, 0x04, 0x06, 0xE2, 0x28, 0x02, 0x0F, 0xE2, 0x00, 0x00, 0x22, 0x92, 0x25, 0x58, 0x26, 0xE2, 0x33, 0x14, 0x0A, 0xE2, 0x6D, 0x21, 0x07, 0xE2, 0x7A, 0x26, 0x05, 0xE2, 0x10, 0x2B, 0x1A, 0x82, 0x20, 0x24, 0x01, 0xE2, 0x1B, 0x3D, 0x0F, 0xE2, 0x00, 0x40, 0x8B, 0x74, 0xB2, 0x01, 0x08, 0x05, 0xB2, 0x01, 0x24, 
	0x07, 0xB2, 0x01, 0x40, 0x14, 0xB2, 0x01, 0x63, 0x07, 0xB2, 0x01, 0x6A, 0x14, 0xB2, 0x01, 0x6E, 0x07, 0xB2, 0x01, 0x71, 0x15, 0xB2, 0x01, 0x76, 0x06, 0xB2, 0x01, 0x77, 0x15, 0xB2, 0x01, 0x79, 0x1B, 0xB2, 0x01, 0x71, 0x07, 0xB2, 0x01, 0x6D, 0x14, 0xB2, 0x01, 0x59, 0x07, 0xB2, 0x01, 0x4D, 0x09, 0x82, 0x25, 0x51, 0x0B, 0xB2, 0x01, 0x00, 0x63, 0x92, 0x1E, 0x5A, 0x85, 0x01, 0xB2, 0x01, 
	0x04, 0x05, 0xB2, 0x01, 0x0B, 0x1B, 0xB2, 0x01, 0x00, 0x82, 0x1F, 0x92, 0x20, 0x55, 0x15, 0x82, 0x1E, 0x45, 0x86, 0x22, 0xE2, 0x69, 0x3B, 0x07, 0xE2, 0x05, 0x39, 0x0F, 0xE2, 0x46, 0x32, 0x05, 0xE2, 0x39, 0x2D, 0x07, 0xE2, 0x35, 0x27, 0x0F, 0xE2, 0x40, 0x19, 0x05, 0xE2, 0x3D, 0x13, 0x07, 0xE2, 0x6B, 0x0E, 0x10, 0xE2, 0x35, 0x07, 0x05, 0xE2, 0x51, 0x04, 0x06, 0xE2, 0x28, 0x02, 0x0F, 
	0xE2, 0x00, 0x00, 0x22, 0x92, 0x25, 0x58, 0x26, 0xE2, 0x33, 0x14, 0x0A, 0xE2, 0x6D, 0x21, 0x07, 0xE2, 0x7A, 0x26, 0x05, 0xE2, 0x10, 0x2B, 0x1A, 0x82, 0x20, 0x24, 0x01, 0xE2, 0x1B, 0x3D, 0x0F, 0xE2, 0x00, 0x40, 0x8B, 0x74, 0xB2, 0x01, 0x08, 0x05, 0xB2, 0x01, 0x24, 0x07, 0xB2, 0x01, 0x40, 0x14, 0xB2, 0x01, 0x63, 0x07, 0xB2, 0x01, 0x6A, 0x14, 0xB2, 0x01, 0x6E, 0x07, 0xB2, 0x01, 0x71, 
	0x15, 0xB2, 0x01, 0x76, 0x06, 0xB2, 0x01, 0x77, 0x15, 0xB2, 0x01, 0x79, 0x1B, 0xB2, 0x01, 0x71, 0x07, 0xB2, 0x01, 0x6D, 0x14, 0xB2, 0x01, 0x59, 0x07, 0xB2, 0x01, 0x4D, 0x09, 0x82, 0x25, 0x51, 0x0B, 0xB2, 0x01, 0x00, 0x00, 0xFF, 0x2F, 0x00, 0x4D, 0x54, 0x72, 0x6B, 0x00, 0x00, 0x04, 0x27, 0x00, 0xFF, 0x03, 0x04, 0x4D, 0x65, 0x6C, 0x6F, 0x81, 0x70, 0xB4, 0x79, 0x00, 0x0A, 0xB4, 0x00, 
	0x00, 0x0A, 0xC4, 0x58, 0x0A, 0xB4, 0x0B, 0x7F, 0x0A, 0xB4, 0x07, 0x50, 0x0A, 0xB4, 0x0A, 0x40, 0x0A, 0xB4, 0x5B, 0x78, 0x0A, 0xB4, 0x5D, 0x1E, 0x0A, 0xB4, 0x01, 0x00, 0x0A, 0xB4, 0x65, 0x00, 0x0A, 0xB4, 0x64, 0x00, 0x0A, 0xB4, 0x06, 0x02, 0x0A, 0xB4, 0x65, 0x7F, 0x0A, 0xB4, 0x64, 0x7F, 0x0A, 0xB4, 0x06, 0x00, 0x0A, 0xE4, 0x00, 0x40, 0xBC, 0x5A, 0x94, 0x55, 0x7B, 0x81, 0x00, 0x84, 
	0x55, 0x24, 0x84, 0x50, 0x94, 0x54, 0x7F, 0x6B, 0x84, 0x54, 0x2D, 0x84, 0x65, 0x94, 0x4B, 0x75, 0x81, 0x07, 0x84, 0x4B, 0x1F, 0x82, 0x59, 0x94, 0x4D, 0x7F, 0x81, 0x50, 0x84, 0x4D, 0x2F, 0x8D, 0x30, 0x94, 0x55, 0x7F, 0x65, 0x84, 0x55, 0x52, 0x84, 0x6B, 0x94, 0x54, 0x7F, 0x81, 0x00, 0x84, 0x54, 0x37, 0x84, 0x50, 0x94, 0x50, 0x7E, 0x40, 0x84, 0x50, 0x4E, 0x83, 0x20, 0x94, 0x57, 0x7F, 
	0x7C, 0x84, 0x57, 0x10, 0x82, 0x64, 0x94, 0x55, 0x7F, 0x69, 0x84, 0x55, 0x17, 0x82, 0x77, 0x94, 0x54, 0x7F, 0x47, 0x84, 0x54, 0x59, 0x83, 0x19, 0x94, 0x50, 0x7F, 0x39, 0x84, 0x50, 0x3B, 0x83, 0x27, 0x94, 0x4D, 0x7F, 0x43, 0x84, 0x4D, 0x51, 0x8C, 0x4D, 0x94, 0x4F, 0x7F, 0x72, 0x84, 0x4F, 0x45, 0x06, 0x94, 0x50, 0x7A, 0x4F, 0x84, 0x50, 0x3E, 0x29, 0x94, 0x4B, 0x7B, 0x81, 0x1E, 0x84, 
	0x4B, 0x32, 0x8B, 0x72, 0x94, 0x4F, 0x7E, 0x5E, 0x84, 0x4F, 0x3C, 0x1A, 0x94, 0x50, 0x75, 0x41, 0x84, 0x50, 0x37, 0x37, 0x94, 0x4D, 0x79, 0x81, 0x08, 0x84, 0x4D, 0x44, 0x8C, 0x08, 0x94, 0x4F, 0x75, 0x78, 0x94, 0x50, 0x75, 0x15, 0x84, 0x4F, 0x41, 0x56, 0x84, 0x50, 0x42, 0x0D, 0x94, 0x50, 0x7D, 0x81, 0x10, 0x84, 0x50, 0x3D, 0x82, 0x50, 0x94, 0x4F, 0x7F, 0x81, 0x11, 0x84, 0x4F, 0x3E, 
	0x82, 0x4F, 0x94, 0x4D, 0x7F, 0x81, 0x32, 0x84, 0x4D, 0x42, 0x82, 0x2E, 0x94, 0x4F, 0x7F, 0x7A, 0x84, 0x4F, 0x5D, 0x82, 0x66, 0x94, 0x55, 0x7B, 0x81, 0x00, 0x84, 0x55, 0x24, 0x84, 0x50, 0x94, 0x54, 0x7F, 0x6B, 0x84, 0x54, 0x2D, 0x84, 0x65, 0x94, 0x4B, 0x75, 0x81, 0x07, 0x84, 0x4B, 0x1F, 0x82, 0x59, 0x94, 0x4D, 0x7F, 0x81, 0x50, 0x84, 0x4D, 0x2F, 0x8D, 0x30, 0x94, 0x55, 0x7F, 0x65, 
	0x84, 0x55, 0x52, 0x84, 0x6B, 0x94, 0x54, 0x7F, 0x81, 0x00, 0x84, 0x54, 0x37, 0x84, 0x50, 0x94, 0x50, 0x7E, 0x40, 0x84, 0x50, 0x4E, 0x83, 0x20, 0x94, 0x57, 0x7F, 0x7C, 0x84, 0x57, 0x10, 0x82, 0x64, 0x94, 0x55, 0x7F, 0x69, 0x84, 0x55, 0x17, 0x82, 0x77, 0x94, 0x54, 0x7F, 0x47, 0x84, 0x54, 0x59, 0x83, 0x19, 0x94, 0x50, 0x7F, 0x39, 0x84, 0x50, 0x3B, 0x83, 0x27, 0x94, 0x4D, 0x7F, 0x43, 
	0x84, 0x4D, 0x51, 0x8C, 0x4D, 0x94, 0x4F, 0x7F, 0x72, 0x84, 0x4F, 0x45, 0x06, 0x94, 0x50, 0x7A, 0x4F, 0x84, 0x50, 0x3E, 0x29, 0x94, 0x4B, 0x7B, 0x81, 0x1E, 0x84, 0x4B, 0x32, 0x8B, 0x72, 0x94, 0x4F, 0x7E, 0x5E, 0x84, 0x4F, 0x3C, 0x1A, 0x94, 0x50, 0x75, 0x41, 0x84, 0x50, 0x37, 0x37, 0x94, 0x4D, 0x79, 0x81, 0x08, 0x84, 0x4D, 0x44, 0x8C, 0x08, 0x94, 0x4F, 0x75, 0x78, 0x94, 0x50, 0x75, 
	0x15, 0x84, 0x4F, 0x41, 0x56, 0x84, 0x50, 0x42, 0x0D, 0x94, 0x50, 0x7D, 0x81, 0x10, 0x84, 0x50, 0x3D, 0x82, 0x50, 0x94, 0x4F, 0x7F, 0x81, 0x11, 0x84, 0x4F, 0x3E, 0x82, 0x4F, 0x94, 0x4D, 0x7F, 0x81, 0x32, 0x84, 0x4D, 0x42, 0x82, 0x2E, 0x94, 0x4F, 0x7F, 0x7A, 0x84, 0x4F, 0x5D, 0x82, 0x66, 0x94, 0x55, 0x7F, 0x81, 0x2E, 0x84, 0x55, 0x39, 0x88, 0x02, 0x94, 0x54, 0x7F, 0x49, 0x84, 0x54, 
	0x43, 0x81, 0x27, 0x94, 0x52, 0x7F, 0x58, 0x84, 0x52, 0x38, 0x81, 0x18, 0x94, 0x50, 0x7F, 0x44, 0x84, 0x50, 0x55, 0x8C, 0x4C, 0x94, 0x52, 0x7F, 0x4A, 0x84, 0x52, 0x45, 0x81, 0x26, 0x94, 0x50, 0x7F, 0x63, 0x84, 0x50, 0x27, 0x81, 0xF1, 0x0D, 0x94, 0x55, 0x7B, 0x81, 0x00, 0x84, 0x55, 0x24, 0x84, 0x50, 0x94, 0x54, 0x7F, 0x6B, 0x84, 0x54, 0x2D, 0x84, 0x65, 0x94, 0x4B, 0x75, 0x81, 0x07, 
	0x84, 0x4B, 0x1F, 0x82, 0x59, 0x94, 0x4D, 0x7F, 0x81, 0x50, 0x84, 0x4D, 0x2F, 0x8D, 0x30, 0x94, 0x55, 0x7F, 0x65, 0x84, 0x55, 0x52, 0x84, 0x6B, 0x94, 0x54, 0x7F, 0x81, 0x00, 0x84, 0x54, 0x37, 0x84, 0x50, 0x94, 0x50, 0x7E, 0x40, 0x84, 0x50, 0x4E, 0x83, 0x20, 0x94, 0x57, 0x7F, 0x7C, 0x84, 0x57, 0x10, 0x82, 0x64, 0x94, 0x55, 0x7F, 0x69, 0x84, 0x55, 0x17, 0x82, 0x77, 0x94, 0x54, 0x7F, 
	0x47, 0x84, 0x54, 0x59, 0x83, 0x19, 0x94, 0x50, 0x7F, 0x39, 0x84, 0x50, 0x3B, 0x83, 0x27, 0x94, 0x4D, 0x7F, 0x43, 0x84, 0x4D, 0x51, 0x8C, 0x4D, 0x94, 0x4F, 0x7F, 0x72, 0x84, 0x4F, 0x45, 0x06, 0x94, 0x50, 0x7A, 0x4F, 0x84, 0x50, 0x3E, 0x29, 0x94, 0x4B, 0x7B, 0x81, 0x1E, 0x84, 0x4B, 0x32, 0x8B, 0x72, 0x94, 0x4F, 0x7E, 0x5E, 0x84, 0x4F, 0x3C, 0x1A, 0x94, 0x50, 0x75, 0x41, 0x84, 0x50, 
	0x37, 0x37, 0x94, 0x4D, 0x79, 0x81, 0x08, 0x84, 0x4D, 0x44, 0x8C, 0x08, 0x94, 0x4F, 0x75, 0x78, 0x94, 0x50, 0x75, 0x15, 0x84, 0x4F, 0x41, 0x56, 0x84, 0x50, 0x42, 0x0D, 0x94, 0x50, 0x7D, 0x81, 0x10, 0x84, 0x50, 0x3D, 0x82, 0x50, 0x94, 0x4F, 0x7F, 0x81, 0x11, 0x84, 0x4F, 0x3E, 0x82, 0x4F, 0x94, 0x4D, 0x7F, 0x81, 0x32, 0x84, 0x4D, 0x42, 0x82, 0x2E, 0x94, 0x4F, 0x7F, 0x7A, 0x84, 0x4F, 
	0x5D, 0x82, 0x66, 0x94, 0x55, 0x7B, 0x81, 0x00, 0x84, 0x55, 0x24, 0x84, 0x50, 0x94, 0x54, 0x7F, 0x6B, 0x84, 0x54, 0x2D, 0x84, 0x65, 0x94, 0x4B, 0x75, 0x81, 0x07, 0x84, 0x4B, 0x1F, 0x82, 0x59, 0x94, 0x4D, 0x7F, 0x81, 0x50, 0x84, 0x4D, 0x2F, 0x8D, 0x30, 0x94, 0x55, 0x7F, 0x65, 0x84, 0x55, 0x52, 0x84, 0x6B, 0x94, 0x54, 0x7F, 0x81, 0x00, 0x84, 0x54, 0x37, 0x84, 0x50, 0x94, 0x50, 0x7E, 
	0x40, 0x84, 0x50, 0x4E, 0x83, 0x20, 0x94, 0x57, 0x7F, 0x7C, 0x84, 0x57, 0x10, 0x82, 0x64, 0x94, 0x55, 0x7F, 0x69, 0x84, 0x55, 0x17, 0x82, 0x77, 0x94, 0x54, 0x7F, 0x47, 0x84, 0x54, 0x59, 0x83, 0x19, 0x94, 0x50, 0x7F, 0x39, 0x84, 0x50, 0x3B, 0x83, 0x27, 0x94, 0x4D, 0x7F, 0x43, 0x84, 0x4D, 0x51, 0x8C, 0x4D, 0x94, 0x4F, 0x7F, 0x72, 0x84, 0x4F, 0x45, 0x06, 0x94, 0x50, 0x7A, 0x4F, 0x84, 
	0x50, 0x3E, 0x29, 0x94, 0x4B, 0x7B, 0x81, 0x1E, 0x84, 0x4B, 0x32, 0x8B, 0x72, 0x94, 0x4F, 0x7E, 0x5E, 0x84, 0x4F, 0x3C, 0x1A, 0x94, 0x50, 0x75, 0x41, 0x84, 0x50, 0x37, 0x37, 0x94, 0x4D, 0x79, 0x81, 0x08, 0x84, 0x4D, 0x44, 0x8C, 0x08, 0x94, 0x4F, 0x75, 0x78, 0x94, 0x50, 0x75, 0x15, 0x84, 0x4F, 0x41, 0x56, 0x84, 0x50, 0x42, 0x0D, 0x94, 0x50, 0x7D, 0x81, 0x10, 0x84, 0x50, 0x3D, 0x82, 
	0x50, 0x94, 0x4F, 0x7F, 0x81, 0x11, 0x84, 0x4F, 0x3E, 0x82, 0x4F, 0x94, 0x4D, 0x7F, 0x81, 0x32, 0x84, 0x4D, 0x42, 0x82, 0x2E, 0x94, 0x4F, 0x7F, 0x7A, 0x84, 0x4F, 0x5D, 0x82, 0x66, 0x94, 0x55, 0x7F, 0x81, 0x2E, 0x84, 0x55, 0x39, 0x88, 0x02, 0x94, 0x54, 0x7F, 0x49, 0x84, 0x54, 0x43, 0x81, 0x27, 0x94, 0x52, 0x7F, 0x58, 0x84, 0x52, 0x38, 0x81, 0x18, 0x94, 0x50, 0x7F, 0x63, 0x84, 0x50, 
	0x27, 0x8C, 0x2D, 0x94, 0x52, 0x7F, 0x4A, 0x84, 0x52, 0x45, 0x81, 0x26, 0x94, 0x50, 0x7F, 0x44, 0x84, 0x50, 0x55, 0x00, 0xFF, 0x2F, 0x00, 0x4D, 0x54, 0x72, 0x6B, 0x00, 0x00, 0x04, 0x29, 0x00, 0xFF, 0x03, 0x06, 0x28, 0x6D, 0x65, 0x6C, 0x6F, 0x29, 0x81, 0x70, 0xBE, 0x79, 0x00, 0x0A, 0xBE, 0x00, 0x00, 0x0A, 0xCE, 0x00, 0x0A, 0xBE, 0x0B, 0x7F, 0x0A, 0xBE, 0x07, 0x38, 0x0A, 0xBE, 0x0A, 
	0x7F, 0x0A, 0xBE, 0x5B, 0x78, 0x0A, 0xBE, 0x5D, 0x28, 0x0A, 0xBE, 0x01, 0x00, 0x0A, 0xBE, 0x65, 0x00, 0x0A, 0xBE, 0x64, 0x00, 0x0A, 0xBE, 0x06, 0x02, 0x0A, 0xBE, 0x65, 0x7F, 0x0A, 0xBE, 0x64, 0x7F, 0x0A, 0xBE, 0x06, 0x00, 0x0A, 0xEE, 0x48, 0x41, 0xBC, 0x5A, 0x9E, 0x55, 0x7B, 0x81, 0x00, 0x8E, 0x55, 0x24, 0x84, 0x50, 0x9E, 0x54, 0x7F, 0x6B, 0x8E, 0x54, 0x2D, 0x84, 0x65, 0x9E, 0x4B, 
	0x75, 0x81, 0x07, 0x8E, 0x4B, 0x1F, 0x82, 0x59, 0x9E, 0x4D, 0x7F, 0x81, 0x50, 0x8E, 0x4D, 0x2F, 0x8D, 0x30, 0x9E, 0x55, 0x7F, 0x65, 0x8E, 0x55, 0x52, 0x84, 0x6B, 0x9E, 0x54, 0x7F, 0x81, 0x00, 0x8E, 0x54, 0x37, 0x84, 0x50, 0x9E, 0x50, 0x7E, 0x40, 0x8E, 0x50, 0x4E, 0x83, 0x20, 0x9E, 0x57, 0x7F, 0x7C, 0x8E, 0x57, 0x10, 0x82, 0x64, 0x9E, 0x55, 0x7F, 0x69, 0x8E, 0x55, 0x17, 0x82, 0x77, 
	0x9E, 0x54, 0x7F, 0x47, 0x8E, 0x54, 0x59, 0x83, 0x19, 0x9E, 0x50, 0x7F, 0x39, 0x8E, 0x50, 0x3B, 0x83, 0x27, 0x9E, 0x4D, 0x7F, 0x43, 0x8E, 0x4D, 0x51, 0x8C, 0x4D, 0x9E, 0x4F, 0x7F, 0x72, 0x8E, 0x4F, 0x45, 0x06, 0x9E, 0x50, 0x7A, 0x4F, 0x8E, 0x50, 0x3E, 0x29, 0x9E, 0x4B, 0x7B, 0x81, 0x1E, 0x8E, 0x4B, 0x32, 0x8B, 0x72, 0x9E, 0x4F, 0x7E, 0x5E, 0x8E, 0x4F, 0x3C, 0x1A, 0x9E, 0x50, 0x75, 
	0x41, 0x8E, 0x50, 0x37, 0x37, 0x9E, 0x4D, 0x79, 0x81, 0x08, 0x8E, 0x4D, 0x44, 0x8C, 0x08, 0x9E, 0x4F, 0x75, 0x78, 0x9E, 0x50, 0x75, 0x15, 0x8E, 0x4F, 0x41, 0x56, 0x8E, 0x50, 0x42, 0x0D, 0x9E, 0x50, 0x7D, 0x81, 0x10, 0x8E, 0x50, 0x3D, 0x82, 0x50, 0x9E, 0x4F, 0x7F, 0x81, 0x11, 0x8E, 0x4F, 0x3E, 0x82, 0x4F, 0x9E, 0x4D, 0x7F, 0x81, 0x32, 0x8E, 0x4D, 0x42, 0x82, 0x2E, 0x9E, 0x4F, 0x7F, 
	0x7A, 0x8E, 0x4F, 0x5D, 0x82, 0x66, 0x9E, 0x55, 0x7B, 0x81, 0x00, 0x8E, 0x55, 0x24, 0x84, 0x50, 0x9E, 0x54, 0x7F, 0x6B, 0x8E, 0x54, 0x2D, 0x84, 0x65, 0x9E, 0x4B, 0x75, 0x81, 0x07, 0x8E, 0x4B, 0x1F, 0x82, 0x59, 0x9E, 0x4D, 0x7F, 0x81, 0x50, 0x8E, 0x4D, 0x2F, 0x8D, 0x30, 0x9E, 0x55, 0x7F, 0x65, 0x8E, 0x55, 0x52, 0x84, 0x6B, 0x9E, 0x54, 0x7F, 0x81, 0x00, 0x8E, 0x54, 0x37, 0x84, 0x50, 
	0x9E, 0x50, 0x7E, 0x40, 0x8E, 0x50, 0x4E, 0x83, 0x20, 0x9E, 0x57, 0x7F, 0x7C, 0x8E, 0x57, 0x10, 0x82, 0x64, 0x9E, 0x55, 0x7F, 0x69, 0x8E, 0x55, 0x17, 0x82, 0x77, 0x9E, 0x54, 0x7F, 0x47, 0x8E, 0x54, 0x59, 0x83, 0x19, 0x9E, 0x50, 0x7F, 0x39, 0x8E, 0x50, 0x3B, 0x83, 0x27, 0x9E, 0x4D, 0x7F, 0x43, 0x8E, 0x4D, 0x51, 0x8C, 0x4D, 0x9E, 0x4F, 0x7F, 0x72, 0x8E, 0x4F, 0x45, 0x06, 0x9E, 0x50, 
	0x7A, 0x4F, 0x8E, 0x50, 0x3E, 0x29, 0x9E, 0x4B, 0x7B, 0x81, 0x1E, 0x8E, 0x4B, 0x32, 0x8B, 0x72, 0x9E, 0x4F, 0x7E, 0x5E, 0x8E, 0x4F, 0x3C, 0x1A, 0x9E, 0x50, 0x75, 0x41, 0x8E, 0x50, 0x37, 0x37, 0x9E, 0x4D, 0x79, 0x81, 0x08, 0x8E, 0x4D, 0x44, 0x8C, 0x08, 0x9E, 0x4F, 0x75, 0x78, 0x9E, 0x50, 0x75, 0x15, 0x8E, 0x4F, 0x41, 0x56, 0x8E, 0x50, 0x42, 0x0D, 0x9E, 0x50, 0x7D, 0x81, 0x10, 0x8E, 
	0x50, 0x3D, 0x82, 0x50, 0x9E, 0x4F, 0x7F, 0x81, 0x11, 0x8E, 0x4F, 0x3E, 0x82, 0x4F, 0x9E, 0x4D, 0x7F, 0x81, 0x32, 0x8E, 0x4D, 0x42, 0x82, 0x2E, 0x9E, 0x4F, 0x7F, 0x7A, 0x8E, 0x4F, 0x5D, 0x82, 0x66, 0x9E, 0x55, 0x7F, 0x81, 0x2E, 0x8E, 0x55, 0x39, 0x88, 0x02, 0x9E, 0x54, 0x7F, 0x49, 0x8E, 0x54, 0x43, 0x81, 0x27, 0x9E, 0x52, 0x7F, 0x58, 0x8E, 0x52, 0x38, 0x81, 0x18, 0x9E, 0x50, 0x7F, 
	0x44, 0x8E, 0x50, 0x55, 0x8C, 0x4C, 0x9E, 0x52, 0x7F, 0x4A, 0x8E, 0x52, 0x45, 0x81, 0x26, 0x9E, 0x50, 0x7F, 0x63, 0x8E, 0x50, 0x27, 0x81, 0xF1, 0x0D, 0x9E, 0x55, 0x7B, 0x81, 0x00, 0x8E, 0x55, 0x24, 0x84, 0x50, 0x9E, 0x54, 0x7F, 0x6B, 0x8E, 0x54, 0x2D, 0x84, 0x65, 0x9E, 0x4B, 0x75, 0x81, 0x07, 0x8E, 0x4B, 0x1F, 0x82, 0x59, 0x9E, 0x4D, 0x7F, 0x81, 0x50, 0x8E, 0x4D, 0x2F, 0x8D, 0x30, 
	0x9E, 0x55, 0x7F, 0x65, 0x8E, 0x55, 0x52, 0x84, 0x6B, 0x9E, 0x54, 0x7F, 0x81, 0x00, 0x8E, 0x54, 0x37, 0x84, 0x50, 0x9E, 0x50, 0x7E, 0x40, 0x8E, 0x50, 0x4E, 0x83, 0x20, 0x9E, 0x57, 0x7F, 0x7C, 0x8E, 0x57, 0x10, 0x82, 0x64, 0x9E, 0x55, 0x7F, 0x69, 0x8E, 0x55, 0x17, 0x82, 0x77, 0x9E, 0x54, 0x7F, 0x47, 0x8E, 0x54, 0x59, 0x83, 0x19, 0x9E, 0x50, 0x7F, 0x39, 0x8E, 0x50, 0x3B, 0x83, 0x27, 
	0x9E, 0x4D, 0x7F, 0x43, 0x8E, 0x4D, 0x51, 0x8C, 0x4D, 0x9E, 0x4F, 0x7F, 0x72, 0x8E, 0x4F, 0x45, 0x06, 0x9E, 0x50, 0x7A, 0x4F, 0x8E, 0x50, 0x3E, 0x29, 0x9E, 0x4B, 0x7B, 0x81, 0x1E, 0x8E, 0x4B, 0x32, 0x8B, 0x72, 0x9E, 0x4F, 0x7E, 0x5E, 0x8E, 0x4F, 0x3C, 0x1A, 0x9E, 0x50, 0x75, 0x41, 0x8E, 0x50, 0x37, 0x37, 0x9E, 0x4D, 0x79, 0x81, 0x08, 0x8E, 0x4D, 0x44, 0x8C, 0x08, 0x9E, 0x4F, 0x75, 
	0x78, 0x9E, 0x50, 0x75, 0x15, 0x8E, 0x4F, 0x41, 0x56, 0x8E, 0x50, 0x42, 0x0D, 0x9E, 0x50, 0x7D, 0x81, 0x10, 0x8E, 0x50, 0x3D, 0x82, 0x50, 0x9E, 0x4F, 0x7F, 0x81, 0x11, 0x8E, 0x4F, 0x3E, 0x82, 0x4F, 0x9E, 0x4D, 0x7F, 0x81, 0x32, 0x8E, 0x4D, 0x42, 0x82, 0x2E, 0x9E, 0x4F, 0x7F, 0x7A, 0x8E, 0x4F, 0x5D, 0x82, 0x66, 0x9E, 0x55, 0x7B, 0x81, 0x00, 0x8E, 0x55, 0x24, 0x84, 0x50, 0x9E, 0x54, 
	0x7F, 0x6B, 0x8E, 0x54, 0x2D, 0x84, 0x65, 0x9E, 0x4B, 0x75, 0x81, 0x07, 0x8E, 0x4B, 0x1F, 0x82, 0x59, 0x9E, 0x4D, 0x7F, 0x81, 0x50, 0x8E, 0x4D, 0x2F, 0x8D, 0x30, 0x9E, 0x55, 0x7F, 0x65, 0x8E, 0x55, 0x52, 0x84, 0x6B, 0x9E, 0x54, 0x7F, 0x81, 0x00, 0x8E, 0x54, 0x37, 0x84, 0x50, 0x9E, 0x50, 0x7E, 0x40, 0x8E, 0x50, 0x4E, 0x83, 0x20, 0x9E, 0x57, 0x7F, 0x7C, 0x8E, 0x57, 0x10, 0x82, 0x64, 
	0x9E, 0x55, 0x7F, 0x69, 0x8E, 0x55, 0x17, 0x82, 0x77, 0x9E, 0x54, 0x7F, 0x47, 0x8E, 0x54, 0x59, 0x83, 0x19, 0x9E, 0x50, 0x7F, 0x39, 0x8E, 0x50, 0x3B, 0x83, 0x27, 0x9E, 0x4D, 0x7F, 0x43, 0x8E, 0x4D, 0x51, 0x8C, 0x4D, 0x9E, 0x4F, 0x7F, 0x72, 0x8E, 0x4F, 0x45, 0x06, 0x9E, 0x50, 0x7A, 0x4F, 0x8E, 0x50, 0x3E, 0x29, 0x9E, 0x4B, 0x7B, 0x81, 0x1E, 0x8E, 0x4B, 0x32, 0x8B, 0x72, 0x9E, 0x4F, 
	0x7E, 0x5E, 0x8E, 0x4F, 0x3C, 0x1A, 0x9E, 0x50, 0x75, 0x41, 0x8E, 0x50, 0x37, 0x37, 0x9E, 0x4D, 0x79, 0x81, 0x08, 0x8E, 0x4D, 0x44, 0x8C, 0x08, 0x9E, 0x4F, 0x75, 0x78, 0x9E, 0x50, 0x75, 0x15, 0x8E, 0x4F, 0x41, 0x56, 0x8E, 0x50, 0x42, 0x0D, 0x9E, 0x50, 0x7D, 0x81, 0x10, 0x8E, 0x50, 0x3D, 0x82, 0x50, 0x9E, 0x4F, 0x7F, 0x81, 0x11, 0x8E, 0x4F, 0x3E, 0x82, 0x4F, 0x9E, 0x4D, 0x7F, 0x81, 
	0x32, 0x8E, 0x4D, 0x42, 0x82, 0x2E, 0x9E, 0x4F, 0x7F, 0x7A, 0x8E, 0x4F, 0x5D, 0x82, 0x66, 0x9E, 0x55, 0x7F, 0x81, 0x2E, 0x8E, 0x55, 0x39, 0x88, 0x02, 0x9E, 0x54, 0x7F, 0x49, 0x8E, 0x54, 0x43, 0x81, 0x27, 0x9E, 0x52, 0x7F, 0x58, 0x8E, 0x52, 0x38, 0x81, 0x18, 0x9E, 0x50, 0x7F, 0x63, 0x8E, 0x50, 0x27, 0x8C, 0x2D, 0x9E, 0x52, 0x7F, 0x4A, 0x8E, 0x52, 0x45, 0x81, 0x26, 0x9E, 0x50, 0x7F, 
	0x44, 0x8E, 0x50, 0x55, 0x00, 0xFF, 0x2F, 0x00, 0x4D, 0x54, 0x72, 0x6B, 0x00, 0x00, 0x08, 0x74, 0x00, 0xFF, 0x03, 0x03, 0x50, 0x41, 0x44, 0x81, 0x70, 0xB5, 0x79, 0x00, 0x0A, 0xB5, 0x00, 0x00, 0x0A, 0xC5, 0x34, 0x0A, 0xB5, 0x0B, 0x7F, 0x0A, 0xB5, 0x07, 0x40, 0x0A, 0xB5, 0x0A, 0x00, 0x0A, 0xB5, 0x5B, 0x78, 0x0A, 0xB5, 0x5D, 0x3C, 0x0A, 0xB5, 0x01, 0x00, 0x0A, 0xB5, 0x65, 0x00, 0x0A, 
	0xB5, 0x64, 0x00, 0x0A, 0xB5, 0x06, 0x02, 0x0A, 0xB5, 0x65, 0x7F, 0x0A, 0xB5, 0x64, 0x7F, 0x0A, 0xB5, 0x06, 0x00, 0x0A, 0xE5, 0x00, 0x40, 0xBC, 0x5A, 0x95, 0x3C, 0x43, 0x00, 0x95, 0x33, 0x43, 0x8F, 0x00, 0x85, 0x3C, 0x0A, 0x00, 0x85, 0x33, 0x2A, 0x00, 0x95, 0x3C, 0x43, 0x00, 0x95, 0x35, 0x43, 0x8F, 0x00, 0x85, 0x3C, 0x1D, 0x00, 0x85, 0x35, 0x37, 0x00, 0x95, 0x3C, 0x43, 0x00, 0x95, 
	0x33, 0x43, 0x8F, 0x00, 0x85, 0x3C, 0x28, 0x00, 0x85, 0x33, 0x1D, 0x00, 0x95, 0x3C, 0x43, 0x00, 0x95, 0x35, 0x43, 0x8F, 0x00, 0x85, 0x3C, 0x2D, 0x00, 0x85, 0x35, 0x15, 0x00, 0x95, 0x3D, 0x43, 0x00, 0x95, 0x35, 0x43, 0x8F, 0x00, 0x85, 0x35, 0x38, 0x00, 0x95, 0x3F, 0x43, 0x00, 0x95, 0x38, 0x43, 0x83, 0x60, 0x85, 0x3D, 0x47, 0x8B, 0x20, 0x85, 0x38, 0x13, 0x00, 0x85, 0x3F, 0x21, 0x00, 
	0x95, 0x41, 0x43, 0x00, 0x95, 0x38, 0x43, 0x8F, 0x00, 0x85, 0x41, 0x43, 0x00, 0x85, 0x38, 0x40, 0x00, 0x95, 0x43, 0x43, 0x00, 0x95, 0x3A, 0x43, 0x8F, 0x00, 0x85, 0x43, 0x2F, 0x00, 0x85, 0x3A, 0x1F, 0x00, 0x95, 0x3F, 0x43, 0x00, 0x95, 0x38, 0x43, 0x8F, 0x00, 0x85, 0x3F, 0x12, 0x00, 0x85, 0x38, 0x0C, 0x00, 0x95, 0x3D, 0x43, 0x00, 0x95, 0x35, 0x43, 0x8F, 0x00, 0x85, 0x3D, 0x3F, 0x00, 
	0x85, 0x35, 0x31, 0x00, 0x95, 0x3F, 0x43, 0x00, 0x95, 0x38, 0x43, 0x8F, 0x00, 0x85, 0x3F, 0x0D, 0x00, 0x85, 0x38, 0x0B, 0x00, 0x95, 0x3C, 0x43, 0x00, 0x95, 0x35, 0x43, 0x8F, 0x00, 0x85, 0x3C, 0x25, 0x00, 0x85, 0x35, 0x1D, 0x00, 0x95, 0x35, 0x43, 0x00, 0x95, 0x3D, 0x43, 0x8F, 0x00, 0x85, 0x35, 0x37, 0x00, 0x85, 0x3D, 0x37, 0x00, 0x95, 0x3F, 0x43, 0x00, 0x95, 0x38, 0x43, 0x8F, 0x00, 
	0x85, 0x3F, 0x2D, 0x00, 0x85, 0x38, 0x17, 0x00, 0x95, 0x41, 0x43, 0x00, 0x95, 0x38, 0x43, 0x8F, 0x00, 0x85, 0x41, 0x58, 0x00, 0x85, 0x38, 0x2E, 0x00, 0x95, 0x43, 0x43, 0x00, 0x95, 0x3A, 0x43, 0x8F, 0x00, 0x85, 0x43, 0x2D, 0x00, 0x85, 0x3A, 0x29, 0x00, 0x95, 0x3D, 0x43, 0x00, 0x95, 0x36, 0x43, 0x8F, 0x00, 0x85, 0x3D, 0x30, 0x00, 0x85, 0x36, 0x0E, 0x00, 0x95, 0x38, 0x43, 0x00, 0x95, 
	0x31, 0x43, 0x8F, 0x00, 0x85, 0x38, 0x3C, 0x00, 0x85, 0x31, 0x1A, 0x00, 0x95, 0x3C, 0x43, 0x00, 0x95, 0x33, 0x43, 0x9E, 0x00, 0x85, 0x3C, 0x34, 0x00, 0x85, 0x33, 0x26, 0x00, 0x95, 0x40, 0x43, 0x00, 0x95, 0x39, 0x43, 0x8F, 0x00, 0x85, 0x40, 0x2A, 0x00, 0x85, 0x39, 0x11, 0x00, 0x95, 0x3D, 0x43, 0x00, 0x95, 0x35, 0x43, 0x8F, 0x00, 0x85, 0x3D, 0x2D, 0x00, 0x85, 0x35, 0x29, 0x00, 0x95, 
	0x40, 0x43, 0x00, 0x95, 0x39, 0x43, 0x8F, 0x00, 0x85, 0x40, 0x15, 0x00, 0x85, 0x39, 0x19, 0x00, 0x95, 0x3D, 0x43, 0x00, 0x95, 0x35, 0x43, 0x8F, 0x00, 0x85, 0x3D, 0x2D, 0x00, 0x85, 0x35, 0x37, 0x00, 0x95, 0x44, 0x43, 0x00, 0x95, 0x3B, 0x43, 0x8F, 0x00, 0x85, 0x44, 0x21, 0x00, 0x85, 0x3B, 0x1C, 0x00, 0x95, 0x44, 0x43, 0x00, 0x95, 0x3D, 0x43, 0x8F, 0x00, 0x85, 0x44, 0x2A, 0x00, 0x85, 
	0x3D, 0x29, 0x00, 0x95, 0x45, 0x43, 0x00, 0x95, 0x3D, 0x43, 0x8F, 0x00, 0x85, 0x45, 0x28, 0x00, 0x85, 0x3D, 0x1D, 0x00, 0x95, 0x42, 0x43, 0x00, 0x95, 0x3B, 0x43, 0x8F, 0x00, 0x85, 0x42, 0x45, 0x00, 0x85, 0x3B, 0x13, 0x00, 0x95, 0x47, 0x43, 0x00, 0x95, 0x3F, 0x43, 0x8F, 0x00, 0x85, 0x47, 0x2A, 0x00, 0x85, 0x3F, 0x12, 0x00, 0x95, 0x44, 0x43, 0x00, 0x95, 0x3D, 0x43, 0x8F, 0x00, 0x85, 
	0x44, 0x19, 0x00, 0x85, 0x3D, 0x26, 0x00, 0x95, 0x3D, 0x43, 0x00, 0x95, 0x34, 0x43, 0x8F, 0x00, 0x85, 0x3D, 0x30, 0x00, 0x85, 0x34, 0x0D, 0x00, 0x95, 0x3F, 0x43, 0x00, 0x95, 0x36, 0x43, 0x8F, 0x00, 0x85, 0x3F, 0x1B, 0x00, 0x85, 0x36, 0x21, 0x00, 0x95, 0x3D, 0x43, 0x00, 0x95, 0x35, 0x43, 0x9E, 0x00, 0x85, 0x3D, 0x1F, 0x00, 0x85, 0x35, 0x32, 0x00, 0x95, 0x3C, 0x43, 0x00, 0x95, 0x33, 
	0x43, 0x8F, 0x00, 0x85, 0x3C, 0x0A, 0x00, 0x85, 0x33, 0x2A, 0x00, 0x95, 0x3C, 0x43, 0x00, 0x95, 0x35, 0x43, 0x8F, 0x00, 0x85, 0x3C, 0x1D, 0x00, 0x85, 0x35, 0x37, 0x00, 0x95, 0x3C, 0x43, 0x00, 0x95, 0x33, 0x43, 0x8F, 0x00, 0x85, 0x3C, 0x28, 0x00, 0x85, 0x33, 0x1D, 0x00, 0x95, 0x3C, 0x43, 0x00, 0x95, 0x35, 0x43, 0x8F, 0x00, 0x85, 0x3C, 0x2D, 0x00, 0x85, 0x35, 0x15, 0x00, 0x95, 0x3D, 
	0x43, 0x00, 0x95, 0x35, 0x43, 0x8F, 0x00, 0x85, 0x3D, 0x47, 0x00, 0x85, 0x35, 0x38, 0x00, 0x95, 0x3F, 0x43, 0x00, 0x95, 0x38, 0x43, 0x8F, 0x00, 0x85, 0x3F, 0x21, 0x00, 0x85, 0x38, 0x13, 0x00, 0x95, 0x41, 0x43, 0x00, 0x95, 0x38, 0x43, 0x8F, 0x00, 0x85, 0x41, 0x43, 0x00, 0x85, 0x38, 0x40, 0x00, 0x95, 0x43, 0x43, 0x00, 0x95, 0x3A, 0x43, 0x8F, 0x00, 0x85, 0x43, 0x2F, 0x00, 0x85, 0x3A, 
	0x1F, 0x00, 0x95, 0x3F, 0x43, 0x00, 0x95, 0x38, 0x43, 0x8F, 0x00, 0x85, 0x3F, 0x12, 0x00, 0x85, 0x38, 0x0C, 0x00, 0x95, 0x3D, 0x43, 0x00, 0x95, 0x35, 0x43, 0x8F, 0x00, 0x85, 0x3D, 0x3F, 0x00, 0x85, 0x35, 0x31, 0x00, 0x95, 0x3F, 0x43, 0x00, 0x95, 0x38, 0x43, 0x8F, 0x00, 0x85, 0x3F, 0x0D, 0x00, 0x85, 0x38, 0x0B, 0x00, 0x95, 0x3C, 0x43, 0x00, 0x95, 0x35, 0x43, 0x8F, 0x00, 0x85, 0x3C, 
	0x25, 0x00, 0x85, 0x35, 0x1D, 0x00, 0x95, 0x3D, 0x43, 0x00, 0x95, 0x35, 0x43, 0x8F, 0x00, 0x85, 0x3D, 0x37, 0x00, 0x85, 0x35, 0x37, 0x00, 0x95, 0x3F, 0x43, 0x00, 0x95, 0x38, 0x43, 0x8F, 0x00, 0x85, 0x3F, 0x2D, 0x00, 0x85, 0x38, 0x17, 0x00, 0x95, 0x41, 0x43, 0x00, 0x95, 0x38, 0x43, 0x8F, 0x00, 0x85, 0x41, 0x58, 0x00, 0x85, 0x38, 0x2E, 0x00, 0x95, 0x43, 0x43, 0x00, 0x95, 0x3A, 0x43, 
	0x8F, 0x00, 0x85, 0x43, 0x2D, 0x00, 0x85, 0x3A, 0x29, 0x00, 0x95, 0x3D, 0x43, 0x00, 0x95, 0x36, 0x43, 0x8F, 0x00, 0x85, 0x3D, 0x30, 0x00, 0x85, 0x36, 0x0E, 0x00, 0x95, 0x38, 0x43, 0x00, 0x95, 0x31, 0x43, 0x8F, 0x00, 0x85, 0x38, 0x3C, 0x00, 0x85, 0x31, 0x1A, 0x00, 0x95, 0x3C, 0x43, 0x00, 0x95, 0x33, 0x43, 0x9E, 0x00, 0x85, 0x3C, 0x34, 0x00, 0x85, 0x33, 0x26, 0x00, 0x95, 0x40, 0x43, 
	0x00, 0x95, 0x39, 0x43, 0x8F, 0x00, 0x85, 0x40, 0x2A, 0x00, 0x85, 0x39, 0x11, 0x00, 0x95, 0x3D, 0x43, 0x00, 0x95, 0x35, 0x43, 0x8F, 0x00, 0x85, 0x3D, 0x2D, 0x00, 0x85, 0x35, 0x29, 0x00, 0x95, 0x40, 0x43, 0x00, 0x95, 0x39, 0x43, 0x8F, 0x00, 0x85, 0x40, 0x15, 0x00, 0x85, 0x39, 0x19, 0x00, 0x95, 0x3D, 0x43, 0x00, 0x95, 0x35, 0x43, 0x8F, 0x00, 0x85, 0x3D, 0x2D, 0x00, 0x85, 0x35, 0x37, 
	0x00, 0x95, 0x44, 0x43, 0x00, 0x95, 0x3B, 0x43, 0x8F, 0x00, 0x85, 0x44, 0x21, 0x00, 0x85, 0x3B, 0x1C, 0x00, 0x95, 0x44, 0x43, 0x00, 0x95, 0x3D, 0x43, 0x8F, 0x00, 0x85, 0x44, 0x2A, 0x00, 0x85, 0x3D, 0x29, 0x00, 0x95, 0x45, 0x43, 0x00, 0x95, 0x3D, 0x43, 0x8F, 0x00, 0x85, 0x45, 0x28, 0x00, 0x85, 0x3D, 0x1D, 0x00, 0x95, 0x42, 0x43, 0x00, 0x95, 0x3B, 0x43, 0x8F, 0x00, 0x85, 0x42, 0x45, 
	0x00, 0x85, 0x3B, 0x13, 0x00, 0x95, 0x47, 0x43, 0x00, 0x95, 0x3F, 0x43, 0x8F, 0x00, 0x85, 0x47, 0x2A, 0x00, 0x85, 0x3F, 0x12, 0x00, 0x95, 0x44, 0x43, 0x00, 0x95, 0x3D, 0x43, 0x8F, 0x00, 0x85, 0x44, 0x19, 0x00, 0x85, 0x3D, 0x26, 0x00, 0x95, 0x3D, 0x43, 0x00, 0x95, 0x34, 0x43, 0x8F, 0x00, 0x85, 0x3D, 0x30, 0x00, 0x85, 0x34, 0x0D, 0x00, 0x95, 0x3F, 0x43, 0x00, 0x95, 0x36, 0x43, 0x8F, 
	0x00, 0x85, 0x3F, 0x1B, 0x00, 0x85, 0x36, 0x21, 0x00, 0x95, 0x3D, 0x43, 0x00, 0x95, 0x35, 0x43, 0x9E, 0x00, 0x85, 0x3D, 0x1F, 0x00, 0x85, 0x35, 0x32, 0x00, 0x95, 0x3D, 0x4B, 0x00, 0x95, 0x35, 0x4B, 0x83, 0x60, 0x85, 0x3D, 0x35, 0x00, 0x85, 0x35, 0x3D, 0x00, 0x95, 0x3C, 0x4B, 0x00, 0x95, 0x35, 0x4B, 0x83, 0x60, 0x85, 0x3C, 0x3E, 0x00, 0x85, 0x35, 0x39, 0x00, 0x95, 0x3A, 0x4B, 0x00, 
	0x95, 0x31, 0x4B, 0x87, 0x40, 0x85, 0x3A, 0x20, 0x00, 0x85, 0x31, 0x3A, 0x00, 0x95, 0x3A, 0x4B, 0x00, 0x95, 0x31, 0x4B, 0x83, 0x60, 0x85, 0x3A, 0x26, 0x00, 0x85, 0x31, 0x37, 0x00, 0x95, 0x38, 0x4B, 0x00, 0x95, 0x31, 0x4B, 0x83, 0x60, 0x85, 0x38, 0x1F, 0x00, 0x85, 0x31, 0x21, 0x00, 0x95, 0x36, 0x4B, 0x00, 0x95, 0x2E, 0x4B, 0x87, 0x40, 0x85, 0x36, 0x17, 0x00, 0x85, 0x2E, 0x21, 0x00, 
	0x95, 0x36, 0x4B, 0x00, 0x95, 0x2E, 0x4B, 0x83, 0x60, 0x85, 0x36, 0x31, 0x00, 0x85, 0x2E, 0x25, 0x00, 0x95, 0x35, 0x4B, 0x83, 0x60, 0x85, 0x35, 0x5D, 0x00, 0x95, 0x33, 0x4B, 0x00, 0x95, 0x2A, 0x4B, 0x87, 0x40, 0x85, 0x33, 0x29, 0x00, 0x85, 0x2A, 0x22, 0x00, 0x95, 0x33, 0x4B, 0x00, 0x95, 0x2C, 0x4B, 0x87, 0x40, 0x85, 0x2C, 0x0A, 0x00, 0x95, 0x38, 0x4B, 0x87, 0x40, 0x85, 0x33, 0x3D, 
	0x00, 0x85, 0x38, 0x35, 0x00, 0x95, 0x3D, 0x4B, 0x00, 0x95, 0x35, 0x4B, 0x83, 0x60, 0x85, 0x3D, 0x31, 0x00, 0x85, 0x35, 0x32, 0x00, 0x95, 0x3C, 0x4B, 0x00, 0x95, 0x35, 0x4B, 0x83, 0x60, 0x85, 0x3C, 0x34, 0x00, 0x85, 0x35, 0x1D, 0x00, 0x95, 0x3A, 0x4B, 0x00, 0x95, 0x31, 0x4B, 0x87, 0x40, 0x85, 0x3A, 0x26, 0x00, 0x85, 0x31, 0x29, 0x00, 0x95, 0x3A, 0x4B, 0x00, 0x95, 0x31, 0x4B, 0x83, 
	0x60, 0x85, 0x3A, 0x41, 0x00, 0x85, 0x31, 0x27, 0x00, 0x95, 0x38, 0x4B, 0x83, 0x60, 0x85, 0x38, 0x42, 0x00, 0x95, 0x36, 0x4B, 0x00, 0x95, 0x2E, 0x4B, 0x87, 0x40, 0x85, 0x36, 0x2D, 0x00, 0x85, 0x2E, 0x2E, 0x00, 0x95, 0x36, 0x4B, 0x00, 0x95, 0x2E, 0x4B, 0x83, 0x60, 0x85, 0x36, 0x34, 0x00, 0x85, 0x2E, 0x4E, 0x00, 0x95, 0x35, 0x4B, 0x83, 0x60, 0x85, 0x35, 0x58, 0x00, 0x95, 0x33, 0x4B, 
	0x83, 0x60, 0x85, 0x33, 0x27, 0x00, 0x95, 0x31, 0x4B, 0x83, 0x60, 0x85, 0x31, 0x3D, 0x00, 0x95, 0x3B, 0x4B, 0x00, 0x95, 0x34, 0x4B, 0x8F, 0x00, 0x85, 0x3B, 0x0A, 0x00, 0x85, 0x34, 0x28, 0x00, 0x95, 0x3A, 0x4B, 0x00, 0x95, 0x33, 0x4B, 0x8F, 0x00, 0x85, 0x3A, 0x25, 0x00, 0x85, 0x33, 0x10, 0x00, 0x95, 0x3A, 0x4B, 0x00, 0x95, 0x32, 0x4B, 0x00, 0x95, 0x29, 0x4B, 0x9A, 0x20, 0x85, 0x3A, 
	0x59, 0x00, 0x85, 0x29, 0x38, 0x00, 0x85, 0x32, 0x43, 0x83, 0x60, 0x95, 0x41, 0x4B, 0x00, 0x95, 0x3A, 0x4B, 0x87, 0x40, 0x85, 0x41, 0x2D, 0x00, 0x85, 0x3A, 0x38, 0x00, 0x95, 0x3F, 0x4B, 0x00, 0x95, 0x38, 0x4B, 0x87, 0x40, 0x85, 0x3F, 0x20, 0x00, 0x85, 0x38, 0x23, 0x00, 0x95, 0x3D, 0x4B, 0x00, 0x95, 0x35, 0x4B, 0x87, 0x40, 0x95, 0x3A, 0x4B, 0x87, 0x40, 0x85, 0x3D, 0x4E, 0x00, 0x85, 
	0x3A, 0x30, 0x00, 0x85, 0x35, 0x3A, 0x00, 0x95, 0x41, 0x4B, 0x00, 0x95, 0x3A, 0x4B, 0x87, 0x40, 0x85, 0x41, 0x1B, 0x00, 0x85, 0x3A, 0x2D, 0x00, 0x95, 0x3F, 0x4B, 0x00, 0x95, 0x38, 0x4B, 0x87, 0x40, 0x85, 0x3F, 0x2F, 0x00, 0x85, 0x38, 0x1D, 0x00, 0x95, 0x41, 0x4B, 0x00, 0x95, 0x38, 0x4B, 0x83, 0x60, 0x95, 0x3D, 0x4B, 0x83, 0x60, 0x85, 0x3D, 0x42, 0x00, 0x95, 0x3C, 0x4B, 0x83, 0x60, 
	0x85, 0x3C, 0x2B, 0x00, 0x95, 0x3A, 0x4B, 0x83, 0x60, 0x85, 0x41, 0x30, 0x00, 0x85, 0x3A, 0x55, 0x00, 0x85, 0x38, 0x1F, 0x00, 0x95, 0x41, 0x4B, 0x00, 0x95, 0x3A, 0x4B, 0x87, 0x40, 0x85, 0x41, 0x2D, 0x00, 0x85, 0x3A, 0x38, 0x00, 0x95, 0x3F, 0x4B, 0x00, 0x95, 0x38, 0x4B, 0x87, 0x40, 0x85, 0x3F, 0x20, 0x00, 0x85, 0x38, 0x23, 0x00, 0x95, 0x3D, 0x4B, 0x00, 0x95, 0x35, 0x4B, 0x87, 0x40, 
	0x95, 0x3A, 0x4B, 0x87, 0x40, 0x85, 0x3D, 0x4E, 0x00, 0x85, 0x3A, 0x30, 0x00, 0x85, 0x35, 0x3A, 0x00, 0x95, 0x41, 0x4B, 0x00, 0x95, 0x3A, 0x4B, 0x87, 0x40, 0x85, 0x41, 0x1B, 0x00, 0x85, 0x3A, 0x2D, 0x00, 0x95, 0x3F, 0x4B, 0x00, 0x95, 0x38, 0x4B, 0x87, 0x40, 0x85, 0x3F, 0x2F, 0x00, 0x85, 0x38, 0x1D, 0x00, 0x95, 0x41, 0x4B, 0x00, 0x95, 0x38, 0x4B, 0x83, 0x60, 0x95, 0x3D, 0x4B, 0x83, 
	0x60, 0x85, 0x3D, 0x42, 0x00, 0x95, 0x3C, 0x4B, 0x83, 0x60, 0x85, 0x3C, 0x2B, 0x00, 0x95, 0x3A, 0x4B, 0x83, 0x60, 0x85, 0x41, 0x30, 0x00, 0x85, 0x3A, 0x55, 0x00, 0x85, 0x38, 0x1F, 0x00, 0x95, 0x41, 0x4B, 0x00, 0x95, 0x3A, 0x4B, 0x87, 0x40, 0x85, 0x41, 0x2D, 0x00, 0x85, 0x3A, 0x38, 0x00, 0x95, 0x3F, 0x4B, 0x00, 0x95, 0x38, 0x4B, 0x87, 0x40, 0x85, 0x3F, 0x20, 0x00, 0x85, 0x38, 0x23, 
	0x00, 0x95, 0x3D, 0x4B, 0x00, 0x95, 0x35, 0x4B, 0x87, 0x40, 0x95, 0x3A, 0x4B, 0x87, 0x40, 0x85, 0x3D, 0x4E, 0x00, 0x85, 0x3A, 0x30, 0x00, 0x85, 0x35, 0x3A, 0x00, 0x95, 0x41, 0x4B, 0x00, 0x95, 0x3A, 0x4B, 0x87, 0x40, 0x85, 0x41, 0x1B, 0x00, 0x85, 0x3A, 0x2D, 0x00, 0x95, 0x3F, 0x4B, 0x00, 0x95, 0x38, 0x4B, 0x87, 0x40, 0x85, 0x3F, 0x2F, 0x00, 0x85, 0x38, 0x1D, 0x00, 0x95, 0x41, 0x4B, 
	0x00, 0x95, 0x38, 0x4B, 0x83, 0x60, 0x95, 0x3D, 0x4B, 0x83, 0x60, 0x85, 0x3D, 0x42, 0x00, 0x95, 0x3C, 0x4B, 0x83, 0x60, 0x85, 0x3C, 0x2B, 0x00, 0x95, 0x3A, 0x4B, 0x83, 0x60, 0x85, 0x41, 0x30, 0x00, 0x85, 0x3A, 0x55, 0x00, 0x85, 0x38, 0x1F, 0x00, 0x95, 0x41, 0x4B, 0x00, 0x95, 0x3A, 0x4B, 0x87, 0x40, 0x85, 0x41, 0x2D, 0x00, 0x85, 0x3A, 0x38, 0x00, 0x95, 0x3F, 0x4B, 0x00, 0x95, 0x38, 
	0x4B, 0x87, 0x40, 0x85, 0x3F, 0x20, 0x00, 0x85, 0x38, 0x23, 0x00, 0x95, 0x3D, 0x4B, 0x00, 0x95, 0x35, 0x4B, 0x87, 0x40, 0x95, 0x3A, 0x4B, 0x87, 0x40, 0x85, 0x3D, 0x4E, 0x00, 0x85, 0x3A, 0x30, 0x00, 0x85, 0x35, 0x3A, 0x00, 0x95, 0x41, 0x4B, 0x00, 0x95, 0x3A, 0x4B, 0x87, 0x40, 0x85, 0x41, 0x1B, 0x00, 0x85, 0x3A, 0x2D, 0x00, 0x95, 0x3F, 0x4B, 0x00, 0x95, 0x38, 0x4B, 0x87, 0x40, 0x85, 
	0x3F, 0x2F, 0x00, 0x85, 0x38, 0x1D, 0x00, 0x95, 0x41, 0x4B, 0x00, 0x95, 0x38, 0x4B, 0x83, 0x60, 0x95, 0x3D, 0x4B, 0x83, 0x60, 0x85, 0x3D, 0x42, 0x00, 0x95, 0x3C, 0x4B, 0x83, 0x60, 0x85, 0x3C, 0x2B, 0x00, 0x95, 0x3A, 0x4B, 0x83, 0x60, 0x85, 0x41, 0x30, 0x00, 0x85, 0x3A, 0x55, 0x00, 0x85, 0x38, 0x1F, 0x00, 0x95, 0x41, 0x4B, 0x00, 0x95, 0x3A, 0x4B, 0x87, 0x40, 0x85, 0x41, 0x1B, 0x00, 
	0x85, 0x3A, 0x2D, 0x00, 0x95, 0x3F, 0x4B, 0x00, 0x95, 0x38, 0x4B, 0x87, 0x40, 0x85, 0x3F, 0x2F, 0x00, 0x85, 0x38, 0x1D, 0x00, 0x95, 0x38, 0x4B, 0x00, 0x95, 0x41, 0x4B, 0x83, 0x60, 0x95, 0x3D, 0x4B, 0x83, 0x60, 0x85, 0x3D, 0x42, 0x00, 0x95, 0x3C, 0x4B, 0x83, 0x60, 0x85, 0x38, 0x1F, 0x00, 0x85, 0x3C, 0x2B, 0x00, 0x95, 0x3A, 0x4B, 0x83, 0x60, 0x85, 0x41, 0x30, 0x00, 0x85, 0x3A, 0x55, 
	0x00, 0xFF, 0x2F, 0x00, 0x4D, 0x54, 0x72, 0x6B, 0x00, 0x00, 0x04, 0xC1, 0x00, 0xFF, 0x03, 0x03, 0x50, 0x41, 0x44, 0x81, 0x70, 0xB6, 0x79, 0x00, 0x0A, 0xB6, 0x00, 0x00, 0x0A, 0xC6, 0x34, 0x0A, 0xB6, 0x0B, 0x7F, 0x0A, 0xB6, 0x07, 0x40, 0x0A, 0xB6, 0x0A, 0x7F, 0x0A, 0xB6, 0x5B, 0x78, 0x0A, 0xB6, 0x5D, 0x3C, 0x0A, 0xB6, 0x01, 0x00, 0x0A, 0xB6, 0x65, 0x00, 0x0A, 0xB6, 0x64, 0x00, 0x0A, 
	0xB6, 0x06, 0x02, 0x0A, 0xB6, 0x65, 0x7F, 0x0A, 0xB6, 0x64, 0x7F, 0x0A, 0xB6, 0x06, 0x00, 0x0A, 0xE6, 0x00, 0x40, 0xBC, 0x5A, 0x96, 0x38, 0x43, 0x8F, 0x00, 0x86, 0x38, 0x1C, 0x00, 0x96, 0x38, 0x43, 0x8F, 0x00, 0x86, 0x38, 0x30, 0x00, 0x96, 0x38, 0x43, 0x8F, 0x00, 0x86, 0x38, 0x2D, 0x00, 0x96, 0x38, 0x43, 0x8F, 0x00, 0x86, 0x38, 0x09, 0x00, 0x96, 0x3A, 0x43, 0x8F, 0x00, 0x86, 0x3A, 
	0x15, 0x00, 0x96, 0x3C, 0x43, 0x8F, 0x00, 0x86, 0x3C, 0x18, 0x00, 0x96, 0x3D, 0x43, 0x8F, 0x00, 0x86, 0x3D, 0x06, 0x00, 0x96, 0x3F, 0x43, 0x8F, 0x00, 0x86, 0x3F, 0x26, 0x00, 0x96, 0x3C, 0x43, 0x8F, 0x00, 0x86, 0x3C, 0x23, 0x00, 0x96, 0x38, 0x43, 0x8F, 0x00, 0x86, 0x38, 0x1D, 0x00, 0x96, 0x3C, 0x43, 0x8F, 0x00, 0x86, 0x3C, 0x0E, 0x00, 0x96, 0x38, 0x43, 0x8F, 0x00, 0x86, 0x38, 0x11, 
	0x00, 0x96, 0x3A, 0x43, 0x8F, 0x00, 0x86, 0x3A, 0x2B, 0x00, 0x96, 0x3C, 0x43, 0x8F, 0x00, 0x86, 0x3C, 0x1B, 0x00, 0x96, 0x3D, 0x43, 0x8F, 0x00, 0x86, 0x3D, 0x20, 0x00, 0x96, 0x3F, 0x43, 0x8F, 0x00, 0x86, 0x3F, 0x21, 0x00, 0x96, 0x3A, 0x43, 0x8F, 0x00, 0x86, 0x3A, 0x0C, 0x00, 0x96, 0x35, 0x43, 0x8F, 0x00, 0x86, 0x35, 0x20, 0x00, 0x96, 0x38, 0x43, 0x9E, 0x00, 0x86, 0x38, 0x0A, 0x00, 
	0x96, 0x3D, 0x43, 0x00, 0x96, 0x36, 0x43, 0x8F, 0x00, 0x86, 0x3D, 0x2D, 0x00, 0x86, 0x36, 0x10, 0x00, 0x96, 0x38, 0x43, 0x8F, 0x00, 0x86, 0x38, 0x1F, 0x00, 0x96, 0x3D, 0x43, 0x00, 0x96, 0x36, 0x43, 0x8F, 0x00, 0x86, 0x3D, 0x24, 0x00, 0x86, 0x36, 0x28, 0x00, 0x96, 0x38, 0x43, 0x8F, 0x00, 0x86, 0x38, 0x1D, 0x00, 0x96, 0x40, 0x43, 0x8F, 0x00, 0x86, 0x40, 0x12, 0x00, 0x96, 0x40, 0x43, 
	0x8F, 0x00, 0x86, 0x40, 0x09, 0x00, 0x96, 0x42, 0x43, 0x8F, 0x00, 0x86, 0x42, 0x59, 0x00, 0x96, 0x3F, 0x43, 0x8F, 0x00, 0x86, 0x3F, 0x0D, 0x00, 0x96, 0x44, 0x43, 0x8F, 0x00, 0x86, 0x44, 0x1A, 0x00, 0x96, 0x40, 0x43, 0x8F, 0x00, 0x86, 0x40, 0x4A, 0x00, 0x96, 0x39, 0x43, 0x8F, 0x00, 0x86, 0x39, 0x0F, 0x00, 0x96, 0x3B, 0x43, 0x8F, 0x00, 0x86, 0x3B, 0x21, 0x00, 0x96, 0x38, 0x43, 0x9E, 
	0x00, 0x86, 0x38, 0x24, 0x00, 0x96, 0x38, 0x43, 0x8F, 0x00, 0x86, 0x38, 0x1C, 0x00, 0x96, 0x38, 0x43, 0x8F, 0x00, 0x86, 0x38, 0x30, 0x00, 0x96, 0x38, 0x43, 0x8F, 0x00, 0x86, 0x38, 0x2D, 0x00, 0x96, 0x38, 0x43, 0x8F, 0x00, 0x86, 0x38, 0x09, 0x00, 0x96, 0x3A, 0x43, 0x8F, 0x00, 0x86, 0x3A, 0x15, 0x00, 0x96, 0x3C, 0x43, 0x8F, 0x00, 0x86, 0x3C, 0x18, 0x00, 0x96, 0x3D, 0x43, 0x8F, 0x00, 
	0x86, 0x3D, 0x06, 0x00, 0x96, 0x3F, 0x43, 0x8F, 0x00, 0x86, 0x3F, 0x26, 0x00, 0x96, 0x3C, 0x43, 0x8F, 0x00, 0x86, 0x3C, 0x23, 0x00, 0x96, 0x38, 0x43, 0x8F, 0x00, 0x86, 0x38, 0x1D, 0x00, 0x96, 0x3C, 0x43, 0x8F, 0x00, 0x86, 0x3C, 0x0E, 0x00, 0x96, 0x38, 0x43, 0x8F, 0x00, 0x86, 0x38, 0x11, 0x00, 0x96, 0x3A, 0x43, 0x8F, 0x00, 0x86, 0x3A, 0x2B, 0x00, 0x96, 0x3C, 0x43, 0x8F, 0x00, 0x86, 
	0x3C, 0x1B, 0x00, 0x96, 0x3D, 0x43, 0x8F, 0x00, 0x86, 0x3D, 0x20, 0x00, 0x96, 0x3F, 0x43, 0x8F, 0x00, 0x86, 0x3F, 0x21, 0x00, 0x96, 0x3A, 0x43, 0x8F, 0x00, 0x86, 0x3A, 0x0C, 0x00, 0x96, 0x35, 0x43, 0x8F, 0x00, 0x86, 0x35, 0x20, 0x00, 0x96, 0x38, 0x43, 0x9E, 0x00, 0x86, 0x38, 0x0A, 0x00, 0x96, 0x3D, 0x43, 0x00, 0x96, 0x36, 0x43, 0x8F, 0x00, 0x86, 0x3D, 0x2D, 0x00, 0x86, 0x36, 0x10, 
	0x00, 0x96, 0x38, 0x43, 0x8F, 0x00, 0x86, 0x38, 0x1F, 0x00, 0x96, 0x3D, 0x43, 0x00, 0x96, 0x36, 0x43, 0x8F, 0x00, 0x86, 0x3D, 0x24, 0x00, 0x86, 0x36, 0x28, 0x00, 0x96, 0x38, 0x43, 0x8F, 0x00, 0x86, 0x38, 0x1D, 0x00, 0x96, 0x40, 0x43, 0x8F, 0x00, 0x86, 0x40, 0x12, 0x00, 0x96, 0x40, 0x43, 0x8F, 0x00, 0x86, 0x40, 0x09, 0x00, 0x96, 0x42, 0x43, 0x8F, 0x00, 0x86, 0x42, 0x59, 0x00, 0x96, 
	0x3F, 0x43, 0x8F, 0x00, 0x86, 0x3F, 0x0D, 0x00, 0x96, 0x44, 0x43, 0x8F, 0x00, 0x86, 0x44, 0x1A, 0x00, 0x96, 0x40, 0x43, 0x8F, 0x00, 0x86, 0x40, 0x4A, 0x00, 0x96, 0x39, 0x43, 0x8F, 0x00, 0x86, 0x39, 0x0F, 0x00, 0x96, 0x3B, 0x43, 0x8F, 0x00, 0x86, 0x3B, 0x21, 0x00, 0x96, 0x38, 0x43, 0x9E, 0x00, 0x86, 0x38, 0x24, 0x00, 0x96, 0x3A, 0x4B, 0x83, 0x60, 0x86, 0x3A, 0x34, 0x00, 0x96, 0x38, 
	0x4B, 0x83, 0x60, 0x86, 0x38, 0x33, 0x00, 0x96, 0x36, 0x4B, 0x87, 0x40, 0x86, 0x36, 0x47, 0x00, 0x96, 0x36, 0x4B, 0x83, 0x60, 0x86, 0x36, 0x28, 0x00, 0x96, 0x35, 0x4B, 0x83, 0x60, 0x86, 0x35, 0x20, 0x00, 0x96, 0x33, 0x4B, 0x87, 0x40, 0x86, 0x33, 0x14, 0x00, 0x96, 0x33, 0x4B, 0x83, 0x60, 0x86, 0x33, 0x25, 0x83, 0x60, 0x96, 0x2F, 0x4B, 0x87, 0x40, 0x86, 0x2F, 0x49, 0x00, 0x96, 0x30, 
	0x4B, 0x8F, 0x00, 0x86, 0x30, 0x42, 0x00, 0x96, 0x3A, 0x4B, 0x83, 0x60, 0x86, 0x3A, 0x44, 0x00, 0x96, 0x38, 0x4B, 0x83, 0x60, 0x86, 0x38, 0x27, 0x00, 0x96, 0x36, 0x4B, 0x87, 0x40, 0x86, 0x36, 0x2B, 0x00, 0x96, 0x36, 0x4B, 0x83, 0x60, 0x86, 0x36, 0x34, 0x00, 0x96, 0x35, 0x4B, 0x83, 0x60, 0x86, 0x35, 0x34, 0x00, 0x96, 0x33, 0x4B, 0x87, 0x40, 0x86, 0x33, 0x28, 0x00, 0x96, 0x33, 0x4B, 
	0x83, 0x60, 0x86, 0x33, 0x1F, 0x00, 0x96, 0x31, 0x4B, 0x83, 0x60, 0x86, 0x31, 0x27, 0x00, 0x96, 0x2F, 0x4B, 0x83, 0x60, 0x86, 0x2F, 0x20, 0x00, 0x96, 0x2D, 0x4B, 0x83, 0x60, 0x86, 0x2D, 0x35, 0x00, 0x96, 0x38, 0x4B, 0x00, 0x96, 0x28, 0x4B, 0x8F, 0x00, 0x86, 0x38, 0x0D, 0x00, 0x86, 0x28, 0x3F, 0x00, 0x96, 0x37, 0x4B, 0x00, 0x96, 0x27, 0x4B, 0x8F, 0x00, 0x86, 0x37, 0x0A, 0x00, 0x86, 
	0x27, 0x37, 0x00, 0x96, 0x35, 0x4B, 0x00, 0x96, 0x2E, 0x4B, 0x9A, 0x20, 0x86, 0x35, 0x5C, 0x00, 0x86, 0x2E, 0x39, 0x83, 0x60, 0x96, 0x3D, 0x4B, 0x00, 0x96, 0x36, 0x4B, 0x87, 0x40, 0x86, 0x3D, 0x0F, 0x00, 0x86, 0x36, 0x33, 0x00, 0x96, 0x3C, 0x4B, 0x87, 0x40, 0x86, 0x3C, 0x20, 0x00, 0x96, 0x3C, 0x4B, 0x8F, 0x00, 0x86, 0x3C, 0x39, 0x00, 0x96, 0x3D, 0x4B, 0x87, 0x40, 0x86, 0x3D, 0x1B, 
	0x00, 0x96, 0x3C, 0x4B, 0x87, 0x40, 0x86, 0x3C, 0x25, 0x00, 0x96, 0x3F, 0x4B, 0x83, 0x60, 0x86, 0x3F, 0x37, 0x8B, 0x20, 0x96, 0x3D, 0x4B, 0x00, 0x96, 0x36, 0x4B, 0x87, 0x40, 0x86, 0x3D, 0x0F, 0x00, 0x86, 0x36, 0x33, 0x00, 0x96, 0x3C, 0x4B, 0x87, 0x40, 0x86, 0x3C, 0x20, 0x00, 0x96, 0x3C, 0x4B, 0x87, 0x40, 0x86, 0x3C, 0x39, 0x87, 0x40, 0x96, 0x3D, 0x4B, 0x87, 0x40, 0x86, 0x3D, 0x1B, 
	0x00, 0x96, 0x3C, 0x4B, 0x87, 0x40, 0x86, 0x3C, 0x25, 0x00, 0x96, 0x3F, 0x4B, 0x83, 0x60, 0x86, 0x3F, 0x37, 0x8B, 0x20, 0x96, 0x3D, 0x4B, 0x00, 0x96, 0x36, 0x4B, 0x87, 0x40, 0x86, 0x3D, 0x0F, 0x00, 0x86, 0x36, 0x33, 0x00, 0x96, 0x3C, 0x4B, 0x87, 0x40, 0x86, 0x3C, 0x20, 0x00, 0x96, 0x3C, 0x4B, 0x87, 0x40, 0x86, 0x3C, 0x39, 0x87, 0x40, 0x96, 0x3D, 0x4B, 0x87, 0x40, 0x86, 0x3D, 0x1B, 
	0x00, 0x96, 0x3C, 0x4B, 0x87, 0x40, 0x86, 0x3C, 0x25, 0x00, 0x96, 0x3F, 0x4B, 0x87, 0x40, 0x86, 0x3F, 0x37, 0x87, 0x40, 0x96, 0x3D, 0x4B, 0x00, 0x96, 0x36, 0x4B, 0x87, 0x40, 0x86, 0x3D, 0x0F, 0x00, 0x86, 0x36, 0x33, 0x00, 0x96, 0x3C, 0x4B, 0x87, 0x40, 0x86, 0x3C, 0x20, 0x00, 0x96, 0x3C, 0x4B, 0x87, 0x40, 0x86, 0x3C, 0x39, 0x87, 0x40, 0x96, 0x3D, 0x4B, 0x87, 0x40, 0x86, 0x3D, 0x1B, 
	0x00, 0x96, 0x3C, 0x4B, 0x87, 0x40, 0x86, 0x3C, 0x25, 0x00, 0x96, 0x3F, 0x4B, 0x83, 0x60, 0x86, 0x3F, 0x37, 0x8B, 0x20, 0x96, 0x3D, 0x4B, 0x87, 0x40, 0x86, 0x3D, 0x1B, 0x00, 0x96, 0x3C, 0x4B, 0x87, 0x40, 0x86, 0x3C, 0x25, 0x00, 0x96, 0x3F, 0x4B, 0x83, 0x60, 0x86, 0x3F, 0x37, 0x00, 0x96, 0x3D, 0x4B, 0x83, 0x60, 0x86, 0x3D, 0x42, 0x00, 0x96, 0x3C, 0x4B, 0x83, 0x60, 0x86, 0x3C, 0x2B, 
	0x00, 0x96, 0x3A, 0x4B, 0x83, 0x60, 0x86, 0x3A, 0x55, 0x00, 0xFF, 0x2F, 0x00, 0x4D, 0x54, 0x72, 0x6B, 0x00, 0x00, 0x1C, 0xCC, 0x00, 0xFF, 0x03, 0x00, 0x81, 0x70, 0xB9, 0x79, 0x00, 0x0A, 0xB9, 0x00, 0x00, 0x0A, 0xC9, 0x00, 0x0A, 0xB9, 0x0B, 0x7F, 0x0A, 0xB9, 0x07, 0x50, 0x0A, 0xB9, 0x0A, 0x40, 0x0A, 0xB9, 0x5B, 0x78, 0x0A, 0xB9, 0x5D, 0x0A, 0x0A, 0xB9, 0x01, 0x00, 0x0A, 0xB9, 0x65, 
	0x00, 0x0A, 0xB9, 0x64, 0x00, 0x0A, 0xB9, 0x06, 0x03, 0x0A, 0xB9, 0x65, 0x7F, 0x0A, 0xB9, 0x64, 0x7F, 0x0A, 0xB9, 0x06, 0x00, 0x0A, 0xE9, 0x40, 0x7E, 0x84, 0xBA, 0x4B, 0x99, 0x45, 0x39, 0x78, 0x99, 0x52, 0x36, 0x1E, 0x89, 0x45, 0x27, 0x5A, 0x99, 0x45, 0x39, 0x1E, 0x89, 0x52, 0x2B, 0x5A, 0x99, 0x52, 0x36, 0x1E, 0x89, 0x45, 0x46, 0x5A, 0x99, 0x45, 0x39, 0x1E, 0x89, 0x52, 0x34, 0x5A, 
	0x99, 0x52, 0x36, 0x1E, 0x89, 0x45, 0x40, 0x5A, 0x99, 0x45, 0x39, 0x1E, 0x89, 0x52, 0x24, 0x5A, 0x99, 0x52, 0x36, 0x1E, 0x89, 0x45, 0x38, 0x5A, 0x99, 0x45, 0x39, 0x1E, 0x89, 0x52, 0x20, 0x5A, 0x99, 0x52, 0x36, 0x1E, 0x89, 0x45, 0x33, 0x5A, 0x99, 0x45, 0x39, 0x1E, 0x89, 0x52, 0x3B, 0x5A, 0x99, 0x52, 0x36, 0x1E, 0x89, 0x45, 0x3F, 0x5A, 0x99, 0x45, 0x39, 0x1E, 0x89, 0x52, 0x36, 0x5A, 
	0x99, 0x52, 0x36, 0x1E, 0x89, 0x45, 0x3E, 0x5A, 0x99, 0x45, 0x39, 0x1E, 0x89, 0x52, 0x37, 0x5A, 0x99, 0x52, 0x36, 0x1E, 0x89, 0x45, 0x3D, 0x5A, 0x99, 0x45, 0x39, 0x1E, 0x89, 0x52, 0x38, 0x5A, 0x99, 0x52, 0x36, 0x1E, 0x89, 0x45, 0x27, 0x5A, 0x99, 0x45, 0x39, 0x1E, 0x89, 0x52, 0x2B, 0x5A, 0x99, 0x52, 0x36, 0x1E, 0x89, 0x45, 0x46, 0x5A, 0x99, 0x45, 0x39, 0x1E, 0x89, 0x52, 0x34, 0x5A, 
	0x99, 0x52, 0x36, 0x1E, 0x89, 0x45, 0x40, 0x5A, 0x99, 0x45, 0x39, 0x1E, 0x89, 0x52, 0x24, 0x5A, 0x99, 0x52, 0x36, 0x1E, 0x89, 0x45, 0x38, 0x5A, 0x99, 0x45, 0x39, 0x1E, 0x89, 0x52, 0x20, 0x5A, 0x99, 0x52, 0x36, 0x1E, 0x89, 0x45, 0x33, 0x5A, 0x99, 0x45, 0x39, 0x1E, 0x89, 0x52, 0x3B, 0x5A, 0x99, 0x52, 0x36, 0x1E, 0x89, 0x45, 0x3F, 0x5A, 0x99, 0x45, 0x39, 0x1E, 0x89, 0x52, 0x36, 0x5A, 
	0x99, 0x52, 0x36, 0x1E, 0x89, 0x45, 0x3E, 0x5A, 0x99, 0x45, 0x39, 0x1E, 0x89, 0x52, 0x37, 0x5A, 0x99, 0x52, 0x36, 0x1E, 0x89, 0x45, 0x3D, 0x5A, 0x99, 0x45, 0x39, 0x1E, 0x89, 0x52, 0x38, 0x5A, 0x99, 0x52, 0x36, 0x1E, 0x89, 0x45, 0x27, 0x5A, 0x99, 0x45, 0x39, 0x1E, 0x89, 0x52, 0x2B, 0x5A, 0x99, 0x52, 0x36, 0x1E, 0x89, 0x45, 0x46, 0x5A, 0x99, 0x45, 0x39, 0x1E, 0x89, 0x52, 0x34, 0x5A, 
	0x99, 0x52, 0x36, 0x1E, 0x89, 0x45, 0x40, 0x5A, 0x99, 0x45, 0x39, 0x1E, 0x89, 0x52, 0x24, 0x5A, 0x99, 0x52, 0x36, 0x1E, 0x89, 0x45, 0x38, 0x5A, 0x99, 0x45, 0x39, 0x1E, 0x89, 0x52, 0x20, 0x5A, 0x99, 0x52, 0x36, 0x1E, 0x89, 0x45, 0x33, 0x5A, 0x99, 0x45, 0x39, 0x1E, 0x89, 0x52, 0x3B, 0x5A, 0x99, 0x52, 0x36, 0x1E, 0x89, 0x45, 0x3F, 0x5A, 0x99, 0x45, 0x39, 0x1E, 0x89, 0x52, 0x36, 0x5A, 
	0x99, 0x52, 0x36, 0x1E, 0x89, 0x45, 0x3E, 0x5A, 0x99, 0x45, 0x39, 0x1E, 0x89, 0x52, 0x37, 0x5A, 0x99, 0x52, 0x36, 0x1E, 0x89, 0x45, 0x3D, 0x5A, 0x99, 0x45, 0x39, 0x1E, 0x89, 0x52, 0x38, 0x5A, 0x99, 0x52, 0x36, 0x1E, 0x89, 0x45, 0x27, 0x5A, 0x99, 0x45, 0x39, 0x1E, 0x89, 0x52, 0x2B, 0x5A, 0x99, 0x52, 0x36, 0x1E, 0x89, 0x45, 0x46, 0x5A, 0x99, 0x45, 0x39, 0x1E, 0x89, 0x52, 0x34, 0x5A, 
	0x99, 0x52, 0x36, 0x1E, 0x89, 0x45, 0x40, 0x5A, 0x99, 0x45, 0x39, 0x1E, 0x89, 0x52, 0x24, 0x5A, 0x99, 0x52, 0x36, 0x1E, 0x89, 0x45, 0x38, 0x5A, 0x99, 0x45, 0x39, 0x1E, 0x89, 0x52, 0x20, 0x5A, 0x99, 0x52, 0x36, 0x1E, 0x89, 0x45, 0x33, 0x5A, 0x99, 0x45, 0x39, 0x1E, 0x89, 0x52, 0x3B, 0x5A, 0x99, 0x52, 0x36, 0x1E, 0x89, 0x45, 0x3F, 0x5A, 0x99, 0x45, 0x39, 0x1E, 0x89, 0x52, 0x36, 0x5A, 
	0x99, 0x52, 0x36, 0x1E, 0x89, 0x45, 0x3E, 0x5A, 0x99, 0x45, 0x39, 0x1E, 0x89, 0x52, 0x37, 0x5A, 0x99, 0x52, 0x36, 0x1E, 0x89, 0x45, 0x3D, 0x5A, 0x99, 0x45, 0x39, 0x1E, 0x89, 0x52, 0x38, 0x5A, 0x99, 0x52, 0x36, 0x1E, 0x89, 0x45, 0x27, 0x5A, 0x99, 0x45, 0x39, 0x1E, 0x89, 0x52, 0x2B, 0x5A, 0x99, 0x52, 0x36, 0x1E, 0x89, 0x45, 0x46, 0x5A, 0x99, 0x45, 0x39, 0x1E, 0x89, 0x52, 0x34, 0x5A, 
	0x99, 0x52, 0x36, 0x1E, 0x89, 0x45, 0x40, 0x5A, 0x99, 0x45, 0x39, 0x1E, 0x89, 0x52, 0x24, 0x5A, 0x99, 0x52, 0x36, 0x1E, 0x89, 0x45, 0x38, 0x5A, 0x99, 0x45, 0x39, 0x1E, 0x89, 0x52, 0x20, 0x5A, 0x99, 0x52, 0x36, 0x1E, 0x89, 0x45, 0x33, 0x5A, 0x99, 0x45, 0x39, 0x1E, 0x89, 0x52, 0x3B, 0x5A, 0x99, 0x52, 0x36, 0x1E, 0x89, 0x45, 0x3F, 0x5A, 0x99, 0x45, 0x39, 0x1E, 0x89, 0x52, 0x36, 0x5A, 
	0x99, 0x52, 0x36, 0x1E, 0x89, 0x45, 0x3E, 0x5A, 0x99, 0x45, 0x39, 0x1E, 0x89, 0x52, 0x37, 0x5A, 0x99, 0x52, 0x36, 0x1E, 0x89, 0x45, 0x3D, 0x5A, 0x99, 0x45, 0x39, 0x1E, 0x89, 0x52, 0x38, 0x5A, 0x99, 0x52, 0x36, 0x1E, 0x89, 0x45, 0x27, 0x5A, 0x99, 0x45, 0x39, 0x1E, 0x89, 0x52, 0x2B, 0x5A, 0x99, 0x52, 0x36, 0x1E, 0x89, 0x45, 0x46, 0x5A, 0x99, 0x45, 0x39, 0x1E, 0x89, 0x52, 0x34, 0x5A, 
	0x99, 0x52, 0x36, 0x1E, 0x89, 0x45, 0x40, 0x5A, 0x99, 0x45, 0x39, 0x1E, 0x89, 0x52, 0x24, 0x5A, 0x99, 0x52, 0x36, 0x1E, 0x89, 0x45, 0x38, 0x5A, 0x99, 0x45, 0x39, 0x1E, 0x89, 0x52, 0x20, 0x5A, 0x99, 0x52, 0x36, 0x1E, 0x89, 0x45, 0x33, 0x5A, 0x99, 0x45, 0x39, 0x1E, 0x89, 0x52, 0x3B, 0x5A, 0x99, 0x52, 0x36, 0x1E, 0x89, 0x45, 0x3F, 0x5A, 0x99, 0x45, 0x39, 0x1E, 0x89, 0x52, 0x36, 0x5A, 
	0x99, 0x52, 0x36, 0x1E, 0x89, 0x45, 0x3E, 0x5A, 0x99, 0x45, 0x39, 0x1E, 0x89, 0x52, 0x37, 0x5A, 0x99, 0x52, 0x36, 0x1E, 0x89, 0x45, 0x3D, 0x5A, 0x99, 0x45, 0x39, 0x1E, 0x89, 0x52, 0x38, 0x5A, 0x99, 0x52, 0x36, 0x1E, 0x89, 0x45, 0x27, 0x5A, 0x99, 0x45, 0x39, 0x1E, 0x89, 0x52, 0x2B, 0x5A, 0x99, 0x52, 0x36, 0x1E, 0x89, 0x45, 0x46, 0x5A, 0x99, 0x45, 0x39, 0x1E, 0x89, 0x52, 0x34, 0x5A, 
	0x99, 0x52, 0x36, 0x1E, 0x89, 0x45, 0x40, 0x5A, 0x99, 0x45, 0x39, 0x1E, 0x89, 0x52, 0x24, 0x5A, 0x99, 0x52, 0x36, 0x1E, 0x89, 0x45, 0x38, 0x5A, 0x99, 0x45, 0x39, 0x1E, 0x89, 0x52, 0x20, 0x5A, 0x99, 0x52, 0x36, 0x1E, 0x89, 0x45, 0x33, 0x5A, 0x99, 0x45, 0x39, 0x1E, 0x89, 0x52, 0x3B, 0x5A, 0x99, 0x52, 0x36, 0x1E, 0x89, 0x45, 0x3F, 0x5A, 0x99, 0x45, 0x39, 0x1E, 0x89, 0x52, 0x36, 0x5A, 
	0x99, 0x52, 0x36, 0x1E, 0x89, 0x45, 0x3E, 0x5A, 0x99, 0x45, 0x39, 0x1E, 0x89, 0x52, 0x37, 0x5A, 0x99, 0x52, 0x36, 0x1E, 0x89, 0x45, 0x3D, 0x5A, 0x99, 0x45, 0x39, 0x1E, 0x89, 0x52, 0x38, 0x5A, 0x99, 0x52, 0x36, 0x1E, 0x89, 0x45, 0x27, 0x5A, 0x99, 0x45, 0x39, 0x1E, 0x89, 0x52, 0x2B, 0x5A, 0x99, 0x52, 0x36, 0x1E, 0x89, 0x45, 0x46, 0x5A, 0x99, 0x45, 0x39, 0x1E, 0x89, 0x52, 0x34, 0x5A, 
	0x99, 0x52, 0x36, 0x1E, 0x89, 0x45, 0x40, 0x5A, 0x99, 0x45, 0x39, 0x1E, 0x89, 0x52, 0x24, 0x5A, 0x99, 0x52, 0x36, 0x1E, 0x89, 0x45, 0x38, 0x5A, 0x99, 0x45, 0x39, 0x1E, 0x89, 0x52, 0x20, 0x5A, 0x99, 0x52, 0x36, 0x1E, 0x89, 0x45, 0x33, 0x5A, 0x99, 0x45, 0x39, 0x1E, 0x89, 0x52, 0x3B, 0x5A, 0x99, 0x52, 0x36, 0x1E, 0x89, 0x45, 0x3F, 0x5A, 0x99, 0x45, 0x39, 0x1E, 0x89, 0x52, 0x36, 0x5A, 
	0x99, 0x52, 0x36, 0x1E, 0x89, 0x45, 0x3E, 0x5A, 0x99, 0x45, 0x39, 0x1E, 0x89, 0x52, 0x37, 0x5A, 0x99, 0x52, 0x36, 0x1E, 0x89, 0x45, 0x3D, 0x5A, 0x99, 0x45, 0x39, 0x1E, 0x89, 0x52, 0x38, 0x5A, 0x99, 0x52, 0x36, 0x1E, 0x89, 0x45, 0x27, 0x5A, 0x99, 0x45, 0x39, 0x1E, 0x89, 0x52, 0x2B, 0x5A, 0x99, 0x52, 0x36, 0x1E, 0x89, 0x45, 0x46, 0x5A, 0x99, 0x45, 0x39, 0x1E, 0x89, 0x52, 0x34, 0x5A, 
	0x99, 0x52, 0x36, 0x1E, 0x89, 0x45, 0x40, 0x5A, 0x99, 0x45, 0x39, 0x1E, 0x89, 0x52, 0x24, 0x5A, 0x99, 0x52, 0x36, 0x1E, 0x89, 0x45, 0x38, 0x5A, 0x99, 0x45, 0x39, 0x1E, 0x89, 0x52, 0x20, 0x5A, 0x99, 0x52, 0x36, 0x1E, 0x89, 0x45, 0x33, 0x5A, 0x99, 0x45, 0x39, 0x1E, 0x89, 0x52, 0x3B, 0x5A, 0x99, 0x52, 0x36, 0x1E, 0x89, 0x45, 0x3F, 0x5A, 0x99, 0x45, 0x39, 0x1E, 0x89, 0x52, 0x36, 0x5A, 
	0x99, 0x52, 0x36, 0x1E, 0x89, 0x45, 0x3E, 0x5A, 0x99, 0x45, 0x39, 0x1E, 0x89, 0x52, 0x37, 0x5A, 0x99, 0x52, 0x36, 0x1E, 0x89, 0x45, 0x3D, 0x5A, 0x99, 0x45, 0x39, 0x1E, 0x89, 0x52, 0x38, 0x5A, 0x99, 0x52, 0x36, 0x1E, 0x89, 0x45, 0x27, 0x5A, 0x99, 0x45, 0x39, 0x1E, 0x89, 0x52, 0x2B, 0x5A, 0x99, 0x52, 0x36, 0x1E, 0x89, 0x45, 0x46, 0x5A, 0x99, 0x45, 0x39, 0x1E, 0x89, 0x52, 0x34, 0x5A, 
	0x99, 0x52, 0x36, 0x1E, 0x89, 0x45, 0x40, 0x5A, 0x99, 0x45, 0x39, 0x1E, 0x89, 0x52, 0x24, 0x5A, 0x99, 0x52, 0x36, 0x1E, 0x89, 0x45, 0x38, 0x5A, 0x99, 0x45, 0x39, 0x1E, 0x89, 0x52, 0x20, 0x5A, 0x99, 0x52, 0x36, 0x1E, 0x89, 0x45, 0x33, 0x5A, 0x99, 0x45, 0x39, 0x1E, 0x89, 0x52, 0x3B, 0x5A, 0x99, 0x52, 0x36, 0x1E, 0x89, 0x45, 0x3F, 0x5A, 0x99, 0x45, 0x39, 0x1E, 0x89, 0x52, 0x36, 0x5A, 
	0x99, 0x52, 0x36, 0x1E, 0x89, 0x45, 0x3E, 0x5A, 0x99, 0x45, 0x39, 0x1E, 0x89, 0x52, 0x37, 0x5A, 0x99, 0x52, 0x36, 0x1E, 0x89, 0x45, 0x3D, 0x5A, 0x99, 0x45, 0x39, 0x1E, 0x89, 0x52, 0x38, 0x5A, 0x99, 0x52, 0x36, 0x1E, 0x89, 0x45, 0x27, 0x5A, 0x99, 0x45, 0x39, 0x1E, 0x89, 0x52, 0x2B, 0x5A, 0x99, 0x52, 0x36, 0x1E, 0x89, 0x45, 0x46, 0x5A, 0x99, 0x45, 0x39, 0x1E, 0x89, 0x52, 0x34, 0x5A, 
	0x99, 0x52, 0x36, 0x1E, 0x89, 0x45, 0x40, 0x5A, 0x99, 0x45, 0x39, 0x1E, 0x89, 0x52, 0x24, 0x5A, 0x99, 0x52, 0x36, 0x1E, 0x89, 0x45, 0x38, 0x5A, 0x99, 0x45, 0x39, 0x1E, 0x89, 0x52, 0x20, 0x5A, 0x99, 0x52, 0x36, 0x1E, 0x89, 0x45, 0x33, 0x5A, 0x99, 0x45, 0x39, 0x1E, 0x89, 0x52, 0x3B, 0x5A, 0x99, 0x52, 0x36, 0x1E, 0x89, 0x45, 0x3F, 0x5A, 0x99, 0x45, 0x39, 0x1E, 0x89, 0x52, 0x36, 0x5A, 
	0x99, 0x52, 0x36, 0x1E, 0x89, 0x45, 0x3E, 0x5A, 0x99, 0x45, 0x39, 0x1E, 0x89, 0x52, 0x37, 0x5A, 0x99, 0x52, 0x36, 0x1E, 0x89, 0x45, 0x3D, 0x5A, 0x99, 0x45, 0x39, 0x1E, 0x89, 0x52, 0x38, 0x5A, 0x99, 0x52, 0x36, 0x1E, 0x89, 0x45, 0x27, 0x5A, 0x99, 0x45, 0x39, 0x1E, 0x89, 0x52, 0x2B, 0x5A, 0x99, 0x52, 0x36, 0x1E, 0x89, 0x45, 0x46, 0x5A, 0x99, 0x45, 0x39, 0x1E, 0x89, 0x52, 0x34, 0x5A, 
	0x99, 0x52, 0x36, 0x1E, 0x89, 0x45, 0x40, 0x5A, 0x99, 0x45, 0x39, 0x1E, 0x89, 0x52, 0x24, 0x5A, 0x99, 0x52, 0x36, 0x1E, 0x89, 0x45, 0x38, 0x5A, 0x99, 0x45, 0x39, 0x1E, 0x89, 0x52, 0x20, 0x5A, 0x99, 0x52, 0x36, 0x1E, 0x89, 0x45, 0x33, 0x5A, 0x99, 0x45, 0x39, 0x1E, 0x89, 0x52, 0x3B, 0x5A, 0x99, 0x52, 0x36, 0x1E, 0x89, 0x45, 0x3F, 0x5A, 0x99, 0x45, 0x39, 0x1E, 0x89, 0x52, 0x36, 0x5A, 
	0x99, 0x52, 0x36, 0x1E, 0x89, 0x45, 0x3E, 0x5A, 0x99, 0x45, 0x39, 0x1E, 0x89, 0x52, 0x37, 0x5A, 0x99, 0x52, 0x36, 0x1E, 0x89, 0x45, 0x3D, 0x5A, 0x99, 0x45, 0x39, 0x1E, 0x89, 0x52, 0x38, 0x5A, 0x99, 0x52, 0x36, 0x1E, 0x89, 0x45, 0x27, 0x5A, 0x99, 0x45, 0x39, 0x1E, 0x89, 0x52, 0x2B, 0x5A, 0x99, 0x52, 0x36, 0x1E, 0x89, 0x45, 0x46, 0x5A, 0x99, 0x45, 0x39, 0x1E, 0x89, 0x52, 0x34, 0x5A, 
	0x99, 0x52, 0x36, 0x1E, 0x89, 0x45, 0x40, 0x5A, 0x99, 0x45, 0x39, 0x1E, 0x89, 0x52, 0x24, 0x5A, 0x99, 0x52, 0x36, 0x1E, 0x89, 0x45, 0x38, 0x5A, 0x99, 0x45, 0x39, 0x1E, 0x89, 0x52, 0x20, 0x5A, 0x99, 0x52, 0x36, 0x1E, 0x89, 0x45, 0x33, 0x5A, 0x99, 0x45, 0x39, 0x1E, 0x89, 0x52, 0x3B, 0x5A, 0x99, 0x52, 0x36, 0x1E, 0x89, 0x45, 0x3F, 0x5A, 0x99, 0x45, 0x39, 0x1E, 0x89, 0x52, 0x36, 0x5A, 
	0x99, 0x52, 0x36, 0x1E, 0x89, 0x45, 0x3E, 0x5A, 0x99, 0x45, 0x39, 0x1E, 0x89, 0x52, 0x37, 0x5A, 0x99, 0x52, 0x36, 0x1E, 0x89, 0x45, 0x3D, 0x5A, 0x99, 0x45, 0x39, 0x1E, 0x89, 0x52, 0x38, 0x5A, 0x99, 0x52, 0x36, 0x1E, 0x89, 0x45, 0x27, 0x5A, 0x99, 0x45, 0x39, 0x1E, 0x89, 0x52, 0x2B, 0x5A, 0x99, 0x52, 0x36, 0x1E, 0x89, 0x45, 0x46, 0x5A, 0x99, 0x45, 0x39, 0x1E, 0x89, 0x52, 0x34, 0x5A, 
	0x99, 0x52, 0x36, 0x1E, 0x89, 0x45, 0x40, 0x5A, 0x99, 0x45, 0x39, 0x1E, 0x89, 0x52, 0x24, 0x5A, 0x99, 0x52, 0x36, 0x1E, 0x89, 0x45, 0x38, 0x5A, 0x99, 0x45, 0x39, 0x1E, 0x89, 0x52, 0x20, 0x5A, 0x99, 0x52, 0x36, 0x1E, 0x89, 0x45, 0x33, 0x5A, 0x99, 0x45, 0x39, 0x1E, 0x89, 0x52, 0x3B, 0x5A, 0x99, 0x52, 0x36, 0x1E, 0x89, 0x45, 0x3F, 0x5A, 0x99, 0x45, 0x39, 0x1E, 0x89, 0x52, 0x36, 0x5A, 
	0x99, 0x52, 0x36, 0x1E, 0x89, 0x45, 0x3E, 0x5A, 0x99, 0x45, 0x39, 0x1E, 0x89, 0x52, 0x37, 0x5A, 0x99, 0x52, 0x36, 0x1E, 0x89, 0x45, 0x3D, 0x5A, 0x99, 0x45, 0x39, 0x1E, 0x89, 0x52, 0x38, 0x5A, 0x99, 0x52, 0x36, 0x1E, 0x89, 0x45, 0x27, 0x5A, 0x99, 0x45, 0x39, 0x1E, 0x89, 0x52, 0x2B, 0x5A, 0x99, 0x52, 0x36, 0x1E, 0x89, 0x45, 0x46, 0x5A, 0x99, 0x45, 0x39, 0x1E, 0x89, 0x52, 0x34, 0x5A, 
	0x99, 0x52, 0x36, 0x1E, 0x89, 0x45, 0x40, 0x5A, 0x99, 0x45, 0x39, 0x1E, 0x89, 0x52, 0x24, 0x5A, 0x99, 0x52, 0x36, 0x1E, 0x89, 0x45, 0x38, 0x5A, 0x99, 0x45, 0x39, 0x1E, 0x89, 0x52, 0x20, 0x5A, 0x99, 0x52, 0x36, 0x1E, 0x89, 0x45, 0x33, 0x5A, 0x99, 0x45, 0x39, 0x1E, 0x89, 0x52, 0x3B, 0x5A, 0x99, 0x52, 0x36, 0x1E, 0x89, 0x45, 0x3F, 0x5A, 0x99, 0x45, 0x39, 0x1E, 0x89, 0x52, 0x36, 0x5A, 
	0x99, 0x52, 0x36, 0x1E, 0x89, 0x45, 0x3E, 0x5A, 0x99, 0x45, 0x39, 0x1E, 0x89, 0x52, 0x37, 0x5A, 0x99, 0x52, 0x36, 0x1E, 0x89, 0x45, 0x3D, 0x5A, 0x99, 0x45, 0x39, 0x1E, 0x89, 0x52, 0x38, 0x5A, 0x99, 0x52, 0x36, 0x1E, 0x89, 0x45, 0x27, 0x5A, 0x99, 0x45, 0x39, 0x1E, 0x89, 0x52, 0x2B, 0x5A, 0x99, 0x52, 0x36, 0x1E, 0x89, 0x45, 0x46, 0x5A, 0x99, 0x45, 0x39, 0x1E, 0x89, 0x52, 0x34, 0x5A, 
	0x99, 0x52, 0x36, 0x1E, 0x89, 0x45, 0x40, 0x5A, 0x99, 0x45, 0x39, 0x1E, 0x89, 0x52, 0x24, 0x5A, 0x99, 0x52, 0x36, 0x1E, 0x89, 0x45, 0x38, 0x5A, 0x99, 0x45, 0x39, 0x1E, 0x89, 0x52, 0x20, 0x5A, 0x99, 0x52, 0x36, 0x1E, 0x89, 0x45, 0x33, 0x5A, 0x99, 0x45, 0x39, 0x1E, 0x89, 0x52, 0x3B, 0x5A, 0x99, 0x52, 0x36, 0x1E, 0x89, 0x45, 0x3F, 0x5A, 0x99, 0x45, 0x39, 0x1E, 0x89, 0x52, 0x36, 0x5A, 
	0x99, 0x52, 0x36, 0x1E, 0x89, 0x45, 0x3E, 0x5A, 0x99, 0x45, 0x39, 0x1E, 0x89, 0x52, 0x37, 0x5A, 0x99, 0x52, 0x36, 0x1E, 0x89, 0x45, 0x3D, 0x5A, 0x99, 0x45, 0x39, 0x1E, 0x89, 0x52, 0x38, 0x5A, 0x99, 0x52, 0x36, 0x1E, 0x89, 0x45, 0x27, 0x5A, 0x99, 0x45, 0x39, 0x1E, 0x89, 0x52, 0x2B, 0x5A, 0x99, 0x52, 0x36, 0x1E, 0x89, 0x45, 0x46, 0x5A, 0x99, 0x45, 0x39, 0x1E, 0x89, 0x52, 0x34, 0x5A, 
	0x99, 0x52, 0x36, 0x1E, 0x89, 0x45, 0x40, 0x5A, 0x99, 0x45, 0x39, 0x1E, 0x89, 0x52, 0x24, 0x5A, 0x99, 0x52, 0x36, 0x1E, 0x89, 0x45, 0x38, 0x5A, 0x99, 0x45, 0x39, 0x1E, 0x89, 0x52, 0x20, 0x5A, 0x99, 0x52, 0x36, 0x1E, 0x89, 0x45, 0x33, 0x5A, 0x99, 0x45, 0x39, 0x1E, 0x89, 0x52, 0x3B, 0x5A, 0x99, 0x52, 0x36, 0x1E, 0x89, 0x45, 0x3F, 0x5A, 0x99, 0x45, 0x39, 0x1E, 0x89, 0x52, 0x36, 0x5A, 
	0x99, 0x52, 0x36, 0x1E, 0x89, 0x45, 0x3E, 0x5A, 0x99, 0x45, 0x39, 0x1E, 0x89, 0x52, 0x37, 0x5A, 0x99, 0x52, 0x36, 0x1E, 0x89, 0x45, 0x3D, 0x5A, 0x99, 0x45, 0x39, 0x1E, 0x89, 0x52, 0x38, 0x5A, 0x99, 0x52, 0x36, 0x1E, 0x89, 0x45, 0x27, 0x5A, 0x99, 0x45, 0x39, 0x1E, 0x89, 0x52, 0x2B, 0x5A, 0x99, 0x52, 0x36, 0x1E, 0x89, 0x45, 0x46, 0x5A, 0x99, 0x45, 0x39, 0x1E, 0x89, 0x52, 0x34, 0x5A, 
	0x99, 0x52, 0x36, 0x1E, 0x89, 0x45, 0x40, 0x5A, 0x99, 0x45, 0x39, 0x1E, 0x89, 0x52, 0x24, 0x5A, 0x99, 0x52, 0x36, 0x1E, 0x89, 0x45, 0x38, 0x5A, 0x99, 0x45, 0x39, 0x1E, 0x89, 0x52, 0x20, 0x5A, 0x99, 0x52, 0x36, 0x1E, 0x89, 0x45, 0x33, 0x5A, 0x99, 0x45, 0x39, 0x1E, 0x89, 0x52, 0x3B, 0x5A, 0x99, 0x52, 0x36, 0x1E, 0x89, 0x45, 0x3F, 0x5A, 0x99, 0x45, 0x39, 0x1E, 0x89, 0x52, 0x36, 0x5A, 
	0x99, 0x52, 0x36, 0x1E, 0x89, 0x45, 0x3E, 0x5A, 0x99, 0x45, 0x39, 0x1E, 0x89, 0x52, 0x37, 0x5A, 0x99, 0x52, 0x36, 0x1E, 0x89, 0x45, 0x3D, 0x78, 0x89, 0x52, 0x38, 0x9D, 0x62, 0x99, 0x45, 0x39, 0x78, 0x99, 0x52, 0x36, 0x1E, 0x89, 0x45, 0x27, 0x5A, 0x99, 0x45, 0x39, 0x1E, 0x89, 0x52, 0x2B, 0x5A, 0x99, 0x52, 0x36, 0x1E, 0x89, 0x45, 0x46, 0x5A, 0x99, 0x45, 0x39, 0x1E, 0x89, 0x52, 0x34, 
	0x5A, 0x99, 0x52, 0x36, 0x1E, 0x89, 0x45, 0x40, 0x5A, 0x99, 0x45, 0x39, 0x1E, 0x89, 0x52, 0x24, 0x5A, 0x99, 0x52, 0x36, 0x1E, 0x89, 0x45, 0x38, 0x5A, 0x99, 0x45, 0x39, 0x1E, 0x89, 0x52, 0x20, 0x5A, 0x99, 0x52, 0x36, 0x1E, 0x89, 0x45, 0x33, 0x5A, 0x99, 0x45, 0x39, 0x1E, 0x89, 0x52, 0x3B, 0x5A, 0x99, 0x52, 0x36, 0x1E, 0x89, 0x45, 0x3F, 0x5A, 0x99, 0x45, 0x39, 0x1E, 0x89, 0x52, 0x36, 
	0x5A, 0x99, 0x52, 0x36, 0x1E, 0x89, 0x45, 0x3E, 0x5A, 0x99, 0x45, 0x39, 0x1E, 0x89, 0x52, 0x37, 0x5A, 0x99, 0x52, 0x36, 0x1E, 0x89, 0x45, 0x3D, 0x5A, 0x99, 0x45, 0x39, 0x1E, 0x89, 0x52, 0x38, 0x5A, 0x99, 0x52, 0x36, 0x1E, 0x89, 0x45, 0x27, 0x5A, 0x99, 0x45, 0x39, 0x1E, 0x89, 0x52, 0x2B, 0x5A, 0x99, 0x52, 0x36, 0x1E, 0x89, 0x45, 0x46, 0x5A, 0x99, 0x45, 0x39, 0x1E, 0x89, 0x52, 0x34, 
	0x5A, 0x99, 0x52, 0x36, 0x1E, 0x89, 0x45, 0x40, 0x5A, 0x99, 0x45, 0x39, 0x1E, 0x89, 0x52, 0x24, 0x5A, 0x99, 0x52, 0x36, 0x1E, 0x89, 0x45, 0x38, 0x5A, 0x99, 0x45, 0x39, 0x1E, 0x89, 0x52, 0x20, 0x5A, 0x99, 0x52, 0x36, 0x1E, 0x89, 0x45, 0x33, 0x5A, 0x99, 0x45, 0x39, 0x1E, 0x89, 0x52, 0x3B, 0x5A, 0x99, 0x52, 0x36, 0x1E, 0x89, 0x45, 0x3F, 0x5A, 0x99, 0x45, 0x39, 0x1E, 0x89, 0x52, 0x36, 
	0x5A, 0x99, 0x52, 0x36, 0x1E, 0x89, 0x45, 0x3E, 0x5A, 0x99, 0x45, 0x39, 0x1E, 0x89, 0x52, 0x37, 0x5A, 0x99, 0x52, 0x36, 0x1E, 0x89, 0x45, 0x3D, 0x5A, 0x99, 0x45, 0x39, 0x1E, 0x89, 0x52, 0x38, 0x5A, 0x99, 0x52, 0x36, 0x1E, 0x89, 0x45, 0x27, 0x5A, 0x99, 0x45, 0x39, 0x1E, 0x89, 0x52, 0x2B, 0x5A, 0x99, 0x52, 0x36, 0x1E, 0x89, 0x45, 0x46, 0x5A, 0x99, 0x45, 0x39, 0x1E, 0x89, 0x52, 0x34, 
	0x5A, 0x99, 0x52, 0x36, 0x1E, 0x89, 0x45, 0x40, 0x5A, 0x99, 0x45, 0x39, 0x1E, 0x89, 0x52, 0x24, 0x5A, 0x99, 0x52, 0x36, 0x1E, 0x89, 0x45, 0x38, 0x5A, 0x99, 0x45, 0x39, 0x1E, 0x89, 0x52, 0x20, 0x5A, 0x99, 0x52, 0x36, 0x1E, 0x89, 0x45, 0x33, 0x5A, 0x99, 0x45, 0x39, 0x1E, 0x89, 0x52, 0x3B, 0x5A, 0x99, 0x52, 0x36, 0x1E, 0x89, 0x45, 0x3F, 0x5A, 0x99, 0x45, 0x39, 0x1E, 0x89, 0x52, 0x36, 
	0x5A, 0x99, 0x52, 0x36, 0x1E, 0x89, 0x45, 0x3E, 0x5A, 0x99, 0x45, 0x39, 0x1E, 0x89, 0x52, 0x37, 0x5A, 0x99, 0x52, 0x36, 0x1E, 0x89, 0x45, 0x3D, 0x5A, 0x99, 0x45, 0x39, 0x1E, 0x89, 0x52, 0x38, 0x5A, 0x99, 0x52, 0x36, 0x1E, 0x89, 0x45, 0x27, 0x5A, 0x99, 0x45, 0x39, 0x1E, 0x89, 0x52, 0x2B, 0x5A, 0x99, 0x52, 0x36, 0x1E, 0x89, 0x45, 0x46, 0x5A, 0x99, 0x45, 0x39, 0x1E, 0x89, 0x52, 0x34, 
	0x5A, 0x99, 0x52, 0x36, 0x1E, 0x89, 0x45, 0x40, 0x5A, 0x99, 0x45, 0x39, 0x1E, 0x89, 0x52, 0x24, 0x5A, 0x99, 0x52, 0x36, 0x1E, 0x89, 0x45, 0x38, 0x5A, 0x99, 0x45, 0x39, 0x1E, 0x89, 0x52, 0x20, 0x5A, 0x99, 0x52, 0x36, 0x1E, 0x89, 0x45, 0x33, 0x5A, 0x99, 0x45, 0x39, 0x1E, 0x89, 0x52, 0x3B, 0x5A, 0x99, 0x52, 0x36, 0x1E, 0x89, 0x45, 0x3F, 0x5A, 0x99, 0x45, 0x39, 0x1E, 0x89, 0x52, 0x36, 
	0x5A, 0x99, 0x52, 0x36, 0x1E, 0x89, 0x45, 0x3E, 0x5A, 0x99, 0x45, 0x39, 0x1E, 0x89, 0x52, 0x37, 0x5A, 0x99, 0x52, 0x36, 0x1E, 0x89, 0x45, 0x3D, 0x5A, 0x99, 0x45, 0x39, 0x1E, 0x89, 0x52, 0x38, 0x5A, 0x99, 0x52, 0x36, 0x1E, 0x89, 0x45, 0x27, 0x5A, 0x99, 0x45, 0x39, 0x1E, 0x89, 0x52, 0x2B, 0x5A, 0x99, 0x52, 0x36, 0x1E, 0x89, 0x45, 0x46, 0x5A, 0x99, 0x45, 0x39, 0x1E, 0x89, 0x52, 0x34, 
	0x5A, 0x99, 0x52, 0x36, 0x1E, 0x89, 0x45, 0x40, 0x5A, 0x99, 0x45, 0x39, 0x1E, 0x89, 0x52, 0x24, 0x5A, 0x99, 0x52, 0x36, 0x1E, 0x89, 0x45, 0x38, 0x5A, 0x99, 0x45, 0x39, 0x1E, 0x89, 0x52, 0x20, 0x5A, 0x99, 0x52, 0x36, 0x1E, 0x89, 0x45, 0x33, 0x5A, 0x99, 0x45, 0x39, 0x1E, 0x89, 0x52, 0x3B, 0x5A, 0x99, 0x52, 0x36, 0x1E, 0x89, 0x45, 0x3F, 0x5A, 0x99, 0x45, 0x39, 0x1E, 0x89, 0x52, 0x36, 
	0x5A, 0x99, 0x52, 0x36, 0x1E, 0x89, 0x45, 0x3E, 0x5A, 0x99, 0x45, 0x39, 0x1E, 0x89, 0x52, 0x37, 0x5A, 0x99, 0x52, 0x36, 0x1E, 0x89, 0x45, 0x3D, 0x5A, 0x99, 0x45, 0x39, 0x1E, 0x89, 0x52, 0x38, 0x5A, 0x99, 0x52, 0x36, 0x1E, 0x89, 0x45, 0x27, 0x5A, 0x99, 0x45, 0x39, 0x1E, 0x89, 0x52, 0x2B, 0x5A, 0x99, 0x52, 0x36, 0x1E, 0x89, 0x45, 0x46, 0x5A, 0x99, 0x45, 0x39, 0x1E, 0x89, 0x52, 0x34, 
	0x5A, 0x99, 0x52, 0x36, 0x1E, 0x89, 0x45, 0x40, 0x5A, 0x99, 0x45, 0x39, 0x1E, 0x89, 0x52, 0x24, 0x5A, 0x99, 0x52, 0x36, 0x1E, 0x89, 0x45, 0x38, 0x5A, 0x99, 0x45, 0x39, 0x1E, 0x89, 0x52, 0x20, 0x5A, 0x99, 0x52, 0x36, 0x1E, 0x89, 0x45, 0x33, 0x5A, 0x99, 0x45, 0x39, 0x1E, 0x89, 0x52, 0x3B, 0x5A, 0x99, 0x52, 0x36, 0x1E, 0x89, 0x45, 0x3F, 0x5A, 0x99, 0x45, 0x39, 0x1E, 0x89, 0x52, 0x36, 
	0x5A, 0x99, 0x52, 0x36, 0x1E, 0x89, 0x45, 0x3E, 0x5A, 0x99, 0x45, 0x39, 0x1E, 0x89, 0x52, 0x37, 0x5A, 0x99, 0x52, 0x36, 0x1E, 0x89, 0x45, 0x3D, 0x5A, 0x99, 0x45, 0x39, 0x1E, 0x89, 0x52, 0x38, 0x5A, 0x99, 0x52, 0x36, 0x1E, 0x89, 0x45, 0x27, 0x5A, 0x99, 0x45, 0x39, 0x1E, 0x89, 0x52, 0x2B, 0x5A, 0x99, 0x52, 0x36, 0x1E, 0x89, 0x45, 0x46, 0x5A, 0x99, 0x45, 0x39, 0x1E, 0x89, 0x52, 0x34, 
	0x5A, 0x99, 0x52, 0x36, 0x1E, 0x89, 0x45, 0x40, 0x5A, 0x99, 0x45, 0x39, 0x1E, 0x89, 0x52, 0x24, 0x5A, 0x99, 0x52, 0x36, 0x1E, 0x89, 0x45, 0x38, 0x5A, 0x99, 0x45, 0x39, 0x1E, 0x89, 0x52, 0x20, 0x5A, 0x99, 0x52, 0x36, 0x1E, 0x89, 0x45, 0x33, 0x5A, 0x99, 0x45, 0x39, 0x1E, 0x89, 0x52, 0x3B, 0x5A, 0x99, 0x52, 0x36, 0x1E, 0x89, 0x45, 0x3F, 0x5A, 0x99, 0x45, 0x39, 0x1E, 0x89, 0x52, 0x36, 
	0x5A, 0x99, 0x52, 0x36, 0x1E, 0x89, 0x45, 0x3E, 0x5A, 0x99, 0x45, 0x39, 0x1E, 0x89, 0x52, 0x37, 0x5A, 0x99, 0x52, 0x36, 0x1E, 0x89, 0x45, 0x3D, 0x5A, 0x99, 0x45, 0x39, 0x1E, 0x89, 0x52, 0x38, 0x5A, 0x99, 0x52, 0x36, 0x1E, 0x89, 0x45, 0x27, 0x5A, 0x99, 0x45, 0x39, 0x1E, 0x89, 0x52, 0x2B, 0x5A, 0x99, 0x52, 0x36, 0x1E, 0x89, 0x45, 0x46, 0x5A, 0x99, 0x45, 0x39, 0x1E, 0x89, 0x52, 0x34, 
	0x5A, 0x99, 0x52, 0x36, 0x1E, 0x89, 0x45, 0x40, 0x5A, 0x99, 0x45, 0x39, 0x1E, 0x89, 0x52, 0x24, 0x5A, 0x99, 0x52, 0x36, 0x1E, 0x89, 0x45, 0x38, 0x5A, 0x99, 0x45, 0x39, 0x1E, 0x89, 0x52, 0x20, 0x5A, 0x99, 0x52, 0x36, 0x1E, 0x89, 0x45, 0x33, 0x5A, 0x99, 0x45, 0x39, 0x1E, 0x89, 0x52, 0x3B, 0x5A, 0x99, 0x52, 0x36, 0x1E, 0x89, 0x45, 0x3F, 0x5A, 0x99, 0x45, 0x39, 0x1E, 0x89, 0x52, 0x36, 
	0x5A, 0x99, 0x52, 0x36, 0x1E, 0x89, 0x45, 0x3E, 0x5A, 0x99, 0x45, 0x39, 0x1E, 0x89, 0x52, 0x37, 0x5A, 0x99, 0x52, 0x36, 0x1E, 0x89, 0x45, 0x3D, 0x5A, 0x99, 0x45, 0x39, 0x1E, 0x89, 0x52, 0x38, 0x5A, 0x99, 0x52, 0x36, 0x1E, 0x89, 0x45, 0x27, 0x5A, 0x99, 0x45, 0x39, 0x1E, 0x89, 0x52, 0x2B, 0x5A, 0x99, 0x52, 0x36, 0x1E, 0x89, 0x45, 0x46, 0x5A, 0x99, 0x45, 0x39, 0x1E, 0x89, 0x52, 0x34, 
	0x5A, 0x99, 0x52, 0x36, 0x1E, 0x89, 0x45, 0x40, 0x5A, 0x99, 0x45, 0x39, 0x1E, 0x89, 0x52, 0x24, 0x5A, 0x99, 0x52, 0x36, 0x1E, 0x89, 0x45, 0x38, 0x5A, 0x99, 0x45, 0x39, 0x1E, 0x89, 0x52, 0x20, 0x5A, 0x99, 0x52, 0x36, 0x1E, 0x89, 0x45, 0x33, 0x5A, 0x99, 0x45, 0x39, 0x1E, 0x89, 0x52, 0x3B, 0x5A, 0x99, 0x52, 0x36, 0x1E, 0x89, 0x45, 0x3F, 0x5A, 0x99, 0x45, 0x39, 0x1E, 0x89, 0x52, 0x36, 
	0x5A, 0x99, 0x52, 0x36, 0x1E, 0x89, 0x45, 0x3E, 0x5A, 0x99, 0x45, 0x39, 0x1E, 0x89, 0x52, 0x37, 0x5A, 0x99, 0x52, 0x36, 0x1E, 0x89, 0x45, 0x3D, 0x5A, 0x99, 0x45, 0x39, 0x1E, 0x89, 0x52, 0x38, 0x5A, 0x99, 0x52, 0x36, 0x1E, 0x89, 0x45, 0x27, 0x5A, 0x99, 0x45, 0x39, 0x1E, 0x89, 0x52, 0x2B, 0x5A, 0x99, 0x52, 0x36, 0x1E, 0x89, 0x45, 0x46, 0x5A, 0x99, 0x45, 0x39, 0x1E, 0x89, 0x52, 0x34, 
	0x5A, 0x99, 0x52, 0x36, 0x1E, 0x89, 0x45, 0x40, 0x5A, 0x99, 0x45, 0x39, 0x1E, 0x89, 0x52, 0x24, 0x5A, 0x99, 0x52, 0x36, 0x1E, 0x89, 0x45, 0x38, 0x5A, 0x99, 0x45, 0x39, 0x1E, 0x89, 0x52, 0x20, 0x5A, 0x99, 0x52, 0x36, 0x1E, 0x89, 0x45, 0x33, 0x5A, 0x99, 0x45, 0x39, 0x1E, 0x89, 0x52, 0x3B, 0x5A, 0x99, 0x52, 0x36, 0x1E, 0x89, 0x45, 0x3F, 0x5A, 0x99, 0x45, 0x39, 0x1E, 0x89, 0x52, 0x36, 
	0x5A, 0x99, 0x52, 0x36, 0x1E, 0x89, 0x45, 0x3E, 0x5A, 0x99, 0x45, 0x39, 0x1E, 0x89, 0x52, 0x37, 0x5A, 0x99, 0x52, 0x36, 0x1E, 0x89, 0x45, 0x3D, 0x5A, 0x99, 0x45, 0x39, 0x1E, 0x89, 0x52, 0x38, 0x5A, 0x99, 0x52, 0x36, 0x1E, 0x89, 0x45, 0x27, 0x5A, 0x99, 0x45, 0x39, 0x1E, 0x89, 0x52, 0x2B, 0x5A, 0x99, 0x52, 0x36, 0x1E, 0x89, 0x45, 0x46, 0x5A, 0x99, 0x45, 0x39, 0x1E, 0x89, 0x52, 0x34, 
	0x5A, 0x99, 0x52, 0x36, 0x1E, 0x89, 0x45, 0x40, 0x5A, 0x99, 0x45, 0x39, 0x1E, 0x89, 0x52, 0x24, 0x5A, 0x99, 0x52, 0x36, 0x1E, 0x89, 0x45, 0x38, 0x5A, 0x99, 0x45, 0x39, 0x1E, 0x89, 0x52, 0x20, 0x5A, 0x99, 0x52, 0x36, 0x1E, 0x89, 0x45, 0x33, 0x5A, 0x99, 0x45, 0x39, 0x1E, 0x89, 0x52, 0x3B, 0x5A, 0x99, 0x52, 0x36, 0x1E, 0x89, 0x45, 0x3F, 0x5A, 0x99, 0x45, 0x39, 0x1E, 0x89, 0x52, 0x36, 
	0x5A, 0x99, 0x52, 0x36, 0x1E, 0x89, 0x45, 0x3E, 0x5A, 0x99, 0x45, 0x39, 0x1E, 0x89, 0x52, 0x37, 0x5A, 0x99, 0x52, 0x36, 0x1E, 0x89, 0x45, 0x3D, 0x5A, 0x99, 0x45, 0x39, 0x1E, 0x89, 0x52, 0x38, 0x5A, 0x99, 0x52, 0x36, 0x1E, 0x89, 0x45, 0x27, 0x5A, 0x99, 0x45, 0x39, 0x1E, 0x89, 0x52, 0x2B, 0x5A, 0x99, 0x52, 0x36, 0x1E, 0x89, 0x45, 0x46, 0x5A, 0x99, 0x45, 0x39, 0x1E, 0x89, 0x52, 0x34, 
	0x5A, 0x99, 0x52, 0x36, 0x1E, 0x89, 0x45, 0x40, 0x5A, 0x99, 0x45, 0x39, 0x1E, 0x89, 0x52, 0x24, 0x5A, 0x99, 0x52, 0x36, 0x1E, 0x89, 0x45, 0x38, 0x5A, 0x99, 0x45, 0x39, 0x1E, 0x89, 0x52, 0x20, 0x5A, 0x99, 0x52, 0x36, 0x1E, 0x89, 0x45, 0x33, 0x5A, 0x99, 0x45, 0x39, 0x1E, 0x89, 0x52, 0x3B, 0x5A, 0x99, 0x52, 0x36, 0x1E, 0x89, 0x45, 0x3F, 0x5A, 0x99, 0x45, 0x39, 0x1E, 0x89, 0x52, 0x36, 
	0x5A, 0x99, 0x52, 0x36, 0x1E, 0x89, 0x45, 0x3E, 0x5A, 0x99, 0x45, 0x39, 0x1E, 0x89, 0x52, 0x37, 0x5A, 0x99, 0x52, 0x36, 0x1E, 0x89, 0x45, 0x3D, 0x5A, 0x99, 0x45, 0x39, 0x1E, 0x89, 0x52, 0x38, 0x5A, 0x99, 0x52, 0x36, 0x1E, 0x89, 0x45, 0x27, 0x5A, 0x99, 0x45, 0x39, 0x1E, 0x89, 0x52, 0x2B, 0x5A, 0x99, 0x52, 0x36, 0x1E, 0x89, 0x45, 0x46, 0x5A, 0x99, 0x45, 0x39, 0x1E, 0x89, 0x52, 0x34, 
	0x5A, 0x99, 0x52, 0x36, 0x1E, 0x89, 0x45, 0x40, 0x5A, 0x99, 0x45, 0x39, 0x1E, 0x89, 0x52, 0x24, 0x5A, 0x99, 0x52, 0x36, 0x1E, 0x89, 0x45, 0x38, 0x5A, 0x99, 0x45, 0x39, 0x1E, 0x89, 0x52, 0x20, 0x5A, 0x99, 0x52, 0x36, 0x1E, 0x89, 0x45, 0x33, 0x5A, 0x99, 0x45, 0x39, 0x1E, 0x89, 0x52, 0x3B, 0x5A, 0x99, 0x52, 0x36, 0x1E, 0x89, 0x45, 0x3F, 0x5A, 0x99, 0x45, 0x39, 0x1E, 0x89, 0x52, 0x36, 
	0x5A, 0x99, 0x52, 0x36, 0x1E, 0x89, 0x45, 0x3E, 0x5A, 0x99, 0x45, 0x39, 0x1E, 0x89, 0x52, 0x37, 0x5A, 0x99, 0x52, 0x36, 0x1E, 0x89, 0x45, 0x3D, 0x5A, 0x99, 0x45, 0x39, 0x1E, 0x89, 0x52, 0x38, 0x5A, 0x99, 0x52, 0x36, 0x1E, 0x89, 0x45, 0x27, 0x5A, 0x99, 0x45, 0x39, 0x1E, 0x89, 0x52, 0x2B, 0x5A, 0x99, 0x52, 0x36, 0x1E, 0x89, 0x45, 0x46, 0x5A, 0x99, 0x45, 0x39, 0x1E, 0x89, 0x52, 0x34, 
	0x5A, 0x99, 0x52, 0x36, 0x1E, 0x89, 0x45, 0x40, 0x5A, 0x99, 0x45, 0x39, 0x1E, 0x89, 0x52, 0x24, 0x5A, 0x99, 0x52, 0x36, 0x1E, 0x89, 0x45, 0x38, 0x5A, 0x99, 0x45, 0x39, 0x1E, 0x89, 0x52, 0x20, 0x5A, 0x99, 0x52, 0x36, 0x1E, 0x89, 0x45, 0x33, 0x5A, 0x99, 0x45, 0x39, 0x1E, 0x89, 0x52, 0x3B, 0x5A, 0x99, 0x52, 0x36, 0x1E, 0x89, 0x45, 0x3F, 0x5A, 0x99, 0x45, 0x39, 0x1E, 0x89, 0x52, 0x36, 
	0x5A, 0x99, 0x52, 0x36, 0x1E, 0x89, 0x45, 0x3E, 0x5A, 0x99, 0x45, 0x39, 0x1E, 0x89, 0x52, 0x37, 0x5A, 0x99, 0x52, 0x36, 0x1E, 0x89, 0x45, 0x3D, 0x5A, 0x99, 0x45, 0x2A, 0x1E, 0x89, 0x52, 0x38, 0x5A, 0x99, 0x52, 0x27, 0x1E, 0x89, 0x45, 0x27, 0x5A, 0x99, 0x45, 0x2A, 0x1E, 0x89, 0x52, 0x2B, 0x5A, 0x99, 0x52, 0x27, 0x1E, 0x89, 0x45, 0x46, 0x5A, 0x99, 0x45, 0x2A, 0x1E, 0x89, 0x52, 0x34, 
	0x5A, 0x99, 0x52, 0x27, 0x1E, 0x89, 0x45, 0x40, 0x5A, 0x99, 0x45, 0x2A, 0x1E, 0x89, 0x52, 0x24, 0x5A, 0x99, 0x52, 0x27, 0x1E, 0x89, 0x45, 0x38, 0x5A, 0x99, 0x45, 0x2A, 0x1E, 0x89, 0x52, 0x20, 0x5A, 0x99, 0x52, 0x27, 0x1E, 0x89, 0x45, 0x33, 0x5A, 0x99, 0x45, 0x2A, 0x1E, 0x89, 0x52, 0x3B, 0x5A, 0x99, 0x52, 0x27, 0x1E, 0x89, 0x45, 0x3F, 0x5A, 0x99, 0x45, 0x2A, 0x1E, 0x89, 0x52, 0x36, 
	0x5A, 0x99, 0x52, 0x27, 0x1E, 0x89, 0x45, 0x3E, 0x5A, 0x99, 0x45, 0x2A, 0x1E, 0x89, 0x52, 0x37, 0x5A, 0x99, 0x52, 0x27, 0x1E, 0x89, 0x45, 0x3D, 0x5A, 0x99, 0x45, 0x2A, 0x1E, 0x89, 0x52, 0x38, 0x5A, 0x99, 0x52, 0x27, 0x1E, 0x89, 0x45, 0x27, 0x5A, 0x99, 0x45, 0x2A, 0x1E, 0x89, 0x52, 0x2B, 0x5A, 0x99, 0x52, 0x27, 0x1E, 0x89, 0x45, 0x46, 0x5A, 0x99, 0x45, 0x2A, 0x1E, 0x89, 0x52, 0x34, 
	0x5A, 0x99, 0x52, 0x27, 0x1E, 0x89, 0x45, 0x40, 0x5A, 0x99, 0x45, 0x2A, 0x1E, 0x89, 0x52, 0x24, 0x5A, 0x99, 0x52, 0x27, 0x1E, 0x89, 0x45, 0x38, 0x5A, 0x99, 0x45, 0x2A, 0x1E, 0x89, 0x52, 0x20, 0x5A, 0x99, 0x52, 0x27, 0x1E, 0x89, 0x45, 0x33, 0x5A, 0x99, 0x45, 0x2A, 0x1E, 0x89, 0x52, 0x3B, 0x5A, 0x99, 0x52, 0x27, 0x1E, 0x89, 0x45, 0x3F, 0x5A, 0x99, 0x45, 0x2A, 0x1E, 0x89, 0x52, 0x36, 
	0x5A, 0x99, 0x52, 0x27, 0x1E, 0x89, 0x45, 0x3E, 0x5A, 0x99, 0x45, 0x2A, 0x1E, 0x89, 0x52, 0x37, 0x5A, 0x99, 0x52, 0x27, 0x1E, 0x89, 0x45, 0x3D, 0x5A, 0x99, 0x45, 0x2A, 0x1E, 0x89, 0x52, 0x38, 0x5A, 0x99, 0x52, 0x27, 0x1E, 0x89, 0x45, 0x27, 0x5A, 0x99, 0x45, 0x2A, 0x1E, 0x89, 0x52, 0x2B, 0x5A, 0x99, 0x52, 0x27, 0x1E, 0x89, 0x45, 0x46, 0x5A, 0x99, 0x45, 0x2A, 0x1E, 0x89, 0x52, 0x34, 
	0x5A, 0x99, 0x52, 0x27, 0x1E, 0x89, 0x45, 0x40, 0x5A, 0x99, 0x45, 0x2A, 0x1E, 0x89, 0x52, 0x24, 0x5A, 0x99, 0x52, 0x27, 0x1E, 0x89, 0x45, 0x38, 0x5A, 0x99, 0x45, 0x2A, 0x1E, 0x89, 0x52, 0x20, 0x5A, 0x99, 0x52, 0x27, 0x1E, 0x89, 0x45, 0x33, 0x5A, 0x99, 0x45, 0x2A, 0x1E, 0x89, 0x52, 0x3B, 0x5A, 0x99, 0x52, 0x27, 0x1E, 0x89, 0x45, 0x3F, 0x5A, 0x99, 0x45, 0x2A, 0x1E, 0x89, 0x52, 0x36, 
	0x5A, 0x99, 0x52, 0x27, 0x1E, 0x89, 0x45, 0x3E, 0x5A, 0x99, 0x45, 0x2A, 0x1E, 0x89, 0x52, 0x37, 0x5A, 0x99, 0x52, 0x27, 0x1E, 0x89, 0x45, 0x3D, 0x5A, 0x99, 0x45, 0x2A, 0x1E, 0x89, 0x52, 0x38, 0x5A, 0x99, 0x52, 0x27, 0x1E, 0x89, 0x45, 0x27, 0x5A, 0x99, 0x45, 0x2A, 0x1E, 0x89, 0x52, 0x2B, 0x5A, 0x99, 0x52, 0x27, 0x1E, 0x89, 0x45, 0x46, 0x5A, 0x99, 0x45, 0x2A, 0x1E, 0x89, 0x52, 0x34, 
	0x5A, 0x99, 0x52, 0x27, 0x1E, 0x89, 0x45, 0x40, 0x5A, 0x99, 0x45, 0x2A, 0x1E, 0x89, 0x52, 0x24, 0x5A, 0x99, 0x52, 0x27, 0x1E, 0x89, 0x45, 0x38, 0x5A, 0x99, 0x45, 0x2A, 0x1E, 0x89, 0x52, 0x20, 0x5A, 0x99, 0x52, 0x27, 0x1E, 0x89, 0x45, 0x33, 0x5A, 0x99, 0x45, 0x2A, 0x1E, 0x89, 0x52, 0x3B, 0x5A, 0x99, 0x52, 0x27, 0x1E, 0x89, 0x45, 0x3F, 0x5A, 0x99, 0x45, 0x2A, 0x1E, 0x89, 0x52, 0x36, 
	0x5A, 0x99, 0x52, 0x27, 0x1E, 0x89, 0x45, 0x3E, 0x5A, 0x99, 0x45, 0x2A, 0x1E, 0x89, 0x52, 0x37, 0x5A, 0x99, 0x52, 0x27, 0x1E, 0x89, 0x45, 0x3D, 0x5A, 0x99, 0x45, 0x2A, 0x1E, 0x89, 0x52, 0x38, 0x5A, 0x99, 0x52, 0x27, 0x1E, 0x89, 0x45, 0x27, 0x5A, 0x99, 0x45, 0x2A, 0x1E, 0x89, 0x52, 0x2B, 0x5A, 0x99, 0x52, 0x27, 0x1E, 0x89, 0x45, 0x46, 0x5A, 0x99, 0x45, 0x2A, 0x1E, 0x89, 0x52, 0x34, 
	0x5A, 0x99, 0x52, 0x27, 0x1E, 0x89, 0x45, 0x40, 0x5A, 0x99, 0x45, 0x2A, 0x1E, 0x89, 0x52, 0x24, 0x5A, 0x99, 0x52, 0x27, 0x1E, 0x89, 0x45, 0x38, 0x5A, 0x99, 0x45, 0x2A, 0x1E, 0x89, 0x52, 0x20, 0x5A, 0x99, 0x52, 0x27, 0x1E, 0x89, 0x45, 0x33, 0x5A, 0x99, 0x45, 0x2A, 0x1E, 0x89, 0x52, 0x3B, 0x5A, 0x99, 0x52, 0x27, 0x1E, 0x89, 0x45, 0x3F, 0x5A, 0x99, 0x45, 0x2A, 0x1E, 0x89, 0x52, 0x36, 
	0x5A, 0x99, 0x52, 0x27, 0x1E, 0x89, 0x45, 0x3E, 0x5A, 0x99, 0x45, 0x2A, 0x1E, 0x89, 0x52, 0x37, 0x5A, 0x99, 0x52, 0x27, 0x1E, 0x89, 0x45, 0x3D, 0x5A, 0x99, 0x45, 0x2A, 0x1E, 0x89, 0x52, 0x38, 0x5A, 0x99, 0x52, 0x27, 0x1E, 0x89, 0x45, 0x27, 0x5A, 0x99, 0x45, 0x2A, 0x1E, 0x89, 0x52, 0x2B, 0x5A, 0x99, 0x52, 0x27, 0x1E, 0x89, 0x45, 0x46, 0x5A, 0x99, 0x45, 0x2A, 0x1E, 0x89, 0x52, 0x34, 
	0x5A, 0x99, 0x52, 0x27, 0x1E, 0x89, 0x45, 0x40, 0x5A, 0x99, 0x45, 0x2A, 0x1E, 0x89, 0x52, 0x24, 0x5A, 0x99, 0x52, 0x27, 0x1E, 0x89, 0x45, 0x38, 0x5A, 0x99, 0x45, 0x2A, 0x1E, 0x89, 0x52, 0x20, 0x5A, 0x99, 0x52, 0x27, 0x1E, 0x89, 0x45, 0x33, 0x5A, 0x99, 0x45, 0x2A, 0x1E, 0x89, 0x52, 0x3B, 0x5A, 0x99, 0x52, 0x27, 0x1E, 0x89, 0x45, 0x3F, 0x5A, 0x99, 0x45, 0x2A, 0x1E, 0x89, 0x52, 0x36, 
	0x5A, 0x99, 0x52, 0x27, 0x1E, 0x89, 0x45, 0x3E, 0x5A, 0x99, 0x45, 0x2A, 0x1E, 0x89, 0x52, 0x37, 0x5A, 0x99, 0x52, 0x27, 0x1E, 0x89, 0x45, 0x3D, 0x5A, 0x99, 0x45, 0x2A, 0x1E, 0x89, 0x52, 0x38, 0x5A, 0x99, 0x52, 0x27, 0x1E, 0x89, 0x45, 0x27, 0x5A, 0x99, 0x45, 0x2A, 0x1E, 0x89, 0x52, 0x2B, 0x5A, 0x99, 0x52, 0x27, 0x1E, 0x89, 0x45, 0x46, 0x5A, 0x99, 0x45, 0x2A, 0x1E, 0x89, 0x52, 0x34, 
	0x5A, 0x99, 0x52, 0x27, 0x1E, 0x89, 0x45, 0x40, 0x5A, 0x99, 0x45, 0x2A, 0x1E, 0x89, 0x52, 0x24, 0x5A, 0x99, 0x52, 0x27, 0x1E, 0x89, 0x45, 0x38, 0x5A, 0x99, 0x45, 0x2A, 0x1E, 0x89, 0x52, 0x20, 0x5A, 0x99, 0x52, 0x27, 0x1E, 0x89, 0x45, 0x33, 0x5A, 0x99, 0x45, 0x2A, 0x1E, 0x89, 0x52, 0x3B, 0x5A, 0x99, 0x52, 0x27, 0x1E, 0x89, 0x45, 0x3F, 0x5A, 0x99, 0x45, 0x2A, 0x1E, 0x89, 0x52, 0x36, 
	0x5A, 0x99, 0x52, 0x27, 0x1E, 0x89, 0x45, 0x3E, 0x5A, 0x99, 0x45, 0x2A, 0x1E, 0x89, 0x52, 0x37, 0x5A, 0x99, 0x52, 0x27, 0x1E, 0x89, 0x45, 0x3D, 0x78, 0x89, 0x52, 0x38, 0xBB, 0x62, 0x99, 0x45, 0x2A, 0x78, 0x99, 0x52, 0x27, 0x1E, 0x89, 0x45, 0x27, 0x5A, 0x99, 0x45, 0x2A, 0x1E, 0x89, 0x52, 0x2B, 0x5A, 0x99, 0x52, 0x27, 0x1E, 0x89, 0x45, 0x46, 0x5A, 0x99, 0x45, 0x2A, 0x1E, 0x89, 0x52, 
	0x34, 0x5A, 0x99, 0x52, 0x27, 0x1E, 0x89, 0x45, 0x40, 0x5A, 0x99, 0x45, 0x2A, 0x1E, 0x89, 0x52, 0x24, 0x5A, 0x99, 0x52, 0x27, 0x1E, 0x89, 0x45, 0x38, 0x5A, 0x99, 0x45, 0x2A, 0x1E, 0x89, 0x52, 0x20, 0x5A, 0x99, 0x52, 0x27, 0x1E, 0x89, 0x45, 0x33, 0x5A, 0x99, 0x45, 0x2A, 0x1E, 0x89, 0x52, 0x3B, 0x5A, 0x99, 0x52, 0x27, 0x1E, 0x89, 0x45, 0x3F, 0x5A, 0x99, 0x45, 0x2A, 0x1E, 0x89, 0x52, 
	0x36, 0x5A, 0x99, 0x52, 0x27, 0x1E, 0x89, 0x45, 0x3E, 0x5A, 0x99, 0x45, 0x2A, 0x1E, 0x89, 0x52, 0x37, 0x5A, 0x99, 0x52, 0x27, 0x1E, 0x89, 0x45, 0x3D, 0x5A, 0x99, 0x45, 0x2A, 0x1E, 0x89, 0x52, 0x38, 0x5A, 0x99, 0x52, 0x27, 0x1E, 0x89, 0x45, 0x27, 0x5A, 0x99, 0x45, 0x2A, 0x1E, 0x89, 0x52, 0x2B, 0x5A, 0x99, 0x52, 0x27, 0x1E, 0x89, 0x45, 0x46, 0x5A, 0x99, 0x45, 0x2A, 0x1E, 0x89, 0x52, 
	0x34, 0x5A, 0x99, 0x52, 0x27, 0x1E, 0x89, 0x45, 0x40, 0x5A, 0x99, 0x45, 0x2A, 0x1E, 0x89, 0x52, 0x24, 0x5A, 0x99, 0x52, 0x27, 0x1E, 0x89, 0x45, 0x38, 0x5A, 0x99, 0x45, 0x2A, 0x1E, 0x89, 0x52, 0x20, 0x5A, 0x99, 0x52, 0x27, 0x1E, 0x89, 0x45, 0x33, 0x5A, 0x99, 0x45, 0x2A, 0x1E, 0x89, 0x52, 0x3B, 0x5A, 0x99, 0x52, 0x27, 0x1E, 0x89, 0x45, 0x3F, 0x5A, 0x99, 0x45, 0x2A, 0x1E, 0x89, 0x52, 
	0x36, 0x5A, 0x99, 0x52, 0x27, 0x1E, 0x89, 0x45, 0x3E, 0x5A, 0x99, 0x45, 0x2A, 0x1E, 0x89, 0x52, 0x37, 0x5A, 0x99, 0x52, 0x27, 0x1E, 0x89, 0x45, 0x3D, 0x5A, 0x99, 0x45, 0x2A, 0x1E, 0x89, 0x52, 0x38, 0x5A, 0x99, 0x52, 0x27, 0x1E, 0x89, 0x45, 0x27, 0x5A, 0x99, 0x45, 0x2A, 0x1E, 0x89, 0x52, 0x2B, 0x5A, 0x99, 0x52, 0x27, 0x1E, 0x89, 0x45, 0x46, 0x5A, 0x99, 0x45, 0x2A, 0x1E, 0x89, 0x52, 
	0x34, 0x5A, 0x99, 0x52, 0x27, 0x1E, 0x89, 0x45, 0x40, 0x5A, 0x99, 0x45, 0x2A, 0x1E, 0x89, 0x52, 0x24, 0x5A, 0x99, 0x52, 0x27, 0x1E, 0x89, 0x45, 0x38, 0x5A, 0x99, 0x45, 0x2A, 0x1E, 0x89, 0x52, 0x20, 0x5A, 0x99, 0x52, 0x27, 0x1E, 0x89, 0x45, 0x33, 0x5A, 0x99, 0x45, 0x2A, 0x1E, 0x89, 0x52, 0x3B, 0x5A, 0x99, 0x52, 0x27, 0x1E, 0x89, 0x45, 0x3F, 0x5A, 0x99, 0x45, 0x2A, 0x1E, 0x89, 0x52, 
	0x36, 0x5A, 0x99, 0x52, 0x27, 0x1E, 0x89, 0x45, 0x3E, 0x5A, 0x99, 0x45, 0x2A, 0x1E, 0x89, 0x52, 0x37, 0x5A, 0x99, 0x52, 0x27, 0x1E, 0x89, 0x45, 0x3D, 0x5A, 0x99, 0x45, 0x2A, 0x1E, 0x89, 0x52, 0x38, 0x5A, 0x99, 0x52, 0x27, 0x1E, 0x89, 0x45, 0x27, 0x5A, 0x99, 0x45, 0x2A, 0x1E, 0x89, 0x52, 0x2B, 0x5A, 0x99, 0x52, 0x27, 0x1E, 0x89, 0x45, 0x46, 0x5A, 0x99, 0x45, 0x2A, 0x1E, 0x89, 0x52, 
	0x34, 0x5A, 0x99, 0x52, 0x27, 0x1E, 0x89, 0x45, 0x40, 0x5A, 0x99, 0x45, 0x2A, 0x1E, 0x89, 0x52, 0x24, 0x5A, 0x99, 0x52, 0x27, 0x1E, 0x89, 0x45, 0x38, 0x5A, 0x99, 0x45, 0x2A, 0x1E, 0x89, 0x52, 0x20, 0x5A, 0x99, 0x52, 0x27, 0x1E, 0x89, 0x45, 0x33, 0x5A, 0x99, 0x45, 0x2A, 0x1E, 0x89, 0x52, 0x3B, 0x5A, 0x99, 0x52, 0x27, 0x1E, 0x89, 0x45, 0x3F, 0x5A, 0x99, 0x45, 0x2A, 0x1E, 0x89, 0x52, 
	0x36, 0x5A, 0x99, 0x52, 0x27, 0x1E, 0x89, 0x45, 0x3E, 0x5A, 0x99, 0x45, 0x2A, 0x1E, 0x89, 0x52, 0x37, 0x5A, 0x99, 0x52, 0x27, 0x1E, 0x89, 0x45, 0x3D, 0x5A, 0x99, 0x45, 0x2A, 0x1E, 0x89, 0x52, 0x38, 0x5A, 0x99, 0x52, 0x27, 0x1E, 0x89, 0x45, 0x27, 0x5A, 0x99, 0x45, 0x2A, 0x1E, 0x89, 0x52, 0x2B, 0x5A, 0x99, 0x52, 0x27, 0x1E, 0x89, 0x45, 0x46, 0x5A, 0x99, 0x45, 0x2A, 0x1E, 0x89, 0x52, 
	0x34, 0x5A, 0x99, 0x52, 0x27, 0x1E, 0x89, 0x45, 0x40, 0x5A, 0x99, 0x45, 0x2A, 0x1E, 0x89, 0x52, 0x24, 0x5A, 0x99, 0x52, 0x27, 0x1E, 0x89, 0x45, 0x38, 0x5A, 0x99, 0x45, 0x2A, 0x1E, 0x89, 0x52, 0x20, 0x5A, 0x99, 0x52, 0x27, 0x1E, 0x89, 0x45, 0x33, 0x5A, 0x99, 0x45, 0x2A, 0x1E, 0x89, 0x52, 0x3B, 0x5A, 0x99, 0x52, 0x27, 0x1E, 0x89, 0x45, 0x3F, 0x5A, 0x99, 0x45, 0x2A, 0x1E, 0x89, 0x52, 
	0x36, 0x5A, 0x99, 0x52, 0x27, 0x1E, 0x89, 0x45, 0x3E, 0x5A, 0x99, 0x45, 0x2A, 0x1E, 0x89, 0x52, 0x37, 0x5A, 0x99, 0x52, 0x27, 0x1E, 0x89, 0x45, 0x3D, 0x5A, 0x99, 0x45, 0x2A, 0x1E, 0x89, 0x52, 0x38, 0x5A, 0x99, 0x52, 0x27, 0x1E, 0x89, 0x45, 0x27, 0x5A, 0x99, 0x45, 0x2A, 0x1E, 0x89, 0x52, 0x2B, 0x5A, 0x99, 0x52, 0x27, 0x1E, 0x89, 0x45, 0x46, 0x5A, 0x99, 0x45, 0x2A, 0x1E, 0x89, 0x52, 
	0x34, 0x5A, 0x99, 0x52, 0x27, 0x1E, 0x89, 0x45, 0x40, 0x5A, 0x99, 0x45, 0x2A, 0x1E, 0x89, 0x52, 0x24, 0x5A, 0x99, 0x52, 0x27, 0x1E, 0x89, 0x45, 0x38, 0x5A, 0x99, 0x45, 0x2A, 0x1E, 0x89, 0x52, 0x20, 0x5A, 0x99, 0x52, 0x27, 0x1E, 0x89, 0x45, 0x33, 0x5A, 0x99, 0x45, 0x2A, 0x1E, 0x89, 0x52, 0x3B, 0x5A, 0x99, 0x52, 0x27, 0x1E, 0x89, 0x45, 0x3F, 0x5A, 0x99, 0x45, 0x2A, 0x1E, 0x89, 0x52, 
	0x36, 0x5A, 0x99, 0x52, 0x27, 0x1E, 0x89, 0x45, 0x3E, 0x5A, 0x99, 0x45, 0x2A, 0x1E, 0x89, 0x52, 0x37, 0x5A, 0x99, 0x52, 0x27, 0x1E, 0x89, 0x45, 0x3D, 0x5A, 0x99, 0x45, 0x2A, 0x1E, 0x89, 0x52, 0x38, 0x5A, 0x99, 0x52, 0x27, 0x1E, 0x89, 0x45, 0x27, 0x5A, 0x99, 0x45, 0x2A, 0x1E, 0x89, 0x52, 0x2B, 0x5A, 0x99, 0x52, 0x27, 0x1E, 0x89, 0x45, 0x46, 0x5A, 0x99, 0x45, 0x2A, 0x1E, 0x89, 0x52, 
	0x34, 0x5A, 0x99, 0x52, 0x27, 0x1E, 0x89, 0x45, 0x40, 0x5A, 0x99, 0x45, 0x2A, 0x1E, 0x89, 0x52, 0x24, 0x5A, 0x99, 0x52, 0x27, 0x1E, 0x89, 0x45, 0x38, 0x5A, 0x99, 0x45, 0x2A, 0x1E, 0x89, 0x52, 0x20, 0x5A, 0x99, 0x52, 0x27, 0x1E, 0x89, 0x45, 0x33, 0x5A, 0x99, 0x45, 0x2A, 0x1E, 0x89, 0x52, 0x3B, 0x5A, 0x99, 0x52, 0x27, 0x1E, 0x89, 0x45, 0x3F, 0x5A, 0x99, 0x45, 0x2A, 0x1E, 0x89, 0x52, 
	0x36, 0x5A, 0x99, 0x52, 0x27, 0x1E, 0x89, 0x45, 0x3E, 0x5A, 0x99, 0x45, 0x2A, 0x1E, 0x89, 0x52, 0x37, 0x5A, 0x99, 0x52, 0x27, 0x1E, 0x89, 0x45, 0x3D, 0x5A, 0x99, 0x45, 0x2A, 0x1E, 0x89, 0x52, 0x38, 0x5A, 0x99, 0x52, 0x27, 0x1E, 0x89, 0x45, 0x27, 0x5A, 0x99, 0x45, 0x2A, 0x1E, 0x89, 0x52, 0x2B, 0x5A, 0x99, 0x52, 0x27, 0x1E, 0x89, 0x45, 0x46, 0x5A, 0x99, 0x45, 0x2A, 0x1E, 0x89, 0x52, 
	0x34, 0x5A, 0x99, 0x52, 0x27, 0x1E, 0x89, 0x45, 0x40, 0x5A, 0x99, 0x45, 0x2A, 0x1E, 0x89, 0x52, 0x24, 0x5A, 0x99, 0x52, 0x27, 0x1E, 0x89, 0x45, 0x38, 0x5A, 0x99, 0x45, 0x2A, 0x1E, 0x89, 0x52, 0x20, 0x5A, 0x99, 0x52, 0x27, 0x1E, 0x89, 0x45, 0x33, 0x5A, 0x99, 0x45, 0x2A, 0x1E, 0x89, 0x52, 0x3B, 0x5A, 0x99, 0x52, 0x27, 0x1E, 0x89, 0x45, 0x3F, 0x5A, 0x99, 0x45, 0x2A, 0x1E, 0x89, 0x52, 
	0x36, 0x5A, 0x99, 0x52, 0x27, 0x1E, 0x89, 0x45, 0x3E, 0x5A, 0x99, 0x45, 0x2A, 0x1E, 0x89, 0x52, 0x37, 0x5A, 0x99, 0x52, 0x27, 0x1E, 0x89, 0x45, 0x3D, 0x5A, 0x99, 0x45, 0x2A, 0x1E, 0x89, 0x52, 0x38, 0x5A, 0x99, 0x52, 0x27, 0x1E, 0x89, 0x45, 0x27, 0x5A, 0x99, 0x45, 0x2A, 0x1E, 0x89, 0x52, 0x2B, 0x5A, 0x99, 0x52, 0x27, 0x1E, 0x89, 0x45, 0x46, 0x5A, 0x99, 0x45, 0x2A, 0x1E, 0x89, 0x52, 
	0x34, 0x5A, 0x99, 0x52, 0x27, 0x1E, 0x89, 0x45, 0x40, 0x5A, 0x99, 0x45, 0x2A, 0x1E, 0x89, 0x52, 0x24, 0x5A, 0x99, 0x52, 0x27, 0x1E, 0x89, 0x45, 0x38, 0x5A, 0x99, 0x45, 0x2A, 0x1E, 0x89, 0x52, 0x20, 0x5A, 0x99, 0x52, 0x27, 0x1E, 0x89, 0x45, 0x33, 0x5A, 0x99, 0x45, 0x2A, 0x1E, 0x89, 0x52, 0x3B, 0x5A, 0x99, 0x52, 0x27, 0x1E, 0x89, 0x45, 0x3F, 0x5A, 0x99, 0x45, 0x2A, 0x1E, 0x89, 0x52, 
	0x36, 0x5A, 0x99, 0x52, 0x27, 0x1E, 0x89, 0x45, 0x3E, 0x5A, 0x99, 0x45, 0x2A, 0x1E, 0x89, 0x52, 0x37, 0x5A, 0x99, 0x52, 0x27, 0x1E, 0x89, 0x45, 0x3D, 0x5A, 0x99, 0x45, 0x2A, 0x1E, 0x89, 0x52, 0x38, 0x5A, 0x99, 0x52, 0x27, 0x1E, 0x89, 0x45, 0x27, 0x5A, 0x99, 0x45, 0x2A, 0x1E, 0x89, 0x52, 0x2B, 0x5A, 0x99, 0x52, 0x27, 0x1E, 0x89, 0x45, 0x46, 0x5A, 0x99, 0x45, 0x2A, 0x1E, 0x89, 0x52, 
	0x34, 0x5A, 0x99, 0x52, 0x27, 0x1E, 0x89, 0x45, 0x40, 0x5A, 0x99, 0x45, 0x2A, 0x1E, 0x89, 0x52, 0x24, 0x5A, 0x99, 0x52, 0x27, 0x1E, 0x89, 0x45, 0x38, 0x5A, 0x99, 0x45, 0x2A, 0x1E, 0x89, 0x52, 0x20, 0x5A, 0x99, 0x52, 0x27, 0x1E, 0x89, 0x45, 0x33, 0x5A, 0x99, 0x45, 0x2A, 0x1E, 0x89, 0x52, 0x3B, 0x5A, 0x99, 0x52, 0x27, 0x1E, 0x89, 0x45, 0x3F, 0x5A, 0x99, 0x45, 0x2A, 0x1E, 0x89, 0x52, 
	0x36, 0x5A, 0x99, 0x52, 0x27, 0x1E, 0x89, 0x45, 0x3E, 0x5A, 0x99, 0x45, 0x2A, 0x1E, 0x89, 0x52, 0x37, 0x5A, 0x99, 0x52, 0x27, 0x1E, 0x89, 0x45, 0x3D, 0x5A, 0x99, 0x45, 0x2A, 0x1E, 0x89, 0x52, 0x38, 0x5A, 0x99, 0x52, 0x27, 0x1E, 0x89, 0x45, 0x27, 0x5A, 0x99, 0x45, 0x2A, 0x1E, 0x89, 0x52, 0x2B, 0x5A, 0x99, 0x52, 0x27, 0x1E, 0x89, 0x45, 0x46, 0x5A, 0x99, 0x45, 0x2A, 0x1E, 0x89, 0x52, 
	0x34, 0x5A, 0x99, 0x52, 0x27, 0x1E, 0x89, 0x45, 0x40, 0x5A, 0x99, 0x45, 0x2A, 0x1E, 0x89, 0x52, 0x24, 0x5A, 0x99, 0x52, 0x27, 0x1E, 0x89, 0x45, 0x38, 0x5A, 0x99, 0x45, 0x2A, 0x1E, 0x89, 0x52, 0x20, 0x5A, 0x99, 0x52, 0x27, 0x1E, 0x89, 0x45, 0x33, 0x5A, 0x99, 0x45, 0x2A, 0x1E, 0x89, 0x52, 0x3B, 0x5A, 0x99, 0x52, 0x27, 0x1E, 0x89, 0x45, 0x3F, 0x5A, 0x99, 0x45, 0x2A, 0x1E, 0x89, 0x52, 
	0x36, 0x5A, 0x99, 0x52, 0x27, 0x1E, 0x89, 0x45, 0x3E, 0x5A, 0x99, 0x45, 0x2A, 0x1E, 0x89, 0x52, 0x37, 0x5A, 0x99, 0x52, 0x27, 0x1E, 0x89, 0x45, 0x3D, 0x5A, 0x99, 0x45, 0x2A, 0x1E, 0x89, 0x52, 0x38, 0x5A, 0x99, 0x52, 0x27, 0x1E, 0x89, 0x45, 0x27, 0x5A, 0x99, 0x45, 0x2A, 0x1E, 0x89, 0x52, 0x2B, 0x5A, 0x99, 0x52, 0x27, 0x1E, 0x89, 0x45, 0x46, 0x5A, 0x99, 0x45, 0x2A, 0x1E, 0x89, 0x52, 
	0x34, 0x5A, 0x99, 0x52, 0x27, 0x1E, 0x89, 0x45, 0x40, 0x5A, 0x99, 0x45, 0x2A, 0x1E, 0x89, 0x52, 0x24, 0x5A, 0x99, 0x52, 0x27, 0x1E, 0x89, 0x45, 0x38, 0x5A, 0x99, 0x45, 0x2A, 0x1E, 0x89, 0x52, 0x20, 0x5A, 0x99, 0x52, 0x27, 0x1E, 0x89, 0x45, 0x33, 0x5A, 0x99, 0x45, 0x2A, 0x1E, 0x89, 0x52, 0x3B, 0x5A, 0x99, 0x52, 0x27, 0x1E, 0x89, 0x45, 0x3F, 0x5A, 0x99, 0x45, 0x2A, 0x1E, 0x89, 0x52, 
	0x36, 0x5A, 0x99, 0x52, 0x27, 0x1E, 0x89, 0x45, 0x3E, 0x5A, 0x99, 0x45, 0x2A, 0x1E, 0x89, 0x52, 0x37, 0x5A, 0x99, 0x52, 0x27, 0x1E, 0x89, 0x45, 0x3D, 0x5A, 0x99, 0x45, 0x2A, 0x1E, 0x89, 0x52, 0x38, 0x5A, 0x99, 0x52, 0x27, 0x1E, 0x89, 0x45, 0x27, 0x5A, 0x99, 0x45, 0x2A, 0x1E, 0x89, 0x52, 0x2B, 0x5A, 0x99, 0x52, 0x27, 0x1E, 0x89, 0x45, 0x46, 0x5A, 0x99, 0x45, 0x2A, 0x1E, 0x89, 0x52, 
	0x34, 0x5A, 0x99, 0x52, 0x27, 0x1E, 0x89, 0x45, 0x40, 0x5A, 0x99, 0x45, 0x2A, 0x1E, 0x89, 0x52, 0x24, 0x5A, 0x99, 0x52, 0x27, 0x1E, 0x89, 0x45, 0x38, 0x5A, 0x99, 0x45, 0x2A, 0x1E, 0x89, 0x52, 0x20, 0x5A, 0x99, 0x52, 0x27, 0x1E, 0x89, 0x45, 0x33, 0x5A, 0x99, 0x45, 0x2A, 0x1E, 0x89, 0x52, 0x3B, 0x5A, 0x99, 0x52, 0x27, 0x1E, 0x89, 0x45, 0x3F, 0x5A, 0x99, 0x45, 0x2A, 0x1E, 0x89, 0x52, 
	0x36, 0x5A, 0x99, 0x52, 0x27, 0x1E, 0x89, 0x45, 0x3E, 0x5A, 0x99, 0x45, 0x2A, 0x1E, 0x89, 0x52, 0x37, 0x5A, 0x99, 0x52, 0x27, 0x1E, 0x89, 0x45, 0x3D, 0x5A, 0x99, 0x45, 0x2A, 0x1E, 0x89, 0x52, 0x38, 0x5A, 0x99, 0x52, 0x27, 0x1E, 0x89, 0x45, 0x27, 0x5A, 0x99, 0x45, 0x2A, 0x1E, 0x89, 0x52, 0x2B, 0x5A, 0x99, 0x52, 0x27, 0x1E, 0x89, 0x45, 0x46, 0x5A, 0x99, 0x45, 0x2A, 0x1E, 0x89, 0x52, 
	0x34, 0x5A, 0x99, 0x52, 0x27, 0x1E, 0x89, 0x45, 0x40, 0x5A, 0x99, 0x45, 0x2A, 0x1E, 0x89, 0x52, 0x24, 0x5A, 0x99, 0x52, 0x27, 0x1E, 0x89, 0x45, 0x38, 0x5A, 0x99, 0x45, 0x2A, 0x1E, 0x89, 0x52, 0x20, 0x5A, 0x99, 0x52, 0x27, 0x1E, 0x89, 0x45, 0x33, 0x5A, 0x99, 0x45, 0x2A, 0x1E, 0x89, 0x52, 0x3B, 0x5A, 0x99, 0x52, 0x27, 0x1E, 0x89, 0x45, 0x3F, 0x5A, 0x99, 0x45, 0x2A, 0x1E, 0x89, 0x52, 
	0x36, 0x5A, 0x99, 0x52, 0x27, 0x1E, 0x89, 0x45, 0x3E, 0x5A, 0x99, 0x45, 0x2A, 0x1E, 0x89, 0x52, 0x37, 0x5A, 0x99, 0x52, 0x27, 0x1E, 0x89, 0x45, 0x3D, 0x5A, 0x99, 0x45, 0x2A, 0x1E, 0x89, 0x52, 0x38, 0x5A, 0x99, 0x52, 0x27, 0x1E, 0x89, 0x45, 0x27, 0x5A, 0x99, 0x45, 0x2A, 0x1E, 0x89, 0x52, 0x2B, 0x5A, 0x99, 0x52, 0x27, 0x1E, 0x89, 0x45, 0x46, 0x5A, 0x99, 0x45, 0x2A, 0x1E, 0x89, 0x52, 
	0x34, 0x5A, 0x99, 0x52, 0x27, 0x1E, 0x89, 0x45, 0x40, 0x5A, 0x99, 0x45, 0x2A, 0x1E, 0x89, 0x52, 0x24, 0x5A, 0x99, 0x52, 0x27, 0x1E, 0x89, 0x45, 0x38, 0x5A, 0x99, 0x45, 0x2A, 0x1E, 0x89, 0x52, 0x20, 0x5A, 0x99, 0x52, 0x27, 0x1E, 0x89, 0x45, 0x33, 0x5A, 0x99, 0x45, 0x2A, 0x1E, 0x89, 0x52, 0x3B, 0x5A, 0x99, 0x52, 0x27, 0x1E, 0x89, 0x45, 0x3F, 0x5A, 0x99, 0x45, 0x2A, 0x1E, 0x89, 0x52, 
	0x36, 0x5A, 0x99, 0x52, 0x27, 0x1E, 0x89, 0x45, 0x3E, 0x5A, 0x99, 0x45, 0x2A, 0x1E, 0x89, 0x52, 0x37, 0x5A, 0x99, 0x52, 0x27, 0x1E, 0x89, 0x45, 0x3D, 0x5A, 0x99, 0x45, 0x2A, 0x1E, 0x89, 0x52, 0x38, 0x5A, 0x99, 0x52, 0x27, 0x1E, 0x89, 0x45, 0x27, 0x5A, 0x99, 0x45, 0x2A, 0x1E, 0x89, 0x52, 0x2B, 0x5A, 0x99, 0x52, 0x27, 0x1E, 0x89, 0x45, 0x46, 0x5A, 0x99, 0x45, 0x2A, 0x1E, 0x89, 0x52, 
	0x34, 0x5A, 0x99, 0x52, 0x27, 0x1E, 0x89, 0x45, 0x40, 0x5A, 0x99, 0x45, 0x2A, 0x1E, 0x89, 0x52, 0x24, 0x5A, 0x99, 0x52, 0x27, 0x1E, 0x89, 0x45, 0x38, 0x5A, 0x99, 0x45, 0x2A, 0x1E, 0x89, 0x52, 0x20, 0x5A, 0x99, 0x52, 0x27, 0x1E, 0x89, 0x45, 0x33, 0x5A, 0x99, 0x45, 0x2A, 0x1E, 0x89, 0x52, 0x3B, 0x5A, 0x99, 0x52, 0x27, 0x1E, 0x89, 0x45, 0x3F, 0x5A, 0x99, 0x45, 0x2A, 0x1E, 0x89, 0x52, 
	0x36, 0x5A, 0x99, 0x52, 0x27, 0x1E, 0x89, 0x45, 0x3E, 0x5A, 0x99, 0x45, 0x2A, 0x1E, 0x89, 0x52, 0x37, 0x5A, 0x99, 0x52, 0x27, 0x1E, 0x89, 0x45, 0x3D, 0x5A, 0x99, 0x45, 0x2A, 0x1E, 0x89, 0x52, 0x38, 0x5A, 0x99, 0x52, 0x27, 0x1E, 0x89, 0x45, 0x27, 0x5A, 0x99, 0x45, 0x2A, 0x1E, 0x89, 0x52, 0x2B, 0x5A, 0x99, 0x52, 0x27, 0x1E, 0x89, 0x45, 0x46, 0x5A, 0x99, 0x45, 0x2A, 0x1E, 0x89, 0x52, 
	0x34, 0x5A, 0x99, 0x52, 0x27, 0x1E, 0x89, 0x45, 0x40, 0x5A, 0x99, 0x45, 0x2A, 0x1E, 0x89, 0x52, 0x24, 0x5A, 0x99, 0x52, 0x27, 0x1E, 0x89, 0x45, 0x38, 0x5A, 0x99, 0x45, 0x2A, 0x1E, 0x89, 0x52, 0x20, 0x5A, 0x99, 0x52, 0x27, 0x1E, 0x89, 0x45, 0x33, 0x5A, 0x99, 0x45, 0x2A, 0x1E, 0x89, 0x52, 0x3B, 0x5A, 0x99, 0x52, 0x27, 0x1E, 0x89, 0x45, 0x3F, 0x5A, 0x99, 0x45, 0x2A, 0x1E, 0x89, 0x52, 
	0x36, 0x5A, 0x99, 0x52, 0x27, 0x1E, 0x89, 0x45, 0x3E, 0x5A, 0x99, 0x45, 0x2A, 0x1E, 0x89, 0x52, 0x37, 0x5A, 0x99, 0x52, 0x27, 0x1E, 0x89, 0x45, 0x3D, 0x5A, 0x99, 0x45, 0x2A, 0x1E, 0x89, 0x52, 0x38, 0x5A, 0x99, 0x52, 0x27, 0x1E, 0x89, 0x45, 0x27, 0x5A, 0x99, 0x45, 0x2A, 0x1E, 0x89, 0x52, 0x2B, 0x5A, 0x99, 0x52, 0x27, 0x1E, 0x89, 0x45, 0x46, 0x5A, 0x99, 0x45, 0x2A, 0x1E, 0x89, 0x52, 
	0x34, 0x5A, 0x99, 0x52, 0x27, 0x1E, 0x89, 0x45, 0x40, 0x5A, 0x99, 0x45, 0x2A, 0x1E, 0x89, 0x52, 0x24, 0x5A, 0x99, 0x52, 0x27, 0x1E, 0x89, 0x45, 0x38, 0x5A, 0x99, 0x45, 0x2A, 0x1E, 0x89, 0x52, 0x20, 0x5A, 0x99, 0x52, 0x27, 0x1E, 0x89, 0x45, 0x33, 0x5A, 0x99, 0x45, 0x2A, 0x1E, 0x89, 0x52, 0x3B, 0x5A, 0x99, 0x52, 0x27, 0x1E, 0x89, 0x45, 0x3F, 0x5A, 0x99, 0x45, 0x2A, 0x1E, 0x89, 0x52, 
	0x36, 0x5A, 0x99, 0x52, 0x27, 0x1E, 0x89, 0x45, 0x3E, 0x5A, 0x99, 0x45, 0x2A, 0x1E, 0x89, 0x52, 0x37, 0x5A, 0x99, 0x52, 0x27, 0x1E, 0x89, 0x45, 0x3D, 0x78, 0x89, 0x52, 0x38, 0x00, 0xFF, 0x2F, 0x00, 0x4D, 0x54, 0x72, 0x6B, 0x00, 0x00, 0x06, 0x29, 0x00, 0xFF, 0x03, 0x02, 0x42, 0x44, 0x84, 0xBD, 0x60, 0x99, 0x24, 0x6A, 0x30, 0x89, 0x24, 0x64, 0x85, 0x20, 0x99, 0x24, 0x5C, 0x32, 0x89, 
	0x24, 0x54, 0x87, 0x0E, 0x99, 0x24, 0x4A, 0x3D, 0x89, 0x24, 0x41, 0x81, 0x33, 0x99, 0x24, 0x6A, 0x36, 0x89, 0x24, 0x58, 0x85, 0x1A, 0x99, 0x24, 0x5C, 0x49, 0x89, 0x24, 0x48, 0x85, 0x07, 0x99, 0x24, 0x67, 0x44, 0x89, 0x24, 0x53, 0x83, 0x1C, 0x99, 0x24, 0x6A, 0x30, 0x89, 0x24, 0x64, 0x85, 0x20, 0x99, 0x24, 0x5C, 0x32, 0x89, 0x24, 0x54, 0x87, 0x0E, 0x99, 0x24, 0x4A, 0x3D, 0x89, 0x24, 
	0x41, 0x81, 0x33, 0x99, 0x24, 0x6A, 0x36, 0x89, 0x24, 0x58, 0x85, 0x1A, 0x99, 0x24, 0x5C, 0x49, 0x89, 0x24, 0x48, 0x85, 0x07, 0x99, 0x24, 0x67, 0x44, 0x89, 0x24, 0x53, 0x83, 0x1C, 0x99, 0x24, 0x6A, 0x30, 0x89, 0x24, 0x64, 0x85, 0x20, 0x99, 0x24, 0x5C, 0x32, 0x89, 0x24, 0x54, 0x87, 0x0E, 0x99, 0x24, 0x4A, 0x3D, 0x89, 0x24, 0x41, 0x81, 0x33, 0x99, 0x24, 0x6A, 0x36, 0x89, 0x24, 0x58, 
	0x85, 0x1A, 0x99, 0x24, 0x5C, 0x49, 0x89, 0x24, 0x48, 0x85, 0x07, 0x99, 0x24, 0x67, 0x44, 0x89, 0x24, 0x53, 0x83, 0x1C, 0x99, 0x24, 0x6A, 0x30, 0x89, 0x24, 0x64, 0x85, 0x20, 0x99, 0x24, 0x5C, 0x32, 0x89, 0x24, 0x54, 0x87, 0x0E, 0x99, 0x24, 0x4A, 0x3D, 0x89, 0x24, 0x41, 0x81, 0x33, 0x99, 0x24, 0x6A, 0x36, 0x89, 0x24, 0x58, 0x85, 0x1A, 0x99, 0x24, 0x5C, 0x49, 0x89, 0x24, 0x48, 0x85, 
	0x07, 0x99, 0x24, 0x67, 0x44, 0x89, 0x24, 0x53, 0x83, 0x1C, 0x99, 0x24, 0x6A, 0x30, 0x89, 0x24, 0x64, 0x85, 0x20, 0x99, 0x24, 0x5C, 0x32, 0x89, 0x24, 0x54, 0x87, 0x0E, 0x99, 0x24, 0x4A, 0x3D, 0x89, 0x24, 0x41, 0x81, 0x33, 0x99, 0x24, 0x6A, 0x36, 0x89, 0x24, 0x58, 0x85, 0x1A, 0x99, 0x24, 0x5C, 0x49, 0x89, 0x24, 0x48, 0x85, 0x07, 0x99, 0x24, 0x67, 0x44, 0x89, 0x24, 0x53, 0x83, 0x1C, 
	0x99, 0x24, 0x6A, 0x30, 0x89, 0x24, 0x64, 0x85, 0x20, 0x99, 0x24, 0x5C, 0x32, 0x89, 0x24, 0x54, 0x87, 0x0E, 0x99, 0x24, 0x4A, 0x3D, 0x89, 0x24, 0x41, 0x81, 0x33, 0x99, 0x24, 0x6A, 0x36, 0x89, 0x24, 0x58, 0x85, 0x1A, 0x99, 0x24, 0x5C, 0x49, 0x89, 0x24, 0x48, 0x85, 0x07, 0x99, 0x24, 0x67, 0x44, 0x89, 0x24, 0x53, 0x83, 0x1C, 0x99, 0x24, 0x6A, 0x30, 0x89, 0x24, 0x64, 0x85, 0x20, 0x99, 
	0x24, 0x5C, 0x32, 0x89, 0x24, 0x54, 0x87, 0x0E, 0x99, 0x24, 0x4A, 0x3D, 0x89, 0x24, 0x41, 0x81, 0x33, 0x99, 0x24, 0x6A, 0x36, 0x89, 0x24, 0x58, 0x85, 0x1A, 0x99, 0x24, 0x5C, 0x49, 0x89, 0x24, 0x48, 0x85, 0x07, 0x99, 0x24, 0x67, 0x44, 0x89, 0x24, 0x53, 0x83, 0x1C, 0x99, 0x24, 0x6A, 0x30, 0x89, 0x24, 0x64, 0x85, 0x20, 0x99, 0x24, 0x5C, 0x32, 0x89, 0x24, 0x54, 0x87, 0x0E, 0x99, 0x24, 
	0x4A, 0x3D, 0x89, 0x24, 0x41, 0x81, 0x33, 0x99, 0x24, 0x6A, 0x36, 0x89, 0x24, 0x58, 0x85, 0x1A, 0x99, 0x24, 0x5C, 0x49, 0x89, 0x24, 0x48, 0x85, 0x07, 0x99, 0x24, 0x67, 0x44, 0x89, 0x24, 0x53, 0x83, 0x1C, 0x99, 0x24, 0x6A, 0x30, 0x89, 0x24, 0x64, 0x85, 0x20, 0x99, 0x24, 0x5C, 0x32, 0x89, 0x24, 0x54, 0x87, 0x0E, 0x99, 0x24, 0x4A, 0x3D, 0x89, 0x24, 0x41, 0x81, 0x33, 0x99, 0x24, 0x6A, 
	0x36, 0x89, 0x24, 0x58, 0x85, 0x1A, 0x99, 0x24, 0x5C, 0x49, 0x89, 0x24, 0x48, 0x85, 0x07, 0x99, 0x24, 0x67, 0x44, 0x89, 0x24, 0x53, 0xA1, 0x1C, 0x99, 0x24, 0x6A, 0x30, 0x89, 0x24, 0x64, 0x85, 0x20, 0x99, 0x24, 0x5C, 0x32, 0x89, 0x24, 0x54, 0x87, 0x0E, 0x99, 0x24, 0x4A, 0x3D, 0x89, 0x24, 0x41, 0x81, 0x33, 0x99, 0x24, 0x6A, 0x36, 0x89, 0x24, 0x58, 0x85, 0x1A, 0x99, 0x24, 0x5C, 0x49, 
	0x89, 0x24, 0x48, 0x85, 0x07, 0x99, 0x24, 0x67, 0x44, 0x89, 0x24, 0x53, 0x83, 0x1C, 0x99, 0x24, 0x6A, 0x30, 0x89, 0x24, 0x64, 0x85, 0x20, 0x99, 0x24, 0x5C, 0x32, 0x89, 0x24, 0x54, 0x87, 0x0E, 0x99, 0x24, 0x4A, 0x3D, 0x89, 0x24, 0x41, 0x81, 0x33, 0x99, 0x24, 0x6A, 0x36, 0x89, 0x24, 0x58, 0x85, 0x1A, 0x99, 0x24, 0x5C, 0x49, 0x89, 0x24, 0x48, 0x85, 0x07, 0x99, 0x24, 0x67, 0x44, 0x89, 
	0x24, 0x53, 0x83, 0x1C, 0x99, 0x24, 0x6A, 0x30, 0x89, 0x24, 0x64, 0x85, 0x20, 0x99, 0x24, 0x5C, 0x32, 0x89, 0x24, 0x54, 0x87, 0x0E, 0x99, 0x24, 0x4A, 0x3D, 0x89, 0x24, 0x41, 0x81, 0x33, 0x99, 0x24, 0x6A, 0x36, 0x89, 0x24, 0x58, 0x85, 0x1A, 0x99, 0x24, 0x5C, 0x49, 0x89, 0x24, 0x48, 0x85, 0x07, 0x99, 0x24, 0x67, 0x44, 0x89, 0x24, 0x53, 0x83, 0x1C, 0x99, 0x24, 0x6A, 0x30, 0x89, 0x24, 
	0x64, 0x85, 0x20, 0x99, 0x24, 0x5C, 0x32, 0x89, 0x24, 0x54, 0x87, 0x0E, 0x99, 0x24, 0x4A, 0x3D, 0x89, 0x24, 0x41, 0x81, 0x33, 0x99, 0x24, 0x6A, 0x36, 0x89, 0x24, 0x58, 0x85, 0x1A, 0x99, 0x24, 0x5C, 0x49, 0x89, 0x24, 0x48, 0x85, 0x07, 0x99, 0x24, 0x67, 0x44, 0x89, 0x24, 0x53, 0x83, 0x1C, 0x99, 0x24, 0x6A, 0x30, 0x89, 0x24, 0x64, 0x85, 0x20, 0x99, 0x24, 0x5C, 0x32, 0x89, 0x24, 0x54, 
	0x87, 0x0E, 0x99, 0x24, 0x4A, 0x3D, 0x89, 0x24, 0x41, 0x81, 0x33, 0x99, 0x24, 0x6A, 0x36, 0x89, 0x24, 0x58, 0x85, 0x1A, 0x99, 0x24, 0x5C, 0x49, 0x89, 0x24, 0x48, 0x85, 0x07, 0x99, 0x24, 0x67, 0x44, 0x89, 0x24, 0x53, 0x83, 0x1C, 0x99, 0x24, 0x6A, 0x30, 0x89, 0x24, 0x64, 0x85, 0x20, 0x99, 0x24, 0x5C, 0x32, 0x89, 0x24, 0x54, 0x87, 0x0E, 0x99, 0x24, 0x4A, 0x3D, 0x89, 0x24, 0x41, 0x81, 
	0x33, 0x99, 0x24, 0x6A, 0x36, 0x89, 0x24, 0x58, 0x85, 0x1A, 0x99, 0x24, 0x5C, 0x49, 0x89, 0x24, 0x48, 0x85, 0x07, 0x99, 0x24, 0x67, 0x44, 0x89, 0x24, 0x53, 0x83, 0x1C, 0x99, 0x24, 0x6A, 0x30, 0x89, 0x24, 0x64, 0x85, 0x20, 0x99, 0x24, 0x5C, 0x32, 0x89, 0x24, 0x54, 0x87, 0x0E, 0x99, 0x24, 0x4A, 0x3D, 0x89, 0x24, 0x41, 0x81, 0x33, 0x99, 0x24, 0x6A, 0x36, 0x89, 0x24, 0x58, 0x85, 0x1A, 
	0x99, 0x24, 0x5C, 0x49, 0x89, 0x24, 0x48, 0x85, 0x07, 0x99, 0x24, 0x67, 0x44, 0x89, 0x24, 0x53, 0x83, 0x1C, 0x99, 0x24, 0x77, 0x2D, 0x89, 0x24, 0x7E, 0x83, 0x33, 0x99, 0x24, 0x68, 0x38, 0x89, 0x24, 0x71, 0x83, 0x28, 0x99, 0x24, 0x65, 0x30, 0x89, 0x24, 0x6B, 0x83, 0x30, 0x99, 0x24, 0x58, 0x34, 0x89, 0x24, 0x61, 0x83, 0x2C, 0x99, 0x24, 0x65, 0x30, 0x89, 0x24, 0x65, 0x83, 0x30, 0x99, 
	0x24, 0x5C, 0x30, 0x89, 0x24, 0x6A, 0x83, 0x30, 0x99, 0x24, 0x56, 0x39, 0x89, 0x24, 0x5A, 0x83, 0x27, 0x99, 0x24, 0x5F, 0x36, 0x89, 0x24, 0x5D, 0x83, 0x2A, 0x99, 0x24, 0x60, 0x3D, 0x89, 0x24, 0x60, 0x83, 0x23, 0x99, 0x24, 0x5D, 0x44, 0x89, 0x24, 0x43, 0x83, 0x1C, 0x99, 0x24, 0x60, 0x3A, 0x89, 0x24, 0x5B, 0x83, 0x26, 0x99, 0x24, 0x5D, 0x34, 0x89, 0x24, 0x61, 0x83, 0x2C, 0x99, 0x24, 
	0x66, 0x3A, 0x89, 0x24, 0x65, 0x83, 0x26, 0x99, 0x24, 0x5F, 0x39, 0x89, 0x24, 0x52, 0x83, 0x27, 0x99, 0x24, 0x5C, 0x3D, 0x89, 0x24, 0x54, 0x83, 0x23, 0x99, 0x24, 0x61, 0x43, 0x89, 0x24, 0x5F, 0x81, 0x2D, 0x99, 0x24, 0x53, 0x22, 0x89, 0x24, 0x4D, 0x81, 0x4E, 0x99, 0x24, 0x5F, 0x27, 0x89, 0x24, 0x6D, 0x83, 0x39, 0x99, 0x24, 0x58, 0x38, 0x89, 0x24, 0x6D, 0x83, 0x28, 0x99, 0x24, 0x65, 
	0x3D, 0x89, 0x24, 0x65, 0x83, 0x23, 0x99, 0x24, 0x60, 0x3A, 0x89, 0x24, 0x62, 0x83, 0x26, 0x99, 0x24, 0x62, 0x3C, 0x89, 0x24, 0x60, 0x83, 0x24, 0x99, 0x24, 0x53, 0x2C, 0x89, 0x24, 0x79, 0x83, 0x34, 0x99, 0x24, 0x61, 0x34, 0x89, 0x24, 0x5D, 0x83, 0x2C, 0x99, 0x24, 0x5D, 0x30, 0x89, 0x24, 0x73, 0x83, 0x30, 0x99, 0x24, 0x64, 0x36, 0x89, 0x24, 0x64, 0x83, 0x2A, 0x99, 0x24, 0x5F, 0x30, 
	0x89, 0x24, 0x65, 0x83, 0x30, 0x99, 0x24, 0x60, 0x34, 0x89, 0x24, 0x73, 0x83, 0x2C, 0x99, 0x24, 0x5C, 0x32, 0x89, 0x24, 0x65, 0x83, 0x2E, 0x99, 0x24, 0x5A, 0x32, 0x89, 0x24, 0x65, 0x8E, 0x4E, 0x99, 0x24, 0x47, 0x2D, 0x89, 0x24, 0x61, 0xAC, 0x53, 0x99, 0x24, 0x59, 0x33, 0x89, 0x24, 0x5A, 0x85, 0x1D, 0x99, 0x24, 0x24, 0x27, 0x89, 0x24, 0x21, 0x81, 0x49, 0x99, 0x24, 0x52, 0x39, 0x89, 
	0x24, 0x3B, 0x87, 0x07, 0x99, 0x24, 0x39, 0x3C, 0x89, 0x24, 0x2F, 0x87, 0x04, 0x99, 0x24, 0x3A, 0x32, 0x89, 0x24, 0x30, 0x87, 0x0E, 0x99, 0x24, 0x48, 0x31, 0x89, 0x24, 0x1D, 0x87, 0x0F, 0x99, 0x24, 0x4D, 0x39, 0x89, 0x24, 0x39, 0x87, 0x07, 0x99, 0x24, 0x47, 0x3A, 0x89, 0x24, 0x31, 0x85, 0x16, 0x99, 0x24, 0x3B, 0x3D, 0x89, 0x24, 0x36, 0x81, 0x33, 0x99, 0x24, 0x5B, 0x38, 0x89, 0x24, 
	0x55, 0x87, 0x08, 0x99, 0x24, 0x55, 0x35, 0x89, 0x24, 0x44, 0x87, 0x0B, 0x99, 0x24, 0x52, 0x36, 0x89, 0x24, 0x49, 0x87, 0x0A, 0x99, 0x24, 0x5A, 0x4F, 0x89, 0x24, 0x3F, 0x85, 0x01, 0x99, 0x24, 0x3C, 0x35, 0x89, 0x24, 0x40, 0x81, 0x3B, 0x99, 0x24, 0x51, 0x39, 0x89, 0x24, 0x3D, 0x83, 0x27, 0x99, 0x24, 0x42, 0x3F, 0x89, 0x24, 0x34, 0x83, 0x21, 0x99, 0x24, 0x56, 0x39, 0x89, 0x24, 0x52, 
	0x87, 0x07, 0x99, 0x24, 0x5D, 0x3A, 0x89, 0x24, 0x41, 0x87, 0x06, 0x99, 0x24, 0x54, 0x34, 0x89, 0x24, 0x51, 0x87, 0x0C, 0x99, 0x24, 0x3B, 0x35, 0x89, 0x24, 0x41, 0x83, 0x2B, 0x99, 0x24, 0x3D, 0x30, 0x89, 0x24, 0x25, 0x83, 0x30, 0x99, 0x24, 0x59, 0x33, 0x89, 0x24, 0x5A, 0x85, 0x1D, 0x99, 0x24, 0x24, 0x27, 0x89, 0x24, 0x21, 0x81, 0x49, 0x99, 0x24, 0x52, 0x39, 0x89, 0x24, 0x3B, 0x87, 
	0x07, 0x99, 0x24, 0x39, 0x3C, 0x89, 0x24, 0x2F, 0x87, 0x04, 0x99, 0x24, 0x3A, 0x32, 0x89, 0x24, 0x30, 0x87, 0x0E, 0x99, 0x24, 0x48, 0x31, 0x89, 0x24, 0x1D, 0x87, 0x0F, 0x99, 0x24, 0x4D, 0x39, 0x89, 0x24, 0x39, 0x87, 0x07, 0x99, 0x24, 0x47, 0x3A, 0x89, 0x24, 0x31, 0x85, 0x16, 0x99, 0x24, 0x3B, 0x3D, 0x89, 0x24, 0x36, 0x81, 0x33, 0x99, 0x24, 0x5B, 0x38, 0x89, 0x24, 0x55, 0x87, 0x08, 
	0x99, 0x24, 0x55, 0x35, 0x89, 0x24, 0x44, 0x87, 0x0B, 0x99, 0x24, 0x52, 0x36, 0x89, 0x24, 0x49, 0x87, 0x0A, 0x99, 0x24, 0x5A, 0x4F, 0x89, 0x24, 0x3F, 0x85, 0x01, 0x99, 0x24, 0x3C, 0x35, 0x89, 0x24, 0x40, 0x81, 0x3B, 0x99, 0x24, 0x51, 0x39, 0x89, 0x24, 0x3D, 0x83, 0x27, 0x99, 0x24, 0x42, 0x3F, 0x89, 0x24, 0x34, 0x83, 0x21, 0x99, 0x24, 0x56, 0x39, 0x89, 0x24, 0x52, 0x87, 0x07, 0x99, 
	0x24, 0x5D, 0x3A, 0x89, 0x24, 0x41, 0x87, 0x06, 0x99, 0x24, 0x54, 0x34, 0x89, 0x24, 0x51, 0x87, 0x0C, 0x99, 0x24, 0x3B, 0x35, 0x89, 0x24, 0x41, 0x83, 0x2B, 0x99, 0x24, 0x3D, 0x30, 0x89, 0x24, 0x25, 0x83, 0x30, 0x99, 0x24, 0x56, 0x39, 0x89, 0x24, 0x52, 0x87, 0x07, 0x99, 0x24, 0x5D, 0x3A, 0x89, 0x24, 0x41, 0x87, 0x06, 0x99, 0x24, 0x54, 0x34, 0x89, 0x24, 0x51, 0x87, 0x0C, 0x99, 0x24, 
	0x3B, 0x35, 0x89, 0x24, 0x41, 0x83, 0x2B, 0x99, 0x24, 0x3D, 0x30, 0x89, 0x24, 0x25, 0x00, 0xFF, 0x2F, 0x00, 0x4D, 0x54, 0x72, 0x6B, 0x00, 0x00, 0x03, 0xE7, 0x00, 0xFF, 0x03, 0x01, 0x54, 0x81, 0x70, 0xB9, 0x79, 0x00, 0x0A, 0xB9, 0x00, 0x00, 0x0A, 0xC9, 0x04, 0x0A, 0xB9, 0x0B, 0x7F, 0x0A, 0xB9, 0x07, 0x34, 0x0A, 0xB9, 0x0A, 0x68, 0x0A, 0xB9, 0x5B, 0x1E, 0x0A, 0xB9, 0x5D, 0x0A, 0x0A, 
	0xB9, 0x01, 0x00, 0x0A, 0xB9, 0x65, 0x00, 0x0A, 0xB9, 0x64, 0x00, 0x0A, 0xB9, 0x06, 0x02, 0x0A, 0xB9, 0x65, 0x7F, 0x0A, 0xB9, 0x64, 0x7F, 0x0A, 0xB9, 0x06, 0x00, 0x0A, 0xE9, 0x00, 0x40, 0x84, 0xEB, 0x3A, 0x99, 0x51, 0x33, 0x81, 0x70, 0x89, 0x51, 0x7F, 0x83, 0x60, 0x99, 0x51, 0x0E, 0x1E, 0x89, 0x51, 0x1B, 0x00, 0x99, 0x51, 0x17, 0x1E, 0x89, 0x51, 0x2D, 0x00, 0x99, 0x51, 0x1C, 0x1E, 
	0x89, 0x51, 0x2F, 0x00, 0x99, 0x51, 0x1F, 0x1E, 0x89, 0x51, 0x39, 0x00, 0x99, 0x51, 0x26, 0x1E, 0x89, 0x51, 0x48, 0x00, 0x99, 0x51, 0x2A, 0x1E, 0x89, 0x51, 0x48, 0x00, 0x99, 0x51, 0x2F, 0x1E, 0x89, 0x51, 0x5F, 0x00, 0x99, 0x51, 0x34, 0x1E, 0x89, 0x51, 0x58, 0x00, 0x99, 0x51, 0x37, 0x81, 0x70, 0x89, 0x51, 0x7F, 0xB2, 0x50, 0x99, 0x51, 0x33, 0x81, 0x70, 0x89, 0x51, 0x7F, 0x83, 0x60, 
	0x99, 0x51, 0x0E, 0x1E, 0x89, 0x51, 0x1B, 0x00, 0x99, 0x51, 0x17, 0x1E, 0x89, 0x51, 0x2D, 0x00, 0x99, 0x51, 0x1C, 0x1E, 0x89, 0x51, 0x2F, 0x00, 0x99, 0x51, 0x1F, 0x1E, 0x89, 0x51, 0x39, 0x00, 0x99, 0x51, 0x26, 0x1E, 0x89, 0x51, 0x48, 0x00, 0x99, 0x51, 0x2A, 0x1E, 0x89, 0x51, 0x48, 0x00, 0x99, 0x51, 0x2F, 0x1E, 0x89, 0x51, 0x5F, 0x00, 0x99, 0x51, 0x34, 0x1E, 0x89, 0x51, 0x58, 0x00, 
	0x99, 0x51, 0x37, 0x81, 0x70, 0x89, 0x51, 0x7F, 0xB2, 0x50, 0x99, 0x51, 0x33, 0x81, 0x70, 0x89, 0x51, 0x7F, 0x83, 0x60, 0x99, 0x51, 0x0E, 0x1E, 0x89, 0x51, 0x1B, 0x00, 0x99, 0x51, 0x17, 0x1E, 0x89, 0x51, 0x2D, 0x00, 0x99, 0x51, 0x1C, 0x1E, 0x89, 0x51, 0x2F, 0x00, 0x99, 0x51, 0x1F, 0x1E, 0x89, 0x51, 0x39, 0x00, 0x99, 0x51, 0x26, 0x1E, 0x89, 0x51, 0x48, 0x00, 0x99, 0x51, 0x2A, 0x1E, 
	0x89, 0x51, 0x48, 0x00, 0x99, 0x51, 0x2F, 0x1E, 0x89, 0x51, 0x5F, 0x00, 0x99, 0x51, 0x34, 0x1E, 0x89, 0x51, 0x58, 0x00, 0x99, 0x51, 0x37, 0x81, 0x70, 0x89, 0x51, 0x7F, 0xB2, 0x50, 0x99, 0x51, 0x33, 0x81, 0x70, 0x89, 0x51, 0x7F, 0x83, 0x60, 0x99, 0x51, 0x0E, 0x1E, 0x89, 0x51, 0x1B, 0x00, 0x99, 0x51, 0x17, 0x1E, 0x89, 0x51, 0x2D, 0x00, 0x99, 0x51, 0x1C, 0x1E, 0x89, 0x51, 0x2F, 0x00, 
	0x99, 0x51, 0x1F, 0x1E, 0x89, 0x51, 0x39, 0x00, 0x99, 0x51, 0x26, 0x1E, 0x89, 0x51, 0x48, 0x00, 0x99, 0x51, 0x2A, 0x1E, 0x89, 0x51, 0x48, 0x00, 0x99, 0x51, 0x2F, 0x1E, 0x89, 0x51, 0x5F, 0x00, 0x99, 0x51, 0x34, 0x1E, 0x89, 0x51, 0x58, 0x00, 0x99, 0x51, 0x37, 0x81, 0x70, 0x89, 0x51, 0x7F, 0xEE, 0x50, 0x99, 0x51, 0x33, 0x81, 0x70, 0x89, 0x51, 0x7F, 0x83, 0x60, 0x99, 0x51, 0x0E, 0x1E, 
	0x89, 0x51, 0x1B, 0x00, 0x99, 0x51, 0x17, 0x1E, 0x89, 0x51, 0x2D, 0x00, 0x99, 0x51, 0x1C, 0x1E, 0x89, 0x51, 0x2F, 0x00, 0x99, 0x51, 0x1F, 0x1E, 0x89, 0x51, 0x39, 0x00, 0x99, 0x51, 0x26, 0x1E, 0x89, 0x51, 0x48, 0x00, 0x99, 0x51, 0x2A, 0x1E, 0x89, 0x51, 0x48, 0x00, 0x99, 0x51, 0x2F, 0x1E, 0x89, 0x51, 0x5F, 0x00, 0x99, 0x51, 0x34, 0x1E, 0x89, 0x51, 0x58, 0x00, 0x99, 0x51, 0x37, 0x81, 
	0x70, 0x89, 0x51, 0x7F, 0xB2, 0x50, 0x99, 0x51, 0x33, 0x81, 0x70, 0x89, 0x51, 0x7F, 0x83, 0x60, 0x99, 0x51, 0x0E, 0x1E, 0x89, 0x51, 0x1B, 0x00, 0x99, 0x51, 0x17, 0x1E, 0x89, 0x51, 0x2D, 0x00, 0x99, 0x51, 0x1C, 0x1E, 0x89, 0x51, 0x2F, 0x00, 0x99, 0x51, 0x1F, 0x1E, 0x89, 0x51, 0x39, 0x00, 0x99, 0x51, 0x26, 0x1E, 0x89, 0x51, 0x48, 0x00, 0x99, 0x51, 0x2A, 0x1E, 0x89, 0x51, 0x48, 0x00, 
	0x99, 0x51, 0x2F, 0x1E, 0x89, 0x51, 0x5F, 0x00, 0x99, 0x51, 0x34, 0x1E, 0x89, 0x51, 0x58, 0x00, 0x99, 0x51, 0x37, 0x81, 0x70, 0x89, 0x51, 0x7F, 0xB2, 0x50, 0x99, 0x51, 0x33, 0x81, 0x70, 0x89, 0x51, 0x7F, 0x83, 0x60, 0x99, 0x51, 0x0E, 0x1E, 0x89, 0x51, 0x1B, 0x00, 0x99, 0x51, 0x17, 0x1E, 0x89, 0x51, 0x2D, 0x00, 0x99, 0x51, 0x1C, 0x1E, 0x89, 0x51, 0x2F, 0x00, 0x99, 0x51, 0x1F, 0x1E, 
	0x89, 0x51, 0x39, 0x00, 0x99, 0x51, 0x26, 0x1E, 0x89, 0x51, 0x48, 0x00, 0x99, 0x51, 0x2A, 0x1E, 0x89, 0x51, 0x48, 0x00, 0x99, 0x51, 0x2F, 0x1E, 0x89, 0x51, 0x5F, 0x00, 0x99, 0x51, 0x34, 0x1E, 0x89, 0x51, 0x58, 0x00, 0x99, 0x51, 0x37, 0x81, 0x70, 0x89, 0x51, 0x7F, 0x81, 0xF4, 0x58, 0x99, 0x51, 0x2C, 0x81, 0x70, 0x89, 0x51, 0x7F, 0x83, 0x60, 0x99, 0x51, 0x08, 0x1E, 0x89, 0x51, 0x1B, 
	0x00, 0x99, 0x51, 0x11, 0x1E, 0x89, 0x51, 0x2D, 0x00, 0x99, 0x51, 0x16, 0x1E, 0x89, 0x51, 0x2F, 0x00, 0x99, 0x51, 0x18, 0x1E, 0x89, 0x51, 0x39, 0x00, 0x99, 0x51, 0x1F, 0x1E, 0x89, 0x51, 0x48, 0x00, 0x99, 0x51, 0x23, 0x1E, 0x89, 0x51, 0x48, 0x00, 0x99, 0x51, 0x27, 0x1E, 0x89, 0x51, 0x5F, 0x00, 0x99, 0x51, 0x2D, 0x1E, 0x89, 0x51, 0x58, 0x00, 0x99, 0x51, 0x30, 0x81, 0x70, 0x89, 0x51, 
	0x7F, 0xB2, 0x50, 0x99, 0x51, 0x2C, 0x81, 0x70, 0x89, 0x51, 0x7F, 0x83, 0x60, 0x99, 0x51, 0x08, 0x1E, 0x89, 0x51, 0x1B, 0x00, 0x99, 0x51, 0x11, 0x1E, 0x89, 0x51, 0x2D, 0x00, 0x99, 0x51, 0x16, 0x1E, 0x89, 0x51, 0x2F, 0x00, 0x99, 0x51, 0x18, 0x1E, 0x89, 0x51, 0x39, 0x00, 0x99, 0x51, 0x1F, 0x1E, 0x89, 0x51, 0x48, 0x00, 0x99, 0x51, 0x23, 0x1E, 0x89, 0x51, 0x48, 0x00, 0x99, 0x51, 0x27, 
	0x1E, 0x89, 0x51, 0x5F, 0x00, 0x99, 0x51, 0x2D, 0x1E, 0x89, 0x51, 0x58, 0x00, 0x99, 0x51, 0x30, 0x81, 0x70, 0x89, 0x51, 0x7F, 0xB2, 0x50, 0x99, 0x51, 0x2C, 0x81, 0x70, 0x89, 0x51, 0x7F, 0x83, 0x60, 0x99, 0x51, 0x08, 0x1E, 0x89, 0x51, 0x1B, 0x00, 0x99, 0x51, 0x11, 0x1E, 0x89, 0x51, 0x2D, 0x00, 0x99, 0x51, 0x16, 0x1E, 0x89, 0x51, 0x2F, 0x00, 0x99, 0x51, 0x18, 0x1E, 0x89, 0x51, 0x39, 
	0x00, 0x99, 0x51, 0x1F, 0x1E, 0x89, 0x51, 0x48, 0x00, 0x99, 0x51, 0x23, 0x1E, 0x89, 0x51, 0x48, 0x00, 0x99, 0x51, 0x27, 0x1E, 0x89, 0x51, 0x5F, 0x00, 0x99, 0x51, 0x2D, 0x1E, 0x89, 0x51, 0x58, 0x00, 0x99, 0x51, 0x30, 0x81, 0x70, 0x89, 0x51, 0x7F, 0xB2, 0x50, 0x99, 0x51, 0x2C, 0x81, 0x70, 0x89, 0x51, 0x7F, 0x83, 0x60, 0x99, 0x51, 0x08, 0x1E, 0x89, 0x51, 0x1B, 0x00, 0x99, 0x51, 0x11, 
	0x1E, 0x89, 0x51, 0x2D, 0x00, 0x99, 0x51, 0x16, 0x1E, 0x89, 0x51, 0x2F, 0x00, 0x99, 0x51, 0x18, 0x1E, 0x89, 0x51, 0x39, 0x00, 0x99, 0x51, 0x1F, 0x1E, 0x89, 0x51, 0x48, 0x00, 0x99, 0x51, 0x23, 0x1E, 0x89, 0x51, 0x48, 0x00, 0x99, 0x51, 0x27, 0x1E, 0x89, 0x51, 0x5F, 0x00, 0x99, 0x51, 0x2D, 0x1E, 0x89, 0x51, 0x58, 0x00, 0x99, 0x51, 0x30, 0x81, 0x70, 0x89, 0x51, 0x7F, 0x00, 0xFF, 0x2F, 
	0x00, 0x4D, 0x54, 0x72, 0x6B, 0x00, 0x00, 0x00, 0x0D, 0x00, 0xFF, 0x03, 0x00, 0x00, 0xFF, 0x20, 0x01, 0x00, 0x00, 0xFF, 0x2F, 0x00, 0x4D, 0x54, 0x72, 0x6B, 0x00, 0x00, 0x04, 0x37, 0x00, 0xFF, 0x03, 0x04, 0x42, 0x45, 0x4C, 0x4C, 0x81, 0x70, 0xB7, 0x79, 0x00, 0x0A, 0xB7, 0x00, 0x00, 0x0A, 0xC7, 0x0E, 0x0A, 0xB7, 0x0B, 0x7F, 0x0A, 0xB7, 0x07, 0x50, 0x0A, 0xB7, 0x0A, 0x28, 0x0A, 0xB7, 
	0x5B, 0x78, 0x0A, 0xB7, 0x5D, 0x14, 0x0A, 0xB7, 0x01, 0x00, 0x0A, 0xB7, 0x65, 0x00, 0x0A, 0xB7, 0x64, 0x00, 0x0A, 0xB7, 0x06, 0x02, 0x0A, 0xB7, 0x65, 0x7F, 0x0A, 0xB7, 0x64, 0x7F, 0x0A, 0xB7, 0x06, 0x00, 0x0A, 0xE7, 0x00, 0x40, 0x82, 0xE4, 0x7A, 0x97, 0x42, 0x46, 0x78, 0x97, 0x44, 0x58, 0x1B, 0x87, 0x42, 0x4D, 0x5D, 0x97, 0x46, 0x6E, 0x27, 0x87, 0x44, 0x54, 0x46, 0x87, 0x46, 0x58, 
	0x0B, 0x97, 0x48, 0x79, 0x78, 0x97, 0x49, 0x69, 0x15, 0x87, 0x48, 0x54, 0x8A, 0x07, 0x87, 0x49, 0x34, 0x81, 0x04, 0x97, 0x4B, 0x5B, 0x81, 0x6F, 0x87, 0x4B, 0x2D, 0x01, 0x97, 0x49, 0x5E, 0x81, 0x41, 0x87, 0x49, 0x42, 0x2F, 0x97, 0x49, 0x63, 0x83, 0x60, 0x97, 0x44, 0x55, 0x0B, 0x87, 0x49, 0x2E, 0x89, 0x18, 0x87, 0x44, 0x42, 0x81, 0x7D, 0x97, 0x49, 0x6D, 0x88, 0x16, 0x87, 0x49, 0x0C, 
	0x81, 0x1A, 0x97, 0x4D, 0x67, 0x81, 0x70, 0x97, 0x4B, 0x4E, 0x12, 0x87, 0x4D, 0x27, 0x83, 0x3F, 0x87, 0x4B, 0x48, 0x0F, 0x97, 0x49, 0x54, 0x8A, 0x7D, 0x87, 0x49, 0x21, 0x23, 0x97, 0x4D, 0x52, 0x81, 0x70, 0x97, 0x4E, 0x71, 0x12, 0x87, 0x4D, 0x3B, 0x81, 0x54, 0x87, 0x4E, 0x5B, 0x0A, 0x97, 0x50, 0x63, 0x89, 0x38, 0x87, 0x50, 0x34, 0x81, 0x68, 0x97, 0x47, 0x6A, 0x83, 0x26, 0x87, 0x47, 
	0x42, 0x3A, 0x97, 0x49, 0x6E, 0x89, 0x36, 0x87, 0x49, 0x47, 0x81, 0x6A, 0x97, 0x4B, 0x46, 0x78, 0x97, 0x4C, 0x61, 0x20, 0x87, 0x4B, 0x19, 0x58, 0x97, 0x4E, 0x71, 0x09, 0x87, 0x4C, 0x48, 0x6F, 0x87, 0x4E, 0x48, 0x00, 0x97, 0x50, 0x67, 0x78, 0x97, 0x51, 0x68, 0x1B, 0x87, 0x50, 0x38, 0x87, 0x7F, 0x87, 0x51, 0x47, 0x81, 0x16, 0x97, 0x50, 0x6E, 0x81, 0x5B, 0x87, 0x50, 0x37, 0x15, 0x97, 
	0x4E, 0x75, 0x81, 0x63, 0x87, 0x4E, 0x3B, 0x0D, 0x97, 0x4C, 0x66, 0x81, 0x40, 0x87, 0x4C, 0x49, 0x30, 0x97, 0x4C, 0x60, 0x86, 0x19, 0x87, 0x4C, 0x30, 0x81, 0x27, 0x97, 0x4B, 0x4D, 0x83, 0x3E, 0x87, 0x4B, 0x27, 0x22, 0x97, 0x4C, 0x65, 0x72, 0x87, 0x4C, 0x51, 0x06, 0x97, 0x4E, 0x6B, 0x78, 0x97, 0x50, 0x62, 0x0D, 0x87, 0x4E, 0x59, 0x67, 0x87, 0x50, 0x2C, 0x04, 0x97, 0x51, 0x6B, 0x78, 
	0x97, 0x53, 0x75, 0x0C, 0x87, 0x51, 0x32, 0x87, 0x32, 0x87, 0x53, 0x23, 0x81, 0x72, 0x97, 0x51, 0x64, 0x82, 0x48, 0x87, 0x51, 0x4B, 0x20, 0x97, 0x50, 0x72, 0x81, 0x4C, 0x87, 0x50, 0x36, 0x24, 0x97, 0x4E, 0x7D, 0x6B, 0x87, 0x4E, 0x4E, 0x0D, 0x97, 0x4E, 0x76, 0x85, 0x2A, 0x87, 0x4E, 0x7F, 0x26, 0x97, 0x4C, 0x5B, 0x86, 0x73, 0x87, 0x4C, 0x42, 0x82, 0x3D, 0x97, 0x49, 0x54, 0x8B, 0x5F, 
	0x87, 0x49, 0x27, 0x81, 0x31, 0x97, 0x4B, 0x54, 0x75, 0x87, 0x4B, 0x35, 0x03, 0x97, 0x4C, 0x5E, 0x78, 0x97, 0x4E, 0x71, 0x10, 0x87, 0x4C, 0x25, 0x83, 0x31, 0x87, 0x4E, 0x30, 0x1F, 0x97, 0x4C, 0x5D, 0x83, 0x5F, 0x87, 0x4C, 0x32, 0x01, 0x97, 0x4B, 0x5C, 0x83, 0x60, 0x97, 0x47, 0x64, 0x0B, 0x87, 0x4B, 0x27, 0x83, 0x3A, 0x87, 0x47, 0x41, 0x1B, 0x97, 0x49, 0x6B, 0x98, 0x04, 0x87, 0x49, 
	0x39, 0x82, 0xAE, 0x1C, 0x97, 0x42, 0x46, 0x78, 0x97, 0x44, 0x58, 0x1B, 0x87, 0x42, 0x4D, 0x5D, 0x97, 0x46, 0x6E, 0x27, 0x87, 0x44, 0x54, 0x46, 0x87, 0x46, 0x58, 0x0B, 0x97, 0x48, 0x79, 0x78, 0x97, 0x49, 0x69, 0x15, 0x87, 0x48, 0x54, 0x8A, 0x07, 0x87, 0x49, 0x34, 0x81, 0x04, 0x97, 0x4B, 0x5B, 0x81, 0x6F, 0x87, 0x4B, 0x2D, 0x01, 0x97, 0x49, 0x5E, 0x81, 0x41, 0x87, 0x49, 0x42, 0x2F, 
	0x97, 0x49, 0x63, 0x83, 0x60, 0x97, 0x44, 0x55, 0x0B, 0x87, 0x49, 0x2E, 0x89, 0x18, 0x87, 0x44, 0x42, 0x81, 0x7D, 0x97, 0x49, 0x6D, 0x88, 0x16, 0x87, 0x49, 0x0C, 0x81, 0x1A, 0x97, 0x4D, 0x67, 0x81, 0x70, 0x97, 0x4B, 0x4E, 0x12, 0x87, 0x4D, 0x27, 0x83, 0x3F, 0x87, 0x4B, 0x48, 0x0F, 0x97, 0x49, 0x54, 0x8A, 0x7D, 0x87, 0x49, 0x21, 0x23, 0x97, 0x4D, 0x52, 0x81, 0x70, 0x97, 0x4E, 0x71, 
	0x12, 0x87, 0x4D, 0x3B, 0x81, 0x54, 0x87, 0x4E, 0x5B, 0x0A, 0x97, 0x50, 0x63, 0x89, 0x38, 0x87, 0x50, 0x34, 0x81, 0x68, 0x97, 0x47, 0x6A, 0x83, 0x26, 0x87, 0x47, 0x42, 0x3A, 0x97, 0x49, 0x6E, 0x89, 0x36, 0x87, 0x49, 0x47, 0x81, 0x6A, 0x97, 0x4B, 0x46, 0x78, 0x97, 0x4C, 0x61, 0x20, 0x87, 0x4B, 0x19, 0x58, 0x97, 0x4E, 0x71, 0x09, 0x87, 0x4C, 0x48, 0x6F, 0x87, 0x4E, 0x48, 0x00, 0x97, 
	0x50, 0x67, 0x78, 0x97, 0x51, 0x68, 0x1B, 0x87, 0x50, 0x38, 0x87, 0x7F, 0x87, 0x51, 0x47, 0x81, 0x16, 0x97, 0x50, 0x6E, 0x81, 0x5B, 0x87, 0x50, 0x37, 0x15, 0x97, 0x4E, 0x75, 0x81, 0x63, 0x87, 0x4E, 0x3B, 0x0D, 0x97, 0x4C, 0x66, 0x81, 0x40, 0x87, 0x4C, 0x49, 0x30, 0x97, 0x4C, 0x60, 0x86, 0x19, 0x87, 0x4C, 0x30, 0x81, 0x27, 0x97, 0x4B, 0x4D, 0x83, 0x3E, 0x87, 0x4B, 0x27, 0x22, 0x97, 
	0x4C, 0x65, 0x72, 0x87, 0x4C, 0x51, 0x06, 0x97, 0x4E, 0x6B, 0x78, 0x97, 0x50, 0x62, 0x0D, 0x87, 0x4E, 0x59, 0x67, 0x87, 0x50, 0x2C, 0x04, 0x97, 0x51, 0x6B, 0x78, 0x97, 0x53, 0x75, 0x0C, 0x87, 0x51, 0x32, 0x87, 0x32, 0x87, 0x53, 0x23, 0x81, 0x72, 0x97, 0x51, 0x64, 0x82, 0x48, 0x87, 0x51, 0x4B, 0x20, 0x97, 0x50, 0x72, 0x81, 0x4C, 0x87, 0x50, 0x36, 0x24, 0x97, 0x4E, 0x7D, 0x6B, 0x87, 
	0x4E, 0x4E, 0x0D, 0x97, 0x4E, 0x76, 0x85, 0x2A, 0x87, 0x4E, 0x7F, 0x26, 0x97, 0x4C, 0x5B, 0x86, 0x73, 0x87, 0x4C, 0x42, 0x82, 0x3D, 0x97, 0x49, 0x54, 0x8B, 0x5F, 0x87, 0x49, 0x27, 0x81, 0x31, 0x97, 0x4B, 0x54, 0x75, 0x87, 0x4B, 0x35, 0x03, 0x97, 0x4C, 0x5E, 0x78, 0x97, 0x4E, 0x71, 0x10, 0x87, 0x4C, 0x25, 0x83, 0x31, 0x87, 0x4E, 0x30, 0x1F, 0x97, 0x4C, 0x5D, 0x83, 0x5F, 0x87, 0x4C, 
	0x32, 0x01, 0x97, 0x4B, 0x5C, 0x83, 0x60, 0x97, 0x47, 0x64, 0x0B, 0x87, 0x4B, 0x27, 0x83, 0x3A, 0x87, 0x47, 0x41, 0x1B, 0x97, 0x49, 0x6B, 0x98, 0x04, 0x87, 0x49, 0x39, 0x83, 0xB8, 0x7C, 0x97, 0x61, 0x40, 0x1F, 0x87, 0x61, 0x56, 0x87, 0x21, 0x97, 0x63, 0x40, 0x31, 0x87, 0x63, 0x3D, 0x83, 0x2F, 0x97, 0x5C, 0x40, 0x23, 0x87, 0x5C, 0x3B, 0x83, 0x3D, 0x97, 0x61, 0x40, 0x2F, 0x87, 0x61, 
	0x51, 0x8E, 0x51, 0x97, 0x61, 0x40, 0x3A, 0x87, 0x61, 0x52, 0x87, 0x06, 0x97, 0x63, 0x40, 0x37, 0x87, 0x63, 0x4E, 0x83, 0x29, 0x97, 0x68, 0x40, 0x32, 0x87, 0x68, 0x4E, 0x83, 0x2E, 0x97, 0x65, 0x40, 0x37, 0x87, 0x65, 0x4D, 0x8E, 0x49, 0x97, 0x61, 0x40, 0x32, 0x87, 0x61, 0x39, 0x87, 0x0E, 0x97, 0x63, 0x40, 0x3F, 0x87, 0x63, 0x4E, 0x83, 0x21, 0x97, 0x5C, 0x40, 0x38, 0x87, 0x5C, 0x4C, 
	0x83, 0x28, 0x97, 0x61, 0x40, 0x33, 0x87, 0x61, 0x65, 0x8C, 0x5D, 0x97, 0x60, 0x40, 0x38, 0x87, 0x60, 0x58, 0x81, 0x38, 0x97, 0x61, 0x40, 0x29, 0x87, 0x61, 0x5A, 0x87, 0x17, 0x97, 0x60, 0x40, 0x48, 0x87, 0x60, 0x5B, 0x81, 0x28, 0x97, 0x5E, 0x40, 0x34, 0x87, 0x5E, 0x42, 0x81, 0x3C, 0x97, 0x5C, 0x40, 0x2D, 0x87, 0x5C, 0x46, 0x81, 0x43, 0x97, 0x60, 0x40, 0x31, 0x87, 0x60, 0x56, 0x81, 
	0x3F, 0x97, 0x61, 0x40, 0x33, 0x87, 0x61, 0x53, 0x8E, 0x4D, 0x97, 0x61, 0x40, 0x2F, 0x87, 0x61, 0x73, 0x00, 0xFF, 0x2F, 0x00, 0x4D, 0x54, 0x72, 0x6B, 0x00, 0x00, 0x04, 0x23, 0x00, 0xFF, 0x03, 0x05, 0x43, 0x48, 0x4F, 0x49, 0x52, 0x81, 0x70, 0xB8, 0x79, 0x00, 0x0A, 0xB8, 0x00, 0x00, 0x0A, 0xC8, 0x36, 0x0A, 0xB8, 0x0B, 0x7F, 0x0A, 0xB8, 0x07, 0x48, 0x0A, 0xB8, 0x0A, 0x60, 0x0A, 0xB8, 
	0x5B, 0x6E, 0x0A, 0xB8, 0x5D, 0x0A, 0x0A, 0xB8, 0x01, 0x00, 0x0A, 0xB8, 0x65, 0x00, 0x0A, 0xB8, 0x64, 0x00, 0x0A, 0xB8, 0x06, 0x02, 0x0A, 0xB8, 0x65, 0x7F, 0x0A, 0xB8, 0x64, 0x7F, 0x0A, 0xB8, 0x06, 0x00, 0x0A, 0xE8, 0x00, 0x40, 0xD3, 0x1A, 0x98, 0x38, 0x5B, 0x83, 0x60, 0x98, 0x3D, 0x62, 0x51, 0x88, 0x38, 0x5C, 0x83, 0x03, 0x88, 0x3D, 0x4B, 0x0C, 0x98, 0x3C, 0x62, 0x8E, 0x0C, 0x88, 
	0x3C, 0x21, 0x74, 0x98, 0x38, 0x5F, 0x8E, 0x1D, 0x88, 0x38, 0x3C, 0x63, 0x98, 0x38, 0x5C, 0x96, 0x40, 0x98, 0x3F, 0x61, 0x87, 0x2E, 0x88, 0x3F, 0x30, 0x12, 0x98, 0x3D, 0x60, 0x76, 0x88, 0x38, 0x1D, 0x8D, 0x73, 0x88, 0x3D, 0x4D, 0x17, 0x98, 0x3F, 0x62, 0x8E, 0x73, 0x88, 0x3F, 0x44, 0x0D, 0x98, 0x38, 0x66, 0x96, 0x40, 0x98, 0x3F, 0x64, 0x83, 0x60, 0x98, 0x3D, 0x68, 0x20, 0x88, 0x3F, 
	0x46, 0x83, 0x40, 0x88, 0x38, 0x58, 0x00, 0x98, 0x3C, 0x6F, 0x04, 0x88, 0x3D, 0x54, 0x87, 0x3C, 0x98, 0x44, 0x60, 0x86, 0x0B, 0x88, 0x3C, 0x17, 0x88, 0x75, 0x98, 0x46, 0x5A, 0x44, 0x88, 0x44, 0x2E, 0x86, 0x7C, 0x98, 0x44, 0x61, 0x36, 0x88, 0x46, 0x43, 0x87, 0x0A, 0x98, 0x4B, 0x5F, 0x83, 0x60, 0x98, 0x49, 0x4C, 0x81, 0x24, 0x88, 0x4B, 0x3F, 0x82, 0x3C, 0x98, 0x48, 0x53, 0x1D, 0x88, 
	0x49, 0x4D, 0x84, 0x27, 0x88, 0x44, 0x1E, 0x82, 0x7C, 0x98, 0x44, 0x54, 0x68, 0x88, 0x48, 0x31, 0x8E, 0x18, 0x98, 0x4B, 0x52, 0x95, 0x0F, 0x88, 0x44, 0x3A, 0x81, 0x31, 0x98, 0x44, 0x61, 0x2E, 0x88, 0x4B, 0x51, 0xB8, 0x65, 0x88, 0x44, 0x77, 0x81, 0xEB, 0x2D, 0x98, 0x38, 0x5B, 0x83, 0x60, 0x98, 0x3D, 0x62, 0x51, 0x88, 0x38, 0x5C, 0x83, 0x03, 0x88, 0x3D, 0x4B, 0x0C, 0x98, 0x3C, 0x62, 
	0x8E, 0x0C, 0x88, 0x3C, 0x21, 0x74, 0x98, 0x38, 0x5F, 0x8E, 0x1D, 0x88, 0x38, 0x3C, 0x63, 0x98, 0x38, 0x5C, 0x96, 0x40, 0x98, 0x3F, 0x61, 0x87, 0x2E, 0x88, 0x3F, 0x30, 0x12, 0x98, 0x3D, 0x60, 0x76, 0x88, 0x38, 0x1D, 0x8D, 0x73, 0x88, 0x3D, 0x4D, 0x17, 0x98, 0x3F, 0x62, 0x8E, 0x73, 0x88, 0x3F, 0x44, 0x0D, 0x98, 0x38, 0x66, 0x96, 0x40, 0x98, 0x3F, 0x64, 0x83, 0x60, 0x98, 0x3D, 0x68, 
	0x20, 0x88, 0x3F, 0x46, 0x83, 0x40, 0x88, 0x38, 0x58, 0x00, 0x98, 0x3C, 0x6F, 0x04, 0x88, 0x3D, 0x54, 0x87, 0x3C, 0x98, 0x44, 0x60, 0x86, 0x0B, 0x88, 0x3C, 0x17, 0x88, 0x75, 0x98, 0x46, 0x5A, 0x44, 0x88, 0x44, 0x2E, 0x86, 0x7C, 0x98, 0x44, 0x61, 0x36, 0x88, 0x46, 0x43, 0x87, 0x0A, 0x98, 0x4B, 0x5F, 0x83, 0x60, 0x98, 0x49, 0x4C, 0x81, 0x24, 0x88, 0x4B, 0x3F, 0x82, 0x3C, 0x98, 0x48, 
	0x53, 0x1D, 0x88, 0x49, 0x4D, 0x84, 0x27, 0x88, 0x44, 0x1E, 0x82, 0x7C, 0x98, 0x44, 0x54, 0x68, 0x88, 0x48, 0x31, 0x8E, 0x18, 0x98, 0x4B, 0x52, 0x95, 0x0F, 0x88, 0x44, 0x3A, 0x81, 0x31, 0x98, 0x44, 0x61, 0x2E, 0x88, 0x4B, 0x51, 0xB8, 0x65, 0x88, 0x44, 0x77, 0x81, 0xD4, 0x6D, 0x98, 0x3D, 0x5C, 0x83, 0x43, 0x88, 0x3D, 0x38, 0x1D, 0x98, 0x3C, 0x6A, 0x83, 0x60, 0x98, 0x3A, 0x66, 0x0A, 
	0x88, 0x3C, 0x3B, 0x8B, 0x16, 0x98, 0x38, 0x6B, 0x25, 0x88, 0x3A, 0x3A, 0x83, 0x3B, 0x98, 0x36, 0x71, 0x21, 0x88, 0x38, 0x2D, 0x8A, 0x7F, 0x98, 0x35, 0x6A, 0x34, 0x88, 0x36, 0x1A, 0x83, 0x2C, 0x98, 0x33, 0x65, 0x29, 0x88, 0x35, 0x4B, 0x86, 0x36, 0x88, 0x33, 0x2C, 0x84, 0x41, 0x98, 0x33, 0x54, 0x83, 0x47, 0x88, 0x33, 0x4C, 0x19, 0x98, 0x38, 0x64, 0x83, 0x60, 0x98, 0x3F, 0x6F, 0x11, 
	0x88, 0x38, 0x4D, 0x83, 0x4F, 0x98, 0x49, 0x6F, 0x18, 0x88, 0x3F, 0x41, 0x83, 0x48, 0x98, 0x48, 0x75, 0x06, 0x88, 0x49, 0x52, 0x83, 0x5A, 0x98, 0x46, 0x6A, 0x05, 0x88, 0x48, 0x64, 0x86, 0x67, 0x88, 0x46, 0x38, 0x54, 0x98, 0x46, 0x6D, 0x83, 0x36, 0x88, 0x46, 0x4D, 0x2A, 0x98, 0x44, 0x5D, 0x81, 0x70, 0x98, 0x49, 0x68, 0x30, 0x88, 0x44, 0x4D, 0x81, 0x40, 0x98, 0x42, 0x6B, 0x3D, 0x88, 
	0x49, 0x43, 0x85, 0x3F, 0x88, 0x42, 0x19, 0x81, 0x44, 0x98, 0x42, 0x75, 0x83, 0x5C, 0x88, 0x42, 0x2C, 0x04, 0x98, 0x41, 0x66, 0x81, 0x70, 0x98, 0x46, 0x5F, 0x40, 0x88, 0x41, 0x52, 0x81, 0x30, 0x98, 0x3F, 0x68, 0x37, 0x88, 0x46, 0x53, 0x83, 0x29, 0x98, 0x3D, 0x5F, 0x09, 0x88, 0x3F, 0x39, 0x83, 0x57, 0x98, 0x3B, 0x79, 0x0F, 0x88, 0x3D, 0x55, 0x8D, 0x11, 0x88, 0x3B, 0x16, 0x81, 0x60, 
	0x98, 0x3A, 0x60, 0x8E, 0x14, 0x88, 0x3A, 0x1D, 0x6C, 0x98, 0x3C, 0x5D, 0x8F, 0x00, 0x98, 0x3E, 0x54, 0x5B, 0x88, 0x3C, 0x02, 0x89, 0x79, 0x88, 0x3E, 0x46, 0x84, 0x2C, 0x98, 0x46, 0x59, 0x87, 0x24, 0x88, 0x46, 0x4C, 0x1C, 0x98, 0x48, 0x64, 0x87, 0x40, 0x98, 0x49, 0x5C, 0x2C, 0x88, 0x48, 0x2A, 0x87, 0x08, 0x88, 0x49, 0x55, 0x0C, 0x98, 0x48, 0x65, 0x83, 0x60, 0x98, 0x44, 0x5F, 0x81, 
	0x06, 0x88, 0x48, 0x29, 0x82, 0x5A, 0x98, 0x46, 0x5F, 0x03, 0x88, 0x44, 0x60, 0x87, 0x3D, 0x98, 0x48, 0x64, 0x49, 0x88, 0x46, 0x34, 0x86, 0x77, 0x98, 0x49, 0x54, 0x27, 0x88, 0x48, 0x55, 0x87, 0x19, 0x98, 0x44, 0x53, 0x86, 0x54, 0x88, 0x49, 0x1E, 0x02, 0x88, 0x44, 0x33, 0x6A, 0x98, 0x46, 0x52, 0x87, 0x40, 0x98, 0x48, 0x61, 0x2A, 0x88, 0x46, 0x3B, 0x87, 0x16, 0x98, 0x49, 0x5F, 0x2F, 
	0x88, 0x48, 0x46, 0x8A, 0x5F, 0x88, 0x49, 0x39, 0x12, 0x98, 0x50, 0x5F, 0x83, 0x60, 0x98, 0x46, 0x47, 0x51, 0x88, 0x50, 0x0C, 0x86, 0x6F, 0x98, 0x48, 0x5F, 0x1A, 0x88, 0x46, 0x2B, 0x87, 0x26, 0x98, 0x49, 0x54, 0x14, 0x88, 0x48, 0x48, 0x8E, 0x6C, 0x98, 0x46, 0x54, 0x33, 0x88, 0x49, 0x34, 0x86, 0x66, 0x88, 0x46, 0x3F, 0x27, 0x98, 0x48, 0x62, 0x87, 0x40, 0x98, 0x49, 0x61, 0x3E, 0x88, 
	0x48, 0x5C, 0x87, 0x02, 0x98, 0x50, 0x75, 0x82, 0x21, 0x88, 0x49, 0x22, 0x81, 0x3F, 0x98, 0x4D, 0x6A, 0x2D, 0x88, 0x50, 0x66, 0x83, 0x33, 0x98, 0x49, 0x5F, 0x0E, 0x88, 0x4D, 0x54, 0x87, 0x2F, 0x88, 0x49, 0x5A, 0x03, 0x98, 0x4B, 0x5B, 0x87, 0x40, 0x98, 0x4D, 0x62, 0x42, 0x88, 0x4B, 0x41, 0x86, 0x7E, 0x98, 0x54, 0x71, 0x83, 0x3F, 0x88, 0x54, 0x51, 0x21, 0x98, 0x55, 0x68, 0x82, 0x48, 
	0x88, 0x4D, 0x12, 0x81, 0x18, 0x98, 0x52, 0x5F, 0x21, 0x88, 0x55, 0x5C, 0x83, 0x3F, 0x98, 0x46, 0x3D, 0x82, 0x65, 0x88, 0x46, 0x15, 0x7B, 0x98, 0x50, 0x66, 0x09, 0x88, 0x52, 0x4E, 0x8E, 0x77, 0x98, 0x4D, 0x52, 0x81, 0x70, 0x98, 0x4B, 0x5D, 0x3E, 0x88, 0x4D, 0x4E, 0x35, 0x88, 0x50, 0x04, 0x7D, 0x98, 0x49, 0x5A, 0x3F, 0x88, 0x4B, 0x3F, 0x81, 0x31, 0x98, 0x48, 0x6A, 0x11, 0x88, 0x49, 
	0x43, 0x81, 0x5F, 0x98, 0x49, 0x5D, 0x11, 0x88, 0x48, 0x62, 0x87, 0x2F, 0x98, 0x4B, 0x5A, 0x18, 0x88, 0x49, 0x5D, 0x87, 0x28, 0x98, 0x4D, 0x56, 0x28, 0x88, 0x4B, 0x27, 0x8E, 0x58, 0x98, 0x49, 0x62, 0x14, 0x88, 0x4D, 0x3B, 0x87, 0x1B, 0x88, 0x49, 0x56, 0x11, 0x98, 0x4B, 0x68, 0x87, 0x40, 0x98, 0x4D, 0x62, 0x19, 0x88, 0x4B, 0x42, 0x8F, 0x46, 0x88, 0x4D, 0x7E, 0x00, 0xFF, 0x2F, 0x00, 
	0x4D, 0x54, 0x72, 0x6B, 0x00, 0x00, 0x01, 0x75, 0x00, 0xFF, 0x03, 0x03, 0x73, 0x74, 0x72, 0x81, 0x70, 0xBA, 0x79, 0x00, 0x0A, 0xBA, 0x00, 0x00, 0x0A, 0xCA, 0x31, 0x0A, 0xBA, 0x0B, 0x7F, 0x0A, 0xBA, 0x07, 0x30, 0x0A, 0xBA, 0x0A, 0x40, 0x0A, 0xBA, 0x5B, 0x78, 0x0A, 0xBA, 0x5D, 0x00, 0x0A, 0xBA, 0x01, 0x00, 0x0A, 0xBA, 0x65, 0x00, 0x0A, 0xBA, 0x64, 0x00, 0x0A, 0xBA, 0x06, 0x02, 0x0A, 
	0xBA, 0x65, 0x7F, 0x0A, 0xBA, 0x64, 0x7F, 0x0A, 0xBA, 0x06, 0x00, 0x0A, 0xEA, 0x00, 0x40, 0x82, 0xE8, 0x5A, 0x9A, 0x4E, 0x64, 0x8F, 0x00, 0x9A, 0x50, 0x66, 0x02, 0x8A, 0x4E, 0x7F, 0x8D, 0x66, 0x8A, 0x50, 0x41, 0x81, 0x18, 0x9A, 0x4E, 0x68, 0x8E, 0x14, 0x8A, 0x4E, 0x55, 0x6C, 0x9A, 0x50, 0x71, 0x8D, 0x64, 0x8A, 0x50, 0x55, 0x81, 0x1C, 0x9A, 0x4C, 0x68, 0x8E, 0x31, 0x8A, 0x4C, 0x38, 
	0x4F, 0x9A, 0x49, 0x62, 0x8D, 0x3E, 0x8A, 0x49, 0x2E, 0x81, 0x42, 0x9A, 0x4E, 0x73, 0x8E, 0x2F, 0x8A, 0x4E, 0x3D, 0x51, 0x9A, 0x4B, 0x62, 0x8E, 0x0A, 0x8A, 0x4B, 0x2F, 0x76, 0x9A, 0x50, 0x77, 0x8F, 0x00, 0x9A, 0x55, 0x6D, 0x0F, 0x8A, 0x50, 0x42, 0x8E, 0x1D, 0x8A, 0x55, 0x09, 0x54, 0x9A, 0x51, 0x68, 0x8F, 0x00, 0x9A, 0x53, 0x68, 0x07, 0x8A, 0x51, 0x7D, 0x8E, 0x79, 0x9A, 0x55, 0x60, 
	0x0F, 0x8A, 0x53, 0x6C, 0x87, 0x31, 0x9A, 0x50, 0x55, 0x83, 0x4E, 0x8A, 0x50, 0x6B, 0x12, 0x9A, 0x4E, 0x64, 0x83, 0x60, 0x9A, 0x4D, 0x6B, 0x12, 0x8A, 0x4E, 0x5A, 0x8D, 0x08, 0x8A, 0x4D, 0x4E, 0x07, 0x8A, 0x55, 0x40, 0x82, 0xAD, 0x5F, 0x9A, 0x4E, 0x64, 0x8F, 0x00, 0x9A, 0x50, 0x66, 0x02, 0x8A, 0x4E, 0x7F, 0x8D, 0x66, 0x8A, 0x50, 0x41, 0x81, 0x18, 0x9A, 0x4E, 0x68, 0x8E, 0x14, 0x8A, 
	0x4E, 0x55, 0x6C, 0x9A, 0x50, 0x71, 0x8D, 0x64, 0x8A, 0x50, 0x55, 0x81, 0x1C, 0x9A, 0x4C, 0x68, 0x8E, 0x31, 0x8A, 0x4C, 0x38, 0x4F, 0x9A, 0x49, 0x62, 0x8D, 0x3E, 0x8A, 0x49, 0x2E, 0x81, 0x42, 0x9A, 0x4E, 0x73, 0x8E, 0x2F, 0x8A, 0x4E, 0x3D, 0x51, 0x9A, 0x4B, 0x62, 0x8E, 0x0A, 0x8A, 0x4B, 0x2F, 0x76, 0x9A, 0x50, 0x77, 0x8F, 0x00, 0x9A, 0x55, 0x6D, 0x0F, 0x8A, 0x50, 0x42, 0x8E, 0x1D, 
	0x8A, 0x55, 0x09, 0x54, 0x9A, 0x51, 0x68, 0x8F, 0x00, 0x9A, 0x53, 0x68, 0x07, 0x8A, 0x51, 0x7D, 0x8E, 0x79, 0x9A, 0x55, 0x60, 0x0F, 0x8A, 0x53, 0x6C, 0x87, 0x31, 0x9A, 0x50, 0x55, 0x83, 0x4E, 0x8A, 0x50, 0x6B, 0x12, 0x9A, 0x4E, 0x64, 0x83, 0x60, 0x9A, 0x4D, 0x6B, 0x12, 0x8A, 0x4E, 0x5A, 0x8D, 0x08, 0x8A, 0x4D, 0x4E, 0x07, 0x8A, 0x55, 0x40, 0x00, 0xFF, 0x2F, 0x00, 0x00
};
