

const sound Title =
{ 
	0x04, 0x00, 
	0x4D, 0x54, 0x68, 0x64, 0x00, 0x00, 0x00, 0x06, 0x00, 0x01, 0x00, 0x0C, 0x01, 0xE0, 0x4D, 0x54, 0x72, 0x6B, 0x00, 0x00, 0x00, 0x37, 0x00, 0xFF, 0x03, 0x02, 0x30, 0x31, 0x00, 0xFF, 0x01, 0x01, 0x2A, 0x00, 0xFF, 0x54, 0x05, 0x60, 0x00, 0x00, 0x00, 0x00, 0x00, 0xFF, 0x58, 0x04, 0x01, 0x02, 0x18, 0x08, 0x00, 0xFF, 0x51, 0x03, 0x02, 0x49, 0xF0, 0x83, 0x10, 0xFF, 0x51, 0x03, 0x06, 0x66, 
	0xFC, 0x50, 0xFF, 0x58, 0x04, 0x04, 0x02, 0x18, 0x08, 0x00, 0xFF, 0x2F, 0x00, 0x4D, 0x54, 0x72, 0x6B, 0x00, 0x00, 0x20, 0x7F, 0x00, 0xFF, 0x03, 0x02, 0x44, 0x72, 0x14, 0xB9, 0x78, 0x00, 0x0A, 0xB9, 0x79, 0x00, 0x28, 0xB9, 0x65, 0x00, 0x1E, 0xB9, 0x64, 0x00, 0x1E, 0xB9, 0x06, 0x02, 0x1E, 0xB9, 0x65, 0x7F, 0x1E, 0xB9, 0x64, 0x7F, 0x0A, 0xC9, 0x00, 0x14, 0xE9, 0x00, 0x40, 0x0A, 0xB9, 
	0x01, 0x00, 0x0A, 0xB9, 0x07, 0x6E, 0x14, 0xB9, 0x0B, 0x64, 0x0A, 0xB9, 0x5B, 0x64, 0x0A, 0xB9, 0x5D, 0x00, 0x14, 0xB9, 0x0A, 0x40, 0x81, 0xA6, 0x34, 0x99, 0x31, 0x64, 0x00, 0x99, 0x28, 0x66, 0x78, 0x89, 0x31, 0x7F, 0x00, 0x89, 0x28, 0x7F, 0x78, 0x99, 0x2A, 0x41, 0x00, 0x99, 0x24, 0x4B, 0x78, 0x89, 0x2A, 0x6C, 0x00, 0x89, 0x24, 0x01, 0x78, 0x99, 0x2A, 0x64, 0x00, 0x99, 0x28, 0x6A, 
	0x78, 0x89, 0x2A, 0x7F, 0x00, 0x89, 0x28, 0x7F, 0x78, 0x99, 0x2A, 0x41, 0x00, 0x99, 0x24, 0x52, 0x78, 0x89, 0x2A, 0x66, 0x00, 0x89, 0x24, 0x20, 0x78, 0x99, 0x2A, 0x64, 0x00, 0x99, 0x28, 0x66, 0x78, 0x89, 0x2A, 0x7F, 0x00, 0x89, 0x28, 0x7F, 0x78, 0x99, 0x2A, 0x41, 0x00, 0x99, 0x24, 0x4F, 0x78, 0x89, 0x2A, 0x5C, 0x00, 0x89, 0x24, 0x23, 0x00, 0x99, 0x24, 0x4F, 0x78, 0x89, 0x24, 0x23, 
	0x00, 0x99, 0x2A, 0x64, 0x00, 0x99, 0x28, 0x62, 0x78, 0x89, 0x2A, 0x7F, 0x00, 0x89, 0x28, 0x08, 0x78, 0x99, 0x2A, 0x41, 0x00, 0x99, 0x24, 0x52, 0x78, 0x89, 0x2A, 0x7F, 0x00, 0x89, 0x24, 0x54, 0x78, 0x99, 0x31, 0x64, 0x00, 0x99, 0x28, 0x66, 0x78, 0x89, 0x31, 0x7F, 0x00, 0x89, 0x28, 0x7F, 0x78, 0x99, 0x2A, 0x41, 0x00, 0x99, 0x24, 0x4B, 0x78, 0x89, 0x2A, 0x6C, 0x00, 0x89, 0x24, 0x01, 
	0x78, 0x99, 0x2A, 0x64, 0x00, 0x99, 0x28, 0x6A, 0x78, 0x89, 0x2A, 0x7F, 0x00, 0x89, 0x28, 0x7F, 0x78, 0x99, 0x2A, 0x41, 0x00, 0x99, 0x24, 0x52, 0x78, 0x89, 0x2A, 0x66, 0x00, 0x89, 0x24, 0x20, 0x78, 0x99, 0x2A, 0x64, 0x00, 0x99, 0x28, 0x66, 0x78, 0x89, 0x2A, 0x7F, 0x00, 0x89, 0x28, 0x7F, 0x78, 0x99, 0x2A, 0x41, 0x00, 0x99, 0x24, 0x4F, 0x78, 0x89, 0x2A, 0x5C, 0x00, 0x89, 0x24, 0x23, 
	0x78, 0x99, 0x2A, 0x64, 0x00, 0x99, 0x36, 0x6B, 0x00, 0x99, 0x28, 0x62, 0x78, 0x89, 0x2A, 0x7F, 0x00, 0x89, 0x28, 0x08, 0x78, 0x89, 0x36, 0x4C, 0x00, 0x99, 0x2A, 0x41, 0x00, 0x99, 0x24, 0x52, 0x78, 0x89, 0x2A, 0x7F, 0x00, 0x89, 0x24, 0x54, 0x78, 0x99, 0x2A, 0x64, 0x00, 0x99, 0x28, 0x67, 0x78, 0x89, 0x2A, 0x7F, 0x78, 0x89, 0x28, 0x32, 0x00, 0x99, 0x2A, 0x41, 0x00, 0x99, 0x24, 0x53, 
	0x78, 0x89, 0x2A, 0x6C, 0x00, 0x89, 0x24, 0x35, 0x78, 0x99, 0x2A, 0x64, 0x00, 0x99, 0x28, 0x69, 0x78, 0x89, 0x2A, 0x7F, 0x00, 0x89, 0x28, 0x7F, 0x78, 0x99, 0x2A, 0x41, 0x00, 0x99, 0x24, 0x4D, 0x78, 0x89, 0x2A, 0x66, 0x00, 0x89, 0x24, 0x26, 0x78, 0x99, 0x2A, 0x64, 0x00, 0x99, 0x28, 0x68, 0x78, 0x89, 0x2A, 0x7F, 0x00, 0x89, 0x28, 0x7F, 0x78, 0x99, 0x2A, 0x41, 0x00, 0x99, 0x24, 0x51, 
	0x78, 0x89, 0x2A, 0x5C, 0x00, 0x89, 0x24, 0x38, 0x78, 0x99, 0x2A, 0x64, 0x00, 0x99, 0x36, 0x6B, 0x00, 0x99, 0x28, 0x69, 0x78, 0x89, 0x2A, 0x7F, 0x00, 0x89, 0x28, 0x7F, 0x78, 0x89, 0x36, 0x78, 0x00, 0x99, 0x2A, 0x41, 0x00, 0x99, 0x24, 0x49, 0x78, 0x89, 0x2A, 0x7F, 0x00, 0x89, 0x24, 0x01, 0x78, 0x99, 0x31, 0x64, 0x00, 0x99, 0x28, 0x68, 0x78, 0x89, 0x31, 0x7F, 0x00, 0x89, 0x28, 0x7F, 
	0x78, 0x99, 0x2A, 0x41, 0x00, 0x99, 0x24, 0x4D, 0x78, 0x89, 0x2A, 0x6C, 0x00, 0x89, 0x24, 0x01, 0x78, 0x99, 0x2A, 0x64, 0x00, 0x99, 0x28, 0x66, 0x78, 0x89, 0x2A, 0x7F, 0x00, 0x89, 0x28, 0x7F, 0x78, 0x99, 0x2A, 0x41, 0x00, 0x99, 0x24, 0x50, 0x78, 0x89, 0x2A, 0x66, 0x00, 0x89, 0x24, 0x39, 0x78, 0x99, 0x2A, 0x64, 0x00, 0x99, 0x28, 0x67, 0x78, 0x89, 0x2A, 0x7F, 0x00, 0x89, 0x28, 0x7F, 
	0x78, 0x99, 0x2A, 0x41, 0x00, 0x99, 0x24, 0x4A, 0x78, 0x89, 0x2A, 0x5C, 0x00, 0x89, 0x24, 0x25, 0x78, 0x99, 0x2A, 0x64, 0x00, 0x99, 0x36, 0x6B, 0x00, 0x99, 0x28, 0x6A, 0x78, 0x89, 0x2A, 0x7F, 0x00, 0x89, 0x28, 0x7F, 0x78, 0x89, 0x36, 0x4C, 0x00, 0x99, 0x31, 0x64, 0x00, 0x99, 0x24, 0x48, 0x78, 0x89, 0x31, 0x7F, 0x00, 0x89, 0x24, 0x01, 0x82, 0x68, 0x99, 0x2A, 0x41, 0x00, 0x99, 0x24, 
	0x4B, 0x78, 0x89, 0x2A, 0x6C, 0x00, 0x89, 0x24, 0x01, 0x78, 0x99, 0x2A, 0x64, 0x00, 0x99, 0x28, 0x6A, 0x78, 0x89, 0x2A, 0x7F, 0x00, 0x89, 0x28, 0x7F, 0x78, 0x99, 0x2A, 0x41, 0x00, 0x99, 0x24, 0x52, 0x78, 0x89, 0x2A, 0x66, 0x00, 0x89, 0x24, 0x20, 0x78, 0x99, 0x2A, 0x64, 0x00, 0x99, 0x28, 0x66, 0x78, 0x89, 0x2A, 0x7F, 0x00, 0x89, 0x28, 0x7F, 0x78, 0x99, 0x2A, 0x41, 0x00, 0x99, 0x24, 
	0x4F, 0x78, 0x89, 0x2A, 0x5C, 0x00, 0x89, 0x24, 0x23, 0x78, 0x99, 0x2A, 0x64, 0x00, 0x99, 0x36, 0x6B, 0x00, 0x99, 0x28, 0x62, 0x78, 0x89, 0x2A, 0x7F, 0x00, 0x89, 0x28, 0x08, 0x78, 0x89, 0x36, 0x78, 0x00, 0x99, 0x2A, 0x41, 0x00, 0x99, 0x24, 0x52, 0x78, 0x89, 0x2A, 0x7F, 0x00, 0x89, 0x24, 0x54, 0x78, 0x99, 0x2A, 0x64, 0x00, 0x99, 0x28, 0x67, 0x78, 0x89, 0x2A, 0x7F, 0x78, 0x89, 0x28, 
	0x32, 0x00, 0x99, 0x2A, 0x41, 0x00, 0x99, 0x24, 0x53, 0x78, 0x89, 0x2A, 0x6C, 0x00, 0x89, 0x24, 0x35, 0x78, 0x99, 0x2A, 0x64, 0x00, 0x99, 0x28, 0x69, 0x78, 0x89, 0x2A, 0x7F, 0x00, 0x89, 0x28, 0x7F, 0x78, 0x99, 0x2A, 0x41, 0x00, 0x99, 0x24, 0x4D, 0x78, 0x89, 0x2A, 0x66, 0x00, 0x89, 0x24, 0x26, 0x78, 0x99, 0x2A, 0x64, 0x00, 0x99, 0x28, 0x68, 0x78, 0x89, 0x2A, 0x7F, 0x00, 0x89, 0x28, 
	0x7F, 0x78, 0x99, 0x2A, 0x41, 0x00, 0x99, 0x2D, 0x64, 0x78, 0x89, 0x2A, 0x5C, 0x00, 0x89, 0x2D, 0x38, 0x00, 0x99, 0x29, 0x64, 0x78, 0x89, 0x29, 0x38, 0x00, 0x99, 0x36, 0x6B, 0x00, 0x99, 0x28, 0x69, 0x78, 0x89, 0x28, 0x7F, 0x00, 0x99, 0x28, 0x69, 0x78, 0x89, 0x36, 0x4C, 0x00, 0x89, 0x28, 0x7F, 0x00, 0x99, 0x39, 0x64, 0x00, 0x99, 0x24, 0x49, 0x78, 0x89, 0x39, 0x7F, 0x00, 0x89, 0x24, 
	0x01, 0x82, 0x68, 0x99, 0x2A, 0x41, 0x00, 0x99, 0x24, 0x4D, 0x78, 0x89, 0x2A, 0x6C, 0x00, 0x89, 0x24, 0x01, 0x78, 0x99, 0x2A, 0x64, 0x00, 0x99, 0x28, 0x66, 0x78, 0x89, 0x2A, 0x7F, 0x00, 0x89, 0x28, 0x7F, 0x78, 0x99, 0x2A, 0x41, 0x00, 0x99, 0x24, 0x50, 0x78, 0x89, 0x2A, 0x66, 0x00, 0x89, 0x24, 0x39, 0x78, 0x99, 0x2A, 0x64, 0x00, 0x99, 0x28, 0x67, 0x78, 0x89, 0x2A, 0x7F, 0x00, 0x89, 
	0x28, 0x7F, 0x78, 0x99, 0x2A, 0x41, 0x00, 0x99, 0x24, 0x4A, 0x78, 0x89, 0x2A, 0x5C, 0x00, 0x89, 0x24, 0x25, 0x78, 0x99, 0x2A, 0x64, 0x00, 0x99, 0x36, 0x6B, 0x00, 0x99, 0x28, 0x6A, 0x78, 0x89, 0x2A, 0x7F, 0x00, 0x89, 0x28, 0x7F, 0x78, 0x89, 0x36, 0x78, 0x00, 0x99, 0x31, 0x64, 0x00, 0x99, 0x24, 0x48, 0x00, 0x99, 0x24, 0x6A, 0x78, 0x89, 0x31, 0x7F, 0x00, 0x89, 0x24, 0x7F, 0x00, 0x89, 
	0x24, 0x01, 0x82, 0x68, 0x99, 0x28, 0x73, 0x78, 0x89, 0x28, 0x7F, 0x78, 0x99, 0x28, 0x6D, 0x78, 0x89, 0x28, 0x7F, 0x78, 0x99, 0x29, 0x6C, 0x78, 0x89, 0x29, 0x7F, 0x78, 0x99, 0x28, 0x73, 0x78, 0x89, 0x28, 0x7F, 0x78, 0x99, 0x2D, 0x6A, 0x78, 0x89, 0x2D, 0x7F, 0x78, 0x99, 0x36, 0x6B, 0x00, 0x99, 0x28, 0x68, 0x78, 0x89, 0x28, 0x7F, 0x00, 0x99, 0x28, 0x56, 0x78, 0x89, 0x36, 0x78, 0x00, 
	0x89, 0x28, 0x22, 0x00, 0x99, 0x28, 0x61, 0x78, 0x89, 0x28, 0x7F, 0x00, 0x99, 0x28, 0x4F, 0x78, 0x89, 0x28, 0x7F, 0x00, 0x99, 0x31, 0x64, 0x00, 0x99, 0x24, 0x64, 0x78, 0x89, 0x31, 0x7F, 0x78, 0x89, 0x24, 0x01, 0x00, 0x99, 0x2A, 0x41, 0x78, 0x89, 0x2A, 0x6C, 0x78, 0x99, 0x2A, 0x64, 0x00, 0x99, 0x28, 0x64, 0x78, 0x89, 0x2A, 0x7F, 0x00, 0x89, 0x28, 0x47, 0x78, 0x99, 0x2A, 0x41, 0x00, 
	0x99, 0x24, 0x3C, 0x78, 0x89, 0x2A, 0x66, 0x00, 0x89, 0x24, 0x11, 0x78, 0x99, 0x2A, 0x64, 0x78, 0x89, 0x2A, 0x7F, 0x78, 0x99, 0x2A, 0x41, 0x00, 0x99, 0x24, 0x3C, 0x78, 0x89, 0x2A, 0x5C, 0x00, 0x89, 0x24, 0x33, 0x78, 0x99, 0x2A, 0x64, 0x00, 0x99, 0x36, 0x6B, 0x00, 0x99, 0x28, 0x64, 0x78, 0x89, 0x2A, 0x7F, 0x00, 0x89, 0x28, 0x41, 0x78, 0x89, 0x36, 0x4C, 0x00, 0x99, 0x2A, 0x41, 0x78, 
	0x89, 0x2A, 0x7F, 0x78, 0x99, 0x2A, 0x64, 0x00, 0x99, 0x24, 0x64, 0x78, 0x89, 0x2A, 0x7F, 0x78, 0x89, 0x24, 0x01, 0x00, 0x99, 0x2A, 0x41, 0x78, 0x89, 0x2A, 0x6C, 0x78, 0x99, 0x2A, 0x64, 0x00, 0x99, 0x28, 0x64, 0x78, 0x89, 0x2A, 0x7F, 0x00, 0x89, 0x28, 0x47, 0x78, 0x99, 0x2A, 0x41, 0x00, 0x99, 0x24, 0x3C, 0x78, 0x89, 0x2A, 0x66, 0x00, 0x89, 0x24, 0x11, 0x78, 0x99, 0x2A, 0x64, 0x78, 
	0x89, 0x2A, 0x7F, 0x78, 0x99, 0x2A, 0x41, 0x00, 0x99, 0x24, 0x3C, 0x78, 0x89, 0x2A, 0x5C, 0x00, 0x89, 0x24, 0x33, 0x78, 0x99, 0x2A, 0x64, 0x00, 0x99, 0x36, 0x6B, 0x00, 0x99, 0x28, 0x64, 0x78, 0x89, 0x2A, 0x7F, 0x00, 0x89, 0x28, 0x41, 0x78, 0x89, 0x36, 0x78, 0x00, 0x99, 0x2A, 0x41, 0x78, 0x89, 0x2A, 0x7F, 0x78, 0x99, 0x2A, 0x64, 0x00, 0x99, 0x24, 0x64, 0x78, 0x89, 0x2A, 0x7F, 0x78, 
	0x89, 0x24, 0x01, 0x00, 0x99, 0x2A, 0x41, 0x78, 0x89, 0x2A, 0x6C, 0x78, 0x99, 0x2A, 0x64, 0x00, 0x99, 0x28, 0x64, 0x78, 0x89, 0x2A, 0x7F, 0x00, 0x89, 0x28, 0x47, 0x78, 0x99, 0x2A, 0x41, 0x00, 0x99, 0x24, 0x3C, 0x78, 0x89, 0x2A, 0x66, 0x00, 0x89, 0x24, 0x11, 0x78, 0x99, 0x2A, 0x64, 0x78, 0x89, 0x2A, 0x7F, 0x78, 0x99, 0x2A, 0x41, 0x00, 0x99, 0x24, 0x3C, 0x78, 0x89, 0x2A, 0x5C, 0x00, 
	0x89, 0x24, 0x33, 0x78, 0x99, 0x2A, 0x64, 0x00, 0x99, 0x36, 0x6B, 0x00, 0x99, 0x28, 0x64, 0x78, 0x89, 0x2A, 0x7F, 0x00, 0x89, 0x28, 0x41, 0x78, 0x89, 0x36, 0x4C, 0x00, 0x99, 0x2A, 0x41, 0x78, 0x89, 0x2A, 0x7F, 0x78, 0x99, 0x2A, 0x64, 0x00, 0x99, 0x24, 0x64, 0x78, 0x89, 0x2A, 0x7F, 0x78, 0x89, 0x24, 0x01, 0x00, 0x99, 0x2A, 0x41, 0x78, 0x89, 0x2A, 0x6C, 0x78, 0x99, 0x2A, 0x64, 0x00, 
	0x99, 0x28, 0x64, 0x78, 0x89, 0x2A, 0x7F, 0x00, 0x89, 0x28, 0x47, 0x78, 0x99, 0x2A, 0x41, 0x00, 0x99, 0x24, 0x3C, 0x78, 0x89, 0x2A, 0x66, 0x00, 0x89, 0x24, 0x11, 0x78, 0x99, 0x2A, 0x64, 0x78, 0x89, 0x2A, 0x7F, 0x78, 0x99, 0x2A, 0x41, 0x00, 0x99, 0x24, 0x3C, 0x78, 0x89, 0x2A, 0x5C, 0x00, 0x89, 0x24, 0x33, 0x78, 0x99, 0x2A, 0x64, 0x00, 0x99, 0x36, 0x6B, 0x00, 0x99, 0x28, 0x64, 0x78, 
	0x89, 0x2A, 0x7F, 0x00, 0x89, 0x28, 0x41, 0x78, 0x89, 0x36, 0x78, 0x00, 0x99, 0x2A, 0x41, 0x78, 0x89, 0x2A, 0x7F, 0x78, 0x99, 0x2A, 0x64, 0x00, 0x99, 0x24, 0x64, 0x78, 0x89, 0x2A, 0x7F, 0x78, 0x89, 0x24, 0x01, 0x00, 0x99, 0x2A, 0x41, 0x78, 0x89, 0x2A, 0x6C, 0x78, 0x99, 0x2A, 0x64, 0x00, 0x99, 0x28, 0x64, 0x78, 0x89, 0x2A, 0x7F, 0x00, 0x89, 0x28, 0x47, 0x78, 0x99, 0x2A, 0x41, 0x00, 
	0x99, 0x24, 0x3C, 0x78, 0x89, 0x2A, 0x66, 0x00, 0x89, 0x24, 0x11, 0x78, 0x99, 0x2A, 0x64, 0x78, 0x89, 0x2A, 0x7F, 0x78, 0x99, 0x2A, 0x41, 0x00, 0x99, 0x24, 0x3C, 0x78, 0x89, 0x2A, 0x5C, 0x00, 0x89, 0x24, 0x33, 0x78, 0x99, 0x2A, 0x64, 0x00, 0x99, 0x36, 0x6B, 0x00, 0x99, 0x28, 0x64, 0x78, 0x89, 0x2A, 0x7F, 0x00, 0x89, 0x28, 0x41, 0x78, 0x89, 0x36, 0x4C, 0x00, 0x99, 0x2A, 0x41, 0x78, 
	0x89, 0x2A, 0x7F, 0x78, 0x99, 0x2A, 0x64, 0x00, 0x99, 0x24, 0x64, 0x78, 0x89, 0x2A, 0x7F, 0x78, 0x89, 0x24, 0x01, 0x00, 0x99, 0x2A, 0x41, 0x78, 0x89, 0x2A, 0x6C, 0x78, 0x99, 0x2A, 0x64, 0x00, 0x99, 0x28, 0x64, 0x78, 0x89, 0x2A, 0x7F, 0x00, 0x89, 0x28, 0x47, 0x78, 0x99, 0x2A, 0x41, 0x00, 0x99, 0x24, 0x3C, 0x78, 0x89, 0x2A, 0x66, 0x00, 0x89, 0x24, 0x11, 0x78, 0x99, 0x2A, 0x64, 0x78, 
	0x89, 0x2A, 0x7F, 0x78, 0x99, 0x2A, 0x41, 0x00, 0x99, 0x24, 0x3C, 0x78, 0x89, 0x2A, 0x5C, 0x00, 0x89, 0x24, 0x33, 0x78, 0x99, 0x2A, 0x64, 0x00, 0x99, 0x36, 0x6B, 0x00, 0x99, 0x28, 0x64, 0x78, 0x89, 0x2A, 0x7F, 0x00, 0x89, 0x28, 0x41, 0x78, 0x89, 0x36, 0x78, 0x00, 0x99, 0x2A, 0x41, 0x78, 0x89, 0x2A, 0x7F, 0x78, 0x99, 0x2A, 0x64, 0x00, 0x99, 0x24, 0x64, 0x78, 0x89, 0x2A, 0x7F, 0x78, 
	0x89, 0x24, 0x01, 0x00, 0x99, 0x2A, 0x41, 0x78, 0x89, 0x2A, 0x6C, 0x78, 0x99, 0x2A, 0x64, 0x00, 0x99, 0x28, 0x64, 0x78, 0x89, 0x2A, 0x7F, 0x00, 0x89, 0x28, 0x47, 0x78, 0x99, 0x2A, 0x41, 0x00, 0x99, 0x24, 0x3C, 0x78, 0x89, 0x2A, 0x66, 0x00, 0x89, 0x24, 0x11, 0x78, 0x99, 0x2A, 0x64, 0x78, 0x89, 0x2A, 0x7F, 0x78, 0x99, 0x2A, 0x41, 0x00, 0x99, 0x24, 0x3C, 0x78, 0x89, 0x2A, 0x5C, 0x00, 
	0x89, 0x24, 0x33, 0x78, 0x99, 0x2A, 0x64, 0x00, 0x99, 0x36, 0x6B, 0x00, 0x99, 0x28, 0x64, 0x78, 0x89, 0x2A, 0x7F, 0x00, 0x89, 0x28, 0x41, 0x78, 0x89, 0x36, 0x4C, 0x00, 0x99, 0x2A, 0x41, 0x78, 0x89, 0x2A, 0x7F, 0x78, 0x99, 0x2A, 0x64, 0x00, 0x99, 0x24, 0x64, 0x78, 0x89, 0x2A, 0x7F, 0x78, 0x89, 0x24, 0x01, 0x00, 0x99, 0x2A, 0x41, 0x78, 0x89, 0x2A, 0x6C, 0x78, 0x99, 0x2A, 0x64, 0x00, 
	0x99, 0x28, 0x64, 0x78, 0x89, 0x2A, 0x7F, 0x00, 0x89, 0x28, 0x47, 0x78, 0x99, 0x2E, 0x64, 0x00, 0x99, 0x28, 0x66, 0x78, 0x89, 0x2E, 0x66, 0x00, 0x89, 0x28, 0x54, 0x78, 0x99, 0x2D, 0x66, 0x78, 0x89, 0x2D, 0x54, 0x78, 0x99, 0x28, 0x6B, 0x78, 0x89, 0x28, 0x59, 0x78, 0x99, 0x36, 0x6B, 0x00, 0x99, 0x29, 0x64, 0x78, 0x89, 0x29, 0x7F, 0x78, 0x89, 0x36, 0x78, 0x00, 0x99, 0x2D, 0x66, 0x78, 
	0x89, 0x2D, 0x7F, 0x78, 0x99, 0x39, 0x64, 0x00, 0x99, 0x24, 0x64, 0x78, 0x89, 0x39, 0x7F, 0x78, 0x89, 0x24, 0x01, 0x00, 0x99, 0x2A, 0x41, 0x78, 0x89, 0x2A, 0x6C, 0x78, 0x99, 0x2A, 0x64, 0x00, 0x99, 0x28, 0x64, 0x78, 0x89, 0x2A, 0x7F, 0x00, 0x89, 0x28, 0x47, 0x78, 0x99, 0x2A, 0x41, 0x00, 0x99, 0x24, 0x3C, 0x78, 0x89, 0x2A, 0x66, 0x00, 0x89, 0x24, 0x11, 0x78, 0x99, 0x2A, 0x64, 0x78, 
	0x89, 0x2A, 0x7F, 0x78, 0x99, 0x2A, 0x41, 0x00, 0x99, 0x24, 0x3C, 0x78, 0x89, 0x2A, 0x5C, 0x00, 0x89, 0x24, 0x33, 0x78, 0x99, 0x2A, 0x64, 0x00, 0x99, 0x36, 0x6B, 0x00, 0x99, 0x28, 0x64, 0x78, 0x89, 0x2A, 0x7F, 0x00, 0x89, 0x28, 0x41, 0x78, 0x89, 0x36, 0x4C, 0x00, 0x99, 0x2A, 0x41, 0x78, 0x89, 0x2A, 0x7F, 0x78, 0x99, 0x2A, 0x64, 0x00, 0x99, 0x24, 0x64, 0x78, 0x89, 0x2A, 0x7F, 0x78, 
	0x89, 0x24, 0x01, 0x00, 0x99, 0x2A, 0x41, 0x78, 0x89, 0x2A, 0x6C, 0x78, 0x99, 0x2A, 0x64, 0x00, 0x99, 0x28, 0x64, 0x78, 0x89, 0x2A, 0x7F, 0x00, 0x89, 0x28, 0x47, 0x78, 0x99, 0x2A, 0x41, 0x00, 0x99, 0x24, 0x3C, 0x78, 0x89, 0x2A, 0x66, 0x00, 0x89, 0x24, 0x11, 0x78, 0x99, 0x2A, 0x64, 0x78, 0x89, 0x2A, 0x7F, 0x78, 0x99, 0x2A, 0x41, 0x00, 0x99, 0x24, 0x3C, 0x78, 0x89, 0x2A, 0x5C, 0x00, 
	0x89, 0x24, 0x33, 0x78, 0x99, 0x2A, 0x64, 0x00, 0x99, 0x36, 0x6B, 0x00, 0x99, 0x28, 0x64, 0x78, 0x89, 0x2A, 0x7F, 0x00, 0x89, 0x28, 0x41, 0x78, 0x89, 0x36, 0x78, 0x00, 0x99, 0x2A, 0x41, 0x78, 0x89, 0x2A, 0x7F, 0x78, 0x99, 0x2A, 0x64, 0x00, 0x99, 0x24, 0x64, 0x78, 0x89, 0x2A, 0x7F, 0x78, 0x89, 0x24, 0x01, 0x00, 0x99, 0x2A, 0x41, 0x78, 0x89, 0x2A, 0x6C, 0x78, 0x99, 0x2A, 0x64, 0x00, 
	0x99, 0x28, 0x64, 0x78, 0x89, 0x2A, 0x7F, 0x00, 0x89, 0x28, 0x47, 0x78, 0x99, 0x2A, 0x41, 0x00, 0x99, 0x24, 0x3C, 0x78, 0x89, 0x2A, 0x66, 0x00, 0x89, 0x24, 0x11, 0x78, 0x99, 0x2A, 0x64, 0x78, 0x89, 0x2A, 0x7F, 0x78, 0x99, 0x2A, 0x41, 0x00, 0x99, 0x24, 0x3C, 0x78, 0x89, 0x2A, 0x5C, 0x00, 0x89, 0x24, 0x33, 0x78, 0x99, 0x2A, 0x64, 0x00, 0x99, 0x36, 0x6B, 0x00, 0x99, 0x28, 0x64, 0x78, 
	0x89, 0x2A, 0x7F, 0x00, 0x89, 0x28, 0x41, 0x78, 0x89, 0x36, 0x4C, 0x00, 0x99, 0x2A, 0x41, 0x78, 0x89, 0x2A, 0x7F, 0x78, 0x99, 0x2A, 0x64, 0x00, 0x99, 0x24, 0x64, 0x78, 0x89, 0x2A, 0x7F, 0x78, 0x89, 0x24, 0x01, 0x00, 0x99, 0x2A, 0x41, 0x78, 0x89, 0x2A, 0x6C, 0x78, 0x99, 0x2A, 0x64, 0x00, 0x99, 0x28, 0x64, 0x78, 0x89, 0x2A, 0x7F, 0x00, 0x89, 0x28, 0x47, 0x78, 0x99, 0x2A, 0x41, 0x00, 
	0x99, 0x24, 0x3C, 0x78, 0x89, 0x2A, 0x66, 0x00, 0x89, 0x24, 0x11, 0x78, 0x99, 0x2A, 0x64, 0x78, 0x89, 0x2A, 0x7F, 0x78, 0x99, 0x2A, 0x41, 0x00, 0x99, 0x24, 0x3C, 0x78, 0x89, 0x2A, 0x5C, 0x00, 0x89, 0x24, 0x33, 0x78, 0x99, 0x2E, 0x41, 0x00, 0x99, 0x36, 0x6B, 0x00, 0x99, 0x28, 0x64, 0x78, 0x89, 0x2E, 0x5C, 0x00, 0x89, 0x28, 0x41, 0x78, 0x89, 0x36, 0x78, 0x00, 0x99, 0x28, 0x67, 0x78, 
	0x89, 0x28, 0x50, 0x00, 0x99, 0x28, 0x6A, 0x78, 0x89, 0x28, 0x6C, 0x00, 0x99, 0x31, 0x64, 0x00, 0x99, 0x24, 0x64, 0x78, 0x89, 0x31, 0x7F, 0x78, 0x89, 0x24, 0x01, 0x00, 0x99, 0x2A, 0x41, 0x78, 0x89, 0x2A, 0x6C, 0x78, 0x99, 0x2A, 0x64, 0x00, 0x99, 0x28, 0x64, 0x78, 0x89, 0x2A, 0x7F, 0x00, 0x89, 0x28, 0x47, 0x78, 0x99, 0x2A, 0x41, 0x00, 0x99, 0x24, 0x3C, 0x78, 0x89, 0x2A, 0x66, 0x00, 
	0x89, 0x24, 0x11, 0x78, 0x99, 0x2A, 0x64, 0x78, 0x89, 0x2A, 0x7F, 0x78, 0x99, 0x2A, 0x41, 0x00, 0x99, 0x24, 0x3C, 0x78, 0x89, 0x2A, 0x5C, 0x00, 0x89, 0x24, 0x33, 0x78, 0x99, 0x2A, 0x64, 0x00, 0x99, 0x36, 0x6B, 0x00, 0x99, 0x28, 0x64, 0x78, 0x89, 0x2A, 0x7F, 0x00, 0x89, 0x28, 0x41, 0x78, 0x89, 0x36, 0x4C, 0x00, 0x99, 0x2A, 0x41, 0x78, 0x89, 0x2A, 0x7F, 0x78, 0x99, 0x2A, 0x64, 0x00, 
	0x99, 0x24, 0x64, 0x78, 0x89, 0x2A, 0x7F, 0x78, 0x89, 0x24, 0x01, 0x00, 0x99, 0x2A, 0x41, 0x78, 0x89, 0x2A, 0x6C, 0x78, 0x99, 0x2A, 0x64, 0x00, 0x99, 0x28, 0x64, 0x78, 0x89, 0x2A, 0x7F, 0x00, 0x89, 0x28, 0x47, 0x78, 0x99, 0x2A, 0x41, 0x00, 0x99, 0x24, 0x3C, 0x78, 0x89, 0x2A, 0x66, 0x00, 0x89, 0x24, 0x11, 0x78, 0x99, 0x2A, 0x64, 0x78, 0x89, 0x2A, 0x7F, 0x78, 0x99, 0x2A, 0x41, 0x00, 
	0x99, 0x24, 0x3C, 0x78, 0x89, 0x2A, 0x5C, 0x00, 0x89, 0x24, 0x33, 0x78, 0x99, 0x2A, 0x64, 0x00, 0x99, 0x36, 0x6B, 0x00, 0x99, 0x28, 0x64, 0x78, 0x89, 0x2A, 0x7F, 0x00, 0x89, 0x28, 0x41, 0x78, 0x89, 0x36, 0x78, 0x00, 0x99, 0x2A, 0x41, 0x78, 0x89, 0x2A, 0x7F, 0x78, 0x99, 0x2A, 0x64, 0x00, 0x99, 0x24, 0x64, 0x78, 0x89, 0x2A, 0x7F, 0x78, 0x89, 0x24, 0x01, 0x00, 0x99, 0x2A, 0x41, 0x78, 
	0x89, 0x2A, 0x6C, 0x78, 0x99, 0x2A, 0x64, 0x00, 0x99, 0x28, 0x64, 0x78, 0x89, 0x2A, 0x7F, 0x00, 0x89, 0x28, 0x47, 0x78, 0x99, 0x2A, 0x41, 0x00, 0x99, 0x24, 0x3C, 0x78, 0x89, 0x2A, 0x66, 0x00, 0x89, 0x24, 0x11, 0x78, 0x99, 0x2A, 0x64, 0x78, 0x89, 0x2A, 0x7F, 0x78, 0x99, 0x2A, 0x41, 0x00, 0x99, 0x24, 0x3C, 0x78, 0x89, 0x2A, 0x5C, 0x00, 0x89, 0x24, 0x33, 0x78, 0x99, 0x2A, 0x64, 0x00, 
	0x99, 0x36, 0x6B, 0x00, 0x99, 0x28, 0x64, 0x78, 0x89, 0x2A, 0x7F, 0x00, 0x89, 0x28, 0x41, 0x78, 0x89, 0x36, 0x4C, 0x00, 0x99, 0x2A, 0x41, 0x78, 0x89, 0x2A, 0x7F, 0x78, 0x99, 0x2A, 0x46, 0x00, 0x99, 0x24, 0x64, 0x78, 0x89, 0x2A, 0x7F, 0x78, 0x89, 0x24, 0x01, 0x00, 0x99, 0x2A, 0x5A, 0x78, 0x89, 0x2A, 0x6C, 0x78, 0x99, 0x2E, 0x64, 0x00, 0x99, 0x28, 0x64, 0x78, 0x89, 0x2E, 0x7F, 0x00, 
	0x89, 0x28, 0x47, 0x78, 0x99, 0x28, 0x65, 0x78, 0x89, 0x28, 0x53, 0x00, 0x99, 0x28, 0x6A, 0x78, 0x89, 0x28, 0x7F, 0x00, 0x99, 0x39, 0x64, 0x00, 0x99, 0x36, 0x6B, 0x00, 0x99, 0x24, 0x73, 0x78, 0x89, 0x39, 0x7F, 0x00, 0x89, 0x24, 0x7F, 0x78, 0x89, 0x36, 0x4C, 0x81, 0x70, 0x99, 0x31, 0x64, 0x00, 0x99, 0x36, 0x6B, 0x00, 0x99, 0x28, 0x64, 0x78, 0x89, 0x31, 0x7F, 0x00, 0x89, 0x28, 0x41, 
	0x78, 0x89, 0x36, 0x78, 0x00, 0x99, 0x28, 0x5B, 0x78, 0x89, 0x28, 0x66, 0x00, 0x99, 0x28, 0x65, 0x78, 0x89, 0x28, 0x5C, 0x00, 0x99, 0x39, 0x64, 0x00, 0x99, 0x24, 0x64, 0x78, 0x89, 0x39, 0x7F, 0x78, 0x89, 0x24, 0x01, 0x00, 0x99, 0x35, 0x28, 0x78, 0x89, 0x35, 0x6C, 0x78, 0x99, 0x35, 0x64, 0x00, 0x99, 0x28, 0x64, 0x78, 0x89, 0x35, 0x7F, 0x00, 0x89, 0x28, 0x47, 0x78, 0x99, 0x35, 0x28, 
	0x00, 0x99, 0x24, 0x3C, 0x78, 0x89, 0x35, 0x66, 0x00, 0x89, 0x24, 0x11, 0x78, 0x99, 0x35, 0x64, 0x78, 0x89, 0x35, 0x7F, 0x78, 0x99, 0x35, 0x28, 0x00, 0x99, 0x24, 0x3C, 0x78, 0x89, 0x35, 0x5C, 0x00, 0x89, 0x24, 0x33, 0x78, 0x99, 0x35, 0x64, 0x00, 0x99, 0x36, 0x6B, 0x00, 0x99, 0x28, 0x64, 0x78, 0x89, 0x35, 0x7F, 0x00, 0x89, 0x28, 0x41, 0x78, 0x89, 0x36, 0x4C, 0x00, 0x99, 0x35, 0x28, 
	0x78, 0x89, 0x35, 0x7F, 0x78, 0x99, 0x35, 0x64, 0x00, 0x99, 0x24, 0x64, 0x78, 0x89, 0x35, 0x7F, 0x78, 0x89, 0x24, 0x01, 0x00, 0x99, 0x35, 0x28, 0x78, 0x89, 0x35, 0x6C, 0x78, 0x99, 0x35, 0x64, 0x00, 0x99, 0x28, 0x64, 0x78, 0x89, 0x35, 0x7F, 0x00, 0x89, 0x28, 0x47, 0x78, 0x99, 0x35, 0x28, 0x00, 0x99, 0x24, 0x3C, 0x78, 0x89, 0x35, 0x66, 0x00, 0x89, 0x24, 0x11, 0x78, 0x99, 0x35, 0x64, 
	0x78, 0x89, 0x35, 0x7F, 0x78, 0x99, 0x35, 0x28, 0x00, 0x99, 0x24, 0x3C, 0x78, 0x89, 0x35, 0x5C, 0x00, 0x89, 0x24, 0x33, 0x78, 0x99, 0x35, 0x64, 0x00, 0x99, 0x36, 0x6B, 0x00, 0x99, 0x28, 0x64, 0x78, 0x89, 0x35, 0x7F, 0x00, 0x89, 0x28, 0x41, 0x78, 0x89, 0x36, 0x78, 0x00, 0x99, 0x35, 0x28, 0x78, 0x89, 0x35, 0x7F, 0x78, 0x99, 0x35, 0x64, 0x00, 0x99, 0x24, 0x64, 0x78, 0x89, 0x35, 0x7F, 
	0x78, 0x89, 0x24, 0x01, 0x00, 0x99, 0x35, 0x28, 0x78, 0x89, 0x35, 0x6C, 0x78, 0x99, 0x35, 0x64, 0x00, 0x99, 0x28, 0x64, 0x78, 0x89, 0x35, 0x7F, 0x00, 0x89, 0x28, 0x47, 0x78, 0x99, 0x35, 0x28, 0x00, 0x99, 0x24, 0x3C, 0x78, 0x89, 0x35, 0x66, 0x00, 0x89, 0x24, 0x11, 0x78, 0x99, 0x35, 0x64, 0x78, 0x89, 0x35, 0x7F, 0x78, 0x99, 0x35, 0x28, 0x00, 0x99, 0x24, 0x3C, 0x78, 0x89, 0x35, 0x5C, 
	0x00, 0x89, 0x24, 0x33, 0x78, 0x99, 0x35, 0x64, 0x00, 0x99, 0x36, 0x6B, 0x00, 0x99, 0x28, 0x64, 0x78, 0x89, 0x35, 0x7F, 0x00, 0x89, 0x28, 0x41, 0x78, 0x89, 0x36, 0x4C, 0x00, 0x99, 0x35, 0x28, 0x78, 0x89, 0x35, 0x7F, 0x78, 0x99, 0x35, 0x64, 0x00, 0x99, 0x24, 0x64, 0x78, 0x89, 0x35, 0x7F, 0x78, 0x89, 0x24, 0x01, 0x00, 0x99, 0x35, 0x28, 0x78, 0x89, 0x35, 0x6C, 0x78, 0x99, 0x35, 0x64, 
	0x00, 0x99, 0x28, 0x64, 0x78, 0x89, 0x35, 0x7F, 0x00, 0x89, 0x28, 0x47, 0x78, 0x99, 0x35, 0x28, 0x00, 0x99, 0x24, 0x3C, 0x78, 0x89, 0x35, 0x66, 0x00, 0x89, 0x24, 0x11, 0x78, 0x99, 0x35, 0x64, 0x78, 0x89, 0x35, 0x7F, 0x78, 0x99, 0x35, 0x28, 0x00, 0x99, 0x24, 0x3C, 0x78, 0x89, 0x35, 0x5C, 0x00, 0x89, 0x24, 0x33, 0x78, 0x99, 0x35, 0x64, 0x00, 0x99, 0x36, 0x6B, 0x00, 0x99, 0x28, 0x64, 
	0x78, 0x89, 0x35, 0x7F, 0x00, 0x89, 0x28, 0x41, 0x78, 0x89, 0x36, 0x78, 0x00, 0x99, 0x35, 0x28, 0x00, 0x99, 0x29, 0x67, 0x78, 0x89, 0x35, 0x7F, 0x00, 0x89, 0x29, 0x7F, 0x78, 0x99, 0x39, 0x50, 0x00, 0x99, 0x24, 0x64, 0x78, 0x89, 0x39, 0x7F, 0x78, 0x89, 0x24, 0x01, 0x00, 0x99, 0x35, 0x28, 0x78, 0x89, 0x35, 0x6C, 0x78, 0x99, 0x35, 0x64, 0x00, 0x99, 0x28, 0x64, 0x78, 0x89, 0x35, 0x7F, 
	0x00, 0x89, 0x28, 0x47, 0x78, 0x99, 0x35, 0x28, 0x00, 0x99, 0x24, 0x3C, 0x78, 0x89, 0x35, 0x66, 0x00, 0x89, 0x24, 0x11, 0x78, 0x99, 0x35, 0x64, 0x78, 0x89, 0x35, 0x7F, 0x78, 0x99, 0x35, 0x28, 0x00, 0x99, 0x24, 0x3C, 0x78, 0x89, 0x35, 0x5C, 0x00, 0x89, 0x24, 0x33, 0x78, 0x99, 0x35, 0x64, 0x00, 0x99, 0x36, 0x6B, 0x00, 0x99, 0x28, 0x64, 0x78, 0x89, 0x35, 0x7F, 0x00, 0x89, 0x28, 0x41, 
	0x78, 0x89, 0x36, 0x4C, 0x00, 0x99, 0x35, 0x28, 0x78, 0x89, 0x35, 0x7F, 0x78, 0x99, 0x35, 0x64, 0x00, 0x99, 0x24, 0x64, 0x78, 0x89, 0x35, 0x7F, 0x78, 0x89, 0x24, 0x01, 0x00, 0x99, 0x35, 0x28, 0x78, 0x89, 0x35, 0x6C, 0x78, 0x99, 0x35, 0x64, 0x00, 0x99, 0x28, 0x64, 0x78, 0x89, 0x35, 0x7F, 0x00, 0x89, 0x28, 0x47, 0x78, 0x99, 0x35, 0x28, 0x00, 0x99, 0x24, 0x3C, 0x78, 0x89, 0x35, 0x66, 
	0x00, 0x89, 0x24, 0x11, 0x78, 0x99, 0x35, 0x64, 0x78, 0x89, 0x35, 0x7F, 0x78, 0x99, 0x35, 0x28, 0x00, 0x99, 0x24, 0x3C, 0x78, 0x89, 0x35, 0x5C, 0x00, 0x89, 0x24, 0x33, 0x78, 0x99, 0x35, 0x64, 0x00, 0x99, 0x36, 0x6B, 0x00, 0x99, 0x28, 0x64, 0x78, 0x89, 0x35, 0x7F, 0x00, 0x89, 0x28, 0x41, 0x78, 0x89, 0x36, 0x78, 0x00, 0x99, 0x35, 0x28, 0x78, 0x89, 0x35, 0x7F, 0x78, 0x99, 0x35, 0x64, 
	0x00, 0x99, 0x24, 0x64, 0x78, 0x89, 0x35, 0x7F, 0x78, 0x89, 0x24, 0x01, 0x00, 0x99, 0x35, 0x28, 0x78, 0x89, 0x35, 0x6C, 0x78, 0x99, 0x35, 0x64, 0x00, 0x99, 0x28, 0x64, 0x78, 0x89, 0x35, 0x7F, 0x00, 0x89, 0x28, 0x47, 0x78, 0x99, 0x35, 0x28, 0x00, 0x99, 0x24, 0x3C, 0x78, 0x89, 0x35, 0x66, 0x00, 0x89, 0x24, 0x11, 0x78, 0x99, 0x35, 0x64, 0x78, 0x89, 0x35, 0x7F, 0x78, 0x99, 0x35, 0x28, 
	0x00, 0x99, 0x24, 0x3C, 0x78, 0x89, 0x35, 0x5C, 0x00, 0x89, 0x24, 0x33, 0x78, 0x99, 0x35, 0x64, 0x00, 0x99, 0x36, 0x6B, 0x00, 0x99, 0x28, 0x64, 0x78, 0x89, 0x35, 0x7F, 0x00, 0x89, 0x28, 0x41, 0x78, 0x89, 0x36, 0x4C, 0x00, 0x99, 0x35, 0x28, 0x78, 0x89, 0x35, 0x7F, 0x78, 0x99, 0x35, 0x64, 0x00, 0x99, 0x24, 0x64, 0x78, 0x89, 0x35, 0x7F, 0x78, 0x89, 0x24, 0x01, 0x00, 0x99, 0x35, 0x28, 
	0x78, 0x89, 0x35, 0x6C, 0x78, 0x99, 0x35, 0x64, 0x00, 0x99, 0x28, 0x64, 0x78, 0x89, 0x35, 0x7F, 0x00, 0x89, 0x28, 0x47, 0x78, 0x99, 0x28, 0x60, 0x78, 0x89, 0x28, 0x6C, 0x00, 0x99, 0x28, 0x61, 0x78, 0x89, 0x28, 0x61, 0x00, 0x99, 0x28, 0x64, 0x78, 0x89, 0x28, 0x60, 0x78, 0x99, 0x28, 0x6C, 0x78, 0x89, 0x28, 0x69, 0x78, 0x99, 0x36, 0x6B, 0x00, 0x99, 0x29, 0x78, 0x78, 0x89, 0x29, 0x7F, 
	0x78, 0x89, 0x36, 0x78, 0x00, 0x99, 0x2D, 0x6A, 0x78, 0x89, 0x2D, 0x7F, 0x78, 0x99, 0x31, 0x64, 0x00, 0x99, 0x24, 0x64, 0x78, 0x89, 0x31, 0x7F, 0x78, 0x89, 0x24, 0x01, 0x00, 0x99, 0x2A, 0x41, 0x78, 0x89, 0x2A, 0x6C, 0x78, 0x99, 0x2A, 0x64, 0x00, 0x99, 0x28, 0x64, 0x78, 0x89, 0x2A, 0x7F, 0x00, 0x89, 0x28, 0x47, 0x78, 0x99, 0x2A, 0x41, 0x00, 0x99, 0x24, 0x3C, 0x78, 0x89, 0x2A, 0x66, 
	0x00, 0x89, 0x24, 0x11, 0x78, 0x99, 0x2A, 0x64, 0x78, 0x89, 0x2A, 0x7F, 0x78, 0x99, 0x2A, 0x41, 0x00, 0x99, 0x24, 0x3C, 0x78, 0x89, 0x2A, 0x5C, 0x00, 0x89, 0x24, 0x33, 0x78, 0x99, 0x2A, 0x64, 0x00, 0x99, 0x36, 0x6B, 0x00, 0x99, 0x28, 0x64, 0x78, 0x89, 0x2A, 0x7F, 0x00, 0x89, 0x28, 0x41, 0x78, 0x89, 0x36, 0x4C, 0x00, 0x99, 0x2E, 0x41, 0x78, 0x89, 0x2E, 0x7F, 0x78, 0x99, 0x2A, 0x64, 
	0x00, 0x99, 0x24, 0x64, 0x78, 0x89, 0x2A, 0x7F, 0x78, 0x89, 0x24, 0x01, 0x00, 0x99, 0x2A, 0x41, 0x78, 0x89, 0x2A, 0x6C, 0x78, 0x99, 0x2A, 0x64, 0x00, 0x99, 0x28, 0x64, 0x78, 0x89, 0x2A, 0x7F, 0x00, 0x89, 0x28, 0x47, 0x78, 0x99, 0x2A, 0x41, 0x00, 0x99, 0x24, 0x3C, 0x78, 0x89, 0x2A, 0x66, 0x00, 0x89, 0x24, 0x11, 0x78, 0x99, 0x2A, 0x64, 0x78, 0x89, 0x2A, 0x7F, 0x78, 0x99, 0x2A, 0x41, 
	0x00, 0x99, 0x24, 0x3C, 0x78, 0x89, 0x2A, 0x5C, 0x00, 0x89, 0x24, 0x33, 0x78, 0x99, 0x2A, 0x64, 0x00, 0x99, 0x36, 0x6B, 0x00, 0x99, 0x28, 0x64, 0x78, 0x89, 0x2A, 0x7F, 0x00, 0x89, 0x28, 0x41, 0x78, 0x89, 0x36, 0x78, 0x00, 0x99, 0x2A, 0x41, 0x78, 0x89, 0x2A, 0x7F, 0x78, 0x99, 0x2A, 0x64, 0x00, 0x99, 0x24, 0x64, 0x78, 0x89, 0x2A, 0x7F, 0x78, 0x89, 0x24, 0x01, 0x00, 0x99, 0x2A, 0x41, 
	0x78, 0x89, 0x2A, 0x6C, 0x78, 0x99, 0x2A, 0x64, 0x00, 0x99, 0x28, 0x64, 0x78, 0x89, 0x2A, 0x7F, 0x00, 0x89, 0x28, 0x47, 0x78, 0x99, 0x2A, 0x41, 0x00, 0x99, 0x24, 0x3C, 0x78, 0x89, 0x2A, 0x66, 0x00, 0x89, 0x24, 0x11, 0x78, 0x99, 0x2A, 0x64, 0x78, 0x89, 0x2A, 0x7F, 0x78, 0x99, 0x2A, 0x41, 0x00, 0x99, 0x24, 0x3C, 0x78, 0x89, 0x2A, 0x5C, 0x00, 0x89, 0x24, 0x33, 0x78, 0x99, 0x2A, 0x64, 
	0x00, 0x99, 0x36, 0x6B, 0x00, 0x99, 0x28, 0x64, 0x78, 0x89, 0x2A, 0x7F, 0x00, 0x89, 0x28, 0x41, 0x78, 0x89, 0x36, 0x4C, 0x00, 0x99, 0x2E, 0x41, 0x78, 0x89, 0x2E, 0x7F, 0x78, 0x99, 0x2A, 0x64, 0x00, 0x99, 0x24, 0x64, 0x78, 0x89, 0x2A, 0x7F, 0x78, 0x89, 0x24, 0x01, 0x00, 0x99, 0x2A, 0x41, 0x78, 0x89, 0x2A, 0x6C, 0x78, 0x99, 0x2A, 0x64, 0x00, 0x99, 0x28, 0x64, 0x78, 0x89, 0x2A, 0x7F, 
	0x00, 0x89, 0x28, 0x47, 0x78, 0x99, 0x2E, 0x64, 0x00, 0x99, 0x24, 0x3C, 0x78, 0x89, 0x2E, 0x5C, 0x00, 0x89, 0x24, 0x11, 0x78, 0x99, 0x2D, 0x66, 0x78, 0x89, 0x2D, 0x7F, 0x78, 0x99, 0x28, 0x68, 0x78, 0x89, 0x28, 0x6C, 0x78, 0x99, 0x36, 0x6B, 0x00, 0x99, 0x29, 0x66, 0x78, 0x89, 0x29, 0x60, 0x78, 0x89, 0x36, 0x78, 0x00, 0x99, 0x2D, 0x5D, 0x78, 0x89, 0x2D, 0x7F, 0x78, 0x99, 0x31, 0x64, 
	0x00, 0x99, 0x24, 0x64, 0x78, 0x89, 0x31, 0x7F, 0x78, 0x89, 0x24, 0x01, 0x00, 0x99, 0x2A, 0x41, 0x78, 0x89, 0x2A, 0x6C, 0x78, 0x99, 0x2A, 0x64, 0x00, 0x99, 0x28, 0x64, 0x78, 0x89, 0x2A, 0x7F, 0x00, 0x89, 0x28, 0x47, 0x78, 0x99, 0x2E, 0x41, 0x00, 0x99, 0x24, 0x3C, 0x78, 0x89, 0x2E, 0x66, 0x00, 0x89, 0x24, 0x11, 0x78, 0x99, 0x2A, 0x64, 0x78, 0x89, 0x2A, 0x7F, 0x78, 0x99, 0x2A, 0x41, 
	0x00, 0x99, 0x24, 0x3C, 0x78, 0x89, 0x2A, 0x5C, 0x00, 0x89, 0x24, 0x33, 0x78, 0x99, 0x2A, 0x64, 0x00, 0x99, 0x36, 0x6B, 0x00, 0x99, 0x28, 0x64, 0x78, 0x89, 0x2A, 0x7F, 0x00, 0x89, 0x28, 0x41, 0x78, 0x89, 0x36, 0x4C, 0x00, 0x99, 0x2A, 0x41, 0x78, 0x89, 0x2A, 0x7F, 0x78, 0x99, 0x2A, 0x64, 0x00, 0x99, 0x24, 0x64, 0x78, 0x89, 0x2A, 0x7F, 0x78, 0x89, 0x24, 0x01, 0x00, 0x99, 0x2A, 0x41, 
	0x78, 0x89, 0x2A, 0x6C, 0x78, 0x99, 0x2A, 0x64, 0x00, 0x99, 0x28, 0x64, 0x78, 0x89, 0x2A, 0x7F, 0x00, 0x89, 0x28, 0x47, 0x78, 0x99, 0x2E, 0x41, 0x00, 0x99, 0x24, 0x3C, 0x78, 0x89, 0x2E, 0x66, 0x00, 0x89, 0x24, 0x11, 0x78, 0x99, 0x2A, 0x64, 0x78, 0x89, 0x2A, 0x7F, 0x78, 0x99, 0x2A, 0x41, 0x00, 0x99, 0x24, 0x3C, 0x78, 0x89, 0x2A, 0x5C, 0x00, 0x89, 0x24, 0x33, 0x78, 0x99, 0x2A, 0x64, 
	0x00, 0x99, 0x36, 0x6B, 0x00, 0x99, 0x28, 0x64, 0x78, 0x89, 0x2A, 0x7F, 0x00, 0x89, 0x28, 0x41, 0x78, 0x89, 0x36, 0x78, 0x00, 0x99, 0x28, 0x65, 0x78, 0x89, 0x28, 0x6A, 0x00, 0x99, 0x28, 0x46, 0x78, 0x89, 0x28, 0x6A, 0x00, 0x99, 0x31, 0x64, 0x00, 0x99, 0x24, 0x64, 0x78, 0x89, 0x31, 0x7F, 0x78, 0x89, 0x24, 0x01, 0x00, 0x99, 0x2A, 0x41, 0x78, 0x89, 0x2A, 0x6C, 0x78, 0x99, 0x2A, 0x64, 
	0x00, 0x99, 0x28, 0x64, 0x78, 0x89, 0x2A, 0x7F, 0x00, 0x89, 0x28, 0x47, 0x78, 0x99, 0x2A, 0x41, 0x00, 0x99, 0x24, 0x3C, 0x78, 0x89, 0x2A, 0x66, 0x00, 0x89, 0x24, 0x11, 0x78, 0x99, 0x2A, 0x64, 0x78, 0x89, 0x2A, 0x7F, 0x78, 0x99, 0x2A, 0x41, 0x00, 0x99, 0x24, 0x3C, 0x78, 0x89, 0x2A, 0x5C, 0x00, 0x89, 0x24, 0x33, 0x78, 0x99, 0x2A, 0x64, 0x00, 0x99, 0x36, 0x6B, 0x00, 0x99, 0x28, 0x64, 
	0x78, 0x89, 0x2A, 0x7F, 0x00, 0x89, 0x28, 0x41, 0x78, 0x89, 0x36, 0x4C, 0x00, 0x99, 0x39, 0x64, 0x00, 0x99, 0x24, 0x3C, 0x78, 0x89, 0x39, 0x7F, 0x00, 0x89, 0x24, 0x33, 0x82, 0x68, 0x99, 0x2A, 0x41, 0x00, 0x99, 0x24, 0x64, 0x78, 0x89, 0x2A, 0x6C, 0x78, 0x89, 0x24, 0x01, 0x00, 0x99, 0x2A, 0x64, 0x00, 0x99, 0x28, 0x64, 0x78, 0x89, 0x2A, 0x7F, 0x00, 0x89, 0x28, 0x47, 0x78, 0x99, 0x2A, 
	0x41, 0x00, 0x99, 0x24, 0x3C, 0x78, 0x89, 0x2A, 0x66, 0x00, 0x89, 0x24, 0x11, 0x78, 0x99, 0x2A, 0x64, 0x78, 0x89, 0x2A, 0x7F, 0x78, 0x99, 0x2A, 0x41, 0x00, 0x99, 0x24, 0x3C, 0x78, 0x89, 0x2A, 0x5C, 0x00, 0x89, 0x24, 0x33, 0x78, 0x99, 0x2A, 0x64, 0x00, 0x99, 0x36, 0x6B, 0x00, 0x99, 0x28, 0x64, 0x78, 0x89, 0x2A, 0x7F, 0x00, 0x89, 0x28, 0x41, 0x78, 0x89, 0x36, 0x78, 0x00, 0x99, 0x31, 
	0x64, 0x00, 0x99, 0x24, 0x3C, 0x78, 0x89, 0x31, 0x7F, 0x00, 0x89, 0x24, 0x33, 0x82, 0x68, 0x99, 0x2A, 0x41, 0x00, 0x99, 0x24, 0x64, 0x78, 0x89, 0x2A, 0x6C, 0x78, 0x89, 0x24, 0x01, 0x00, 0x99, 0x2A, 0x64, 0x00, 0x99, 0x28, 0x64, 0x78, 0x89, 0x2A, 0x7F, 0x00, 0x89, 0x28, 0x47, 0x78, 0x99, 0x2A, 0x41, 0x00, 0x99, 0x24, 0x3C, 0x78, 0x89, 0x2A, 0x66, 0x00, 0x89, 0x24, 0x11, 0x78, 0x99, 
	0x28, 0x69, 0x78, 0x89, 0x28, 0x7F, 0x00, 0x99, 0x28, 0x5C, 0x78, 0x89, 0x28, 0x05, 0x00, 0x99, 0x29, 0x5C, 0x78, 0x89, 0x29, 0x7F, 0x00, 0x99, 0x2D, 0x60, 0x78, 0x89, 0x2D, 0x53, 0x00, 0x99, 0x28, 0x5E, 0x78, 0x89, 0x28, 0x7F, 0x78, 0x99, 0x28, 0x73, 0x78, 0x89, 0x28, 0x7F, 0x00, 0x99, 0x28, 0x64, 0x78, 0x89, 0x28, 0x69, 0x81, 0x70, 0x99, 0x24, 0x5B, 0x00, 0x99, 0x28, 0x64, 0x00, 
	0x99, 0x29, 0x6A, 0x78, 0x89, 0x24, 0x54, 0x00, 0x89, 0x29, 0x7F, 0x00, 0x89, 0x28, 0x63, 0x78, 0x99, 0x29, 0x50, 0x00, 0x99, 0x28, 0x50, 0x78, 0x89, 0x29, 0x7F, 0x00, 0x89, 0x28, 0x57, 0x78, 0x99, 0x29, 0x5A, 0x00, 0x99, 0x28, 0x5A, 0x78, 0x89, 0x29, 0x7F, 0x00, 0x89, 0x28, 0x5F, 0x78, 0x99, 0x29, 0x5F, 0x00, 0x99, 0x28, 0x5F, 0x78, 0x89, 0x29, 0x64, 0x00, 0x89, 0x28, 0x53, 0x78, 
	0x99, 0x29, 0x69, 0x00, 0x99, 0x28, 0x69, 0x78, 0x89, 0x29, 0x7F, 0x00, 0x89, 0x28, 0x51, 0x78, 0x99, 0x28, 0x73, 0x78, 0x89, 0x28, 0x7F, 0x78, 0x99, 0x28, 0x6A, 0x78, 0x89, 0x28, 0x7F, 0x00, 0x99, 0x28, 0x66, 0x78, 0x89, 0x28, 0x7F, 0x00, 0x99, 0x31, 0x64, 0x00, 0x99, 0x36, 0x46, 0x00, 0x99, 0x24, 0x64, 0x78, 0x89, 0x31, 0x7F, 0x78, 0x89, 0x24, 0x01, 0x00, 0x89, 0x36, 0x69, 0x00, 
	0x99, 0x2A, 0x41, 0x00, 0x99, 0x36, 0x28, 0x78, 0x89, 0x2A, 0x6C, 0x78, 0x89, 0x36, 0x5F, 0x00, 0x99, 0x2A, 0x64, 0x00, 0x99, 0x36, 0x73, 0x00, 0x99, 0x28, 0x64, 0x78, 0x89, 0x2A, 0x7F, 0x00, 0x89, 0x28, 0x47, 0x78, 0x89, 0x36, 0x63, 0x00, 0x99, 0x2A, 0x41, 0x00, 0x99, 0x36, 0x28, 0x00, 0x99, 0x24, 0x3C, 0x78, 0x89, 0x2A, 0x66, 0x00, 0x89, 0x24, 0x11, 0x78, 0x89, 0x36, 0x5C, 0x00, 
	0x99, 0x2A, 0x64, 0x00, 0x99, 0x36, 0x46, 0x78, 0x89, 0x2A, 0x7F, 0x78, 0x89, 0x36, 0x68, 0x00, 0x99, 0x2A, 0x41, 0x00, 0x99, 0x36, 0x28, 0x00, 0x99, 0x24, 0x3C, 0x78, 0x89, 0x2A, 0x5C, 0x00, 0x89, 0x24, 0x33, 0x78, 0x89, 0x36, 0x78, 0x00, 0x99, 0x2A, 0x64, 0x00, 0x99, 0x36, 0x73, 0x00, 0x99, 0x28, 0x64, 0x78, 0x89, 0x2A, 0x7F, 0x00, 0x89, 0x28, 0x41, 0x78, 0x89, 0x36, 0x7F, 0x00, 
	0x99, 0x2A, 0x41, 0x00, 0x99, 0x36, 0x28, 0x78, 0x89, 0x2A, 0x7F, 0x78, 0x89, 0x36, 0x7F, 0x00, 0x99, 0x2A, 0x64, 0x00, 0x99, 0x36, 0x46, 0x00, 0x99, 0x24, 0x64, 0x78, 0x89, 0x2A, 0x7F, 0x78, 0x89, 0x24, 0x01, 0x00, 0x89, 0x36, 0x69, 0x00, 0x99, 0x2A, 0x41, 0x00, 0x99, 0x36, 0x28, 0x78, 0x89, 0x2A, 0x6C, 0x78, 0x89, 0x36, 0x5F, 0x00, 0x99, 0x2A, 0x64, 0x00, 0x99, 0x36, 0x73, 0x00, 
	0x99, 0x28, 0x64, 0x78, 0x89, 0x2A, 0x7F, 0x00, 0x89, 0x28, 0x47, 0x78, 0x89, 0x36, 0x63, 0x00, 0x99, 0x2A, 0x41, 0x00, 0x99, 0x36, 0x28, 0x00, 0x99, 0x24, 0x3C, 0x78, 0x89, 0x2A, 0x66, 0x00, 0x89, 0x24, 0x11, 0x78, 0x89, 0x36, 0x5C, 0x00, 0x99, 0x2A, 0x64, 0x00, 0x99, 0x36, 0x46, 0x78, 0x89, 0x2A, 0x7F, 0x78, 0x89, 0x36, 0x68, 0x00, 0x99, 0x2A, 0x41, 0x00, 0x99, 0x36, 0x28, 0x00, 
	0x99, 0x24, 0x3C, 0x78, 0x89, 0x2A, 0x5C, 0x00, 0x89, 0x24, 0x33, 0x78, 0x89, 0x36, 0x78, 0x00, 0x99, 0x2A, 0x64, 0x00, 0x99, 0x36, 0x73, 0x00, 0x99, 0x28, 0x64, 0x78, 0x89, 0x2A, 0x7F, 0x00, 0x89, 0x28, 0x41, 0x78, 0x89, 0x36, 0x7F, 0x00, 0x99, 0x2A, 0x41, 0x00, 0x99, 0x36, 0x28, 0x78, 0x89, 0x2A, 0x7F, 0x78, 0x89, 0x36, 0x7F, 0x00, 0x99, 0x2A, 0x64, 0x00, 0x99, 0x36, 0x46, 0x00, 
	0x99, 0x24, 0x64, 0x78, 0x89, 0x2A, 0x7F, 0x78, 0x89, 0x24, 0x01, 0x00, 0x89, 0x36, 0x69, 0x00, 0x99, 0x2A, 0x41, 0x00, 0x99, 0x36, 0x28, 0x78, 0x89, 0x2A, 0x6C, 0x78, 0x89, 0x36, 0x5F, 0x00, 0x99, 0x2A, 0x64, 0x00, 0x99, 0x36, 0x73, 0x00, 0x99, 0x28, 0x64, 0x78, 0x89, 0x2A, 0x7F, 0x00, 0x89, 0x28, 0x47, 0x78, 0x89, 0x36, 0x63, 0x00, 0x99, 0x2A, 0x41, 0x00, 0x99, 0x36, 0x28, 0x00, 
	0x99, 0x24, 0x3C, 0x78, 0x89, 0x2A, 0x66, 0x00, 0x89, 0x24, 0x11, 0x78, 0x89, 0x36, 0x5C, 0x00, 0x99, 0x2A, 0x64, 0x00, 0x99, 0x36, 0x46, 0x78, 0x89, 0x2A, 0x7F, 0x78, 0x89, 0x36, 0x68, 0x00, 0x99, 0x2A, 0x41, 0x00, 0x99, 0x36, 0x28, 0x00, 0x99, 0x24, 0x3C, 0x78, 0x89, 0x2A, 0x5C, 0x00, 0x89, 0x24, 0x33, 0x78, 0x89, 0x36, 0x78, 0x00, 0x99, 0x2A, 0x64, 0x00, 0x99, 0x36, 0x73, 0x00, 
	0x99, 0x28, 0x64, 0x78, 0x89, 0x2A, 0x7F, 0x00, 0x89, 0x28, 0x41, 0x78, 0x89, 0x36, 0x7F, 0x00, 0x99, 0x2A, 0x41, 0x00, 0x99, 0x36, 0x28, 0x78, 0x89, 0x2A, 0x7F, 0x78, 0x89, 0x36, 0x7F, 0x00, 0x99, 0x2A, 0x64, 0x00, 0x99, 0x36, 0x46, 0x00, 0x99, 0x24, 0x64, 0x78, 0x89, 0x2A, 0x7F, 0x78, 0x89, 0x24, 0x01, 0x00, 0x89, 0x36, 0x69, 0x00, 0x99, 0x2A, 0x41, 0x00, 0x99, 0x36, 0x28, 0x78, 
	0x89, 0x2A, 0x6C, 0x78, 0x89, 0x36, 0x5F, 0x00, 0x99, 0x2A, 0x64, 0x00, 0x99, 0x36, 0x73, 0x00, 0x99, 0x28, 0x64, 0x78, 0x89, 0x2A, 0x7F, 0x00, 0x89, 0x28, 0x47, 0x78, 0x89, 0x36, 0x63, 0x00, 0x99, 0x2A, 0x41, 0x00, 0x99, 0x36, 0x28, 0x00, 0x99, 0x24, 0x3C, 0x78, 0x89, 0x2A, 0x66, 0x00, 0x89, 0x24, 0x11, 0x78, 0x89, 0x36, 0x5C, 0x00, 0x99, 0x2A, 0x64, 0x00, 0x99, 0x36, 0x46, 0x78, 
	0x89, 0x2A, 0x7F, 0x78, 0x89, 0x36, 0x68, 0x00, 0x99, 0x2A, 0x41, 0x00, 0x99, 0x36, 0x28, 0x00, 0x99, 0x24, 0x3C, 0x78, 0x89, 0x2A, 0x5C, 0x00, 0x89, 0x24, 0x33, 0x78, 0x89, 0x36, 0x78, 0x00, 0x99, 0x2A, 0x64, 0x00, 0x99, 0x36, 0x73, 0x00, 0x99, 0x28, 0x64, 0x78, 0x89, 0x2A, 0x7F, 0x00, 0x89, 0x28, 0x41, 0x78, 0x89, 0x36, 0x7F, 0x00, 0x99, 0x2A, 0x41, 0x00, 0x99, 0x36, 0x28, 0x78, 
	0x89, 0x2A, 0x7F, 0x78, 0x89, 0x36, 0x7F, 0x00, 0x99, 0x2A, 0x64, 0x00, 0x99, 0x36, 0x46, 0x00, 0x99, 0x24, 0x64, 0x78, 0x89, 0x2A, 0x7F, 0x78, 0x89, 0x24, 0x01, 0x00, 0x89, 0x36, 0x69, 0x00, 0x99, 0x2A, 0x41, 0x00, 0x99, 0x36, 0x28, 0x78, 0x89, 0x2A, 0x6C, 0x78, 0x89, 0x36, 0x5F, 0x00, 0x99, 0x2A, 0x64, 0x00, 0x99, 0x36, 0x73, 0x00, 0x99, 0x28, 0x64, 0x78, 0x89, 0x2A, 0x7F, 0x00, 
	0x89, 0x28, 0x47, 0x78, 0x89, 0x36, 0x63, 0x00, 0x99, 0x2A, 0x41, 0x00, 0x99, 0x36, 0x28, 0x00, 0x99, 0x24, 0x3C, 0x78, 0x89, 0x2A, 0x66, 0x00, 0x89, 0x24, 0x11, 0x78, 0x89, 0x36, 0x5C, 0x00, 0x99, 0x2A, 0x64, 0x00, 0x99, 0x36, 0x46, 0x78, 0x89, 0x2A, 0x7F, 0x78, 0x89, 0x36, 0x68, 0x00, 0x99, 0x2A, 0x41, 0x00, 0x99, 0x36, 0x28, 0x00, 0x99, 0x24, 0x3C, 0x78, 0x89, 0x2A, 0x5C, 0x00, 
	0x89, 0x24, 0x33, 0x78, 0x89, 0x36, 0x78, 0x00, 0x99, 0x2A, 0x64, 0x00, 0x99, 0x36, 0x73, 0x00, 0x99, 0x28, 0x64, 0x78, 0x89, 0x2A, 0x7F, 0x00, 0x89, 0x28, 0x41, 0x78, 0x89, 0x36, 0x7F, 0x00, 0x99, 0x2A, 0x41, 0x00, 0x99, 0x36, 0x28, 0x78, 0x89, 0x2A, 0x7F, 0x78, 0x89, 0x36, 0x7F, 0x00, 0x99, 0x2A, 0x64, 0x00, 0x99, 0x36, 0x46, 0x00, 0x99, 0x24, 0x64, 0x78, 0x89, 0x2A, 0x7F, 0x78, 
	0x89, 0x24, 0x01, 0x00, 0x89, 0x36, 0x69, 0x00, 0x99, 0x2A, 0x41, 0x00, 0x99, 0x36, 0x28, 0x78, 0x89, 0x2A, 0x6C, 0x78, 0x89, 0x36, 0x5F, 0x00, 0x99, 0x2A, 0x64, 0x00, 0x99, 0x36, 0x73, 0x00, 0x99, 0x28, 0x64, 0x78, 0x89, 0x2A, 0x7F, 0x00, 0x89, 0x28, 0x47, 0x78, 0x89, 0x36, 0x63, 0x00, 0x99, 0x2A, 0x41, 0x00, 0x99, 0x36, 0x28, 0x00, 0x99, 0x24, 0x3C, 0x78, 0x89, 0x2A, 0x66, 0x00, 
	0x89, 0x24, 0x11, 0x78, 0x89, 0x36, 0x5C, 0x00, 0x99, 0x2A, 0x64, 0x00, 0x99, 0x36, 0x46, 0x78, 0x89, 0x2A, 0x7F, 0x78, 0x89, 0x36, 0x68, 0x00, 0x99, 0x2A, 0x41, 0x00, 0x99, 0x36, 0x28, 0x00, 0x99, 0x24, 0x3C, 0x78, 0x89, 0x2A, 0x5C, 0x00, 0x89, 0x24, 0x33, 0x78, 0x89, 0x36, 0x78, 0x00, 0x99, 0x2A, 0x64, 0x00, 0x99, 0x36, 0x73, 0x00, 0x99, 0x28, 0x64, 0x78, 0x89, 0x2A, 0x7F, 0x00, 
	0x89, 0x28, 0x41, 0x78, 0x89, 0x36, 0x7F, 0x00, 0x99, 0x2A, 0x41, 0x00, 0x99, 0x36, 0x28, 0x78, 0x89, 0x2A, 0x7F, 0x78, 0x89, 0x36, 0x7F, 0x00, 0x99, 0x2A, 0x64, 0x00, 0x99, 0x36, 0x46, 0x00, 0x99, 0x24, 0x64, 0x78, 0x89, 0x2A, 0x7F, 0x78, 0x89, 0x24, 0x01, 0x00, 0x89, 0x36, 0x69, 0x00, 0x99, 0x2A, 0x41, 0x00, 0x99, 0x36, 0x28, 0x78, 0x89, 0x2A, 0x6C, 0x78, 0x89, 0x36, 0x5F, 0x00, 
	0x99, 0x2A, 0x64, 0x00, 0x99, 0x36, 0x73, 0x00, 0x99, 0x28, 0x64, 0x78, 0x89, 0x2A, 0x7F, 0x00, 0x89, 0x28, 0x47, 0x78, 0x89, 0x36, 0x63, 0x00, 0x99, 0x2A, 0x41, 0x00, 0x99, 0x36, 0x28, 0x00, 0x99, 0x24, 0x3C, 0x78, 0x89, 0x2A, 0x66, 0x00, 0x89, 0x24, 0x11, 0x78, 0x89, 0x36, 0x5C, 0x00, 0x99, 0x2A, 0x64, 0x00, 0x99, 0x36, 0x46, 0x78, 0x89, 0x2A, 0x7F, 0x78, 0x89, 0x36, 0x68, 0x00, 
	0x99, 0x2A, 0x41, 0x00, 0x99, 0x36, 0x28, 0x00, 0x99, 0x24, 0x3C, 0x78, 0x89, 0x2A, 0x5C, 0x00, 0x89, 0x24, 0x33, 0x78, 0x89, 0x36, 0x78, 0x00, 0x99, 0x2A, 0x64, 0x00, 0x99, 0x36, 0x73, 0x00, 0x99, 0x28, 0x64, 0x78, 0x89, 0x2A, 0x7F, 0x00, 0x89, 0x28, 0x41, 0x78, 0x89, 0x36, 0x7F, 0x00, 0x99, 0x2A, 0x41, 0x00, 0x99, 0x36, 0x28, 0x78, 0x89, 0x2A, 0x7F, 0x78, 0x89, 0x36, 0x7F, 0x00, 
	0x99, 0x2A, 0x64, 0x00, 0x99, 0x36, 0x46, 0x00, 0x99, 0x24, 0x64, 0x78, 0x89, 0x2A, 0x7F, 0x78, 0x89, 0x24, 0x01, 0x00, 0x89, 0x36, 0x69, 0x00, 0x99, 0x2A, 0x41, 0x00, 0x99, 0x36, 0x28, 0x78, 0x89, 0x2A, 0x6C, 0x78, 0x89, 0x36, 0x5F, 0x00, 0x99, 0x2A, 0x64, 0x00, 0x99, 0x36, 0x73, 0x00, 0x99, 0x28, 0x64, 0x78, 0x89, 0x2A, 0x7F, 0x00, 0x89, 0x28, 0x47, 0x78, 0x89, 0x36, 0x63, 0x00, 
	0x99, 0x2E, 0x5A, 0x00, 0x99, 0x36, 0x28, 0x00, 0x99, 0x28, 0x65, 0x78, 0x89, 0x2E, 0x66, 0x00, 0x89, 0x28, 0x59, 0x78, 0x89, 0x36, 0x5C, 0x00, 0x99, 0x36, 0x46, 0x00, 0x99, 0x29, 0x60, 0x78, 0x89, 0x29, 0x5C, 0x78, 0x89, 0x36, 0x68, 0x00, 0x99, 0x36, 0x28, 0x00, 0x99, 0x28, 0x69, 0x78, 0x89, 0x28, 0x7F, 0x78, 0x89, 0x36, 0x78, 0x00, 0x99, 0x36, 0x73, 0x00, 0x99, 0x29, 0x67, 0x78, 
	0x89, 0x29, 0x7F, 0x78, 0x89, 0x36, 0x7F, 0x00, 0x99, 0x36, 0x28, 0x00, 0x99, 0x2D, 0x66, 0x78, 0x89, 0x2D, 0x7F, 0x78, 0x89, 0x36, 0x7F, 0x00, 0x99, 0x31, 0x64, 0x00, 0x99, 0x36, 0x46, 0x00, 0x99, 0x24, 0x64, 0x78, 0x89, 0x31, 0x7F, 0x78, 0x89, 0x24, 0x01, 0x00, 0x89, 0x36, 0x69, 0x00, 0x99, 0x2A, 0x41, 0x00, 0x99, 0x36, 0x28, 0x78, 0x89, 0x2A, 0x6C, 0x78, 0x89, 0x36, 0x5F, 0x00, 
	0x99, 0x2A, 0x64, 0x00, 0x99, 0x36, 0x73, 0x00, 0x99, 0x28, 0x64, 0x78, 0x89, 0x2A, 0x7F, 0x00, 0x89, 0x28, 0x47, 0x78, 0x89, 0x36, 0x63, 0x00, 0x99, 0x2A, 0x41, 0x00, 0x99, 0x36, 0x28, 0x00, 0x99, 0x24, 0x3C, 0x78, 0x89, 0x2A, 0x66, 0x00, 0x89, 0x24, 0x11, 0x78, 0x89, 0x36, 0x5C, 0x00, 0x99, 0x2A, 0x64, 0x00, 0x99, 0x36, 0x46, 0x78, 0x89, 0x2A, 0x7F, 0x78, 0x89, 0x36, 0x68, 0x00, 
	0x99, 0x2A, 0x41, 0x00, 0x99, 0x36, 0x28, 0x00, 0x99, 0x24, 0x3C, 0x78, 0x89, 0x2A, 0x5C, 0x00, 0x89, 0x24, 0x33, 0x78, 0x89, 0x36, 0x78, 0x00, 0x99, 0x2A, 0x64, 0x00, 0x99, 0x36, 0x73, 0x00, 0x99, 0x28, 0x64, 0x78, 0x89, 0x2A, 0x7F, 0x00, 0x89, 0x28, 0x41, 0x78, 0x89, 0x36, 0x7F, 0x00, 0x99, 0x2A, 0x41, 0x00, 0x99, 0x36, 0x28, 0x78, 0x89, 0x2A, 0x7F, 0x78, 0x89, 0x36, 0x7F, 0x00, 
	0x99, 0x2A, 0x64, 0x00, 0x99, 0x36, 0x46, 0x00, 0x99, 0x24, 0x64, 0x78, 0x89, 0x2A, 0x7F, 0x78, 0x89, 0x24, 0x01, 0x00, 0x89, 0x36, 0x69, 0x00, 0x99, 0x2A, 0x41, 0x00, 0x99, 0x36, 0x28, 0x78, 0x89, 0x2A, 0x6C, 0x78, 0x89, 0x36, 0x5F, 0x00, 0x99, 0x2A, 0x64, 0x00, 0x99, 0x36, 0x73, 0x00, 0x99, 0x28, 0x64, 0x78, 0x89, 0x2A, 0x7F, 0x00, 0x89, 0x28, 0x47, 0x78, 0x89, 0x36, 0x63, 0x00, 
	0x99, 0x2A, 0x41, 0x00, 0x99, 0x36, 0x28, 0x00, 0x99, 0x24, 0x3C, 0x78, 0x89, 0x2A, 0x66, 0x00, 0x89, 0x24, 0x11, 0x78, 0x89, 0x36, 0x5C, 0x00, 0x99, 0x2A, 0x64, 0x00, 0x99, 0x36, 0x46, 0x78, 0x89, 0x2A, 0x7F, 0x78, 0x89, 0x36, 0x68, 0x00, 0x99, 0x2A, 0x41, 0x00, 0x99, 0x36, 0x28, 0x00, 0x99, 0x24, 0x3C, 0x78, 0x89, 0x2A, 0x5C, 0x00, 0x89, 0x24, 0x33, 0x78, 0x89, 0x36, 0x78, 0x00, 
	0x99, 0x2A, 0x64, 0x00, 0x99, 0x36, 0x73, 0x00, 0x99, 0x28, 0x64, 0x78, 0x89, 0x2A, 0x7F, 0x00, 0x89, 0x28, 0x41, 0x78, 0x89, 0x36, 0x7F, 0x00, 0x99, 0x2A, 0x41, 0x00, 0x99, 0x36, 0x28, 0x78, 0x89, 0x2A, 0x7F, 0x78, 0x89, 0x36, 0x7F, 0x00, 0x99, 0x2A, 0x64, 0x00, 0x99, 0x36, 0x46, 0x00, 0x99, 0x24, 0x64, 0x78, 0x89, 0x2A, 0x7F, 0x78, 0x89, 0x24, 0x01, 0x00, 0x89, 0x36, 0x69, 0x00, 
	0x99, 0x2A, 0x41, 0x00, 0x99, 0x36, 0x28, 0x78, 0x89, 0x2A, 0x6C, 0x78, 0x89, 0x36, 0x5F, 0x00, 0x99, 0x2A, 0x64, 0x00, 0x99, 0x36, 0x73, 0x00, 0x99, 0x28, 0x64, 0x78, 0x89, 0x2A, 0x7F, 0x00, 0x89, 0x28, 0x47, 0x78, 0x89, 0x36, 0x63, 0x00, 0x99, 0x2A, 0x41, 0x00, 0x99, 0x36, 0x28, 0x00, 0x99, 0x24, 0x3C, 0x78, 0x89, 0x2A, 0x66, 0x00, 0x89, 0x24, 0x11, 0x78, 0x89, 0x36, 0x5C, 0x00, 
	0x99, 0x2A, 0x64, 0x00, 0x99, 0x36, 0x46, 0x78, 0x89, 0x2A, 0x7F, 0x78, 0x89, 0x36, 0x68, 0x00, 0x99, 0x2A, 0x41, 0x00, 0x99, 0x36, 0x28, 0x00, 0x99, 0x24, 0x3C, 0x78, 0x89, 0x2A, 0x5C, 0x00, 0x89, 0x24, 0x33, 0x78, 0x89, 0x36, 0x78, 0x00, 0x99, 0x2A, 0x64, 0x00, 0x99, 0x36, 0x73, 0x00, 0x99, 0x28, 0x64, 0x78, 0x89, 0x2A, 0x7F, 0x00, 0x89, 0x28, 0x41, 0x78, 0x89, 0x36, 0x7F, 0x00, 
	0x99, 0x2A, 0x41, 0x00, 0x99, 0x36, 0x28, 0x78, 0x89, 0x2A, 0x7F, 0x78, 0x89, 0x36, 0x7F, 0x00, 0x99, 0x2A, 0x64, 0x00, 0x99, 0x36, 0x46, 0x00, 0x99, 0x24, 0x64, 0x78, 0x89, 0x2A, 0x7F, 0x78, 0x89, 0x24, 0x01, 0x00, 0x89, 0x36, 0x69, 0x00, 0x99, 0x2A, 0x41, 0x00, 0x99, 0x36, 0x28, 0x78, 0x89, 0x2A, 0x6C, 0x78, 0x89, 0x36, 0x5F, 0x00, 0x99, 0x2A, 0x64, 0x00, 0x99, 0x36, 0x73, 0x00, 
	0x99, 0x28, 0x64, 0x78, 0x89, 0x2A, 0x7F, 0x00, 0x89, 0x28, 0x47, 0x78, 0x89, 0x36, 0x63, 0x00, 0x99, 0x2A, 0x41, 0x00, 0x99, 0x36, 0x28, 0x00, 0x99, 0x24, 0x3C, 0x78, 0x89, 0x2A, 0x66, 0x00, 0x89, 0x24, 0x11, 0x78, 0x89, 0x36, 0x5C, 0x00, 0x99, 0x2A, 0x64, 0x00, 0x99, 0x36, 0x46, 0x78, 0x89, 0x2A, 0x7F, 0x78, 0x89, 0x36, 0x68, 0x00, 0x99, 0x2A, 0x41, 0x00, 0x99, 0x36, 0x28, 0x00, 
	0x99, 0x28, 0x6A, 0x78, 0x89, 0x2A, 0x5C, 0x00, 0x89, 0x28, 0x63, 0x78, 0x89, 0x36, 0x78, 0x00, 0x99, 0x2A, 0x64, 0x00, 0x99, 0x36, 0x73, 0x00, 0x99, 0x29, 0x6D, 0x78, 0x89, 0x2A, 0x7F, 0x00, 0x89, 0x29, 0x67, 0x78, 0x89, 0x36, 0x7F, 0x00, 0x99, 0x2A, 0x41, 0x00, 0x99, 0x36, 0x28, 0x00, 0x99, 0x2D, 0x65, 0x78, 0x89, 0x2A, 0x7F, 0x00, 0x89, 0x2D, 0x7F, 0x78, 0x89, 0x36, 0x7F, 0x00, 
	0x99, 0x31, 0x64, 0x00, 0x99, 0x36, 0x46, 0x00, 0x99, 0x24, 0x64, 0x78, 0x89, 0x31, 0x7F, 0x78, 0x89, 0x24, 0x01, 0x00, 0x89, 0x36, 0x69, 0x00, 0x99, 0x36, 0x28, 0x81, 0x70, 0x89, 0x36, 0x5F, 0x00, 0x99, 0x36, 0x73, 0x00, 0x99, 0x28, 0x64, 0x78, 0x89, 0x28, 0x47, 0x78, 0x89, 0x36, 0x63, 0x00, 0x99, 0x31, 0x41, 0x00, 0x99, 0x36, 0x64, 0x00, 0x99, 0x24, 0x3C, 0x78, 0x89, 0x31, 0x66, 
	0x00, 0x89, 0x24, 0x11, 0x78, 0x89, 0x36, 0x5C, 0x00, 0x99, 0x36, 0x28, 0x81, 0x70, 0x89, 0x36, 0x68, 0x00, 0x99, 0x36, 0x28, 0x00, 0x99, 0x28, 0x66, 0x78, 0x89, 0x28, 0x54, 0x78, 0x89, 0x36, 0x78, 0x00, 0x99, 0x36, 0x73, 0x00, 0x99, 0x29, 0x68, 0x78, 0x89, 0x29, 0x54, 0x78, 0x89, 0x36, 0x7F, 0x00, 0x99, 0x36, 0x28, 0x00, 0x99, 0x2D, 0x66, 0x78, 0x89, 0x2D, 0x7F, 0x78, 0x89, 0x36, 
	0x7F, 0x00, 0x99, 0x39, 0x64, 0x00, 0x99, 0x36, 0x46, 0x00, 0x99, 0x24, 0x64, 0x78, 0x89, 0x39, 0x7F, 0x78, 0x89, 0x24, 0x01, 0x00, 0x89, 0x36, 0x69, 0x81, 0x70, 0x99, 0x2C, 0x46, 0x78, 0x89, 0x2C, 0x4D, 0x82, 0x68, 0x99, 0x2C, 0x46, 0x78, 0x89, 0x2C, 0x62, 0x78, 0x99, 0x24, 0x5B, 0x78, 0x89, 0x24, 0x63, 0x78, 0x99, 0x31, 0x64, 0x00, 0x99, 0x28, 0x69, 0x78, 0x89, 0x28, 0x7F, 0x78, 
	0x89, 0x31, 0x73, 0x81, 0x70, 0x99, 0x31, 0x64, 0x00, 0x99, 0x36, 0x46, 0x00, 0x99, 0x24, 0x64, 0x78, 0x89, 0x31, 0x7F, 0x78, 0x89, 0x24, 0x01, 0x00, 0x89, 0x36, 0x69, 0x00, 0x99, 0x2A, 0x41, 0x00, 0x99, 0x36, 0x28, 0x78, 0x89, 0x2A, 0x6C, 0x78, 0x89, 0x36, 0x5F, 0x00, 0x99, 0x2A, 0x64, 0x00, 0x99, 0x36, 0x73, 0x00, 0x99, 0x28, 0x64, 0x78, 0x89, 0x2A, 0x7F, 0x00, 0x89, 0x28, 0x47, 
	0x78, 0x89, 0x36, 0x63, 0x00, 0x99, 0x2A, 0x41, 0x00, 0x99, 0x36, 0x28, 0x00, 0x99, 0x24, 0x3C, 0x78, 0x89, 0x2A, 0x66, 0x00, 0x89, 0x24, 0x11, 0x78, 0x89, 0x36, 0x5C, 0x00, 0x99, 0x2A, 0x64, 0x00, 0x99, 0x36, 0x46, 0x78, 0x89, 0x2A, 0x7F, 0x78, 0x89, 0x36, 0x68, 0x00, 0x99, 0x2A, 0x41, 0x00, 0x99, 0x36, 0x28, 0x00, 0x99, 0x24, 0x3C, 0x78, 0x89, 0x2A, 0x5C, 0x00, 0x89, 0x24, 0x33, 
	0x78, 0x89, 0x36, 0x78, 0x00, 0x99, 0x2A, 0x64, 0x00, 0x99, 0x36, 0x73, 0x00, 0x99, 0x28, 0x64, 0x78, 0x89, 0x2A, 0x7F, 0x00, 0x89, 0x28, 0x41, 0x78, 0x89, 0x36, 0x7F, 0x00, 0x99, 0x2E, 0x41, 0x00, 0x99, 0x36, 0x28, 0x78, 0x89, 0x2E, 0x7F, 0x78, 0x89, 0x36, 0x7F, 0x00, 0x99, 0x2A, 0x64, 0x00, 0x99, 0x36, 0x46, 0x00, 0x99, 0x24, 0x64, 0x78, 0x89, 0x2A, 0x7F, 0x78, 0x89, 0x24, 0x01, 
	0x00, 0x89, 0x36, 0x69, 0x00, 0x99, 0x2A, 0x41, 0x00, 0x99, 0x36, 0x28, 0x78, 0x89, 0x2A, 0x6C, 0x78, 0x89, 0x36, 0x5F, 0x00, 0x99, 0x2A, 0x64, 0x00, 0x99, 0x36, 0x73, 0x00, 0x99, 0x28, 0x64, 0x78, 0x89, 0x2A, 0x7F, 0x00, 0x89, 0x28, 0x47, 0x78, 0x89, 0x36, 0x63, 0x00, 0x99, 0x2A, 0x41, 0x00, 0x99, 0x36, 0x28, 0x00, 0x99, 0x24, 0x3C, 0x78, 0x89, 0x2A, 0x66, 0x00, 0x89, 0x24, 0x11, 
	0x78, 0x89, 0x36, 0x5C, 0x00, 0x99, 0x2A, 0x64, 0x00, 0x99, 0x36, 0x46, 0x78, 0x89, 0x2A, 0x7F, 0x78, 0x89, 0x36, 0x68, 0x00, 0x99, 0x2A, 0x41, 0x00, 0x99, 0x36, 0x28, 0x00, 0x99, 0x24, 0x3C, 0x78, 0x89, 0x2A, 0x5C, 0x00, 0x89, 0x24, 0x33, 0x78, 0x89, 0x36, 0x78, 0x00, 0x99, 0x2A, 0x64, 0x00, 0x99, 0x36, 0x73, 0x00, 0x99, 0x28, 0x64, 0x78, 0x89, 0x2A, 0x7F, 0x00, 0x89, 0x28, 0x41, 
	0x78, 0x89, 0x36, 0x7F, 0x00, 0x99, 0x2E, 0x41, 0x00, 0x99, 0x36, 0x28, 0x78, 0x89, 0x2E, 0x7F, 0x78, 0x89, 0x36, 0x7F, 0x00, 0x99, 0x31, 0x64, 0x00, 0x99, 0x28, 0x66, 0x78, 0x89, 0x31, 0x7F, 0x00, 0x89, 0x28, 0x7F, 0x78, 0x99, 0x2A, 0x41, 0x00, 0x99, 0x24, 0x4B, 0x78, 0x89, 0x2A, 0x6C, 0x00, 0x89, 0x24, 0x01, 0x78, 0x99, 0x2A, 0x64, 0x00, 0x99, 0x28, 0x6A, 0x78, 0x89, 0x2A, 0x7F, 
	0x00, 0x89, 0x28, 0x7F, 0x78, 0x99, 0x2A, 0x41, 0x00, 0x99, 0x24, 0x52, 0x78, 0x89, 0x2A, 0x66, 0x00, 0x89, 0x24, 0x20, 0x78, 0x99, 0x2A, 0x64, 0x00, 0x99, 0x28, 0x66, 0x78, 0x89, 0x2A, 0x7F, 0x00, 0x89, 0x28, 0x7F, 0x78, 0x99, 0x2A, 0x41, 0x00, 0x99, 0x24, 0x4F, 0x78, 0x89, 0x2A, 0x5C, 0x00, 0x89, 0x24, 0x23, 0x78, 0x99, 0x2A, 0x64, 0x00, 0x99, 0x36, 0x6B, 0x00, 0x99, 0x28, 0x62, 
	0x78, 0x89, 0x2A, 0x7F, 0x00, 0x89, 0x28, 0x08, 0x78, 0x89, 0x36, 0x4C, 0x00, 0x99, 0x2A, 0x41, 0x00, 0x99, 0x24, 0x52, 0x78, 0x89, 0x2A, 0x7F, 0x00, 0x89, 0x24, 0x54, 0x78, 0x99, 0x2A, 0x64, 0x00, 0x99, 0x28, 0x67, 0x78, 0x89, 0x2A, 0x7F, 0x78, 0x89, 0x28, 0x32, 0x00, 0x99, 0x2A, 0x41, 0x00, 0x99, 0x24, 0x53, 0x78, 0x89, 0x2A, 0x6C, 0x00, 0x89, 0x24, 0x35, 0x78, 0x99, 0x2A, 0x64, 
	0x00, 0x99, 0x28, 0x69, 0x78, 0x89, 0x2A, 0x7F, 0x00, 0x89, 0x28, 0x7F, 0x78, 0x99, 0x2A, 0x41, 0x00, 0x99, 0x24, 0x4D, 0x78, 0x89, 0x2A, 0x66, 0x00, 0x89, 0x24, 0x26, 0x78, 0x99, 0x2A, 0x64, 0x00, 0x99, 0x28, 0x68, 0x78, 0x89, 0x2A, 0x7F, 0x00, 0x89, 0x28, 0x7F, 0x78, 0x99, 0x2A, 0x41, 0x00, 0x99, 0x24, 0x51, 0x78, 0x89, 0x2A, 0x5C, 0x00, 0x89, 0x24, 0x38, 0x78, 0x99, 0x2A, 0x64, 
	0x00, 0x99, 0x36, 0x6B, 0x00, 0x99, 0x28, 0x69, 0x78, 0x89, 0x2A, 0x7F, 0x00, 0x89, 0x28, 0x7F, 0x78, 0x89, 0x36, 0x78, 0x00, 0x99, 0x2A, 0x41, 0x00, 0x99, 0x24, 0x49, 0x78, 0x89, 0x2A, 0x7F, 0x00, 0x89, 0x24, 0x01, 0x78, 0x99, 0x31, 0x64, 0x00, 0x99, 0x28, 0x68, 0x78, 0x89, 0x31, 0x7F, 0x00, 0x89, 0x28, 0x7F, 0x78, 0x99, 0x2A, 0x41, 0x00, 0x99, 0x24, 0x4D, 0x78, 0x89, 0x2A, 0x6C, 
	0x00, 0x89, 0x24, 0x01, 0x78, 0x99, 0x2A, 0x64, 0x00, 0x99, 0x28, 0x66, 0x78, 0x89, 0x2A, 0x7F, 0x00, 0x89, 0x28, 0x7F, 0x78, 0x99, 0x2A, 0x41, 0x00, 0x99, 0x24, 0x50, 0x78, 0x89, 0x2A, 0x66, 0x00, 0x89, 0x24, 0x39, 0x78, 0x99, 0x2A, 0x64, 0x00, 0x99, 0x28, 0x67, 0x78, 0x89, 0x2A, 0x7F, 0x00, 0x89, 0x28, 0x7F, 0x78, 0x99, 0x2A, 0x41, 0x00, 0x99, 0x24, 0x4A, 0x78, 0x89, 0x2A, 0x5C, 
	0x00, 0x89, 0x24, 0x25, 0x78, 0x99, 0x2A, 0x64, 0x00, 0x99, 0x36, 0x6B, 0x00, 0x99, 0x28, 0x6A, 0x78, 0x89, 0x2A, 0x7F, 0x00, 0x89, 0x28, 0x7F, 0x78, 0x89, 0x36, 0x4C, 0x00, 0x99, 0x31, 0x64, 0x00, 0x99, 0x24, 0x48, 0x78, 0x89, 0x31, 0x7F, 0x00, 0x89, 0x24, 0x01, 0x82, 0x68, 0x99, 0x2A, 0x41, 0x00, 0x99, 0x24, 0x4B, 0x78, 0x89, 0x2A, 0x6C, 0x00, 0x89, 0x24, 0x01, 0x78, 0x99, 0x2A, 
	0x64, 0x00, 0x99, 0x28, 0x6A, 0x78, 0x89, 0x2A, 0x7F, 0x00, 0x89, 0x28, 0x7F, 0x78, 0x99, 0x2A, 0x41, 0x00, 0x99, 0x24, 0x52, 0x78, 0x89, 0x2A, 0x66, 0x00, 0x89, 0x24, 0x20, 0x78, 0x99, 0x2A, 0x64, 0x00, 0x99, 0x28, 0x66, 0x78, 0x89, 0x2A, 0x7F, 0x00, 0x89, 0x28, 0x7F, 0x78, 0x99, 0x2A, 0x41, 0x00, 0x99, 0x24, 0x4F, 0x78, 0x89, 0x2A, 0x5C, 0x00, 0x89, 0x24, 0x23, 0x78, 0x99, 0x2A, 
	0x64, 0x00, 0x99, 0x36, 0x6B, 0x00, 0x99, 0x28, 0x62, 0x78, 0x89, 0x2A, 0x7F, 0x00, 0x89, 0x28, 0x08, 0x78, 0x89, 0x36, 0x78, 0x00, 0x99, 0x2A, 0x41, 0x00, 0x99, 0x24, 0x52, 0x78, 0x89, 0x2A, 0x7F, 0x00, 0x89, 0x24, 0x54, 0x78, 0x99, 0x2A, 0x64, 0x00, 0x99, 0x28, 0x67, 0x78, 0x89, 0x2A, 0x7F, 0x78, 0x89, 0x28, 0x32, 0x00, 0x99, 0x2A, 0x41, 0x00, 0x99, 0x24, 0x53, 0x78, 0x89, 0x2A, 
	0x6C, 0x00, 0x89, 0x24, 0x35, 0x78, 0x99, 0x2A, 0x64, 0x00, 0x99, 0x28, 0x69, 0x78, 0x89, 0x2A, 0x7F, 0x00, 0x89, 0x28, 0x7F, 0x78, 0x99, 0x2A, 0x41, 0x00, 0x99, 0x24, 0x4D, 0x78, 0x89, 0x2A, 0x66, 0x00, 0x89, 0x24, 0x26, 0x78, 0x99, 0x2A, 0x64, 0x00, 0x99, 0x28, 0x68, 0x78, 0x89, 0x2A, 0x7F, 0x00, 0x89, 0x28, 0x7F, 0x78, 0x99, 0x2A, 0x41, 0x00, 0x99, 0x24, 0x51, 0x78, 0x89, 0x2A, 
	0x5C, 0x00, 0x89, 0x24, 0x38, 0x78, 0x99, 0x2A, 0x64, 0x00, 0x99, 0x36, 0x6B, 0x00, 0x99, 0x28, 0x69, 0x78, 0x89, 0x2A, 0x7F, 0x00, 0x89, 0x28, 0x7F, 0x00, 0x99, 0x28, 0x69, 0x78, 0x89, 0x36, 0x4C, 0x00, 0x89, 0x28, 0x7F, 0x00, 0x99, 0x39, 0x64, 0x00, 0x99, 0x24, 0x49, 0x78, 0x89, 0x39, 0x7F, 0x00, 0x89, 0x24, 0x01, 0x9B, 0x18, 0x99, 0x29, 0x67, 0x00, 0x99, 0x2D, 0x60, 0x81, 0x70, 
	0x89, 0x29, 0x7F, 0x00, 0x89, 0x2D, 0x7F, 0x00, 0x99, 0x35, 0x46, 0x78, 0x89, 0x35, 0x54, 0x00, 0x99, 0x33, 0x28, 0x78, 0x89, 0x33, 0x54, 0x00, 0x99, 0x35, 0x5A, 0x00, 0xB9, 0x07, 0x64, 0x32, 0xB9, 0x07, 0x62, 0x46, 0x89, 0x35, 0x69, 0x21, 0xB9, 0x07, 0x5F, 0x81, 0x46, 0xB9, 0x07, 0x5D, 0x77, 0xB9, 0x07, 0x5B, 0x6B, 0xB9, 0x07, 0x59, 0x81, 0x6D, 0xB9, 0x07, 0x57, 0x6F, 0xB9, 0x07, 
	0x54, 0x15, 0xB9, 0x07, 0x52, 0x50, 0xB9, 0x07, 0x4F, 0x4F, 0xB9, 0x07, 0x4C, 0x50, 0xB9, 0x07, 0x4A, 0x52, 0xB9, 0x07, 0x48, 0x4E, 0xB9, 0x07, 0x46, 0x3C, 0xB9, 0x07, 0x44, 0x81, 0x21, 0xB9, 0x07, 0x42, 0x81, 0x1F, 0xB9, 0x07, 0x3F, 0x27, 0xB9, 0x07, 0x3D, 0x09, 0xB9, 0x07, 0x3A, 0x2C, 0xB9, 0x07, 0x37, 0x4F, 0xB9, 0x07, 0x35, 0x77, 0xB9, 0x07, 0x33, 0x81, 0x1D, 0xB9, 0x07, 0x31, 
	0x7B, 0xB9, 0x07, 0x2F, 0x77, 0xB9, 0x07, 0x2C, 0x4F, 0xB9, 0x07, 0x2A, 0x50, 0xB9, 0x07, 0x27, 0x38, 0xB9, 0x07, 0x24, 0x4D, 0xB9, 0x07, 0x22, 0x52, 0xB9, 0x07, 0x20, 0x13, 0xB9, 0x07, 0x1E, 0x76, 0xB9, 0x07, 0x1C, 0x7A, 0xB9, 0x07, 0x1A, 0x4F, 0xB9, 0x07, 0x17, 0x13, 0xB9, 0x07, 0x15, 0x28, 0xB9, 0x07, 0x13, 0x53, 0xB9, 0x07, 0x10, 0x4F, 0xB9, 0x07, 0x0D, 0x77, 0xB9, 0x07, 0x0B, 
	0x52, 0xB9, 0x07, 0x09, 0x4B, 0xB9, 0x07, 0x06, 0x53, 0xB9, 0x07, 0x03, 0x7C, 0xB9, 0x07, 0x00, 0x00, 0xFF, 0x2F, 0x00, 0x4D, 0x54, 0x72, 0x6B, 0x00, 0x00, 0x0C, 0xA7, 0x00, 0xFF, 0x03, 0x04, 0x42, 0x61, 0x73, 0x73, 0x14, 0xB0, 0x78, 0x00, 0x0A, 0xB0, 0x79, 0x00, 0x28, 0xB0, 0x65, 0x00, 0x1E, 0xB0, 0x64, 0x00, 0x1E, 0xB0, 0x06, 0x02, 0x1E, 0xB0, 0x65, 0x7F, 0x1E, 0xB0, 0x64, 0x7F, 
	0x0A, 0xC0, 0x21, 0x14, 0xE0, 0x00, 0x40, 0x0A, 0xB0, 0x01, 0x00, 0x0A, 0xB0, 0x07, 0x6E, 0x14, 0xB0, 0x0B, 0x64, 0x0A, 0xB0, 0x5B, 0x0A, 0x0A, 0xB0, 0x5D, 0x00, 0x14, 0xB0, 0x0A, 0x40, 0xBD, 0x34, 0x90, 0x26, 0x50, 0x8F, 0x00, 0x80, 0x26, 0x44, 0x00, 0x90, 0x25, 0x50, 0x8F, 0x00, 0x80, 0x25, 0x4A, 0x00, 0x90, 0x23, 0x50, 0x8F, 0x00, 0x80, 0x23, 0x35, 0x00, 0x90, 0x21, 0x50, 0x8F, 
	0x00, 0x80, 0x21, 0x7F, 0x00, 0x90, 0x1F, 0x50, 0x8F, 0x00, 0x80, 0x1F, 0x54, 0x00, 0x90, 0x21, 0x50, 0x8F, 0x00, 0x80, 0x21, 0x7F, 0x00, 0x90, 0x26, 0x50, 0x9A, 0x20, 0x80, 0x26, 0x56, 0x00, 0x90, 0x26, 0x67, 0x83, 0x60, 0x80, 0x26, 0x56, 0x00, 0x90, 0x26, 0x68, 0x81, 0x70, 0x80, 0x26, 0x7F, 0x00, 0x90, 0x26, 0x66, 0x81, 0x70, 0x80, 0x26, 0x7F, 0x00, 0x90, 0x26, 0x6A, 0x81, 0x70, 
	0x80, 0x26, 0x7F, 0x00, 0x90, 0x25, 0x6B, 0x83, 0x60, 0x80, 0x25, 0x7F, 0x00, 0x90, 0x25, 0x6C, 0x81, 0x70, 0x80, 0x25, 0x7F, 0x00, 0x90, 0x21, 0x66, 0x81, 0x70, 0x80, 0x21, 0x7F, 0x00, 0x90, 0x25, 0x66, 0x81, 0x70, 0x80, 0x25, 0x7F, 0x00, 0x90, 0x23, 0x73, 0x81, 0x70, 0x80, 0x23, 0x7F, 0x00, 0x90, 0x23, 0x6D, 0x81, 0x70, 0x80, 0x23, 0x7F, 0x00, 0x90, 0x23, 0x6D, 0x81, 0x70, 0x80, 
	0x23, 0x7F, 0x00, 0x90, 0x21, 0x66, 0x83, 0x60, 0x80, 0x21, 0x7F, 0x00, 0x90, 0x21, 0x69, 0x81, 0x70, 0x80, 0x21, 0x7F, 0x00, 0x90, 0x25, 0x66, 0x81, 0x70, 0x80, 0x25, 0x78, 0x00, 0x90, 0x28, 0x60, 0x81, 0x70, 0x80, 0x28, 0x7F, 0x00, 0x90, 0x26, 0x6C, 0x81, 0x70, 0x80, 0x26, 0x7F, 0x00, 0x90, 0x26, 0x63, 0x81, 0x70, 0x80, 0x26, 0x7F, 0x00, 0x90, 0x26, 0x64, 0x81, 0x70, 0x80, 0x26, 
	0x7F, 0x00, 0x90, 0x25, 0x6A, 0x83, 0x60, 0x80, 0x25, 0x7F, 0x00, 0x90, 0x25, 0x6A, 0x81, 0x70, 0x80, 0x25, 0x7F, 0x00, 0x90, 0x21, 0x66, 0x81, 0x70, 0x80, 0x21, 0x7F, 0x00, 0x90, 0x1F, 0x6C, 0x9C, 0x10, 0x80, 0x1F, 0x7F, 0x00, 0x90, 0x1F, 0x73, 0x81, 0x70, 0x80, 0x1F, 0x7F, 0x00, 0x90, 0x21, 0x6B, 0x8F, 0x00, 0x80, 0x21, 0x7F, 0x00, 0x90, 0x2D, 0x6B, 0x83, 0x60, 0x80, 0x2D, 0x78, 
	0x00, 0x90, 0x2D, 0x69, 0x81, 0x70, 0x80, 0x2D, 0x7F, 0x00, 0x90, 0x2B, 0x69, 0x81, 0x70, 0x80, 0x2B, 0x7F, 0x00, 0x90, 0x2B, 0x66, 0x81, 0x70, 0x80, 0x2B, 0x7F, 0x00, 0x90, 0x2A, 0x67, 0x81, 0x70, 0x80, 0x2A, 0x7F, 0x00, 0x90, 0x2A, 0x66, 0x81, 0x70, 0x80, 0x2A, 0x78, 0x00, 0x90, 0x28, 0x57, 0x81, 0x70, 0x80, 0x28, 0x41, 0x00, 0x90, 0x28, 0x53, 0x81, 0x70, 0x80, 0x28, 0x48, 0x00, 
	0x90, 0x26, 0x6C, 0x81, 0x70, 0x80, 0x26, 0x7F, 0x00, 0x90, 0x26, 0x69, 0x81, 0x70, 0x80, 0x26, 0x6C, 0x00, 0x90, 0x26, 0x73, 0x32, 0x80, 0x26, 0x6C, 0x81, 0x3E, 0x90, 0x26, 0x73, 0x83, 0x60, 0x80, 0x26, 0x7F, 0x00, 0x90, 0x1E, 0x67, 0x81, 0x70, 0x80, 0x1E, 0x7F, 0x00, 0x90, 0x21, 0x67, 0x83, 0x60, 0x80, 0x21, 0x7F, 0x00, 0x90, 0x26, 0x6C, 0x81, 0x70, 0x80, 0x26, 0x7F, 0x00, 0x90, 
	0x26, 0x69, 0x81, 0x70, 0x80, 0x26, 0x6C, 0x00, 0x90, 0x26, 0x73, 0x32, 0x80, 0x26, 0x6C, 0x81, 0x3E, 0x90, 0x26, 0x73, 0x83, 0x60, 0x80, 0x26, 0x7F, 0x00, 0x90, 0x1E, 0x67, 0x81, 0x70, 0x80, 0x1E, 0x7F, 0x00, 0x90, 0x21, 0x67, 0x83, 0x60, 0x80, 0x21, 0x7F, 0x00, 0x90, 0x25, 0x6C, 0x81, 0x70, 0x80, 0x25, 0x7F, 0x00, 0x90, 0x25, 0x69, 0x81, 0x70, 0x80, 0x25, 0x6C, 0x00, 0x90, 0x25, 
	0x73, 0x32, 0x80, 0x25, 0x6C, 0x81, 0x3E, 0x90, 0x25, 0x73, 0x83, 0x60, 0x80, 0x25, 0x7F, 0x00, 0x90, 0x1C, 0x67, 0x81, 0x70, 0x80, 0x1C, 0x7F, 0x00, 0x90, 0x21, 0x67, 0x83, 0x60, 0x80, 0x21, 0x7F, 0x00, 0x90, 0x25, 0x6C, 0x81, 0x70, 0x80, 0x25, 0x7F, 0x00, 0x90, 0x25, 0x69, 0x81, 0x70, 0x80, 0x25, 0x6C, 0x00, 0x90, 0x25, 0x73, 0x32, 0x80, 0x25, 0x6C, 0x81, 0x3E, 0x90, 0x25, 0x73, 
	0x83, 0x60, 0x80, 0x25, 0x7F, 0x00, 0x90, 0x1C, 0x67, 0x81, 0x70, 0x80, 0x1C, 0x7F, 0x00, 0x90, 0x21, 0x67, 0x83, 0x60, 0x80, 0x21, 0x7F, 0x00, 0x90, 0x23, 0x6C, 0x81, 0x70, 0x80, 0x23, 0x7F, 0x00, 0x90, 0x23, 0x69, 0x81, 0x70, 0x80, 0x23, 0x6C, 0x00, 0x90, 0x23, 0x73, 0x32, 0x80, 0x23, 0x6C, 0x81, 0x3E, 0x90, 0x23, 0x73, 0x83, 0x60, 0x80, 0x23, 0x7F, 0x00, 0x90, 0x1E, 0x67, 0x81, 
	0x70, 0x80, 0x1E, 0x7F, 0x00, 0x90, 0x23, 0x67, 0x83, 0x60, 0x80, 0x23, 0x7F, 0x00, 0x90, 0x23, 0x6C, 0x81, 0x70, 0x80, 0x23, 0x7F, 0x00, 0x90, 0x23, 0x69, 0x81, 0x70, 0x80, 0x23, 0x6C, 0x00, 0x90, 0x23, 0x73, 0x32, 0x80, 0x23, 0x6C, 0x81, 0x3E, 0x90, 0x23, 0x73, 0x83, 0x60, 0x80, 0x23, 0x7F, 0x00, 0x90, 0x1E, 0x67, 0x81, 0x70, 0x80, 0x1E, 0x7F, 0x00, 0x90, 0x23, 0x67, 0x83, 0x60, 
	0x80, 0x23, 0x7F, 0x00, 0x90, 0x21, 0x6C, 0x81, 0x70, 0x80, 0x21, 0x7F, 0x00, 0x90, 0x21, 0x69, 0x81, 0x70, 0x80, 0x21, 0x6C, 0x00, 0x90, 0x21, 0x73, 0x32, 0x80, 0x21, 0x6C, 0x81, 0x3E, 0x90, 0x21, 0x73, 0x83, 0x60, 0x80, 0x21, 0x7F, 0x00, 0x90, 0x1C, 0x67, 0x81, 0x70, 0x80, 0x1C, 0x7F, 0x00, 0x90, 0x21, 0x67, 0x83, 0x60, 0x80, 0x21, 0x7F, 0x00, 0x90, 0x28, 0x61, 0x83, 0x42, 0x80, 
	0x28, 0x7F, 0x1E, 0x90, 0x28, 0x60, 0x81, 0x70, 0x80, 0x28, 0x7F, 0x00, 0x90, 0x25, 0x68, 0x83, 0x60, 0x80, 0x25, 0x7F, 0x00, 0x90, 0x25, 0x66, 0x81, 0x70, 0x80, 0x25, 0x7F, 0x00, 0x90, 0x21, 0x61, 0x83, 0x60, 0x80, 0x21, 0x7F, 0x00, 0x90, 0x1F, 0x6C, 0x81, 0x70, 0x80, 0x1F, 0x7F, 0x00, 0x90, 0x1F, 0x69, 0x81, 0x70, 0x80, 0x1F, 0x6C, 0x00, 0x90, 0x1F, 0x73, 0x32, 0x80, 0x1F, 0x6C, 
	0x81, 0x3E, 0x90, 0x1F, 0x73, 0x83, 0x60, 0x80, 0x1F, 0x7F, 0x00, 0x90, 0x23, 0x67, 0x81, 0x70, 0x80, 0x23, 0x7F, 0x00, 0x90, 0x26, 0x67, 0x83, 0x60, 0x80, 0x26, 0x7F, 0x00, 0x90, 0x21, 0x6C, 0x81, 0x70, 0x80, 0x21, 0x7F, 0x00, 0x90, 0x21, 0x69, 0x81, 0x70, 0x80, 0x21, 0x6C, 0x00, 0x90, 0x21, 0x73, 0x32, 0x80, 0x21, 0x6C, 0x81, 0x3E, 0x90, 0x21, 0x73, 0x83, 0x60, 0x80, 0x21, 0x7F, 
	0x00, 0x90, 0x25, 0x67, 0x81, 0x70, 0x80, 0x25, 0x7F, 0x00, 0x90, 0x28, 0x67, 0x83, 0x60, 0x80, 0x28, 0x7F, 0x00, 0x90, 0x1E, 0x6C, 0x81, 0x70, 0x80, 0x1E, 0x7F, 0x00, 0x90, 0x1E, 0x69, 0x81, 0x70, 0x80, 0x1E, 0x6C, 0x00, 0x90, 0x1E, 0x73, 0x32, 0x80, 0x1E, 0x6C, 0x81, 0x3E, 0x90, 0x1E, 0x73, 0x83, 0x60, 0x80, 0x1E, 0x7F, 0x00, 0x90, 0x21, 0x67, 0x81, 0x70, 0x80, 0x21, 0x7F, 0x00, 
	0x90, 0x25, 0x67, 0x83, 0x60, 0x80, 0x25, 0x7F, 0x00, 0x90, 0x23, 0x6C, 0x81, 0x70, 0x80, 0x23, 0x7F, 0x00, 0x90, 0x23, 0x69, 0x81, 0x70, 0x80, 0x23, 0x6C, 0x00, 0x90, 0x23, 0x73, 0x32, 0x80, 0x23, 0x6C, 0x81, 0x3E, 0x90, 0x23, 0x73, 0x83, 0x60, 0x80, 0x23, 0x7F, 0x00, 0x90, 0x26, 0x67, 0x81, 0x70, 0x80, 0x26, 0x7F, 0x00, 0x90, 0x2A, 0x67, 0x83, 0x60, 0x80, 0x2A, 0x7F, 0x00, 0x90, 
	0x2B, 0x6C, 0x83, 0x60, 0x80, 0x2B, 0x7F, 0x00, 0x90, 0x2B, 0x73, 0x32, 0x80, 0x2B, 0x6C, 0x81, 0x3E, 0x90, 0x2B, 0x73, 0x83, 0x60, 0x80, 0x2B, 0x7F, 0x00, 0x90, 0x1F, 0x67, 0x81, 0x70, 0x80, 0x1F, 0x7F, 0x00, 0x90, 0x23, 0x67, 0x83, 0x60, 0x80, 0x23, 0x7F, 0x00, 0x90, 0x21, 0x6C, 0x83, 0x60, 0x80, 0x21, 0x7F, 0x00, 0x90, 0x21, 0x73, 0x32, 0x80, 0x21, 0x6C, 0x81, 0x3E, 0x90, 0x21, 
	0x73, 0x83, 0x60, 0x80, 0x21, 0x7F, 0x00, 0x90, 0x25, 0x67, 0x81, 0x70, 0x80, 0x25, 0x7F, 0x00, 0x90, 0x28, 0x67, 0x83, 0x60, 0x80, 0x28, 0x7F, 0x00, 0x90, 0x26, 0x6C, 0x81, 0x70, 0x80, 0x26, 0x7F, 0x00, 0x90, 0x26, 0x69, 0x81, 0x70, 0x80, 0x26, 0x6C, 0x00, 0x90, 0x26, 0x73, 0x32, 0x80, 0x26, 0x6C, 0x81, 0x3E, 0x90, 0x26, 0x73, 0x83, 0x60, 0x80, 0x26, 0x7F, 0x00, 0x90, 0x1E, 0x67, 
	0x81, 0x70, 0x80, 0x1E, 0x7F, 0x00, 0x90, 0x21, 0x67, 0x83, 0x60, 0x80, 0x21, 0x7F, 0x00, 0x90, 0x26, 0x6C, 0x81, 0x70, 0x80, 0x26, 0x7F, 0x00, 0x90, 0x26, 0x69, 0x81, 0x70, 0x80, 0x26, 0x6C, 0x00, 0x90, 0x21, 0x73, 0x81, 0x70, 0x80, 0x21, 0x6C, 0x00, 0x90, 0x26, 0x73, 0x81, 0x70, 0x80, 0x26, 0x7F, 0x00, 0x90, 0x26, 0x67, 0x83, 0x60, 0x80, 0x26, 0x7F, 0x00, 0x90, 0x1C, 0x67, 0x83, 
	0x60, 0x80, 0x1C, 0x7F, 0x00, 0x90, 0x1E, 0x6C, 0x83, 0x60, 0x80, 0x1E, 0x4C, 0x81, 0x70, 0x90, 0x1E, 0x6C, 0x83, 0x60, 0x80, 0x1E, 0x65, 0x00, 0x90, 0x22, 0x64, 0x81, 0x70, 0x80, 0x22, 0x7F, 0x00, 0x90, 0x25, 0x68, 0x83, 0x60, 0x80, 0x25, 0x7F, 0x00, 0x90, 0x1E, 0x6C, 0x83, 0x60, 0x80, 0x1E, 0x4C, 0x81, 0x70, 0x90, 0x1E, 0x6C, 0x83, 0x60, 0x80, 0x1E, 0x65, 0x00, 0x90, 0x22, 0x64, 
	0x81, 0x70, 0x80, 0x22, 0x7F, 0x00, 0x90, 0x25, 0x68, 0x83, 0x60, 0x80, 0x25, 0x7F, 0x00, 0x90, 0x23, 0x6C, 0x83, 0x60, 0x80, 0x23, 0x4C, 0x81, 0x70, 0x90, 0x23, 0x6C, 0x83, 0x60, 0x80, 0x23, 0x65, 0x00, 0x90, 0x26, 0x64, 0x81, 0x70, 0x80, 0x26, 0x7F, 0x00, 0x90, 0x2A, 0x68, 0x83, 0x60, 0x80, 0x2A, 0x7F, 0x00, 0x90, 0x23, 0x6C, 0x83, 0x60, 0x80, 0x23, 0x4C, 0x81, 0x70, 0x90, 0x2A, 
	0x6C, 0x83, 0x60, 0x80, 0x2A, 0x65, 0x00, 0x90, 0x26, 0x64, 0x81, 0x70, 0x80, 0x26, 0x7F, 0x00, 0x90, 0x23, 0x68, 0x83, 0x60, 0x80, 0x23, 0x7F, 0x00, 0x90, 0x1C, 0x6C, 0x83, 0x60, 0x80, 0x1C, 0x4C, 0x81, 0x70, 0x90, 0x1C, 0x6C, 0x83, 0x60, 0x80, 0x1C, 0x65, 0x00, 0x90, 0x1F, 0x64, 0x81, 0x70, 0x80, 0x1F, 0x7F, 0x00, 0x90, 0x23, 0x68, 0x83, 0x60, 0x80, 0x23, 0x7F, 0x00, 0x90, 0x21, 
	0x6C, 0x83, 0x60, 0x80, 0x21, 0x4C, 0x81, 0x70, 0x90, 0x21, 0x6C, 0x83, 0x60, 0x80, 0x21, 0x65, 0x00, 0x90, 0x25, 0x64, 0x81, 0x70, 0x80, 0x25, 0x7F, 0x00, 0x90, 0x28, 0x68, 0x83, 0x60, 0x80, 0x28, 0x7F, 0x00, 0x90, 0x26, 0x6C, 0x83, 0x60, 0x80, 0x26, 0x4C, 0x81, 0x70, 0x90, 0x26, 0x6C, 0x83, 0x60, 0x80, 0x26, 0x65, 0x00, 0x90, 0x2A, 0x64, 0x81, 0x70, 0x80, 0x2A, 0x7F, 0x00, 0x90, 
	0x26, 0x68, 0x83, 0x60, 0x80, 0x26, 0x7F, 0x00, 0x90, 0x27, 0x6C, 0x83, 0x60, 0x80, 0x27, 0x4C, 0x81, 0x70, 0x90, 0x27, 0x6C, 0x83, 0x60, 0x80, 0x27, 0x65, 0x00, 0x90, 0x1E, 0x64, 0x81, 0x70, 0x80, 0x1E, 0x7F, 0x00, 0x90, 0x23, 0x68, 0x83, 0x60, 0x80, 0x23, 0x7F, 0x00, 0x90, 0x28, 0x6C, 0x81, 0x70, 0x80, 0x28, 0x4C, 0x00, 0x90, 0x28, 0x6C, 0x81, 0x70, 0x80, 0x28, 0x4C, 0x00, 0x90, 
	0x28, 0x6C, 0x81, 0x70, 0x80, 0x28, 0x4C, 0x00, 0x90, 0x28, 0x6C, 0x83, 0x60, 0x80, 0x28, 0x65, 0x00, 0x90, 0x1F, 0x64, 0x81, 0x70, 0x80, 0x1F, 0x7F, 0x00, 0x90, 0x23, 0x68, 0x83, 0x60, 0x80, 0x23, 0x7F, 0x00, 0x90, 0x21, 0x6C, 0x81, 0x70, 0x80, 0x21, 0x4C, 0x00, 0x90, 0x21, 0x6C, 0x81, 0x70, 0x80, 0x21, 0x4C, 0x00, 0x90, 0x21, 0x6C, 0x81, 0x70, 0x80, 0x21, 0x4C, 0x00, 0x90, 0x21, 
	0x6C, 0x83, 0x60, 0x80, 0x21, 0x65, 0x00, 0x90, 0x25, 0x64, 0x81, 0x70, 0x80, 0x25, 0x7F, 0x00, 0x90, 0x28, 0x68, 0x83, 0x60, 0x80, 0x28, 0x7F, 0x00, 0x90, 0x22, 0x6C, 0x81, 0x70, 0x80, 0x22, 0x4C, 0x00, 0x90, 0x22, 0x6C, 0x81, 0x70, 0x80, 0x22, 0x4C, 0x00, 0x90, 0x22, 0x6C, 0x81, 0x70, 0x80, 0x22, 0x4C, 0x00, 0x90, 0x22, 0x6C, 0x83, 0x60, 0x80, 0x22, 0x65, 0x00, 0x90, 0x25, 0x64, 
	0x81, 0x70, 0x80, 0x25, 0x7F, 0x00, 0x90, 0x2A, 0x68, 0x83, 0x60, 0x80, 0x2A, 0x7F, 0x00, 0x90, 0x23, 0x73, 0x81, 0x70, 0x80, 0x23, 0x6A, 0x00, 0x90, 0x23, 0x73, 0x81, 0x70, 0x80, 0x23, 0x7F, 0x00, 0x90, 0x26, 0x67, 0x81, 0x70, 0x80, 0x26, 0x61, 0x00, 0x90, 0x21, 0x73, 0x83, 0x60, 0x80, 0x21, 0x4E, 0x00, 0x90, 0x21, 0x64, 0x81, 0x70, 0x80, 0x21, 0x7F, 0x00, 0x90, 0x1E, 0x65, 0x83, 
	0x60, 0x80, 0x1E, 0x7F, 0x00, 0x90, 0x1F, 0x6A, 0x81, 0x70, 0x80, 0x1F, 0x7F, 0x00, 0x90, 0x1F, 0x69, 0x81, 0x70, 0x80, 0x1F, 0x7F, 0x00, 0x90, 0x23, 0x73, 0x81, 0x70, 0x80, 0x23, 0x7F, 0x00, 0x90, 0x1F, 0x6B, 0x83, 0x60, 0x80, 0x1F, 0x7F, 0x00, 0x90, 0x1F, 0x6B, 0x81, 0x70, 0x80, 0x1F, 0x61, 0x00, 0x90, 0x23, 0x73, 0x81, 0x70, 0x80, 0x23, 0x7F, 0x00, 0x90, 0x26, 0x67, 0x81, 0x70, 
	0x80, 0x26, 0x54, 0x00, 0x90, 0x1F, 0x67, 0x81, 0x70, 0x80, 0x1F, 0x6C, 0x00, 0x90, 0x1F, 0x6C, 0x81, 0x70, 0x80, 0x1F, 0x6A, 0x00, 0x90, 0x23, 0x73, 0x81, 0x70, 0x80, 0x23, 0x5F, 0x00, 0x90, 0x1F, 0x6A, 0x83, 0x60, 0x80, 0x1F, 0x7F, 0x00, 0x90, 0x1F, 0x6C, 0x81, 0x70, 0x80, 0x1F, 0x57, 0x00, 0x90, 0x23, 0x73, 0x81, 0x70, 0x80, 0x23, 0x73, 0x00, 0x90, 0x26, 0x65, 0x81, 0x70, 0x80, 
	0x26, 0x7F, 0x00, 0x90, 0x22, 0x69, 0x81, 0x70, 0x80, 0x22, 0x7F, 0x00, 0x90, 0x22, 0x6A, 0x81, 0x70, 0x80, 0x22, 0x7F, 0x00, 0x90, 0x22, 0x6A, 0x81, 0x70, 0x80, 0x22, 0x7F, 0x00, 0x90, 0x22, 0x69, 0x81, 0x70, 0x80, 0x22, 0x78, 0x00, 0x90, 0x22, 0x69, 0x81, 0x70, 0x80, 0x22, 0x6B, 0x00, 0x90, 0x22, 0x66, 0x81, 0x70, 0x80, 0x22, 0x73, 0x00, 0x90, 0x26, 0x67, 0x81, 0x70, 0x80, 0x26, 
	0x7F, 0x00, 0x90, 0x24, 0x73, 0x83, 0x60, 0x80, 0x24, 0x7F, 0x00, 0x90, 0x24, 0x73, 0x81, 0x70, 0x80, 0x24, 0x7F, 0x00, 0x90, 0x24, 0x6D, 0x81, 0x70, 0x80, 0x24, 0x7F, 0x00, 0x90, 0x24, 0x6C, 0x81, 0x70, 0x80, 0x24, 0x7F, 0x00, 0x90, 0x24, 0x6D, 0x81, 0x70, 0x80, 0x24, 0x7F, 0x00, 0x90, 0x24, 0x6C, 0x81, 0x70, 0x80, 0x24, 0x61, 0x00, 0x90, 0x28, 0x5B, 0x81, 0x70, 0x80, 0x28, 0x30, 
	0x00, 0x90, 0x26, 0x6A, 0x83, 0x60, 0x80, 0x26, 0x7F, 0x00, 0x90, 0x26, 0x63, 0x81, 0x70, 0x80, 0x26, 0x7F, 0x00, 0x90, 0x26, 0x65, 0x81, 0x70, 0x80, 0x26, 0x7F, 0x00, 0x90, 0x26, 0x68, 0x81, 0x70, 0x80, 0x26, 0x7F, 0x00, 0x90, 0x26, 0x67, 0x83, 0x60, 0x80, 0x26, 0x7F, 0x00, 0x90, 0x21, 0x68, 0x81, 0x70, 0x80, 0x21, 0x7F, 0x00, 0x90, 0x26, 0x69, 0x81, 0x70, 0x80, 0x26, 0x7F, 0x81, 
	0x70, 0x90, 0x21, 0x46, 0x81, 0x70, 0x80, 0x21, 0x7F, 0x00, 0x90, 0x21, 0x46, 0x81, 0x70, 0x80, 0x21, 0x7F, 0x00, 0x90, 0x21, 0x50, 0x81, 0x70, 0x80, 0x21, 0x7F, 0x00, 0x90, 0x21, 0x5A, 0x81, 0x70, 0x80, 0x21, 0x7F, 0x00, 0x90, 0x21, 0x64, 0x81, 0x70, 0x80, 0x21, 0x7F, 0x00, 0x90, 0x25, 0x69, 0x81, 0x70, 0x80, 0x25, 0x7F, 0x00, 0x90, 0x28, 0x69, 0x81, 0x70, 0x80, 0x28, 0x7F, 0x00, 
	0x90, 0x26, 0x6A, 0x83, 0x60, 0x80, 0x26, 0x6A, 0x00, 0x90, 0x26, 0x73, 0x32, 0x80, 0x26, 0x6A, 0x81, 0x3E, 0x90, 0x26, 0x6B, 0x83, 0x60, 0x80, 0x26, 0x7F, 0x00, 0x90, 0x26, 0x6A, 0x81, 0x70, 0x80, 0x26, 0x7F, 0x00, 0x90, 0x21, 0x60, 0x83, 0x60, 0x80, 0x21, 0x7F, 0x00, 0x90, 0x25, 0x6A, 0x83, 0x60, 0x80, 0x25, 0x6A, 0x00, 0x90, 0x25, 0x73, 0x32, 0x80, 0x25, 0x6A, 0x81, 0x3E, 0x90, 
	0x25, 0x6B, 0x83, 0x60, 0x80, 0x25, 0x7F, 0x00, 0x90, 0x25, 0x6A, 0x81, 0x70, 0x80, 0x25, 0x7F, 0x00, 0x90, 0x1E, 0x60, 0x83, 0x60, 0x80, 0x1E, 0x7F, 0x00, 0x90, 0x23, 0x6A, 0x83, 0x60, 0x80, 0x23, 0x6A, 0x00, 0x90, 0x23, 0x73, 0x32, 0x80, 0x23, 0x6A, 0x81, 0x3E, 0x90, 0x23, 0x6B, 0x83, 0x60, 0x80, 0x23, 0x7F, 0x00, 0x90, 0x23, 0x6A, 0x81, 0x70, 0x80, 0x23, 0x7F, 0x00, 0x90, 0x26, 
	0x60, 0x83, 0x60, 0x80, 0x26, 0x7F, 0x00, 0x90, 0x21, 0x6A, 0x83, 0x60, 0x80, 0x21, 0x6A, 0x00, 0x90, 0x21, 0x73, 0x32, 0x80, 0x21, 0x6A, 0x81, 0x3E, 0x90, 0x21, 0x6B, 0x83, 0x60, 0x80, 0x21, 0x7F, 0x00, 0x90, 0x1E, 0x6A, 0x81, 0x70, 0x80, 0x1E, 0x7F, 0x00, 0x90, 0x21, 0x60, 0x83, 0x60, 0x80, 0x21, 0x7F, 0x00, 0x90, 0x1F, 0x6A, 0x83, 0x60, 0x80, 0x1F, 0x6A, 0x00, 0x90, 0x1F, 0x73, 
	0x32, 0x80, 0x1F, 0x6A, 0x81, 0x3E, 0x90, 0x1F, 0x6B, 0x83, 0x60, 0x80, 0x1F, 0x7F, 0x00, 0x90, 0x1F, 0x6A, 0x81, 0x70, 0x80, 0x1F, 0x7F, 0x00, 0x90, 0x23, 0x60, 0x83, 0x60, 0x80, 0x23, 0x7F, 0x00, 0x90, 0x1E, 0x6A, 0x83, 0x60, 0x80, 0x1E, 0x6A, 0x00, 0x90, 0x1E, 0x73, 0x32, 0x80, 0x1E, 0x6A, 0x81, 0x3E, 0x90, 0x1E, 0x6B, 0x83, 0x60, 0x80, 0x1E, 0x7F, 0x00, 0x90, 0x1E, 0x6A, 0x81, 
	0x70, 0x80, 0x1E, 0x7F, 0x00, 0x90, 0x21, 0x60, 0x83, 0x60, 0x80, 0x21, 0x7F, 0x00, 0x90, 0x1C, 0x6A, 0x83, 0x60, 0x80, 0x1C, 0x6A, 0x00, 0x90, 0x1C, 0x73, 0x32, 0x80, 0x1C, 0x6A, 0x81, 0x3E, 0x90, 0x1C, 0x6B, 0x83, 0x60, 0x80, 0x1C, 0x7F, 0x00, 0x90, 0x1C, 0x6A, 0x81, 0x70, 0x80, 0x1C, 0x7F, 0x00, 0x90, 0x1F, 0x60, 0x83, 0x60, 0x80, 0x1F, 0x7F, 0x00, 0x90, 0x21, 0x6A, 0x83, 0x60, 
	0x80, 0x21, 0x6A, 0x00, 0x90, 0x21, 0x73, 0x32, 0x80, 0x21, 0x6A, 0x81, 0x3E, 0x90, 0x21, 0x6B, 0x83, 0x60, 0x80, 0x21, 0x7F, 0x00, 0x90, 0x21, 0x6A, 0x81, 0x70, 0x80, 0x21, 0x7F, 0x00, 0x90, 0x25, 0x60, 0x83, 0x60, 0x80, 0x25, 0x7F, 0x00, 0x90, 0x26, 0x6A, 0x83, 0x60, 0x80, 0x26, 0x6A, 0x00, 0x90, 0x26, 0x73, 0x32, 0x80, 0x26, 0x6A, 0x81, 0x3E, 0x90, 0x26, 0x6B, 0x83, 0x60, 0x80, 
	0x26, 0x7F, 0x00, 0x90, 0x26, 0x6A, 0x81, 0x70, 0x80, 0x26, 0x7F, 0x00, 0x90, 0x21, 0x60, 0x83, 0x60, 0x80, 0x21, 0x7F, 0x00, 0x90, 0x25, 0x6A, 0x83, 0x60, 0x80, 0x25, 0x6A, 0x00, 0x90, 0x25, 0x73, 0x32, 0x80, 0x25, 0x6A, 0x81, 0x3E, 0x90, 0x25, 0x6B, 0x83, 0x60, 0x80, 0x25, 0x7F, 0x00, 0x90, 0x25, 0x6A, 0x81, 0x70, 0x80, 0x25, 0x7F, 0x00, 0x90, 0x1E, 0x60, 0x83, 0x60, 0x80, 0x1E, 
	0x7F, 0x00, 0x90, 0x23, 0x6A, 0x83, 0x60, 0x80, 0x23, 0x6A, 0x00, 0x90, 0x23, 0x73, 0x32, 0x80, 0x23, 0x6A, 0x81, 0x3E, 0x90, 0x23, 0x6B, 0x83, 0x60, 0x80, 0x23, 0x7F, 0x00, 0x90, 0x23, 0x6A, 0x81, 0x70, 0x80, 0x23, 0x7F, 0x00, 0x90, 0x26, 0x60, 0x83, 0x60, 0x80, 0x26, 0x7F, 0x00, 0x90, 0x21, 0x6A, 0x83, 0x60, 0x80, 0x21, 0x6A, 0x00, 0x90, 0x21, 0x73, 0x32, 0x80, 0x21, 0x6A, 0x81, 
	0x3E, 0x90, 0x21, 0x6B, 0x83, 0x60, 0x80, 0x21, 0x7F, 0x00, 0x90, 0x1E, 0x6A, 0x81, 0x70, 0x80, 0x1E, 0x7F, 0x00, 0x90, 0x21, 0x60, 0x83, 0x60, 0x80, 0x21, 0x7F, 0x00, 0x90, 0x1F, 0x6A, 0x83, 0x60, 0x80, 0x1F, 0x6A, 0x00, 0x90, 0x1F, 0x73, 0x32, 0x80, 0x1F, 0x6A, 0x81, 0x3E, 0x90, 0x1F, 0x6B, 0x83, 0x60, 0x80, 0x1F, 0x7F, 0x00, 0x90, 0x1F, 0x6A, 0x81, 0x70, 0x80, 0x1F, 0x7F, 0x00, 
	0x90, 0x23, 0x60, 0x83, 0x60, 0x80, 0x23, 0x7F, 0x00, 0x90, 0x21, 0x67, 0x8B, 0x20, 0x80, 0x21, 0x7F, 0x00, 0x90, 0x21, 0x68, 0x83, 0x60, 0x80, 0x21, 0x7F, 0x00, 0x90, 0x22, 0x6D, 0x83, 0x60, 0x80, 0x22, 0x7F, 0x81, 0x70, 0x90, 0x22, 0x6C, 0x83, 0x60, 0x80, 0x22, 0x7F, 0x00, 0x90, 0x22, 0x68, 0x81, 0x70, 0x80, 0x22, 0x7F, 0x00, 0x90, 0x26, 0x66, 0x81, 0x70, 0x80, 0x26, 0x78, 0x00, 
	0x90, 0x22, 0x66, 0x81, 0x70, 0x80, 0x22, 0x7F, 0x00, 0x90, 0x24, 0x73, 0x83, 0x60, 0x80, 0x24, 0x7F, 0x81, 0x70, 0x90, 0x24, 0x73, 0x83, 0x60, 0x80, 0x24, 0x7F, 0x00, 0x90, 0x24, 0x6D, 0x81, 0x70, 0x80, 0x24, 0x73, 0x00, 0x90, 0x28, 0x58, 0x81, 0x70, 0x80, 0x28, 0x39, 0x00, 0x90, 0x24, 0x66, 0x81, 0x70, 0x80, 0x24, 0x7F, 0x00, 0x90, 0x26, 0x68, 0x81, 0x70, 0x80, 0x26, 0x7F, 0x00, 
	0x90, 0x26, 0x66, 0x81, 0x70, 0x80, 0x26, 0x7F, 0x00, 0x90, 0x26, 0x6A, 0x81, 0x70, 0x80, 0x26, 0x7F, 0x00, 0x90, 0x25, 0x6B, 0x83, 0x60, 0x80, 0x25, 0x7F, 0x00, 0x90, 0x25, 0x6C, 0x81, 0x70, 0x80, 0x25, 0x7F, 0x00, 0x90, 0x21, 0x66, 0x81, 0x70, 0x80, 0x21, 0x7F, 0x00, 0x90, 0x25, 0x66, 0x81, 0x70, 0x80, 0x25, 0x7F, 0x00, 0x90, 0x23, 0x73, 0x81, 0x70, 0x80, 0x23, 0x7F, 0x00, 0x90, 
	0x23, 0x6D, 0x81, 0x70, 0x80, 0x23, 0x7F, 0x00, 0x90, 0x23, 0x6D, 0x81, 0x70, 0x80, 0x23, 0x7F, 0x00, 0x90, 0x21, 0x66, 0x83, 0x60, 0x80, 0x21, 0x7F, 0x00, 0x90, 0x21, 0x69, 0x81, 0x70, 0x80, 0x21, 0x7F, 0x00, 0x90, 0x25, 0x66, 0x81, 0x70, 0x80, 0x25, 0x78, 0x00, 0x90, 0x28, 0x60, 0x81, 0x70, 0x80, 0x28, 0x7F, 0x00, 0x90, 0x26, 0x6C, 0x81, 0x70, 0x80, 0x26, 0x7F, 0x00, 0x90, 0x26, 
	0x63, 0x81, 0x70, 0x80, 0x26, 0x7F, 0x00, 0x90, 0x26, 0x64, 0x81, 0x70, 0x80, 0x26, 0x7F, 0x00, 0x90, 0x25, 0x6A, 0x83, 0x60, 0x80, 0x25, 0x7F, 0x00, 0x90, 0x25, 0x6A, 0x81, 0x70, 0x80, 0x25, 0x7F, 0x00, 0x90, 0x21, 0x66, 0x81, 0x70, 0x80, 0x21, 0x7F, 0x00, 0x90, 0x1F, 0x6C, 0x9C, 0x10, 0x80, 0x1F, 0x7F, 0x00, 0x90, 0x1F, 0x73, 0x81, 0x70, 0x80, 0x1F, 0x7F, 0x00, 0x90, 0x21, 0x6B, 
	0x9F, 0x70, 0x80, 0x21, 0x7F, 0x00, 0x90, 0x1F, 0x6B, 0x8F, 0x00, 0xB0, 0x07, 0x64, 0x32, 0xB0, 0x07, 0x62, 0x67, 0xB0, 0x07, 0x5F, 0x81, 0x46, 0xB0, 0x07, 0x5D, 0x77, 0xB0, 0x07, 0x5B, 0x6B, 0xB0, 0x07, 0x59, 0x81, 0x6D, 0xB0, 0x07, 0x57, 0x6F, 0xB0, 0x07, 0x54, 0x15, 0xB0, 0x07, 0x52, 0x50, 0xB0, 0x07, 0x4F, 0x4F, 0xB0, 0x07, 0x4C, 0x50, 0xB0, 0x07, 0x4A, 0x52, 0xB0, 0x07, 0x48, 
	0x4E, 0xB0, 0x07, 0x46, 0x3C, 0xB0, 0x07, 0x44, 0x81, 0x21, 0xB0, 0x07, 0x42, 0x81, 0x1F, 0xB0, 0x07, 0x3F, 0x27, 0xB0, 0x07, 0x3D, 0x09, 0xB0, 0x07, 0x3A, 0x2C, 0xB0, 0x07, 0x37, 0x4F, 0xB0, 0x07, 0x35, 0x77, 0xB0, 0x07, 0x33, 0x81, 0x1D, 0xB0, 0x07, 0x31, 0x7B, 0xB0, 0x07, 0x2F, 0x77, 0xB0, 0x07, 0x2C, 0x4F, 0xB0, 0x07, 0x2A, 0x50, 0xB0, 0x07, 0x27, 0x38, 0xB0, 0x07, 0x24, 0x4D, 
	0xB0, 0x07, 0x22, 0x52, 0xB0, 0x07, 0x20, 0x13, 0xB0, 0x07, 0x1E, 0x76, 0xB0, 0x07, 0x1C, 0x7A, 0xB0, 0x07, 0x1A, 0x4F, 0xB0, 0x07, 0x17, 0x13, 0xB0, 0x07, 0x15, 0x28, 0xB0, 0x07, 0x13, 0x53, 0xB0, 0x07, 0x10, 0x4F, 0xB0, 0x07, 0x0D, 0x77, 0xB0, 0x07, 0x0B, 0x52, 0xB0, 0x07, 0x09, 0x4B, 0xB0, 0x07, 0x06, 0x53, 0xB0, 0x07, 0x03, 0x7C, 0xB0, 0x07, 0x00, 0x0A, 0x80, 0x1F, 0x7F, 0x00, 
	0xFF, 0x2F, 0x00, 0x4D, 0x54, 0x72, 0x6B, 0x00, 0x00, 0x07, 0x6A, 0x00, 0xFF, 0x03, 0x04, 0x4D, 0x65, 0x6C, 0x6F, 0x14, 0xB1, 0x78, 0x00, 0x0A, 0xB1, 0x79, 0x00, 0x28, 0xB1, 0x65, 0x00, 0x1E, 0xB1, 0x64, 0x00, 0x1E, 0xB1, 0x06, 0x02, 0x1E, 0xB1, 0x65, 0x7F, 0x1E, 0xB1, 0x64, 0x7F, 0x0A, 0xC1, 0x40, 0x14, 0xE1, 0x00, 0x40, 0x0A, 0xB1, 0x01, 0x00, 0x0A, 0xB1, 0x07, 0x6E, 0x14, 0xB1, 
	0x0B, 0x64, 0x0A, 0xB1, 0x5B, 0x50, 0x0A, 0xB1, 0x5D, 0x00, 0x14, 0xB1, 0x0A, 0x40, 0xB7, 0x64, 0x91, 0x4C, 0x6E, 0x81, 0x70, 0x81, 0x4C, 0x61, 0x00, 0x91, 0x4A, 0x6E, 0x81, 0x70, 0x81, 0x4A, 0x7F, 0x00, 0x91, 0x4C, 0x6E, 0x81, 0x70, 0x81, 0x4C, 0x7F, 0x00, 0x91, 0x4E, 0x6E, 0x85, 0x50, 0x81, 0x4E, 0x01, 0x00, 0x91, 0x45, 0x6E, 0x85, 0x50, 0x81, 0x45, 0x5C, 0x00, 0x91, 0x45, 0x6E, 
	0x83, 0x60, 0x81, 0x45, 0x6D, 0x00, 0x91, 0x46, 0x6E, 0x83, 0x60, 0x81, 0x46, 0x7F, 0x00, 0x91, 0x46, 0x6E, 0x81, 0x70, 0x81, 0x46, 0x7F, 0x00, 0x91, 0x4E, 0x6E, 0x83, 0x60, 0x81, 0x4E, 0x69, 0x00, 0x91, 0x4C, 0x6E, 0x83, 0x60, 0x81, 0x4C, 0x7F, 0x00, 0x91, 0x4E, 0x6E, 0x81, 0x70, 0x81, 0x4E, 0x7F, 0x00, 0x91, 0x4A, 0x6E, 0x8F, 0x00, 0x81, 0x4A, 0x7F, 0x89, 0x30, 0x91, 0x4A, 0x6E, 
	0x81, 0x70, 0x81, 0x4A, 0x7F, 0x00, 0x91, 0x4C, 0x6E, 0x81, 0x70, 0x81, 0x4C, 0x7F, 0x00, 0x91, 0x4E, 0x6E, 0x81, 0x70, 0x81, 0x4E, 0x66, 0x00, 0x91, 0x51, 0x6E, 0x83, 0x60, 0x81, 0x51, 0x73, 0x00, 0x91, 0x53, 0x6E, 0x81, 0x70, 0x81, 0x53, 0x73, 0x00, 0x91, 0x4A, 0x6E, 0x83, 0x60, 0x81, 0x4A, 0x73, 0x81, 0x70, 0x91, 0x53, 0x6E, 0x83, 0x60, 0x81, 0x53, 0x7F, 0x00, 0x91, 0x51, 0x6E, 
	0x83, 0x60, 0x81, 0x51, 0x7F, 0x00, 0x91, 0x4F, 0x6E, 0x83, 0x60, 0x81, 0x4F, 0x4E, 0x00, 0x91, 0x4E, 0x6E, 0x82, 0x68, 0x81, 0x4E, 0x7F, 0x00, 0x91, 0x4C, 0x6E, 0x82, 0x68, 0x81, 0x4C, 0x66, 0x00, 0x91, 0x4E, 0x6E, 0x81, 0x70, 0x81, 0x4E, 0x7F, 0x00, 0x91, 0x4A, 0x6E, 0x8E, 0x08, 0x81, 0x4A, 0x56, 0x81, 0x82, 0x28, 0x91, 0x45, 0x6E, 0x81, 0x70, 0x81, 0x45, 0x61, 0x00, 0x91, 0x4A, 
	0x6E, 0x81, 0x70, 0x81, 0x4A, 0x7F, 0x00, 0x91, 0x4C, 0x6E, 0x81, 0x70, 0x81, 0x4C, 0x66, 0x00, 0x91, 0x4E, 0x6E, 0x83, 0x60, 0x81, 0x4E, 0x57, 0x00, 0x91, 0x4E, 0x6E, 0x81, 0x70, 0x81, 0x4E, 0x61, 0x00, 0x91, 0x4C, 0x6E, 0x83, 0x60, 0x81, 0x4C, 0x4A, 0x00, 0x91, 0x4A, 0x6E, 0x83, 0x60, 0x81, 0x4A, 0x59, 0x00, 0x91, 0x4A, 0x6E, 0x81, 0x70, 0x81, 0x4A, 0x7F, 0x00, 0x91, 0x49, 0x6E, 
	0x8F, 0x78, 0x81, 0x49, 0x7F, 0x97, 0x38, 0x91, 0x47, 0x6E, 0x81, 0x70, 0x81, 0x47, 0x7F, 0x00, 0x91, 0x4A, 0x6E, 0x81, 0x70, 0x81, 0x4A, 0x73, 0x00, 0x91, 0x4C, 0x6E, 0x81, 0x70, 0x81, 0x4C, 0x53, 0x00, 0x91, 0x4E, 0x6E, 0x83, 0x60, 0x81, 0x4E, 0x7F, 0x00, 0x91, 0x4E, 0x6E, 0x81, 0x70, 0x81, 0x4E, 0x2F, 0x00, 0x91, 0x51, 0x6E, 0x83, 0x60, 0x81, 0x51, 0x7F, 0x00, 0x91, 0x4A, 0x6E, 
	0x83, 0x60, 0x81, 0x4A, 0x60, 0x00, 0x91, 0x4A, 0x6E, 0x81, 0x70, 0x81, 0x4A, 0x7F, 0x00, 0x91, 0x4C, 0x6E, 0x83, 0x60, 0x81, 0x4C, 0x7F, 0x00, 0x91, 0x4E, 0x6E, 0x81, 0x70, 0x81, 0x4E, 0x60, 0x00, 0x91, 0x4C, 0x6E, 0x89, 0x30, 0x81, 0x4C, 0x7F, 0x87, 0x40, 0x91, 0x4E, 0x6E, 0x83, 0x60, 0x81, 0x4E, 0x7F, 0x00, 0x91, 0x4F, 0x6E, 0x82, 0x68, 0x81, 0x4F, 0x7F, 0x78, 0x91, 0x51, 0x6E, 
	0x87, 0x40, 0x81, 0x51, 0x5D, 0x00, 0x91, 0x4A, 0x6E, 0x81, 0x70, 0x81, 0x4A, 0x7F, 0x00, 0x91, 0x49, 0x6E, 0x83, 0x60, 0x81, 0x49, 0x5D, 0x00, 0x91, 0x4C, 0x6E, 0x88, 0x38, 0x81, 0x4C, 0x51, 0x78, 0x91, 0x4A, 0x6E, 0x82, 0x68, 0x81, 0x4A, 0x59, 0x78, 0x91, 0x4C, 0x6E, 0x82, 0x68, 0x81, 0x4C, 0x5F, 0x78, 0x91, 0x4E, 0x6E, 0x83, 0x60, 0x81, 0x4E, 0x7F, 0x00, 0x91, 0x4E, 0x6E, 0x83, 
	0x60, 0x81, 0x4E, 0x7F, 0x00, 0x91, 0x4E, 0x6E, 0x81, 0x70, 0x81, 0x4E, 0x7F, 0x00, 0x91, 0x51, 0x6E, 0x83, 0x60, 0x81, 0x51, 0x7F, 0x00, 0x91, 0x4A, 0x6E, 0x8F, 0x78, 0x81, 0x4A, 0x7F, 0x84, 0x58, 0x91, 0x4A, 0x6E, 0x83, 0x60, 0x81, 0x4A, 0x78, 0x00, 0x91, 0x4F, 0x6E, 0x81, 0x70, 0x81, 0x4F, 0x69, 0x00, 0x91, 0x4E, 0x6E, 0x83, 0x60, 0x81, 0x4E, 0x7F, 0x00, 0x91, 0x4C, 0x6E, 0x85, 
	0x50, 0x81, 0x4C, 0x78, 0x00, 0x91, 0x4A, 0x6E, 0x83, 0x60, 0x81, 0x4A, 0x7F, 0x00, 0x91, 0x49, 0x6E, 0x81, 0x70, 0x81, 0x49, 0x54, 0x00, 0x91, 0x4C, 0x6E, 0x83, 0x60, 0x81, 0x4C, 0x7F, 0x00, 0x91, 0x4C, 0x6E, 0x85, 0x50, 0x81, 0x4C, 0x60, 0x00, 0x91, 0x4E, 0x6E, 0x81, 0x70, 0x81, 0x4E, 0x7F, 0x00, 0x91, 0x4A, 0x6E, 0x8F, 0x00, 0x81, 0x4A, 0x7F, 0x8D, 0x10, 0x91, 0x4E, 0x6E, 0x81, 
	0x70, 0x81, 0x4E, 0x7F, 0x00, 0x91, 0x4E, 0x6E, 0x81, 0x70, 0x81, 0x4E, 0x7F, 0x00, 0x91, 0x4E, 0x6E, 0x81, 0x70, 0x81, 0x4E, 0x7F, 0x00, 0x91, 0x4E, 0x6E, 0x83, 0x60, 0x81, 0x4E, 0x63, 0x00, 0x91, 0x52, 0x6E, 0x83, 0x60, 0x81, 0x52, 0x7F, 0x00, 0x91, 0x4E, 0x6E, 0x83, 0x60, 0x81, 0x4E, 0x4E, 0x00, 0x91, 0x4C, 0x6E, 0x83, 0x60, 0x81, 0x4C, 0x59, 0x00, 0x91, 0x4E, 0x6E, 0x83, 0x60, 
	0x81, 0x4E, 0x78, 0x00, 0x91, 0x4C, 0x6E, 0x83, 0x60, 0x81, 0x4C, 0x4A, 0x00, 0x91, 0x4A, 0x6E, 0x81, 0x70, 0x81, 0x4A, 0x78, 0x00, 0x91, 0x4E, 0x6E, 0x8F, 0x78, 0x81, 0x4E, 0x7F, 0x8E, 0x08, 0x91, 0x4F, 0x6E, 0x81, 0x70, 0x81, 0x4F, 0x7F, 0x00, 0x91, 0x4F, 0x6E, 0x81, 0x70, 0x81, 0x4F, 0x7F, 0x00, 0x91, 0x4F, 0x6E, 0x81, 0x70, 0x81, 0x4F, 0x7F, 0x00, 0x91, 0x4E, 0x6E, 0x83, 0x60, 
	0x81, 0x4E, 0x78, 0x00, 0x91, 0x4C, 0x6E, 0x85, 0x50, 0x81, 0x4C, 0x54, 0x00, 0x91, 0x53, 0x6E, 0x83, 0x60, 0x81, 0x53, 0x7F, 0x00, 0x91, 0x51, 0x6E, 0x81, 0x70, 0x81, 0x51, 0x7F, 0x00, 0x91, 0x4C, 0x6E, 0x83, 0x60, 0x81, 0x4C, 0x7F, 0x00, 0x91, 0x4E, 0x6E, 0x92, 0x60, 0x81, 0x4E, 0x7F, 0x87, 0x40, 0x91, 0x4F, 0x6E, 0x81, 0x70, 0x81, 0x4F, 0x7F, 0x00, 0x91, 0x51, 0x6E, 0x81, 0x70, 
	0x81, 0x51, 0x7F, 0x00, 0x91, 0x53, 0x6E, 0x85, 0x50, 0x81, 0x53, 0x22, 0x00, 0x91, 0x51, 0x6E, 0x83, 0x60, 0x81, 0x51, 0x78, 0x00, 0x91, 0x4F, 0x6E, 0x81, 0x70, 0x81, 0x4F, 0x7F, 0x00, 0x91, 0x4E, 0x6E, 0x83, 0x60, 0x81, 0x4E, 0x20, 0x00, 0x91, 0x4C, 0x6E, 0x85, 0x50, 0x81, 0x4C, 0x7F, 0x00, 0x91, 0x4A, 0x6E, 0x83, 0x60, 0x81, 0x4A, 0x01, 0x00, 0x91, 0x49, 0x6E, 0x81, 0x70, 0x81, 
	0x49, 0x7F, 0x00, 0x91, 0x4C, 0x6E, 0x83, 0x60, 0x81, 0x4C, 0x7F, 0x81, 0x70, 0x91, 0x4E, 0x6E, 0x84, 0x58, 0x81, 0x4E, 0x7F, 0x78, 0x91, 0x4E, 0x6E, 0x78, 0x81, 0x4E, 0x7F, 0x78, 0x91, 0x52, 0x6E, 0x81, 0x70, 0x81, 0x52, 0x7F, 0x00, 0x91, 0x4E, 0x6E, 0x82, 0x68, 0x81, 0x4E, 0x7F, 0x78, 0x91, 0x4C, 0x6E, 0x83, 0x60, 0x81, 0x4C, 0x7F, 0x00, 0x91, 0x4C, 0x6E, 0x81, 0x70, 0x81, 0x4C, 
	0x7F, 0x00, 0x91, 0x4E, 0x6E, 0x81, 0x70, 0x81, 0x4E, 0x63, 0x00, 0x91, 0x4A, 0x6E, 0x81, 0x70, 0x81, 0x4A, 0x7F, 0x81, 0x70, 0x91, 0x4A, 0x6E, 0x81, 0x70, 0x81, 0x4A, 0x61, 0x00, 0x91, 0x4C, 0x6E, 0x81, 0x70, 0x81, 0x4C, 0x7F, 0x00, 0x91, 0x4E, 0x6E, 0x85, 0x50, 0x81, 0x4E, 0x7F, 0x00, 0x91, 0x47, 0x6E, 0x81, 0x70, 0x81, 0x47, 0x7F, 0x00, 0x91, 0x47, 0x6E, 0x90, 0x70, 0x81, 0x47, 
	0x44, 0x81, 0x70, 0x91, 0x4A, 0x6E, 0x81, 0x70, 0x81, 0x4A, 0x4A, 0x00, 0x91, 0x4C, 0x6E, 0x81, 0x70, 0x81, 0x4C, 0x7F, 0x00, 0x91, 0x4D, 0x6E, 0x85, 0x50, 0x81, 0x4D, 0x7F, 0x00, 0x91, 0x4D, 0x6E, 0x83, 0x60, 0x81, 0x4D, 0x7F, 0x00, 0x91, 0x4F, 0x6E, 0x81, 0x70, 0x81, 0x4F, 0x6A, 0x00, 0x91, 0x4D, 0x6E, 0x83, 0x60, 0x81, 0x4D, 0x78, 0x00, 0x91, 0x4C, 0x6E, 0x85, 0x50, 0x81, 0x4C, 
	0x7F, 0x00, 0x91, 0x4A, 0x6E, 0x83, 0x60, 0x81, 0x4A, 0x23, 0x00, 0x91, 0x48, 0x6E, 0x81, 0x70, 0x81, 0x48, 0x63, 0x00, 0x91, 0x4C, 0x6E, 0x83, 0x60, 0x81, 0x4C, 0x7F, 0x00, 0x91, 0x4A, 0x6E, 0x90, 0x70, 0x81, 0x4A, 0x7F, 0x8F, 0x00, 0x91, 0x4E, 0x6E, 0x85, 0x50, 0x81, 0x4E, 0x01, 0x00, 0x91, 0x45, 0x6E, 0x85, 0x50, 0x81, 0x45, 0x5C, 0x00, 0x91, 0x45, 0x6E, 0x83, 0x60, 0x81, 0x45, 
	0x6D, 0x00, 0x91, 0x46, 0x6E, 0x83, 0x60, 0x81, 0x46, 0x7F, 0x00, 0x91, 0x46, 0x6E, 0x81, 0x70, 0x81, 0x46, 0x7F, 0x00, 0x91, 0x4E, 0x6E, 0x83, 0x60, 0x81, 0x4E, 0x69, 0x00, 0x91, 0x4C, 0x6E, 0x83, 0x60, 0x81, 0x4C, 0x7F, 0x00, 0x91, 0x4E, 0x6E, 0x81, 0x70, 0x81, 0x4E, 0x7F, 0x00, 0x91, 0x4A, 0x6E, 0x8F, 0x00, 0x81, 0x4A, 0x7F, 0x89, 0x30, 0x91, 0x4A, 0x6E, 0x81, 0x70, 0x81, 0x4A, 
	0x7F, 0x00, 0x91, 0x4C, 0x6E, 0x81, 0x70, 0x81, 0x4C, 0x7F, 0x00, 0x91, 0x4E, 0x6E, 0x81, 0x70, 0x81, 0x4E, 0x66, 0x00, 0x91, 0x51, 0x6E, 0x83, 0x60, 0x81, 0x51, 0x73, 0x00, 0x91, 0x53, 0x6E, 0x81, 0x70, 0x81, 0x53, 0x73, 0x00, 0x91, 0x4A, 0x6E, 0x81, 0x70, 0x81, 0x4A, 0x73, 0x81, 0x70, 0x91, 0x4A, 0x6E, 0x81, 0x70, 0x81, 0x4A, 0x73, 0x00, 0x91, 0x4C, 0x6E, 0x81, 0x70, 0x81, 0x4C, 
	0x73, 0x00, 0x91, 0x4E, 0x6E, 0x81, 0x70, 0x81, 0x4E, 0x7F, 0x00, 0x91, 0x51, 0x6E, 0x83, 0x60, 0x81, 0x51, 0x7F, 0x00, 0x91, 0x53, 0x6E, 0x81, 0x70, 0x81, 0x53, 0x7F, 0x00, 0x91, 0x4A, 0x6E, 0x81, 0x70, 0x81, 0x4A, 0x7F, 0x81, 0x70, 0x91, 0x4A, 0x6E, 0x81, 0x70, 0x81, 0x4A, 0x7F, 0x00, 0x91, 0x4C, 0x6E, 0x81, 0x70, 0x81, 0x4C, 0x7F, 0x00, 0x91, 0x4E, 0x6E, 0x81, 0x70, 0x81, 0x4E, 
	0x7F, 0x00, 0x91, 0x4F, 0x6E, 0x83, 0x60, 0x81, 0x4F, 0x4E, 0x00, 0x91, 0x4E, 0x6E, 0x83, 0x60, 0x81, 0x4E, 0x5A, 0x00, 0x91, 0x4C, 0x6E, 0x81, 0x70, 0x81, 0x4C, 0x7F, 0x00, 0x91, 0x4E, 0x6E, 0x83, 0x60, 0x81, 0x4E, 0x73, 0x00, 0x91, 0x4C, 0x6E, 0x87, 0x40, 0x81, 0x4C, 0x7F, 0x83, 0x60, 0x91, 0x4C, 0x6E, 0x81, 0x70, 0x81, 0x4C, 0x61, 0x00, 0x91, 0x4A, 0x6E, 0x81, 0x70, 0x81, 0x4A, 
	0x7F, 0x00, 0x91, 0x4C, 0x6E, 0x81, 0x70, 0x81, 0x4C, 0x7F, 0x00, 0x91, 0x4E, 0x6E, 0x85, 0x50, 0x81, 0x4E, 0x01, 0x00, 0x91, 0x45, 0x6E, 0x85, 0x50, 0x81, 0x45, 0x5C, 0x00, 0x91, 0x45, 0x6E, 0x83, 0x60, 0x81, 0x45, 0x6D, 0x00, 0x91, 0x46, 0x6E, 0x83, 0x60, 0x81, 0x46, 0x7F, 0x00, 0x91, 0x46, 0x6E, 0x81, 0x70, 0x81, 0x46, 0x7F, 0x00, 0x91, 0x4E, 0x6E, 0x83, 0x60, 0x81, 0x4E, 0x69, 
	0x00, 0x91, 0x4C, 0x6E, 0x83, 0x60, 0x81, 0x4C, 0x7F, 0x00, 0x91, 0x4E, 0x6E, 0x81, 0x70, 0x81, 0x4E, 0x7F, 0x00, 0x91, 0x4A, 0x6E, 0x8F, 0x00, 0x81, 0x4A, 0x7F, 0x89, 0x30, 0x91, 0x4A, 0x6E, 0x81, 0x70, 0x81, 0x4A, 0x7F, 0x00, 0x91, 0x4C, 0x6E, 0x81, 0x70, 0x81, 0x4C, 0x7F, 0x00, 0x91, 0x4E, 0x6E, 0x81, 0x70, 0x81, 0x4E, 0x66, 0x00, 0x91, 0x51, 0x6E, 0x83, 0x60, 0x81, 0x51, 0x73, 
	0x00, 0x91, 0x53, 0x6E, 0x81, 0x70, 0x81, 0x53, 0x73, 0x00, 0x91, 0x4A, 0x6E, 0x83, 0x60, 0x81, 0x4A, 0x73, 0x81, 0x70, 0x91, 0x53, 0x6E, 0x83, 0x60, 0x81, 0x53, 0x7F, 0x00, 0x91, 0x51, 0x6E, 0x83, 0x60, 0x81, 0x51, 0x7F, 0x00, 0x91, 0x4F, 0x6E, 0x83, 0x60, 0x81, 0x4F, 0x4E, 0x00, 0x91, 0x4E, 0x6E, 0x82, 0x68, 0x81, 0x4E, 0x7F, 0x00, 0x91, 0x4C, 0x6E, 0x82, 0x68, 0x81, 0x4C, 0x66, 
	0x00, 0x91, 0x4E, 0x6E, 0x81, 0x70, 0x81, 0x4E, 0x7F, 0x00, 0x91, 0x4A, 0x6E, 0x8E, 0x08, 0x81, 0x4A, 0x56, 0x86, 0x48, 0x91, 0x4C, 0x6E, 0x78, 0x81, 0x4C, 0x7F, 0x78, 0x91, 0x4C, 0x6E, 0x82, 0x68, 0x81, 0x4C, 0x7F, 0x00, 0x91, 0x4A, 0x6E, 0x82, 0x68, 0x81, 0x4A, 0x78, 0x00, 0x91, 0x4C, 0x6E, 0x81, 0x70, 0x81, 0x4C, 0x7F, 0x00, 0x91, 0x4A, 0x6E, 0x9D, 0x08, 0x81, 0x4A, 0x7F, 0xCB, 
	0x78, 0xB1, 0x07, 0x64, 0x32, 0xB1, 0x07, 0x62, 0x67, 0xB1, 0x07, 0x5F, 0x81, 0x46, 0xB1, 0x07, 0x5D, 0x77, 0xB1, 0x07, 0x5B, 0x6B, 0xB1, 0x07, 0x59, 0x81, 0x6D, 0xB1, 0x07, 0x57, 0x6F, 0xB1, 0x07, 0x54, 0x15, 0xB1, 0x07, 0x52, 0x50, 0xB1, 0x07, 0x4F, 0x4F, 0xB1, 0x07, 0x4C, 0x50, 0xB1, 0x07, 0x4A, 0x52, 0xB1, 0x07, 0x48, 0x4E, 0xB1, 0x07, 0x46, 0x3C, 0xB1, 0x07, 0x44, 0x81, 0x21, 
	0xB1, 0x07, 0x42, 0x81, 0x1F, 0xB1, 0x07, 0x3F, 0x27, 0xB1, 0x07, 0x3D, 0x09, 0xB1, 0x07, 0x3A, 0x2C, 0xB1, 0x07, 0x37, 0x4F, 0xB1, 0x07, 0x35, 0x77, 0xB1, 0x07, 0x33, 0x81, 0x1D, 0xB1, 0x07, 0x31, 0x7B, 0xB1, 0x07, 0x2F, 0x77, 0xB1, 0x07, 0x2C, 0x4F, 0xB1, 0x07, 0x2A, 0x50, 0xB1, 0x07, 0x27, 0x38, 0xB1, 0x07, 0x24, 0x4D, 0xB1, 0x07, 0x22, 0x52, 0xB1, 0x07, 0x20, 0x13, 0xB1, 0x07, 
	0x1E, 0x76, 0xB1, 0x07, 0x1C, 0x7A, 0xB1, 0x07, 0x1A, 0x4F, 0xB1, 0x07, 0x17, 0x13, 0xB1, 0x07, 0x15, 0x28, 0xB1, 0x07, 0x13, 0x53, 0xB1, 0x07, 0x10, 0x4F, 0xB1, 0x07, 0x0D, 0x77, 0xB1, 0x07, 0x0B, 0x52, 0xB1, 0x07, 0x09, 0x4B, 0xB1, 0x07, 0x06, 0x53, 0xB1, 0x07, 0x03, 0x7C, 0xB1, 0x07, 0x00, 0x00, 0xFF, 0x2F, 0x00, 0x4D, 0x54, 0x72, 0x6B, 0x00, 0x00, 0x10, 0x27, 0x00, 0xFF, 0x03, 
	0x02, 0x50, 0x66, 0x14, 0xB2, 0x78, 0x00, 0x0A, 0xB2, 0x79, 0x00, 0x28, 0xB2, 0x65, 0x00, 0x1E, 0xB2, 0x64, 0x00, 0x1E, 0xB2, 0x06, 0x02, 0x1E, 0xB2, 0x65, 0x7F, 0x1E, 0xB2, 0x64, 0x7F, 0x0A, 0xC2, 0x00, 0x14, 0xE2, 0x00, 0x40, 0x0A, 0xB2, 0x01, 0x00, 0x0A, 0xB2, 0x07, 0x5A, 0x14, 0xB2, 0x0B, 0x64, 0x0A, 0xB2, 0x5B, 0x50, 0x0A, 0xB2, 0x5D, 0x00, 0x14, 0xB2, 0x0A, 0x40, 0x81, 0xB5, 
	0x34, 0x92, 0x3E, 0x6A, 0x00, 0x92, 0x42, 0x69, 0x00, 0x92, 0x45, 0x6B, 0x85, 0x50, 0x82, 0x3E, 0x59, 0x00, 0x82, 0x45, 0x57, 0x00, 0x82, 0x42, 0x49, 0x00, 0x92, 0x3D, 0x64, 0x00, 0x92, 0x40, 0x68, 0x00, 0x92, 0x45, 0x67, 0x89, 0x30, 0x82, 0x3D, 0x01, 0x00, 0x82, 0x45, 0x28, 0x00, 0x82, 0x40, 0x3E, 0x00, 0x92, 0x42, 0x67, 0x00, 0x92, 0x3E, 0x6A, 0x00, 0x92, 0x47, 0x6C, 0x85, 0x50, 
	0x82, 0x42, 0x46, 0x00, 0x82, 0x47, 0x5F, 0x00, 0x82, 0x3E, 0x42, 0x00, 0x92, 0x3D, 0x62, 0x00, 0x92, 0x40, 0x69, 0x00, 0x92, 0x45, 0x68, 0x89, 0x30, 0x82, 0x3D, 0x01, 0x00, 0x82, 0x45, 0x42, 0x00, 0x82, 0x40, 0x47, 0x00, 0x92, 0x3E, 0x67, 0x00, 0x92, 0x42, 0x66, 0x00, 0x92, 0x45, 0x67, 0x85, 0x50, 0x82, 0x3E, 0x5A, 0x00, 0x82, 0x45, 0x78, 0x00, 0x82, 0x42, 0x44, 0x00, 0x92, 0x40, 
	0x66, 0x00, 0x92, 0x3D, 0x61, 0x00, 0x92, 0x45, 0x68, 0x85, 0x50, 0x82, 0x40, 0x60, 0x00, 0x82, 0x45, 0x73, 0x00, 0x82, 0x3D, 0x46, 0x00, 0x92, 0x40, 0x68, 0x00, 0x92, 0x45, 0x6A, 0x00, 0x92, 0x3D, 0x62, 0x81, 0x70, 0x82, 0x40, 0x78, 0x00, 0x82, 0x3D, 0x7F, 0x00, 0x82, 0x45, 0x7F, 0x00, 0x92, 0x3E, 0x6A, 0x00, 0x92, 0x43, 0x66, 0x00, 0x92, 0x47, 0x6C, 0x8A, 0x28, 0x82, 0x3E, 0x44, 
	0x00, 0x82, 0x47, 0x19, 0x00, 0x82, 0x43, 0x3B, 0x00, 0x92, 0x43, 0x5E, 0x78, 0x82, 0x43, 0x4A, 0x00, 0x92, 0x4A, 0x60, 0x00, 0x92, 0x47, 0x54, 0x90, 0x70, 0x82, 0x4A, 0x64, 0x00, 0x82, 0x47, 0x0E, 0x00, 0x92, 0x4A, 0x6A, 0x00, 0x92, 0x47, 0x6C, 0x00, 0x92, 0x43, 0x69, 0x81, 0x70, 0x82, 0x4A, 0x7F, 0x00, 0x82, 0x43, 0x7F, 0x00, 0x82, 0x47, 0x7F, 0x00, 0x92, 0x49, 0x69, 0x00, 0x92, 
	0x45, 0x6B, 0x00, 0x92, 0x40, 0x6A, 0x8F, 0x00, 0x82, 0x49, 0x2F, 0x00, 0x82, 0x40, 0x01, 0x00, 0x82, 0x45, 0x01, 0x00, 0x92, 0x45, 0x6C, 0x00, 0x92, 0x40, 0x67, 0x83, 0x60, 0x82, 0x45, 0x7F, 0x00, 0x82, 0x40, 0x73, 0x00, 0x92, 0x45, 0x6A, 0x00, 0x92, 0x40, 0x69, 0x81, 0x70, 0x82, 0x45, 0x6A, 0x00, 0x82, 0x40, 0x56, 0x00, 0x92, 0x40, 0x68, 0x00, 0x92, 0x43, 0x65, 0x81, 0x70, 0x82, 
	0x40, 0x5C, 0x00, 0x82, 0x43, 0x5A, 0x00, 0x92, 0x40, 0x68, 0x00, 0x92, 0x43, 0x68, 0x81, 0x70, 0x82, 0x40, 0x56, 0x00, 0x82, 0x43, 0x5A, 0x00, 0x92, 0x42, 0x67, 0x00, 0x92, 0x3D, 0x65, 0x81, 0x70, 0x82, 0x42, 0x6C, 0x00, 0x82, 0x3D, 0x59, 0x00, 0x92, 0x42, 0x66, 0x00, 0x92, 0x3D, 0x67, 0x81, 0x70, 0x82, 0x42, 0x4D, 0x00, 0x82, 0x3D, 0x34, 0x00, 0x92, 0x40, 0x66, 0x00, 0x92, 0x3D, 
	0x5F, 0x81, 0x70, 0x82, 0x40, 0x63, 0x00, 0x82, 0x3D, 0x53, 0x00, 0x92, 0x40, 0x66, 0x00, 0x92, 0x3D, 0x62, 0x81, 0x70, 0x82, 0x40, 0x73, 0x00, 0x82, 0x3D, 0x5C, 0x00, 0x92, 0x36, 0x69, 0x00, 0x92, 0x39, 0x6B, 0x00, 0x92, 0x3E, 0x6A, 0x85, 0x50, 0x82, 0x36, 0x19, 0x00, 0x82, 0x3E, 0x4E, 0x00, 0x82, 0x39, 0x41, 0x00, 0x92, 0x39, 0x69, 0x00, 0x92, 0x36, 0x69, 0x00, 0x92, 0x3E, 0x67, 
	0x89, 0x30, 0x82, 0x39, 0x01, 0x00, 0x82, 0x3E, 0x0A, 0x00, 0x82, 0x36, 0x3B, 0x00, 0x92, 0x36, 0x69, 0x00, 0x92, 0x3E, 0x68, 0x00, 0x92, 0x39, 0x69, 0x85, 0x50, 0x82, 0x36, 0x2A, 0x00, 0x82, 0x39, 0x01, 0x00, 0x82, 0x3E, 0x51, 0x00, 0x92, 0x36, 0x67, 0x00, 0x92, 0x3E, 0x66, 0x00, 0x92, 0x39, 0x67, 0x89, 0x30, 0x82, 0x36, 0x10, 0x00, 0x82, 0x39, 0x17, 0x00, 0x82, 0x3E, 0x56, 0x00, 
	0x92, 0x34, 0x58, 0x00, 0x92, 0x3D, 0x64, 0x00, 0x92, 0x39, 0x6A, 0x85, 0x50, 0x82, 0x34, 0x01, 0x00, 0x82, 0x39, 0x19, 0x00, 0x82, 0x3D, 0x1F, 0x00, 0x92, 0x34, 0x56, 0x00, 0x92, 0x3D, 0x63, 0x00, 0x92, 0x39, 0x6A, 0x87, 0x40, 0x82, 0x34, 0x0D, 0x00, 0x82, 0x39, 0x59, 0x00, 0x82, 0x3D, 0x4F, 0x00, 0x92, 0x49, 0x64, 0x00, 0x92, 0x4C, 0x66, 0x81, 0x70, 0x82, 0x49, 0x7F, 0x00, 0x82, 
	0x4C, 0x69, 0x00, 0x92, 0x49, 0x6A, 0x00, 0x92, 0x4C, 0x6B, 0x82, 0x68, 0x82, 0x49, 0x7F, 0x00, 0x82, 0x4C, 0x7F, 0x00, 0x92, 0x47, 0x6A, 0x00, 0x92, 0x4A, 0x67, 0x82, 0x68, 0x82, 0x47, 0x6D, 0x00, 0x82, 0x4A, 0x61, 0x00, 0x92, 0x49, 0x67, 0x00, 0x92, 0x45, 0x65, 0x85, 0x50, 0x82, 0x49, 0x24, 0x00, 0x82, 0x45, 0x51, 0x00, 0x92, 0x40, 0x66, 0x00, 0x92, 0x45, 0x66, 0x83, 0x60, 0x82, 
	0x40, 0x7F, 0x00, 0x82, 0x45, 0x7F, 0x00, 0x92, 0x3B, 0x6B, 0x00, 0x92, 0x36, 0x68, 0x00, 0x92, 0x3E, 0x65, 0x85, 0x50, 0x82, 0x3B, 0x01, 0x00, 0x82, 0x3E, 0x3E, 0x00, 0x82, 0x36, 0x40, 0x00, 0x92, 0x36, 0x68, 0x00, 0x92, 0x3B, 0x6B, 0x00, 0x92, 0x3E, 0x66, 0x89, 0x30, 0x82, 0x36, 0x3D, 0x00, 0x82, 0x3E, 0x44, 0x00, 0x82, 0x3B, 0x22, 0x00, 0x92, 0x3B, 0x6B, 0x00, 0x92, 0x36, 0x68, 
	0x00, 0x92, 0x3E, 0x68, 0x85, 0x50, 0x82, 0x3B, 0x59, 0x00, 0x82, 0x3E, 0x4E, 0x00, 0x82, 0x36, 0x2E, 0x00, 0x92, 0x3E, 0x65, 0x00, 0x92, 0x36, 0x67, 0x00, 0x92, 0x3B, 0x6B, 0x89, 0x30, 0x82, 0x3E, 0x4A, 0x00, 0x82, 0x3B, 0x57, 0x00, 0x82, 0x36, 0x41, 0x00, 0x92, 0x34, 0x5B, 0x00, 0x92, 0x3D, 0x65, 0x00, 0x92, 0x39, 0x6A, 0x85, 0x50, 0x82, 0x34, 0x01, 0x00, 0x82, 0x39, 0x0E, 0x00, 
	0x82, 0x3D, 0x09, 0x00, 0x92, 0x39, 0x68, 0x00, 0x92, 0x3D, 0x63, 0x00, 0x92, 0x34, 0x53, 0x89, 0x30, 0x82, 0x39, 0x5A, 0x00, 0x82, 0x34, 0x19, 0x00, 0x82, 0x3D, 0x4F, 0x00, 0x92, 0x49, 0x66, 0x00, 0x92, 0x45, 0x6A, 0x00, 0x92, 0x40, 0x69, 0x87, 0x40, 0x82, 0x49, 0x7F, 0x00, 0x82, 0x40, 0x42, 0x00, 0x82, 0x45, 0x5A, 0x00, 0x92, 0x4E, 0x6B, 0x00, 0x92, 0x42, 0x6B, 0x83, 0x60, 0x82, 
	0x4E, 0x7F, 0x00, 0x82, 0x42, 0x7F, 0x00, 0x92, 0x4F, 0x73, 0x00, 0x92, 0x43, 0x73, 0x83, 0x60, 0x82, 0x4F, 0x7F, 0x00, 0x82, 0x43, 0x7F, 0x00, 0x92, 0x3E, 0x6A, 0x00, 0x92, 0x3B, 0x6D, 0x00, 0x92, 0x37, 0x6B, 0x00, 0x92, 0x51, 0x6B, 0x00, 0x92, 0x4A, 0x69, 0x85, 0x50, 0x82, 0x3E, 0x63, 0x00, 0x82, 0x4A, 0x7F, 0x00, 0x82, 0x51, 0x7F, 0x00, 0x82, 0x37, 0x59, 0x00, 0x82, 0x3B, 0x54, 
	0x00, 0x92, 0x3B, 0x6B, 0x00, 0x92, 0x3E, 0x61, 0x00, 0x92, 0x37, 0x66, 0x89, 0x30, 0x82, 0x3B, 0x6D, 0x00, 0x82, 0x37, 0x73, 0x00, 0x82, 0x3E, 0x7F, 0x00, 0x92, 0x39, 0x6B, 0x00, 0x92, 0x3D, 0x63, 0x00, 0x92, 0x34, 0x55, 0x85, 0x50, 0x82, 0x39, 0x2E, 0x00, 0x82, 0x34, 0x01, 0x00, 0x82, 0x3D, 0x3E, 0x00, 0x92, 0x3D, 0x64, 0x00, 0x92, 0x34, 0x56, 0x00, 0x92, 0x39, 0x6B, 0x89, 0x30, 
	0x82, 0x3D, 0x4C, 0x00, 0x82, 0x39, 0x29, 0x00, 0x82, 0x34, 0x01, 0x00, 0x92, 0x39, 0x69, 0x00, 0x92, 0x36, 0x69, 0x00, 0x92, 0x3D, 0x66, 0x85, 0x50, 0x82, 0x39, 0x32, 0x00, 0x82, 0x3D, 0x41, 0x00, 0x82, 0x36, 0x49, 0x00, 0x92, 0x36, 0x67, 0x00, 0x92, 0x3D, 0x64, 0x00, 0x92, 0x39, 0x67, 0x89, 0x30, 0x82, 0x36, 0x01, 0x00, 0x82, 0x39, 0x01, 0x00, 0x82, 0x3D, 0x28, 0x00, 0x92, 0x3B, 
	0x6A, 0x00, 0x92, 0x36, 0x67, 0x00, 0x92, 0x3E, 0x64, 0x85, 0x50, 0x82, 0x3B, 0x10, 0x00, 0x82, 0x3E, 0x25, 0x00, 0x82, 0x36, 0x43, 0x00, 0x92, 0x3B, 0x6B, 0x00, 0x92, 0x36, 0x66, 0x00, 0x92, 0x3E, 0x63, 0x89, 0x30, 0x82, 0x3B, 0x01, 0x00, 0x82, 0x3E, 0x28, 0x00, 0x82, 0x36, 0x01, 0x00, 0x92, 0x3E, 0x68, 0x00, 0x92, 0x3B, 0x6D, 0x00, 0x92, 0x37, 0x6A, 0x8F, 0x00, 0x82, 0x3E, 0x1F, 
	0x00, 0x82, 0x37, 0x7F, 0x00, 0x82, 0x3B, 0x3E, 0x00, 0x92, 0x39, 0x67, 0x00, 0x92, 0x40, 0x67, 0x00, 0x92, 0x3D, 0x60, 0x8F, 0x00, 0x82, 0x39, 0x56, 0x00, 0x82, 0x3D, 0x47, 0x00, 0x82, 0x40, 0x01, 0x00, 0x92, 0x39, 0x67, 0x00, 0x92, 0x36, 0x66, 0x00, 0x92, 0x3E, 0x66, 0x85, 0x50, 0x82, 0x39, 0x30, 0x00, 0x82, 0x3E, 0x59, 0x00, 0x82, 0x36, 0x38, 0x00, 0x92, 0x3E, 0x64, 0x00, 0x92, 
	0x36, 0x65, 0x00, 0x92, 0x39, 0x65, 0x89, 0x30, 0x82, 0x3E, 0x39, 0x00, 0x82, 0x39, 0x11, 0x00, 0x82, 0x36, 0x1C, 0x00, 0x92, 0x36, 0x68, 0x00, 0x92, 0x39, 0x68, 0x00, 0x92, 0x3E, 0x66, 0x87, 0x40, 0x82, 0x36, 0x60, 0x00, 0x82, 0x3E, 0x66, 0x00, 0x82, 0x39, 0x57, 0x00, 0x92, 0x36, 0x6A, 0x00, 0x92, 0x3E, 0x68, 0x00, 0x92, 0x39, 0x6A, 0x83, 0x60, 0x82, 0x36, 0x7F, 0x00, 0x82, 0x39, 
	0x67, 0x00, 0x82, 0x3E, 0x7F, 0x00, 0x92, 0x40, 0x6B, 0x00, 0x92, 0x3B, 0x6B, 0x00, 0x92, 0x38, 0x68, 0x83, 0x60, 0x82, 0x40, 0x7F, 0x00, 0x82, 0x38, 0x7F, 0x00, 0x82, 0x3B, 0x7F, 0x00, 0x92, 0x42, 0x67, 0x00, 0x92, 0x3A, 0x69, 0x00, 0x92, 0x3D, 0x64, 0x85, 0x50, 0x82, 0x42, 0x50, 0x00, 0x82, 0x3D, 0x50, 0x00, 0x82, 0x3A, 0x50, 0x00, 0x92, 0x42, 0x68, 0x00, 0x92, 0x3A, 0x68, 0x00, 
	0x92, 0x3D, 0x63, 0x89, 0x30, 0x82, 0x42, 0x47, 0x00, 0x82, 0x3D, 0x4D, 0x00, 0x82, 0x3A, 0x41, 0x00, 0x92, 0x3A, 0x68, 0x00, 0x92, 0x42, 0x68, 0x00, 0x92, 0x3D, 0x63, 0x85, 0x50, 0x82, 0x3A, 0x60, 0x00, 0x82, 0x3D, 0x4C, 0x00, 0x82, 0x42, 0x53, 0x00, 0x92, 0x3D, 0x63, 0x00, 0x92, 0x42, 0x65, 0x00, 0x92, 0x3A, 0x67, 0x89, 0x30, 0x82, 0x3D, 0x44, 0x00, 0x82, 0x3A, 0x5B, 0x00, 0x82, 
	0x42, 0x2B, 0x00, 0x92, 0x3B, 0x69, 0x00, 0x92, 0x42, 0x64, 0x00, 0x92, 0x3E, 0x68, 0x85, 0x50, 0x82, 0x3B, 0x57, 0x00, 0x82, 0x3E, 0x7F, 0x00, 0x82, 0x42, 0x3E, 0x00, 0x92, 0x42, 0x62, 0x00, 0x92, 0x3E, 0x67, 0x00, 0x92, 0x3B, 0x68, 0x89, 0x30, 0x82, 0x42, 0x01, 0x00, 0x82, 0x3B, 0x3E, 0x00, 0x82, 0x3E, 0x35, 0x00, 0x92, 0x3E, 0x66, 0x00, 0x92, 0x42, 0x63, 0x00, 0x92, 0x3B, 0x68, 
	0x85, 0x50, 0x82, 0x3E, 0x4E, 0x00, 0x82, 0x3B, 0x45, 0x00, 0x82, 0x42, 0x2A, 0x00, 0x92, 0x3B, 0x68, 0x00, 0x92, 0x42, 0x64, 0x00, 0x92, 0x3E, 0x66, 0x89, 0x30, 0x82, 0x3B, 0x50, 0x00, 0x82, 0x3E, 0x4E, 0x00, 0x82, 0x42, 0x46, 0x00, 0x92, 0x3B, 0x6A, 0x00, 0x92, 0x40, 0x69, 0x00, 0x92, 0x37, 0x68, 0x85, 0x50, 0x82, 0x3B, 0x4A, 0x00, 0x82, 0x37, 0x26, 0x00, 0x82, 0x40, 0x35, 0x00, 
	0x92, 0x37, 0x69, 0x00, 0x92, 0x3B, 0x6B, 0x00, 0x92, 0x40, 0x69, 0x89, 0x30, 0x82, 0x37, 0x17, 0x00, 0x82, 0x40, 0x01, 0x00, 0x82, 0x3B, 0x35, 0x00, 0x92, 0x40, 0x66, 0x00, 0x92, 0x3D, 0x62, 0x00, 0x92, 0x39, 0x68, 0x85, 0x50, 0x82, 0x40, 0x22, 0x00, 0x82, 0x39, 0x25, 0x00, 0x82, 0x3D, 0x50, 0x00, 0x92, 0x40, 0x69, 0x00, 0x92, 0x3D, 0x61, 0x00, 0x92, 0x39, 0x68, 0x89, 0x30, 0x82, 
	0x40, 0x36, 0x00, 0x82, 0x39, 0x29, 0x00, 0x82, 0x3D, 0x32, 0x00, 0x92, 0x42, 0x64, 0x00, 0x92, 0x39, 0x67, 0x00, 0x92, 0x3E, 0x67, 0x85, 0x50, 0x82, 0x42, 0x0D, 0x00, 0x82, 0x3E, 0x39, 0x00, 0x82, 0x39, 0x01, 0x00, 0x92, 0x3E, 0x66, 0x00, 0x92, 0x42, 0x63, 0x00, 0x92, 0x39, 0x67, 0x89, 0x30, 0x82, 0x3E, 0x42, 0x00, 0x82, 0x39, 0x1A, 0x00, 0x82, 0x42, 0x28, 0x00, 0x92, 0x36, 0x68, 
	0x00, 0x92, 0x3F, 0x67, 0x00, 0x92, 0x3B, 0x6B, 0x85, 0x50, 0x82, 0x36, 0x27, 0x00, 0x82, 0x3B, 0x3B, 0x00, 0x82, 0x3F, 0x43, 0x00, 0x92, 0x36, 0x68, 0x00, 0x92, 0x3F, 0x67, 0x00, 0x92, 0x3B, 0x6B, 0x89, 0x30, 0x82, 0x36, 0x46, 0x00, 0x82, 0x3B, 0x42, 0x00, 0x82, 0x3F, 0x46, 0x00, 0x92, 0x40, 0x6B, 0x00, 0x92, 0x37, 0x6A, 0x00, 0x92, 0x3B, 0x6D, 0x81, 0x70, 0x82, 0x40, 0x01, 0x00, 
	0x82, 0x3B, 0x4A, 0x00, 0x82, 0x37, 0x63, 0x00, 0x92, 0x37, 0x5A, 0x81, 0x70, 0x82, 0x37, 0x59, 0x00, 0x92, 0x3B, 0x67, 0x81, 0x70, 0x82, 0x3B, 0x6C, 0x00, 0x92, 0x3B, 0x57, 0x00, 0x92, 0x40, 0x6A, 0x00, 0x92, 0x37, 0x69, 0x89, 0x30, 0x82, 0x3B, 0x5D, 0x00, 0x82, 0x37, 0x3C, 0x00, 0x82, 0x40, 0x23, 0x00, 0x92, 0x39, 0x69, 0x00, 0x92, 0x3D, 0x65, 0x00, 0x92, 0x40, 0x6A, 0x81, 0x70, 
	0x82, 0x39, 0x08, 0x00, 0x82, 0x40, 0x5A, 0x00, 0x82, 0x3D, 0x22, 0x00, 0x92, 0x39, 0x63, 0x81, 0x70, 0x92, 0x3D, 0x5D, 0x81, 0x70, 0x82, 0x39, 0x01, 0x00, 0x82, 0x3D, 0x6B, 0x00, 0x92, 0x3D, 0x64, 0x00, 0x92, 0x39, 0x69, 0x00, 0x92, 0x40, 0x6A, 0x89, 0x30, 0x82, 0x3D, 0x2E, 0x00, 0x82, 0x40, 0x57, 0x00, 0x82, 0x39, 0x16, 0x00, 0x92, 0x42, 0x67, 0x00, 0x92, 0x3D, 0x64, 0x00, 0x92, 
	0x3A, 0x6A, 0x81, 0x70, 0x82, 0x42, 0x65, 0x00, 0x82, 0x3A, 0x73, 0x00, 0x82, 0x3D, 0x27, 0x00, 0x92, 0x3A, 0x66, 0x81, 0x70, 0x82, 0x3A, 0x63, 0x00, 0x92, 0x3D, 0x53, 0x81, 0x70, 0x82, 0x3D, 0x50, 0x00, 0x92, 0x3D, 0x60, 0x00, 0x92, 0x3A, 0x66, 0x00, 0x92, 0x42, 0x66, 0x89, 0x30, 0x82, 0x3D, 0x1F, 0x00, 0x82, 0x42, 0x50, 0x00, 0x82, 0x3A, 0x52, 0x00, 0x92, 0x3E, 0x69, 0x00, 0x92, 
	0x42, 0x67, 0x00, 0x92, 0x3B, 0x6C, 0x85, 0x50, 0x82, 0x3E, 0x51, 0x00, 0x82, 0x3B, 0x39, 0x00, 0x82, 0x42, 0x07, 0x00, 0x92, 0x3E, 0x69, 0x00, 0x92, 0x42, 0x68, 0x00, 0x92, 0x39, 0x69, 0x89, 0x30, 0x82, 0x3E, 0x56, 0x00, 0x82, 0x39, 0x01, 0x00, 0x82, 0x42, 0x3A, 0x00, 0x92, 0x3B, 0x73, 0x00, 0x92, 0x3E, 0x6A, 0x00, 0x92, 0x43, 0x6B, 0x85, 0x50, 0x82, 0x3B, 0x36, 0x00, 0x82, 0x43, 
	0x51, 0x00, 0x82, 0x3E, 0x33, 0x00, 0x92, 0x3E, 0x68, 0x00, 0x92, 0x42, 0x68, 0x00, 0x92, 0x3B, 0x6A, 0x89, 0x30, 0x82, 0x3E, 0x01, 0x00, 0x82, 0x3B, 0x01, 0x00, 0x82, 0x42, 0x47, 0x00, 0x92, 0x3E, 0x65, 0x00, 0x92, 0x47, 0x69, 0x00, 0x92, 0x3B, 0x6B, 0x85, 0x50, 0x82, 0x3E, 0x01, 0x00, 0x82, 0x3B, 0x0B, 0x00, 0x82, 0x47, 0x36, 0x00, 0x92, 0x43, 0x66, 0x00, 0x92, 0x3E, 0x64, 0x00, 
	0x92, 0x3B, 0x68, 0x89, 0x30, 0x82, 0x43, 0x7F, 0x00, 0x82, 0x3B, 0x7F, 0x00, 0x82, 0x3E, 0x7F, 0x00, 0x92, 0x3E, 0x69, 0x00, 0x92, 0x3A, 0x69, 0x00, 0x92, 0x35, 0x69, 0x89, 0x30, 0x82, 0x3E, 0x5C, 0x00, 0x82, 0x35, 0x17, 0x00, 0x82, 0x3A, 0x59, 0x00, 0x92, 0x3E, 0x6A, 0x00, 0x92, 0x3A, 0x69, 0x00, 0x92, 0x35, 0x69, 0x83, 0x60, 0x82, 0x3E, 0x7F, 0x00, 0x82, 0x35, 0x57, 0x00, 0x82, 
	0x3A, 0x7F, 0x00, 0x92, 0x37, 0x6B, 0x00, 0x92, 0x3C, 0x68, 0x00, 0x92, 0x40, 0x6A, 0x8B, 0x20, 0x82, 0x37, 0x45, 0x00, 0x82, 0x40, 0x47, 0x00, 0x82, 0x3C, 0x01, 0x00, 0x92, 0x37, 0x6B, 0x00, 0x92, 0x40, 0x6B, 0x00, 0x92, 0x3C, 0x6B, 0x83, 0x60, 0x82, 0x37, 0x7F, 0x00, 0x82, 0x3C, 0x50, 0x00, 0x82, 0x40, 0x7F, 0x00, 0x92, 0x42, 0x68, 0x00, 0x92, 0x39, 0x69, 0x00, 0x92, 0x3E, 0x69, 
	0x87, 0x7C, 0x92, 0x4A, 0x59, 0x05, 0x82, 0x42, 0x3E, 0x00, 0x82, 0x39, 0x01, 0x00, 0x82, 0x3E, 0x1D, 0x73, 0x92, 0x4E, 0x65, 0x3C, 0x92, 0x51, 0x60, 0x87, 0x40, 0x82, 0x4A, 0x7F, 0x00, 0x82, 0x51, 0x7F, 0x00, 0x82, 0x4E, 0x7F, 0x81, 0x70, 0x92, 0x40, 0x66, 0x00, 0x92, 0x3D, 0x5E, 0x00, 0x92, 0x39, 0x64, 0x81, 0x70, 0x82, 0x40, 0x6D, 0x00, 0x82, 0x39, 0x66, 0x00, 0x82, 0x3D, 0x78, 
	0x00, 0x92, 0x40, 0x66, 0x00, 0x92, 0x39, 0x62, 0x00, 0x92, 0x3D, 0x62, 0x81, 0x70, 0x82, 0x40, 0x7F, 0x00, 0x82, 0x3D, 0x7F, 0x00, 0x82, 0x39, 0x59, 0x00, 0x92, 0x3D, 0x62, 0x00, 0x92, 0x39, 0x67, 0x00, 0x92, 0x40, 0x67, 0x81, 0x70, 0x82, 0x3D, 0x7F, 0x00, 0x82, 0x40, 0x7F, 0x00, 0x82, 0x39, 0x78, 0x00, 0x92, 0x40, 0x68, 0x00, 0x92, 0x3D, 0x61, 0x00, 0x92, 0x39, 0x66, 0x81, 0x70, 
	0x82, 0x40, 0x7F, 0x00, 0x82, 0x39, 0x6D, 0x00, 0x82, 0x3D, 0x7F, 0x00, 0x92, 0x40, 0x6A, 0x00, 0x92, 0x3D, 0x62, 0x00, 0x92, 0x39, 0x69, 0x81, 0x70, 0x82, 0x40, 0x7F, 0x00, 0x82, 0x39, 0x7F, 0x00, 0x82, 0x3D, 0x7F, 0x00, 0x92, 0x40, 0x66, 0x00, 0x92, 0x39, 0x65, 0x00, 0x92, 0x3D, 0x61, 0x81, 0x70, 0x82, 0x40, 0x7F, 0x00, 0x82, 0x3D, 0x7F, 0x00, 0x82, 0x39, 0x6A, 0x00, 0x92, 0x40, 
	0x6D, 0x00, 0x92, 0x3D, 0x6A, 0x00, 0x92, 0x39, 0x6C, 0x81, 0x70, 0x82, 0x40, 0x7F, 0x00, 0x82, 0x39, 0x7F, 0x00, 0x82, 0x3D, 0x7F, 0x00, 0x92, 0x3E, 0x67, 0x00, 0x92, 0x42, 0x69, 0x00, 0x92, 0x39, 0x64, 0x81, 0x70, 0x82, 0x3E, 0x53, 0x00, 0x82, 0x39, 0x5C, 0x00, 0x82, 0x42, 0x55, 0x00, 0x92, 0x39, 0x64, 0x81, 0x70, 0x82, 0x39, 0x3C, 0x00, 0x92, 0x3E, 0x63, 0x81, 0x70, 0x82, 0x3E, 
	0x78, 0x00, 0x92, 0x42, 0x67, 0x00, 0x92, 0x39, 0x64, 0x00, 0x92, 0x3E, 0x66, 0x83, 0x60, 0x82, 0x42, 0x4D, 0x00, 0x82, 0x3E, 0x47, 0x00, 0x82, 0x39, 0x45, 0x00, 0x92, 0x39, 0x65, 0x81, 0x70, 0x82, 0x39, 0x5C, 0x00, 0x92, 0x42, 0x64, 0x00, 0x92, 0x3E, 0x62, 0x00, 0x92, 0x39, 0x60, 0x83, 0x60, 0x82, 0x42, 0x7F, 0x00, 0x82, 0x39, 0x53, 0x00, 0x82, 0x3E, 0x7F, 0x00, 0x92, 0x3A, 0x6B, 
	0x00, 0x92, 0x3D, 0x66, 0x00, 0x92, 0x42, 0x68, 0x81, 0x70, 0x82, 0x3A, 0x7F, 0x00, 0x82, 0x42, 0x4D, 0x00, 0x82, 0x3D, 0x4C, 0x00, 0x92, 0x3A, 0x67, 0x81, 0x70, 0x82, 0x3A, 0x73, 0x00, 0x92, 0x3D, 0x58, 0x81, 0x70, 0x82, 0x3D, 0x78, 0x00, 0x92, 0x3A, 0x66, 0x00, 0x92, 0x42, 0x67, 0x00, 0x92, 0x3D, 0x64, 0x83, 0x60, 0x82, 0x3A, 0x5F, 0x00, 0x82, 0x3D, 0x41, 0x00, 0x82, 0x42, 0x3A, 
	0x00, 0x92, 0x3A, 0x65, 0x81, 0x70, 0x82, 0x3A, 0x78, 0x00, 0x92, 0x3A, 0x60, 0x00, 0x92, 0x42, 0x65, 0x00, 0x92, 0x3D, 0x60, 0x83, 0x60, 0x82, 0x3A, 0x66, 0x00, 0x82, 0x3D, 0x32, 0x00, 0x82, 0x42, 0x4F, 0x00, 0x92, 0x3B, 0x69, 0x00, 0x92, 0x42, 0x67, 0x00, 0x92, 0x3E, 0x67, 0x81, 0x70, 0x82, 0x3B, 0x44, 0x00, 0x82, 0x3E, 0x56, 0x00, 0x82, 0x42, 0x56, 0x00, 0x92, 0x3B, 0x65, 0x81, 
	0x70, 0x82, 0x3B, 0x5D, 0x00, 0x92, 0x3E, 0x60, 0x81, 0x70, 0x82, 0x3E, 0x69, 0x00, 0x92, 0x42, 0x64, 0x00, 0x92, 0x3E, 0x66, 0x00, 0x92, 0x3B, 0x69, 0x83, 0x60, 0x82, 0x42, 0x47, 0x00, 0x82, 0x3B, 0x2C, 0x00, 0x82, 0x3E, 0x3F, 0x00, 0x92, 0x3B, 0x6A, 0x81, 0x70, 0x82, 0x3B, 0x5F, 0x00, 0x92, 0x3E, 0x62, 0x00, 0x92, 0x42, 0x59, 0x00, 0x92, 0x3B, 0x58, 0x83, 0x60, 0x82, 0x3E, 0x73, 
	0x00, 0x82, 0x3B, 0x5F, 0x00, 0x82, 0x42, 0x56, 0x00, 0x92, 0x3E, 0x66, 0x00, 0x92, 0x42, 0x67, 0x00, 0x92, 0x39, 0x66, 0x81, 0x70, 0x82, 0x3E, 0x57, 0x00, 0x82, 0x39, 0x39, 0x00, 0x82, 0x42, 0x41, 0x00, 0x92, 0x39, 0x4E, 0x81, 0x70, 0x82, 0x39, 0x01, 0x00, 0x92, 0x3E, 0x5E, 0x81, 0x70, 0x82, 0x3E, 0x73, 0x00, 0x92, 0x42, 0x67, 0x00, 0x92, 0x3E, 0x67, 0x00, 0x92, 0x39, 0x66, 0x83, 
	0x60, 0x82, 0x42, 0x63, 0x00, 0x82, 0x39, 0x0B, 0x00, 0x82, 0x3E, 0x4B, 0x00, 0x92, 0x39, 0x62, 0x81, 0x70, 0x82, 0x39, 0x61, 0x00, 0x92, 0x39, 0x62, 0x00, 0x92, 0x42, 0x61, 0x00, 0x92, 0x3E, 0x64, 0x83, 0x60, 0x82, 0x39, 0x53, 0x00, 0x82, 0x3E, 0x5D, 0x00, 0x82, 0x42, 0x01, 0x00, 0x92, 0x3B, 0x69, 0x00, 0x92, 0x3E, 0x67, 0x00, 0x92, 0x43, 0x67, 0x81, 0x70, 0x82, 0x3B, 0x5C, 0x00, 
	0x82, 0x43, 0x05, 0x00, 0x82, 0x3E, 0x30, 0x00, 0x92, 0x3B, 0x67, 0x81, 0x70, 0x82, 0x3B, 0x54, 0x00, 0x92, 0x3E, 0x5C, 0x81, 0x70, 0x82, 0x3E, 0x50, 0x00, 0x92, 0x3B, 0x6B, 0x00, 0x92, 0x3E, 0x63, 0x00, 0x92, 0x43, 0x69, 0x83, 0x60, 0x82, 0x3B, 0x1D, 0x00, 0x82, 0x43, 0x57, 0x00, 0x82, 0x3E, 0x01, 0x00, 0x92, 0x3B, 0x69, 0x81, 0x70, 0x82, 0x3B, 0x63, 0x00, 0x92, 0x3E, 0x65, 0x00, 
	0x92, 0x43, 0x67, 0x00, 0x92, 0x3B, 0x62, 0x83, 0x60, 0x82, 0x3E, 0x51, 0x00, 0x82, 0x3B, 0x61, 0x00, 0x82, 0x43, 0x50, 0x00, 0x92, 0x39, 0x67, 0x00, 0x92, 0x42, 0x66, 0x00, 0x92, 0x3E, 0x67, 0x81, 0x70, 0x82, 0x39, 0x45, 0x00, 0x82, 0x3E, 0x54, 0x00, 0x82, 0x42, 0x52, 0x00, 0x92, 0x39, 0x54, 0x81, 0x70, 0x82, 0x39, 0x53, 0x00, 0x92, 0x3E, 0x5C, 0x81, 0x70, 0x82, 0x3E, 0x7F, 0x00, 
	0x92, 0x42, 0x64, 0x00, 0x92, 0x39, 0x62, 0x00, 0x92, 0x3E, 0x67, 0x83, 0x60, 0x82, 0x42, 0x4F, 0x00, 0x82, 0x3E, 0x51, 0x00, 0x82, 0x39, 0x19, 0x00, 0x92, 0x39, 0x63, 0x81, 0x70, 0x82, 0x39, 0x25, 0x00, 0x92, 0x3E, 0x60, 0x83, 0x60, 0x82, 0x3E, 0x78, 0x00, 0x92, 0x3B, 0x6A, 0x00, 0x92, 0x40, 0x69, 0x00, 0x92, 0x43, 0x67, 0x83, 0x60, 0x82, 0x3B, 0x01, 0x00, 0x82, 0x43, 0x20, 0x00, 
	0x82, 0x40, 0x2C, 0x00, 0x92, 0x3B, 0x67, 0x81, 0x70, 0x82, 0x3B, 0x64, 0x00, 0x92, 0x3B, 0x6D, 0x00, 0x92, 0x43, 0x68, 0x00, 0x92, 0x40, 0x68, 0x83, 0x60, 0x82, 0x3B, 0x53, 0x00, 0x82, 0x40, 0x26, 0x00, 0x82, 0x43, 0x42, 0x00, 0x92, 0x3B, 0x61, 0x81, 0x70, 0x82, 0x3B, 0x48, 0x00, 0x92, 0x40, 0x64, 0x83, 0x60, 0x82, 0x40, 0x7F, 0x00, 0x92, 0x45, 0x68, 0x00, 0x92, 0x40, 0x68, 0x00, 
	0x92, 0x3D, 0x60, 0x85, 0x50, 0x82, 0x45, 0x7F, 0x00, 0x82, 0x3D, 0x7F, 0x00, 0x82, 0x40, 0x7F, 0x00, 0x92, 0x49, 0x65, 0x00, 0x92, 0x45, 0x65, 0x83, 0x60, 0x82, 0x49, 0x7F, 0x00, 0x82, 0x45, 0x7F, 0x00, 0x92, 0x45, 0x6B, 0x00, 0x92, 0x40, 0x6A, 0x85, 0x50, 0x82, 0x45, 0x7F, 0x00, 0x82, 0x40, 0x64, 0x00, 0x92, 0x3E, 0x68, 0x00, 0x92, 0x39, 0x65, 0x00, 0x92, 0x42, 0x66, 0x81, 0x70, 
	0x82, 0x3E, 0x59, 0x00, 0x82, 0x42, 0x3E, 0x00, 0x82, 0x39, 0x36, 0x00, 0x92, 0x39, 0x68, 0x81, 0x70, 0x82, 0x39, 0x53, 0x00, 0x92, 0x3E, 0x5D, 0x81, 0x70, 0x82, 0x3E, 0x7F, 0x00, 0x92, 0x42, 0x65, 0x00, 0x92, 0x39, 0x67, 0x00, 0x92, 0x3E, 0x65, 0x83, 0x60, 0x82, 0x42, 0x27, 0x00, 0x82, 0x3E, 0x35, 0x00, 0x82, 0x39, 0x35, 0x00, 0x92, 0x39, 0x66, 0x81, 0x70, 0x82, 0x39, 0x38, 0x00, 
	0x92, 0x39, 0x53, 0x00, 0x92, 0x42, 0x61, 0x00, 0x92, 0x3E, 0x65, 0x83, 0x60, 0x82, 0x39, 0x61, 0x00, 0x82, 0x3E, 0x7F, 0x00, 0x82, 0x42, 0x7F, 0x00, 0x92, 0x3A, 0x68, 0x00, 0x92, 0x3D, 0x63, 0x00, 0x92, 0x42, 0x66, 0x83, 0x60, 0x82, 0x3A, 0x5E, 0x00, 0x82, 0x42, 0x0D, 0x00, 0x82, 0x3D, 0x2D, 0x00, 0x92, 0x3D, 0x53, 0x81, 0x70, 0x82, 0x3D, 0x5F, 0x00, 0x92, 0x3D, 0x64, 0x00, 0x92, 
	0x42, 0x66, 0x83, 0x60, 0x82, 0x3D, 0x24, 0x00, 0x82, 0x42, 0x15, 0x00, 0x92, 0x3A, 0x5F, 0x81, 0x70, 0x82, 0x3A, 0x73, 0x00, 0x92, 0x3D, 0x64, 0x00, 0x92, 0x42, 0x66, 0x00, 0x92, 0x3A, 0x65, 0x83, 0x60, 0x82, 0x3D, 0x3B, 0x00, 0x82, 0x3A, 0x68, 0x00, 0x82, 0x42, 0x55, 0x00, 0x92, 0x3E, 0x65, 0x00, 0x92, 0x42, 0x64, 0x00, 0x92, 0x3B, 0x69, 0x81, 0x70, 0x82, 0x3E, 0x41, 0x00, 0x82, 
	0x3B, 0x14, 0x00, 0x82, 0x42, 0x44, 0x00, 0x92, 0x3B, 0x5C, 0x81, 0x70, 0x82, 0x3B, 0x36, 0x00, 0x92, 0x3E, 0x5C, 0x81, 0x70, 0x82, 0x3E, 0x64, 0x00, 0x92, 0x42, 0x64, 0x00, 0x92, 0x3B, 0x66, 0x00, 0x92, 0x3E, 0x60, 0x83, 0x60, 0x82, 0x42, 0x4D, 0x00, 0x82, 0x3E, 0x5D, 0x00, 0x82, 0x3B, 0x29, 0x00, 0x92, 0x3B, 0x66, 0x81, 0x70, 0x82, 0x3B, 0x16, 0x00, 0x92, 0x3E, 0x62, 0x00, 0x92, 
	0x3B, 0x3E, 0x00, 0x92, 0x42, 0x5B, 0x83, 0x60, 0x82, 0x3E, 0x66, 0x00, 0x82, 0x42, 0x43, 0x00, 0x82, 0x3B, 0x69, 0x00, 0x92, 0x42, 0x67, 0x00, 0x92, 0x39, 0x6B, 0x00, 0x92, 0x3E, 0x67, 0x81, 0x70, 0x82, 0x42, 0x50, 0x00, 0x82, 0x3E, 0x57, 0x00, 0x82, 0x39, 0x39, 0x00, 0x92, 0x39, 0x58, 0x81, 0x70, 0x92, 0x3E, 0x5F, 0x81, 0x70, 0x82, 0x39, 0x01, 0x00, 0x82, 0x3E, 0x6A, 0x00, 0x92, 
	0x42, 0x64, 0x00, 0x92, 0x39, 0x62, 0x00, 0x92, 0x3E, 0x46, 0x83, 0x60, 0x82, 0x42, 0x50, 0x00, 0x82, 0x3E, 0x3E, 0x00, 0x82, 0x39, 0x26, 0x00, 0x92, 0x39, 0x66, 0x81, 0x70, 0x82, 0x39, 0x01, 0x00, 0x92, 0x3E, 0x60, 0x83, 0x60, 0x82, 0x3E, 0x69, 0x00, 0x92, 0x3E, 0x69, 0x00, 0x92, 0x3B, 0x73, 0x00, 0x92, 0x43, 0x6A, 0x85, 0x50, 0x82, 0x3E, 0x51, 0x00, 0x82, 0x43, 0x59, 0x00, 0x82, 
	0x3B, 0x69, 0x00, 0x92, 0x43, 0x62, 0x00, 0x92, 0x47, 0x64, 0x00, 0x92, 0x3E, 0x62, 0x89, 0x30, 0x82, 0x43, 0x7F, 0x00, 0x82, 0x3E, 0x7F, 0x00, 0x82, 0x47, 0x7F, 0x00, 0x92, 0x45, 0x67, 0x00, 0x92, 0x3D, 0x61, 0x00, 0x92, 0x40, 0x67, 0x8F, 0x00, 0x82, 0x45, 0x5D, 0x00, 0x82, 0x40, 0x51, 0x00, 0x82, 0x3D, 0x4D, 0x00, 0x92, 0x41, 0x6A, 0x00, 0x92, 0x3E, 0x68, 0x00, 0x92, 0x46, 0x66, 
	0x85, 0x50, 0x82, 0x41, 0x01, 0x00, 0x82, 0x46, 0x2A, 0x00, 0x82, 0x3E, 0x32, 0x00, 0x92, 0x3E, 0x66, 0x83, 0x60, 0x92, 0x46, 0x65, 0x85, 0x50, 0x82, 0x3E, 0x30, 0x00, 0x82, 0x46, 0x37, 0x00, 0x92, 0x43, 0x67, 0x00, 0x92, 0x3C, 0x66, 0x00, 0x92, 0x40, 0x69, 0x85, 0x50, 0x82, 0x43, 0x3E, 0x00, 0x82, 0x40, 0x38, 0x00, 0x82, 0x3C, 0x01, 0x00, 0x92, 0x40, 0x69, 0x00, 0x92, 0x48, 0x6A, 
	0x00, 0x92, 0x43, 0x69, 0x89, 0x30, 0x82, 0x40, 0x51, 0x00, 0x82, 0x43, 0x3B, 0x00, 0x82, 0x48, 0x4A, 0x00, 0x92, 0x3E, 0x6A, 0x00, 0x92, 0x42, 0x69, 0x00, 0x92, 0x45, 0x6B, 0x85, 0x50, 0x82, 0x3E, 0x59, 0x00, 0x82, 0x45, 0x57, 0x00, 0x82, 0x42, 0x49, 0x00, 0x92, 0x3D, 0x64, 0x00, 0x92, 0x40, 0x68, 0x00, 0x92, 0x45, 0x67, 0x89, 0x30, 0x82, 0x3D, 0x01, 0x00, 0x82, 0x45, 0x28, 0x00, 
	0x82, 0x40, 0x3E, 0x00, 0x92, 0x42, 0x67, 0x00, 0x92, 0x3E, 0x6A, 0x00, 0x92, 0x47, 0x6C, 0x85, 0x50, 0x82, 0x42, 0x46, 0x00, 0x82, 0x47, 0x5F, 0x00, 0x82, 0x3E, 0x42, 0x00, 0x92, 0x3D, 0x62, 0x00, 0x92, 0x40, 0x69, 0x00, 0x92, 0x45, 0x68, 0x89, 0x30, 0x82, 0x3D, 0x01, 0x00, 0x82, 0x45, 0x42, 0x00, 0x82, 0x40, 0x47, 0x00, 0x92, 0x3E, 0x67, 0x00, 0x92, 0x42, 0x66, 0x00, 0x92, 0x45, 
	0x67, 0x85, 0x50, 0x82, 0x3E, 0x5A, 0x00, 0x82, 0x45, 0x78, 0x00, 0x82, 0x42, 0x44, 0x00, 0x92, 0x40, 0x66, 0x00, 0x92, 0x3D, 0x61, 0x00, 0x92, 0x45, 0x68, 0x85, 0x50, 0x82, 0x40, 0x60, 0x00, 0x82, 0x45, 0x73, 0x00, 0x82, 0x3D, 0x46, 0x00, 0x92, 0x40, 0x68, 0x00, 0x92, 0x45, 0x6A, 0x00, 0x92, 0x3D, 0x62, 0x81, 0x70, 0x82, 0x40, 0x78, 0x00, 0x82, 0x3D, 0x7F, 0x00, 0x82, 0x45, 0x7F, 
	0x00, 0x92, 0x3E, 0x6A, 0x00, 0x92, 0x43, 0x66, 0x00, 0x92, 0x47, 0x6C, 0x8A, 0x28, 0x82, 0x3E, 0x44, 0x00, 0x82, 0x47, 0x19, 0x00, 0x82, 0x43, 0x3B, 0x00, 0x92, 0x43, 0x5E, 0x3C, 0x92, 0x47, 0x54, 0x3C, 0x82, 0x43, 0x4A, 0x00, 0x92, 0x4A, 0x60, 0x90, 0x34, 0x82, 0x47, 0x0E, 0x3C, 0x82, 0x4A, 0x64, 0x00, 0x92, 0x4A, 0x6A, 0x00, 0x92, 0x47, 0x6C, 0x00, 0x92, 0x43, 0x69, 0x81, 0x70, 
	0x82, 0x4A, 0x7F, 0x00, 0x82, 0x43, 0x7F, 0x00, 0x82, 0x47, 0x7F, 0x00, 0x92, 0x49, 0x69, 0x00, 0x92, 0x45, 0x6B, 0x00, 0x92, 0x40, 0x6A, 0x9F, 0x70, 0x82, 0x49, 0x2F, 0x00, 0x82, 0x40, 0x01, 0x00, 0x82, 0x45, 0x01, 0x00, 0x92, 0x4A, 0x60, 0x00, 0x92, 0x47, 0x62, 0x00, 0x92, 0x43, 0x62, 0x00, 0x92, 0x3E, 0x60, 0x00, 0x92, 0x37, 0x61, 0x00, 0x92, 0x4E, 0x5F, 0x97, 0x02, 0xB2, 0x07, 
	0x4F, 0x4F, 0xB2, 0x07, 0x4C, 0x50, 0xB2, 0x07, 0x4A, 0x52, 0xB2, 0x07, 0x48, 0x4E, 0xB2, 0x07, 0x46, 0x3C, 0xB2, 0x07, 0x44, 0x81, 0x21, 0xB2, 0x07, 0x42, 0x81, 0x1F, 0xB2, 0x07, 0x3F, 0x27, 0xB2, 0x07, 0x3D, 0x09, 0xB2, 0x07, 0x3A, 0x2C, 0xB2, 0x07, 0x37, 0x4F, 0xB2, 0x07, 0x35, 0x77, 0xB2, 0x07, 0x33, 0x81, 0x1D, 0xB2, 0x07, 0x31, 0x7B, 0xB2, 0x07, 0x2F, 0x77, 0xB2, 0x07, 0x2C, 
	0x4F, 0xB2, 0x07, 0x2A, 0x50, 0xB2, 0x07, 0x27, 0x38, 0xB2, 0x07, 0x24, 0x4D, 0xB2, 0x07, 0x22, 0x52, 0xB2, 0x07, 0x20, 0x13, 0xB2, 0x07, 0x1E, 0x76, 0xB2, 0x07, 0x1C, 0x7A, 0xB2, 0x07, 0x1A, 0x4F, 0xB2, 0x07, 0x17, 0x13, 0xB2, 0x07, 0x15, 0x28, 0xB2, 0x07, 0x13, 0x53, 0xB2, 0x07, 0x10, 0x4F, 0xB2, 0x07, 0x0D, 0x77, 0xB2, 0x07, 0x0B, 0x52, 0xB2, 0x07, 0x09, 0x4B, 0xB2, 0x07, 0x06, 
	0x53, 0xB2, 0x07, 0x03, 0x7C, 0xB2, 0x07, 0x00, 0x0A, 0x82, 0x4A, 0x7F, 0x00, 0x82, 0x4E, 0x7F, 0x00, 0x82, 0x37, 0x7F, 0x00, 0x82, 0x3E, 0x7F, 0x00, 0x82, 0x43, 0x67, 0x00, 0x82, 0x47, 0x7F, 0x00, 0xFF, 0x2F, 0x00, 0x4D, 0x54, 0x72, 0x6B, 0x00, 0x00, 0x07, 0x57, 0x00, 0xFF, 0x03, 0x05, 0x42, 0x72, 0x61, 0x73, 0x73, 0x14, 0xB3, 0x78, 0x00, 0x0A, 0xB3, 0x79, 0x00, 0x28, 0xB3, 0x65, 
	0x00, 0x1E, 0xB3, 0x64, 0x00, 0x1E, 0xB3, 0x06, 0x02, 0x1E, 0xB3, 0x65, 0x7F, 0x1E, 0xB3, 0x64, 0x7F, 0x0A, 0xC3, 0x3D, 0x14, 0xE3, 0x00, 0x40, 0x0A, 0xB3, 0x01, 0x00, 0x0A, 0xB3, 0x07, 0x50, 0x14, 0xB3, 0x0B, 0x64, 0x0A, 0xB3, 0x5B, 0x3C, 0x0A, 0xB3, 0x5D, 0x00, 0x14, 0xB3, 0x0A, 0x64, 0x81, 0xDE, 0x54, 0x93, 0x45, 0x73, 0x00, 0x93, 0x49, 0x66, 0x78, 0x83, 0x45, 0x7F, 0x00, 0x83, 
	0x49, 0x7F, 0x78, 0x93, 0x47, 0x73, 0x00, 0x93, 0x43, 0x6A, 0x9B, 0x18, 0x83, 0x47, 0x7F, 0x00, 0x83, 0x43, 0x64, 0x78, 0x93, 0x43, 0x6A, 0x00, 0x93, 0x47, 0x73, 0x78, 0x83, 0x43, 0x7F, 0x78, 0x83, 0x47, 0x7F, 0x00, 0x93, 0x45, 0x73, 0x00, 0x93, 0x40, 0x78, 0x9F, 0x70, 0x83, 0x45, 0x7F, 0x00, 0x83, 0x40, 0x7F, 0x00, 0x93, 0x42, 0x67, 0x00, 0x93, 0x3E, 0x6A, 0x81, 0x70, 0x83, 0x42, 
	0x50, 0x00, 0x83, 0x3E, 0x5D, 0x83, 0x60, 0x93, 0x42, 0x68, 0x00, 0x93, 0x3E, 0x6B, 0x81, 0x70, 0x83, 0x42, 0x53, 0x00, 0x83, 0x3E, 0x5D, 0x87, 0x40, 0x93, 0x3E, 0x6B, 0x00, 0x93, 0x42, 0x68, 0x81, 0x70, 0x83, 0x3E, 0x5D, 0x00, 0x83, 0x42, 0x58, 0x83, 0x60, 0x93, 0x42, 0x67, 0x00, 0x93, 0x3E, 0x6A, 0x81, 0x70, 0x83, 0x42, 0x3A, 0x00, 0x83, 0x3E, 0x51, 0x87, 0x40, 0x93, 0x3D, 0x65, 
	0x00, 0x93, 0x45, 0x6C, 0x81, 0x70, 0x83, 0x3D, 0x31, 0x00, 0x83, 0x45, 0x39, 0x83, 0x60, 0x93, 0x3D, 0x67, 0x00, 0x93, 0x45, 0x6A, 0x81, 0x70, 0x83, 0x3D, 0x2B, 0x00, 0x83, 0x45, 0x56, 0x87, 0x40, 0x93, 0x3D, 0x69, 0x00, 0x93, 0x45, 0x6B, 0x81, 0x70, 0x83, 0x3D, 0x58, 0x00, 0x83, 0x45, 0x4A, 0x83, 0x60, 0x93, 0x3D, 0x67, 0x00, 0x93, 0x45, 0x6A, 0x81, 0x70, 0x83, 0x3D, 0x58, 0x00, 
	0x83, 0x45, 0x5F, 0x87, 0x40, 0x93, 0x42, 0x6B, 0x00, 0x93, 0x3B, 0x6D, 0x81, 0x70, 0x83, 0x42, 0x52, 0x00, 0x83, 0x3B, 0x57, 0x83, 0x60, 0x93, 0x42, 0x6A, 0x00, 0x93, 0x3B, 0x6D, 0x81, 0x70, 0x83, 0x42, 0x5B, 0x00, 0x83, 0x3B, 0x47, 0x87, 0x40, 0x93, 0x42, 0x68, 0x00, 0x93, 0x3B, 0x6D, 0x81, 0x70, 0x83, 0x42, 0x5F, 0x00, 0x83, 0x3B, 0x3E, 0x83, 0x60, 0x93, 0x42, 0x68, 0x00, 0x93, 
	0x3B, 0x6C, 0x81, 0x70, 0x83, 0x42, 0x3D, 0x00, 0x83, 0x3B, 0x4E, 0x87, 0x40, 0x93, 0x3D, 0x68, 0x00, 0x93, 0x45, 0x6A, 0x81, 0x70, 0x83, 0x3D, 0x60, 0x00, 0x83, 0x45, 0x3E, 0x83, 0x60, 0x93, 0x3D, 0x67, 0x00, 0x93, 0x45, 0x6C, 0x81, 0x70, 0x83, 0x3D, 0x3D, 0x00, 0x83, 0x45, 0x50, 0x87, 0x40, 0x93, 0x3D, 0x69, 0x00, 0x93, 0x45, 0x6C, 0x81, 0x70, 0x83, 0x3D, 0x1E, 0x00, 0x83, 0x45, 
	0x50, 0x83, 0x60, 0x93, 0x3D, 0x6A, 0x00, 0x93, 0x45, 0x6D, 0x81, 0x70, 0x83, 0x3D, 0x73, 0x00, 0x83, 0x45, 0x64, 0x87, 0x40, 0x93, 0x3E, 0x68, 0x00, 0x93, 0x43, 0x66, 0x81, 0x70, 0x83, 0x3E, 0x50, 0x00, 0x83, 0x43, 0x45, 0x83, 0x60, 0x93, 0x43, 0x69, 0x00, 0x93, 0x3E, 0x67, 0x81, 0x70, 0x83, 0x43, 0x4A, 0x00, 0x83, 0x3E, 0x4D, 0x87, 0x40, 0x93, 0x45, 0x67, 0x00, 0x93, 0x40, 0x66, 
	0x81, 0x70, 0x83, 0x45, 0x3E, 0x00, 0x83, 0x40, 0x45, 0x83, 0x60, 0x93, 0x40, 0x6A, 0x00, 0x93, 0x45, 0x6A, 0x81, 0x70, 0x83, 0x40, 0x69, 0x00, 0x83, 0x45, 0x59, 0x87, 0x40, 0x93, 0x42, 0x65, 0x00, 0x93, 0x3D, 0x64, 0x81, 0x70, 0x83, 0x42, 0x44, 0x00, 0x83, 0x3D, 0x41, 0x83, 0x60, 0x93, 0x42, 0x67, 0x00, 0x93, 0x3D, 0x63, 0x81, 0x70, 0x83, 0x42, 0x52, 0x00, 0x83, 0x3D, 0x52, 0x87, 
	0x40, 0x93, 0x42, 0x6A, 0x00, 0x93, 0x3E, 0x67, 0x81, 0x70, 0x83, 0x42, 0x5C, 0x00, 0x83, 0x3E, 0x0D, 0x83, 0x60, 0x93, 0x42, 0x68, 0x00, 0x93, 0x3E, 0x5E, 0x81, 0x70, 0x83, 0x42, 0x52, 0x00, 0x83, 0x3E, 0x20, 0x87, 0x40, 0x93, 0x3E, 0x67, 0x00, 0x93, 0x43, 0x6A, 0x8F, 0x00, 0x83, 0x3E, 0x54, 0x00, 0x83, 0x43, 0x78, 0x00, 0x93, 0x40, 0x6B, 0x00, 0x93, 0x45, 0x6A, 0x8F, 0x00, 0x83, 
	0x40, 0x7F, 0x00, 0x83, 0x45, 0x7F, 0x00, 0x93, 0x42, 0x67, 0x00, 0x93, 0x45, 0x6C, 0x96, 0x40, 0x83, 0x42, 0x7F, 0x00, 0x83, 0x45, 0x7F, 0x00, 0x93, 0x42, 0x73, 0x00, 0x93, 0x3E, 0x6D, 0x83, 0x60, 0x83, 0x42, 0x7F, 0x00, 0x83, 0x3E, 0x6C, 0x00, 0x93, 0x44, 0x73, 0x00, 0x93, 0x40, 0x6D, 0x83, 0x60, 0x83, 0x44, 0x7F, 0x00, 0x83, 0x40, 0x7F, 0x00, 0x93, 0x42, 0x69, 0x00, 0x93, 0x46, 
	0x68, 0x9E, 0x00, 0x83, 0x42, 0x7F, 0x00, 0x83, 0x46, 0x7F, 0x00, 0x93, 0x42, 0x6A, 0x00, 0x93, 0x47, 0x6B, 0x9E, 0x00, 0x83, 0x42, 0x78, 0x00, 0x83, 0x47, 0x6A, 0x00, 0x93, 0x47, 0x68, 0x00, 0x93, 0x40, 0x69, 0x8F, 0x00, 0x83, 0x47, 0x78, 0x00, 0x83, 0x40, 0x67, 0x00, 0x93, 0x40, 0x5F, 0x00, 0x93, 0x45, 0x6B, 0x8F, 0x00, 0x83, 0x40, 0x6D, 0x00, 0x83, 0x45, 0x7F, 0x00, 0x93, 0x45, 
	0x6C, 0x00, 0x93, 0x3E, 0x69, 0x8F, 0x00, 0x83, 0x45, 0x7F, 0x00, 0x83, 0x3E, 0x69, 0x00, 0x93, 0x47, 0x6A, 0x00, 0x93, 0x3F, 0x6A, 0x8F, 0x00, 0x83, 0x47, 0x78, 0x00, 0x83, 0x3F, 0x73, 0x00, 0x93, 0x43, 0x6D, 0x00, 0x93, 0x40, 0x6B, 0x81, 0x70, 0x83, 0x43, 0x5A, 0x00, 0x83, 0x40, 0x0D, 0x83, 0x60, 0x93, 0x43, 0x6A, 0x00, 0x93, 0x40, 0x6A, 0x81, 0x70, 0x83, 0x43, 0x32, 0x00, 0x83, 
	0x40, 0x01, 0x87, 0x40, 0x93, 0x45, 0x6C, 0x00, 0x93, 0x40, 0x69, 0x81, 0x70, 0x83, 0x45, 0x54, 0x78, 0x83, 0x40, 0x4D, 0x82, 0x68, 0x93, 0x40, 0x6A, 0x00, 0x93, 0x45, 0x6B, 0x81, 0x70, 0x83, 0x40, 0x42, 0x00, 0x83, 0x45, 0x4D, 0x87, 0x40, 0x93, 0x46, 0x68, 0x00, 0x93, 0x42, 0x69, 0x81, 0x70, 0x83, 0x46, 0x41, 0x00, 0x83, 0x42, 0x3E, 0x83, 0x60, 0x93, 0x46, 0x65, 0x00, 0x93, 0x42, 
	0x68, 0x81, 0x70, 0x83, 0x46, 0x44, 0x00, 0x83, 0x42, 0x4A, 0x87, 0x40, 0x93, 0x42, 0x68, 0x00, 0x93, 0x3E, 0x68, 0x81, 0x70, 0x83, 0x42, 0x38, 0x00, 0x83, 0x3E, 0x39, 0x83, 0x60, 0x93, 0x42, 0x6A, 0x00, 0x93, 0x3E, 0x66, 0x81, 0x70, 0x83, 0x42, 0x4D, 0x00, 0x83, 0x3E, 0x25, 0x87, 0x40, 0x93, 0x43, 0x6A, 0x00, 0x93, 0x3E, 0x67, 0x81, 0x70, 0x83, 0x43, 0x53, 0x00, 0x83, 0x3E, 0x42, 
	0x83, 0x60, 0x93, 0x43, 0x69, 0x00, 0x93, 0x3E, 0x67, 0x81, 0x70, 0x83, 0x43, 0x4A, 0x00, 0x83, 0x3E, 0x01, 0x87, 0x40, 0x93, 0x3E, 0x68, 0x00, 0x93, 0x43, 0x6A, 0x81, 0x70, 0x83, 0x3E, 0x41, 0x00, 0x83, 0x43, 0x66, 0x83, 0x60, 0x93, 0x43, 0x6B, 0x00, 0x93, 0x3E, 0x66, 0x81, 0x70, 0x83, 0x43, 0x63, 0x00, 0x83, 0x3E, 0x57, 0x87, 0x40, 0x93, 0x41, 0x73, 0x00, 0x93, 0x46, 0x69, 0x8D, 
	0x10, 0x83, 0x41, 0x7F, 0x00, 0x83, 0x46, 0x7F, 0x00, 0x93, 0x43, 0x6C, 0x00, 0x93, 0x40, 0x6B, 0x8F, 0x00, 0x83, 0x43, 0x7F, 0x00, 0x83, 0x40, 0x7F, 0x00, 0x93, 0x42, 0x6A, 0x00, 0x93, 0x45, 0x69, 0x90, 0x70, 0x83, 0x42, 0x7F, 0x00, 0x83, 0x45, 0x7F, 0x81, 0x70, 0x93, 0x45, 0x5A, 0x00, 0x93, 0x40, 0x5A, 0x78, 0x83, 0x45, 0x7F, 0x00, 0x83, 0x40, 0x7F, 0x78, 0x93, 0x45, 0x5A, 0x00, 
	0x93, 0x40, 0x5A, 0x78, 0x83, 0x45, 0x7F, 0x00, 0x83, 0x40, 0x6C, 0x78, 0x93, 0x45, 0x5F, 0x00, 0x93, 0x40, 0x5F, 0x78, 0x83, 0x45, 0x7F, 0x00, 0x83, 0x40, 0x7F, 0x78, 0x93, 0x45, 0x64, 0x00, 0x93, 0x40, 0x64, 0x78, 0x83, 0x45, 0x7F, 0x00, 0x83, 0x40, 0x7F, 0x78, 0x93, 0x45, 0x69, 0x00, 0x93, 0x40, 0x69, 0x78, 0x83, 0x45, 0x7F, 0x00, 0x83, 0x40, 0x7F, 0x78, 0x93, 0x45, 0x6E, 0x00, 
	0x93, 0x40, 0x6E, 0x78, 0x83, 0x45, 0x7F, 0x00, 0x83, 0x40, 0x7F, 0x78, 0x93, 0x45, 0x73, 0x00, 0x93, 0x40, 0x73, 0x78, 0x83, 0x45, 0x7F, 0x00, 0x83, 0x40, 0x7F, 0x78, 0x93, 0x42, 0x67, 0x00, 0x93, 0x3E, 0x6A, 0x81, 0x70, 0x83, 0x42, 0x50, 0x00, 0x83, 0x3E, 0x5D, 0x83, 0x60, 0x93, 0x42, 0x68, 0x00, 0x93, 0x3E, 0x6B, 0x81, 0x70, 0x83, 0x42, 0x53, 0x00, 0x83, 0x3E, 0x5D, 0x87, 0x40, 
	0x93, 0x42, 0x67, 0x00, 0x93, 0x3D, 0x65, 0x81, 0x70, 0x83, 0x42, 0x4F, 0x00, 0x83, 0x3D, 0x52, 0x83, 0x60, 0x93, 0x42, 0x6A, 0x00, 0x93, 0x3D, 0x68, 0x81, 0x70, 0x83, 0x42, 0x53, 0x00, 0x83, 0x3D, 0x4D, 0x87, 0x40, 0x93, 0x3E, 0x6A, 0x00, 0x93, 0x42, 0x67, 0x81, 0x70, 0x83, 0x3E, 0x5F, 0x00, 0x83, 0x42, 0x5F, 0x83, 0x60, 0x93, 0x42, 0x68, 0x00, 0x93, 0x3E, 0x69, 0x81, 0x70, 0x83, 
	0x42, 0x52, 0x00, 0x83, 0x3E, 0x4B, 0x87, 0x40, 0x93, 0x42, 0x68, 0x00, 0x93, 0x3E, 0x6A, 0x81, 0x70, 0x83, 0x42, 0x52, 0x00, 0x83, 0x3E, 0x5F, 0x83, 0x60, 0x93, 0x42, 0x66, 0x00, 0x93, 0x3E, 0x6A, 0x81, 0x70, 0x83, 0x42, 0x40, 0x00, 0x83, 0x3E, 0x53, 0x87, 0x40, 0x93, 0x3E, 0x68, 0x00, 0x93, 0x43, 0x65, 0x81, 0x70, 0x83, 0x3E, 0x57, 0x00, 0x83, 0x43, 0x33, 0x83, 0x60, 0x93, 0x43, 
	0x68, 0x00, 0x93, 0x3E, 0x67, 0x81, 0x70, 0x83, 0x43, 0x28, 0x00, 0x83, 0x3E, 0x3E, 0x87, 0x40, 0x93, 0x42, 0x67, 0x00, 0x93, 0x3E, 0x69, 0x81, 0x70, 0x83, 0x42, 0x4C, 0x00, 0x83, 0x3E, 0x41, 0x83, 0x60, 0x93, 0x3E, 0x69, 0x00, 0x93, 0x42, 0x64, 0x81, 0x70, 0x83, 0x3E, 0x5A, 0x00, 0x83, 0x42, 0x40, 0x87, 0x40, 0x93, 0x40, 0x6A, 0x00, 0x93, 0x43, 0x66, 0x81, 0x70, 0x83, 0x40, 0x4B, 
	0x00, 0x83, 0x43, 0x25, 0x83, 0x60, 0x93, 0x40, 0x6B, 0x00, 0x93, 0x43, 0x69, 0x81, 0x70, 0x83, 0x40, 0x50, 0x00, 0x83, 0x43, 0x4E, 0x87, 0x40, 0x93, 0x45, 0x6A, 0x00, 0x93, 0x40, 0x6A, 0x81, 0x70, 0x83, 0x45, 0x7F, 0x00, 0x83, 0x40, 0x5D, 0x83, 0x60, 0x93, 0x40, 0x6B, 0x00, 0x93, 0x45, 0x6B, 0x81, 0x70, 0x83, 0x40, 0x41, 0x00, 0x83, 0x45, 0x5D, 0x87, 0x40, 0x93, 0x42, 0x69, 0x00, 
	0x93, 0x3E, 0x67, 0x81, 0x70, 0x83, 0x42, 0x50, 0x00, 0x83, 0x3E, 0x41, 0x83, 0x60, 0x93, 0x42, 0x68, 0x00, 0x93, 0x3E, 0x69, 0x81, 0x70, 0x83, 0x42, 0x50, 0x00, 0x83, 0x3E, 0x30, 0x87, 0x40, 0x93, 0x3D, 0x66, 0x00, 0x93, 0x42, 0x67, 0x81, 0x70, 0x83, 0x3D, 0x4A, 0x00, 0x83, 0x42, 0x4D, 0x83, 0x60, 0x93, 0x42, 0x66, 0x00, 0x93, 0x3D, 0x65, 0x81, 0x70, 0x83, 0x42, 0x50, 0x00, 0x83, 
	0x3D, 0x53, 0x87, 0x40, 0x93, 0x3E, 0x68, 0x00, 0x93, 0x42, 0x65, 0x81, 0x70, 0x83, 0x3E, 0x60, 0x00, 0x83, 0x42, 0x55, 0x83, 0x60, 0x93, 0x42, 0x67, 0x00, 0x93, 0x3E, 0x69, 0x81, 0x70, 0x83, 0x42, 0x4D, 0x00, 0x83, 0x3E, 0x56, 0x87, 0x40, 0x93, 0x42, 0x66, 0x00, 0x93, 0x3E, 0x69, 0x81, 0x70, 0x83, 0x42, 0x4C, 0x00, 0x83, 0x3E, 0x5A, 0x83, 0x60, 0x93, 0x3E, 0x6A, 0x00, 0x93, 0x42, 
	0x67, 0x81, 0x70, 0x83, 0x3E, 0x51, 0x00, 0x83, 0x42, 0x41, 0x87, 0x40, 0x93, 0x43, 0x68, 0x00, 0x93, 0x3E, 0x69, 0x85, 0x50, 0x83, 0x43, 0x50, 0x00, 0x83, 0x3E, 0x60, 0x00, 0x93, 0x43, 0x6A, 0x00, 0x93, 0x3E, 0x69, 0x89, 0x30, 0x83, 0x43, 0x54, 0x00, 0x83, 0x3E, 0x54, 0x00, 0x93, 0x45, 0x50, 0x00, 0x93, 0x40, 0x50, 0x8F, 0x00, 0x83, 0x45, 0x59, 0x00, 0x83, 0x40, 0x78, 0x00, 0x93, 
	0x46, 0x50, 0x00, 0x93, 0x41, 0x50, 0x8F, 0x00, 0x83, 0x46, 0x7F, 0x00, 0x83, 0x41, 0x7F, 0x00, 0x93, 0x43, 0x50, 0x00, 0x93, 0x40, 0x50, 0x8F, 0x00, 0x83, 0x43, 0x7F, 0x00, 0x83, 0x40, 0x73, 0xA9, 0x20, 0x93, 0x45, 0x73, 0x00, 0x93, 0x49, 0x66, 0x78, 0x83, 0x45, 0x7F, 0x00, 0x83, 0x49, 0x7F, 0x78, 0x93, 0x47, 0x73, 0x00, 0x93, 0x43, 0x6A, 0x9B, 0x18, 0x83, 0x47, 0x7F, 0x00, 0x83, 
	0x43, 0x64, 0x78, 0x93, 0x43, 0x6A, 0x00, 0x93, 0x47, 0x73, 0x78, 0x83, 0x43, 0x7F, 0x78, 0x83, 0x47, 0x7F, 0x00, 0x93, 0x45, 0x73, 0x00, 0x93, 0x40, 0x78, 0x9F, 0x70, 0x83, 0x45, 0x7F, 0x00, 0x83, 0x40, 0x7F, 0x00, 0x93, 0x43, 0x50, 0x00, 0x93, 0x3E, 0x50, 0x97, 0x02, 0xB3, 0x07, 0x4F, 0x4F, 0xB3, 0x07, 0x4C, 0x50, 0xB3, 0x07, 0x4A, 0x52, 0xB3, 0x07, 0x48, 0x4E, 0xB3, 0x07, 0x46, 
	0x3C, 0xB3, 0x07, 0x44, 0x81, 0x21, 0xB3, 0x07, 0x42, 0x81, 0x1F, 0xB3, 0x07, 0x3F, 0x27, 0xB3, 0x07, 0x3D, 0x09, 0xB3, 0x07, 0x3A, 0x2C, 0xB3, 0x07, 0x37, 0x4F, 0xB3, 0x07, 0x35, 0x77, 0xB3, 0x07, 0x33, 0x81, 0x1D, 0xB3, 0x07, 0x31, 0x7B, 0xB3, 0x07, 0x2F, 0x77, 0xB3, 0x07, 0x2C, 0x4F, 0xB3, 0x07, 0x2A, 0x50, 0xB3, 0x07, 0x27, 0x38, 0xB3, 0x07, 0x24, 0x4D, 0xB3, 0x07, 0x22, 0x52, 
	0xB3, 0x07, 0x20, 0x13, 0xB3, 0x07, 0x1E, 0x76, 0xB3, 0x07, 0x1C, 0x7A, 0xB3, 0x07, 0x1A, 0x4F, 0xB3, 0x07, 0x17, 0x13, 0xB3, 0x07, 0x15, 0x28, 0xB3, 0x07, 0x13, 0x53, 0xB3, 0x07, 0x10, 0x4F, 0xB3, 0x07, 0x0D, 0x77, 0xB3, 0x07, 0x0B, 0x52, 0xB3, 0x07, 0x09, 0x4B, 0xB3, 0x07, 0x06, 0x53, 0xB3, 0x07, 0x03, 0x7C, 0xB3, 0x07, 0x00, 0x0A, 0x83, 0x43, 0x7F, 0x00, 0x83, 0x3E, 0x7F, 0x00, 
	0xFF, 0x2F, 0x00, 0x4D, 0x54, 0x72, 0x6B, 0x00, 0x00, 0x06, 0xE5, 0x00, 0xFF, 0x03, 0x09, 0x47, 0x69, 0x69, 0x74, 0x20, 0x43, 0x6C, 0x65, 0x6E, 0x14, 0xB4, 0x78, 0x00, 0x0A, 0xB4, 0x79, 0x00, 0x28, 0xB4, 0x65, 0x00, 0x1E, 0xB4, 0x64, 0x00, 0x1E, 0xB4, 0x06, 0x02, 0x1E, 0xB4, 0x65, 0x7F, 0x1E, 0xB4, 0x64, 0x7F, 0x0A, 0xC4, 0x19, 0x14, 0xE4, 0x00, 0x40, 0x0A, 0xB4, 0x01, 0x00, 0x0A, 
	0xB4, 0x07, 0x64, 0x14, 0xB4, 0x0B, 0x64, 0x0A, 0xB4, 0x5B, 0x3C, 0x0A, 0xB4, 0x5D, 0x00, 0x14, 0xB4, 0x0A, 0x5A, 0xBD, 0x34, 0x94, 0x32, 0x57, 0x85, 0x50, 0x94, 0x39, 0x5E, 0x89, 0x30, 0x84, 0x32, 0x4E, 0x00, 0x84, 0x39, 0x7F, 0x00, 0x94, 0x31, 0x55, 0x85, 0x50, 0x94, 0x3A, 0x56, 0x89, 0x30, 0x84, 0x31, 0x6C, 0x00, 0x84, 0x3A, 0x7F, 0x00, 0x94, 0x2F, 0x57, 0x85, 0x50, 0x94, 0x36, 
	0x57, 0x85, 0x50, 0x94, 0x3B, 0x58, 0x83, 0x60, 0x84, 0x2F, 0x7F, 0x00, 0x84, 0x3B, 0x78, 0x00, 0x84, 0x36, 0x7F, 0x00, 0x94, 0x2D, 0x55, 0x85, 0x50, 0x94, 0x39, 0x5D, 0x89, 0x30, 0x84, 0x2D, 0x73, 0x00, 0x84, 0x39, 0x7F, 0x00, 0x94, 0x2B, 0x54, 0x85, 0x50, 0x94, 0x37, 0x5B, 0x88, 0x38, 0x84, 0x2B, 0x7F, 0x00, 0x84, 0x37, 0x7F, 0x00, 0x94, 0x2D, 0x4E, 0x3C, 0x94, 0x34, 0x49, 0x3C, 
	0x94, 0x3D, 0x4E, 0x00, 0x94, 0x39, 0x4B, 0x14, 0x94, 0x40, 0x50, 0x8D, 0x74, 0x84, 0x2D, 0x67, 0x3C, 0x84, 0x34, 0x7F, 0x3C, 0x84, 0x39, 0x78, 0x00, 0x84, 0x3D, 0x7F, 0x00, 0x94, 0x3E, 0x53, 0x00, 0x94, 0x32, 0x4C, 0x14, 0x84, 0x40, 0x7F, 0x85, 0x3C, 0x94, 0x39, 0x49, 0x88, 0x38, 0x84, 0x32, 0x7F, 0x00, 0x84, 0x39, 0x7F, 0x00, 0x84, 0x3E, 0x7F, 0x00, 0x94, 0x32, 0x4E, 0x3C, 0x94, 
	0x39, 0x49, 0x3C, 0x94, 0x42, 0x4E, 0x00, 0x94, 0x3E, 0x4B, 0x14, 0x94, 0x45, 0x50, 0x8D, 0x74, 0x84, 0x32, 0x67, 0x3C, 0x84, 0x39, 0x7F, 0x3C, 0x84, 0x3E, 0x78, 0x00, 0x84, 0x42, 0x7F, 0x14, 0x84, 0x45, 0x7F, 0x82, 0xD8, 0x6C, 0x94, 0x2A, 0x69, 0x81, 0x70, 0x94, 0x31, 0x68, 0x81, 0x70, 0x94, 0x36, 0x66, 0x81, 0x70, 0x94, 0x3D, 0x5F, 0x83, 0x60, 0x84, 0x3D, 0x7F, 0x00, 0x94, 0x3A, 
	0x64, 0x85, 0x50, 0x84, 0x3A, 0x7F, 0x00, 0x94, 0x42, 0x67, 0x85, 0x50, 0x94, 0x3D, 0x60, 0x89, 0x30, 0x84, 0x2A, 0x7F, 0x00, 0x84, 0x3D, 0x7F, 0x00, 0x84, 0x42, 0x7F, 0x00, 0x84, 0x36, 0x7F, 0x00, 0x84, 0x31, 0x7F, 0x00, 0x94, 0x2F, 0x6D, 0x81, 0x70, 0x94, 0x36, 0x6A, 0x81, 0x70, 0x94, 0x3B, 0x69, 0x81, 0x70, 0x94, 0x3E, 0x69, 0x82, 0x68, 0x84, 0x3B, 0x7F, 0x78, 0x84, 0x3E, 0x7F, 
	0x00, 0x94, 0x3B, 0x6C, 0x85, 0x50, 0x94, 0x42, 0x65, 0x85, 0x50, 0x84, 0x42, 0x7F, 0x00, 0x94, 0x3E, 0x60, 0x88, 0x38, 0x84, 0x36, 0x7F, 0x00, 0x84, 0x3E, 0x7F, 0x00, 0x84, 0x2F, 0x7F, 0x78, 0x84, 0x3B, 0x7F, 0x00, 0x94, 0x28, 0x59, 0x81, 0x70, 0x94, 0x34, 0x6A, 0x81, 0x70, 0x94, 0x37, 0x68, 0x81, 0x70, 0x84, 0x37, 0x7F, 0x00, 0x94, 0x40, 0x6B, 0x83, 0x60, 0x84, 0x40, 0x60, 0x00, 
	0x94, 0x3B, 0x66, 0x85, 0x50, 0x84, 0x28, 0x1F, 0x00, 0x84, 0x3B, 0x7F, 0x00, 0x84, 0x34, 0x7F, 0x00, 0x94, 0x3D, 0x67, 0x00, 0x94, 0x2D, 0x64, 0x85, 0x50, 0x94, 0x39, 0x63, 0x89, 0x30, 0x84, 0x3D, 0x7F, 0x00, 0x84, 0x39, 0x7F, 0x00, 0x84, 0x2D, 0x7F, 0x00, 0x94, 0x32, 0x67, 0x85, 0x50, 0x94, 0x39, 0x6B, 0x83, 0x60, 0x94, 0x36, 0x65, 0x85, 0x50, 0x84, 0x32, 0x6A, 0x00, 0x84, 0x36, 
	0x7F, 0x00, 0x84, 0x39, 0x7F, 0x00, 0x94, 0x33, 0x65, 0x85, 0x50, 0x94, 0x3B, 0x69, 0x83, 0x60, 0x94, 0x36, 0x62, 0x85, 0x50, 0x84, 0x33, 0x7F, 0x00, 0x84, 0x36, 0x7F, 0x00, 0x84, 0x3B, 0x7F, 0x00, 0x94, 0x2F, 0x73, 0x85, 0x50, 0x94, 0x34, 0x73, 0x89, 0x30, 0x84, 0x2F, 0x7F, 0x00, 0x84, 0x34, 0x7F, 0x00, 0x94, 0x31, 0x64, 0x85, 0x50, 0x94, 0x39, 0x66, 0x89, 0x30, 0x84, 0x31, 0x7F, 
	0x00, 0x84, 0x39, 0x7F, 0x00, 0x94, 0x36, 0x68, 0x85, 0x50, 0x94, 0x3A, 0x62, 0x89, 0x30, 0x84, 0x36, 0x7F, 0x00, 0x84, 0x3A, 0x6B, 0x00, 0x94, 0x3B, 0x65, 0x85, 0x50, 0x84, 0x3B, 0x7F, 0x00, 0x94, 0x39, 0x66, 0x89, 0x30, 0x84, 0x39, 0x7F, 0x00, 0x94, 0x2B, 0x69, 0x85, 0x50, 0x94, 0x3B, 0x6A, 0x83, 0x60, 0x94, 0x36, 0x5D, 0x85, 0x50, 0x84, 0x3B, 0x7F, 0x00, 0x84, 0x36, 0x7F, 0x00, 
	0x94, 0x3E, 0x68, 0x85, 0x50, 0x94, 0x3B, 0x61, 0x89, 0x30, 0x84, 0x2B, 0x7F, 0x00, 0x84, 0x3B, 0x7F, 0x00, 0x84, 0x3E, 0x7F, 0x00, 0x94, 0x2E, 0x68, 0x00, 0x94, 0x35, 0x6B, 0x85, 0x50, 0x84, 0x35, 0x7F, 0x00, 0x94, 0x3A, 0x63, 0x87, 0x40, 0x84, 0x2E, 0x7F, 0x00, 0x84, 0x3A, 0x7F, 0x00, 0x94, 0x30, 0x65, 0x00, 0x94, 0x40, 0x68, 0x87, 0x40, 0x84, 0x40, 0x7F, 0x00, 0x94, 0x3C, 0x63, 
	0x87, 0x40, 0x84, 0x30, 0x7F, 0x00, 0x84, 0x3C, 0x7F, 0x00, 0x94, 0x32, 0x60, 0x00, 0x94, 0x3E, 0x64, 0x8F, 0x78, 0x84, 0x32, 0x7F, 0x00, 0x84, 0x3E, 0x7F, 0x82, 0x68, 0x94, 0x39, 0x50, 0x00, 0x94, 0x34, 0x50, 0x81, 0x70, 0x84, 0x39, 0x7F, 0x00, 0x84, 0x34, 0x78, 0x00, 0x94, 0x39, 0x50, 0x00, 0x94, 0x34, 0x50, 0x81, 0x70, 0x84, 0x39, 0x7F, 0x00, 0x84, 0x34, 0x7F, 0x00, 0x94, 0x39, 
	0x50, 0x00, 0x94, 0x34, 0x50, 0x81, 0x70, 0x84, 0x39, 0x7F, 0x00, 0x84, 0x34, 0x6D, 0x00, 0x94, 0x39, 0x5A, 0x00, 0x94, 0x34, 0x5A, 0x81, 0x70, 0x84, 0x39, 0x7F, 0x00, 0x84, 0x34, 0x78, 0x00, 0x94, 0x39, 0x5F, 0x00, 0x94, 0x34, 0x5F, 0x81, 0x70, 0x84, 0x39, 0x7F, 0x00, 0x84, 0x34, 0x69, 0x00, 0x94, 0x39, 0x64, 0x00, 0x94, 0x34, 0x64, 0x81, 0x70, 0x84, 0x39, 0x7F, 0x00, 0x84, 0x34, 
	0x6D, 0x00, 0x94, 0x39, 0x6B, 0x00, 0x94, 0x34, 0x68, 0x81, 0x70, 0x84, 0x39, 0x6D, 0x00, 0x84, 0x34, 0x78, 0x00, 0x94, 0x26, 0x68, 0x81, 0x70, 0x94, 0x32, 0x68, 0x81, 0x70, 0x94, 0x36, 0x63, 0x81, 0x70, 0x94, 0x39, 0x65, 0x89, 0x30, 0x84, 0x26, 0x7F, 0x00, 0x84, 0x39, 0x7F, 0x00, 0x84, 0x36, 0x7F, 0x00, 0x84, 0x32, 0x7F, 0x00, 0x94, 0x25, 0x68, 0x81, 0x70, 0x94, 0x31, 0x68, 0x81, 
	0x70, 0x94, 0x36, 0x63, 0x81, 0x70, 0x94, 0x3A, 0x65, 0x89, 0x30, 0x84, 0x25, 0x7F, 0x00, 0x84, 0x3A, 0x7F, 0x00, 0x84, 0x36, 0x7F, 0x00, 0x84, 0x31, 0x7F, 0x00, 0x94, 0x2F, 0x68, 0x81, 0x70, 0x94, 0x32, 0x68, 0x81, 0x70, 0x94, 0x36, 0x63, 0x81, 0x70, 0x94, 0x3B, 0x65, 0x89, 0x30, 0x84, 0x2F, 0x7F, 0x00, 0x84, 0x3B, 0x7F, 0x00, 0x84, 0x36, 0x7F, 0x00, 0x84, 0x32, 0x7F, 0x00, 0x94, 
	0x2D, 0x68, 0x81, 0x70, 0x94, 0x32, 0x68, 0x81, 0x70, 0x94, 0x36, 0x63, 0x81, 0x70, 0x94, 0x39, 0x65, 0x89, 0x30, 0x84, 0x2D, 0x7F, 0x00, 0x84, 0x39, 0x7F, 0x00, 0x84, 0x36, 0x7F, 0x00, 0x84, 0x32, 0x7F, 0x00, 0x94, 0x2B, 0x68, 0x81, 0x70, 0x94, 0x32, 0x68, 0x81, 0x70, 0x94, 0x37, 0x63, 0x81, 0x70, 0x94, 0x3B, 0x65, 0x89, 0x30, 0x84, 0x2B, 0x7F, 0x00, 0x84, 0x3B, 0x7F, 0x00, 0x84, 
	0x37, 0x7F, 0x00, 0x84, 0x32, 0x7F, 0x00, 0x94, 0x2A, 0x68, 0x81, 0x70, 0x94, 0x32, 0x68, 0x81, 0x70, 0x94, 0x36, 0x63, 0x81, 0x70, 0x94, 0x39, 0x65, 0x89, 0x30, 0x84, 0x2A, 0x7F, 0x00, 0x84, 0x39, 0x7F, 0x00, 0x84, 0x36, 0x7F, 0x00, 0x84, 0x32, 0x7F, 0x00, 0x94, 0x28, 0x68, 0x81, 0x70, 0x94, 0x34, 0x68, 0x81, 0x70, 0x94, 0x37, 0x63, 0x81, 0x70, 0x94, 0x3B, 0x65, 0x89, 0x30, 0x84, 
	0x28, 0x7F, 0x00, 0x84, 0x3B, 0x7F, 0x00, 0x84, 0x37, 0x7F, 0x00, 0x84, 0x34, 0x7F, 0x00, 0x94, 0x2D, 0x68, 0x81, 0x70, 0x94, 0x31, 0x68, 0x81, 0x70, 0x94, 0x34, 0x63, 0x81, 0x70, 0x94, 0x39, 0x65, 0x89, 0x30, 0x84, 0x2D, 0x7F, 0x00, 0x84, 0x39, 0x7F, 0x00, 0x84, 0x34, 0x7F, 0x00, 0x84, 0x31, 0x7F, 0x00, 0x94, 0x26, 0x68, 0x81, 0x70, 0x94, 0x32, 0x68, 0x81, 0x70, 0x94, 0x36, 0x63, 
	0x81, 0x70, 0x94, 0x39, 0x65, 0x89, 0x30, 0x84, 0x26, 0x7F, 0x00, 0x84, 0x39, 0x7F, 0x00, 0x84, 0x36, 0x7F, 0x00, 0x84, 0x32, 0x7F, 0x00, 0x94, 0x25, 0x68, 0x81, 0x70, 0x94, 0x31, 0x68, 0x81, 0x70, 0x94, 0x36, 0x63, 0x81, 0x70, 0x94, 0x3A, 0x65, 0x89, 0x30, 0x84, 0x25, 0x7F, 0x00, 0x84, 0x3A, 0x7F, 0x00, 0x84, 0x36, 0x7F, 0x00, 0x84, 0x31, 0x7F, 0x00, 0x94, 0x2F, 0x68, 0x81, 0x70, 
	0x94, 0x32, 0x68, 0x81, 0x70, 0x94, 0x36, 0x63, 0x81, 0x70, 0x94, 0x3B, 0x65, 0x89, 0x30, 0x84, 0x2F, 0x7F, 0x00, 0x84, 0x3B, 0x7F, 0x00, 0x84, 0x36, 0x7F, 0x00, 0x84, 0x32, 0x7F, 0x00, 0x94, 0x2D, 0x68, 0x81, 0x70, 0x94, 0x32, 0x68, 0x81, 0x70, 0x94, 0x36, 0x63, 0x81, 0x70, 0x94, 0x39, 0x65, 0x89, 0x30, 0x84, 0x2D, 0x7F, 0x00, 0x84, 0x39, 0x7F, 0x00, 0x84, 0x36, 0x7F, 0x00, 0x84, 
	0x32, 0x7F, 0x00, 0x94, 0x32, 0x68, 0x00, 0x94, 0x2B, 0x69, 0x85, 0x50, 0x94, 0x3B, 0x69, 0x85, 0x50, 0x94, 0x37, 0x63, 0x82, 0x68, 0x84, 0x32, 0x7F, 0x00, 0x84, 0x37, 0x7F, 0x00, 0x84, 0x3B, 0x7F, 0x00, 0x84, 0x2B, 0x7F, 0x00, 0x94, 0x2D, 0x61, 0x3C, 0x94, 0x34, 0x64, 0x3C, 0x94, 0x39, 0x69, 0x14, 0x94, 0x3D, 0x67, 0x8D, 0x74, 0x84, 0x2D, 0x78, 0x3C, 0x84, 0x34, 0x7F, 0x3C, 0x84, 
	0x39, 0x7F, 0x00, 0x94, 0x2E, 0x6C, 0x14, 0x84, 0x3D, 0x7F, 0x85, 0x3C, 0x94, 0x3A, 0x6A, 0x85, 0x50, 0x94, 0x35, 0x64, 0x83, 0x60, 0x84, 0x2E, 0x7F, 0x00, 0x84, 0x35, 0x66, 0x00, 0x84, 0x3A, 0x7F, 0x00, 0x94, 0x30, 0x69, 0x85, 0x50, 0x94, 0x3C, 0x6C, 0x85, 0x50, 0x84, 0x3C, 0x69, 0x00, 0x94, 0x37, 0x68, 0x83, 0x60, 0x84, 0x30, 0x7F, 0x00, 0x84, 0x37, 0x5A, 0x00, 0x94, 0x32, 0x6C, 
	0x81, 0x70, 0x94, 0x39, 0x68, 0x81, 0x70, 0x94, 0x3E, 0x69, 0x81, 0x70, 0x84, 0x32, 0x7F, 0x00, 0x84, 0x3E, 0x7F, 0x00, 0x84, 0x39, 0x7F, 0x00, 0x94, 0x31, 0x6A, 0x83, 0x60, 0x94, 0x34, 0x6B, 0x81, 0x70, 0x94, 0x39, 0x69, 0x83, 0x60, 0x84, 0x31, 0x7F, 0x00, 0x84, 0x39, 0x7F, 0x00, 0x84, 0x34, 0x7F, 0x00, 0x94, 0x2F, 0x6C, 0x81, 0x70, 0x94, 0x36, 0x68, 0x81, 0x70, 0x94, 0x3B, 0x69, 
	0x81, 0x70, 0x84, 0x2F, 0x7F, 0x00, 0x84, 0x3B, 0x7F, 0x00, 0x84, 0x36, 0x7F, 0x00, 0x94, 0x34, 0x6A, 0x83, 0x60, 0x94, 0x39, 0x6B, 0x81, 0x70, 0x94, 0x3D, 0x69, 0x83, 0x60, 0x84, 0x34, 0x7F, 0x00, 0x84, 0x3D, 0x7F, 0x00, 0x84, 0x39, 0x7F, 0x00, 0x94, 0x32, 0x6B, 0x81, 0x70, 0x94, 0x39, 0x68, 0x81, 0x70, 0x94, 0x3E, 0x68, 0x81, 0x70, 0x84, 0x32, 0x7F, 0x00, 0x84, 0x3E, 0x6D, 0x00, 
	0x84, 0x39, 0x7F, 0x00, 0x94, 0x31, 0x69, 0x83, 0x60, 0x94, 0x34, 0x66, 0x81, 0x70, 0x94, 0x39, 0x69, 0x78, 0x84, 0x31, 0x7F, 0x78, 0x84, 0x39, 0x7F, 0x00, 0x84, 0x34, 0x7F, 0x00, 0x94, 0x3B, 0x64, 0x00, 0x94, 0x37, 0x67, 0x9E, 0x00, 0x84, 0x3B, 0x7F, 0x00, 0x84, 0x37, 0x7F, 0x00, 0x94, 0x39, 0x6C, 0x87, 0x40, 0x94, 0x3D, 0x60, 0x97, 0x24, 0x84, 0x3D, 0x7F, 0x14, 0x84, 0x39, 0x7F, 
	0x00, 0x94, 0x2B, 0x67, 0x3C, 0x94, 0x37, 0x63, 0x3C, 0x94, 0x3E, 0x5F, 0x14, 0x94, 0x42, 0x60, 0x96, 0x6E, 0xB4, 0x07, 0x4F, 0x4F, 0xB4, 0x07, 0x4C, 0x50, 0xB4, 0x07, 0x4A, 0x52, 0xB4, 0x07, 0x48, 0x4E, 0xB4, 0x07, 0x46, 0x3C, 0xB4, 0x07, 0x44, 0x81, 0x21, 0xB4, 0x07, 0x42, 0x81, 0x1F, 0xB4, 0x07, 0x3F, 0x27, 0xB4, 0x07, 0x3D, 0x09, 0xB4, 0x07, 0x3A, 0x2C, 0xB4, 0x07, 0x37, 0x4F, 
	0xB4, 0x07, 0x35, 0x77, 0xB4, 0x07, 0x33, 0x81, 0x1D, 0xB4, 0x07, 0x31, 0x7B, 0xB4, 0x07, 0x2F, 0x77, 0xB4, 0x07, 0x2C, 0x4F, 0xB4, 0x07, 0x2A, 0x50, 0xB4, 0x07, 0x27, 0x38, 0xB4, 0x07, 0x24, 0x4D, 0xB4, 0x07, 0x22, 0x52, 0xB4, 0x07, 0x20, 0x13, 0xB4, 0x07, 0x1E, 0x76, 0xB4, 0x07, 0x1C, 0x7A, 0xB4, 0x07, 0x1A, 0x4F, 0xB4, 0x07, 0x17, 0x13, 0xB4, 0x07, 0x15, 0x28, 0xB4, 0x07, 0x13, 
	0x53, 0xB4, 0x07, 0x10, 0x4F, 0xB4, 0x07, 0x0D, 0x77, 0xB4, 0x07, 0x0B, 0x52, 0xB4, 0x07, 0x09, 0x4B, 0xB4, 0x07, 0x06, 0x53, 0xB4, 0x07, 0x03, 0x7C, 0xB4, 0x07, 0x00, 0x0A, 0x84, 0x2B, 0x7F, 0x00, 0x84, 0x42, 0x7F, 0x00, 0x84, 0x3E, 0x7F, 0x00, 0x84, 0x37, 0x7F, 0x00, 0xFF, 0x2F, 0x00, 0x4D, 0x54, 0x72, 0x6B, 0x00, 0x00, 0x06, 0xF1, 0x00, 0xFF, 0x03, 0x03, 0x53, 0x74, 0x72, 0x14, 
	0xB5, 0x78, 0x00, 0x0A, 0xB5, 0x79, 0x00, 0x28, 0xB5, 0x65, 0x00, 0x1E, 0xB5, 0x64, 0x00, 0x1E, 0xB5, 0x06, 0x02, 0x1E, 0xB5, 0x65, 0x7F, 0x1E, 0xB5, 0x64, 0x7F, 0x0A, 0xC5, 0x30, 0x14, 0xE5, 0x00, 0x40, 0x0A, 0xB5, 0x01, 0x00, 0x0A, 0xB5, 0x07, 0x50, 0x14, 0xB5, 0x0B, 0x64, 0x0A, 0xB5, 0x5B, 0x50, 0x0A, 0xB5, 0x5D, 0x00, 0x14, 0xB5, 0x0A, 0x64, 0x81, 0x34, 0x95, 0x5D, 0x3C, 0x00, 
	0x95, 0x51, 0x3C, 0x00, 0xB5, 0x07, 0x1E, 0x87, 0x32, 0xB5, 0x07, 0x23, 0x81, 0x09, 0xB5, 0x07, 0x24, 0x81, 0x2C, 0xB5, 0x07, 0x25, 0x82, 0x34, 0xB5, 0x07, 0x26, 0x81, 0x0A, 0xB5, 0x07, 0x27, 0x45, 0xB5, 0x07, 0x29, 0x23, 0xB5, 0x07, 0x2A, 0x25, 0xB5, 0x07, 0x2B, 0x43, 0xB5, 0x07, 0x2C, 0x81, 0x0B, 0xB5, 0x07, 0x2D, 0x46, 0xB5, 0x07, 0x2E, 0x22, 0xB5, 0x07, 0x2F, 0x47, 0xB5, 0x07, 
	0x30, 0x22, 0xB5, 0x07, 0x31, 0x46, 0xB5, 0x07, 0x32, 0x46, 0xB5, 0x07, 0x33, 0x81, 0x4D, 0xB5, 0x07, 0x34, 0x82, 0x12, 0xB5, 0x07, 0x36, 0x81, 0x4E, 0xB5, 0x07, 0x37, 0x68, 0xB5, 0x07, 0x38, 0x81, 0x2B, 0xB5, 0x07, 0x3A, 0x81, 0x2C, 0xB5, 0x07, 0x3B, 0x82, 0x34, 0xB5, 0x07, 0x3C, 0x82, 0x57, 0xB5, 0x07, 0x3D, 0x45, 0xB5, 0x07, 0x3E, 0x81, 0x4E, 0xB5, 0x07, 0x3F, 0x82, 0x56, 0xB5, 
	0x07, 0x40, 0x81, 0x0A, 0xB5, 0x07, 0x41, 0x68, 0xB5, 0x07, 0x42, 0x21, 0xB5, 0x07, 0x43, 0x69, 0xB5, 0x07, 0x44, 0x46, 0xB5, 0x07, 0x45, 0x45, 0xB5, 0x07, 0x46, 0x81, 0x70, 0xB5, 0x07, 0x47, 0x68, 0xB5, 0x07, 0x48, 0x67, 0xB5, 0x07, 0x49, 0x81, 0x2C, 0xB5, 0x07, 0x4A, 0x81, 0x2B, 0xB5, 0x07, 0x4B, 0x68, 0xB5, 0x07, 0x4C, 0x46, 0xB5, 0x07, 0x4D, 0x67, 0xB5, 0x07, 0x4E, 0x67, 0xB5, 
	0x07, 0x4F, 0x81, 0x2C, 0xB5, 0x07, 0x50, 0x87, 0x7E, 0x85, 0x5D, 0x5A, 0x00, 0x85, 0x51, 0x7F, 0x00, 0x95, 0x4A, 0x67, 0x8E, 0x44, 0x85, 0x4A, 0x7F, 0x00, 0x95, 0x49, 0x60, 0x8F, 0x00, 0x85, 0x49, 0x78, 0x00, 0x95, 0x47, 0x63, 0x8F, 0x78, 0x85, 0x47, 0x7F, 0x00, 0x95, 0x45, 0x65, 0x8E, 0x44, 0x85, 0x45, 0x7F, 0x00, 0x95, 0x43, 0x63, 0x8F, 0x00, 0x85, 0x43, 0x60, 0x00, 0x95, 0x45, 
	0x69, 0x8F, 0x00, 0x85, 0x45, 0x78, 0x00, 0x95, 0x4A, 0x60, 0x9E, 0x00, 0x85, 0x4A, 0x7F, 0x00, 0x95, 0x3E, 0x61, 0x85, 0x50, 0x85, 0x3E, 0x7F, 0x00, 0x95, 0x3D, 0x63, 0x89, 0x30, 0x85, 0x3D, 0x7F, 0x00, 0x95, 0x3B, 0x61, 0x85, 0x50, 0x85, 0x3B, 0x78, 0x00, 0x95, 0x3D, 0x63, 0x89, 0x30, 0x85, 0x3D, 0x7F, 0x00, 0x95, 0x3E, 0x63, 0x85, 0x50, 0x85, 0x3E, 0x7F, 0x00, 0x95, 0x3D, 0x5A, 
	0x87, 0x40, 0x85, 0x3D, 0x19, 0x00, 0x95, 0x3E, 0x62, 0x9E, 0x00, 0x85, 0x3E, 0x7F, 0x00, 0x95, 0x40, 0x65, 0x8F, 0x00, 0x85, 0x40, 0x7F, 0x00, 0x95, 0x51, 0x73, 0x00, 0x95, 0x45, 0x6C, 0x83, 0x60, 0x85, 0x51, 0x53, 0x00, 0x85, 0x45, 0x7F, 0x81, 0x70, 0x95, 0x4F, 0x6B, 0x00, 0x95, 0x43, 0x6A, 0x78, 0x85, 0x4F, 0x5D, 0x00, 0x85, 0x43, 0x7F, 0x82, 0x68, 0x95, 0x4E, 0x6B, 0x00, 0x95, 
	0x42, 0x6B, 0x78, 0x85, 0x4E, 0x64, 0x00, 0x85, 0x42, 0x73, 0x82, 0x68, 0x95, 0x40, 0x6B, 0x00, 0x95, 0x4C, 0x6B, 0x78, 0x85, 0x40, 0x36, 0x00, 0x85, 0x4C, 0x5A, 0x84, 0x80, 0x68, 0x95, 0x4A, 0x73, 0x00, 0x95, 0x3E, 0x6D, 0x81, 0x16, 0x85, 0x4A, 0x7F, 0x00, 0x85, 0x3E, 0x60, 0x82, 0x4A, 0x95, 0x4A, 0x73, 0x00, 0x95, 0x3E, 0x6C, 0x81, 0x16, 0x85, 0x4A, 0x5D, 0x00, 0x85, 0x3E, 0x13, 
	0x82, 0x4A, 0x95, 0x3E, 0x6B, 0x00, 0x95, 0x4A, 0x6D, 0x81, 0x16, 0x85, 0x3E, 0x66, 0x00, 0x85, 0x4A, 0x64, 0x82, 0x4A, 0x95, 0x3E, 0x6B, 0x00, 0x95, 0x4A, 0x73, 0x81, 0x16, 0x85, 0x3E, 0x57, 0x00, 0x85, 0x4A, 0x64, 0x82, 0x4A, 0x95, 0x49, 0x6A, 0x00, 0x95, 0x3D, 0x6B, 0x81, 0x16, 0x85, 0x49, 0x62, 0x00, 0x85, 0x3D, 0x6B, 0x82, 0x4A, 0x95, 0x3D, 0x69, 0x00, 0x95, 0x49, 0x66, 0x81, 
	0x16, 0x85, 0x3D, 0x53, 0x00, 0x85, 0x49, 0x7F, 0x82, 0x4A, 0x95, 0x3D, 0x68, 0x00, 0x95, 0x49, 0x67, 0x81, 0x16, 0x85, 0x3D, 0x5C, 0x00, 0x85, 0x49, 0x78, 0x82, 0x4A, 0x95, 0x3D, 0x68, 0x00, 0x95, 0x49, 0x67, 0x81, 0x16, 0x85, 0x3D, 0x5E, 0x00, 0x85, 0x49, 0x41, 0x82, 0x4A, 0x95, 0x3E, 0x69, 0x00, 0x95, 0x4A, 0x6A, 0x81, 0x16, 0x85, 0x3E, 0x51, 0x00, 0x85, 0x4A, 0x78, 0x82, 0x4A, 
	0x95, 0x4A, 0x68, 0x00, 0x95, 0x3E, 0x65, 0x81, 0x16, 0x85, 0x4A, 0x6D, 0x00, 0x85, 0x3E, 0x3F, 0x82, 0x4A, 0x95, 0x3E, 0x68, 0x00, 0x95, 0x4A, 0x6B, 0x81, 0x16, 0x85, 0x3E, 0x01, 0x00, 0x85, 0x4A, 0x66, 0x82, 0x4A, 0x95, 0x4A, 0x6C, 0x00, 0x95, 0x3E, 0x68, 0x81, 0x16, 0x85, 0x4A, 0x6C, 0x00, 0x85, 0x3E, 0x0E, 0x82, 0x4A, 0x95, 0x4A, 0x6B, 0x00, 0x95, 0x3E, 0x68, 0x81, 0x16, 0x85, 
	0x4A, 0x69, 0x00, 0x85, 0x3E, 0x01, 0x82, 0x4A, 0x95, 0x4A, 0x6B, 0x00, 0x95, 0x3E, 0x68, 0x81, 0x16, 0x85, 0x4A, 0x4E, 0x00, 0x85, 0x3E, 0x30, 0x82, 0x4A, 0x95, 0x3E, 0x69, 0x00, 0x95, 0x4A, 0x6C, 0x81, 0x16, 0x85, 0x3E, 0x01, 0x00, 0x85, 0x4A, 0x63, 0x82, 0x4A, 0x95, 0x3E, 0x68, 0x00, 0x95, 0x4A, 0x6A, 0x81, 0x16, 0x85, 0x3E, 0x2F, 0x00, 0x85, 0x4A, 0x78, 0x82, 0x4A, 0x95, 0x3E, 
	0x67, 0x00, 0x95, 0x4A, 0x6C, 0x81, 0x16, 0x85, 0x3E, 0x01, 0x00, 0x85, 0x4A, 0x6A, 0x82, 0x4A, 0x95, 0x4A, 0x69, 0x00, 0x95, 0x3E, 0x68, 0x81, 0x16, 0x85, 0x4A, 0x7F, 0x00, 0x85, 0x3E, 0x19, 0x82, 0x4A, 0x95, 0x4A, 0x6D, 0x00, 0x95, 0x3E, 0x67, 0x81, 0x16, 0x85, 0x4A, 0x69, 0x00, 0x85, 0x3E, 0x01, 0x82, 0x4A, 0x95, 0x4A, 0x6B, 0x00, 0x95, 0x3E, 0x67, 0x81, 0x16, 0x85, 0x4A, 0x73, 
	0x00, 0x85, 0x3E, 0x01, 0x82, 0x4A, 0x95, 0x3E, 0x69, 0x00, 0x95, 0x4A, 0x6B, 0x81, 0x16, 0x85, 0x3E, 0x17, 0x00, 0x85, 0x4A, 0x66, 0x82, 0x4A, 0x95, 0x4A, 0x69, 0x00, 0x95, 0x3E, 0x65, 0x81, 0x16, 0x85, 0x4A, 0x73, 0x00, 0x85, 0x3E, 0x3B, 0x82, 0x4A, 0x95, 0x4A, 0x69, 0x00, 0x95, 0x3E, 0x67, 0x81, 0x16, 0x85, 0x4A, 0x73, 0x00, 0x85, 0x3E, 0x23, 0x82, 0x4A, 0x95, 0x4A, 0x6D, 0x00, 
	0x95, 0x3E, 0x69, 0x81, 0x16, 0x85, 0x4A, 0x78, 0x00, 0x85, 0x3E, 0x38, 0x82, 0x4A, 0x95, 0x4C, 0x6D, 0x00, 0x95, 0x40, 0x6C, 0x81, 0x16, 0x85, 0x4C, 0x5F, 0x00, 0x85, 0x40, 0x2F, 0x82, 0x4A, 0x95, 0x4C, 0x6D, 0x00, 0x95, 0x40, 0x6A, 0x81, 0x16, 0x85, 0x4C, 0x6D, 0x00, 0x85, 0x40, 0x32, 0x82, 0x4A, 0x95, 0x4C, 0x6C, 0x00, 0x95, 0x40, 0x6B, 0x81, 0x16, 0x85, 0x4C, 0x63, 0x00, 0x85, 
	0x40, 0x2C, 0x82, 0x4A, 0x95, 0x4C, 0x6B, 0x00, 0x95, 0x40, 0x6A, 0x81, 0x16, 0x85, 0x4C, 0x64, 0x00, 0x85, 0x40, 0x01, 0x82, 0x4A, 0x95, 0x4C, 0x73, 0x00, 0x95, 0x40, 0x6C, 0x81, 0x16, 0x85, 0x4C, 0x66, 0x00, 0x85, 0x40, 0x01, 0x82, 0x4A, 0x95, 0x4C, 0x6C, 0x00, 0x95, 0x40, 0x6A, 0x81, 0x16, 0x85, 0x4C, 0x7F, 0x00, 0x85, 0x40, 0x41, 0x82, 0x4A, 0x95, 0x4C, 0x6C, 0x00, 0x95, 0x40, 
	0x6B, 0x81, 0x16, 0x85, 0x4C, 0x64, 0x00, 0x85, 0x40, 0x10, 0x82, 0x4A, 0x95, 0x4C, 0x6D, 0x00, 0x95, 0x40, 0x6B, 0x81, 0x16, 0x85, 0x4C, 0x7F, 0x00, 0x85, 0x40, 0x01, 0x82, 0x4A, 0x95, 0x4A, 0x6D, 0x00, 0x95, 0x3E, 0x6B, 0x81, 0x16, 0x85, 0x4A, 0x6D, 0x00, 0x85, 0x3E, 0x32, 0x82, 0x4A, 0x95, 0x4A, 0x69, 0x00, 0x95, 0x3E, 0x64, 0x81, 0x16, 0x85, 0x4A, 0x7F, 0x00, 0x85, 0x3E, 0x66, 
	0x82, 0x4A, 0x95, 0x4A, 0x6B, 0x00, 0x95, 0x3E, 0x69, 0x81, 0x16, 0x85, 0x4A, 0x63, 0x00, 0x85, 0x3E, 0x01, 0x82, 0x4A, 0x95, 0x3E, 0x6A, 0x00, 0x95, 0x4A, 0x6C, 0x81, 0x16, 0x85, 0x3E, 0x01, 0x00, 0x85, 0x4A, 0x53, 0x82, 0x4A, 0x95, 0x49, 0x67, 0x00, 0x95, 0x3D, 0x67, 0x81, 0x16, 0x85, 0x49, 0x68, 0x00, 0x85, 0x3D, 0x73, 0x82, 0x4A, 0x95, 0x3D, 0x66, 0x00, 0x95, 0x49, 0x65, 0x81, 
	0x16, 0x85, 0x3D, 0x5E, 0x00, 0x85, 0x49, 0x7F, 0x82, 0x4A, 0x95, 0x3D, 0x66, 0x00, 0x95, 0x49, 0x65, 0x81, 0x16, 0x85, 0x3D, 0x5F, 0x00, 0x85, 0x49, 0x78, 0x82, 0x4A, 0x95, 0x49, 0x66, 0x00, 0x95, 0x3D, 0x69, 0x81, 0x16, 0x85, 0x49, 0x78, 0x00, 0x85, 0x3D, 0x49, 0x82, 0x4A, 0x95, 0x4A, 0x6D, 0x00, 0x95, 0x3E, 0x6B, 0x81, 0x16, 0x85, 0x4A, 0x53, 0x00, 0x85, 0x3E, 0x47, 0x82, 0x4A, 
	0x95, 0x4A, 0x6D, 0x00, 0x95, 0x3E, 0x69, 0x81, 0x16, 0x85, 0x4A, 0x48, 0x00, 0x85, 0x3E, 0x04, 0x82, 0x4A, 0x95, 0x3E, 0x67, 0x00, 0x95, 0x4A, 0x6A, 0x81, 0x16, 0x85, 0x3E, 0x29, 0x00, 0x85, 0x4A, 0x78, 0x82, 0x4A, 0x95, 0x3E, 0x6A, 0x00, 0x95, 0x4A, 0x6C, 0x81, 0x16, 0x85, 0x3E, 0x66, 0x00, 0x85, 0x4A, 0x73, 0x82, 0x4A, 0x95, 0x4A, 0x6D, 0x00, 0x95, 0x3E, 0x6B, 0x81, 0x16, 0x85, 
	0x4A, 0x60, 0x00, 0x85, 0x3E, 0x47, 0x82, 0x4A, 0x95, 0x3E, 0x69, 0x00, 0x95, 0x4A, 0x6A, 0x81, 0x16, 0x85, 0x3E, 0x53, 0x00, 0x85, 0x4A, 0x64, 0x82, 0x4A, 0x95, 0x4A, 0x6C, 0x00, 0x95, 0x3E, 0x68, 0x81, 0x16, 0x85, 0x4A, 0x6A, 0x00, 0x85, 0x3E, 0x2F, 0x82, 0x4A, 0x95, 0x4A, 0x6A, 0x00, 0x95, 0x3E, 0x68, 0x81, 0x16, 0x85, 0x4A, 0x5A, 0x00, 0x85, 0x3E, 0x53, 0x82, 0x4A, 0x95, 0x3E, 
	0x69, 0x00, 0x95, 0x4A, 0x6C, 0x81, 0x16, 0x85, 0x3E, 0x7F, 0x00, 0x85, 0x4A, 0x5C, 0x82, 0x4A, 0x95, 0x3E, 0x6A, 0x00, 0x95, 0x4A, 0x6B, 0x81, 0x16, 0x85, 0x3E, 0x7F, 0x00, 0x85, 0x4A, 0x5C, 0x82, 0x4A, 0x95, 0x4A, 0x6B, 0x00, 0x95, 0x3E, 0x68, 0x81, 0x16, 0x85, 0x4A, 0x67, 0x00, 0x85, 0x3E, 0x7F, 0x82, 0x4A, 0x95, 0x4A, 0x6B, 0x00, 0x95, 0x3E, 0x69, 0x81, 0x16, 0x85, 0x4A, 0x78, 
	0x00, 0x85, 0x3E, 0x7F, 0x82, 0x4A, 0x95, 0x40, 0x6C, 0x00, 0x95, 0x4C, 0x6D, 0x81, 0x16, 0x85, 0x40, 0x7F, 0x00, 0x85, 0x4C, 0x7F, 0x8D, 0x6A, 0x95, 0x4A, 0x6C, 0x00, 0x95, 0x3E, 0x6A, 0x81, 0x16, 0x85, 0x4A, 0x51, 0x00, 0x85, 0x3E, 0x59, 0x82, 0x4A, 0x95, 0x4A, 0x6B, 0x00, 0x95, 0x3E, 0x68, 0x81, 0x16, 0x85, 0x4A, 0x7F, 0x00, 0x85, 0x3E, 0x32, 0x82, 0x4A, 0x95, 0x3E, 0x69, 0x00, 
	0x95, 0x4A, 0x6A, 0x81, 0x16, 0x85, 0x3E, 0x41, 0x00, 0x85, 0x4A, 0x78, 0x82, 0x4A, 0x95, 0x3E, 0x69, 0x00, 0x95, 0x4A, 0x6C, 0x81, 0x16, 0x85, 0x3E, 0x5F, 0x00, 0x85, 0x4A, 0x66, 0x82, 0x4A, 0x95, 0x40, 0x6B, 0x00, 0x95, 0x4C, 0x6D, 0x81, 0x16, 0x85, 0x40, 0x39, 0x00, 0x85, 0x4C, 0x6C, 0x82, 0x4A, 0x95, 0x4C, 0x68, 0x00, 0x95, 0x40, 0x64, 0x81, 0x16, 0x85, 0x4C, 0x66, 0x00, 0x85, 
	0x40, 0x01, 0x82, 0x4A, 0x95, 0x4C, 0x68, 0x00, 0x95, 0x40, 0x6A, 0x81, 0x16, 0x85, 0x4C, 0x6C, 0x00, 0x85, 0x40, 0x1C, 0x82, 0x4A, 0x95, 0x4C, 0x6D, 0x00, 0x95, 0x40, 0x6C, 0x81, 0x16, 0x85, 0x4C, 0x78, 0x00, 0x85, 0x40, 0x53, 0xAD, 0x5A, 0x95, 0x3E, 0x5A, 0x00, 0x95, 0x37, 0x5A, 0x9E, 0x00, 0x85, 0x3E, 0x7F, 0x00, 0x85, 0x37, 0x64, 0x00, 0x95, 0x40, 0x5A, 0x00, 0x95, 0x39, 0x5A, 
	0x9F, 0x70, 0x85, 0x40, 0x7F, 0x00, 0x95, 0x43, 0x5A, 0x00, 0x95, 0x3E, 0x5A, 0x78, 0x85, 0x39, 0x5F, 0x96, 0x0A, 0xB5, 0x07, 0x4F, 0x4F, 0xB5, 0x07, 0x4C, 0x50, 0xB5, 0x07, 0x4A, 0x52, 0xB5, 0x07, 0x48, 0x4E, 0xB5, 0x07, 0x46, 0x3C, 0xB5, 0x07, 0x44, 0x81, 0x21, 0xB5, 0x07, 0x42, 0x81, 0x1F, 0xB5, 0x07, 0x3F, 0x27, 0xB5, 0x07, 0x3D, 0x09, 0xB5, 0x07, 0x3A, 0x2C, 0xB5, 0x07, 0x37, 
	0x4F, 0xB5, 0x07, 0x35, 0x77, 0xB5, 0x07, 0x33, 0x81, 0x1D, 0xB5, 0x07, 0x31, 0x7B, 0xB5, 0x07, 0x2F, 0x77, 0xB5, 0x07, 0x2C, 0x4F, 0xB5, 0x07, 0x2A, 0x50, 0xB5, 0x07, 0x27, 0x38, 0xB5, 0x07, 0x24, 0x4D, 0xB5, 0x07, 0x22, 0x52, 0xB5, 0x07, 0x20, 0x13, 0xB5, 0x07, 0x1E, 0x76, 0xB5, 0x07, 0x1C, 0x7A, 0xB5, 0x07, 0x1A, 0x4F, 0xB5, 0x07, 0x17, 0x13, 0xB5, 0x07, 0x15, 0x28, 0xB5, 0x07, 
	0x13, 0x53, 0xB5, 0x07, 0x10, 0x4F, 0xB5, 0x07, 0x0D, 0x77, 0xB5, 0x07, 0x0B, 0x52, 0xB5, 0x07, 0x09, 0x4B, 0xB5, 0x07, 0x06, 0x53, 0xB5, 0x07, 0x03, 0x7C, 0xB5, 0x07, 0x00, 0x0A, 0x85, 0x3E, 0x7F, 0x00, 0x85, 0x43, 0x7F, 0x00, 0xFF, 0x2F, 0x00, 0x4D, 0x54, 0x72, 0x6B, 0x00, 0x00, 0x02, 0x57, 0x00, 0xFF, 0x03, 0x08, 0x49, 0x6E, 0x74, 0x72, 0x6F, 0x20, 0x50, 0x66, 0x14, 0xB6, 0x78, 
	0x00, 0x0A, 0xB6, 0x79, 0x00, 0x28, 0xB6, 0x65, 0x00, 0x1E, 0xB6, 0x64, 0x00, 0x1E, 0xB6, 0x06, 0x02, 0x1E, 0xB6, 0x65, 0x7F, 0x1E, 0xB6, 0x64, 0x7F, 0x0A, 0xC6, 0x01, 0x14, 0xE6, 0x00, 0x40, 0x0A, 0xB6, 0x01, 0x00, 0x0A, 0xB6, 0x07, 0x5A, 0x14, 0xB6, 0x0B, 0x64, 0x0A, 0xB6, 0x5B, 0x50, 0x0A, 0xB6, 0x5D, 0x00, 0x14, 0xB6, 0x0A, 0x14, 0x81, 0xB5, 0x34, 0x96, 0x4E, 0x6A, 0x81, 0x70, 
	0x86, 0x4E, 0x73, 0x00, 0x96, 0x4F, 0x67, 0x81, 0x70, 0x86, 0x4F, 0x38, 0x00, 0x96, 0x51, 0x69, 0x81, 0x70, 0x86, 0x51, 0x7F, 0x00, 0x96, 0x51, 0x6A, 0x83, 0x60, 0x86, 0x51, 0x4D, 0x00, 0x96, 0x4F, 0x6A, 0x81, 0x70, 0x86, 0x4F, 0x50, 0x00, 0x96, 0x4E, 0x64, 0x81, 0x70, 0x86, 0x4E, 0x7F, 0x00, 0x96, 0x4C, 0x68, 0x81, 0x70, 0x86, 0x4C, 0x7F, 0x00, 0x96, 0x4A, 0x6A, 0x81, 0x70, 0x86, 
	0x4A, 0x73, 0x00, 0x96, 0x49, 0x67, 0x81, 0x70, 0x86, 0x49, 0x38, 0x00, 0x96, 0x4A, 0x69, 0x81, 0x70, 0x86, 0x4A, 0x7F, 0x00, 0x96, 0x51, 0x6A, 0x85, 0x50, 0x86, 0x51, 0x4D, 0x00, 0x96, 0x4C, 0x64, 0x83, 0x60, 0x86, 0x4C, 0x7F, 0x00, 0x96, 0x4E, 0x6A, 0x81, 0x70, 0x86, 0x4E, 0x73, 0x00, 0x96, 0x4F, 0x67, 0x81, 0x70, 0x86, 0x4F, 0x38, 0x00, 0x96, 0x51, 0x69, 0x81, 0x70, 0x86, 0x51, 
	0x7F, 0x00, 0x96, 0x51, 0x6A, 0x83, 0x60, 0x86, 0x51, 0x4D, 0x00, 0x96, 0x4F, 0x6A, 0x81, 0x70, 0x86, 0x4F, 0x50, 0x00, 0x96, 0x4E, 0x64, 0x81, 0x70, 0x86, 0x4E, 0x7F, 0x00, 0x96, 0x4F, 0x68, 0x90, 0x70, 0x86, 0x4F, 0x7F, 0x86, 0x9B, 0x00, 0x96, 0x4E, 0x6A, 0x81, 0x70, 0x86, 0x4E, 0x73, 0x00, 0x96, 0x4F, 0x67, 0x81, 0x70, 0x86, 0x4F, 0x38, 0x00, 0x96, 0x51, 0x69, 0x81, 0x70, 0x86, 
	0x51, 0x7F, 0x00, 0x96, 0x51, 0x6A, 0x83, 0x60, 0x86, 0x51, 0x4D, 0x00, 0x96, 0x4F, 0x6A, 0x81, 0x70, 0x86, 0x4F, 0x50, 0x00, 0x96, 0x4E, 0x64, 0x81, 0x70, 0x86, 0x4E, 0x7F, 0x00, 0x96, 0x4C, 0x68, 0x81, 0x70, 0x86, 0x4C, 0x7F, 0x00, 0x96, 0x4A, 0x6A, 0x81, 0x70, 0x86, 0x4A, 0x73, 0x00, 0x96, 0x49, 0x67, 0x81, 0x70, 0x86, 0x49, 0x38, 0x00, 0x96, 0x4A, 0x69, 0x81, 0x70, 0x86, 0x4A, 
	0x7F, 0x00, 0x96, 0x51, 0x6A, 0x85, 0x50, 0x86, 0x51, 0x4D, 0x00, 0x96, 0x4C, 0x64, 0x83, 0x60, 0x86, 0x4C, 0x7F, 0x00, 0x96, 0x4E, 0x6A, 0x81, 0x70, 0x86, 0x4E, 0x73, 0x00, 0x96, 0x4F, 0x67, 0x81, 0x70, 0x86, 0x4F, 0x38, 0x00, 0x96, 0x51, 0x69, 0x81, 0x70, 0x86, 0x51, 0x7F, 0x00, 0x96, 0x51, 0x6A, 0x83, 0x60, 0x86, 0x51, 0x4D, 0x00, 0x96, 0x4F, 0x6A, 0x81, 0x70, 0x86, 0x4F, 0x50, 
	0x00, 0x96, 0x4E, 0x64, 0x81, 0x70, 0x86, 0x4E, 0x7F, 0x00, 0x96, 0x4F, 0x68, 0x90, 0x70, 0x86, 0x4F, 0x7F, 0xAD, 0x00, 0xB6, 0x07, 0x64, 0x32, 0xB6, 0x07, 0x62, 0x67, 0xB6, 0x07, 0x5F, 0x81, 0x46, 0xB6, 0x07, 0x5D, 0x77, 0xB6, 0x07, 0x5B, 0x6B, 0xB6, 0x07, 0x59, 0x81, 0x6D, 0xB6, 0x07, 0x57, 0x6F, 0xB6, 0x07, 0x54, 0x15, 0xB6, 0x07, 0x52, 0x50, 0xB6, 0x07, 0x4F, 0x4F, 0xB6, 0x07, 
	0x4C, 0x50, 0xB6, 0x07, 0x4A, 0x52, 0xB6, 0x07, 0x48, 0x4E, 0xB6, 0x07, 0x46, 0x3C, 0xB6, 0x07, 0x44, 0x81, 0x21, 0xB6, 0x07, 0x42, 0x81, 0x1F, 0xB6, 0x07, 0x3F, 0x27, 0xB6, 0x07, 0x3D, 0x09, 0xB6, 0x07, 0x3A, 0x2C, 0xB6, 0x07, 0x37, 0x4F, 0xB6, 0x07, 0x35, 0x77, 0xB6, 0x07, 0x33, 0x81, 0x1D, 0xB6, 0x07, 0x31, 0x7B, 0xB6, 0x07, 0x2F, 0x77, 0xB6, 0x07, 0x2C, 0x4F, 0xB6, 0x07, 0x2A, 
	0x50, 0xB6, 0x07, 0x27, 0x38, 0xB6, 0x07, 0x24, 0x4D, 0xB6, 0x07, 0x22, 0x52, 0xB6, 0x07, 0x20, 0x13, 0xB6, 0x07, 0x1E, 0x76, 0xB6, 0x07, 0x1C, 0x7A, 0xB6, 0x07, 0x1A, 0x4F, 0xB6, 0x07, 0x17, 0x13, 0xB6, 0x07, 0x15, 0x28, 0xB6, 0x07, 0x13, 0x53, 0xB6, 0x07, 0x10, 0x4F, 0xB6, 0x07, 0x0D, 0x77, 0xB6, 0x07, 0x0B, 0x52, 0xB6, 0x07, 0x09, 0x4B, 0xB6, 0x07, 0x06, 0x53, 0xB6, 0x07, 0x03, 
	0x7C, 0xB6, 0x07, 0x00, 0x00, 0xFF, 0x2F, 0x00, 0x4D, 0x54, 0x72, 0x6B, 0x00, 0x00, 0x05, 0xC8, 0x00, 0xFF, 0x03, 0x04, 0x42, 0x65, 0x6C, 0x6C, 0x14, 0xB7, 0x78, 0x00, 0x0A, 0xB7, 0x79, 0x00, 0x28, 0xB7, 0x65, 0x00, 0x1E, 0xB7, 0x64, 0x00, 0x1E, 0xB7, 0x06, 0x02, 0x1E, 0xB7, 0x65, 0x7F, 0x1E, 0xB7, 0x64, 0x7F, 0x0A, 0xC7, 0x58, 0x14, 0xE7, 0x00, 0x40, 0x0A, 0xB7, 0x01, 0x00, 0x0A, 
	0xB7, 0x07, 0x64, 0x14, 0xB7, 0x0B, 0x64, 0x0A, 0xB7, 0x5B, 0x3C, 0x0A, 0xB7, 0x5D, 0x00, 0x14, 0xB7, 0x0A, 0x1E, 0xB7, 0x64, 0x97, 0x4C, 0x64, 0x81, 0x70, 0x87, 0x4C, 0x61, 0x00, 0x97, 0x4A, 0x64, 0x81, 0x70, 0x87, 0x4A, 0x7F, 0x00, 0x97, 0x4C, 0x64, 0x81, 0x70, 0x87, 0x4C, 0x7F, 0x00, 0x97, 0x4E, 0x64, 0x85, 0x50, 0x87, 0x4E, 0x01, 0x00, 0x97, 0x45, 0x64, 0x85, 0x50, 0x87, 0x45, 
	0x5C, 0x00, 0x97, 0x45, 0x64, 0x83, 0x60, 0x87, 0x45, 0x6D, 0x00, 0x97, 0x46, 0x64, 0x83, 0x60, 0x87, 0x46, 0x7F, 0x00, 0x97, 0x46, 0x64, 0x81, 0x70, 0x87, 0x46, 0x7F, 0x00, 0x97, 0x4E, 0x64, 0x83, 0x60, 0x87, 0x4E, 0x69, 0x00, 0x97, 0x4C, 0x64, 0x83, 0x60, 0x87, 0x4C, 0x7F, 0x00, 0x97, 0x4E, 0x64, 0x81, 0x70, 0x87, 0x4E, 0x7F, 0x00, 0x97, 0x4A, 0x64, 0x8F, 0x00, 0x87, 0x4A, 0x7F, 
	0x89, 0x30, 0x97, 0x4A, 0x64, 0x81, 0x70, 0x87, 0x4A, 0x7F, 0x00, 0x97, 0x4C, 0x64, 0x81, 0x70, 0x87, 0x4C, 0x7F, 0x00, 0x97, 0x4E, 0x64, 0x81, 0x70, 0x87, 0x4E, 0x66, 0x00, 0x97, 0x51, 0x64, 0x83, 0x60, 0x87, 0x51, 0x73, 0x00, 0x97, 0x53, 0x64, 0x81, 0x70, 0x87, 0x53, 0x73, 0x00, 0x97, 0x4A, 0x64, 0x83, 0x60, 0x87, 0x4A, 0x73, 0x81, 0x70, 0x97, 0x53, 0x64, 0x83, 0x60, 0x87, 0x53, 
	0x7F, 0x00, 0x97, 0x51, 0x64, 0x83, 0x60, 0x87, 0x51, 0x7F, 0x00, 0x97, 0x4F, 0x64, 0x83, 0x60, 0x87, 0x4F, 0x4E, 0x00, 0x97, 0x4E, 0x64, 0x82, 0x68, 0x87, 0x4E, 0x7F, 0x00, 0x97, 0x4C, 0x64, 0x82, 0x68, 0x87, 0x4C, 0x66, 0x00, 0x97, 0x4E, 0x64, 0x81, 0x70, 0x87, 0x4E, 0x7F, 0x00, 0x97, 0x4A, 0x64, 0x8E, 0x08, 0x87, 0x4A, 0x56, 0x8F, 0x78, 0x97, 0x4E, 0x6A, 0x81, 0x70, 0x87, 0x4E, 
	0x73, 0x00, 0x97, 0x4F, 0x67, 0x81, 0x70, 0x87, 0x4F, 0x38, 0x00, 0x97, 0x51, 0x69, 0x81, 0x70, 0x87, 0x51, 0x7F, 0x00, 0x97, 0x51, 0x6A, 0x83, 0x60, 0x87, 0x51, 0x4D, 0x00, 0x97, 0x4F, 0x6A, 0x81, 0x70, 0x87, 0x4F, 0x50, 0x00, 0x97, 0x4E, 0x64, 0x81, 0x70, 0x87, 0x4E, 0x7F, 0x00, 0x97, 0x4C, 0x68, 0x81, 0x70, 0x87, 0x4C, 0x7F, 0x00, 0x97, 0x4A, 0x6A, 0x81, 0x70, 0x87, 0x4A, 0x73, 
	0x00, 0x97, 0x49, 0x67, 0x81, 0x70, 0x87, 0x49, 0x38, 0x00, 0x97, 0x4A, 0x69, 0x81, 0x70, 0x87, 0x4A, 0x7F, 0x00, 0x97, 0x51, 0x6A, 0x85, 0x50, 0x87, 0x51, 0x4D, 0x00, 0x97, 0x4C, 0x64, 0x83, 0x60, 0x87, 0x4C, 0x7F, 0x00, 0x97, 0x4E, 0x6A, 0x81, 0x70, 0x87, 0x4E, 0x73, 0x00, 0x97, 0x4F, 0x67, 0x81, 0x70, 0x87, 0x4F, 0x38, 0x00, 0x97, 0x51, 0x69, 0x81, 0x70, 0x87, 0x51, 0x7F, 0x00, 
	0x97, 0x51, 0x6A, 0x83, 0x60, 0x87, 0x51, 0x4D, 0x00, 0x97, 0x4F, 0x6A, 0x81, 0x70, 0x87, 0x4F, 0x50, 0x00, 0x97, 0x4E, 0x64, 0x81, 0x70, 0x87, 0x4E, 0x7F, 0x00, 0x97, 0x4F, 0x68, 0x90, 0x70, 0x87, 0x4F, 0x7F, 0x81, 0x9D, 0x40, 0x97, 0x4E, 0x64, 0x78, 0x87, 0x4E, 0x60, 0x82, 0x68, 0x97, 0x4F, 0x64, 0x78, 0x87, 0x4F, 0x7F, 0x82, 0x68, 0x97, 0x51, 0x64, 0x00, 0x97, 0x4A, 0x50, 0x00, 
	0x97, 0x47, 0x50, 0x78, 0x87, 0x51, 0x3F, 0x00, 0x87, 0x47, 0x38, 0x00, 0x87, 0x4A, 0x59, 0x8C, 0x18, 0x97, 0x4C, 0x64, 0x00, 0x97, 0x49, 0x50, 0x00, 0x97, 0x45, 0x50, 0x78, 0x87, 0x4C, 0x78, 0x00, 0x87, 0x45, 0x38, 0x00, 0x87, 0x49, 0x78, 0x8F, 0x78, 0x97, 0x4E, 0x64, 0x00, 0x97, 0x49, 0x50, 0x00, 0x97, 0x45, 0x50, 0x78, 0x87, 0x4E, 0x2E, 0x00, 0x87, 0x45, 0x1A, 0x00, 0x87, 0x49, 
	0x38, 0x88, 0x38, 0x97, 0x51, 0x64, 0x78, 0x87, 0x51, 0x7F, 0x82, 0x68, 0x97, 0x4A, 0x64, 0x00, 0x97, 0x47, 0x50, 0x00, 0x97, 0x42, 0x50, 0x78, 0x87, 0x4A, 0x78, 0x00, 0x87, 0x42, 0x53, 0x00, 0x87, 0x47, 0x5D, 0xAC, 0x08, 0x97, 0x4C, 0x64, 0x78, 0x87, 0x4C, 0x5D, 0x84, 0x58, 0x97, 0x4E, 0x65, 0x78, 0x87, 0x4E, 0x44, 0x78, 0x97, 0x4A, 0x5E, 0x78, 0x87, 0x4A, 0x63, 0x82, 0x85, 0x48, 
	0x97, 0x56, 0x50, 0x78, 0x87, 0x56, 0x67, 0x82, 0x68, 0x97, 0x4A, 0x50, 0x78, 0x87, 0x4A, 0x78, 0x78, 0x97, 0x51, 0x50, 0x78, 0x87, 0x51, 0x5D, 0x78, 0x97, 0x4A, 0x50, 0x78, 0x87, 0x4A, 0x6D, 0x78, 0x97, 0x56, 0x50, 0x78, 0x87, 0x56, 0x63, 0x78, 0x97, 0x4A, 0x50, 0x78, 0x87, 0x4A, 0x3B, 0x78, 0x97, 0x51, 0x50, 0x78, 0x87, 0x51, 0x5A, 0x78, 0x97, 0x4A, 0x50, 0x78, 0x87, 0x4A, 0x7F, 
	0x8F, 0x78, 0x97, 0x4A, 0x64, 0x00, 0x97, 0x4E, 0x64, 0x78, 0x87, 0x4A, 0x7F, 0x00, 0x87, 0x4E, 0x4D, 0x84, 0x58, 0x97, 0x45, 0x64, 0x00, 0x97, 0x42, 0x64, 0x78, 0x87, 0x45, 0x64, 0x00, 0x87, 0x42, 0x53, 0x88, 0x38, 0x97, 0x46, 0x64, 0x00, 0x97, 0x42, 0x64, 0x78, 0x87, 0x46, 0x7F, 0x00, 0x87, 0x42, 0x4D, 0x84, 0x58, 0x97, 0x49, 0x64, 0x00, 0x97, 0x4E, 0x64, 0x78, 0x87, 0x49, 0x5E, 
	0x00, 0x87, 0x4E, 0x58, 0x88, 0x38, 0x97, 0x47, 0x64, 0x00, 0x97, 0x4A, 0x64, 0x78, 0x87, 0x47, 0x33, 0x00, 0x87, 0x4A, 0x50, 0x8A, 0x28, 0x97, 0x53, 0x64, 0x78, 0x87, 0x53, 0x63, 0x82, 0x68, 0x97, 0x4A, 0x64, 0x00, 0x97, 0x4E, 0x64, 0x78, 0x87, 0x4A, 0x39, 0x00, 0x87, 0x4E, 0x3B, 0x84, 0x62, 0x97, 0x4A, 0x64, 0x78, 0x87, 0x4A, 0x7F, 0x88, 0x2E, 0x97, 0x51, 0x64, 0x78, 0x87, 0x51, 
	0x69, 0x82, 0x68, 0x97, 0x53, 0x64, 0x78, 0x87, 0x53, 0x10, 0x78, 0x97, 0x4A, 0x64, 0x78, 0x87, 0x4A, 0x73, 0x88, 0x38, 0x97, 0x51, 0x64, 0x78, 0x87, 0x51, 0x56, 0x82, 0x68, 0x97, 0x53, 0x64, 0x78, 0x87, 0x53, 0x6A, 0x78, 0x97, 0x4A, 0x64, 0x78, 0x87, 0x4A, 0x7F, 0x88, 0x38, 0x97, 0x4C, 0x64, 0x00, 0x97, 0x4F, 0x64, 0x78, 0x87, 0x4C, 0x20, 0x00, 0x87, 0x4F, 0x4E, 0x8C, 0x18, 0x97, 
	0x4C, 0x64, 0x00, 0x97, 0x49, 0x64, 0x78, 0x87, 0x4C, 0x57, 0x00, 0x87, 0x49, 0x3B, 0x87, 0x40, 0x97, 0x49, 0x64, 0x00, 0x97, 0x45, 0x64, 0x78, 0x87, 0x49, 0x7F, 0x00, 0x87, 0x45, 0x69, 0x87, 0x40, 0x97, 0x4A, 0x64, 0x00, 0x97, 0x4E, 0x64, 0x78, 0x87, 0x4A, 0x7F, 0x00, 0x87, 0x4E, 0x4D, 0x84, 0x58, 0x97, 0x45, 0x64, 0x00, 0x97, 0x42, 0x64, 0x78, 0x87, 0x45, 0x64, 0x00, 0x87, 0x42, 
	0x53, 0x88, 0x38, 0x97, 0x46, 0x64, 0x00, 0x97, 0x42, 0x64, 0x78, 0x87, 0x46, 0x7F, 0x00, 0x87, 0x42, 0x4D, 0x84, 0x58, 0x97, 0x49, 0x64, 0x00, 0x97, 0x4E, 0x64, 0x78, 0x87, 0x49, 0x5E, 0x00, 0x87, 0x4E, 0x58, 0x88, 0x38, 0x97, 0x47, 0x64, 0x00, 0x97, 0x4A, 0x64, 0x78, 0x87, 0x47, 0x33, 0x00, 0x87, 0x4A, 0x50, 0x8A, 0x28, 0x97, 0x53, 0x64, 0x78, 0x87, 0x53, 0x63, 0x82, 0x68, 0x97, 
	0x4A, 0x64, 0x00, 0x97, 0x4E, 0x64, 0x78, 0x87, 0x4A, 0x39, 0x00, 0x87, 0x4E, 0x3B, 0x84, 0x62, 0x97, 0x4A, 0x64, 0x78, 0x87, 0x4A, 0x7F, 0x88, 0x2E, 0x97, 0x51, 0x64, 0x78, 0x87, 0x51, 0x69, 0x82, 0x68, 0x97, 0x53, 0x64, 0x78, 0x87, 0x53, 0x10, 0x78, 0x97, 0x4A, 0x64, 0x78, 0x87, 0x4A, 0x73, 0x88, 0x38, 0x97, 0x4C, 0x64, 0x00, 0x97, 0x51, 0x64, 0x78, 0x87, 0x4C, 0x42, 0x00, 0x87, 
	0x51, 0x16, 0x8E, 0x08, 0x97, 0x4A, 0x64, 0x00, 0x97, 0x46, 0x64, 0x78, 0x87, 0x4A, 0x59, 0x00, 0x87, 0x46, 0x35, 0x8A, 0x28, 0x97, 0x4D, 0x64, 0x78, 0x87, 0x4D, 0x7F, 0x82, 0x68, 0x97, 0x4C, 0x64, 0x00, 0x97, 0x48, 0x64, 0x78, 0x87, 0x4C, 0x7F, 0x00, 0x87, 0x48, 0x4E, 0x8A, 0x28, 0x97, 0x4F, 0x64, 0x78, 0x87, 0x4F, 0x73, 0x82, 0x68, 0x97, 0x4E, 0x6A, 0x81, 0x70, 0x87, 0x4E, 0x73, 
	0x00, 0x97, 0x4F, 0x67, 0x81, 0x70, 0x87, 0x4F, 0x38, 0x00, 0x97, 0x51, 0x69, 0x81, 0x70, 0x87, 0x51, 0x7F, 0x00, 0x97, 0x51, 0x6A, 0x83, 0x60, 0x87, 0x51, 0x4D, 0x00, 0x97, 0x4F, 0x6A, 0x81, 0x70, 0x87, 0x4F, 0x50, 0x00, 0x97, 0x4E, 0x64, 0x81, 0x70, 0x87, 0x4E, 0x7F, 0x00, 0x97, 0x4C, 0x68, 0x81, 0x70, 0x87, 0x4C, 0x7F, 0x00, 0x97, 0x4A, 0x6A, 0x81, 0x70, 0x87, 0x4A, 0x73, 0x00, 
	0x97, 0x49, 0x67, 0x81, 0x70, 0x87, 0x49, 0x38, 0x00, 0x97, 0x4A, 0x69, 0x81, 0x70, 0x87, 0x4A, 0x7F, 0x00, 0x97, 0x51, 0x6A, 0x85, 0x50, 0x87, 0x51, 0x4D, 0x00, 0x97, 0x4C, 0x64, 0x83, 0x60, 0x87, 0x4C, 0x7F, 0x00, 0x97, 0x4E, 0x6A, 0x81, 0x70, 0x87, 0x4E, 0x73, 0x00, 0x97, 0x4F, 0x67, 0x81, 0x70, 0x87, 0x4F, 0x38, 0x00, 0x97, 0x51, 0x69, 0x81, 0x70, 0x87, 0x51, 0x7F, 0x00, 0x97, 
	0x51, 0x6A, 0x83, 0x60, 0x87, 0x51, 0x4D, 0x00, 0x97, 0x4F, 0x6A, 0x81, 0x70, 0x87, 0x4F, 0x50, 0x00, 0x97, 0x4E, 0x64, 0x81, 0x70, 0x87, 0x4E, 0x7F, 0x00, 0x97, 0x4F, 0x68, 0x90, 0x70, 0x87, 0x4F, 0x7F, 0xAD, 0x00, 0xB7, 0x07, 0x64, 0x32, 0xB7, 0x07, 0x62, 0x67, 0xB7, 0x07, 0x5F, 0x81, 0x46, 0xB7, 0x07, 0x5D, 0x77, 0xB7, 0x07, 0x5B, 0x6B, 0xB7, 0x07, 0x59, 0x81, 0x6D, 0xB7, 0x07, 
	0x57, 0x6F, 0xB7, 0x07, 0x54, 0x15, 0xB7, 0x07, 0x52, 0x50, 0xB7, 0x07, 0x4F, 0x4F, 0xB7, 0x07, 0x4C, 0x50, 0xB7, 0x07, 0x4A, 0x52, 0xB7, 0x07, 0x48, 0x4E, 0xB7, 0x07, 0x46, 0x3C, 0xB7, 0x07, 0x44, 0x81, 0x21, 0xB7, 0x07, 0x42, 0x81, 0x1F, 0xB7, 0x07, 0x3F, 0x27, 0xB7, 0x07, 0x3D, 0x09, 0xB7, 0x07, 0x3A, 0x2C, 0xB7, 0x07, 0x37, 0x4F, 0xB7, 0x07, 0x35, 0x77, 0xB7, 0x07, 0x33, 0x81, 
	0x1D, 0xB7, 0x07, 0x31, 0x7B, 0xB7, 0x07, 0x2F, 0x77, 0xB7, 0x07, 0x2C, 0x4F, 0xB7, 0x07, 0x2A, 0x50, 0xB7, 0x07, 0x27, 0x38, 0xB7, 0x07, 0x24, 0x4D, 0xB7, 0x07, 0x22, 0x52, 0xB7, 0x07, 0x20, 0x13, 0xB7, 0x07, 0x1E, 0x76, 0xB7, 0x07, 0x1C, 0x7A, 0xB7, 0x07, 0x1A, 0x4F, 0xB7, 0x07, 0x17, 0x13, 0xB7, 0x07, 0x15, 0x28, 0xB7, 0x07, 0x13, 0x53, 0xB7, 0x07, 0x10, 0x4F, 0xB7, 0x07, 0x0D, 
	0x77, 0xB7, 0x07, 0x0B, 0x52, 0xB7, 0x07, 0x09, 0x4B, 0xB7, 0x07, 0x06, 0x53, 0xB7, 0x07, 0x03, 0x7C, 0xB7, 0x07, 0x00, 0x00, 0xFF, 0x2F, 0x00, 0x4D, 0x54, 0x72, 0x6B, 0x00, 0x00, 0x03, 0x8E, 0x00, 0xFF, 0x03, 0x03, 0x70, 0x61, 0x64, 0x14, 0xB8, 0x78, 0x00, 0x0A, 0xB8, 0x79, 0x00, 0x28, 0xB8, 0x65, 0x00, 0x1E, 0xB8, 0x64, 0x00, 0x1E, 0xB8, 0x06, 0x02, 0x1E, 0xB8, 0x65, 0x7F, 0x1E, 
	0xB8, 0x64, 0x7F, 0x0A, 0xC8, 0x32, 0x14, 0xE8, 0x00, 0x40, 0x0A, 0xB8, 0x01, 0x00, 0x0A, 0xB8, 0x07, 0x50, 0x14, 0xB8, 0x0B, 0x64, 0x0A, 0xB8, 0x5B, 0x6E, 0x0A, 0xB8, 0x5D, 0x00, 0x14, 0xB8, 0x0A, 0x40, 0x81, 0x34, 0x98, 0x40, 0x62, 0x00, 0x98, 0x3E, 0x65, 0x00, 0x98, 0x39, 0x61, 0x00, 0x98, 0x2D, 0x5A, 0x00, 0xB8, 0x07, 0x1E, 0x87, 0x32, 0xB8, 0x07, 0x23, 0x81, 0x09, 0xB8, 0x07, 
	0x24, 0x81, 0x2C, 0xB8, 0x07, 0x25, 0x82, 0x34, 0xB8, 0x07, 0x26, 0x81, 0x0A, 0xB8, 0x07, 0x27, 0x45, 0xB8, 0x07, 0x29, 0x23, 0xB8, 0x07, 0x2A, 0x25, 0xB8, 0x07, 0x2B, 0x43, 0xB8, 0x07, 0x2C, 0x81, 0x0B, 0xB8, 0x07, 0x2D, 0x46, 0xB8, 0x07, 0x2E, 0x22, 0xB8, 0x07, 0x2F, 0x47, 0xB8, 0x07, 0x30, 0x22, 0xB8, 0x07, 0x31, 0x46, 0xB8, 0x07, 0x32, 0x46, 0xB8, 0x07, 0x33, 0x81, 0x4D, 0xB8, 
	0x07, 0x34, 0x82, 0x12, 0xB8, 0x07, 0x36, 0x81, 0x4E, 0xB8, 0x07, 0x37, 0x68, 0xB8, 0x07, 0x38, 0x81, 0x2B, 0xB8, 0x07, 0x3A, 0x81, 0x2C, 0xB8, 0x07, 0x3B, 0x82, 0x34, 0xB8, 0x07, 0x3C, 0x82, 0x57, 0xB8, 0x07, 0x3D, 0x45, 0xB8, 0x07, 0x3E, 0x81, 0x4E, 0xB8, 0x07, 0x3F, 0x82, 0x56, 0xB8, 0x07, 0x40, 0x81, 0x0A, 0xB8, 0x07, 0x41, 0x68, 0xB8, 0x07, 0x42, 0x21, 0xB8, 0x07, 0x43, 0x69, 
	0xB8, 0x07, 0x44, 0x46, 0xB8, 0x07, 0x45, 0x45, 0xB8, 0x07, 0x46, 0x81, 0x70, 0xB8, 0x07, 0x47, 0x68, 0xB8, 0x07, 0x48, 0x67, 0xB8, 0x07, 0x49, 0x81, 0x2C, 0xB8, 0x07, 0x4A, 0x81, 0x2B, 0xB8, 0x07, 0x4B, 0x68, 0xB8, 0x07, 0x4C, 0x46, 0xB8, 0x07, 0x4D, 0x67, 0xB8, 0x07, 0x4E, 0x67, 0xB8, 0x07, 0x4F, 0x81, 0x2C, 0xB8, 0x07, 0x50, 0x87, 0x7E, 0x88, 0x40, 0x63, 0x00, 0x88, 0x2D, 0x35, 
	0x00, 0x88, 0x39, 0x22, 0x00, 0x88, 0x3E, 0x73, 0x00, 0x98, 0x42, 0x60, 0x00, 0x98, 0x39, 0x5F, 0x00, 0x98, 0x3E, 0x62, 0x00, 0x98, 0x32, 0x5D, 0x8F, 0x00, 0x88, 0x42, 0x2F, 0x00, 0x88, 0x32, 0x4A, 0x00, 0x88, 0x3E, 0x61, 0x00, 0x88, 0x39, 0x04, 0x00, 0x98, 0x3A, 0x66, 0x00, 0x98, 0x42, 0x63, 0x00, 0x98, 0x3D, 0x62, 0x00, 0x98, 0x31, 0x61, 0x8F, 0x00, 0x88, 0x3A, 0x37, 0x00, 0x88, 
	0x31, 0x2F, 0x00, 0x88, 0x3D, 0x47, 0x00, 0x88, 0x42, 0x16, 0x00, 0x98, 0x42, 0x60, 0x00, 0x98, 0x3B, 0x64, 0x00, 0x98, 0x3E, 0x65, 0x00, 0x98, 0x2F, 0x66, 0x8F, 0x00, 0x88, 0x42, 0x28, 0x00, 0x88, 0x2F, 0x4D, 0x00, 0x88, 0x3E, 0x50, 0x00, 0x88, 0x3B, 0x35, 0x00, 0x98, 0x42, 0x61, 0x00, 0x98, 0x3E, 0x63, 0x00, 0x98, 0x39, 0x5E, 0x00, 0x98, 0x2D, 0x59, 0x8F, 0x00, 0x88, 0x42, 0x01, 
	0x00, 0x88, 0x2D, 0x01, 0x00, 0x88, 0x39, 0x01, 0x00, 0x88, 0x3E, 0x38, 0x00, 0x98, 0x3B, 0x67, 0x00, 0x98, 0x3E, 0x65, 0x00, 0x98, 0x43, 0x65, 0x00, 0x98, 0x2B, 0x5B, 0x8F, 0x00, 0x88, 0x3B, 0x23, 0x00, 0x88, 0x2B, 0x42, 0x00, 0x88, 0x43, 0x2C, 0x00, 0x88, 0x3E, 0x4A, 0x00, 0x98, 0x40, 0x67, 0x00, 0x98, 0x39, 0x63, 0x00, 0x98, 0x3D, 0x62, 0x00, 0x98, 0x2D, 0x5D, 0x8F, 0x00, 0x88, 
	0x40, 0x4D, 0x00, 0x88, 0x2D, 0x01, 0x00, 0x88, 0x3D, 0x49, 0x00, 0x88, 0x39, 0x01, 0x00, 0x98, 0x42, 0x63, 0x00, 0x98, 0x39, 0x60, 0x00, 0x98, 0x3E, 0x62, 0x00, 0x98, 0x32, 0x61, 0x9E, 0x00, 0x88, 0x42, 0x46, 0x00, 0x88, 0x32, 0x78, 0x00, 0x88, 0x3E, 0x5C, 0x00, 0x88, 0x39, 0x45, 0x00, 0x98, 0x42, 0x50, 0x00, 0x98, 0x39, 0x50, 0x00, 0x98, 0x3E, 0x50, 0x85, 0x50, 0x88, 0x42, 0x7F, 
	0x00, 0x88, 0x3E, 0x7F, 0x00, 0x88, 0x39, 0x35, 0x00, 0x98, 0x39, 0x50, 0x00, 0x98, 0x3D, 0x50, 0x00, 0x98, 0x40, 0x50, 0x89, 0x30, 0x88, 0x39, 0x59, 0x00, 0x88, 0x40, 0x7F, 0x00, 0x88, 0x3D, 0x7F, 0x00, 0x98, 0x3E, 0x50, 0x00, 0x98, 0x3B, 0x50, 0x00, 0x98, 0x42, 0x50, 0x85, 0x50, 0x88, 0x3E, 0x7F, 0x00, 0x88, 0x42, 0x7F, 0x00, 0x88, 0x3B, 0x78, 0x00, 0x98, 0x3D, 0x50, 0x00, 0x98, 
	0x39, 0x50, 0x00, 0x98, 0x40, 0x50, 0x89, 0x30, 0x88, 0x3D, 0x7F, 0x00, 0x88, 0x40, 0x30, 0x00, 0x88, 0x39, 0x5C, 0x00, 0x98, 0x3E, 0x50, 0x00, 0x98, 0x39, 0x50, 0x00, 0x98, 0x42, 0x50, 0x85, 0x50, 0x88, 0x3E, 0x7F, 0x00, 0x88, 0x42, 0x7F, 0x00, 0x88, 0x39, 0x5D, 0x00, 0x98, 0x40, 0x50, 0x00, 0x98, 0x3D, 0x50, 0x00, 0x98, 0x39, 0x50, 0x87, 0x40, 0x88, 0x40, 0x6C, 0x00, 0x88, 0x39, 
	0x01, 0x00, 0x88, 0x3D, 0x7F, 0x00, 0x98, 0x3E, 0x50, 0x00, 0x98, 0x43, 0x50, 0x00, 0x98, 0x3B, 0x50, 0x9E, 0x78, 0x88, 0x3E, 0x7F, 0x00, 0x88, 0x3B, 0x7F, 0x00, 0x88, 0x43, 0x7F, 0x00, 0x98, 0x40, 0x3C, 0x00, 0x98, 0x3D, 0x3C, 0x00, 0x98, 0x39, 0x3C, 0x9E, 0x78, 0x88, 0x40, 0x7F, 0x00, 0x88, 0x39, 0x78, 0x00, 0x88, 0x3D, 0x7F, 0x86, 0xD7, 0x00, 0xB8, 0x07, 0x64, 0x32, 0xB8, 0x07, 
	0x62, 0x67, 0xB8, 0x07, 0x5F, 0x81, 0x46, 0xB8, 0x07, 0x5D, 0x77, 0xB8, 0x07, 0x5B, 0x6B, 0xB8, 0x07, 0x59, 0x81, 0x6D, 0xB8, 0x07, 0x57, 0x6F, 0xB8, 0x07, 0x54, 0x15, 0xB8, 0x07, 0x52, 0x50, 0xB8, 0x07, 0x4F, 0x4F, 0xB8, 0x07, 0x4C, 0x50, 0xB8, 0x07, 0x4A, 0x52, 0xB8, 0x07, 0x48, 0x4E, 0xB8, 0x07, 0x46, 0x3C, 0xB8, 0x07, 0x44, 0x81, 0x21, 0xB8, 0x07, 0x42, 0x81, 0x1F, 0xB8, 0x07, 
	0x3F, 0x27, 0xB8, 0x07, 0x3D, 0x09, 0xB8, 0x07, 0x3A, 0x2C, 0xB8, 0x07, 0x37, 0x4F, 0xB8, 0x07, 0x35, 0x77, 0xB8, 0x07, 0x33, 0x81, 0x1D, 0xB8, 0x07, 0x31, 0x7B, 0xB8, 0x07, 0x2F, 0x77, 0xB8, 0x07, 0x2C, 0x4F, 0xB8, 0x07, 0x2A, 0x50, 0xB8, 0x07, 0x27, 0x38, 0xB8, 0x07, 0x24, 0x4D, 0xB8, 0x07, 0x22, 0x52, 0xB8, 0x07, 0x20, 0x13, 0xB8, 0x07, 0x1E, 0x76, 0xB8, 0x07, 0x1C, 0x7A, 0xB8, 
	0x07, 0x1A, 0x4F, 0xB8, 0x07, 0x17, 0x13, 0xB8, 0x07, 0x15, 0x28, 0xB8, 0x07, 0x13, 0x53, 0xB8, 0x07, 0x10, 0x4F, 0xB8, 0x07, 0x0D, 0x77, 0xB8, 0x07, 0x0B, 0x52, 0xB8, 0x07, 0x09, 0x4B, 0xB8, 0x07, 0x06, 0x53, 0xB8, 0x07, 0x03, 0x7C, 0xB8, 0x07, 0x00, 0x00, 0xFF, 0x2F, 0x00, 0x4D, 0x54, 0x72, 0x6B, 0x00, 0x00, 0x08, 0xDF, 0x00, 0xFF, 0x03, 0x06, 0x42, 0x65, 0x6C, 0x6C, 0x20, 0x32, 
	0x14, 0xBA, 0x78, 0x00, 0x0A, 0xBA, 0x79, 0x00, 0x28, 0xBA, 0x65, 0x00, 0x1E, 0xBA, 0x64, 0x00, 0x1E, 0xBA, 0x06, 0x02, 0x1E, 0xBA, 0x65, 0x7F, 0x1E, 0xBA, 0x64, 0x7F, 0x0A, 0xCA, 0x0B, 0x14, 0xEA, 0x00, 0x40, 0x0A, 0xBA, 0x01, 0x00, 0x0A, 0xBA, 0x07, 0x50, 0x14, 0xBA, 0x0B, 0x64, 0x0A, 0xBA, 0x5B, 0x6E, 0x0A, 0xBA, 0x5D, 0x00, 0x14, 0xBA, 0x0A, 0x40, 0x81, 0x34, 0x9A, 0x5D, 0x5C, 
	0x00, 0xBA, 0x07, 0x1E, 0x81, 0x70, 0x8A, 0x5D, 0x4D, 0x00, 0x9A, 0x51, 0x5C, 0x81, 0x70, 0x8A, 0x51, 0x7F, 0x00, 0x9A, 0x56, 0x5E, 0x81, 0x70, 0x8A, 0x56, 0x5F, 0x00, 0x9A, 0x58, 0x63, 0x81, 0x62, 0xBA, 0x07, 0x23, 0x0E, 0x8A, 0x58, 0x61, 0x00, 0x9A, 0x5D, 0x66, 0x7B, 0xBA, 0x07, 0x24, 0x75, 0x8A, 0x5D, 0x53, 0x00, 0x9A, 0x51, 0x62, 0x37, 0xBA, 0x07, 0x25, 0x81, 0x39, 0x8A, 0x51, 
	0x67, 0x00, 0x9A, 0x56, 0x61, 0x7B, 0xBA, 0x07, 0x26, 0x75, 0x8A, 0x56, 0x5F, 0x00, 0x9A, 0x58, 0x61, 0x15, 0xBA, 0x07, 0x27, 0x45, 0xBA, 0x07, 0x29, 0x23, 0xBA, 0x07, 0x2A, 0x25, 0xBA, 0x07, 0x2B, 0x43, 0xBA, 0x07, 0x2C, 0x0B, 0x8A, 0x58, 0x64, 0x00, 0x9A, 0x5D, 0x64, 0x81, 0x00, 0xBA, 0x07, 0x2D, 0x46, 0xBA, 0x07, 0x2E, 0x22, 0xBA, 0x07, 0x2F, 0x08, 0x8A, 0x5D, 0x48, 0x00, 0x9A, 
	0x51, 0x62, 0x3F, 0xBA, 0x07, 0x30, 0x22, 0xBA, 0x07, 0x31, 0x46, 0xBA, 0x07, 0x32, 0x46, 0xBA, 0x07, 0x33, 0x03, 0x8A, 0x51, 0x78, 0x00, 0x9A, 0x56, 0x4A, 0x81, 0x4A, 0xBA, 0x07, 0x34, 0x26, 0x8A, 0x56, 0x5C, 0x00, 0x9A, 0x58, 0x61, 0x81, 0x6C, 0xBA, 0x07, 0x36, 0x04, 0x8A, 0x58, 0x48, 0x00, 0x9A, 0x5D, 0x65, 0x81, 0x4A, 0xBA, 0x07, 0x37, 0x26, 0x8A, 0x5D, 0x59, 0x00, 0x9A, 0x51, 
	0x5E, 0x42, 0xBA, 0x07, 0x38, 0x81, 0x2B, 0xBA, 0x07, 0x3A, 0x03, 0x8A, 0x51, 0x78, 0x00, 0x9A, 0x56, 0x5F, 0x81, 0x29, 0xBA, 0x07, 0x3B, 0x47, 0x8A, 0x56, 0x56, 0x00, 0x9A, 0x58, 0x62, 0x81, 0x6D, 0xBA, 0x07, 0x3C, 0x03, 0x8A, 0x58, 0x61, 0x00, 0x9A, 0x5D, 0x5C, 0x81, 0x70, 0x8A, 0x5D, 0x4D, 0x00, 0x9A, 0x51, 0x5C, 0x64, 0xBA, 0x07, 0x3D, 0x45, 0xBA, 0x07, 0x3E, 0x47, 0x8A, 0x51, 
	0x7F, 0x00, 0x9A, 0x56, 0x5E, 0x81, 0x07, 0xBA, 0x07, 0x3F, 0x69, 0x8A, 0x56, 0x5F, 0x00, 0x9A, 0x58, 0x63, 0x81, 0x6D, 0xBA, 0x07, 0x40, 0x03, 0x8A, 0x58, 0x61, 0x00, 0x9A, 0x5D, 0x66, 0x81, 0x07, 0xBA, 0x07, 0x41, 0x68, 0xBA, 0x07, 0x42, 0x01, 0x8A, 0x5D, 0x53, 0x00, 0x9A, 0x51, 0x62, 0x20, 0xBA, 0x07, 0x43, 0x69, 0xBA, 0x07, 0x44, 0x46, 0xBA, 0x07, 0x45, 0x21, 0x8A, 0x51, 0x67, 
	0x00, 0x9A, 0x56, 0x61, 0x24, 0xBA, 0x07, 0x46, 0x81, 0x4C, 0x8A, 0x56, 0x5F, 0x00, 0x9A, 0x58, 0x61, 0x24, 0xBA, 0x07, 0x47, 0x68, 0xBA, 0x07, 0x48, 0x64, 0x8A, 0x58, 0x64, 0x00, 0x9A, 0x5D, 0x64, 0x03, 0xBA, 0x07, 0x49, 0x81, 0x2C, 0xBA, 0x07, 0x4A, 0x41, 0x8A, 0x5D, 0x48, 0x00, 0x9A, 0x51, 0x62, 0x6A, 0xBA, 0x07, 0x4B, 0x68, 0xBA, 0x07, 0x4C, 0x1E, 0x8A, 0x51, 0x78, 0x00, 0x9A, 
	0x56, 0x4A, 0x28, 0xBA, 0x07, 0x4D, 0x67, 0xBA, 0x07, 0x4E, 0x61, 0x8A, 0x56, 0x5C, 0x00, 0x9A, 0x58, 0x61, 0x06, 0xBA, 0x07, 0x4F, 0x81, 0x2C, 0xBA, 0x07, 0x50, 0x3E, 0x8A, 0x58, 0x48, 0x00, 0x9A, 0x5D, 0x65, 0x81, 0x70, 0x8A, 0x5D, 0x59, 0x00, 0x9A, 0x51, 0x5E, 0x81, 0x70, 0x8A, 0x51, 0x78, 0x00, 0x9A, 0x56, 0x5F, 0x81, 0x70, 0x8A, 0x56, 0x56, 0x00, 0x9A, 0x58, 0x62, 0x81, 0x70, 
	0x8A, 0x58, 0x61, 0x00, 0x9A, 0x5D, 0x64, 0x81, 0x70, 0x8A, 0x5D, 0x63, 0x00, 0x9A, 0x51, 0x64, 0x81, 0x70, 0x8A, 0x51, 0x67, 0x00, 0x9A, 0x56, 0x5F, 0x81, 0x70, 0x8A, 0x56, 0x64, 0x00, 0x9A, 0x5A, 0x60, 0x81, 0x70, 0x8A, 0x5A, 0x37, 0x00, 0x9A, 0x5D, 0x66, 0x81, 0x70, 0x8A, 0x5D, 0x6D, 0x00, 0x9A, 0x51, 0x66, 0x81, 0x70, 0x8A, 0x51, 0x6A, 0x00, 0x9A, 0x56, 0x60, 0x81, 0x70, 0x8A, 
	0x56, 0x5F, 0x00, 0x9A, 0x5A, 0x62, 0x81, 0x70, 0x8A, 0x5A, 0x4A, 0x00, 0x9A, 0x5E, 0x65, 0x81, 0x70, 0x8A, 0x5E, 0x7F, 0x00, 0x9A, 0x52, 0x61, 0x81, 0x70, 0x8A, 0x52, 0x5C, 0x00, 0x9A, 0x55, 0x5E, 0x81, 0x70, 0x8A, 0x55, 0x49, 0x00, 0x9A, 0x5A, 0x60, 0x81, 0x70, 0x8A, 0x5A, 0x4D, 0x00, 0x9A, 0x5E, 0x66, 0x81, 0x70, 0x8A, 0x5E, 0x7F, 0x00, 0x9A, 0x52, 0x66, 0x81, 0x70, 0x8A, 0x52, 
	0x7F, 0x00, 0x9A, 0x55, 0x5E, 0x81, 0x70, 0x8A, 0x55, 0x4F, 0x00, 0x9A, 0x5A, 0x5D, 0x81, 0x70, 0x8A, 0x5A, 0x2D, 0x00, 0x9A, 0x5F, 0x68, 0x81, 0x70, 0x8A, 0x5F, 0x6C, 0x00, 0x9A, 0x53, 0x60, 0x81, 0x70, 0x8A, 0x53, 0x67, 0x00, 0x9A, 0x56, 0x5D, 0x81, 0x70, 0x8A, 0x56, 0x4E, 0x00, 0x9A, 0x5A, 0x5E, 0x81, 0x70, 0x8A, 0x5A, 0x35, 0x00, 0x9A, 0x5F, 0x6B, 0x81, 0x70, 0x8A, 0x5F, 0x73, 
	0x00, 0x9A, 0x53, 0x64, 0x81, 0x70, 0x8A, 0x53, 0x54, 0x00, 0x9A, 0x56, 0x5D, 0x81, 0x70, 0x8A, 0x56, 0x47, 0x00, 0x9A, 0x5A, 0x60, 0x81, 0x70, 0x8A, 0x5A, 0x2F, 0x00, 0x9A, 0x5D, 0x66, 0x81, 0x70, 0x8A, 0x5D, 0x5D, 0x00, 0x9A, 0x51, 0x65, 0x81, 0x70, 0x8A, 0x51, 0x6D, 0x00, 0x9A, 0x56, 0x59, 0x81, 0x70, 0x8A, 0x56, 0x5A, 0x00, 0x9A, 0x5A, 0x61, 0x81, 0x70, 0x8A, 0x5A, 0x50, 0x00, 
	0x9A, 0x5D, 0x66, 0x81, 0x70, 0x8A, 0x5D, 0x66, 0x00, 0x9A, 0x51, 0x65, 0x81, 0x70, 0x8A, 0x51, 0x73, 0x00, 0x9A, 0x56, 0x5F, 0x81, 0x70, 0x8A, 0x56, 0x42, 0x00, 0x9A, 0x5A, 0x62, 0x81, 0x70, 0x8A, 0x5A, 0x28, 0x00, 0x9A, 0x5F, 0x69, 0x81, 0x70, 0x8A, 0x5F, 0x67, 0x00, 0x9A, 0x53, 0x66, 0x81, 0x70, 0x8A, 0x53, 0x4A, 0x00, 0x9A, 0x56, 0x61, 0x81, 0x70, 0x8A, 0x56, 0x59, 0x00, 0x9A, 
	0x5B, 0x65, 0x81, 0x70, 0x8A, 0x5B, 0x60, 0x00, 0x9A, 0x5F, 0x6C, 0x81, 0x70, 0x8A, 0x5F, 0x6A, 0x00, 0x9A, 0x53, 0x64, 0x81, 0x70, 0x8A, 0x53, 0x5C, 0x00, 0x9A, 0x56, 0x5F, 0x81, 0x70, 0x8A, 0x56, 0x45, 0x00, 0x9A, 0x5B, 0x64, 0x81, 0x70, 0x8A, 0x5B, 0x53, 0x00, 0x9A, 0x5D, 0x67, 0x81, 0x70, 0x8A, 0x5D, 0x6D, 0x00, 0x9A, 0x51, 0x64, 0x81, 0x70, 0x8A, 0x51, 0x69, 0x00, 0x9A, 0x55, 
	0x5D, 0x81, 0x70, 0x8A, 0x55, 0x44, 0x00, 0x9A, 0x58, 0x61, 0x81, 0x70, 0x8A, 0x58, 0x2F, 0x00, 0x9A, 0x5D, 0x69, 0x81, 0x70, 0x8A, 0x5D, 0x66, 0x00, 0x9A, 0x51, 0x63, 0x81, 0x70, 0x8A, 0x51, 0x53, 0x00, 0x9A, 0x55, 0x5C, 0x81, 0x70, 0x8A, 0x55, 0x01, 0x00, 0x9A, 0x58, 0x62, 0x81, 0x70, 0x8A, 0x58, 0x38, 0x00, 0x9A, 0x5D, 0x69, 0x81, 0x70, 0x8A, 0x5D, 0x5D, 0x00, 0x9A, 0x51, 0x65, 
	0x81, 0x70, 0x8A, 0x51, 0x6D, 0x00, 0x9A, 0x56, 0x60, 0x81, 0x70, 0x8A, 0x56, 0x53, 0x00, 0x9A, 0x5A, 0x61, 0x81, 0x70, 0x8A, 0x5A, 0x38, 0x00, 0x9A, 0x5D, 0x66, 0x81, 0x70, 0x8A, 0x5D, 0x64, 0x00, 0x9A, 0x51, 0x64, 0x81, 0x70, 0x8A, 0x51, 0x6C, 0x00, 0x9A, 0x56, 0x5D, 0x81, 0x70, 0x8A, 0x56, 0x60, 0x00, 0x9A, 0x5A, 0x61, 0x81, 0x70, 0x8A, 0x5A, 0x38, 0x00, 0x9A, 0x5D, 0x66, 0x81, 
	0x70, 0x8A, 0x5D, 0x69, 0x00, 0x9A, 0x51, 0x60, 0x81, 0x70, 0x8A, 0x51, 0x78, 0x00, 0x9A, 0x56, 0x61, 0x81, 0x70, 0x8A, 0x56, 0x5D, 0x00, 0x9A, 0x5A, 0x61, 0x81, 0x70, 0x8A, 0x5A, 0x3E, 0x00, 0x9A, 0x5D, 0x67, 0x81, 0x70, 0x8A, 0x5D, 0x6C, 0x00, 0x9A, 0x51, 0x64, 0x81, 0x70, 0x8A, 0x51, 0x78, 0x00, 0x9A, 0x56, 0x60, 0x81, 0x70, 0x8A, 0x56, 0x56, 0x00, 0x9A, 0x5A, 0x64, 0x81, 0x70, 
	0x8A, 0x5A, 0x7F, 0x00, 0x9A, 0x5D, 0x67, 0x81, 0x70, 0x8A, 0x5D, 0x66, 0x00, 0x9A, 0x56, 0x60, 0x81, 0x70, 0x8A, 0x56, 0x69, 0x00, 0x9A, 0x5D, 0x65, 0x81, 0x70, 0x8A, 0x5D, 0x67, 0x00, 0x9A, 0x5D, 0x66, 0x81, 0x70, 0x8A, 0x5D, 0x67, 0x00, 0x9A, 0x58, 0x66, 0x81, 0x70, 0x8A, 0x58, 0x61, 0x00, 0x9A, 0x5D, 0x67, 0x81, 0x70, 0x8A, 0x5D, 0x66, 0x00, 0x9A, 0x58, 0x67, 0x81, 0x70, 0x8A, 
	0x58, 0x54, 0x00, 0x9A, 0x5D, 0x64, 0x81, 0x70, 0x8A, 0x5D, 0x5D, 0x00, 0x9A, 0x5F, 0x6A, 0x81, 0x70, 0x8A, 0x5F, 0x73, 0x00, 0x9A, 0x5A, 0x64, 0x81, 0x70, 0x8A, 0x5A, 0x4A, 0x00, 0x9A, 0x5F, 0x68, 0x81, 0x70, 0x8A, 0x5F, 0x44, 0x00, 0x9A, 0x5D, 0x68, 0x81, 0x70, 0x8A, 0x5D, 0x6A, 0x00, 0x9A, 0x58, 0x66, 0x81, 0x70, 0x8A, 0x58, 0x63, 0x00, 0x9A, 0x5D, 0x68, 0x81, 0x70, 0x8A, 0x5D, 
	0x63, 0x00, 0x9A, 0x58, 0x66, 0x81, 0x70, 0x8A, 0x58, 0x5F, 0x00, 0x9A, 0x5D, 0x64, 0x81, 0x70, 0x8A, 0x5D, 0x6D, 0x00, 0x9A, 0x5D, 0x67, 0x81, 0x70, 0x8A, 0x5D, 0x66, 0x00, 0x9A, 0x56, 0x60, 0x81, 0x70, 0x8A, 0x56, 0x69, 0x00, 0x9A, 0x5D, 0x65, 0x81, 0x70, 0x8A, 0x5D, 0x67, 0x00, 0x9A, 0x5D, 0x66, 0x81, 0x70, 0x8A, 0x5D, 0x67, 0x00, 0x9A, 0x58, 0x66, 0x81, 0x70, 0x8A, 0x58, 0x61, 
	0x00, 0x9A, 0x5D, 0x67, 0x81, 0x70, 0x8A, 0x5D, 0x66, 0x00, 0x9A, 0x58, 0x67, 0x81, 0x70, 0x8A, 0x58, 0x54, 0x00, 0x9A, 0x5B, 0x64, 0x81, 0x70, 0x8A, 0x5B, 0x5D, 0x00, 0x9A, 0x62, 0x6A, 0x81, 0x70, 0x8A, 0x62, 0x73, 0x00, 0x9A, 0x56, 0x64, 0x81, 0x70, 0x8A, 0x56, 0x4A, 0x00, 0x9A, 0x5B, 0x68, 0x81, 0x70, 0x8A, 0x5B, 0x44, 0x00, 0x9A, 0x56, 0x68, 0x81, 0x70, 0x8A, 0x56, 0x6A, 0x00, 
	0x9A, 0x62, 0x66, 0x81, 0x70, 0x8A, 0x62, 0x63, 0x00, 0x9A, 0x56, 0x68, 0x81, 0x70, 0x8A, 0x56, 0x63, 0x00, 0x9A, 0x5B, 0x66, 0x81, 0x70, 0x8A, 0x5B, 0x5F, 0x00, 0x9A, 0x56, 0x64, 0x81, 0x70, 0x8A, 0x56, 0x6D, 0x00, 0x9A, 0x62, 0x6A, 0x81, 0x70, 0x8A, 0x62, 0x73, 0x00, 0x9A, 0x56, 0x64, 0x81, 0x70, 0x8A, 0x56, 0x4A, 0x00, 0x9A, 0x5B, 0x68, 0x81, 0x70, 0x8A, 0x5B, 0x44, 0x00, 0x9A, 
	0x56, 0x68, 0x81, 0x70, 0x8A, 0x56, 0x6A, 0x00, 0x9A, 0x62, 0x66, 0x81, 0x70, 0x8A, 0x62, 0x63, 0x00, 0x9A, 0x56, 0x68, 0x81, 0x70, 0x8A, 0x56, 0x63, 0x00, 0x9A, 0x5B, 0x66, 0x81, 0x70, 0x8A, 0x5B, 0x5F, 0x00, 0x9A, 0x56, 0x64, 0x81, 0x70, 0x8A, 0x56, 0x6D, 0x00, 0x9A, 0x61, 0x6A, 0x81, 0x70, 0x8A, 0x61, 0x73, 0x00, 0x9A, 0x55, 0x64, 0x81, 0x70, 0x8A, 0x55, 0x4A, 0x00, 0x9A, 0x5D, 
	0x68, 0x81, 0x70, 0x8A, 0x5D, 0x44, 0x00, 0x9A, 0x55, 0x68, 0x81, 0x70, 0x8A, 0x55, 0x6A, 0x00, 0x9A, 0x61, 0x66, 0x81, 0x70, 0x8A, 0x61, 0x63, 0x00, 0x9A, 0x55, 0x68, 0x81, 0x70, 0x8A, 0x55, 0x63, 0x00, 0x9A, 0x5D, 0x66, 0x81, 0x70, 0x8A, 0x5D, 0x5F, 0x00, 0x9A, 0x5D, 0x64, 0x81, 0x70, 0x8A, 0x5D, 0x6D, 0x81, 0x70, 0x9A, 0x5D, 0x64, 0x81, 0x70, 0x8A, 0x5D, 0x4A, 0x00, 0x9A, 0x5B, 
	0x68, 0x81, 0x70, 0x8A, 0x5B, 0x44, 0x00, 0x9A, 0x5B, 0x68, 0x81, 0x70, 0x8A, 0x5B, 0x6A, 0x00, 0x9A, 0x5A, 0x66, 0x81, 0x70, 0x8A, 0x5A, 0x63, 0x00, 0x9A, 0x5A, 0x68, 0x81, 0x70, 0x8A, 0x5A, 0x63, 0x00, 0x9A, 0x58, 0x66, 0x81, 0x70, 0x8A, 0x58, 0x5F, 0x00, 0x9A, 0x58, 0x64, 0x81, 0x70, 0x8A, 0x58, 0x6D, 0x85, 0xEE, 0x00, 0x9A, 0x5D, 0x67, 0x81, 0x70, 0x8A, 0x5D, 0x66, 0x00, 0x9A, 
	0x56, 0x60, 0x81, 0x70, 0x8A, 0x56, 0x69, 0x00, 0x9A, 0x5D, 0x65, 0x81, 0x70, 0x8A, 0x5D, 0x67, 0x00, 0x9A, 0x5D, 0x66, 0x81, 0x70, 0x8A, 0x5D, 0x67, 0x00, 0x9A, 0x58, 0x66, 0x81, 0x70, 0x8A, 0x58, 0x61, 0x00, 0x9A, 0x5D, 0x67, 0x81, 0x70, 0x8A, 0x5D, 0x66, 0x00, 0x9A, 0x58, 0x67, 0x81, 0x70, 0x8A, 0x58, 0x54, 0x00, 0x9A, 0x5D, 0x64, 0x81, 0x70, 0x8A, 0x5D, 0x5D, 0x00, 0x9A, 0x5F, 
	0x6A, 0x81, 0x70, 0x8A, 0x5F, 0x73, 0x00, 0x9A, 0x5A, 0x64, 0x81, 0x70, 0x8A, 0x5A, 0x4A, 0x00, 0x9A, 0x5F, 0x68, 0x81, 0x70, 0x8A, 0x5F, 0x44, 0x00, 0x9A, 0x5D, 0x68, 0x81, 0x70, 0x8A, 0x5D, 0x6A, 0x00, 0x9A, 0x58, 0x66, 0x81, 0x70, 0x8A, 0x58, 0x63, 0x00, 0x9A, 0x5D, 0x68, 0x81, 0x70, 0x8A, 0x5D, 0x63, 0x00, 0x9A, 0x58, 0x66, 0x81, 0x70, 0x8A, 0x58, 0x5F, 0x00, 0x9A, 0x5D, 0x64, 
	0x81, 0x70, 0x8A, 0x5D, 0x6D, 0x00, 0x9A, 0x5D, 0x67, 0x81, 0x70, 0x8A, 0x5D, 0x66, 0x00, 0x9A, 0x56, 0x60, 0x81, 0x70, 0x8A, 0x56, 0x69, 0x00, 0x9A, 0x5D, 0x65, 0x81, 0x70, 0x8A, 0x5D, 0x67, 0x00, 0x9A, 0x5D, 0x66, 0x81, 0x70, 0x8A, 0x5D, 0x67, 0x00, 0x9A, 0x58, 0x66, 0x81, 0x70, 0x8A, 0x58, 0x61, 0x00, 0x9A, 0x5D, 0x67, 0x81, 0x70, 0x8A, 0x5D, 0x66, 0x00, 0x9A, 0x58, 0x67, 0x81, 
	0x70, 0x8A, 0x58, 0x54, 0x00, 0x9A, 0x5B, 0x64, 0x81, 0x70, 0x8A, 0x5B, 0x5D, 0x00, 0x9A, 0x62, 0x6A, 0x81, 0x70, 0x8A, 0x62, 0x73, 0x00, 0x9A, 0x56, 0x64, 0x81, 0x70, 0x8A, 0x56, 0x4A, 0x00, 0x9A, 0x5B, 0x68, 0x81, 0x70, 0x8A, 0x5B, 0x44, 0x00, 0x9A, 0x56, 0x68, 0x81, 0x70, 0x8A, 0x56, 0x6A, 0x00, 0x9A, 0x62, 0x66, 0x81, 0x70, 0x8A, 0x62, 0x63, 0x00, 0x9A, 0x56, 0x68, 0x81, 0x70, 
	0x8A, 0x56, 0x63, 0x00, 0x9A, 0x5B, 0x66, 0x81, 0x70, 0x8A, 0x5B, 0x5F, 0x00, 0x9A, 0x56, 0x64, 0x81, 0x70, 0x8A, 0x56, 0x6D, 0x00, 0x9A, 0x62, 0x6A, 0x81, 0x70, 0x8A, 0x62, 0x73, 0x00, 0x9A, 0x56, 0x64, 0x81, 0x70, 0x8A, 0x56, 0x4A, 0x00, 0x9A, 0x5B, 0x68, 0x81, 0x70, 0x8A, 0x5B, 0x44, 0x00, 0x9A, 0x56, 0x68, 0x81, 0x70, 0x8A, 0x56, 0x6A, 0x00, 0x9A, 0x62, 0x66, 0x81, 0x70, 0x8A, 
	0x62, 0x63, 0x00, 0x9A, 0x56, 0x68, 0x81, 0x70, 0x8A, 0x56, 0x63, 0x00, 0x9A, 0x5B, 0x66, 0x81, 0x70, 0x8A, 0x5B, 0x5F, 0x00, 0x9A, 0x56, 0x64, 0x81, 0x70, 0x8A, 0x56, 0x6D, 0x00, 0x9A, 0x61, 0x64, 0x81, 0x70, 0x8A, 0x61, 0x73, 0x00, 0x9A, 0x55, 0x60, 0x81, 0x70, 0x8A, 0x55, 0x4A, 0x00, 0x9A, 0x5D, 0x5D, 0x81, 0x70, 0x8A, 0x5D, 0x44, 0x00, 0x9A, 0x55, 0x5A, 0x81, 0x70, 0x8A, 0x55, 
	0x6A, 0x00, 0x9A, 0x61, 0x56, 0x81, 0x70, 0x8A, 0x61, 0x63, 0x00, 0x9A, 0x55, 0x53, 0x81, 0x70, 0x8A, 0x55, 0x63, 0x00, 0x9A, 0x5D, 0x50, 0x81, 0x70, 0x8A, 0x5D, 0x5F, 0x00, 0x9A, 0x5D, 0x4C, 0x81, 0x70, 0x8A, 0x5D, 0x6D, 0x00, 0x9A, 0x61, 0x49, 0x81, 0x70, 0x8A, 0x61, 0x73, 0x00, 0x9A, 0x55, 0x46, 0x81, 0x70, 0x8A, 0x55, 0x4A, 0x00, 0x9A, 0x5D, 0x42, 0x81, 0x70, 0x8A, 0x5D, 0x44, 
	0x00, 0x9A, 0x55, 0x3F, 0x81, 0x70, 0x8A, 0x55, 0x6A, 0x00, 0x9A, 0x61, 0x3C, 0x81, 0x70, 0x8A, 0x61, 0x63, 0x00, 0x9A, 0x55, 0x38, 0x81, 0x70, 0x8A, 0x55, 0x63, 0x00, 0x9A, 0x5D, 0x35, 0x81, 0x70, 0x8A, 0x5D, 0x5F, 0x00, 0x9A, 0x5D, 0x32, 0x81, 0x70, 0x8A, 0x5D, 0x6D, 0x00, 0x9A, 0x5A, 0x61, 0x00, 0x9A, 0x53, 0x61, 0x00, 0x9A, 0x4F, 0x5D, 0x97, 0x02, 0xBA, 0x07, 0x4F, 0x4F, 0xBA, 
	0x07, 0x4C, 0x50, 0xBA, 0x07, 0x4A, 0x52, 0xBA, 0x07, 0x48, 0x4E, 0xBA, 0x07, 0x46, 0x3C, 0xBA, 0x07, 0x44, 0x81, 0x21, 0xBA, 0x07, 0x42, 0x81, 0x1F, 0xBA, 0x07, 0x3F, 0x27, 0xBA, 0x07, 0x3D, 0x09, 0xBA, 0x07, 0x3A, 0x2C, 0xBA, 0x07, 0x37, 0x4F, 0xBA, 0x07, 0x35, 0x77, 0xBA, 0x07, 0x33, 0x81, 0x1D, 0xBA, 0x07, 0x31, 0x7B, 0xBA, 0x07, 0x2F, 0x77, 0xBA, 0x07, 0x2C, 0x4F, 0xBA, 0x07, 
	0x2A, 0x50, 0xBA, 0x07, 0x27, 0x38, 0xBA, 0x07, 0x24, 0x4D, 0xBA, 0x07, 0x22, 0x52, 0xBA, 0x07, 0x20, 0x13, 0xBA, 0x07, 0x1E, 0x76, 0xBA, 0x07, 0x1C, 0x7A, 0xBA, 0x07, 0x1A, 0x4F, 0xBA, 0x07, 0x17, 0x13, 0xBA, 0x07, 0x15, 0x28, 0xBA, 0x07, 0x13, 0x53, 0xBA, 0x07, 0x10, 0x4F, 0xBA, 0x07, 0x0D, 0x77, 0xBA, 0x07, 0x0B, 0x52, 0xBA, 0x07, 0x09, 0x4B, 0xBA, 0x07, 0x06, 0x53, 0xBA, 0x07, 
	0x03, 0x7C, 0xBA, 0x07, 0x00, 0x0A, 0x8A, 0x5A, 0x2A, 0x00, 0x8A, 0x4F, 0x33, 0x00, 0x8A, 0x53, 0x5C, 0x00, 0xFF, 0x2F, 0x00, 0x00
};
