

const sound Tokyo =
{ 
	0x04, 0x00, 
	0x4D, 0x54, 0x68, 0x64, 0x00, 0x00, 0x00, 0x06, 0x00, 0x00, 0x00, 0x01, 0x01, 0xE0, 0x4D, 0x54, 0x72, 0x6B, 0x00, 0x00, 0xF4, 0xC5, 0x00, 0xFF, 0x03, 0x40, 0x32, 0x2F, 0x34, 0x38, 0x30, 0x20, 0x58, 0x47, 0x20, 0x54, 0x65, 0x6D, 0x70, 0x20, 0x4E, 0x4D, 0x20, 0x20, 0x20, 0x20, 0x20, 0x20, 0x20, 0x20, 0x20, 0x20, 0x20, 0x20, 0x20, 0x20, 0x20, 0x20, 0x20, 0x20, 0x20, 0x20, 0x20, 0x20, 
	0x20, 0x20, 0x20, 0x20, 0x20, 0x20, 0x20, 0x20, 0x20, 0x20, 0x20, 0x20, 0x20, 0x20, 0x20, 0x20, 0x20, 0x20, 0x20, 0x20, 0x20, 0x20, 0x20, 0x20, 0x20, 0x20, 0x00, 0xFF, 0x51, 0x03, 0x05, 0x7B, 0x71, 0x00, 0xFF, 0x59, 0x02, 0x00, 0x00, 0x00, 0xFF, 0x58, 0x04, 0x04, 0x02, 0x18, 0x08, 0x00, 0xFF, 0x21, 0x01, 0x00, 0x00, 0xFF, 0x01, 0x37, 0x30, 0x31, 0x2D, 0x4D, 0x45, 0x4C, 0x4F, 0x44, 
	0x59, 0x20, 0x20, 0x20, 0x20, 0x20, 0x20, 0x20, 0x20, 0x20, 0x20, 0x20, 0x20, 0x20, 0x20, 0x20, 0x20, 0x20, 0x20, 0x20, 0x20, 0x20, 0x20, 0x20, 0x20, 0x20, 0x20, 0x20, 0x20, 0x20, 0x20, 0x20, 0x20, 0x20, 0x20, 0x20, 0x20, 0x20, 0x20, 0x20, 0x20, 0x20, 0x20, 0x20, 0x20, 0x20, 0x20, 0x00, 0xFF, 0x01, 0x37, 0x4D, 0x55, 0x20, 0x38, 0x30, 0x20, 0x20, 0x20, 0x20, 0x20, 0x20, 0x20, 0x20, 
	0x20, 0x20, 0x20, 0x20, 0x20, 0x20, 0x20, 0x20, 0x20, 0x20, 0x20, 0x20, 0x20, 0x20, 0x20, 0x20, 0x20, 0x20, 0x20, 0x20, 0x20, 0x20, 0x20, 0x20, 0x20, 0x20, 0x20, 0x20, 0x20, 0x20, 0x20, 0x20, 0x20, 0x20, 0x20, 0x20, 0x20, 0x20, 0x20, 0x20, 0x20, 0x20, 0x00, 0xFF, 0x01, 0x37, 0x30, 0x32, 0x2D, 0x53, 0x55, 0x42, 0x20, 0x4D, 0x45, 0x4C, 0x4F, 0x44, 0x59, 0x2F, 0x53, 0x4F, 0x4C, 0x20, 
	0xFF, 0xFF, 0x20, 0x20, 0x20, 0x20, 0x20, 0x20, 0x20, 0x20, 0x20, 0x20, 0x20, 0x20, 0x20, 0x20, 0x20, 0x20, 0x20, 0x20, 0x20, 0x20, 0x20, 0x20, 0x20, 0x20, 0x20, 0x20, 0x20, 0x20, 0x20, 0x20, 0x20, 0x20, 0x20, 0x20, 0x20, 0x00, 0xFF, 0x01, 0x37, 0x4D, 0x55, 0x20, 0x38, 0x30, 0x20, 0x20, 0x20, 0x20, 0x20, 0x20, 0x20, 0x20, 0x20, 0x20, 0x20, 0x20, 0x20, 0x20, 0x20, 0x20, 0x20, 0x20, 
	0x20, 0x20, 0x20, 0x20, 0x20, 0x20, 0x20, 0x20, 0x20, 0x20, 0x20, 0x20, 0x20, 0x20, 0x20, 0x20, 0x20, 0x20, 0x20, 0x20, 0x20, 0x20, 0x20, 0x20, 0x20, 0x20, 0x20, 0x20, 0x20, 0x20, 0x20, 0x20, 0x00, 0xFF, 0x01, 0x37, 0x30, 0x33, 0x2D, 0x42, 0x41, 0x53, 0x53, 0x20, 0xFF, 0xFF, 0x20, 0x20, 0x20, 0x20, 0x20, 0x20, 0x20, 0x20, 0x20, 0x20, 0x20, 0x20, 0x20, 0x20, 0x20, 0x20, 0x20, 0x20, 
	0x20, 0x20, 0x20, 0x20, 0x20, 0x20, 0x20, 0x20, 0x20, 0x20, 0x20, 0x20, 0x20, 0x20, 0x20, 0x20, 0x20, 0x20, 0x20, 0x20, 0x20, 0x20, 0x20, 0x20, 0x20, 0x20, 0x20, 0x00, 0xFF, 0x01, 0x37, 0x4D, 0x55, 0x20, 0x38, 0x30, 0x20, 0x20, 0x20, 0x20, 0x20, 0x20, 0x20, 0x20, 0x20, 0x20, 0x20, 0x20, 0x20, 0x20, 0x20, 0x20, 0x20, 0x20, 0x20, 0x20, 0x20, 0x20, 0x20, 0x20, 0x20, 0x20, 0x20, 0x20, 
	0x20, 0x20, 0x20, 0x20, 0x20, 0x20, 0x20, 0x20, 0x20, 0x20, 0x20, 0x20, 0x20, 0x20, 0x20, 0x20, 0x20, 0x20, 0x20, 0x20, 0x20, 0x20, 0x00, 0xFF, 0x01, 0x37, 0x30, 0x34, 0x2D, 0x50, 0x41, 0x44, 0xFF, 0xFF, 0xFF, 0xFF, 0x20, 0x20, 0x20, 0x20, 0x20, 0x20, 0x20, 0x20, 0x20, 0x20, 0x20, 0x20, 0x20, 0x20, 0x20, 0x20, 0x20, 0x20, 0x20, 0x20, 0x20, 0x20, 0x20, 0x20, 0x20, 0x20, 0x20, 0x20, 
	0x20, 0x20, 0x20, 0x20, 0x20, 0x20, 0x20, 0x20, 0x20, 0x20, 0x20, 0x20, 0x20, 0x20, 0x20, 0x20, 0x20, 0x00, 0xFF, 0x01, 0x37, 0x4D, 0x55, 0x20, 0x38, 0x30, 0x20, 0x20, 0x20, 0x20, 0x20, 0x20, 0x20, 0x20, 0x20, 0x20, 0x20, 0x20, 0x20, 0x20, 0x20, 0x20, 0x20, 0x20, 0x20, 0x20, 0x20, 0x20, 0x20, 0x20, 0x20, 0x20, 0x20, 0x20, 0x20, 0x20, 0x20, 0x20, 0x20, 0x20, 0x20, 0x20, 0x20, 0x20, 
	0x20, 0x20, 0x20, 0x20, 0x20, 0x20, 0x20, 0x20, 0x20, 0x20, 0x20, 0x20, 0x00, 0xFF, 0x01, 0x37, 0x30, 0x35, 0x2D, 0x52, 0x49, 0x46, 0x46, 0x20, 0xFF, 0xFF, 0x20, 0x20, 0x20, 0x20, 0x20, 0x20, 0x20, 0x20, 0x20, 0x20, 0x20, 0x20, 0x20, 0x20, 0x20, 0x20, 0x20, 0x20, 0x20, 0x20, 0x20, 0x20, 0x20, 0x20, 0x20, 0x20, 0x20, 0x20, 0x20, 0x20, 0x20, 0x20, 0x20, 0x20, 0x20, 0x20, 0x20, 0x20, 
	0x20, 0x20, 0x20, 0x20, 0x20, 0x20, 0x20, 0x00, 0xFF, 0x01, 0x37, 0x4D, 0x55, 0x20, 0x38, 0x30, 0x20, 0x20, 0x20, 0x20, 0x20, 0x20, 0x20, 0x20, 0x20, 0x20, 0x20, 0x20, 0x20, 0x20, 0x20, 0x20, 0x20, 0x20, 0x20, 0x20, 0x20, 0x20, 0x20, 0x20, 0x20, 0x20, 0x20, 0x20, 0x20, 0x20, 0x20, 0x20, 0x20, 0x20, 0x20, 0x20, 0x20, 0x20, 0x20, 0x20, 0x20, 0x20, 0x20, 0x20, 0x20, 0x20, 0x20, 0x20, 
	0x20, 0x20, 0x00, 0xFF, 0x01, 0x37, 0x30, 0x36, 0x2D, 0xFF, 0xFF, 0x20, 0x20, 0x20, 0x20, 0x20, 0x20, 0x20, 0x20, 0x20, 0x20, 0x20, 0x20, 0x20, 0x20, 0x20, 0x20, 0x20, 0x20, 0x20, 0x20, 0x20, 0x20, 0x20, 0x20, 0x20, 0x20, 0x20, 0x20, 0x20, 0x20, 0x20, 0x20, 0x20, 0x20, 0x20, 0x20, 0x20, 0x20, 0x20, 0x20, 0x20, 0x20, 0x20, 0x20, 0x20, 0x20, 0x20, 0x20, 0x20, 0x20, 0x00, 0xFF, 0x01, 
	0x37, 0x4D, 0x55, 0x20, 0x38, 0x30, 0x20, 0x20, 0x20, 0x20, 0x20, 0x20, 0x20, 0x20, 0x20, 0x20, 0x20, 0x20, 0x20, 0x20, 0x20, 0x20, 0x20, 0x20, 0x20, 0x20, 0x20, 0x20, 0x20, 0x20, 0x20, 0x20, 0x20, 0x20, 0x20, 0x20, 0x20, 0x20, 0x20, 0x20, 0x20, 0x20, 0x20, 0x20, 0x20, 0x20, 0x20, 0x20, 0x20, 0x20, 0x20, 0x20, 0x20, 0x20, 0x20, 0x20, 0x00, 0xFF, 0x01, 0x37, 0x30, 0x37, 0x2D, 0xFF, 
	0xFF, 0x20, 0x20, 0x20, 0x20, 0x20, 0x20, 0x20, 0x20, 0x20, 0x20, 0x20, 0x20, 0x20, 0x20, 0x20, 0x20, 0x20, 0x20, 0x20, 0x20, 0x20, 0x20, 0x20, 0x20, 0x20, 0x20, 0x20, 0x20, 0x20, 0x20, 0x20, 0x20, 0x20, 0x20, 0x20, 0x20, 0x20, 0x20, 0x20, 0x20, 0x20, 0x20, 0x20, 0x20, 0x20, 0x20, 0x20, 0x20, 0x20, 0x20, 0x00, 0xFF, 0x01, 0x37, 0x4D, 0x55, 0x20, 0x38, 0x30, 0x20, 0x20, 0x20, 0x20, 
	0x20, 0x20, 0x20, 0x20, 0x20, 0x20, 0x20, 0x20, 0x20, 0x20, 0x20, 0x20, 0x20, 0x20, 0x20, 0x20, 0x20, 0x20, 0x20, 0x20, 0x20, 0x20, 0x20, 0x20, 0x20, 0x20, 0x20, 0x20, 0x20, 0x20, 0x20, 0x20, 0x20, 0x20, 0x20, 0x20, 0x20, 0x20, 0x20, 0x20, 0x20, 0x20, 0x20, 0x20, 0x20, 0x20, 0x00, 0xFF, 0x01, 0x37, 0x30, 0x38, 0x2D, 0x00, 0x00, 0x20, 0x20, 0x20, 0x20, 0x20, 0x20, 0x20, 0x20, 0x20, 
	0x20, 0x20, 0x20, 0x20, 0x20, 0x20, 0x20, 0x20, 0x20, 0x20, 0x20, 0x20, 0x20, 0x20, 0x20, 0x20, 0x20, 0x20, 0x20, 0x20, 0x20, 0x20, 0x20, 0x20, 0x20, 0x20, 0x20, 0x20, 0x20, 0x20, 0x20, 0x20, 0x20, 0x20, 0x20, 0x20, 0x20, 0x20, 0x20, 0x20, 0x20, 0x00, 0xFF, 0x01, 0x37, 0x4D, 0x55, 0x20, 0x38, 0x30, 0x20, 0x20, 0x20, 0x20, 0x20, 0x20, 0x20, 0x20, 0x20, 0x20, 0x20, 0x20, 0x20, 0x20, 
	0x20, 0x20, 0x20, 0x20, 0x20, 0x20, 0x20, 0x20, 0x20, 0x20, 0x20, 0x20, 0x20, 0x20, 0x20, 0x20, 0x20, 0x20, 0x20, 0x20, 0x20, 0x20, 0x20, 0x20, 0x20, 0x20, 0x20, 0x20, 0x20, 0x20, 0x20, 0x20, 0x20, 0x20, 0x20, 0x20, 0x00, 0xFF, 0x01, 0x37, 0x30, 0x39, 0x2D, 0x00, 0x00, 0x20, 0x20, 0x20, 0x20, 0x20, 0x20, 0x20, 0x20, 0x20, 0x20, 0x20, 0x20, 0x20, 0x20, 0x20, 0x20, 0x20, 0x20, 0x20, 
	0x20, 0x20, 0x20, 0x20, 0x20, 0x20, 0x20, 0x20, 0x20, 0x20, 0x20, 0x20, 0x20, 0x20, 0x20, 0x20, 0x20, 0x20, 0x20, 0x20, 0x20, 0x20, 0x20, 0x20, 0x20, 0x20, 0x20, 0x20, 0x20, 0x20, 0x20, 0x00, 0xFF, 0x01, 0x37, 0x4D, 0x55, 0x20, 0x38, 0x30, 0x20, 0x20, 0x20, 0x20, 0x20, 0x20, 0x20, 0x20, 0x20, 0x20, 0x20, 0x20, 0x20, 0x20, 0x20, 0x20, 0x20, 0x20, 0x20, 0x20, 0x20, 0x20, 0x20, 0x20, 
	0x20, 0x20, 0x20, 0x20, 0x20, 0x20, 0x20, 0x20, 0x20, 0x20, 0x20, 0x20, 0x20, 0x20, 0x20, 0x20, 0x20, 0x20, 0x20, 0x20, 0x20, 0x20, 0x20, 0x20, 0x20, 0x20, 0x00, 0xFF, 0x01, 0x37, 0x31, 0x30, 0x2D, 0x52, 0x48, 0x59, 0x54, 0x48, 0x4D, 0x20, 0x20, 0x20, 0x20, 0x20, 0x20, 0x20, 0x20, 0x20, 0x20, 0x20, 0x20, 0x20, 0x20, 0x20, 0x20, 0x20, 0x20, 0x20, 0x20, 0x20, 0x20, 0x20, 0x20, 0x20, 
	0x20, 0x20, 0x20, 0x20, 0x20, 0x20, 0x20, 0x20, 0x20, 0x20, 0x20, 0x20, 0x20, 0x20, 0x20, 0x20, 0x20, 0x20, 0x20, 0x20, 0x20, 0x00, 0xFF, 0x01, 0x37, 0x4D, 0x55, 0x20, 0x38, 0x30, 0x20, 0x20, 0x20, 0x20, 0x20, 0x20, 0x20, 0x20, 0x20, 0x20, 0x20, 0x20, 0x20, 0x20, 0x20, 0x20, 0x20, 0x20, 0x20, 0x20, 0x20, 0x20, 0x20, 0x20, 0x20, 0x20, 0x20, 0x20, 0x20, 0x20, 0x20, 0x20, 0x20, 0x20, 
	0x20, 0x20, 0x20, 0x20, 0x20, 0x20, 0x20, 0x20, 0x20, 0x20, 0x20, 0x20, 0x20, 0x20, 0x20, 0x20, 0x00, 0xFF, 0x01, 0x37, 0x31, 0x31, 0x2D, 0x00, 0x00, 0x20, 0x20, 0x20, 0x20, 0x20, 0x20, 0x20, 0x20, 0x20, 0x20, 0x20, 0x20, 0x20, 0x20, 0x20, 0x20, 0x20, 0x20, 0x20, 0x20, 0x20, 0x20, 0x20, 0x20, 0x20, 0x20, 0x20, 0x20, 0x20, 0x20, 0x20, 0x20, 0x20, 0x20, 0x20, 0x20, 0x20, 0x20, 0x20, 
	0x20, 0x20, 0x20, 0x20, 0x20, 0x20, 0x20, 0x20, 0x20, 0x20, 0x20, 0x00, 0xFF, 0x01, 0x37, 0x4D, 0x55, 0x20, 0x38, 0x30, 0x20, 0x20, 0x20, 0x20, 0x20, 0x20, 0x20, 0x20, 0x20, 0x20, 0x20, 0x20, 0x20, 0x20, 0x20, 0x20, 0x20, 0x20, 0x20, 0x20, 0x20, 0x20, 0x20, 0x20, 0x20, 0x20, 0x20, 0x20, 0x20, 0x20, 0x20, 0x20, 0x20, 0x20, 0x20, 0x20, 0x20, 0x20, 0x20, 0x20, 0x20, 0x20, 0x20, 0x20, 
	0x20, 0x20, 0x20, 0x20, 0x20, 0x20, 0x00, 0xFF, 0x01, 0x37, 0x31, 0x32, 0x2D, 0x00, 0x00, 0x20, 0x20, 0x20, 0x20, 0x20, 0x20, 0x20, 0x20, 0x20, 0x20, 0x20, 0x20, 0x20, 0x20, 0x20, 0x20, 0x20, 0x20, 0x20, 0x20, 0x20, 0x20, 0x20, 0x20, 0x20, 0x20, 0x20, 0x20, 0x20, 0x20, 0x20, 0x20, 0x20, 0x20, 0x20, 0x20, 0x20, 0x20, 0x20, 0x20, 0x20, 0x20, 0x20, 0x20, 0x20, 0x20, 0x20, 0x20, 0x20, 
	0x20, 0x00, 0xFF, 0x01, 0x37, 0x4D, 0x55, 0x20, 0x38, 0x30, 0x20, 0x20, 0x20, 0x20, 0x20, 0x20, 0x20, 0x20, 0x20, 0x20, 0x20, 0x20, 0x20, 0x20, 0x20, 0x20, 0x20, 0x20, 0x20, 0x20, 0x20, 0x20, 0x20, 0x20, 0x20, 0x20, 0x20, 0x20, 0x20, 0x20, 0x20, 0x20, 0x20, 0x20, 0x20, 0x20, 0x20, 0x20, 0x20, 0x20, 0x20, 0x20, 0x20, 0x20, 0x20, 0x20, 0x20, 0x20, 0x20, 0x20, 0x00, 0xFF, 0x01, 0x37, 
	0x31, 0x33, 0x2D, 0x00, 0x00, 0x20, 0x20, 0x20, 0x20, 0x20, 0x20, 0x20, 0x20, 0x20, 0x20, 0x20, 0x20, 0x20, 0x20, 0x20, 0x20, 0x20, 0x20, 0x20, 0x20, 0x20, 0x20, 0x20, 0x20, 0x20, 0x20, 0x20, 0x20, 0x20, 0x20, 0x20, 0x20, 0x20, 0x20, 0x20, 0x20, 0x20, 0x20, 0x20, 0x20, 0x20, 0x20, 0x20, 0x20, 0x20, 0x20, 0x20, 0x20, 0x20, 0x20, 0x00, 0xFF, 0x01, 0x37, 0x4D, 0x55, 0x20, 0x38, 0x30, 
	0x20, 0x20, 0x20, 0x20, 0x20, 0x20, 0x20, 0x20, 0x20, 0x20, 0x20, 0x20, 0x20, 0x20, 0x20, 0x20, 0x20, 0x20, 0x20, 0x20, 0x20, 0x20, 0x20, 0x20, 0x20, 0x20, 0x20, 0x20, 0x20, 0x20, 0x20, 0x20, 0x20, 0x20, 0x20, 0x20, 0x20, 0x20, 0x20, 0x20, 0x20, 0x20, 0x20, 0x20, 0x20, 0x20, 0x20, 0x20, 0x20, 0x20, 0x00, 0xFF, 0x01, 0x37, 0x31, 0x34, 0x2D, 0x00, 0x00, 0x20, 0x20, 0x20, 0x20, 0x20, 
	0x20, 0x20, 0x20, 0x20, 0x20, 0x20, 0x20, 0x20, 0x20, 0x20, 0x20, 0x20, 0x20, 0x20, 0x20, 0x20, 0x20, 0x20, 0x20, 0x20, 0x20, 0x20, 0x20, 0x20, 0x20, 0x20, 0x20, 0x20, 0x20, 0x20, 0x20, 0x20, 0x20, 0x20, 0x20, 0x20, 0x20, 0x20, 0x20, 0x20, 0x20, 0x20, 0x20, 0x20, 0x20, 0x00, 0xFF, 0x01, 0x37, 0x4D, 0x55, 0x20, 0x38, 0x30, 0x20, 0x20, 0x20, 0x20, 0x20, 0x20, 0x20, 0x20, 0x20, 0x20, 
	0x20, 0x20, 0x20, 0x20, 0x20, 0x20, 0x20, 0x20, 0x20, 0x20, 0x20, 0x20, 0x20, 0x20, 0x20, 0x20, 0x20, 0x20, 0x20, 0x20, 0x20, 0x20, 0x20, 0x20, 0x20, 0x20, 0x20, 0x20, 0x20, 0x20, 0x20, 0x20, 0x20, 0x20, 0x20, 0x20, 0x20, 0x20, 0x20, 0x20, 0x00, 0xFF, 0x01, 0x37, 0x31, 0x35, 0x2D, 0x00, 0x00, 0x20, 0x20, 0x20, 0x20, 0x20, 0x20, 0x20, 0x20, 0x20, 0x20, 0x20, 0x20, 0x20, 0x20, 0x20, 
	0x20, 0x20, 0x20, 0x20, 0x20, 0x20, 0x20, 0x20, 0x20, 0x20, 0x20, 0x20, 0x20, 0x20, 0x20, 0x20, 0x20, 0x20, 0x20, 0x20, 0x20, 0x20, 0x20, 0x20, 0x20, 0x20, 0x20, 0x20, 0x20, 0x20, 0x20, 0x20, 0x20, 0x20, 0x20, 0x00, 0xFF, 0x01, 0x37, 0x4D, 0x55, 0x20, 0x38, 0x30, 0x20, 0x20, 0x20, 0x20, 0x20, 0x20, 0x20, 0x20, 0x20, 0x20, 0x20, 0x20, 0x20, 0x20, 0x20, 0x20, 0x20, 0x20, 0x20, 0x20, 
	0x20, 0x20, 0x20, 0x20, 0x20, 0x20, 0x20, 0x20, 0x20, 0x20, 0x20, 0x20, 0x20, 0x20, 0x20, 0x20, 0x20, 0x20, 0x20, 0x20, 0x20, 0x20, 0x20, 0x20, 0x20, 0x20, 0x20, 0x20, 0x20, 0x20, 0x00, 0xFF, 0x01, 0x37, 0x31, 0x36, 0x2D, 0x00, 0x00, 0x20, 0x20, 0x20, 0x20, 0x20, 0x20, 0x20, 0x20, 0x20, 0x20, 0x20, 0x20, 0x20, 0x20, 0x20, 0x20, 0x20, 0x20, 0x20, 0x20, 0x20, 0x20, 0x20, 0x20, 0x20, 
	0x20, 0x20, 0x20, 0x20, 0x20, 0x20, 0x20, 0x20, 0x20, 0x20, 0x20, 0x20, 0x20, 0x20, 0x20, 0x20, 0x20, 0x20, 0x20, 0x20, 0x20, 0x20, 0x20, 0x20, 0x20, 0x00, 0xF0, 0x05, 0x7E, 0x7F, 0x09, 0x01, 0xF7, 0x83, 0x60, 0xF0, 0x08, 0x43, 0x10, 0x4C, 0x00, 0x00, 0x7E, 0x00, 0xF7, 0x78, 0xF0, 0x09, 0x43, 0x10, 0x4C, 0x02, 0x01, 0x00, 0x01, 0x00, 0xF7, 0x02, 0xF0, 0x08, 0x43, 0x10, 0x4C, 0x02, 
	0x01, 0x02, 0x12, 0xF7, 0x02, 0xF0, 0x08, 0x43, 0x10, 0x4C, 0x02, 0x01, 0x03, 0x0A, 0xF7, 0x02, 0xF0, 0x08, 0x43, 0x10, 0x4C, 0x02, 0x01, 0x04, 0x08, 0xF7, 0x02, 0xF0, 0x08, 0x43, 0x10, 0x4C, 0x02, 0x01, 0x05, 0x0D, 0xF7, 0x02, 0xF0, 0x08, 0x43, 0x10, 0x4C, 0x02, 0x01, 0x06, 0x31, 0xF7, 0x02, 0xF0, 0x08, 0x43, 0x10, 0x4C, 0x02, 0x01, 0x0C, 0x40, 0xF7, 0x02, 0xF0, 0x08, 0x43, 0x10, 
	0x4C, 0x02, 0x01, 0x0D, 0x40, 0xF7, 0x02, 0xF0, 0x09, 0x43, 0x10, 0x4C, 0x02, 0x01, 0x20, 0x41, 0x00, 0xF7, 0x02, 0xF0, 0x08, 0x43, 0x10, 0x4C, 0x02, 0x01, 0x22, 0x06, 0xF7, 0x02, 0xF0, 0x08, 0x43, 0x10, 0x4C, 0x02, 0x01, 0x23, 0x36, 0xF7, 0x02, 0xF0, 0x08, 0x43, 0x10, 0x4C, 0x02, 0x01, 0x24, 0x4D, 0xF7, 0x02, 0xF0, 0x08, 0x43, 0x10, 0x4C, 0x02, 0x01, 0x25, 0x6A, 0xF7, 0x04, 0xF0, 
	0x08, 0x43, 0x10, 0x4C, 0x02, 0x01, 0x27, 0x1C, 0xF7, 0x02, 0xF0, 0x08, 0x43, 0x10, 0x4C, 0x02, 0x01, 0x28, 0x40, 0xF7, 0x02, 0xF0, 0x08, 0x43, 0x10, 0x4C, 0x02, 0x01, 0x29, 0x2E, 0xF7, 0x02, 0xF0, 0x08, 0x43, 0x10, 0x4C, 0x02, 0x01, 0x2A, 0x40, 0xF7, 0x02, 0xF0, 0x08, 0x43, 0x10, 0x4C, 0x02, 0x01, 0x2C, 0x40, 0xF7, 0x02, 0xF0, 0x08, 0x43, 0x10, 0x4C, 0x02, 0x01, 0x2D, 0x40, 0xF7, 
	0x02, 0xF0, 0x08, 0x43, 0x10, 0x4C, 0x02, 0x01, 0x2E, 0x00, 0xF7, 0x02, 0xF0, 0x09, 0x43, 0x10, 0x4C, 0x02, 0x01, 0x40, 0x05, 0x00, 0xF7, 0x02, 0xF0, 0x09, 0x43, 0x10, 0x4C, 0x02, 0x01, 0x42, 0x1A, 0x05, 0xF7, 0x02, 0xF0, 0x09, 0x43, 0x10, 0x4C, 0x02, 0x01, 0x44, 0x0D, 0x03, 0xF7, 0x02, 0xF0, 0x09, 0x43, 0x10, 0x4C, 0x02, 0x01, 0x46, 0x27, 0x08, 0xF7, 0x02, 0xF0, 0x09, 0x43, 0x10, 
	0x4C, 0x02, 0x01, 0x48, 0x27, 0x08, 0xF7, 0x02, 0xF0, 0x09, 0x43, 0x10, 0x4C, 0x02, 0x01, 0x4A, 0x00, 0x4A, 0xF7, 0x02, 0xF0, 0x09, 0x43, 0x10, 0x4C, 0x02, 0x01, 0x4C, 0x00, 0x64, 0xF7, 0x02, 0xF0, 0x09, 0x43, 0x10, 0x4C, 0x02, 0x01, 0x4E, 0x00, 0x0A, 0xF7, 0x02, 0xF0, 0x09, 0x43, 0x10, 0x4C, 0x02, 0x01, 0x50, 0x00, 0x00, 0xF7, 0x02, 0xF0, 0x09, 0x43, 0x10, 0x4C, 0x02, 0x01, 0x52, 
	0x00, 0x00, 0xF7, 0x02, 0xF0, 0x09, 0x43, 0x10, 0x4C, 0x02, 0x01, 0x54, 0x00, 0x20, 0xF7, 0x02, 0xF0, 0x08, 0x43, 0x10, 0x4C, 0x02, 0x01, 0x56, 0x40, 0xF7, 0x02, 0xF0, 0x08, 0x43, 0x10, 0x4C, 0x02, 0x01, 0x57, 0x40, 0xF7, 0x02, 0xF0, 0x08, 0x43, 0x10, 0x4C, 0x02, 0x01, 0x58, 0x00, 0xF7, 0x02, 0xF0, 0x08, 0x43, 0x10, 0x4C, 0x02, 0x01, 0x59, 0x00, 0xF7, 0x02, 0xF0, 0x08, 0x43, 0x10, 
	0x4C, 0x02, 0x01, 0x5A, 0x00, 0xF7, 0x02, 0xF0, 0x08, 0x43, 0x10, 0x4C, 0x02, 0x01, 0x5B, 0x7F, 0xF7, 0x02, 0xB0, 0x00, 0x00, 0x02, 0xB0, 0x20, 0x00, 0x02, 0xC0, 0x00, 0x02, 0xB0, 0x07, 0x64, 0x02, 0xB0, 0x0A, 0x40, 0x02, 0xB0, 0x0B, 0x7F, 0x02, 0xB0, 0x5B, 0x28, 0x02, 0xB0, 0x5D, 0x00, 0x02, 0xB0, 0x5E, 0x00, 0x02, 0xB0, 0x4A, 0x40, 0x02, 0xB0, 0x47, 0x40, 0x02, 0xB0, 0x49, 0x40, 
	0x02, 0xB0, 0x63, 0x01, 0x02, 0xB0, 0x62, 0x64, 0x02, 0xB0, 0x06, 0x40, 0x02, 0xB0, 0x48, 0x40, 0x02, 0xB0, 0x65, 0x00, 0x02, 0xB0, 0x64, 0x00, 0x02, 0xB0, 0x06, 0x02, 0x02, 0xB0, 0x63, 0x01, 0x02, 0xB0, 0x62, 0x08, 0x02, 0xB0, 0x06, 0x40, 0x02, 0xB0, 0x63, 0x01, 0x02, 0xB0, 0x62, 0x09, 0x02, 0xB0, 0x06, 0x40, 0x02, 0xB0, 0x63, 0x01, 0x02, 0xB0, 0x62, 0x0A, 0x02, 0xB0, 0x06, 0x40, 
	0x02, 0xB0, 0x65, 0x7F, 0x02, 0xB0, 0x64, 0x7F, 0x04, 0xB1, 0x00, 0x00, 0x02, 0xB1, 0x20, 0x00, 0x02, 0xC1, 0x22, 0x02, 0xB1, 0x07, 0x5A, 0x02, 0xB1, 0x0A, 0x40, 0x02, 0xB1, 0x0B, 0x7F, 0x02, 0xB1, 0x5B, 0x00, 0x02, 0xB1, 0x5D, 0x00, 0x02, 0xB1, 0x5E, 0x00, 0x02, 0xB1, 0x4A, 0x40, 0x02, 0xB1, 0x47, 0x40, 0x02, 0xB1, 0x49, 0x40, 0x02, 0xB1, 0x63, 0x01, 0x02, 0xB1, 0x62, 0x64, 0x02, 
	0xB1, 0x06, 0x40, 0x02, 0xB1, 0x48, 0x40, 0x02, 0xB1, 0x65, 0x00, 0x02, 0xB1, 0x64, 0x00, 0x02, 0xB1, 0x06, 0x02, 0x02, 0xB1, 0x63, 0x01, 0x02, 0xB1, 0x62, 0x08, 0x02, 0xB1, 0x06, 0x40, 0x02, 0xB1, 0x63, 0x01, 0x02, 0xB1, 0x62, 0x09, 0x02, 0xB1, 0x06, 0x40, 0x02, 0xB1, 0x63, 0x01, 0x02, 0xB1, 0x62, 0x0A, 0x02, 0xB1, 0x06, 0x40, 0x02, 0xB1, 0x65, 0x7F, 0x02, 0xB1, 0x64, 0x7F, 0x04, 
	0xB2, 0x00, 0x00, 0x02, 0xB2, 0x20, 0x01, 0x02, 0xC2, 0x06, 0x02, 0xB2, 0x07, 0x71, 0x02, 0xB2, 0x0A, 0x40, 0x02, 0xB2, 0x0B, 0x7F, 0x02, 0xB2, 0x5B, 0x3C, 0x02, 0xB2, 0x5D, 0x28, 0x02, 0xB2, 0x5E, 0x00, 0x02, 0xB2, 0x4A, 0x40, 0x02, 0xB2, 0x47, 0x40, 0x02, 0xB2, 0x49, 0x40, 0x02, 0xB2, 0x63, 0x01, 0x02, 0xB2, 0x62, 0x64, 0x02, 0xB2, 0x06, 0x40, 0x02, 0xB2, 0x48, 0x40, 0x02, 0xB2, 
	0x65, 0x00, 0x02, 0xB2, 0x64, 0x00, 0x02, 0xB2, 0x06, 0x02, 0x02, 0xB2, 0x63, 0x01, 0x02, 0xB2, 0x62, 0x08, 0x02, 0xB2, 0x06, 0x40, 0x02, 0xB2, 0x63, 0x01, 0x02, 0xB2, 0x62, 0x09, 0x02, 0xB2, 0x06, 0x40, 0x02, 0xB2, 0x63, 0x01, 0x02, 0xB2, 0x62, 0x0A, 0x02, 0xB2, 0x06, 0x40, 0x02, 0xB2, 0x65, 0x7F, 0x02, 0xB2, 0x64, 0x7F, 0x04, 0xB3, 0x00, 0x00, 0x00, 0xB4, 0x00, 0x00, 0x02, 0xB3, 
	0x20, 0x00, 0x00, 0xB4, 0x20, 0x00, 0x02, 0xC3, 0x0B, 0x00, 0xC4, 0x0B, 0x02, 0xB3, 0x07, 0x7F, 0x00, 0xB4, 0x07, 0x50, 0x02, 0xB3, 0x0A, 0x40, 0x00, 0xB4, 0x0A, 0x40, 0x02, 0xB3, 0x0B, 0x7F, 0x00, 0xB4, 0x0B, 0x7F, 0x02, 0xB3, 0x5B, 0x28, 0x00, 0xB4, 0x5B, 0x50, 0x02, 0xB3, 0x5D, 0x00, 0x02, 0xB3, 0x5E, 0x00, 0x02, 0xB3, 0x4A, 0x40, 0x02, 0xB3, 0x47, 0x40, 0x02, 0xB3, 0x49, 0x40, 
	0x02, 0xB3, 0x63, 0x01, 0x02, 0xB3, 0x62, 0x64, 0x02, 0xB3, 0x06, 0x40, 0x02, 0xB3, 0x48, 0x40, 0x02, 0xB3, 0x65, 0x00, 0x02, 0xB3, 0x64, 0x00, 0x02, 0xB3, 0x06, 0x02, 0x02, 0xB3, 0x63, 0x01, 0x02, 0xB3, 0x62, 0x08, 0x02, 0xB3, 0x06, 0x40, 0x02, 0xB3, 0x63, 0x01, 0x02, 0xB3, 0x62, 0x09, 0x02, 0xB3, 0x06, 0x40, 0x02, 0xB3, 0x63, 0x01, 0x02, 0xB3, 0x62, 0x0A, 0x02, 0xB3, 0x06, 0x40, 
	0x02, 0xE3, 0x54, 0x3D, 0x00, 0xB3, 0x65, 0x7F, 0x02, 0xB3, 0x64, 0x7F, 0x42, 0xB5, 0x00, 0x00, 0x02, 0xB5, 0x20, 0x00, 0x02, 0xC5, 0x30, 0x02, 0xB5, 0x07, 0x50, 0x02, 0xB5, 0x0A, 0x5A, 0x02, 0xB5, 0x0B, 0x7F, 0x02, 0xB5, 0x5B, 0x5A, 0x02, 0xB5, 0x5D, 0x28, 0x02, 0xB5, 0x5E, 0x00, 0x02, 0xB5, 0x4A, 0x40, 0x02, 0xB5, 0x47, 0x40, 0x02, 0xB5, 0x49, 0x40, 0x02, 0xB5, 0x63, 0x01, 0x02, 
	0xB5, 0x62, 0x64, 0x02, 0xB5, 0x06, 0x40, 0x02, 0xB5, 0x48, 0x40, 0x02, 0xB5, 0x65, 0x00, 0x02, 0xB5, 0x64, 0x00, 0x02, 0xB5, 0x06, 0x02, 0x02, 0xB5, 0x63, 0x01, 0x02, 0xB5, 0x62, 0x08, 0x02, 0xB5, 0x06, 0x40, 0x02, 0xB5, 0x63, 0x01, 0x02, 0xB5, 0x62, 0x09, 0x02, 0xB5, 0x06, 0x40, 0x02, 0xB5, 0x63, 0x01, 0x02, 0xB5, 0x62, 0x0A, 0x02, 0xB5, 0x06, 0x40, 0x02, 0xB5, 0x65, 0x7F, 0x02, 
	0xB5, 0x64, 0x7F, 0x04, 0xB6, 0x00, 0x00, 0x02, 0xB6, 0x20, 0x00, 0x02, 0xC6, 0x32, 0x02, 0xB6, 0x07, 0x46, 0x02, 0xB6, 0x0A, 0x40, 0x02, 0xB6, 0x0B, 0x7F, 0x02, 0xB6, 0x5B, 0x46, 0x02, 0xB6, 0x5D, 0x1E, 0x02, 0xB6, 0x5E, 0x00, 0x02, 0xB6, 0x4A, 0x40, 0x02, 0xB6, 0x47, 0x40, 0x02, 0xB6, 0x49, 0x40, 0x02, 0xB6, 0x63, 0x01, 0x02, 0xB6, 0x62, 0x64, 0x02, 0xB6, 0x06, 0x40, 0x02, 0xB6, 
	0x48, 0x40, 0x02, 0xB6, 0x65, 0x00, 0x02, 0xB6, 0x64, 0x00, 0x02, 0xB6, 0x06, 0x02, 0x02, 0xB6, 0x63, 0x01, 0x02, 0xB6, 0x62, 0x08, 0x02, 0xB6, 0x06, 0x40, 0x02, 0xB6, 0x63, 0x01, 0x02, 0xB6, 0x62, 0x09, 0x02, 0xB6, 0x06, 0x40, 0x02, 0xB6, 0x63, 0x01, 0x02, 0xB6, 0x62, 0x0A, 0x02, 0xB6, 0x06, 0x40, 0x02, 0xB6, 0x65, 0x7F, 0x02, 0xB6, 0x64, 0x7F, 0x04, 0xB7, 0x00, 0x00, 0x02, 0xB7, 
	0x20, 0x29, 0x02, 0xC7, 0x62, 0x02, 0xB7, 0x07, 0x6E, 0x02, 0xB7, 0x0A, 0x1E, 0x02, 0xB7, 0x0B, 0x7F, 0x02, 0xB7, 0x5B, 0x28, 0x02, 0xB7, 0x5D, 0x7F, 0x02, 0xB7, 0x5E, 0x00, 0x02, 0xB7, 0x4A, 0x40, 0x02, 0xB7, 0x47, 0x40, 0x02, 0xB7, 0x49, 0x40, 0x02, 0xB7, 0x63, 0x01, 0x02, 0xB7, 0x62, 0x64, 0x02, 0xB7, 0x06, 0x40, 0x02, 0xB7, 0x48, 0x40, 0x02, 0xB7, 0x65, 0x00, 0x02, 0xB7, 0x64, 
	0x00, 0x02, 0xB7, 0x06, 0x02, 0x02, 0xB7, 0x63, 0x01, 0x02, 0xB7, 0x62, 0x08, 0x02, 0xB7, 0x06, 0x40, 0x02, 0xB7, 0x63, 0x01, 0x02, 0xB7, 0x62, 0x09, 0x02, 0xB7, 0x06, 0x40, 0x02, 0xB7, 0x63, 0x01, 0x02, 0xB7, 0x62, 0x0A, 0x02, 0xB7, 0x06, 0x40, 0x02, 0xB7, 0x65, 0x7F, 0x02, 0xB7, 0x64, 0x7F, 0x04, 0xB8, 0x00, 0x00, 0x02, 0xB8, 0x20, 0x00, 0x02, 0xC8, 0x00, 0x02, 0xB8, 0x07, 0x64, 
	0x02, 0xB8, 0x0A, 0x40, 0x02, 0xB8, 0x0B, 0x7F, 0x02, 0xB8, 0x5B, 0x28, 0x02, 0xB8, 0x5D, 0x00, 0x02, 0xB8, 0x5E, 0x00, 0x02, 0xB8, 0x4A, 0x40, 0x02, 0xB8, 0x47, 0x40, 0x02, 0xB8, 0x49, 0x40, 0x02, 0xB4, 0x5D, 0x00, 0x00, 0xB8, 0x63, 0x01, 0x02, 0xB4, 0x5E, 0x00, 0x00, 0xB8, 0x62, 0x64, 0x02, 0xB4, 0x4A, 0x40, 0x00, 0xB8, 0x06, 0x40, 0x02, 0xB4, 0x47, 0x40, 0x00, 0xB8, 0x48, 0x40, 
	0x02, 0xB4, 0x49, 0x40, 0x00, 0xB8, 0x65, 0x00, 0x02, 0xB4, 0x63, 0x01, 0x00, 0xB8, 0x64, 0x00, 0x02, 0xB4, 0x62, 0x64, 0x00, 0xB8, 0x06, 0x02, 0x02, 0xB4, 0x06, 0x40, 0x00, 0xB8, 0x63, 0x01, 0x02, 0xB4, 0x48, 0x40, 0x00, 0xB8, 0x62, 0x08, 0x02, 0xB4, 0x65, 0x00, 0x00, 0xB8, 0x06, 0x40, 0x02, 0xB4, 0x64, 0x00, 0x00, 0xB8, 0x63, 0x01, 0x02, 0xB4, 0x06, 0x02, 0x00, 0xB8, 0x62, 0x09, 
	0x02, 0xB4, 0x63, 0x01, 0x00, 0xB8, 0x06, 0x40, 0x02, 0xB4, 0x62, 0x08, 0x00, 0xB8, 0x63, 0x01, 0x02, 0xB4, 0x06, 0x40, 0x00, 0xB8, 0x62, 0x0A, 0x02, 0xB4, 0x63, 0x01, 0x00, 0xB8, 0x06, 0x40, 0x02, 0xB4, 0x62, 0x09, 0x00, 0xB8, 0x65, 0x7F, 0x02, 0xB4, 0x06, 0x40, 0x00, 0xB8, 0x64, 0x7F, 0x02, 0xB4, 0x63, 0x01, 0x02, 0xB4, 0x62, 0x0A, 0x00, 0xB9, 0x00, 0x7F, 0x02, 0xB4, 0x06, 0x40, 
	0x00, 0xB9, 0x20, 0x00, 0x02, 0xE4, 0x2C, 0x42, 0x00, 0xB4, 0x65, 0x7F, 0x00, 0xC9, 0x01, 0x02, 0xB4, 0x64, 0x7F, 0x00, 0xB9, 0x07, 0x64, 0x02, 0xB9, 0x0A, 0x40, 0x02, 0xB9, 0x0B, 0x7F, 0x02, 0xB9, 0x5B, 0x3C, 0x02, 0xB9, 0x5D, 0x00, 0x02, 0xB9, 0x5E, 0x00, 0x02, 0xB9, 0x63, 0x14, 0x02, 0xB9, 0x62, 0x28, 0x02, 0xB9, 0x06, 0x40, 0x02, 0xB9, 0x63, 0x15, 0x02, 0xB9, 0x62, 0x28, 0x02, 
	0xB9, 0x06, 0x40, 0x02, 0xB9, 0x63, 0x16, 0x02, 0xB9, 0x62, 0x28, 0x02, 0xB9, 0x06, 0x40, 0x02, 0xB9, 0x63, 0x17, 0x02, 0xB9, 0x62, 0x28, 0x02, 0xB9, 0x06, 0x40, 0x02, 0xB9, 0x63, 0x18, 0x02, 0xB9, 0x62, 0x28, 0x02, 0xB9, 0x06, 0x40, 0x02, 0xB9, 0x63, 0x19, 0x02, 0xB9, 0x62, 0x28, 0x02, 0xB9, 0x06, 0x40, 0x02, 0xB9, 0x63, 0x1A, 0x02, 0xB9, 0x62, 0x28, 0x02, 0xB9, 0x06, 0x7B, 0x02, 
	0xB9, 0x63, 0x1C, 0x02, 0xB9, 0x62, 0x28, 0x02, 0xB9, 0x06, 0x40, 0x02, 0xB9, 0x63, 0x1D, 0x02, 0xB9, 0x62, 0x28, 0x02, 0xB9, 0x06, 0x7F, 0x02, 0xB9, 0x63, 0x1E, 0x02, 0xB9, 0x62, 0x28, 0x02, 0xB9, 0x06, 0x7F, 0x02, 0xB9, 0x63, 0x1F, 0x02, 0xB9, 0x62, 0x28, 0x02, 0xB9, 0x06, 0x7F, 0x02, 0xB9, 0x65, 0x7F, 0x02, 0xB9, 0x64, 0x7F, 0x04, 0xBA, 0x00, 0x00, 0x02, 0xBA, 0x20, 0x00, 0x02, 
	0xCA, 0x00, 0x02, 0xBA, 0x07, 0x64, 0x02, 0xBA, 0x0A, 0x40, 0x02, 0xBA, 0x0B, 0x7F, 0x02, 0xBA, 0x5B, 0x28, 0x02, 0xBA, 0x5D, 0x00, 0x02, 0xBA, 0x5E, 0x00, 0x02, 0xBA, 0x4A, 0x40, 0x02, 0xBA, 0x47, 0x40, 0x02, 0xBA, 0x49, 0x40, 0x02, 0xBA, 0x63, 0x01, 0x02, 0xBA, 0x62, 0x64, 0x02, 0xBA, 0x06, 0x40, 0x02, 0xBA, 0x48, 0x40, 0x02, 0xBA, 0x65, 0x00, 0x02, 0xBA, 0x64, 0x00, 0x02, 0xBA, 
	0x06, 0x02, 0x02, 0xBA, 0x63, 0x01, 0x02, 0xBA, 0x62, 0x08, 0x02, 0xBA, 0x06, 0x40, 0x02, 0xBA, 0x63, 0x01, 0x02, 0xBA, 0x62, 0x09, 0x02, 0xBA, 0x06, 0x40, 0x02, 0xBA, 0x63, 0x01, 0x02, 0xBA, 0x62, 0x0A, 0x02, 0xBA, 0x06, 0x40, 0x02, 0xBA, 0x65, 0x7F, 0x02, 0xBA, 0x64, 0x7F, 0x04, 0xBB, 0x00, 0x00, 0x02, 0xBB, 0x20, 0x00, 0x02, 0xCB, 0x00, 0x02, 0xBB, 0x07, 0x64, 0x02, 0xBB, 0x0A, 
	0x40, 0x02, 0xBB, 0x0B, 0x7F, 0x02, 0xBB, 0x5B, 0x28, 0x02, 0xBB, 0x5D, 0x00, 0x02, 0xBB, 0x5E, 0x00, 0x02, 0xBB, 0x4A, 0x40, 0x02, 0xBB, 0x47, 0x40, 0x02, 0xBB, 0x49, 0x40, 0x02, 0xBB, 0x63, 0x01, 0x02, 0xBB, 0x62, 0x64, 0x02, 0xBB, 0x06, 0x40, 0x02, 0xBB, 0x48, 0x40, 0x02, 0xBB, 0x65, 0x00, 0x02, 0xBB, 0x64, 0x00, 0x02, 0xBB, 0x06, 0x02, 0x02, 0xBB, 0x63, 0x01, 0x02, 0xBB, 0x62, 
	0x08, 0x02, 0xBB, 0x06, 0x40, 0x02, 0xBB, 0x63, 0x01, 0x02, 0xBB, 0x62, 0x09, 0x02, 0xBB, 0x06, 0x40, 0x02, 0xBB, 0x63, 0x01, 0x02, 0xBB, 0x62, 0x0A, 0x02, 0xBB, 0x06, 0x40, 0x02, 0xBB, 0x65, 0x7F, 0x02, 0xBB, 0x64, 0x7F, 0x04, 0xBC, 0x00, 0x00, 0x02, 0xBC, 0x20, 0x00, 0x02, 0xCC, 0x00, 0x02, 0xBC, 0x07, 0x64, 0x02, 0xBC, 0x0A, 0x40, 0x02, 0xBC, 0x0B, 0x7F, 0x02, 0xBC, 0x5B, 0x28, 
	0x02, 0xBC, 0x5D, 0x00, 0x02, 0xBC, 0x5E, 0x00, 0x02, 0xBC, 0x4A, 0x40, 0x02, 0xBC, 0x47, 0x40, 0x02, 0xBC, 0x49, 0x40, 0x02, 0xBC, 0x63, 0x01, 0x02, 0xBC, 0x62, 0x64, 0x02, 0xBC, 0x06, 0x40, 0x02, 0xBC, 0x48, 0x40, 0x02, 0xBC, 0x65, 0x00, 0x02, 0xBC, 0x64, 0x00, 0x02, 0xBC, 0x06, 0x02, 0x02, 0xBC, 0x63, 0x01, 0x02, 0xBC, 0x62, 0x08, 0x02, 0xBC, 0x06, 0x40, 0x02, 0xBC, 0x63, 0x01, 
	0x02, 0xBC, 0x62, 0x09, 0x02, 0xBC, 0x06, 0x40, 0x02, 0xBC, 0x63, 0x01, 0x02, 0xBC, 0x62, 0x0A, 0x02, 0xBC, 0x06, 0x40, 0x02, 0xBC, 0x65, 0x7F, 0x02, 0xBC, 0x64, 0x7F, 0x04, 0xBD, 0x00, 0x00, 0x02, 0xBD, 0x20, 0x00, 0x02, 0xCD, 0x00, 0x02, 0xBD, 0x07, 0x64, 0x02, 0xBD, 0x0A, 0x40, 0x02, 0xBD, 0x0B, 0x7F, 0x02, 0xBD, 0x5B, 0x28, 0x02, 0xBD, 0x5D, 0x00, 0x02, 0xBD, 0x5E, 0x00, 0x02, 
	0xBD, 0x4A, 0x40, 0x02, 0xBD, 0x47, 0x40, 0x02, 0xBD, 0x49, 0x40, 0x02, 0xBD, 0x63, 0x01, 0x02, 0xBD, 0x62, 0x64, 0x02, 0xBD, 0x06, 0x40, 0x02, 0xBD, 0x48, 0x40, 0x02, 0xBD, 0x65, 0x00, 0x02, 0xBD, 0x64, 0x00, 0x02, 0xBD, 0x06, 0x02, 0x02, 0xBD, 0x63, 0x01, 0x02, 0xBD, 0x62, 0x08, 0x02, 0xBD, 0x06, 0x40, 0x02, 0xBD, 0x63, 0x01, 0x02, 0xBD, 0x62, 0x09, 0x02, 0xBD, 0x06, 0x40, 0x02, 
	0xBD, 0x63, 0x01, 0x02, 0xBD, 0x62, 0x0A, 0x02, 0xBD, 0x06, 0x40, 0x02, 0xBD, 0x65, 0x7F, 0x02, 0xBD, 0x64, 0x7F, 0x04, 0xBE, 0x00, 0x00, 0x02, 0xBE, 0x20, 0x00, 0x02, 0xCE, 0x00, 0x02, 0xBE, 0x07, 0x64, 0x02, 0xBE, 0x0A, 0x40, 0x02, 0xBE, 0x0B, 0x7F, 0x02, 0xBE, 0x5B, 0x28, 0x02, 0xBE, 0x5D, 0x00, 0x02, 0xBE, 0x5E, 0x00, 0x02, 0xBE, 0x4A, 0x40, 0x02, 0xBE, 0x47, 0x40, 0x02, 0xBE, 
	0x49, 0x40, 0x02, 0xBE, 0x63, 0x01, 0x02, 0xBE, 0x62, 0x64, 0x02, 0xBE, 0x06, 0x40, 0x02, 0xBE, 0x48, 0x40, 0x02, 0xBE, 0x65, 0x00, 0x02, 0xBE, 0x64, 0x00, 0x02, 0xBE, 0x06, 0x02, 0x02, 0xBE, 0x63, 0x01, 0x02, 0xBE, 0x62, 0x08, 0x02, 0xBE, 0x06, 0x40, 0x02, 0xBE, 0x63, 0x01, 0x02, 0xBE, 0x62, 0x09, 0x02, 0xBE, 0x06, 0x40, 0x02, 0xBE, 0x63, 0x01, 0x02, 0xBE, 0x62, 0x0A, 0x02, 0xBE, 
	0x06, 0x40, 0x02, 0xBE, 0x65, 0x7F, 0x02, 0xBE, 0x64, 0x7F, 0x04, 0xBF, 0x00, 0x00, 0x02, 0xBF, 0x20, 0x00, 0x02, 0xCF, 0x00, 0x02, 0xBF, 0x07, 0x64, 0x02, 0xBF, 0x0A, 0x40, 0x02, 0xBF, 0x0B, 0x7F, 0x02, 0xBF, 0x5B, 0x28, 0x02, 0xBF, 0x5D, 0x00, 0x02, 0xBF, 0x5E, 0x00, 0x02, 0xBF, 0x4A, 0x40, 0x02, 0xBF, 0x47, 0x40, 0x02, 0xBF, 0x49, 0x40, 0x02, 0xBF, 0x63, 0x01, 0x02, 0xBF, 0x62, 
	0x64, 0x02, 0xBF, 0x06, 0x40, 0x02, 0xBF, 0x48, 0x40, 0x02, 0xBF, 0x65, 0x00, 0x02, 0xBF, 0x64, 0x00, 0x02, 0xBF, 0x06, 0x02, 0x02, 0xBF, 0x63, 0x01, 0x02, 0xBF, 0x62, 0x08, 0x02, 0xBF, 0x06, 0x40, 0x02, 0xBF, 0x63, 0x01, 0x02, 0xBF, 0x62, 0x09, 0x02, 0xBF, 0x06, 0x40, 0x02, 0xBF, 0x63, 0x01, 0x02, 0xBF, 0x62, 0x0A, 0x02, 0xBF, 0x06, 0x40, 0x02, 0xBF, 0x65, 0x7F, 0x02, 0xBF, 0x64, 
	0x7F, 0x81, 0x64, 0x99, 0x24, 0x6A, 0x01, 0x99, 0x24, 0x00, 0x81, 0x1F, 0x99, 0x28, 0x6A, 0x01, 0x99, 0x28, 0x00, 0x81, 0x1F, 0x99, 0x30, 0x6A, 0x01, 0x99, 0x30, 0x00, 0x81, 0x1F, 0x99, 0x30, 0x6A, 0x01, 0x99, 0x30, 0x00, 0x81, 0x1F, 0x99, 0x2D, 0x6A, 0x01, 0x99, 0x2D, 0x00, 0x81, 0x1F, 0x99, 0x29, 0x6A, 0x01, 0x99, 0x29, 0x00, 0x81, 0x1F, 0x91, 0x24, 0x79, 0x00, 0x92, 0x40, 0x7F, 
	0x00, 0x92, 0x43, 0x7F, 0x00, 0x92, 0x4A, 0x7F, 0x00, 0xB3, 0x20, 0x00, 0x00, 0xC3, 0x0B, 0x00, 0x99, 0x31, 0x4E, 0x00, 0x99, 0x24, 0x6A, 0x01, 0x99, 0x31, 0x00, 0x00, 0x99, 0x24, 0x00, 0x82, 0x2B, 0x91, 0x24, 0x00, 0x00, 0x92, 0x40, 0x00, 0x00, 0x92, 0x43, 0x00, 0x00, 0x92, 0x4A, 0x00, 0x14, 0xB4, 0x20, 0x00, 0x00, 0xC4, 0x0B, 0x81, 0x20, 0x99, 0x2A, 0x4E, 0x00, 0x99, 0x28, 0x6A, 
	0x01, 0x99, 0x2A, 0x00, 0x00, 0x99, 0x28, 0x00, 0x81, 0x1F, 0x99, 0x2A, 0x32, 0x01, 0x99, 0x2A, 0x00, 0x81, 0x1F, 0x91, 0x24, 0x79, 0x00, 0x92, 0x40, 0x7F, 0x00, 0x92, 0x43, 0x7F, 0x00, 0x92, 0x4A, 0x7F, 0x00, 0x99, 0x2A, 0x32, 0x00, 0x99, 0x24, 0x4E, 0x01, 0x99, 0x2A, 0x00, 0x00, 0x99, 0x24, 0x00, 0x81, 0x11, 0x91, 0x24, 0x00, 0x00, 0x92, 0x40, 0x00, 0x00, 0x92, 0x43, 0x00, 0x00, 
	0x92, 0x4A, 0x00, 0x0E, 0x91, 0x24, 0x79, 0x00, 0x92, 0x40, 0x7F, 0x00, 0x92, 0x43, 0x7F, 0x00, 0x92, 0x48, 0x7F, 0x00, 0x99, 0x2A, 0x4E, 0x00, 0x99, 0x24, 0x6A, 0x01, 0x99, 0x2A, 0x00, 0x00, 0x99, 0x24, 0x00, 0x81, 0x1F, 0x99, 0x2A, 0x32, 0x01, 0x99, 0x2A, 0x00, 0x81, 0x0B, 0x91, 0x24, 0x00, 0x00, 0x92, 0x40, 0x00, 0x00, 0x92, 0x43, 0x00, 0x00, 0x92, 0x48, 0x00, 0x14, 0x91, 0x24, 
	0x79, 0x00, 0x92, 0x40, 0x7F, 0x00, 0x92, 0x43, 0x7F, 0x00, 0x92, 0x48, 0x7F, 0x00, 0x99, 0x2A, 0x32, 0x00, 0x99, 0x24, 0x6A, 0x01, 0x99, 0x2A, 0x00, 0x00, 0x99, 0x24, 0x00, 0x81, 0x11, 0x91, 0x24, 0x00, 0x00, 0x92, 0x40, 0x00, 0x00, 0x92, 0x43, 0x00, 0x00, 0x92, 0x48, 0x00, 0x0E, 0x99, 0x2A, 0x4E, 0x00, 0x99, 0x28, 0x6A, 0x01, 0x99, 0x2A, 0x00, 0x00, 0x99, 0x28, 0x00, 0x81, 0x1F, 
	0x99, 0x2A, 0x32, 0x01, 0x99, 0x2A, 0x00, 0x81, 0x1F, 0x91, 0x28, 0x79, 0x00, 0x92, 0x40, 0x7F, 0x00, 0x92, 0x43, 0x7F, 0x00, 0x92, 0x4A, 0x7F, 0x00, 0x99, 0x2A, 0x32, 0x00, 0x99, 0x24, 0x4E, 0x01, 0x99, 0x2A, 0x00, 0x00, 0x99, 0x24, 0x00, 0x81, 0x11, 0x91, 0x28, 0x00, 0x00, 0x92, 0x40, 0x00, 0x00, 0x92, 0x43, 0x00, 0x00, 0x92, 0x4A, 0x00, 0x0E, 0x99, 0x2A, 0x4E, 0x01, 0x99, 0x2A, 
	0x00, 0x81, 0x1F, 0x99, 0x2A, 0x32, 0x01, 0x99, 0x2A, 0x00, 0x81, 0x1F, 0x91, 0x28, 0x79, 0x00, 0x92, 0x40, 0x7F, 0x00, 0x92, 0x43, 0x7F, 0x00, 0x92, 0x4A, 0x7F, 0x00, 0x99, 0x2A, 0x32, 0x00, 0x99, 0x24, 0x4E, 0x01, 0x99, 0x2A, 0x00, 0x00, 0x99, 0x24, 0x00, 0x81, 0x11, 0x91, 0x28, 0x00, 0x0E, 0x99, 0x2A, 0x4E, 0x00, 0x99, 0x28, 0x6A, 0x01, 0x99, 0x2A, 0x00, 0x00, 0x99, 0x28, 0x00, 
	0x09, 0x92, 0x40, 0x00, 0x00, 0x92, 0x43, 0x00, 0x00, 0x92, 0x4A, 0x00, 0x81, 0x16, 0x99, 0x2A, 0x32, 0x01, 0x99, 0x2A, 0x00, 0x81, 0x1F, 0x91, 0x28, 0x79, 0x00, 0x92, 0x40, 0x7F, 0x00, 0x92, 0x43, 0x7F, 0x00, 0x92, 0x48, 0x7F, 0x00, 0x99, 0x2A, 0x32, 0x00, 0x99, 0x24, 0x4E, 0x01, 0x99, 0x2A, 0x00, 0x00, 0x99, 0x24, 0x00, 0x81, 0x11, 0x91, 0x28, 0x00, 0x00, 0x92, 0x40, 0x00, 0x00, 
	0x92, 0x43, 0x00, 0x00, 0x92, 0x48, 0x00, 0x0E, 0x91, 0x28, 0x79, 0x00, 0x92, 0x40, 0x7F, 0x00, 0x92, 0x43, 0x7F, 0x00, 0x92, 0x48, 0x7F, 0x00, 0x99, 0x2A, 0x4E, 0x00, 0x99, 0x24, 0x6A, 0x01, 0x99, 0x2A, 0x00, 0x00, 0x99, 0x24, 0x00, 0x81, 0x1F, 0x99, 0x2A, 0x32, 0x01, 0x99, 0x2A, 0x00, 0x81, 0x0B, 0x91, 0x28, 0x00, 0x14, 0x91, 0x28, 0x79, 0x00, 0x99, 0x2A, 0x32, 0x01, 0x99, 0x2A, 
	0x00, 0x81, 0x11, 0x91, 0x28, 0x00, 0x0E, 0x91, 0x28, 0x79, 0x00, 0x99, 0x2E, 0x4E, 0x00, 0x99, 0x28, 0x6A, 0x01, 0x99, 0x2E, 0x00, 0x00, 0x99, 0x28, 0x00, 0x81, 0x11, 0x91, 0x28, 0x00, 0x0E, 0x91, 0x26, 0x79, 0x00, 0x99, 0x2A, 0x4E, 0x01, 0x99, 0x2A, 0x00, 0x81, 0x11, 0x91, 0x26, 0x00, 0x0E, 0x91, 0x28, 0x79, 0x00, 0x99, 0x2A, 0x32, 0x01, 0x99, 0x2A, 0x00, 0x77, 0x92, 0x40, 0x00, 
	0x00, 0x92, 0x43, 0x00, 0x00, 0x92, 0x48, 0x00, 0x1A, 0x91, 0x28, 0x00, 0x0E, 0x91, 0x29, 0x79, 0x00, 0x92, 0x41, 0x7F, 0x00, 0x92, 0x45, 0x7F, 0x00, 0x92, 0x4A, 0x7F, 0x00, 0x99, 0x2A, 0x4E, 0x00, 0x99, 0x24, 0x6A, 0x01, 0x99, 0x2A, 0x00, 0x00, 0x99, 0x24, 0x00, 0x81, 0x1F, 0x99, 0x2A, 0x32, 0x01, 0x99, 0x2A, 0x00, 0x81, 0x0B, 0x91, 0x29, 0x00, 0x00, 0x92, 0x41, 0x00, 0x00, 0x92, 
	0x45, 0x00, 0x00, 0x92, 0x4A, 0x00, 0x14, 0x99, 0x2A, 0x32, 0x01, 0x99, 0x2A, 0x00, 0x81, 0x1F, 0x99, 0x2A, 0x4E, 0x00, 0x99, 0x28, 0x6A, 0x01, 0x99, 0x2A, 0x00, 0x00, 0x99, 0x28, 0x00, 0x81, 0x1F, 0x99, 0x2A, 0x32, 0x01, 0x99, 0x2A, 0x00, 0x81, 0x1F, 0x91, 0x29, 0x79, 0x00, 0x92, 0x41, 0x7F, 0x00, 0x92, 0x45, 0x7F, 0x00, 0x92, 0x4A, 0x7F, 0x00, 0x99, 0x2A, 0x32, 0x00, 0x99, 0x24, 
	0x4E, 0x01, 0x99, 0x2A, 0x00, 0x00, 0x99, 0x24, 0x00, 0x81, 0x11, 0x91, 0x29, 0x00, 0x00, 0x92, 0x41, 0x00, 0x00, 0x92, 0x45, 0x00, 0x00, 0x92, 0x4A, 0x00, 0x0E, 0x91, 0x29, 0x79, 0x00, 0x92, 0x41, 0x7F, 0x00, 0x92, 0x45, 0x7F, 0x00, 0x92, 0x48, 0x7F, 0x00, 0x99, 0x2A, 0x4E, 0x00, 0x99, 0x24, 0x6A, 0x01, 0x99, 0x2A, 0x00, 0x00, 0x99, 0x24, 0x00, 0x81, 0x1F, 0x99, 0x2A, 0x32, 0x01, 
	0x99, 0x2A, 0x00, 0x81, 0x0B, 0x91, 0x29, 0x00, 0x00, 0x92, 0x41, 0x00, 0x00, 0x92, 0x45, 0x00, 0x00, 0x92, 0x48, 0x00, 0x14, 0x91, 0x29, 0x79, 0x00, 0x92, 0x41, 0x7F, 0x00, 0x92, 0x45, 0x7F, 0x00, 0x92, 0x48, 0x7F, 0x00, 0x99, 0x2A, 0x32, 0x00, 0x99, 0x24, 0x6A, 0x01, 0x99, 0x2A, 0x00, 0x00, 0x99, 0x24, 0x00, 0x81, 0x11, 0x91, 0x29, 0x00, 0x00, 0x92, 0x41, 0x00, 0x00, 0x92, 0x45, 
	0x00, 0x00, 0x92, 0x48, 0x00, 0x0E, 0x99, 0x2A, 0x4E, 0x00, 0x99, 0x28, 0x6A, 0x01, 0x99, 0x2A, 0x00, 0x00, 0x99, 0x28, 0x00, 0x81, 0x1F, 0x99, 0x2A, 0x32, 0x01, 0x99, 0x2A, 0x00, 0x81, 0x1F, 0x91, 0x2C, 0x79, 0x00, 0x92, 0x41, 0x7F, 0x00, 0x92, 0x44, 0x7F, 0x00, 0x92, 0x4A, 0x7F, 0x00, 0x99, 0x2A, 0x32, 0x00, 0x99, 0x24, 0x4E, 0x01, 0x99, 0x2A, 0x00, 0x00, 0x99, 0x24, 0x00, 0x81, 
	0x11, 0x91, 0x2C, 0x00, 0x00, 0x92, 0x41, 0x00, 0x00, 0x92, 0x44, 0x00, 0x00, 0x92, 0x4A, 0x00, 0x0E, 0x99, 0x2A, 0x4E, 0x01, 0x99, 0x2A, 0x00, 0x81, 0x1F, 0x99, 0x2A, 0x32, 0x01, 0x99, 0x2A, 0x00, 0x81, 0x1F, 0x91, 0x2C, 0x79, 0x00, 0x92, 0x41, 0x7F, 0x00, 0x92, 0x44, 0x7F, 0x00, 0x92, 0x4A, 0x7F, 0x00, 0x99, 0x2A, 0x32, 0x00, 0x99, 0x24, 0x4E, 0x01, 0x99, 0x2A, 0x00, 0x00, 0x99, 
	0x24, 0x00, 0x81, 0x11, 0x91, 0x2C, 0x00, 0x0E, 0x99, 0x2A, 0x4E, 0x00, 0x99, 0x28, 0x6A, 0x01, 0x99, 0x2A, 0x00, 0x00, 0x99, 0x28, 0x00, 0x09, 0x92, 0x41, 0x00, 0x00, 0x92, 0x44, 0x00, 0x00, 0x92, 0x4A, 0x00, 0x81, 0x16, 0x99, 0x2A, 0x32, 0x01, 0x99, 0x2A, 0x00, 0x81, 0x1F, 0x91, 0x2C, 0x79, 0x00, 0x92, 0x41, 0x7F, 0x00, 0x92, 0x44, 0x7F, 0x00, 0x92, 0x48, 0x7F, 0x00, 0x99, 0x2A, 
	0x32, 0x00, 0x99, 0x24, 0x4E, 0x01, 0x99, 0x2A, 0x00, 0x00, 0x99, 0x24, 0x00, 0x81, 0x11, 0x91, 0x2C, 0x00, 0x00, 0x92, 0x41, 0x00, 0x00, 0x92, 0x44, 0x00, 0x00, 0x92, 0x48, 0x00, 0x0E, 0x91, 0x2C, 0x79, 0x00, 0x92, 0x41, 0x7F, 0x00, 0x92, 0x44, 0x7F, 0x00, 0x92, 0x48, 0x7F, 0x00, 0x95, 0x45, 0x4B, 0x00, 0x95, 0x51, 0x4B, 0x00, 0x99, 0x2A, 0x4E, 0x00, 0x99, 0x24, 0x6A, 0x01, 0x99, 
	0x2A, 0x00, 0x00, 0x99, 0x24, 0x00, 0x81, 0x1F, 0x95, 0x45, 0x00, 0x00, 0x95, 0x51, 0x00, 0x00, 0x95, 0x47, 0x54, 0x00, 0x95, 0x53, 0x54, 0x00, 0x99, 0x2A, 0x32, 0x01, 0x99, 0x2A, 0x00, 0x81, 0x1F, 0x95, 0x47, 0x00, 0x00, 0x95, 0x53, 0x00, 0x00, 0x95, 0x48, 0x5D, 0x00, 0x95, 0x54, 0x5D, 0x00, 0x99, 0x2A, 0x32, 0x01, 0x99, 0x2A, 0x00, 0x81, 0x01, 0x91, 0x2C, 0x00, 0x00, 0x92, 0x41, 
	0x00, 0x00, 0x92, 0x44, 0x00, 0x00, 0x92, 0x48, 0x00, 0x1E, 0x91, 0x22, 0x79, 0x00, 0x92, 0x41, 0x7F, 0x00, 0x92, 0x44, 0x7F, 0x00, 0x92, 0x4A, 0x7F, 0x00, 0x95, 0x48, 0x00, 0x00, 0x95, 0x54, 0x00, 0x00, 0x95, 0x4A, 0x67, 0x00, 0x95, 0x56, 0x67, 0x00, 0x99, 0x28, 0x6A, 0x01, 0x99, 0x28, 0x00, 0x81, 0x1F, 0x95, 0x4A, 0x00, 0x00, 0x95, 0x56, 0x00, 0x00, 0x95, 0x4C, 0x70, 0x00, 0x95, 
	0x58, 0x70, 0x00, 0x99, 0x30, 0x5C, 0x01, 0x99, 0x30, 0x00, 0x81, 0x1F, 0x95, 0x4C, 0x00, 0x00, 0x95, 0x58, 0x00, 0x00, 0x95, 0x4D, 0x79, 0x00, 0x95, 0x59, 0x79, 0x00, 0x99, 0x2D, 0x5C, 0x01, 0x99, 0x2D, 0x00, 0x81, 0x01, 0x91, 0x22, 0x00, 0x00, 0x92, 0x41, 0x00, 0x00, 0x92, 0x44, 0x00, 0x00, 0x92, 0x4A, 0x00, 0x1E, 0x91, 0x24, 0x79, 0x00, 0x92, 0x40, 0x7F, 0x00, 0x92, 0x43, 0x7F, 
	0x00, 0x92, 0x4A, 0x7F, 0x00, 0x95, 0x4D, 0x00, 0x00, 0x95, 0x59, 0x00, 0x00, 0x95, 0x4F, 0x79, 0x00, 0x95, 0x5B, 0x79, 0x00, 0x99, 0x31, 0x4E, 0x00, 0x99, 0x24, 0x6A, 0x01, 0x99, 0x31, 0x00, 0x00, 0x99, 0x24, 0x00, 0x82, 0x2B, 0x91, 0x24, 0x00, 0x00, 0x92, 0x40, 0x00, 0x00, 0x92, 0x43, 0x00, 0x00, 0x92, 0x4A, 0x00, 0x81, 0x34, 0x99, 0x2A, 0x4E, 0x00, 0x99, 0x28, 0x6A, 0x01, 0x99, 
	0x2A, 0x00, 0x00, 0x99, 0x28, 0x00, 0x81, 0x1F, 0x99, 0x2A, 0x32, 0x01, 0x99, 0x2A, 0x00, 0x81, 0x1F, 0x91, 0x24, 0x79, 0x00, 0x92, 0x40, 0x7F, 0x00, 0x92, 0x43, 0x7F, 0x00, 0x92, 0x4A, 0x7F, 0x00, 0x99, 0x2A, 0x32, 0x00, 0x99, 0x24, 0x4E, 0x01, 0x99, 0x2A, 0x00, 0x00, 0x99, 0x24, 0x00, 0x81, 0x11, 0x91, 0x24, 0x00, 0x00, 0x92, 0x40, 0x00, 0x00, 0x92, 0x43, 0x00, 0x00, 0x92, 0x4A, 
	0x00, 0x0E, 0x91, 0x24, 0x79, 0x00, 0x92, 0x40, 0x7F, 0x00, 0x92, 0x43, 0x7F, 0x00, 0x92, 0x48, 0x7F, 0x00, 0x99, 0x2A, 0x4E, 0x00, 0x99, 0x24, 0x6A, 0x01, 0x99, 0x2A, 0x00, 0x00, 0x99, 0x24, 0x00, 0x81, 0x1F, 0x99, 0x2A, 0x32, 0x01, 0x99, 0x2A, 0x00, 0x81, 0x0B, 0x91, 0x24, 0x00, 0x00, 0x92, 0x40, 0x00, 0x00, 0x92, 0x43, 0x00, 0x00, 0x92, 0x48, 0x00, 0x14, 0x91, 0x24, 0x79, 0x00, 
	0x92, 0x40, 0x7F, 0x00, 0x92, 0x43, 0x7F, 0x00, 0x92, 0x48, 0x7F, 0x00, 0x99, 0x2A, 0x32, 0x00, 0x99, 0x24, 0x6A, 0x01, 0x99, 0x2A, 0x00, 0x00, 0x99, 0x24, 0x00, 0x81, 0x11, 0x91, 0x24, 0x00, 0x00, 0x92, 0x40, 0x00, 0x00, 0x92, 0x43, 0x00, 0x00, 0x92, 0x48, 0x00, 0x0E, 0x99, 0x2A, 0x4E, 0x00, 0x99, 0x28, 0x6A, 0x01, 0x99, 0x2A, 0x00, 0x00, 0x99, 0x28, 0x00, 0x81, 0x1F, 0x99, 0x2A, 
	0x32, 0x01, 0x99, 0x2A, 0x00, 0x81, 0x1F, 0x91, 0x28, 0x79, 0x00, 0x92, 0x40, 0x7F, 0x00, 0x92, 0x43, 0x7F, 0x00, 0x92, 0x4A, 0x7F, 0x00, 0x99, 0x2A, 0x32, 0x00, 0x99, 0x24, 0x4E, 0x01, 0x99, 0x2A, 0x00, 0x00, 0x99, 0x24, 0x00, 0x81, 0x11, 0x91, 0x28, 0x00, 0x00, 0x92, 0x40, 0x00, 0x00, 0x92, 0x43, 0x00, 0x00, 0x92, 0x4A, 0x00, 0x0E, 0x99, 0x2A, 0x4E, 0x01, 0x99, 0x2A, 0x00, 0x81, 
	0x1F, 0x99, 0x2A, 0x32, 0x01, 0x99, 0x2A, 0x00, 0x81, 0x1F, 0x91, 0x28, 0x79, 0x00, 0x92, 0x40, 0x7F, 0x00, 0x92, 0x43, 0x7F, 0x00, 0x92, 0x4A, 0x7F, 0x00, 0x99, 0x2A, 0x32, 0x00, 0x99, 0x24, 0x4E, 0x01, 0x99, 0x2A, 0x00, 0x00, 0x99, 0x24, 0x00, 0x81, 0x11, 0x91, 0x28, 0x00, 0x0E, 0x97, 0x4F, 0x63, 0x00, 0x97, 0x58, 0x7F, 0x00, 0x99, 0x2A, 0x4E, 0x00, 0x99, 0x28, 0x6A, 0x01, 0x99, 
	0x2A, 0x00, 0x00, 0x99, 0x28, 0x00, 0x09, 0x92, 0x40, 0x00, 0x00, 0x92, 0x43, 0x00, 0x00, 0x92, 0x4A, 0x00, 0x81, 0x16, 0x99, 0x2A, 0x32, 0x01, 0x99, 0x2A, 0x00, 0x81, 0x1F, 0x91, 0x28, 0x79, 0x00, 0x92, 0x40, 0x7F, 0x00, 0x92, 0x43, 0x7F, 0x00, 0x92, 0x48, 0x7F, 0x00, 0x99, 0x2A, 0x32, 0x00, 0x99, 0x24, 0x4E, 0x01, 0x99, 0x2A, 0x00, 0x00, 0x99, 0x24, 0x00, 0x81, 0x01, 0x97, 0x4F, 
	0x00, 0x00, 0x97, 0x58, 0x00, 0x10, 0x91, 0x28, 0x00, 0x00, 0x92, 0x40, 0x00, 0x00, 0x92, 0x43, 0x00, 0x00, 0x92, 0x48, 0x00, 0x0E, 0x91, 0x28, 0x79, 0x00, 0x92, 0x40, 0x7F, 0x00, 0x92, 0x43, 0x7F, 0x00, 0x92, 0x48, 0x7F, 0x00, 0x97, 0x51, 0x63, 0x00, 0x97, 0x59, 0x7F, 0x00, 0x99, 0x2A, 0x4E, 0x00, 0x99, 0x24, 0x6A, 0x01, 0x99, 0x2A, 0x00, 0x00, 0x99, 0x24, 0x00, 0x81, 0x1F, 0x99, 
	0x2A, 0x32, 0x01, 0x99, 0x2A, 0x00, 0x81, 0x0B, 0x91, 0x28, 0x00, 0x14, 0x91, 0x28, 0x79, 0x00, 0x99, 0x2A, 0x32, 0x01, 0x99, 0x2A, 0x00, 0x81, 0x01, 0x97, 0x51, 0x00, 0x00, 0x97, 0x59, 0x00, 0x10, 0x91, 0x28, 0x00, 0x0E, 0x91, 0x28, 0x79, 0x00, 0x97, 0x53, 0x63, 0x00, 0x97, 0x5B, 0x7F, 0x00, 0x99, 0x2E, 0x4E, 0x00, 0x99, 0x28, 0x6A, 0x01, 0x99, 0x2E, 0x00, 0x00, 0x99, 0x28, 0x00, 
	0x81, 0x11, 0x91, 0x28, 0x00, 0x0E, 0x91, 0x26, 0x79, 0x00, 0x99, 0x2A, 0x4E, 0x01, 0x99, 0x2A, 0x00, 0x81, 0x11, 0x91, 0x26, 0x00, 0x0E, 0x91, 0x28, 0x79, 0x00, 0x99, 0x2A, 0x32, 0x01, 0x99, 0x2A, 0x00, 0x77, 0x92, 0x40, 0x00, 0x00, 0x92, 0x43, 0x00, 0x00, 0x92, 0x48, 0x00, 0x0A, 0x97, 0x53, 0x00, 0x00, 0x97, 0x5B, 0x00, 0x10, 0x91, 0x28, 0x00, 0x0E, 0x91, 0x29, 0x79, 0x00, 0x92, 
	0x41, 0x7F, 0x00, 0x92, 0x45, 0x7F, 0x00, 0x92, 0x4A, 0x7F, 0x00, 0x97, 0x53, 0x63, 0x00, 0x97, 0x5B, 0x7F, 0x00, 0x99, 0x2A, 0x4E, 0x00, 0x99, 0x24, 0x6A, 0x01, 0x99, 0x2A, 0x00, 0x00, 0x99, 0x24, 0x00, 0x81, 0x1F, 0x99, 0x2A, 0x32, 0x01, 0x99, 0x2A, 0x00, 0x81, 0x0B, 0x91, 0x29, 0x00, 0x00, 0x92, 0x41, 0x00, 0x00, 0x92, 0x45, 0x00, 0x00, 0x92, 0x4A, 0x00, 0x14, 0x99, 0x2A, 0x32, 
	0x01, 0x99, 0x2A, 0x00, 0x81, 0x01, 0x97, 0x53, 0x00, 0x00, 0x97, 0x5B, 0x00, 0x1E, 0x97, 0x54, 0x63, 0x00, 0x97, 0x5D, 0x7F, 0x00, 0x99, 0x2A, 0x4E, 0x00, 0x99, 0x28, 0x6A, 0x01, 0x99, 0x2A, 0x00, 0x00, 0x99, 0x28, 0x00, 0x81, 0x1F, 0x99, 0x2A, 0x32, 0x01, 0x99, 0x2A, 0x00, 0x81, 0x0B, 0x97, 0x54, 0x00, 0x00, 0x97, 0x5D, 0x00, 0x14, 0x91, 0x29, 0x79, 0x00, 0x92, 0x41, 0x7F, 0x00, 
	0x92, 0x45, 0x7F, 0x00, 0x92, 0x4A, 0x7F, 0x00, 0x97, 0x4D, 0x63, 0x00, 0x97, 0x54, 0x7F, 0x00, 0x99, 0x2A, 0x32, 0x00, 0x99, 0x24, 0x4E, 0x01, 0x99, 0x2A, 0x00, 0x00, 0x99, 0x24, 0x00, 0x81, 0x11, 0x91, 0x29, 0x00, 0x00, 0x92, 0x41, 0x00, 0x00, 0x92, 0x45, 0x00, 0x00, 0x92, 0x4A, 0x00, 0x0E, 0x91, 0x29, 0x79, 0x00, 0x92, 0x41, 0x7F, 0x00, 0x92, 0x45, 0x7F, 0x00, 0x92, 0x48, 0x7F, 
	0x00, 0x99, 0x2A, 0x4E, 0x00, 0x99, 0x24, 0x6A, 0x01, 0x99, 0x2A, 0x00, 0x00, 0x99, 0x24, 0x00, 0x81, 0x1F, 0x99, 0x2A, 0x32, 0x01, 0x99, 0x2A, 0x00, 0x81, 0x0B, 0x91, 0x29, 0x00, 0x00, 0x92, 0x41, 0x00, 0x00, 0x92, 0x45, 0x00, 0x00, 0x92, 0x48, 0x00, 0x14, 0x91, 0x29, 0x79, 0x00, 0x92, 0x41, 0x7F, 0x00, 0x92, 0x45, 0x7F, 0x00, 0x92, 0x48, 0x7F, 0x00, 0x99, 0x2A, 0x32, 0x00, 0x99, 
	0x24, 0x6A, 0x01, 0x99, 0x2A, 0x00, 0x00, 0x99, 0x24, 0x00, 0x81, 0x11, 0x91, 0x29, 0x00, 0x00, 0x92, 0x41, 0x00, 0x00, 0x92, 0x45, 0x00, 0x00, 0x92, 0x48, 0x00, 0x0E, 0x99, 0x2A, 0x4E, 0x00, 0x99, 0x28, 0x6A, 0x01, 0x99, 0x2A, 0x00, 0x00, 0x99, 0x28, 0x00, 0x81, 0x1F, 0x92, 0x47, 0x7F, 0x00, 0x99, 0x2A, 0x32, 0x01, 0x99, 0x2A, 0x00, 0x81, 0x11, 0x92, 0x47, 0x00, 0x0E, 0x91, 0x2C, 
	0x79, 0x00, 0x92, 0x48, 0x7F, 0x00, 0x99, 0x2A, 0x32, 0x00, 0x99, 0x24, 0x4E, 0x01, 0x99, 0x2A, 0x00, 0x00, 0x99, 0x24, 0x00, 0x77, 0x97, 0x4D, 0x00, 0x00, 0x97, 0x54, 0x00, 0x14, 0x95, 0x4F, 0x00, 0x00, 0x95, 0x5B, 0x00, 0x06, 0x91, 0x2C, 0x00, 0x00, 0x92, 0x48, 0x00, 0x0E, 0x91, 0x2B, 0x79, 0x00, 0x92, 0x47, 0x7F, 0x00, 0x92, 0x4D, 0x7F, 0x00, 0x92, 0x52, 0x7F, 0x00, 0x95, 0x54, 
	0x79, 0x00, 0x95, 0x60, 0x79, 0x00, 0x99, 0x37, 0x6A, 0x00, 0x99, 0x24, 0x6A, 0x01, 0x99, 0x37, 0x00, 0x00, 0x99, 0x24, 0x00, 0x82, 0x2B, 0x91, 0x2B, 0x00, 0x00, 0x92, 0x47, 0x00, 0x00, 0x92, 0x4D, 0x00, 0x00, 0x92, 0x52, 0x00, 0x14, 0x99, 0x28, 0x40, 0x01, 0x99, 0x28, 0x00, 0x81, 0x01, 0x95, 0x54, 0x00, 0x00, 0x95, 0x60, 0x00, 0x1E, 0x91, 0x2B, 0x79, 0x00, 0x92, 0x47, 0x7F, 0x00, 
	0x92, 0x4D, 0x7F, 0x00, 0x92, 0x50, 0x7F, 0x00, 0x95, 0x52, 0x79, 0x00, 0x95, 0x5E, 0x79, 0x00, 0x99, 0x28, 0x5C, 0x01, 0x99, 0x28, 0x00, 0x81, 0x1F, 0x99, 0x28, 0x40, 0x01, 0x99, 0x28, 0x00, 0x81, 0x0B, 0x91, 0x2B, 0x00, 0x00, 0x92, 0x47, 0x00, 0x00, 0x92, 0x4D, 0x00, 0x00, 0x92, 0x50, 0x00, 0x14, 0x99, 0x28, 0x5C, 0x01, 0x99, 0x28, 0x00, 0x81, 0x01, 0x95, 0x52, 0x00, 0x00, 0x95, 
	0x5E, 0x00, 0x1E, 0x91, 0x2B, 0x79, 0x00, 0x92, 0x47, 0x7F, 0x00, 0x92, 0x4C, 0x7F, 0x00, 0x92, 0x4F, 0x7F, 0x00, 0x95, 0x4F, 0x79, 0x00, 0x95, 0x5B, 0x79, 0x00, 0x99, 0x30, 0x5C, 0x01, 0x99, 0x30, 0x00, 0x81, 0x1F, 0x99, 0x30, 0x4E, 0x01, 0x99, 0x30, 0x00, 0x81, 0x0B, 0x91, 0x2B, 0x00, 0x00, 0x92, 0x47, 0x00, 0x00, 0x92, 0x4C, 0x00, 0x00, 0x92, 0x4F, 0x00, 0x14, 0x99, 0x30, 0x5C, 
	0x01, 0x99, 0x30, 0x00, 0x81, 0x01, 0x95, 0x4F, 0x00, 0x00, 0x95, 0x5B, 0x00, 0x1E, 0x91, 0x2B, 0x79, 0x00, 0x92, 0x43, 0x7F, 0x00, 0x92, 0x47, 0x7F, 0x00, 0x92, 0x4D, 0x7F, 0x00, 0x95, 0x4D, 0x79, 0x00, 0x95, 0x59, 0x79, 0x00, 0x99, 0x2D, 0x5C, 0x01, 0x99, 0x2D, 0x00, 0x81, 0x1F, 0x99, 0x2D, 0x4E, 0x01, 0x99, 0x2D, 0x00, 0x81, 0x0B, 0x91, 0x2B, 0x00, 0x00, 0x92, 0x43, 0x00, 0x00, 
	0x92, 0x47, 0x00, 0x00, 0x92, 0x4D, 0x00, 0x14, 0x99, 0x29, 0x5C, 0x01, 0x99, 0x29, 0x00, 0x81, 0x01, 0x95, 0x4D, 0x00, 0x00, 0x95, 0x59, 0x00, 0x1E, 0x91, 0x24, 0x79, 0x00, 0x92, 0x43, 0x76, 0x00, 0x92, 0x48, 0x76, 0x00, 0x92, 0x4C, 0x76, 0x00, 0x96, 0x40, 0x6F, 0x00, 0x96, 0x43, 0x6F, 0x00, 0x96, 0x48, 0x6F, 0x00, 0x99, 0x31, 0x4E, 0x00, 0x99, 0x24, 0x6A, 0x01, 0x99, 0x31, 0x00, 
	0x00, 0x99, 0x24, 0x00, 0x81, 0x6F, 0x92, 0x43, 0x00, 0x00, 0x92, 0x48, 0x00, 0x00, 0x92, 0x4C, 0x00, 0x3C, 0x91, 0x24, 0x00, 0x81, 0x34, 0x91, 0x24, 0x79, 0x00, 0x92, 0x43, 0x76, 0x00, 0x92, 0x48, 0x76, 0x00, 0x92, 0x4C, 0x76, 0x00, 0x93, 0x43, 0x7F, 0x00, 0x99, 0x2A, 0x4E, 0x00, 0x99, 0x28, 0x6A, 0x01, 0x99, 0x2A, 0x00, 0x00, 0x99, 0x28, 0x00, 0x81, 0x1F, 0x99, 0x2A, 0x32, 0x01, 
	0x99, 0x2A, 0x00, 0x4F, 0x92, 0x43, 0x00, 0x00, 0x92, 0x48, 0x00, 0x00, 0x92, 0x4C, 0x00, 0x3C, 0x91, 0x24, 0x00, 0x14, 0x94, 0x43, 0x7F, 0x00, 0x99, 0x2A, 0x32, 0x00, 0x99, 0x24, 0x4E, 0x01, 0x99, 0x2A, 0x00, 0x00, 0x99, 0x24, 0x00, 0x81, 0x1F, 0x91, 0x24, 0x79, 0x00, 0x92, 0x43, 0x76, 0x00, 0x92, 0x48, 0x76, 0x00, 0x92, 0x4C, 0x76, 0x00, 0x99, 0x2A, 0x4E, 0x00, 0x99, 0x24, 0x6A, 
	0x01, 0x99, 0x2A, 0x00, 0x00, 0x99, 0x24, 0x00, 0x81, 0x1F, 0x99, 0x2A, 0x32, 0x01, 0x99, 0x2A, 0x00, 0x4F, 0x92, 0x43, 0x00, 0x00, 0x92, 0x48, 0x00, 0x00, 0x92, 0x4C, 0x00, 0x3C, 0x93, 0x43, 0x00, 0x14, 0x93, 0x43, 0x74, 0x00, 0x99, 0x2A, 0x32, 0x00, 0x99, 0x24, 0x6A, 0x01, 0x99, 0x2A, 0x00, 0x00, 0x99, 0x24, 0x00, 0x81, 0x11, 0x93, 0x43, 0x00, 0x0E, 0x92, 0x43, 0x76, 0x00, 0x92, 
	0x48, 0x76, 0x00, 0x92, 0x4C, 0x76, 0x00, 0x93, 0x4C, 0x7F, 0x00, 0x99, 0x2A, 0x4E, 0x00, 0x99, 0x28, 0x6A, 0x01, 0x99, 0x2A, 0x00, 0x00, 0x99, 0x28, 0x00, 0x81, 0x0B, 0x94, 0x43, 0x00, 0x14, 0x94, 0x43, 0x74, 0x00, 0x99, 0x2A, 0x32, 0x01, 0x99, 0x2A, 0x00, 0x4F, 0x92, 0x43, 0x00, 0x00, 0x92, 0x48, 0x00, 0x00, 0x92, 0x4C, 0x00, 0x3C, 0x91, 0x24, 0x00, 0x00, 0x93, 0x4C, 0x00, 0x06, 
	0x94, 0x43, 0x00, 0x0E, 0x91, 0x23, 0x79, 0x00, 0x93, 0x4A, 0x7F, 0x00, 0x94, 0x4C, 0x7F, 0x00, 0x99, 0x2A, 0x32, 0x00, 0x99, 0x24, 0x4E, 0x01, 0x99, 0x2A, 0x00, 0x00, 0x99, 0x24, 0x00, 0x81, 0x0B, 0x96, 0x40, 0x00, 0x00, 0x96, 0x43, 0x00, 0x00, 0x96, 0x48, 0x00, 0x06, 0x91, 0x23, 0x00, 0x0E, 0x92, 0x43, 0x76, 0x00, 0x92, 0x47, 0x76, 0x00, 0x92, 0x4A, 0x76, 0x00, 0x96, 0x3E, 0x6F, 
	0x00, 0x96, 0x43, 0x6F, 0x00, 0x96, 0x47, 0x6F, 0x00, 0x99, 0x2A, 0x4E, 0x01, 0x99, 0x2A, 0x00, 0x81, 0x0B, 0x94, 0x4C, 0x00, 0x14, 0x94, 0x4A, 0x7F, 0x00, 0x99, 0x2A, 0x32, 0x01, 0x99, 0x2A, 0x00, 0x4F, 0x92, 0x43, 0x00, 0x00, 0x92, 0x47, 0x00, 0x00, 0x92, 0x4A, 0x00, 0x50, 0x91, 0x23, 0x79, 0x00, 0x99, 0x2A, 0x32, 0x00, 0x99, 0x24, 0x4E, 0x01, 0x99, 0x2A, 0x00, 0x00, 0x99, 0x24, 
	0x00, 0x81, 0x11, 0x91, 0x23, 0x00, 0x0E, 0x92, 0x43, 0x76, 0x00, 0x92, 0x47, 0x76, 0x00, 0x92, 0x4A, 0x76, 0x00, 0x99, 0x2A, 0x4E, 0x00, 0x99, 0x28, 0x6A, 0x01, 0x99, 0x2A, 0x00, 0x00, 0x99, 0x28, 0x00, 0x81, 0x1F, 0x99, 0x2A, 0x32, 0x01, 0x99, 0x2A, 0x00, 0x4F, 0x92, 0x43, 0x00, 0x00, 0x92, 0x47, 0x00, 0x00, 0x92, 0x4A, 0x00, 0x50, 0x91, 0x23, 0x79, 0x00, 0x99, 0x2A, 0x32, 0x00, 
	0x99, 0x24, 0x4E, 0x01, 0x99, 0x2A, 0x00, 0x00, 0x99, 0x24, 0x00, 0x77, 0x93, 0x4A, 0x00, 0x1A, 0x91, 0x23, 0x00, 0x0E, 0x91, 0x23, 0x79, 0x00, 0x92, 0x43, 0x76, 0x00, 0x92, 0x47, 0x76, 0x00, 0x92, 0x4A, 0x76, 0x00, 0x93, 0x47, 0x7F, 0x00, 0x99, 0x2A, 0x4E, 0x00, 0x99, 0x24, 0x6A, 0x01, 0x99, 0x2A, 0x00, 0x00, 0x99, 0x24, 0x00, 0x81, 0x11, 0x93, 0x47, 0x00, 0x0E, 0x93, 0x48, 0x7F, 
	0x00, 0x99, 0x2A, 0x32, 0x01, 0x99, 0x2A, 0x00, 0x4F, 0x92, 0x43, 0x00, 0x00, 0x92, 0x47, 0x00, 0x00, 0x92, 0x4A, 0x00, 0x28, 0x94, 0x4A, 0x00, 0x1A, 0x93, 0x48, 0x00, 0x0E, 0x93, 0x4A, 0x7F, 0x00, 0x94, 0x47, 0x7F, 0x00, 0x99, 0x2A, 0x32, 0x01, 0x99, 0x2A, 0x00, 0x81, 0x01, 0x91, 0x23, 0x00, 0x10, 0x93, 0x4A, 0x00, 0x00, 0x94, 0x47, 0x00, 0x0E, 0x91, 0x28, 0x79, 0x00, 0x92, 0x43, 
	0x76, 0x00, 0x92, 0x47, 0x76, 0x00, 0x92, 0x4A, 0x76, 0x00, 0x93, 0x4F, 0x7F, 0x00, 0x94, 0x48, 0x7F, 0x00, 0x99, 0x2E, 0x4E, 0x00, 0x99, 0x28, 0x6A, 0x01, 0x99, 0x2E, 0x00, 0x00, 0x99, 0x28, 0x00, 0x81, 0x11, 0x94, 0x48, 0x00, 0x0E, 0x94, 0x4A, 0x7F, 0x00, 0x99, 0x2A, 0x4E, 0x01, 0x99, 0x2A, 0x00, 0x4F, 0x92, 0x43, 0x00, 0x00, 0x92, 0x47, 0x00, 0x00, 0x92, 0x4A, 0x00, 0x3C, 0x93, 
	0x4F, 0x00, 0x06, 0x94, 0x4A, 0x00, 0x0E, 0x93, 0x48, 0x7F, 0x00, 0x94, 0x4F, 0x7F, 0x00, 0x99, 0x2A, 0x32, 0x01, 0x99, 0x2A, 0x00, 0x81, 0x01, 0x91, 0x28, 0x00, 0x0A, 0x96, 0x3E, 0x00, 0x00, 0x96, 0x43, 0x00, 0x00, 0x96, 0x47, 0x00, 0x14, 0x91, 0x29, 0x79, 0x00, 0x92, 0x41, 0x76, 0x00, 0x92, 0x45, 0x76, 0x00, 0x92, 0x48, 0x76, 0x00, 0x96, 0x41, 0x6F, 0x00, 0x96, 0x45, 0x6F, 0x00, 
	0x96, 0x48, 0x6F, 0x00, 0x99, 0x2A, 0x4E, 0x00, 0x99, 0x24, 0x6A, 0x01, 0x99, 0x2A, 0x00, 0x00, 0x99, 0x24, 0x00, 0x81, 0x0B, 0x94, 0x4F, 0x00, 0x14, 0x94, 0x48, 0x7F, 0x00, 0x99, 0x2A, 0x32, 0x01, 0x99, 0x2A, 0x00, 0x4F, 0x92, 0x41, 0x00, 0x00, 0x92, 0x45, 0x00, 0x00, 0x92, 0x48, 0x00, 0x3C, 0x91, 0x29, 0x00, 0x14, 0x99, 0x2A, 0x32, 0x01, 0x99, 0x2A, 0x00, 0x81, 0x1F, 0x91, 0x29, 
	0x79, 0x00, 0x92, 0x41, 0x76, 0x00, 0x92, 0x45, 0x76, 0x00, 0x92, 0x48, 0x76, 0x00, 0x99, 0x2A, 0x4E, 0x00, 0x99, 0x28, 0x6A, 0x01, 0x99, 0x2A, 0x00, 0x00, 0x99, 0x28, 0x00, 0x81, 0x1F, 0x99, 0x2A, 0x32, 0x01, 0x99, 0x2A, 0x00, 0x4F, 0x92, 0x41, 0x00, 0x00, 0x92, 0x45, 0x00, 0x00, 0x92, 0x48, 0x00, 0x3C, 0x91, 0x29, 0x00, 0x14, 0x99, 0x2A, 0x32, 0x00, 0x99, 0x24, 0x4E, 0x01, 0x99, 
	0x2A, 0x00, 0x00, 0x99, 0x24, 0x00, 0x81, 0x1F, 0x91, 0x29, 0x79, 0x00, 0x92, 0x41, 0x76, 0x00, 0x92, 0x45, 0x76, 0x00, 0x92, 0x48, 0x76, 0x00, 0x99, 0x2A, 0x4E, 0x00, 0x99, 0x24, 0x6A, 0x01, 0x99, 0x2A, 0x00, 0x00, 0x99, 0x24, 0x00, 0x81, 0x1F, 0x99, 0x2A, 0x32, 0x01, 0x99, 0x2A, 0x00, 0x4F, 0x92, 0x41, 0x00, 0x00, 0x92, 0x45, 0x00, 0x00, 0x92, 0x48, 0x00, 0x50, 0x99, 0x2A, 0x32, 
	0x00, 0x99, 0x24, 0x6A, 0x01, 0x99, 0x2A, 0x00, 0x00, 0x99, 0x24, 0x00, 0x81, 0x0B, 0x93, 0x48, 0x00, 0x14, 0x92, 0x41, 0x76, 0x00, 0x92, 0x45, 0x76, 0x00, 0x92, 0x48, 0x76, 0x00, 0x93, 0x48, 0x7F, 0x00, 0x99, 0x2A, 0x4E, 0x00, 0x99, 0x28, 0x6A, 0x01, 0x99, 0x2A, 0x00, 0x00, 0x99, 0x28, 0x00, 0x81, 0x11, 0x93, 0x48, 0x00, 0x0E, 0x93, 0x47, 0x7F, 0x00, 0x99, 0x2A, 0x32, 0x01, 0x99, 
	0x2A, 0x00, 0x4F, 0x92, 0x41, 0x00, 0x00, 0x92, 0x45, 0x00, 0x00, 0x92, 0x48, 0x00, 0x3C, 0x91, 0x29, 0x00, 0x00, 0x94, 0x48, 0x00, 0x06, 0x93, 0x47, 0x00, 0x0E, 0x91, 0x2B, 0x79, 0x00, 0x93, 0x45, 0x7F, 0x00, 0x94, 0x48, 0x7F, 0x00, 0x99, 0x2A, 0x32, 0x00, 0x99, 0x24, 0x4E, 0x01, 0x99, 0x2A, 0x00, 0x00, 0x99, 0x24, 0x00, 0x81, 0x0B, 0x96, 0x41, 0x00, 0x00, 0x96, 0x45, 0x00, 0x00, 
	0x96, 0x48, 0x00, 0x06, 0x91, 0x2B, 0x00, 0x00, 0x93, 0x45, 0x00, 0x00, 0x94, 0x48, 0x00, 0x0E, 0x92, 0x43, 0x76, 0x00, 0x92, 0x47, 0x76, 0x00, 0x92, 0x4A, 0x76, 0x00, 0x93, 0x47, 0x7F, 0x00, 0x94, 0x47, 0x7F, 0x00, 0x96, 0x43, 0x6F, 0x00, 0x96, 0x47, 0x6F, 0x00, 0x96, 0x4A, 0x6F, 0x00, 0x99, 0x2A, 0x4E, 0x01, 0x99, 0x2A, 0x00, 0x81, 0x11, 0x94, 0x47, 0x00, 0x0E, 0x94, 0x45, 0x7F, 
	0x00, 0x99, 0x2A, 0x32, 0x01, 0x99, 0x2A, 0x00, 0x4F, 0x92, 0x43, 0x00, 0x00, 0x92, 0x47, 0x00, 0x00, 0x92, 0x4A, 0x00, 0x42, 0x94, 0x45, 0x00, 0x0E, 0x91, 0x2B, 0x79, 0x00, 0x94, 0x47, 0x7F, 0x00, 0x99, 0x2A, 0x32, 0x00, 0x99, 0x24, 0x4E, 0x01, 0x99, 0x2A, 0x00, 0x00, 0x99, 0x24, 0x00, 0x81, 0x01, 0x93, 0x47, 0x00, 0x10, 0x91, 0x2B, 0x00, 0x0E, 0x92, 0x43, 0x76, 0x00, 0x92, 0x47, 
	0x76, 0x00, 0x92, 0x4A, 0x76, 0x00, 0x93, 0x48, 0x7F, 0x00, 0x99, 0x2A, 0x4E, 0x00, 0x99, 0x28, 0x6A, 0x01, 0x99, 0x2A, 0x00, 0x00, 0x99, 0x28, 0x00, 0x81, 0x1F, 0x99, 0x2A, 0x32, 0x01, 0x99, 0x2A, 0x00, 0x4F, 0x92, 0x43, 0x00, 0x00, 0x92, 0x47, 0x00, 0x00, 0x92, 0x4A, 0x00, 0x32, 0x94, 0x47, 0x00, 0x1E, 0x91, 0x2B, 0x79, 0x00, 0x94, 0x48, 0x7F, 0x00, 0x99, 0x2A, 0x32, 0x00, 0x99, 
	0x24, 0x4E, 0x01, 0x99, 0x2A, 0x00, 0x00, 0x99, 0x24, 0x00, 0x81, 0x01, 0x93, 0x48, 0x00, 0x10, 0x91, 0x2B, 0x00, 0x0E, 0x91, 0x2B, 0x79, 0x00, 0x92, 0x43, 0x76, 0x00, 0x92, 0x47, 0x76, 0x00, 0x92, 0x4A, 0x76, 0x00, 0x93, 0x4A, 0x7F, 0x00, 0x99, 0x2A, 0x4E, 0x00, 0x99, 0x24, 0x6A, 0x01, 0x99, 0x2A, 0x00, 0x00, 0x99, 0x24, 0x00, 0x81, 0x1F, 0x99, 0x2A, 0x32, 0x01, 0x99, 0x2A, 0x00, 
	0x4F, 0x92, 0x43, 0x00, 0x00, 0x92, 0x47, 0x00, 0x00, 0x92, 0x4A, 0x00, 0x32, 0x94, 0x48, 0x00, 0x0A, 0x93, 0x4A, 0x00, 0x14, 0x93, 0x4C, 0x7F, 0x00, 0x94, 0x4A, 0x7F, 0x00, 0x99, 0x2A, 0x32, 0x01, 0x99, 0x2A, 0x00, 0x81, 0x01, 0x91, 0x2B, 0x00, 0x1E, 0x91, 0x23, 0x79, 0x00, 0x92, 0x43, 0x76, 0x00, 0x92, 0x47, 0x76, 0x00, 0x92, 0x4A, 0x76, 0x00, 0x99, 0x2A, 0x4E, 0x00, 0x99, 0x28, 
	0x6A, 0x01, 0x99, 0x2A, 0x00, 0x00, 0x99, 0x28, 0x00, 0x81, 0x0B, 0x94, 0x4A, 0x00, 0x14, 0x94, 0x4C, 0x7F, 0x00, 0x99, 0x2A, 0x32, 0x01, 0x99, 0x2A, 0x00, 0x4F, 0x92, 0x43, 0x00, 0x00, 0x92, 0x47, 0x00, 0x00, 0x92, 0x4A, 0x00, 0x3C, 0x93, 0x4C, 0x00, 0x14, 0x93, 0x48, 0x7F, 0x00, 0x99, 0x2A, 0x32, 0x01, 0x99, 0x2A, 0x00, 0x81, 0x01, 0x91, 0x23, 0x00, 0x0A, 0x96, 0x43, 0x00, 0x00, 
	0x96, 0x47, 0x00, 0x00, 0x96, 0x4A, 0x00, 0x14, 0x91, 0x24, 0x79, 0x00, 0x92, 0x43, 0x76, 0x00, 0x92, 0x48, 0x76, 0x00, 0x92, 0x4C, 0x76, 0x00, 0x96, 0x40, 0x6F, 0x00, 0x96, 0x43, 0x6F, 0x00, 0x96, 0x48, 0x6F, 0x00, 0x99, 0x2A, 0x4E, 0x00, 0x99, 0x24, 0x6A, 0x01, 0x99, 0x2A, 0x00, 0x00, 0x99, 0x24, 0x00, 0x81, 0x0B, 0x94, 0x4C, 0x00, 0x14, 0x94, 0x48, 0x7F, 0x00, 0x99, 0x2A, 0x32, 
	0x01, 0x99, 0x2A, 0x00, 0x4F, 0x92, 0x43, 0x00, 0x00, 0x92, 0x48, 0x00, 0x00, 0x92, 0x4C, 0x00, 0x3C, 0x91, 0x24, 0x00, 0x14, 0x99, 0x2A, 0x32, 0x01, 0x99, 0x2A, 0x00, 0x81, 0x1F, 0x91, 0x24, 0x79, 0x00, 0x92, 0x43, 0x76, 0x00, 0x92, 0x48, 0x76, 0x00, 0x92, 0x4C, 0x76, 0x00, 0x99, 0x2A, 0x4E, 0x00, 0x99, 0x28, 0x6A, 0x01, 0x99, 0x2A, 0x00, 0x00, 0x99, 0x28, 0x00, 0x81, 0x1F, 0x99, 
	0x2A, 0x32, 0x01, 0x99, 0x2A, 0x00, 0x4F, 0x92, 0x43, 0x00, 0x00, 0x92, 0x48, 0x00, 0x00, 0x92, 0x4C, 0x00, 0x3C, 0x91, 0x24, 0x00, 0x14, 0x99, 0x2A, 0x32, 0x00, 0x99, 0x24, 0x4E, 0x01, 0x99, 0x2A, 0x00, 0x00, 0x99, 0x24, 0x00, 0x77, 0x93, 0x48, 0x00, 0x28, 0x91, 0x24, 0x79, 0x00, 0x92, 0x43, 0x76, 0x00, 0x92, 0x48, 0x76, 0x00, 0x92, 0x4C, 0x76, 0x00, 0x93, 0x43, 0x7F, 0x00, 0x99, 
	0x2A, 0x4E, 0x00, 0x99, 0x24, 0x6A, 0x01, 0x99, 0x2A, 0x00, 0x00, 0x99, 0x24, 0x00, 0x81, 0x1F, 0x99, 0x2A, 0x32, 0x01, 0x99, 0x2A, 0x00, 0x4F, 0x92, 0x43, 0x00, 0x00, 0x92, 0x48, 0x00, 0x00, 0x92, 0x4C, 0x00, 0x28, 0x94, 0x48, 0x00, 0x14, 0x93, 0x43, 0x00, 0x14, 0x93, 0x45, 0x7F, 0x00, 0x94, 0x43, 0x7F, 0x00, 0x99, 0x2A, 0x32, 0x00, 0x99, 0x24, 0x6A, 0x01, 0x99, 0x2A, 0x00, 0x00, 
	0x99, 0x24, 0x00, 0x81, 0x11, 0x93, 0x45, 0x00, 0x0E, 0x92, 0x43, 0x76, 0x00, 0x92, 0x48, 0x76, 0x00, 0x92, 0x4C, 0x76, 0x00, 0x93, 0x51, 0x7F, 0x00, 0x99, 0x2A, 0x4E, 0x00, 0x99, 0x28, 0x6A, 0x01, 0x99, 0x2A, 0x00, 0x00, 0x99, 0x28, 0x00, 0x81, 0x0B, 0x94, 0x43, 0x00, 0x14, 0x94, 0x45, 0x7F, 0x00, 0x99, 0x2A, 0x32, 0x01, 0x99, 0x2A, 0x00, 0x4F, 0x92, 0x43, 0x00, 0x00, 0x92, 0x48, 
	0x00, 0x00, 0x92, 0x4C, 0x00, 0x3C, 0x91, 0x24, 0x00, 0x00, 0x93, 0x51, 0x00, 0x06, 0x94, 0x45, 0x00, 0x0E, 0x91, 0x23, 0x79, 0x00, 0x93, 0x4F, 0x7F, 0x00, 0x94, 0x51, 0x7F, 0x00, 0x99, 0x2A, 0x32, 0x00, 0x99, 0x24, 0x4E, 0x01, 0x99, 0x2A, 0x00, 0x00, 0x99, 0x24, 0x00, 0x81, 0x0B, 0x96, 0x40, 0x00, 0x00, 0x96, 0x43, 0x00, 0x00, 0x96, 0x48, 0x00, 0x06, 0x91, 0x23, 0x00, 0x0E, 0x92, 
	0x43, 0x76, 0x00, 0x92, 0x47, 0x76, 0x00, 0x92, 0x4C, 0x76, 0x00, 0x96, 0x3E, 0x6F, 0x00, 0x96, 0x43, 0x6F, 0x00, 0x96, 0x47, 0x6F, 0x00, 0x99, 0x2A, 0x4E, 0x01, 0x99, 0x2A, 0x00, 0x81, 0x0B, 0x94, 0x51, 0x00, 0x14, 0x94, 0x4F, 0x7F, 0x00, 0x99, 0x2A, 0x32, 0x01, 0x99, 0x2A, 0x00, 0x4F, 0x92, 0x43, 0x00, 0x00, 0x92, 0x47, 0x00, 0x00, 0x92, 0x4C, 0x00, 0x50, 0x91, 0x23, 0x79, 0x00, 
	0x99, 0x2A, 0x32, 0x00, 0x99, 0x24, 0x4E, 0x01, 0x99, 0x2A, 0x00, 0x00, 0x99, 0x24, 0x00, 0x81, 0x11, 0x91, 0x23, 0x00, 0x0E, 0x92, 0x43, 0x76, 0x00, 0x92, 0x47, 0x76, 0x00, 0x92, 0x4C, 0x76, 0x00, 0x99, 0x2A, 0x4E, 0x00, 0x99, 0x28, 0x6A, 0x01, 0x99, 0x2A, 0x00, 0x00, 0x99, 0x28, 0x00, 0x81, 0x1F, 0x99, 0x2A, 0x32, 0x01, 0x99, 0x2A, 0x00, 0x4F, 0x92, 0x43, 0x00, 0x00, 0x92, 0x47, 
	0x00, 0x00, 0x92, 0x4C, 0x00, 0x50, 0x91, 0x23, 0x79, 0x00, 0x99, 0x2A, 0x32, 0x00, 0x99, 0x24, 0x4E, 0x01, 0x99, 0x2A, 0x00, 0x00, 0x99, 0x24, 0x00, 0x81, 0x11, 0x91, 0x23, 0x00, 0x0E, 0x91, 0x23, 0x79, 0x00, 0x92, 0x43, 0x76, 0x00, 0x92, 0x47, 0x76, 0x00, 0x92, 0x4C, 0x76, 0x00, 0x99, 0x2A, 0x4E, 0x00, 0x99, 0x24, 0x6A, 0x01, 0x99, 0x2A, 0x00, 0x00, 0x99, 0x24, 0x00, 0x81, 0x1F, 
	0x99, 0x2A, 0x32, 0x01, 0x99, 0x2A, 0x00, 0x4F, 0x92, 0x43, 0x00, 0x00, 0x92, 0x47, 0x00, 0x00, 0x92, 0x4C, 0x00, 0x3C, 0x93, 0x4F, 0x00, 0x14, 0x93, 0x4C, 0x7F, 0x00, 0x99, 0x2A, 0x32, 0x01, 0x99, 0x2A, 0x00, 0x81, 0x01, 0x91, 0x23, 0x00, 0x10, 0x93, 0x4C, 0x00, 0x0E, 0x91, 0x28, 0x79, 0x00, 0x92, 0x43, 0x76, 0x00, 0x92, 0x47, 0x76, 0x00, 0x92, 0x4C, 0x76, 0x00, 0x93, 0x4D, 0x7F, 
	0x00, 0x99, 0x2A, 0x4E, 0x00, 0x99, 0x28, 0x6A, 0x01, 0x99, 0x2A, 0x00, 0x00, 0x99, 0x28, 0x00, 0x81, 0x0B, 0x94, 0x4F, 0x00, 0x14, 0x94, 0x4C, 0x7F, 0x00, 0x99, 0x2A, 0x32, 0x01, 0x99, 0x2A, 0x00, 0x4F, 0x92, 0x43, 0x00, 0x00, 0x92, 0x47, 0x00, 0x00, 0x92, 0x4C, 0x00, 0x3C, 0x93, 0x4D, 0x00, 0x06, 0x94, 0x4C, 0x00, 0x0E, 0x93, 0x4F, 0x7F, 0x00, 0x94, 0x4D, 0x7F, 0x00, 0x99, 0x2A, 
	0x32, 0x01, 0x99, 0x2A, 0x00, 0x81, 0x01, 0x91, 0x28, 0x00, 0x0A, 0x96, 0x3E, 0x00, 0x00, 0x96, 0x43, 0x00, 0x00, 0x96, 0x47, 0x00, 0x14, 0x91, 0x29, 0x79, 0x00, 0x92, 0x45, 0x76, 0x00, 0x92, 0x48, 0x76, 0x00, 0x92, 0x4D, 0x76, 0x00, 0x96, 0x41, 0x6F, 0x00, 0x96, 0x45, 0x6F, 0x00, 0x96, 0x48, 0x6F, 0x00, 0x99, 0x2A, 0x4E, 0x00, 0x99, 0x24, 0x6A, 0x01, 0x99, 0x2A, 0x00, 0x00, 0x99, 
	0x24, 0x00, 0x81, 0x0B, 0x94, 0x4D, 0x00, 0x14, 0x94, 0x4F, 0x7F, 0x00, 0x99, 0x2A, 0x32, 0x01, 0x99, 0x2A, 0x00, 0x4F, 0x92, 0x45, 0x00, 0x00, 0x92, 0x48, 0x00, 0x00, 0x92, 0x4D, 0x00, 0x3C, 0x91, 0x29, 0x00, 0x14, 0x99, 0x2A, 0x32, 0x01, 0x99, 0x2A, 0x00, 0x81, 0x01, 0x93, 0x4F, 0x00, 0x1E, 0x91, 0x29, 0x79, 0x00, 0x92, 0x45, 0x76, 0x00, 0x92, 0x48, 0x76, 0x00, 0x92, 0x4D, 0x76, 
	0x00, 0x93, 0x48, 0x7F, 0x00, 0x99, 0x2A, 0x4E, 0x00, 0x99, 0x28, 0x6A, 0x01, 0x99, 0x2A, 0x00, 0x00, 0x99, 0x28, 0x00, 0x81, 0x1F, 0x99, 0x2A, 0x32, 0x01, 0x99, 0x2A, 0x00, 0x4F, 0x92, 0x45, 0x00, 0x00, 0x92, 0x48, 0x00, 0x00, 0x92, 0x4D, 0x00, 0x32, 0x94, 0x4F, 0x00, 0x0A, 0x91, 0x29, 0x00, 0x14, 0x94, 0x48, 0x7F, 0x00, 0x99, 0x2A, 0x32, 0x00, 0x99, 0x24, 0x4E, 0x01, 0x99, 0x2A, 
	0x00, 0x00, 0x99, 0x24, 0x00, 0x81, 0x01, 0x93, 0x48, 0x00, 0x1E, 0x91, 0x29, 0x79, 0x00, 0x92, 0x45, 0x76, 0x00, 0x92, 0x48, 0x76, 0x00, 0x92, 0x4D, 0x76, 0x00, 0x93, 0x48, 0x7F, 0x00, 0x99, 0x2A, 0x4E, 0x00, 0x99, 0x24, 0x6A, 0x01, 0x99, 0x2A, 0x00, 0x00, 0x99, 0x24, 0x00, 0x81, 0x1F, 0x99, 0x2A, 0x32, 0x01, 0x99, 0x2A, 0x00, 0x4F, 0x92, 0x45, 0x00, 0x00, 0x92, 0x48, 0x00, 0x00, 
	0x92, 0x4D, 0x00, 0x32, 0x94, 0x48, 0x00, 0x1E, 0x94, 0x48, 0x7F, 0x00, 0x99, 0x2A, 0x32, 0x00, 0x99, 0x24, 0x6A, 0x01, 0x99, 0x2A, 0x00, 0x00, 0x99, 0x24, 0x00, 0x81, 0x01, 0x93, 0x48, 0x00, 0x1E, 0x92, 0x45, 0x76, 0x00, 0x92, 0x48, 0x76, 0x00, 0x92, 0x4D, 0x76, 0x00, 0x93, 0x4C, 0x7F, 0x00, 0x99, 0x2A, 0x4E, 0x00, 0x99, 0x28, 0x6A, 0x01, 0x99, 0x2A, 0x00, 0x00, 0x99, 0x28, 0x00, 
	0x81, 0x1F, 0x99, 0x2A, 0x32, 0x01, 0x99, 0x2A, 0x00, 0x4F, 0x92, 0x45, 0x00, 0x00, 0x92, 0x48, 0x00, 0x00, 0x92, 0x4D, 0x00, 0x32, 0x94, 0x48, 0x00, 0x0A, 0x91, 0x29, 0x00, 0x00, 0x93, 0x4C, 0x00, 0x14, 0x91, 0x2B, 0x79, 0x00, 0x93, 0x4A, 0x7F, 0x00, 0x94, 0x4C, 0x7F, 0x00, 0x99, 0x2A, 0x32, 0x00, 0x99, 0x24, 0x4E, 0x01, 0x99, 0x2A, 0x00, 0x00, 0x99, 0x24, 0x00, 0x81, 0x0B, 0x96, 
	0x41, 0x00, 0x00, 0x96, 0x45, 0x00, 0x00, 0x96, 0x48, 0x00, 0x06, 0x91, 0x2B, 0x00, 0x0E, 0x92, 0x47, 0x76, 0x00, 0x92, 0x4A, 0x76, 0x00, 0x92, 0x4F, 0x76, 0x00, 0x96, 0x43, 0x6F, 0x00, 0x96, 0x47, 0x6F, 0x00, 0x96, 0x4A, 0x6F, 0x00, 0x99, 0x2A, 0x4E, 0x01, 0x99, 0x2A, 0x00, 0x81, 0x0B, 0x94, 0x4C, 0x00, 0x14, 0x94, 0x4A, 0x7F, 0x00, 0x99, 0x2A, 0x32, 0x01, 0x99, 0x2A, 0x00, 0x4F, 
	0x92, 0x47, 0x00, 0x00, 0x92, 0x4A, 0x00, 0x00, 0x92, 0x4F, 0x00, 0x50, 0x91, 0x2B, 0x79, 0x00, 0x99, 0x2A, 0x32, 0x00, 0x99, 0x24, 0x4E, 0x01, 0x99, 0x2A, 0x00, 0x00, 0x99, 0x24, 0x00, 0x81, 0x11, 0x91, 0x2B, 0x00, 0x0E, 0x92, 0x47, 0x76, 0x00, 0x92, 0x4A, 0x76, 0x00, 0x92, 0x4F, 0x76, 0x00, 0x99, 0x2A, 0x4E, 0x00, 0x99, 0x28, 0x6A, 0x01, 0x99, 0x2A, 0x00, 0x00, 0x99, 0x28, 0x00, 
	0x81, 0x1F, 0x99, 0x2A, 0x32, 0x01, 0x99, 0x2A, 0x00, 0x4F, 0x92, 0x47, 0x00, 0x00, 0x92, 0x4A, 0x00, 0x00, 0x92, 0x4F, 0x00, 0x50, 0x91, 0x2B, 0x79, 0x00, 0x99, 0x2A, 0x32, 0x00, 0x99, 0x24, 0x4E, 0x01, 0x99, 0x2A, 0x00, 0x00, 0x99, 0x24, 0x00, 0x81, 0x11, 0x91, 0x2B, 0x00, 0x0E, 0x91, 0x2B, 0x79, 0x00, 0x92, 0x47, 0x76, 0x00, 0x92, 0x4A, 0x76, 0x00, 0x92, 0x4F, 0x76, 0x00, 0x99, 
	0x2A, 0x4E, 0x00, 0x99, 0x24, 0x6A, 0x01, 0x99, 0x2A, 0x00, 0x00, 0x99, 0x24, 0x00, 0x81, 0x1F, 0x99, 0x2A, 0x32, 0x01, 0x99, 0x2A, 0x00, 0x4F, 0x92, 0x47, 0x00, 0x00, 0x92, 0x4A, 0x00, 0x00, 0x92, 0x4F, 0x00, 0x3C, 0x93, 0x4A, 0x00, 0x14, 0x93, 0x48, 0x7F, 0x00, 0x99, 0x2A, 0x32, 0x01, 0x99, 0x2A, 0x00, 0x81, 0x11, 0x93, 0x48, 0x00, 0x0E, 0x92, 0x47, 0x76, 0x00, 0x92, 0x4A, 0x76, 
	0x00, 0x92, 0x4F, 0x76, 0x00, 0x93, 0x47, 0x7F, 0x00, 0x99, 0x2A, 0x4E, 0x00, 0x99, 0x28, 0x6A, 0x01, 0x99, 0x2A, 0x00, 0x00, 0x99, 0x28, 0x00, 0x81, 0x0B, 0x94, 0x4A, 0x00, 0x14, 0x94, 0x48, 0x7F, 0x00, 0x99, 0x2A, 0x32, 0x01, 0x99, 0x2A, 0x00, 0x4F, 0x92, 0x47, 0x00, 0x00, 0x92, 0x4A, 0x00, 0x00, 0x92, 0x4F, 0x00, 0x3C, 0x93, 0x47, 0x00, 0x06, 0x94, 0x48, 0x00, 0x0E, 0x93, 0x48, 
	0x7F, 0x00, 0x94, 0x47, 0x7F, 0x00, 0x99, 0x2A, 0x32, 0x01, 0x99, 0x2A, 0x00, 0x77, 0x91, 0x2B, 0x00, 0x14, 0x96, 0x43, 0x00, 0x00, 0x96, 0x47, 0x00, 0x00, 0x96, 0x4A, 0x00, 0x14, 0x91, 0x29, 0x79, 0x00, 0x92, 0x35, 0x76, 0x00, 0x95, 0x4C, 0x63, 0x00, 0x95, 0x58, 0x79, 0x00, 0x96, 0x41, 0x6F, 0x00, 0x96, 0x45, 0x6F, 0x00, 0x96, 0x48, 0x6F, 0x00, 0x99, 0x2A, 0x4E, 0x00, 0x99, 0x24, 
	0x6A, 0x01, 0x99, 0x2A, 0x00, 0x00, 0x99, 0x24, 0x00, 0x13, 0x92, 0x45, 0x76, 0x14, 0x92, 0x48, 0x76, 0x14, 0x92, 0x4D, 0x76, 0x50, 0x94, 0x47, 0x00, 0x14, 0x94, 0x48, 0x7F, 0x00, 0x99, 0x2A, 0x32, 0x01, 0x99, 0x2A, 0x00, 0x81, 0x1F, 0x99, 0x2A, 0x32, 0x01, 0x99, 0x2A, 0x00, 0x81, 0x1F, 0x97, 0x48, 0x63, 0x00, 0x97, 0x51, 0x7F, 0x00, 0x99, 0x2A, 0x4E, 0x00, 0x99, 0x28, 0x6A, 0x01, 
	0x99, 0x2A, 0x00, 0x00, 0x99, 0x28, 0x00, 0x81, 0x1F, 0x99, 0x2A, 0x32, 0x01, 0x99, 0x2A, 0x00, 0x81, 0x1F, 0x99, 0x2A, 0x32, 0x00, 0x99, 0x24, 0x4E, 0x01, 0x99, 0x2A, 0x00, 0x00, 0x99, 0x24, 0x00, 0x81, 0x01, 0x97, 0x48, 0x00, 0x00, 0x97, 0x51, 0x00, 0x1E, 0x97, 0x4C, 0x63, 0x00, 0x97, 0x54, 0x7F, 0x00, 0x99, 0x2A, 0x4E, 0x00, 0x99, 0x24, 0x6A, 0x01, 0x99, 0x2A, 0x00, 0x00, 0x99, 
	0x24, 0x00, 0x81, 0x1F, 0x99, 0x2A, 0x32, 0x01, 0x99, 0x2A, 0x00, 0x81, 0x1F, 0x99, 0x2A, 0x32, 0x00, 0x99, 0x24, 0x6A, 0x01, 0x99, 0x2A, 0x00, 0x00, 0x99, 0x24, 0x00, 0x81, 0x01, 0x97, 0x4C, 0x00, 0x00, 0x97, 0x54, 0x00, 0x1E, 0x97, 0x4F, 0x63, 0x00, 0x97, 0x58, 0x7F, 0x00, 0x99, 0x2A, 0x4E, 0x00, 0x99, 0x28, 0x6A, 0x01, 0x99, 0x2A, 0x00, 0x00, 0x99, 0x28, 0x00, 0x81, 0x1F, 0x99, 
	0x2A, 0x32, 0x01, 0x99, 0x2A, 0x00, 0x81, 0x1F, 0x99, 0x2A, 0x32, 0x00, 0x99, 0x24, 0x4E, 0x01, 0x99, 0x2A, 0x00, 0x00, 0x99, 0x24, 0x00, 0x81, 0x01, 0x97, 0x4F, 0x00, 0x00, 0x97, 0x58, 0x00, 0x0A, 0x91, 0x29, 0x00, 0x00, 0x95, 0x4C, 0x00, 0x00, 0x95, 0x58, 0x00, 0x00, 0x96, 0x41, 0x00, 0x00, 0x96, 0x45, 0x00, 0x00, 0x96, 0x48, 0x00, 0x14, 0x91, 0x2B, 0x79, 0x00, 0x92, 0x35, 0x00, 
	0x00, 0x92, 0x45, 0x00, 0x00, 0x92, 0x48, 0x00, 0x00, 0x92, 0x4D, 0x00, 0x00, 0x92, 0x37, 0x76, 0x00, 0x95, 0x4A, 0x63, 0x00, 0x95, 0x56, 0x79, 0x00, 0x96, 0x43, 0x6F, 0x00, 0x96, 0x47, 0x6F, 0x00, 0x96, 0x4A, 0x6F, 0x00, 0x97, 0x4D, 0x63, 0x00, 0x97, 0x56, 0x7F, 0x00, 0x99, 0x2A, 0x4E, 0x01, 0x99, 0x2A, 0x00, 0x13, 0x92, 0x47, 0x76, 0x14, 0x92, 0x4A, 0x76, 0x14, 0x92, 0x4F, 0x76, 
	0x64, 0x99, 0x2A, 0x32, 0x01, 0x99, 0x2A, 0x00, 0x81, 0x1F, 0x99, 0x2A, 0x32, 0x00, 0x99, 0x24, 0x4E, 0x01, 0x99, 0x2A, 0x00, 0x00, 0x99, 0x24, 0x00, 0x81, 0x01, 0x93, 0x48, 0x00, 0x1E, 0x93, 0x48, 0x7F, 0x00, 0x99, 0x2A, 0x4E, 0x00, 0x99, 0x28, 0x6A, 0x01, 0x99, 0x2A, 0x00, 0x00, 0x99, 0x28, 0x00, 0x81, 0x1F, 0x99, 0x2A, 0x32, 0x01, 0x99, 0x2A, 0x00, 0x81, 0x01, 0x94, 0x48, 0x00, 
	0x1E, 0x94, 0x48, 0x7F, 0x00, 0x99, 0x2A, 0x32, 0x00, 0x99, 0x24, 0x4E, 0x01, 0x99, 0x2A, 0x00, 0x00, 0x99, 0x24, 0x00, 0x77, 0x95, 0x4A, 0x00, 0x00, 0x95, 0x56, 0x00, 0x0A, 0x93, 0x48, 0x00, 0x1E, 0x93, 0x4A, 0x7F, 0x00, 0x95, 0x45, 0x63, 0x00, 0x95, 0x51, 0x79, 0x00, 0x99, 0x2A, 0x4E, 0x00, 0x99, 0x24, 0x6A, 0x01, 0x99, 0x2A, 0x00, 0x00, 0x99, 0x24, 0x00, 0x81, 0x1F, 0x99, 0x2A, 
	0x32, 0x01, 0x99, 0x2A, 0x00, 0x81, 0x01, 0x94, 0x48, 0x00, 0x0A, 0x93, 0x4A, 0x00, 0x14, 0x93, 0x48, 0x7F, 0x00, 0x94, 0x4A, 0x7F, 0x00, 0x99, 0x2A, 0x32, 0x01, 0x99, 0x2A, 0x00, 0x81, 0x1F, 0x99, 0x2A, 0x4E, 0x00, 0x99, 0x28, 0x6A, 0x01, 0x99, 0x2A, 0x00, 0x00, 0x99, 0x28, 0x00, 0x81, 0x0B, 0x94, 0x4A, 0x00, 0x14, 0x94, 0x48, 0x7F, 0x00, 0x99, 0x2A, 0x32, 0x01, 0x99, 0x2A, 0x00, 
	0x81, 0x0B, 0x93, 0x48, 0x00, 0x14, 0x93, 0x4A, 0x7F, 0x00, 0x99, 0x2A, 0x32, 0x01, 0x99, 0x2A, 0x00, 0x77, 0x95, 0x45, 0x00, 0x00, 0x95, 0x51, 0x00, 0x14, 0x91, 0x2B, 0x00, 0x00, 0x96, 0x43, 0x00, 0x00, 0x96, 0x47, 0x00, 0x00, 0x96, 0x4A, 0x00, 0x00, 0x97, 0x4D, 0x00, 0x00, 0x97, 0x56, 0x00, 0x06, 0x93, 0x4A, 0x00, 0x0E, 0x91, 0x24, 0x79, 0x00, 0x92, 0x37, 0x00, 0x00, 0x92, 0x47, 
	0x00, 0x00, 0x92, 0x4A, 0x00, 0x00, 0x92, 0x4F, 0x00, 0x00, 0x92, 0x43, 0x76, 0x00, 0x92, 0x48, 0x76, 0x00, 0x92, 0x4C, 0x76, 0x00, 0x93, 0x4F, 0x7F, 0x00, 0x95, 0x48, 0x63, 0x00, 0x95, 0x54, 0x79, 0x00, 0x96, 0x40, 0x6F, 0x00, 0x96, 0x43, 0x6F, 0x00, 0x96, 0x48, 0x6F, 0x00, 0x99, 0x31, 0x4E, 0x00, 0x99, 0x24, 0x6A, 0x01, 0x99, 0x31, 0x00, 0x00, 0x99, 0x24, 0x00, 0x81, 0x0B, 0x94, 
	0x48, 0x00, 0x14, 0x94, 0x4A, 0x7F, 0x50, 0x92, 0x43, 0x00, 0x00, 0x92, 0x48, 0x00, 0x00, 0x92, 0x4C, 0x00, 0x3C, 0x91, 0x24, 0x00, 0x06, 0x94, 0x4A, 0x00, 0x0E, 0x94, 0x4F, 0x7F, 0x81, 0x02, 0x93, 0x4F, 0x00, 0x1E, 0x91, 0x24, 0x79, 0x00, 0x92, 0x43, 0x76, 0x00, 0x92, 0x48, 0x76, 0x00, 0x92, 0x4C, 0x76, 0x00, 0x93, 0x4F, 0x7F, 0x00, 0x97, 0x4F, 0x63, 0x00, 0x97, 0x58, 0x7F, 0x00, 
	0x99, 0x2A, 0x4E, 0x00, 0x99, 0x28, 0x6A, 0x01, 0x99, 0x2A, 0x00, 0x00, 0x99, 0x28, 0x00, 0x81, 0x1F, 0x99, 0x2A, 0x32, 0x01, 0x99, 0x2A, 0x00, 0x4F, 0x92, 0x43, 0x00, 0x00, 0x92, 0x48, 0x00, 0x00, 0x92, 0x4C, 0x00, 0x32, 0x94, 0x4F, 0x00, 0x0A, 0x91, 0x24, 0x00, 0x14, 0x94, 0x4F, 0x7F, 0x00, 0x99, 0x2A, 0x32, 0x00, 0x99, 0x24, 0x4E, 0x01, 0x99, 0x2A, 0x00, 0x00, 0x99, 0x24, 0x00, 
	0x77, 0x96, 0x40, 0x00, 0x00, 0x96, 0x43, 0x00, 0x00, 0x96, 0x48, 0x00, 0x0A, 0x93, 0x4F, 0x00, 0x00, 0x97, 0x4F, 0x00, 0x00, 0x97, 0x58, 0x00, 0x1E, 0x91, 0x23, 0x79, 0x00, 0x92, 0x43, 0x76, 0x00, 0x92, 0x47, 0x76, 0x00, 0x92, 0x4A, 0x76, 0x00, 0x93, 0x4C, 0x7F, 0x00, 0x96, 0x3E, 0x6F, 0x00, 0x96, 0x43, 0x6F, 0x00, 0x96, 0x47, 0x6F, 0x00, 0x97, 0x51, 0x63, 0x00, 0x97, 0x59, 0x7F, 
	0x00, 0x99, 0x2A, 0x4E, 0x00, 0x99, 0x24, 0x6A, 0x01, 0x99, 0x2A, 0x00, 0x00, 0x99, 0x24, 0x00, 0x81, 0x1F, 0x99, 0x2A, 0x32, 0x01, 0x99, 0x2A, 0x00, 0x4F, 0x92, 0x43, 0x00, 0x00, 0x92, 0x47, 0x00, 0x00, 0x92, 0x4A, 0x00, 0x32, 0x94, 0x4F, 0x00, 0x1E, 0x94, 0x4C, 0x7F, 0x00, 0x99, 0x2A, 0x32, 0x00, 0x99, 0x24, 0x6A, 0x01, 0x99, 0x2A, 0x00, 0x00, 0x99, 0x24, 0x00, 0x81, 0x01, 0x93, 
	0x4C, 0x00, 0x00, 0x97, 0x51, 0x00, 0x00, 0x97, 0x59, 0x00, 0x1E, 0x92, 0x43, 0x76, 0x00, 0x92, 0x47, 0x76, 0x00, 0x92, 0x4A, 0x76, 0x00, 0x93, 0x4F, 0x7F, 0x00, 0x97, 0x53, 0x63, 0x00, 0x97, 0x5B, 0x7F, 0x00, 0x99, 0x2A, 0x4E, 0x00, 0x99, 0x28, 0x6A, 0x01, 0x99, 0x2A, 0x00, 0x00, 0x99, 0x28, 0x00, 0x81, 0x1F, 0x99, 0x2A, 0x32, 0x01, 0x99, 0x2A, 0x00, 0x4F, 0x92, 0x43, 0x00, 0x00, 
	0x92, 0x47, 0x00, 0x00, 0x92, 0x4A, 0x00, 0x32, 0x94, 0x4C, 0x00, 0x0A, 0x91, 0x23, 0x00, 0x00, 0x93, 0x4F, 0x00, 0x00, 0x97, 0x53, 0x00, 0x00, 0x97, 0x5B, 0x00, 0x14, 0x91, 0x2D, 0x79, 0x00, 0x93, 0x48, 0x7F, 0x00, 0x94, 0x4F, 0x7F, 0x00, 0x97, 0x4C, 0x63, 0x00, 0x97, 0x54, 0x7F, 0x00, 0x99, 0x2A, 0x32, 0x00, 0x99, 0x24, 0x4E, 0x01, 0x99, 0x2A, 0x00, 0x00, 0x99, 0x24, 0x00, 0x77, 
	0x96, 0x3E, 0x00, 0x00, 0x96, 0x43, 0x00, 0x00, 0x96, 0x47, 0x00, 0x1A, 0x91, 0x2D, 0x00, 0x0E, 0x92, 0x45, 0x76, 0x00, 0x92, 0x48, 0x76, 0x00, 0x92, 0x4C, 0x76, 0x00, 0x96, 0x40, 0x6F, 0x00, 0x96, 0x45, 0x6F, 0x00, 0x96, 0x48, 0x6F, 0x00, 0x99, 0x2A, 0x4E, 0x01, 0x99, 0x2A, 0x00, 0x81, 0x0B, 0x94, 0x4F, 0x00, 0x14, 0x94, 0x48, 0x7F, 0x00, 0x99, 0x2A, 0x32, 0x01, 0x99, 0x2A, 0x00, 
	0x4F, 0x92, 0x45, 0x00, 0x00, 0x92, 0x48, 0x00, 0x00, 0x92, 0x4C, 0x00, 0x50, 0x91, 0x2D, 0x79, 0x00, 0x99, 0x2A, 0x32, 0x00, 0x99, 0x24, 0x4E, 0x01, 0x99, 0x2A, 0x00, 0x00, 0x99, 0x24, 0x00, 0x81, 0x11, 0x91, 0x2D, 0x00, 0x0E, 0x92, 0x45, 0x76, 0x00, 0x92, 0x48, 0x76, 0x00, 0x92, 0x4C, 0x76, 0x00, 0x99, 0x2A, 0x4E, 0x00, 0x99, 0x28, 0x6A, 0x01, 0x99, 0x2A, 0x00, 0x00, 0x99, 0x28, 
	0x00, 0x81, 0x1F, 0x99, 0x2A, 0x32, 0x01, 0x99, 0x2A, 0x00, 0x4F, 0x92, 0x45, 0x00, 0x00, 0x92, 0x48, 0x00, 0x00, 0x92, 0x4C, 0x00, 0x50, 0x91, 0x2D, 0x79, 0x00, 0x99, 0x2A, 0x32, 0x00, 0x99, 0x24, 0x4E, 0x01, 0x99, 0x2A, 0x00, 0x00, 0x99, 0x24, 0x00, 0x77, 0x97, 0x4C, 0x00, 0x00, 0x97, 0x54, 0x00, 0x1A, 0x91, 0x2D, 0x00, 0x0E, 0x91, 0x2D, 0x79, 0x00, 0x92, 0x43, 0x76, 0x00, 0x92, 
	0x48, 0x76, 0x00, 0x92, 0x4C, 0x76, 0x00, 0x97, 0x4F, 0x50, 0x00, 0x97, 0x58, 0x6E, 0x00, 0x99, 0x2A, 0x4E, 0x00, 0x99, 0x24, 0x6A, 0x01, 0x99, 0x2A, 0x00, 0x00, 0x99, 0x24, 0x00, 0x81, 0x1F, 0x99, 0x2A, 0x32, 0x01, 0x99, 0x2A, 0x00, 0x4F, 0x92, 0x43, 0x00, 0x00, 0x92, 0x48, 0x00, 0x00, 0x92, 0x4C, 0x00, 0x3C, 0x93, 0x48, 0x00, 0x14, 0x93, 0x48, 0x7F, 0x00, 0x99, 0x2A, 0x32, 0x01, 
	0x99, 0x2A, 0x00, 0x81, 0x01, 0x91, 0x2D, 0x00, 0x10, 0x93, 0x48, 0x00, 0x0E, 0x91, 0x2B, 0x79, 0x00, 0x92, 0x43, 0x76, 0x00, 0x92, 0x48, 0x76, 0x00, 0x92, 0x4C, 0x76, 0x00, 0x93, 0x48, 0x7F, 0x00, 0x99, 0x2A, 0x4E, 0x00, 0x99, 0x28, 0x6A, 0x01, 0x99, 0x2A, 0x00, 0x00, 0x99, 0x28, 0x00, 0x81, 0x0B, 0x94, 0x48, 0x00, 0x14, 0x94, 0x48, 0x7F, 0x00, 0x99, 0x2A, 0x32, 0x01, 0x99, 0x2A, 
	0x00, 0x4F, 0x92, 0x43, 0x00, 0x00, 0x92, 0x48, 0x00, 0x00, 0x92, 0x4C, 0x00, 0x3C, 0x93, 0x48, 0x00, 0x06, 0x94, 0x48, 0x00, 0x0E, 0x93, 0x48, 0x7F, 0x00, 0x94, 0x48, 0x7F, 0x00, 0x99, 0x2A, 0x32, 0x01, 0x99, 0x2A, 0x00, 0x77, 0x97, 0x4F, 0x00, 0x00, 0x97, 0x58, 0x00, 0x0A, 0x91, 0x2B, 0x00, 0x0A, 0x96, 0x40, 0x00, 0x00, 0x96, 0x45, 0x00, 0x00, 0x96, 0x48, 0x00, 0x06, 0x93, 0x48, 
	0x00, 0x0E, 0x91, 0x29, 0x79, 0x00, 0x92, 0x45, 0x76, 0x00, 0x92, 0x48, 0x76, 0x00, 0x92, 0x4D, 0x76, 0x00, 0x93, 0x4F, 0x7F, 0x00, 0x96, 0x41, 0x6F, 0x00, 0x96, 0x45, 0x6F, 0x00, 0x96, 0x48, 0x6F, 0x00, 0x97, 0x51, 0x63, 0x00, 0x97, 0x59, 0x7F, 0x00, 0x99, 0x24, 0x6A, 0x00, 0x99, 0x2A, 0x4E, 0x01, 0x99, 0x24, 0x00, 0x00, 0x99, 0x2A, 0x00, 0x81, 0x0B, 0x94, 0x48, 0x00, 0x14, 0x94, 
	0x48, 0x7F, 0x00, 0x99, 0x2A, 0x32, 0x01, 0x99, 0x2A, 0x00, 0x4F, 0x92, 0x45, 0x00, 0x00, 0x92, 0x48, 0x00, 0x00, 0x92, 0x4D, 0x00, 0x3C, 0x91, 0x29, 0x00, 0x00, 0x93, 0x4F, 0x00, 0x06, 0x94, 0x48, 0x00, 0x0E, 0x93, 0x4F, 0x7F, 0x00, 0x94, 0x4F, 0x7F, 0x00, 0x99, 0x2A, 0x32, 0x01, 0x99, 0x2A, 0x00, 0x81, 0x11, 0x93, 0x4F, 0x00, 0x0E, 0x91, 0x29, 0x79, 0x00, 0x92, 0x45, 0x76, 0x00, 
	0x92, 0x48, 0x76, 0x00, 0x92, 0x4D, 0x76, 0x00, 0x93, 0x4D, 0x7F, 0x00, 0x99, 0x28, 0x6A, 0x00, 0x99, 0x2A, 0x4E, 0x01, 0x99, 0x28, 0x00, 0x00, 0x99, 0x2A, 0x00, 0x81, 0x0B, 0x94, 0x4F, 0x00, 0x14, 0x94, 0x4F, 0x7F, 0x00, 0x99, 0x2A, 0x32, 0x01, 0x99, 0x2A, 0x00, 0x4F, 0x92, 0x45, 0x00, 0x00, 0x92, 0x48, 0x00, 0x00, 0x92, 0x4D, 0x00, 0x3C, 0x91, 0x29, 0x00, 0x00, 0x93, 0x4D, 0x00, 
	0x06, 0x94, 0x4F, 0x00, 0x0E, 0x93, 0x4D, 0x7F, 0x00, 0x94, 0x4D, 0x7F, 0x00, 0x99, 0x24, 0x4E, 0x00, 0x99, 0x2A, 0x32, 0x01, 0x99, 0x24, 0x00, 0x00, 0x99, 0x2A, 0x00, 0x81, 0x11, 0x93, 0x4D, 0x00, 0x0E, 0x91, 0x29, 0x79, 0x00, 0x92, 0x45, 0x76, 0x00, 0x92, 0x4D, 0x76, 0x00, 0x93, 0x4C, 0x7F, 0x00, 0x99, 0x28, 0x5C, 0x01, 0x99, 0x28, 0x00, 0x81, 0x0B, 0x94, 0x4D, 0x00, 0x14, 0x94, 
	0x4D, 0x7F, 0x00, 0x99, 0x28, 0x4E, 0x01, 0x99, 0x28, 0x00, 0x81, 0x0B, 0x92, 0x45, 0x00, 0x00, 0x92, 0x4D, 0x00, 0x00, 0x93, 0x4C, 0x00, 0x06, 0x94, 0x4D, 0x00, 0x0E, 0x92, 0x4C, 0x76, 0x00, 0x93, 0x4A, 0x7F, 0x00, 0x94, 0x4C, 0x7F, 0x00, 0x99, 0x30, 0x5C, 0x01, 0x99, 0x30, 0x00, 0x81, 0x11, 0x92, 0x4C, 0x00, 0x00, 0x93, 0x4A, 0x00, 0x0E, 0x92, 0x4D, 0x76, 0x00, 0x93, 0x48, 0x7F, 
	0x00, 0x99, 0x2D, 0x5C, 0x01, 0x99, 0x2D, 0x00, 0x81, 0x0B, 0x94, 0x4C, 0x00, 0x14, 0x94, 0x4A, 0x7F, 0x81, 0x0C, 0x91, 0x29, 0x00, 0x00, 0x92, 0x4D, 0x00, 0x00, 0x93, 0x48, 0x00, 0x06, 0x94, 0x4A, 0x00, 0x0E, 0x91, 0x2B, 0x79, 0x00, 0x92, 0x47, 0x76, 0x00, 0x92, 0x4A, 0x76, 0x00, 0x92, 0x4F, 0x76, 0x00, 0x93, 0x4A, 0x7F, 0x00, 0x94, 0x48, 0x7F, 0x00, 0x99, 0x31, 0x4E, 0x00, 0x99, 
	0x24, 0x4E, 0x01, 0x99, 0x31, 0x00, 0x00, 0x99, 0x24, 0x00, 0x27, 0x96, 0x41, 0x00, 0x00, 0x96, 0x45, 0x00, 0x00, 0x96, 0x48, 0x00, 0x64, 0x95, 0x48, 0x00, 0x00, 0x95, 0x54, 0x00, 0x00, 0x97, 0x51, 0x00, 0x00, 0x97, 0x59, 0x00, 0x06, 0x91, 0x2B, 0x00, 0x00, 0x92, 0x47, 0x00, 0x00, 0x92, 0x4A, 0x00, 0x00, 0x92, 0x4F, 0x00, 0x81, 0x1A, 0x94, 0x48, 0x00, 0x14, 0x94, 0x4A, 0x7F, 0x82, 
	0x40, 0x91, 0x1F, 0x79, 0x00, 0x92, 0x3B, 0x76, 0x00, 0x92, 0x3E, 0x76, 0x00, 0x92, 0x43, 0x76, 0x00, 0x99, 0x24, 0x6A, 0x01, 0x99, 0x24, 0x00, 0x83, 0x5F, 0x99, 0x24, 0x6A, 0x01, 0x99, 0x24, 0x00, 0x82, 0x2B, 0x93, 0x4A, 0x00, 0x14, 0x93, 0x48, 0x7F, 0x00, 0x99, 0x28, 0x6A, 0x01, 0x99, 0x28, 0x00, 0x81, 0x11, 0x93, 0x48, 0x00, 0x0E, 0x93, 0x47, 0x7F, 0x00, 0x99, 0x2D, 0x5C, 0x01, 
	0x99, 0x2D, 0x00, 0x81, 0x0B, 0x94, 0x4A, 0x00, 0x14, 0x94, 0x48, 0x7F, 0x00, 0x99, 0x29, 0x5C, 0x01, 0x99, 0x29, 0x00, 0x81, 0x0B, 0x93, 0x47, 0x00, 0x06, 0x94, 0x48, 0x00, 0x0E, 0x93, 0x48, 0x7F, 0x00, 0x94, 0x47, 0x7F, 0x00, 0x99, 0x28, 0x6A, 0x01, 0x99, 0x28, 0x00, 0x81, 0x0B, 0x91, 0x1F, 0x00, 0x00, 0x92, 0x3B, 0x00, 0x00, 0x92, 0x3E, 0x00, 0x00, 0x92, 0x43, 0x00, 0x14, 0x91, 
	0x24, 0x79, 0x00, 0x92, 0x43, 0x76, 0x00, 0x92, 0x48, 0x76, 0x00, 0x92, 0x4C, 0x76, 0x00, 0x95, 0x48, 0x63, 0x00, 0x95, 0x54, 0x79, 0x00, 0x96, 0x43, 0x6F, 0x00, 0x96, 0x48, 0x6F, 0x00, 0x96, 0x4C, 0x6F, 0x00, 0x99, 0x31, 0x4E, 0x00, 0x99, 0x24, 0x6A, 0x01, 0x99, 0x31, 0x00, 0x00, 0x99, 0x24, 0x00, 0x81, 0x0B, 0x94, 0x47, 0x00, 0x14, 0x94, 0x48, 0x7F, 0x50, 0x92, 0x43, 0x00, 0x00, 
	0x92, 0x48, 0x00, 0x00, 0x92, 0x4C, 0x00, 0x3C, 0x91, 0x24, 0x00, 0x81, 0x34, 0x91, 0x24, 0x79, 0x00, 0x92, 0x43, 0x76, 0x00, 0x92, 0x48, 0x76, 0x00, 0x92, 0x4C, 0x76, 0x00, 0x97, 0x48, 0x63, 0x00, 0x97, 0x4F, 0x7F, 0x00, 0x99, 0x2A, 0x4E, 0x00, 0x99, 0x28, 0x6A, 0x01, 0x99, 0x2A, 0x00, 0x00, 0x99, 0x28, 0x00, 0x81, 0x1F, 0x99, 0x2A, 0x32, 0x01, 0x99, 0x2A, 0x00, 0x4F, 0x92, 0x43, 
	0x00, 0x00, 0x92, 0x48, 0x00, 0x00, 0x92, 0x4C, 0x00, 0x3C, 0x91, 0x24, 0x00, 0x14, 0x99, 0x2A, 0x32, 0x00, 0x99, 0x24, 0x4E, 0x01, 0x99, 0x2A, 0x00, 0x00, 0x99, 0x24, 0x00, 0x81, 0x01, 0x97, 0x48, 0x00, 0x00, 0x97, 0x4F, 0x00, 0x1E, 0x91, 0x24, 0x79, 0x00, 0x92, 0x43, 0x76, 0x00, 0x92, 0x48, 0x76, 0x00, 0x92, 0x4C, 0x76, 0x00, 0x97, 0x4C, 0x63, 0x00, 0x97, 0x54, 0x7F, 0x00, 0x99, 
	0x2A, 0x4E, 0x00, 0x99, 0x24, 0x6A, 0x01, 0x99, 0x2A, 0x00, 0x00, 0x99, 0x24, 0x00, 0x81, 0x1F, 0x99, 0x2A, 0x32, 0x01, 0x99, 0x2A, 0x00, 0x81, 0x1F, 0x99, 0x2A, 0x32, 0x00, 0x99, 0x24, 0x6A, 0x01, 0x99, 0x2A, 0x00, 0x00, 0x99, 0x24, 0x00, 0x81, 0x01, 0x97, 0x4C, 0x00, 0x00, 0x97, 0x54, 0x00, 0x1E, 0x97, 0x4F, 0x63, 0x00, 0x97, 0x58, 0x7F, 0x00, 0x99, 0x2A, 0x4E, 0x00, 0x99, 0x28, 
	0x6A, 0x01, 0x99, 0x2A, 0x00, 0x00, 0x99, 0x28, 0x00, 0x81, 0x1F, 0x99, 0x2A, 0x32, 0x01, 0x99, 0x2A, 0x00, 0x81, 0x0B, 0x91, 0x24, 0x00, 0x00, 0x92, 0x43, 0x00, 0x00, 0x92, 0x48, 0x00, 0x00, 0x92, 0x4C, 0x00, 0x00, 0x97, 0x4F, 0x00, 0x00, 0x97, 0x58, 0x00, 0x14, 0x91, 0x24, 0x79, 0x00, 0x92, 0x45, 0x76, 0x00, 0x92, 0x48, 0x76, 0x00, 0x92, 0x4D, 0x76, 0x00, 0x97, 0x51, 0x63, 0x00, 
	0x97, 0x59, 0x7F, 0x00, 0x99, 0x2A, 0x32, 0x00, 0x99, 0x24, 0x4E, 0x01, 0x99, 0x2A, 0x00, 0x00, 0x99, 0x24, 0x00, 0x81, 0x0B, 0x93, 0x48, 0x00, 0x06, 0x91, 0x24, 0x00, 0x00, 0x92, 0x45, 0x00, 0x00, 0x92, 0x48, 0x00, 0x00, 0x92, 0x4D, 0x00, 0x0E, 0xB3, 0x20, 0x40, 0x00, 0xC3, 0x3E, 0x00, 0x99, 0x2A, 0x4E, 0x01, 0x99, 0x2A, 0x00, 0x81, 0x1F, 0x99, 0x2A, 0x32, 0x01, 0x99, 0x2A, 0x00, 
	0x81, 0x0B, 0x94, 0x48, 0x00, 0x00, 0x97, 0x51, 0x00, 0x00, 0x97, 0x59, 0x00, 0x14, 0x91, 0x24, 0x79, 0x00, 0x92, 0x43, 0x76, 0x00, 0x92, 0x47, 0x76, 0x00, 0x92, 0x4A, 0x76, 0x00, 0xB4, 0x20, 0x40, 0x00, 0xC4, 0x3E, 0x00, 0x97, 0x4D, 0x63, 0x00, 0x97, 0x56, 0x7F, 0x00, 0x99, 0x2A, 0x32, 0x00, 0x99, 0x24, 0x4E, 0x01, 0x99, 0x2A, 0x00, 0x00, 0x99, 0x24, 0x00, 0x81, 0x11, 0x91, 0x24, 
	0x00, 0x00, 0x92, 0x43, 0x00, 0x00, 0x92, 0x47, 0x00, 0x00, 0x92, 0x4A, 0x00, 0x0E, 0x99, 0x2A, 0x4E, 0x00, 0x99, 0x28, 0x6A, 0x01, 0x99, 0x2A, 0x00, 0x00, 0x99, 0x28, 0x00, 0x81, 0x1F, 0x99, 0x2A, 0x32, 0x01, 0x99, 0x2A, 0x00, 0x81, 0x0B, 0x97, 0x4D, 0x00, 0x00, 0x97, 0x56, 0x00, 0x14, 0x91, 0x24, 0x79, 0x00, 0x92, 0x43, 0x76, 0x00, 0x92, 0x48, 0x76, 0x00, 0x92, 0x4C, 0x76, 0x00, 
	0x97, 0x4F, 0x63, 0x00, 0x97, 0x58, 0x7F, 0x00, 0x99, 0x2A, 0x32, 0x00, 0x99, 0x24, 0x4E, 0x01, 0x99, 0x2A, 0x00, 0x00, 0x99, 0x24, 0x00, 0x81, 0x11, 0x91, 0x24, 0x00, 0x00, 0x92, 0x43, 0x00, 0x00, 0x92, 0x48, 0x00, 0x00, 0x92, 0x4C, 0x00, 0x00, 0x97, 0x4F, 0x00, 0x00, 0x97, 0x58, 0x00, 0x0E, 0x91, 0x24, 0x79, 0x00, 0x92, 0x43, 0x76, 0x00, 0x92, 0x48, 0x76, 0x00, 0x92, 0x4C, 0x76, 
	0x00, 0x97, 0x4F, 0x63, 0x00, 0x97, 0x58, 0x7F, 0x00, 0x99, 0x2A, 0x4E, 0x00, 0x99, 0x24, 0x6A, 0x01, 0x99, 0x2A, 0x00, 0x00, 0x99, 0x24, 0x00, 0x81, 0x1F, 0x99, 0x2A, 0x32, 0x01, 0x99, 0x2A, 0x00, 0x81, 0x1F, 0x99, 0x2A, 0x32, 0x01, 0x99, 0x2A, 0x00, 0x81, 0x01, 0x91, 0x24, 0x00, 0x1E, 0x91, 0x24, 0x79, 0x00, 0x99, 0x28, 0x6A, 0x01, 0x99, 0x28, 0x00, 0x81, 0x1F, 0x93, 0x45, 0x7F, 
	0x00, 0x99, 0x2D, 0x6A, 0x01, 0x99, 0x2D, 0x00, 0x81, 0x11, 0x93, 0x45, 0x00, 0x0E, 0x93, 0x47, 0x7F, 0x00, 0x99, 0x29, 0x6A, 0x01, 0x99, 0x29, 0x00, 0x77, 0x92, 0x43, 0x00, 0x00, 0x92, 0x48, 0x00, 0x00, 0x92, 0x4C, 0x00, 0x00, 0x97, 0x4F, 0x00, 0x00, 0x97, 0x58, 0x00, 0x0A, 0x91, 0x24, 0x00, 0x0A, 0x95, 0x48, 0x00, 0x00, 0x95, 0x54, 0x00, 0x00, 0x96, 0x43, 0x00, 0x00, 0x96, 0x48, 
	0x00, 0x00, 0x96, 0x4C, 0x00, 0x06, 0x93, 0x47, 0x00, 0x0E, 0x91, 0x29, 0x79, 0x00, 0x92, 0x45, 0x76, 0x00, 0x92, 0x48, 0x76, 0x00, 0x92, 0x4C, 0x76, 0x00, 0x93, 0x48, 0x7F, 0x00, 0x94, 0x45, 0x7F, 0x00, 0x95, 0x48, 0x63, 0x00, 0x95, 0x54, 0x79, 0x00, 0x96, 0x45, 0x6F, 0x00, 0x96, 0x48, 0x6F, 0x00, 0x96, 0x4C, 0x6F, 0x00, 0x99, 0x31, 0x4E, 0x00, 0x99, 0x2A, 0x4E, 0x00, 0x99, 0x24, 
	0x6A, 0x01, 0x99, 0x31, 0x00, 0x00, 0x99, 0x2A, 0x00, 0x00, 0x99, 0x24, 0x00, 0x81, 0x11, 0x94, 0x45, 0x00, 0x0E, 0x94, 0x47, 0x7F, 0x00, 0x99, 0x2A, 0x32, 0x01, 0x99, 0x2A, 0x00, 0x4F, 0x91, 0x29, 0x00, 0x00, 0x92, 0x45, 0x00, 0x00, 0x92, 0x48, 0x00, 0x00, 0x92, 0x4C, 0x00, 0x42, 0x94, 0x47, 0x00, 0x0E, 0x94, 0x48, 0x7F, 0x00, 0x99, 0x2A, 0x32, 0x01, 0x99, 0x2A, 0x00, 0x81, 0x1F, 
	0x91, 0x29, 0x79, 0x00, 0x92, 0x45, 0x76, 0x00, 0x92, 0x48, 0x76, 0x00, 0x92, 0x4C, 0x76, 0x00, 0x99, 0x2A, 0x4E, 0x00, 0x99, 0x28, 0x6A, 0x01, 0x99, 0x2A, 0x00, 0x00, 0x99, 0x28, 0x00, 0x81, 0x1F, 0x99, 0x2A, 0x32, 0x01, 0x99, 0x2A, 0x00, 0x4F, 0x91, 0x29, 0x00, 0x00, 0x92, 0x45, 0x00, 0x00, 0x92, 0x48, 0x00, 0x00, 0x92, 0x4C, 0x00, 0x50, 0x99, 0x2A, 0x32, 0x00, 0x99, 0x24, 0x4E, 
	0x01, 0x99, 0x2A, 0x00, 0x00, 0x99, 0x24, 0x00, 0x81, 0x1F, 0x91, 0x29, 0x79, 0x00, 0x92, 0x45, 0x76, 0x00, 0x92, 0x48, 0x76, 0x00, 0x92, 0x4C, 0x76, 0x00, 0x99, 0x2A, 0x4E, 0x00, 0x99, 0x24, 0x6A, 0x01, 0x99, 0x2A, 0x00, 0x00, 0x99, 0x24, 0x00, 0x81, 0x1F, 0x99, 0x2A, 0x32, 0x01, 0x99, 0x2A, 0x00, 0x4F, 0x91, 0x29, 0x00, 0x00, 0x92, 0x45, 0x00, 0x00, 0x92, 0x48, 0x00, 0x00, 0x92, 
	0x4C, 0x00, 0x50, 0x99, 0x2A, 0x32, 0x01, 0x99, 0x2A, 0x00, 0x81, 0x0B, 0x93, 0x48, 0x00, 0x14, 0x91, 0x29, 0x79, 0x00, 0x92, 0x45, 0x76, 0x00, 0x92, 0x48, 0x76, 0x00, 0x92, 0x4C, 0x76, 0x00, 0x93, 0x4A, 0x7F, 0x00, 0x99, 0x2A, 0x4E, 0x00, 0x99, 0x28, 0x6A, 0x01, 0x99, 0x2A, 0x00, 0x00, 0x99, 0x28, 0x00, 0x81, 0x1F, 0x99, 0x2A, 0x32, 0x01, 0x99, 0x2A, 0x00, 0x4F, 0x91, 0x29, 0x00, 
	0x00, 0x92, 0x45, 0x00, 0x00, 0x92, 0x48, 0x00, 0x00, 0x92, 0x4C, 0x00, 0x3C, 0x93, 0x4A, 0x00, 0x00, 0x94, 0x48, 0x00, 0x14, 0x93, 0x47, 0x7F, 0x00, 0x94, 0x4A, 0x7F, 0x00, 0x99, 0x2A, 0x32, 0x01, 0x99, 0x2A, 0x00, 0x81, 0x0B, 0x95, 0x48, 0x00, 0x00, 0x95, 0x54, 0x00, 0x00, 0x96, 0x45, 0x00, 0x00, 0x96, 0x48, 0x00, 0x00, 0x96, 0x4C, 0x00, 0x14, 0x91, 0x2B, 0x79, 0x00, 0x92, 0x43, 
	0x76, 0x00, 0x92, 0x47, 0x76, 0x00, 0x92, 0x4A, 0x76, 0x00, 0x95, 0x4A, 0x63, 0x00, 0x95, 0x56, 0x79, 0x00, 0x96, 0x43, 0x6F, 0x00, 0x96, 0x47, 0x6F, 0x00, 0x96, 0x4A, 0x6F, 0x00, 0x99, 0x24, 0x6A, 0x00, 0x99, 0x2A, 0x4E, 0x01, 0x99, 0x24, 0x00, 0x00, 0x99, 0x2A, 0x00, 0x81, 0x0B, 0x94, 0x4A, 0x00, 0x14, 0x94, 0x47, 0x7F, 0x00, 0x99, 0x2A, 0x32, 0x01, 0x99, 0x2A, 0x00, 0x4F, 0x91, 
	0x2B, 0x00, 0x00, 0x92, 0x43, 0x00, 0x00, 0x92, 0x47, 0x00, 0x00, 0x92, 0x4A, 0x00, 0x50, 0x99, 0x2A, 0x32, 0x01, 0x99, 0x2A, 0x00, 0x81, 0x1F, 0x91, 0x2B, 0x79, 0x00, 0x92, 0x43, 0x76, 0x00, 0x92, 0x47, 0x76, 0x00, 0x92, 0x4A, 0x76, 0x00, 0x99, 0x2A, 0x4E, 0x00, 0x99, 0x28, 0x6A, 0x01, 0x99, 0x2A, 0x00, 0x00, 0x99, 0x28, 0x00, 0x81, 0x1F, 0x99, 0x2A, 0x32, 0x01, 0x99, 0x2A, 0x00, 
	0x4F, 0x91, 0x2B, 0x00, 0x00, 0x92, 0x43, 0x00, 0x00, 0x92, 0x47, 0x00, 0x00, 0x92, 0x4A, 0x00, 0x3C, 0x93, 0x47, 0x00, 0x14, 0x93, 0x45, 0x7F, 0x00, 0x99, 0x2A, 0x32, 0x00, 0x99, 0x24, 0x4E, 0x01, 0x99, 0x2A, 0x00, 0x00, 0x99, 0x24, 0x00, 0x81, 0x11, 0x93, 0x45, 0x00, 0x0E, 0x91, 0x2B, 0x79, 0x00, 0x92, 0x43, 0x76, 0x00, 0x92, 0x47, 0x76, 0x00, 0x92, 0x4A, 0x76, 0x00, 0x93, 0x43, 
	0x7F, 0x00, 0x99, 0x2A, 0x4E, 0x00, 0x99, 0x24, 0x6A, 0x01, 0x99, 0x2A, 0x00, 0x00, 0x99, 0x24, 0x00, 0x81, 0x0B, 0x94, 0x47, 0x00, 0x14, 0x94, 0x45, 0x7F, 0x00, 0x99, 0x2A, 0x32, 0x01, 0x99, 0x2A, 0x00, 0x4F, 0x91, 0x2B, 0x00, 0x00, 0x92, 0x43, 0x00, 0x00, 0x92, 0x47, 0x00, 0x00, 0x92, 0x4A, 0x00, 0x3C, 0x93, 0x43, 0x00, 0x06, 0x94, 0x45, 0x00, 0x0E, 0x93, 0x45, 0x7F, 0x00, 0x94, 
	0x43, 0x7F, 0x00, 0x99, 0x2A, 0x32, 0x01, 0x99, 0x2A, 0x00, 0x81, 0x1F, 0x91, 0x2B, 0x79, 0x00, 0x92, 0x43, 0x76, 0x00, 0x92, 0x47, 0x76, 0x00, 0x92, 0x4A, 0x76, 0x00, 0x99, 0x2A, 0x4E, 0x00, 0x99, 0x28, 0x6A, 0x01, 0x99, 0x2A, 0x00, 0x00, 0x99, 0x28, 0x00, 0x81, 0x0B, 0x94, 0x43, 0x00, 0x14, 0x94, 0x45, 0x7F, 0x00, 0x99, 0x2A, 0x32, 0x01, 0x99, 0x2A, 0x00, 0x4F, 0x91, 0x2B, 0x00, 
	0x00, 0x92, 0x43, 0x00, 0x00, 0x92, 0x47, 0x00, 0x00, 0x92, 0x4A, 0x00, 0x3C, 0x93, 0x45, 0x00, 0x14, 0x93, 0x4C, 0x7F, 0x00, 0x99, 0x2A, 0x32, 0x01, 0x99, 0x2A, 0x00, 0x81, 0x0B, 0x95, 0x4A, 0x00, 0x00, 0x95, 0x56, 0x00, 0x00, 0x96, 0x43, 0x00, 0x00, 0x96, 0x47, 0x00, 0x00, 0x96, 0x4A, 0x00, 0x14, 0x91, 0x2D, 0x79, 0x00, 0x92, 0x45, 0x76, 0x00, 0x92, 0x48, 0x76, 0x00, 0x92, 0x4C, 
	0x76, 0x00, 0x95, 0x4C, 0x63, 0x00, 0x95, 0x58, 0x79, 0x00, 0x96, 0x45, 0x6F, 0x00, 0x96, 0x48, 0x6F, 0x00, 0x96, 0x4C, 0x6F, 0x00, 0x99, 0x2A, 0x4E, 0x00, 0x99, 0x24, 0x6A, 0x01, 0x99, 0x2A, 0x00, 0x00, 0x99, 0x24, 0x00, 0x81, 0x0B, 0x94, 0x45, 0x00, 0x14, 0x94, 0x4C, 0x7F, 0x00, 0x99, 0x2A, 0x32, 0x01, 0x99, 0x2A, 0x00, 0x4F, 0x91, 0x2D, 0x00, 0x00, 0x92, 0x45, 0x00, 0x00, 0x92, 
	0x48, 0x00, 0x00, 0x92, 0x4C, 0x00, 0x50, 0x99, 0x2A, 0x32, 0x01, 0x99, 0x2A, 0x00, 0x81, 0x01, 0x93, 0x4C, 0x00, 0x1E, 0x91, 0x2D, 0x79, 0x00, 0x92, 0x45, 0x76, 0x00, 0x92, 0x48, 0x76, 0x00, 0x92, 0x4C, 0x76, 0x00, 0x93, 0x51, 0x7F, 0x00, 0x99, 0x2A, 0x4E, 0x00, 0x99, 0x28, 0x6A, 0x01, 0x99, 0x2A, 0x00, 0x00, 0x99, 0x28, 0x00, 0x81, 0x1F, 0x99, 0x2A, 0x32, 0x01, 0x99, 0x2A, 0x00, 
	0x4F, 0x91, 0x2D, 0x00, 0x00, 0x92, 0x45, 0x00, 0x00, 0x92, 0x48, 0x00, 0x00, 0x92, 0x4C, 0x00, 0x32, 0x94, 0x4C, 0x00, 0x1E, 0x94, 0x51, 0x7F, 0x00, 0x99, 0x2A, 0x32, 0x00, 0x99, 0x24, 0x4E, 0x01, 0x99, 0x2A, 0x00, 0x00, 0x99, 0x24, 0x00, 0x77, 0x96, 0x45, 0x00, 0x00, 0x96, 0x48, 0x00, 0x00, 0x96, 0x4C, 0x00, 0x0A, 0x93, 0x51, 0x00, 0x1E, 0x91, 0x2B, 0x79, 0x00, 0x92, 0x43, 0x76, 
	0x00, 0x92, 0x47, 0x76, 0x00, 0x92, 0x4A, 0x76, 0x00, 0x93, 0x4C, 0x7F, 0x00, 0x96, 0x43, 0x6F, 0x00, 0x96, 0x47, 0x6F, 0x00, 0x96, 0x4A, 0x6F, 0x00, 0x99, 0x2A, 0x4E, 0x00, 0x99, 0x24, 0x6A, 0x01, 0x99, 0x2A, 0x00, 0x00, 0x99, 0x24, 0x00, 0x81, 0x1F, 0x99, 0x2A, 0x32, 0x01, 0x99, 0x2A, 0x00, 0x4F, 0x91, 0x2B, 0x00, 0x00, 0x92, 0x43, 0x00, 0x00, 0x92, 0x47, 0x00, 0x00, 0x92, 0x4A, 
	0x00, 0x32, 0x94, 0x51, 0x00, 0x1E, 0x94, 0x4C, 0x7F, 0x00, 0x99, 0x2A, 0x32, 0x01, 0x99, 0x2A, 0x00, 0x81, 0x01, 0x93, 0x4C, 0x00, 0x1E, 0x91, 0x2B, 0x79, 0x00, 0x92, 0x43, 0x76, 0x00, 0x92, 0x47, 0x76, 0x00, 0x92, 0x4A, 0x76, 0x00, 0x93, 0x4A, 0x7F, 0x00, 0x99, 0x2A, 0x4E, 0x00, 0x99, 0x28, 0x6A, 0x01, 0x99, 0x2A, 0x00, 0x00, 0x99, 0x28, 0x00, 0x81, 0x1F, 0x99, 0x2A, 0x32, 0x01, 
	0x99, 0x2A, 0x00, 0x4F, 0x91, 0x2B, 0x00, 0x00, 0x92, 0x43, 0x00, 0x00, 0x92, 0x47, 0x00, 0x00, 0x92, 0x4A, 0x00, 0x32, 0x94, 0x4C, 0x00, 0x0A, 0x93, 0x4A, 0x00, 0x14, 0x93, 0x4A, 0x7F, 0x00, 0x94, 0x4A, 0x7F, 0x00, 0x99, 0x2A, 0x32, 0x01, 0x99, 0x2A, 0x00, 0x77, 0x96, 0x43, 0x00, 0x00, 0x96, 0x47, 0x00, 0x00, 0x96, 0x4A, 0x00, 0x28, 0x91, 0x29, 0x79, 0x00, 0x92, 0x45, 0x76, 0x00, 
	0x92, 0x48, 0x76, 0x00, 0x92, 0x4C, 0x76, 0x00, 0x96, 0x45, 0x6F, 0x00, 0x96, 0x48, 0x6F, 0x00, 0x96, 0x4C, 0x6F, 0x00, 0x99, 0x24, 0x6A, 0x00, 0x99, 0x2A, 0x4E, 0x01, 0x99, 0x24, 0x00, 0x00, 0x99, 0x2A, 0x00, 0x81, 0x0B, 0x94, 0x4A, 0x00, 0x14, 0x94, 0x4A, 0x7F, 0x00, 0x99, 0x2A, 0x32, 0x01, 0x99, 0x2A, 0x00, 0x4F, 0x91, 0x29, 0x00, 0x00, 0x92, 0x45, 0x00, 0x00, 0x92, 0x48, 0x00, 
	0x00, 0x92, 0x4C, 0x00, 0x3C, 0x93, 0x4A, 0x00, 0x14, 0x93, 0x4C, 0x7F, 0x00, 0x99, 0x2A, 0x32, 0x01, 0x99, 0x2A, 0x00, 0x81, 0x11, 0x93, 0x4C, 0x00, 0x0E, 0x91, 0x29, 0x79, 0x00, 0x92, 0x45, 0x76, 0x00, 0x92, 0x48, 0x76, 0x00, 0x92, 0x4C, 0x76, 0x00, 0x93, 0x48, 0x7F, 0x00, 0x99, 0x2A, 0x4E, 0x00, 0x99, 0x28, 0x6A, 0x01, 0x99, 0x2A, 0x00, 0x00, 0x99, 0x28, 0x00, 0x81, 0x0B, 0x94, 
	0x4A, 0x00, 0x14, 0x94, 0x4C, 0x7F, 0x00, 0x99, 0x2A, 0x32, 0x01, 0x99, 0x2A, 0x00, 0x4F, 0x91, 0x29, 0x00, 0x00, 0x92, 0x45, 0x00, 0x00, 0x92, 0x48, 0x00, 0x00, 0x92, 0x4C, 0x00, 0x42, 0x94, 0x4C, 0x00, 0x0E, 0x94, 0x48, 0x7F, 0x00, 0x99, 0x2A, 0x32, 0x00, 0x99, 0x24, 0x4E, 0x01, 0x99, 0x2A, 0x00, 0x00, 0x99, 0x24, 0x00, 0x81, 0x1F, 0x91, 0x29, 0x79, 0x00, 0x92, 0x45, 0x76, 0x00, 
	0x92, 0x48, 0x76, 0x00, 0x92, 0x4C, 0x76, 0x00, 0x99, 0x2A, 0x4E, 0x00, 0x99, 0x24, 0x6A, 0x01, 0x99, 0x2A, 0x00, 0x00, 0x99, 0x24, 0x00, 0x81, 0x1F, 0x99, 0x2A, 0x32, 0x01, 0x99, 0x2A, 0x00, 0x4F, 0x91, 0x29, 0x00, 0x00, 0x92, 0x45, 0x00, 0x00, 0x92, 0x48, 0x00, 0x00, 0x92, 0x4C, 0x00, 0x50, 0x99, 0x2A, 0x32, 0x01, 0x99, 0x2A, 0x00, 0x77, 0x93, 0x48, 0x00, 0x28, 0x91, 0x29, 0x79, 
	0x00, 0x92, 0x45, 0x76, 0x00, 0x92, 0x48, 0x76, 0x00, 0x92, 0x4C, 0x76, 0x00, 0x99, 0x2E, 0x4E, 0x00, 0x99, 0x28, 0x6A, 0x01, 0x99, 0x2E, 0x00, 0x00, 0x99, 0x28, 0x00, 0x81, 0x1F, 0x93, 0x48, 0x7F, 0x00, 0x99, 0x2A, 0x4E, 0x01, 0x99, 0x2A, 0x00, 0x4F, 0x91, 0x29, 0x00, 0x00, 0x92, 0x45, 0x00, 0x00, 0x92, 0x48, 0x00, 0x00, 0x92, 0x4C, 0x00, 0x28, 0x94, 0x48, 0x00, 0x1A, 0x93, 0x48, 
	0x00, 0x0E, 0x93, 0x4A, 0x7F, 0x00, 0x99, 0x2A, 0x32, 0x01, 0x99, 0x2A, 0x00, 0x81, 0x0B, 0x95, 0x4C, 0x00, 0x00, 0x95, 0x58, 0x00, 0x00, 0x96, 0x45, 0x00, 0x00, 0x96, 0x48, 0x00, 0x00, 0x96, 0x4C, 0x00, 0x06, 0x93, 0x4A, 0x00, 0x0E, 0x91, 0x26, 0x79, 0x00, 0x92, 0x45, 0x76, 0x00, 0x92, 0x48, 0x76, 0x00, 0x92, 0x4D, 0x76, 0x00, 0x93, 0x4F, 0x7F, 0x00, 0x94, 0x48, 0x7F, 0x00, 0x95, 
	0x4D, 0x63, 0x00, 0x95, 0x59, 0x79, 0x00, 0x96, 0x45, 0x6F, 0x00, 0x96, 0x48, 0x6F, 0x00, 0x96, 0x4D, 0x6F, 0x00, 0x99, 0x30, 0x6A, 0x01, 0x99, 0x30, 0x00, 0x81, 0x11, 0x94, 0x48, 0x00, 0x0E, 0x94, 0x4A, 0x7F, 0x28, 0x92, 0x45, 0x00, 0x00, 0x92, 0x48, 0x00, 0x00, 0x92, 0x4D, 0x00, 0x64, 0x91, 0x26, 0x00, 0x00, 0x93, 0x4F, 0x00, 0x06, 0x94, 0x4A, 0x00, 0x0E, 0x91, 0x26, 0x79, 0x00, 
	0x92, 0x45, 0x76, 0x00, 0x92, 0x48, 0x76, 0x00, 0x92, 0x4D, 0x76, 0x00, 0x93, 0x4D, 0x7F, 0x00, 0x94, 0x4F, 0x7F, 0x00, 0x99, 0x30, 0x6A, 0x01, 0x99, 0x30, 0x00, 0x81, 0x47, 0x92, 0x45, 0x00, 0x00, 0x92, 0x48, 0x00, 0x00, 0x92, 0x4D, 0x00, 0x64, 0x91, 0x26, 0x00, 0x00, 0x93, 0x4D, 0x00, 0x00, 0x94, 0x4F, 0x00, 0x14, 0x91, 0x26, 0x79, 0x00, 0x92, 0x45, 0x76, 0x00, 0x92, 0x48, 0x76, 
	0x00, 0x92, 0x4D, 0x76, 0x00, 0x93, 0x4C, 0x7F, 0x00, 0x94, 0x4D, 0x7F, 0x00, 0x99, 0x2D, 0x6A, 0x01, 0x99, 0x2D, 0x00, 0x81, 0x47, 0x92, 0x45, 0x00, 0x00, 0x92, 0x48, 0x00, 0x00, 0x92, 0x4D, 0x00, 0x64, 0x91, 0x26, 0x00, 0x00, 0x93, 0x4C, 0x00, 0x00, 0x94, 0x4D, 0x00, 0x14, 0x91, 0x26, 0x79, 0x00, 0x92, 0x45, 0x76, 0x00, 0x92, 0x48, 0x76, 0x00, 0x92, 0x4D, 0x76, 0x00, 0x93, 0x4C, 
	0x7F, 0x00, 0x94, 0x4C, 0x7F, 0x00, 0x99, 0x29, 0x6A, 0x01, 0x99, 0x29, 0x00, 0x82, 0x2B, 0x91, 0x26, 0x00, 0x00, 0x92, 0x45, 0x00, 0x00, 0x92, 0x48, 0x00, 0x00, 0x92, 0x4D, 0x00, 0x00, 0x93, 0x4C, 0x00, 0x00, 0x94, 0x4C, 0x00, 0x14, 0x91, 0x26, 0x79, 0x00, 0x92, 0x45, 0x76, 0x00, 0x92, 0x48, 0x76, 0x00, 0x92, 0x4C, 0x76, 0x00, 0x93, 0x48, 0x7F, 0x00, 0x94, 0x4C, 0x7F, 0x00, 0x99, 
	0x28, 0x5C, 0x01, 0x99, 0x28, 0x00, 0x81, 0x11, 0x91, 0x26, 0x00, 0x00, 0x92, 0x45, 0x00, 0x00, 0x92, 0x48, 0x00, 0x00, 0x92, 0x4C, 0x00, 0x00, 0x93, 0x48, 0x00, 0x0E, 0x91, 0x26, 0x79, 0x00, 0x92, 0x45, 0x76, 0x00, 0x92, 0x48, 0x76, 0x00, 0x92, 0x4D, 0x76, 0x00, 0x93, 0x45, 0x7F, 0x00, 0x99, 0x28, 0x6A, 0x01, 0x99, 0x28, 0x00, 0x81, 0x0B, 0x94, 0x4C, 0x00, 0x14, 0x94, 0x48, 0x7F, 
	0x81, 0x0C, 0x91, 0x26, 0x00, 0x00, 0x92, 0x45, 0x00, 0x00, 0x92, 0x48, 0x00, 0x00, 0x92, 0x4D, 0x00, 0x00, 0x93, 0x45, 0x00, 0x00, 0x95, 0x4D, 0x00, 0x00, 0x95, 0x59, 0x00, 0x06, 0x94, 0x48, 0x00, 0x0E, 0x91, 0x2B, 0x79, 0x00, 0x92, 0x47, 0x76, 0x00, 0x92, 0x4A, 0x76, 0x00, 0x92, 0x4F, 0x76, 0x00, 0x93, 0x4A, 0x7F, 0x00, 0x94, 0x45, 0x7F, 0x00, 0x95, 0x4F, 0x63, 0x00, 0x95, 0x5B, 
	0x79, 0x00, 0x99, 0x31, 0x4E, 0x00, 0x99, 0x24, 0x6A, 0x01, 0x99, 0x31, 0x00, 0x00, 0x99, 0x24, 0x00, 0x27, 0x96, 0x45, 0x00, 0x00, 0x96, 0x48, 0x00, 0x00, 0x96, 0x4D, 0x00, 0x6A, 0x91, 0x2B, 0x00, 0x00, 0x92, 0x47, 0x00, 0x00, 0x92, 0x4A, 0x00, 0x00, 0x92, 0x4F, 0x00, 0x00, 0x95, 0x4F, 0x00, 0x00, 0x95, 0x5B, 0x00, 0x81, 0x1A, 0x94, 0x45, 0x00, 0x14, 0x94, 0x4A, 0x7F, 0x82, 0x40, 
	0x91, 0x1F, 0x79, 0x00, 0x92, 0x3B, 0x76, 0x00, 0x92, 0x3E, 0x76, 0x00, 0x92, 0x43, 0x76, 0x00, 0x99, 0x24, 0x6A, 0x01, 0x99, 0x24, 0x00, 0x82, 0x2B, 0x93, 0x4A, 0x00, 0x14, 0x93, 0x4C, 0x7F, 0x81, 0x20, 0x99, 0x24, 0x6A, 0x01, 0x99, 0x24, 0x00, 0x81, 0x0B, 0x94, 0x4A, 0x00, 0x14, 0x94, 0x4C, 0x7F, 0x81, 0x20, 0x99, 0x28, 0x6A, 0x01, 0x99, 0x28, 0x00, 0x81, 0x11, 0x93, 0x4C, 0x00, 
	0x0E, 0x93, 0x4F, 0x7F, 0x00, 0x99, 0x2D, 0x5C, 0x01, 0x99, 0x2D, 0x00, 0x81, 0x1F, 0x99, 0x29, 0x5C, 0x01, 0x99, 0x29, 0x00, 0x81, 0x11, 0x94, 0x4C, 0x00, 0x0E, 0x94, 0x4F, 0x7F, 0x00, 0x99, 0x28, 0x6A, 0x01, 0x99, 0x28, 0x00, 0x81, 0x01, 0x93, 0x4F, 0x00, 0x0A, 0x91, 0x1F, 0x00, 0x00, 0x92, 0x3B, 0x00, 0x00, 0x92, 0x3E, 0x00, 0x00, 0x92, 0x43, 0x00, 0x14, 0x91, 0x24, 0x79, 0x00, 
	0x92, 0x43, 0x76, 0x00, 0x92, 0x48, 0x76, 0x00, 0x92, 0x4C, 0x76, 0x00, 0x93, 0x4A, 0x7F, 0x00, 0x95, 0x48, 0x63, 0x00, 0x95, 0x54, 0x79, 0x00, 0x96, 0x40, 0x6F, 0x00, 0x96, 0x43, 0x6F, 0x00, 0x96, 0x48, 0x6F, 0x00, 0x99, 0x31, 0x4E, 0x00, 0x99, 0x24, 0x6A, 0x01, 0x99, 0x31, 0x00, 0x00, 0x99, 0x24, 0x00, 0x81, 0x6F, 0x92, 0x43, 0x00, 0x00, 0x92, 0x48, 0x00, 0x00, 0x92, 0x4C, 0x00, 
	0x32, 0x94, 0x4F, 0x00, 0x0A, 0x91, 0x24, 0x00, 0x14, 0x94, 0x4A, 0x7F, 0x81, 0x20, 0x91, 0x24, 0x79, 0x00, 0x92, 0x43, 0x76, 0x00, 0x92, 0x48, 0x76, 0x00, 0x92, 0x4C, 0x76, 0x00, 0x99, 0x2A, 0x4E, 0x00, 0x99, 0x28, 0x6A, 0x01, 0x99, 0x2A, 0x00, 0x00, 0x99, 0x28, 0x00, 0x81, 0x1F, 0x99, 0x2A, 0x32, 0x01, 0x99, 0x2A, 0x00, 0x4F, 0x92, 0x43, 0x00, 0x00, 0x92, 0x48, 0x00, 0x00, 0x92, 
	0x4C, 0x00, 0x3C, 0x91, 0x24, 0x00, 0x00, 0x93, 0x4A, 0x00, 0x14, 0x93, 0x48, 0x7F, 0x00, 0x99, 0x2A, 0x32, 0x00, 0x99, 0x24, 0x4E, 0x01, 0x99, 0x2A, 0x00, 0x00, 0x99, 0x24, 0x00, 0x81, 0x1F, 0x91, 0x24, 0x79, 0x00, 0x92, 0x43, 0x76, 0x00, 0x92, 0x48, 0x76, 0x00, 0x92, 0x4C, 0x76, 0x00, 0x99, 0x2A, 0x4E, 0x00, 0x99, 0x24, 0x6A, 0x01, 0x99, 0x2A, 0x00, 0x00, 0x99, 0x24, 0x00, 0x81, 
	0x0B, 0x94, 0x4A, 0x00, 0x14, 0x94, 0x48, 0x7F, 0x00, 0x99, 0x2A, 0x32, 0x01, 0x99, 0x2A, 0x00, 0x4F, 0x92, 0x43, 0x00, 0x00, 0x92, 0x48, 0x00, 0x00, 0x92, 0x4C, 0x00, 0x50, 0x99, 0x2A, 0x32, 0x00, 0x99, 0x24, 0x6A, 0x01, 0x99, 0x2A, 0x00, 0x00, 0x99, 0x24, 0x00, 0x81, 0x1F, 0x92, 0x43, 0x76, 0x00, 0x92, 0x48, 0x76, 0x00, 0x92, 0x4C, 0x76, 0x00, 0x99, 0x2A, 0x4E, 0x00, 0x99, 0x28, 
	0x6A, 0x01, 0x99, 0x2A, 0x00, 0x00, 0x99, 0x28, 0x00, 0x81, 0x1F, 0x99, 0x2A, 0x32, 0x01, 0x99, 0x2A, 0x00, 0x4F, 0x92, 0x43, 0x00, 0x00, 0x92, 0x48, 0x00, 0x00, 0x92, 0x4C, 0x00, 0x3C, 0x91, 0x24, 0x00, 0x14, 0x91, 0x29, 0x79, 0x00, 0x99, 0x2A, 0x32, 0x00, 0x99, 0x24, 0x4E, 0x01, 0x99, 0x2A, 0x00, 0x00, 0x99, 0x24, 0x00, 0x77, 0x93, 0x48, 0x00, 0x14, 0x96, 0x40, 0x00, 0x00, 0x96, 
	0x43, 0x00, 0x00, 0x96, 0x48, 0x00, 0x06, 0x91, 0x29, 0x00, 0x0E, 0x92, 0x41, 0x76, 0x00, 0x92, 0x44, 0x76, 0x00, 0x92, 0x48, 0x76, 0x00, 0x93, 0x4A, 0x7F, 0x00, 0x96, 0x41, 0x6F, 0x00, 0x96, 0x44, 0x6F, 0x00, 0x96, 0x48, 0x6F, 0x00, 0x99, 0x2A, 0x4E, 0x01, 0x99, 0x2A, 0x00, 0x81, 0x1F, 0x99, 0x2A, 0x32, 0x01, 0x99, 0x2A, 0x00, 0x4F, 0x92, 0x41, 0x00, 0x00, 0x92, 0x44, 0x00, 0x00, 
	0x92, 0x48, 0x00, 0x28, 0x94, 0x48, 0x00, 0x28, 0x91, 0x29, 0x79, 0x00, 0x94, 0x4A, 0x7F, 0x00, 0x99, 0x2A, 0x32, 0x00, 0x99, 0x24, 0x4E, 0x01, 0x99, 0x2A, 0x00, 0x00, 0x99, 0x24, 0x00, 0x81, 0x11, 0x91, 0x29, 0x00, 0x0E, 0x92, 0x41, 0x76, 0x00, 0x92, 0x44, 0x76, 0x00, 0x92, 0x48, 0x76, 0x00, 0x99, 0x2A, 0x4E, 0x00, 0x99, 0x28, 0x6A, 0x01, 0x99, 0x2A, 0x00, 0x00, 0x99, 0x28, 0x00, 
	0x81, 0x1F, 0x99, 0x2A, 0x32, 0x01, 0x99, 0x2A, 0x00, 0x4F, 0x92, 0x41, 0x00, 0x00, 0x92, 0x44, 0x00, 0x00, 0x92, 0x48, 0x00, 0x3C, 0x93, 0x4A, 0x00, 0x14, 0x91, 0x29, 0x79, 0x00, 0x93, 0x4C, 0x7F, 0x00, 0x99, 0x2A, 0x32, 0x00, 0x99, 0x24, 0x4E, 0x01, 0x99, 0x2A, 0x00, 0x00, 0x99, 0x24, 0x00, 0x81, 0x11, 0x91, 0x29, 0x00, 0x0E, 0x91, 0x29, 0x79, 0x00, 0x92, 0x41, 0x76, 0x00, 0x92, 
	0x44, 0x76, 0x00, 0x92, 0x48, 0x76, 0x00, 0x99, 0x2A, 0x4E, 0x00, 0x99, 0x24, 0x6A, 0x01, 0x99, 0x2A, 0x00, 0x00, 0x99, 0x24, 0x00, 0x81, 0x0B, 0x94, 0x4A, 0x00, 0x14, 0x94, 0x4C, 0x7F, 0x00, 0x99, 0x2A, 0x32, 0x01, 0x99, 0x2A, 0x00, 0x4F, 0x92, 0x41, 0x00, 0x00, 0x92, 0x44, 0x00, 0x00, 0x92, 0x48, 0x00, 0x50, 0x99, 0x2A, 0x32, 0x01, 0x99, 0x2A, 0x00, 0x81, 0x01, 0x91, 0x29, 0x00, 
	0x10, 0x93, 0x4C, 0x00, 0x0E, 0x91, 0x29, 0x79, 0x00, 0x92, 0x41, 0x76, 0x00, 0x92, 0x44, 0x76, 0x00, 0x92, 0x48, 0x76, 0x00, 0x93, 0x4F, 0x7F, 0x00, 0x99, 0x2E, 0x4E, 0x00, 0x99, 0x28, 0x6A, 0x01, 0x99, 0x2E, 0x00, 0x00, 0x99, 0x28, 0x00, 0x81, 0x1F, 0x99, 0x2A, 0x4E, 0x01, 0x99, 0x2A, 0x00, 0x4F, 0x92, 0x41, 0x00, 0x00, 0x92, 0x44, 0x00, 0x00, 0x92, 0x48, 0x00, 0x42, 0x94, 0x4C, 
	0x00, 0x0E, 0x94, 0x4F, 0x7F, 0x00, 0x99, 0x2A, 0x32, 0x01, 0x99, 0x2A, 0x00, 0x81, 0x01, 0x91, 0x29, 0x00, 0x00, 0x93, 0x4F, 0x00, 0x0A, 0x96, 0x41, 0x00, 0x00, 0x96, 0x44, 0x00, 0x00, 0x96, 0x48, 0x00, 0x14, 0x91, 0x24, 0x79, 0x00, 0x92, 0x43, 0x76, 0x00, 0x92, 0x48, 0x76, 0x00, 0x92, 0x4C, 0x76, 0x00, 0x93, 0x4A, 0x7F, 0x00, 0x96, 0x40, 0x6F, 0x00, 0x96, 0x43, 0x6F, 0x00, 0x96, 
	0x48, 0x6F, 0x00, 0x99, 0x2A, 0x4E, 0x00, 0x99, 0x24, 0x6A, 0x01, 0x99, 0x2A, 0x00, 0x00, 0x99, 0x24, 0x00, 0x81, 0x1F, 0x99, 0x2A, 0x32, 0x01, 0x99, 0x2A, 0x00, 0x4F, 0x92, 0x43, 0x00, 0x00, 0x92, 0x48, 0x00, 0x00, 0x92, 0x4C, 0x00, 0x32, 0x94, 0x4F, 0x00, 0x0A, 0x91, 0x24, 0x00, 0x14, 0x94, 0x4A, 0x7F, 0x00, 0x99, 0x2A, 0x32, 0x01, 0x99, 0x2A, 0x00, 0x81, 0x1F, 0x91, 0x24, 0x79, 
	0x00, 0x92, 0x43, 0x76, 0x00, 0x92, 0x48, 0x76, 0x00, 0x92, 0x4C, 0x76, 0x00, 0x99, 0x2A, 0x4E, 0x00, 0x99, 0x28, 0x6A, 0x01, 0x99, 0x2A, 0x00, 0x00, 0x99, 0x28, 0x00, 0x81, 0x1F, 0x99, 0x2A, 0x32, 0x01, 0x99, 0x2A, 0x00, 0x4F, 0x92, 0x43, 0x00, 0x00, 0x92, 0x48, 0x00, 0x00, 0x92, 0x4C, 0x00, 0x3C, 0x91, 0x24, 0x00, 0x00, 0x93, 0x4A, 0x00, 0x14, 0x93, 0x48, 0x7F, 0x00, 0x99, 0x2A, 
	0x32, 0x00, 0x99, 0x24, 0x4E, 0x01, 0x99, 0x2A, 0x00, 0x00, 0x99, 0x24, 0x00, 0x81, 0x1F, 0x91, 0x24, 0x79, 0x00, 0x92, 0x43, 0x76, 0x00, 0x92, 0x48, 0x76, 0x00, 0x92, 0x4C, 0x76, 0x00, 0x99, 0x2A, 0x4E, 0x00, 0x99, 0x24, 0x6A, 0x01, 0x99, 0x2A, 0x00, 0x00, 0x99, 0x24, 0x00, 0x81, 0x0B, 0x94, 0x4A, 0x00, 0x14, 0x94, 0x48, 0x7F, 0x00, 0x99, 0x2A, 0x32, 0x01, 0x99, 0x2A, 0x00, 0x4F, 
	0x92, 0x43, 0x00, 0x00, 0x92, 0x48, 0x00, 0x00, 0x92, 0x4C, 0x00, 0x50, 0x99, 0x2A, 0x32, 0x00, 0x99, 0x24, 0x6A, 0x01, 0x99, 0x2A, 0x00, 0x00, 0x99, 0x24, 0x00, 0x81, 0x1F, 0x92, 0x43, 0x76, 0x00, 0x92, 0x48, 0x76, 0x00, 0x92, 0x4C, 0x76, 0x00, 0x99, 0x2A, 0x4E, 0x00, 0x99, 0x28, 0x6A, 0x01, 0x99, 0x2A, 0x00, 0x00, 0x99, 0x28, 0x00, 0x81, 0x1F, 0x99, 0x2A, 0x32, 0x01, 0x99, 0x2A, 
	0x00, 0x4F, 0x92, 0x43, 0x00, 0x00, 0x92, 0x48, 0x00, 0x00, 0x92, 0x4C, 0x00, 0x3C, 0x91, 0x24, 0x00, 0x14, 0x91, 0x24, 0x79, 0x00, 0x99, 0x2A, 0x32, 0x00, 0x99, 0x24, 0x4E, 0x01, 0x99, 0x2A, 0x00, 0x00, 0x99, 0x24, 0x00, 0x77, 0x93, 0x48, 0x00, 0x14, 0x96, 0x40, 0x00, 0x00, 0x96, 0x43, 0x00, 0x00, 0x96, 0x48, 0x00, 0x06, 0x91, 0x24, 0x00, 0x0E, 0x92, 0x43, 0x76, 0x00, 0x92, 0x48, 
	0x76, 0x00, 0x92, 0x4C, 0x76, 0x00, 0x96, 0x40, 0x6F, 0x00, 0x96, 0x43, 0x6F, 0x00, 0x96, 0x48, 0x6F, 0x00, 0x99, 0x2A, 0x4E, 0x01, 0x99, 0x2A, 0x00, 0x81, 0x1F, 0x99, 0x2A, 0x32, 0x01, 0x99, 0x2A, 0x00, 0x4F, 0x92, 0x43, 0x00, 0x00, 0x92, 0x48, 0x00, 0x00, 0x92, 0x4C, 0x00, 0x28, 0x94, 0x48, 0x00, 0x28, 0x91, 0x24, 0x79, 0x00, 0x99, 0x2A, 0x32, 0x00, 0x99, 0x24, 0x4E, 0x01, 0x99, 
	0x2A, 0x00, 0x00, 0x99, 0x24, 0x00, 0x81, 0x11, 0x91, 0x24, 0x00, 0x0E, 0x92, 0x43, 0x76, 0x00, 0x92, 0x48, 0x76, 0x00, 0x92, 0x4C, 0x76, 0x00, 0x99, 0x2A, 0x4E, 0x00, 0x99, 0x28, 0x6A, 0x01, 0x99, 0x2A, 0x00, 0x00, 0x99, 0x28, 0x00, 0x81, 0x1F, 0x99, 0x2A, 0x32, 0x01, 0x99, 0x2A, 0x00, 0x4F, 0x92, 0x43, 0x00, 0x00, 0x92, 0x48, 0x00, 0x00, 0x92, 0x4C, 0x00, 0x50, 0x91, 0x24, 0x79, 
	0x00, 0x99, 0x2A, 0x32, 0x00, 0x99, 0x24, 0x4E, 0x01, 0x99, 0x2A, 0x00, 0x00, 0x99, 0x24, 0x00, 0x81, 0x11, 0x91, 0x24, 0x00, 0x0E, 0x91, 0x24, 0x79, 0x00, 0x92, 0x43, 0x76, 0x00, 0x92, 0x48, 0x76, 0x00, 0x92, 0x4C, 0x76, 0x00, 0x99, 0x28, 0x5C, 0x00, 0x99, 0x2A, 0x4E, 0x01, 0x99, 0x28, 0x00, 0x00, 0x99, 0x2A, 0x00, 0x4F, 0x99, 0x28, 0x4E, 0x01, 0x99, 0x28, 0x00, 0x4F, 0x99, 0x28, 
	0x5C, 0x00, 0x99, 0x2A, 0x32, 0x01, 0x99, 0x28, 0x00, 0x00, 0x99, 0x2A, 0x00, 0x81, 0x1F, 0x99, 0x28, 0x4E, 0x00, 0x99, 0x2A, 0x32, 0x01, 0x99, 0x28, 0x00, 0x00, 0x99, 0x2A, 0x00, 0x81, 0x01, 0x91, 0x24, 0x00, 0x00, 0x92, 0x43, 0x00, 0x00, 0x92, 0x48, 0x00, 0x00, 0x92, 0x4C, 0x00, 0x1E, 0x91, 0x1F, 0x79, 0x00, 0x92, 0x41, 0x76, 0x00, 0x92, 0x47, 0x76, 0x00, 0x92, 0x4A, 0x76, 0x00, 
	0x99, 0x30, 0x6A, 0x01, 0x99, 0x30, 0x00, 0x81, 0x1F, 0x99, 0x30, 0x6A, 0x01, 0x99, 0x30, 0x00, 0x81, 0x1F, 0x99, 0x29, 0x6A, 0x01, 0x99, 0x29, 0x00, 0x81, 0x01, 0x91, 0x1F, 0x00, 0x00, 0x92, 0x41, 0x00, 0x00, 0x92, 0x47, 0x00, 0x00, 0x92, 0x4A, 0x00, 0x0A, 0x95, 0x48, 0x00, 0x00, 0x95, 0x54, 0x00, 0x00, 0x96, 0x40, 0x00, 0x00, 0x96, 0x43, 0x00, 0x00, 0x96, 0x48, 0x00, 0x14, 0x91, 
	0x24, 0x79, 0x00, 0x92, 0x40, 0x7F, 0x00, 0x92, 0x43, 0x7F, 0x00, 0x92, 0x4A, 0x7F, 0x00, 0xB3, 0x20, 0x00, 0x00, 0xC3, 0x0B, 0x00, 0x99, 0x31, 0x4E, 0x00, 0x99, 0x24, 0x6A, 0x01, 0x99, 0x31, 0x00, 0x00, 0x99, 0x24, 0x00, 0x82, 0x2B, 0x91, 0x24, 0x00, 0x00, 0x92, 0x40, 0x00, 0x00, 0x92, 0x43, 0x00, 0x00, 0x92, 0x4A, 0x00, 0x14, 0xB4, 0x20, 0x00, 0x00, 0xC4, 0x0B, 0x81, 0x20, 0x99, 
	0x2A, 0x4E, 0x00, 0x99, 0x28, 0x6A, 0x01, 0x99, 0x2A, 0x00, 0x00, 0x99, 0x28, 0x00, 0x81, 0x1F, 0x99, 0x2A, 0x32, 0x01, 0x99, 0x2A, 0x00, 0x81, 0x1F, 0x91, 0x24, 0x79, 0x00, 0x92, 0x40, 0x7F, 0x00, 0x92, 0x43, 0x7F, 0x00, 0x92, 0x4A, 0x7F, 0x00, 0x99, 0x2A, 0x32, 0x00, 0x99, 0x24, 0x4E, 0x01, 0x99, 0x2A, 0x00, 0x00, 0x99, 0x24, 0x00, 0x81, 0x11, 0x91, 0x24, 0x00, 0x00, 0x92, 0x40, 
	0x00, 0x00, 0x92, 0x43, 0x00, 0x00, 0x92, 0x4A, 0x00, 0x0E, 0x91, 0x24, 0x79, 0x00, 0x92, 0x40, 0x7F, 0x00, 0x92, 0x43, 0x7F, 0x00, 0x92, 0x48, 0x7F, 0x00, 0x99, 0x2A, 0x4E, 0x00, 0x99, 0x24, 0x6A, 0x01, 0x99, 0x2A, 0x00, 0x00, 0x99, 0x24, 0x00, 0x81, 0x1F, 0x99, 0x2A, 0x32, 0x01, 0x99, 0x2A, 0x00, 0x81, 0x0B, 0x91, 0x24, 0x00, 0x00, 0x92, 0x40, 0x00, 0x00, 0x92, 0x43, 0x00, 0x00, 
	0x92, 0x48, 0x00, 0x14, 0x91, 0x24, 0x79, 0x00, 0x92, 0x40, 0x7F, 0x00, 0x92, 0x43, 0x7F, 0x00, 0x92, 0x48, 0x7F, 0x00, 0x99, 0x2A, 0x32, 0x00, 0x99, 0x24, 0x6A, 0x01, 0x99, 0x2A, 0x00, 0x00, 0x99, 0x24, 0x00, 0x81, 0x11, 0x91, 0x24, 0x00, 0x00, 0x92, 0x40, 0x00, 0x00, 0x92, 0x43, 0x00, 0x00, 0x92, 0x48, 0x00, 0x0E, 0x99, 0x2A, 0x4E, 0x00, 0x99, 0x28, 0x6A, 0x01, 0x99, 0x2A, 0x00, 
	0x00, 0x99, 0x28, 0x00, 0x81, 0x1F, 0x99, 0x2A, 0x32, 0x01, 0x99, 0x2A, 0x00, 0x81, 0x1F, 0x91, 0x28, 0x79, 0x00, 0x92, 0x40, 0x7F, 0x00, 0x92, 0x43, 0x7F, 0x00, 0x92, 0x4A, 0x7F, 0x00, 0x99, 0x2A, 0x32, 0x00, 0x99, 0x24, 0x4E, 0x01, 0x99, 0x2A, 0x00, 0x00, 0x99, 0x24, 0x00, 0x81, 0x11, 0x91, 0x28, 0x00, 0x00, 0x92, 0x40, 0x00, 0x00, 0x92, 0x43, 0x00, 0x00, 0x92, 0x4A, 0x00, 0x0E, 
	0x99, 0x2A, 0x4E, 0x01, 0x99, 0x2A, 0x00, 0x81, 0x1F, 0x99, 0x2A, 0x32, 0x01, 0x99, 0x2A, 0x00, 0x81, 0x1F, 0x91, 0x28, 0x79, 0x00, 0x92, 0x40, 0x7F, 0x00, 0x92, 0x43, 0x7F, 0x00, 0x92, 0x4A, 0x7F, 0x00, 0x99, 0x2A, 0x32, 0x00, 0x99, 0x24, 0x4E, 0x01, 0x99, 0x2A, 0x00, 0x00, 0x99, 0x24, 0x00, 0x81, 0x11, 0x91, 0x28, 0x00, 0x0E, 0x99, 0x2A, 0x4E, 0x00, 0x99, 0x28, 0x6A, 0x01, 0x99, 
	0x2A, 0x00, 0x00, 0x99, 0x28, 0x00, 0x09, 0x92, 0x40, 0x00, 0x00, 0x92, 0x43, 0x00, 0x00, 0x92, 0x4A, 0x00, 0x81, 0x16, 0x99, 0x2A, 0x32, 0x01, 0x99, 0x2A, 0x00, 0x81, 0x1F, 0x91, 0x28, 0x79, 0x00, 0x92, 0x40, 0x7F, 0x00, 0x92, 0x43, 0x7F, 0x00, 0x92, 0x48, 0x7F, 0x00, 0x99, 0x2A, 0x32, 0x00, 0x99, 0x24, 0x4E, 0x01, 0x99, 0x2A, 0x00, 0x00, 0x99, 0x24, 0x00, 0x81, 0x11, 0x91, 0x28, 
	0x00, 0x00, 0x92, 0x40, 0x00, 0x00, 0x92, 0x43, 0x00, 0x00, 0x92, 0x48, 0x00, 0x0E, 0x91, 0x28, 0x79, 0x00, 0x92, 0x40, 0x7F, 0x00, 0x92, 0x43, 0x7F, 0x00, 0x92, 0x48, 0x7F, 0x00, 0x99, 0x2A, 0x4E, 0x00, 0x99, 0x24, 0x6A, 0x01, 0x99, 0x2A, 0x00, 0x00, 0x99, 0x24, 0x00, 0x81, 0x1F, 0x99, 0x2A, 0x32, 0x01, 0x99, 0x2A, 0x00, 0x81, 0x0B, 0x91, 0x28, 0x00, 0x14, 0x91, 0x28, 0x79, 0x00, 
	0x99, 0x2A, 0x32, 0x01, 0x99, 0x2A, 0x00, 0x81, 0x11, 0x91, 0x28, 0x00, 0x0E, 0x91, 0x28, 0x79, 0x00, 0x99, 0x2E, 0x4E, 0x00, 0x99, 0x28, 0x6A, 0x01, 0x99, 0x2E, 0x00, 0x00, 0x99, 0x28, 0x00, 0x81, 0x11, 0x91, 0x28, 0x00, 0x0E, 0x91, 0x26, 0x79, 0x00, 0x99, 0x2A, 0x4E, 0x01, 0x99, 0x2A, 0x00, 0x81, 0x11, 0x91, 0x26, 0x00, 0x0E, 0x91, 0x28, 0x79, 0x00, 0x99, 0x2A, 0x32, 0x01, 0x99, 
	0x2A, 0x00, 0x77, 0x92, 0x40, 0x00, 0x00, 0x92, 0x43, 0x00, 0x00, 0x92, 0x48, 0x00, 0x1A, 0x91, 0x28, 0x00, 0x0E, 0x91, 0x29, 0x79, 0x00, 0x92, 0x41, 0x7F, 0x00, 0x92, 0x45, 0x7F, 0x00, 0x92, 0x4A, 0x7F, 0x00, 0x99, 0x2A, 0x4E, 0x00, 0x99, 0x24, 0x6A, 0x01, 0x99, 0x2A, 0x00, 0x00, 0x99, 0x24, 0x00, 0x81, 0x1F, 0x99, 0x2A, 0x32, 0x01, 0x99, 0x2A, 0x00, 0x81, 0x0B, 0x91, 0x29, 0x00, 
	0x00, 0x92, 0x41, 0x00, 0x00, 0x92, 0x45, 0x00, 0x00, 0x92, 0x4A, 0x00, 0x14, 0x99, 0x2A, 0x32, 0x01, 0x99, 0x2A, 0x00, 0x81, 0x1F, 0x99, 0x2A, 0x4E, 0x00, 0x99, 0x28, 0x6A, 0x01, 0x99, 0x2A, 0x00, 0x00, 0x99, 0x28, 0x00, 0x81, 0x1F, 0x99, 0x2A, 0x32, 0x01, 0x99, 0x2A, 0x00, 0x81, 0x1F, 0x91, 0x29, 0x79, 0x00, 0x92, 0x41, 0x7F, 0x00, 0x92, 0x45, 0x7F, 0x00, 0x92, 0x4A, 0x7F, 0x00, 
	0x99, 0x2A, 0x32, 0x00, 0x99, 0x24, 0x4E, 0x01, 0x99, 0x2A, 0x00, 0x00, 0x99, 0x24, 0x00, 0x81, 0x11, 0x91, 0x29, 0x00, 0x00, 0x92, 0x41, 0x00, 0x00, 0x92, 0x45, 0x00, 0x00, 0x92, 0x4A, 0x00, 0x0E, 0x91, 0x29, 0x79, 0x00, 0x92, 0x41, 0x7F, 0x00, 0x92, 0x45, 0x7F, 0x00, 0x92, 0x48, 0x7F, 0x00, 0x99, 0x2A, 0x4E, 0x00, 0x99, 0x24, 0x6A, 0x01, 0x99, 0x2A, 0x00, 0x00, 0x99, 0x24, 0x00, 
	0x81, 0x1F, 0x99, 0x2A, 0x32, 0x01, 0x99, 0x2A, 0x00, 0x81, 0x0B, 0x91, 0x29, 0x00, 0x00, 0x92, 0x41, 0x00, 0x00, 0x92, 0x45, 0x00, 0x00, 0x92, 0x48, 0x00, 0x14, 0x91, 0x29, 0x79, 0x00, 0x92, 0x41, 0x7F, 0x00, 0x92, 0x45, 0x7F, 0x00, 0x92, 0x48, 0x7F, 0x00, 0x99, 0x2A, 0x32, 0x00, 0x99, 0x24, 0x6A, 0x01, 0x99, 0x2A, 0x00, 0x00, 0x99, 0x24, 0x00, 0x81, 0x11, 0x91, 0x29, 0x00, 0x00, 
	0x92, 0x41, 0x00, 0x00, 0x92, 0x45, 0x00, 0x00, 0x92, 0x48, 0x00, 0x0E, 0x99, 0x2A, 0x4E, 0x00, 0x99, 0x28, 0x6A, 0x01, 0x99, 0x2A, 0x00, 0x00, 0x99, 0x28, 0x00, 0x81, 0x1F, 0x99, 0x2A, 0x32, 0x01, 0x99, 0x2A, 0x00, 0x81, 0x1F, 0x91, 0x2C, 0x79, 0x00, 0x92, 0x41, 0x7F, 0x00, 0x92, 0x44, 0x7F, 0x00, 0x92, 0x4A, 0x7F, 0x00, 0x99, 0x2A, 0x32, 0x00, 0x99, 0x24, 0x4E, 0x01, 0x99, 0x2A, 
	0x00, 0x00, 0x99, 0x24, 0x00, 0x81, 0x11, 0x91, 0x2C, 0x00, 0x00, 0x92, 0x41, 0x00, 0x00, 0x92, 0x44, 0x00, 0x00, 0x92, 0x4A, 0x00, 0x0E, 0x99, 0x2A, 0x4E, 0x01, 0x99, 0x2A, 0x00, 0x81, 0x1F, 0x99, 0x2A, 0x32, 0x01, 0x99, 0x2A, 0x00, 0x81, 0x1F, 0x91, 0x2C, 0x79, 0x00, 0x92, 0x41, 0x7F, 0x00, 0x92, 0x44, 0x7F, 0x00, 0x92, 0x4A, 0x7F, 0x00, 0x99, 0x2A, 0x32, 0x00, 0x99, 0x24, 0x4E, 
	0x01, 0x99, 0x2A, 0x00, 0x00, 0x99, 0x24, 0x00, 0x81, 0x11, 0x91, 0x2C, 0x00, 0x0E, 0x99, 0x2A, 0x4E, 0x00, 0x99, 0x28, 0x6A, 0x01, 0x99, 0x2A, 0x00, 0x00, 0x99, 0x28, 0x00, 0x09, 0x92, 0x41, 0x00, 0x00, 0x92, 0x44, 0x00, 0x00, 0x92, 0x4A, 0x00, 0x81, 0x16, 0x99, 0x2A, 0x32, 0x01, 0x99, 0x2A, 0x00, 0x81, 0x1F, 0x91, 0x2C, 0x79, 0x00, 0x92, 0x41, 0x7F, 0x00, 0x92, 0x44, 0x7F, 0x00, 
	0x92, 0x48, 0x7F, 0x00, 0x99, 0x2A, 0x32, 0x00, 0x99, 0x24, 0x4E, 0x01, 0x99, 0x2A, 0x00, 0x00, 0x99, 0x24, 0x00, 0x81, 0x11, 0x91, 0x2C, 0x00, 0x00, 0x92, 0x41, 0x00, 0x00, 0x92, 0x44, 0x00, 0x00, 0x92, 0x48, 0x00, 0x0E, 0x91, 0x2C, 0x79, 0x00, 0x92, 0x41, 0x7F, 0x00, 0x92, 0x44, 0x7F, 0x00, 0x92, 0x48, 0x7F, 0x00, 0x95, 0x45, 0x4B, 0x00, 0x95, 0x51, 0x4B, 0x00, 0x99, 0x2A, 0x4E, 
	0x00, 0x99, 0x24, 0x6A, 0x01, 0x99, 0x2A, 0x00, 0x00, 0x99, 0x24, 0x00, 0x81, 0x1F, 0x95, 0x45, 0x00, 0x00, 0x95, 0x51, 0x00, 0x00, 0x95, 0x47, 0x54, 0x00, 0x95, 0x53, 0x54, 0x00, 0x99, 0x2A, 0x32, 0x01, 0x99, 0x2A, 0x00, 0x81, 0x1F, 0x95, 0x47, 0x00, 0x00, 0x95, 0x53, 0x00, 0x00, 0x95, 0x48, 0x5D, 0x00, 0x95, 0x54, 0x5D, 0x00, 0x99, 0x2A, 0x32, 0x01, 0x99, 0x2A, 0x00, 0x81, 0x01, 
	0x91, 0x2C, 0x00, 0x00, 0x92, 0x41, 0x00, 0x00, 0x92, 0x44, 0x00, 0x00, 0x92, 0x48, 0x00, 0x1E, 0x91, 0x22, 0x79, 0x00, 0x92, 0x41, 0x7F, 0x00, 0x92, 0x44, 0x7F, 0x00, 0x92, 0x4A, 0x7F, 0x00, 0x95, 0x48, 0x00, 0x00, 0x95, 0x54, 0x00, 0x00, 0x95, 0x4A, 0x67, 0x00, 0x95, 0x56, 0x67, 0x00, 0x99, 0x28, 0x6A, 0x01, 0x99, 0x28, 0x00, 0x81, 0x1F, 0x95, 0x4A, 0x00, 0x00, 0x95, 0x56, 0x00, 
	0x00, 0x95, 0x4C, 0x70, 0x00, 0x95, 0x58, 0x70, 0x00, 0x99, 0x30, 0x5C, 0x01, 0x99, 0x30, 0x00, 0x81, 0x1F, 0x95, 0x4C, 0x00, 0x00, 0x95, 0x58, 0x00, 0x00, 0x95, 0x4D, 0x79, 0x00, 0x95, 0x59, 0x79, 0x00, 0x99, 0x2D, 0x5C, 0x01, 0x99, 0x2D, 0x00, 0x81, 0x01, 0x91, 0x22, 0x00, 0x00, 0x92, 0x41, 0x00, 0x00, 0x92, 0x44, 0x00, 0x00, 0x92, 0x4A, 0x00, 0x1E, 0x91, 0x24, 0x79, 0x00, 0x92, 
	0x40, 0x7F, 0x00, 0x92, 0x43, 0x7F, 0x00, 0x92, 0x4A, 0x7F, 0x00, 0x95, 0x4D, 0x00, 0x00, 0x95, 0x59, 0x00, 0x00, 0x95, 0x4F, 0x79, 0x00, 0x95, 0x5B, 0x79, 0x00, 0x99, 0x31, 0x4E, 0x00, 0x99, 0x24, 0x6A, 0x01, 0x99, 0x31, 0x00, 0x00, 0x99, 0x24, 0x00, 0x82, 0x2B, 0x91, 0x24, 0x00, 0x00, 0x92, 0x40, 0x00, 0x00, 0x92, 0x43, 0x00, 0x00, 0x92, 0x4A, 0x00, 0x81, 0x34, 0x99, 0x2A, 0x4E, 
	0x00, 0x99, 0x28, 0x6A, 0x01, 0x99, 0x2A, 0x00, 0x00, 0x99, 0x28, 0x00, 0x81, 0x1F, 0x99, 0x2A, 0x32, 0x01, 0x99, 0x2A, 0x00, 0x81, 0x1F, 0x91, 0x24, 0x79, 0x00, 0x92, 0x40, 0x7F, 0x00, 0x92, 0x43, 0x7F, 0x00, 0x92, 0x4A, 0x7F, 0x00, 0x99, 0x2A, 0x32, 0x00, 0x99, 0x24, 0x4E, 0x01, 0x99, 0x2A, 0x00, 0x00, 0x99, 0x24, 0x00, 0x81, 0x11, 0x91, 0x24, 0x00, 0x00, 0x92, 0x40, 0x00, 0x00, 
	0x92, 0x43, 0x00, 0x00, 0x92, 0x4A, 0x00, 0x0E, 0x91, 0x24, 0x79, 0x00, 0x92, 0x40, 0x7F, 0x00, 0x92, 0x43, 0x7F, 0x00, 0x92, 0x48, 0x7F, 0x00, 0x99, 0x2A, 0x4E, 0x00, 0x99, 0x24, 0x6A, 0x01, 0x99, 0x2A, 0x00, 0x00, 0x99, 0x24, 0x00, 0x81, 0x1F, 0x99, 0x2A, 0x32, 0x01, 0x99, 0x2A, 0x00, 0x81, 0x0B, 0x91, 0x24, 0x00, 0x00, 0x92, 0x40, 0x00, 0x00, 0x92, 0x43, 0x00, 0x00, 0x92, 0x48, 
	0x00, 0x14, 0x91, 0x24, 0x79, 0x00, 0x92, 0x40, 0x7F, 0x00, 0x92, 0x43, 0x7F, 0x00, 0x92, 0x48, 0x7F, 0x00, 0x99, 0x2A, 0x32, 0x00, 0x99, 0x24, 0x6A, 0x01, 0x99, 0x2A, 0x00, 0x00, 0x99, 0x24, 0x00, 0x81, 0x11, 0x91, 0x24, 0x00, 0x00, 0x92, 0x40, 0x00, 0x00, 0x92, 0x43, 0x00, 0x00, 0x92, 0x48, 0x00, 0x0E, 0x99, 0x2A, 0x4E, 0x00, 0x99, 0x28, 0x6A, 0x01, 0x99, 0x2A, 0x00, 0x00, 0x99, 
	0x28, 0x00, 0x81, 0x1F, 0x99, 0x2A, 0x32, 0x01, 0x99, 0x2A, 0x00, 0x81, 0x1F, 0x91, 0x28, 0x79, 0x00, 0x92, 0x40, 0x7F, 0x00, 0x92, 0x43, 0x7F, 0x00, 0x92, 0x4A, 0x7F, 0x00, 0x99, 0x2A, 0x32, 0x00, 0x99, 0x24, 0x4E, 0x01, 0x99, 0x2A, 0x00, 0x00, 0x99, 0x24, 0x00, 0x81, 0x11, 0x91, 0x28, 0x00, 0x00, 0x92, 0x40, 0x00, 0x00, 0x92, 0x43, 0x00, 0x00, 0x92, 0x4A, 0x00, 0x0E, 0x99, 0x2A, 
	0x4E, 0x01, 0x99, 0x2A, 0x00, 0x81, 0x1F, 0x99, 0x2A, 0x32, 0x01, 0x99, 0x2A, 0x00, 0x81, 0x1F, 0x91, 0x28, 0x79, 0x00, 0x92, 0x40, 0x7F, 0x00, 0x92, 0x43, 0x7F, 0x00, 0x92, 0x4A, 0x7F, 0x00, 0x99, 0x2A, 0x32, 0x00, 0x99, 0x24, 0x4E, 0x01, 0x99, 0x2A, 0x00, 0x00, 0x99, 0x24, 0x00, 0x81, 0x11, 0x91, 0x28, 0x00, 0x0E, 0x97, 0x4F, 0x63, 0x00, 0x97, 0x58, 0x7F, 0x00, 0x99, 0x2A, 0x4E, 
	0x00, 0x99, 0x28, 0x6A, 0x01, 0x99, 0x2A, 0x00, 0x00, 0x99, 0x28, 0x00, 0x09, 0x92, 0x40, 0x00, 0x00, 0x92, 0x43, 0x00, 0x00, 0x92, 0x4A, 0x00, 0x81, 0x16, 0x99, 0x2A, 0x32, 0x01, 0x99, 0x2A, 0x00, 0x81, 0x1F, 0x91, 0x28, 0x79, 0x00, 0x92, 0x40, 0x7F, 0x00, 0x92, 0x43, 0x7F, 0x00, 0x92, 0x48, 0x7F, 0x00, 0x99, 0x2A, 0x32, 0x00, 0x99, 0x24, 0x4E, 0x01, 0x99, 0x2A, 0x00, 0x00, 0x99, 
	0x24, 0x00, 0x81, 0x01, 0x97, 0x4F, 0x00, 0x00, 0x97, 0x58, 0x00, 0x10, 0x91, 0x28, 0x00, 0x00, 0x92, 0x40, 0x00, 0x00, 0x92, 0x43, 0x00, 0x00, 0x92, 0x48, 0x00, 0x0E, 0x91, 0x28, 0x79, 0x00, 0x92, 0x40, 0x7F, 0x00, 0x92, 0x43, 0x7F, 0x00, 0x92, 0x48, 0x7F, 0x00, 0x97, 0x51, 0x63, 0x00, 0x97, 0x59, 0x7F, 0x00, 0x99, 0x2A, 0x4E, 0x00, 0x99, 0x24, 0x6A, 0x01, 0x99, 0x2A, 0x00, 0x00, 
	0x99, 0x24, 0x00, 0x81, 0x1F, 0x99, 0x2A, 0x32, 0x01, 0x99, 0x2A, 0x00, 0x81, 0x0B, 0x91, 0x28, 0x00, 0x14, 0x91, 0x28, 0x79, 0x00, 0x99, 0x2A, 0x32, 0x01, 0x99, 0x2A, 0x00, 0x81, 0x01, 0x97, 0x51, 0x00, 0x00, 0x97, 0x59, 0x00, 0x10, 0x91, 0x28, 0x00, 0x0E, 0x91, 0x28, 0x79, 0x00, 0x97, 0x53, 0x63, 0x00, 0x97, 0x5B, 0x7F, 0x00, 0x99, 0x2E, 0x4E, 0x00, 0x99, 0x28, 0x6A, 0x01, 0x99, 
	0x2E, 0x00, 0x00, 0x99, 0x28, 0x00, 0x81, 0x11, 0x91, 0x28, 0x00, 0x0E, 0x91, 0x26, 0x79, 0x00, 0x99, 0x2A, 0x4E, 0x01, 0x99, 0x2A, 0x00, 0x81, 0x11, 0x91, 0x26, 0x00, 0x0E, 0x91, 0x28, 0x79, 0x00, 0x99, 0x2A, 0x32, 0x01, 0x99, 0x2A, 0x00, 0x77, 0x92, 0x40, 0x00, 0x00, 0x92, 0x43, 0x00, 0x00, 0x92, 0x48, 0x00, 0x0A, 0x97, 0x53, 0x00, 0x00, 0x97, 0x5B, 0x00, 0x10, 0x91, 0x28, 0x00, 
	0x0E, 0x91, 0x29, 0x79, 0x00, 0x92, 0x41, 0x7F, 0x00, 0x92, 0x45, 0x7F, 0x00, 0x92, 0x4A, 0x7F, 0x00, 0x97, 0x53, 0x63, 0x00, 0x97, 0x5B, 0x7F, 0x00, 0x99, 0x2A, 0x4E, 0x00, 0x99, 0x24, 0x6A, 0x01, 0x99, 0x2A, 0x00, 0x00, 0x99, 0x24, 0x00, 0x81, 0x1F, 0x99, 0x2A, 0x32, 0x01, 0x99, 0x2A, 0x00, 0x81, 0x0B, 0x91, 0x29, 0x00, 0x00, 0x92, 0x41, 0x00, 0x00, 0x92, 0x45, 0x00, 0x00, 0x92, 
	0x4A, 0x00, 0x14, 0x99, 0x2A, 0x32, 0x01, 0x99, 0x2A, 0x00, 0x81, 0x01, 0x97, 0x53, 0x00, 0x00, 0x97, 0x5B, 0x00, 0x1E, 0x97, 0x54, 0x63, 0x00, 0x97, 0x5D, 0x7F, 0x00, 0x99, 0x2A, 0x4E, 0x00, 0x99, 0x28, 0x6A, 0x01, 0x99, 0x2A, 0x00, 0x00, 0x99, 0x28, 0x00, 0x81, 0x1F, 0x99, 0x2A, 0x32, 0x01, 0x99, 0x2A, 0x00, 0x81, 0x0B, 0x97, 0x54, 0x00, 0x00, 0x97, 0x5D, 0x00, 0x14, 0x91, 0x29, 
	0x79, 0x00, 0x92, 0x41, 0x7F, 0x00, 0x92, 0x45, 0x7F, 0x00, 0x92, 0x4A, 0x7F, 0x00, 0x97, 0x4D, 0x63, 0x00, 0x97, 0x54, 0x7F, 0x00, 0x99, 0x2A, 0x32, 0x00, 0x99, 0x24, 0x4E, 0x01, 0x99, 0x2A, 0x00, 0x00, 0x99, 0x24, 0x00, 0x81, 0x11, 0x91, 0x29, 0x00, 0x00, 0x92, 0x41, 0x00, 0x00, 0x92, 0x45, 0x00, 0x00, 0x92, 0x4A, 0x00, 0x0E, 0x91, 0x29, 0x79, 0x00, 0x92, 0x41, 0x7F, 0x00, 0x92, 
	0x45, 0x7F, 0x00, 0x92, 0x48, 0x7F, 0x00, 0x99, 0x2A, 0x4E, 0x00, 0x99, 0x24, 0x6A, 0x01, 0x99, 0x2A, 0x00, 0x00, 0x99, 0x24, 0x00, 0x81, 0x1F, 0x99, 0x2A, 0x32, 0x01, 0x99, 0x2A, 0x00, 0x81, 0x0B, 0x91, 0x29, 0x00, 0x00, 0x92, 0x41, 0x00, 0x00, 0x92, 0x45, 0x00, 0x00, 0x92, 0x48, 0x00, 0x14, 0x91, 0x29, 0x79, 0x00, 0x92, 0x41, 0x7F, 0x00, 0x92, 0x45, 0x7F, 0x00, 0x92, 0x48, 0x7F, 
	0x00, 0x99, 0x2A, 0x32, 0x00, 0x99, 0x24, 0x6A, 0x01, 0x99, 0x2A, 0x00, 0x00, 0x99, 0x24, 0x00, 0x81, 0x11, 0x91, 0x29, 0x00, 0x00, 0x92, 0x41, 0x00, 0x00, 0x92, 0x45, 0x00, 0x00, 0x92, 0x48, 0x00, 0x0E, 0x99, 0x2A, 0x4E, 0x00, 0x99, 0x28, 0x6A, 0x01, 0x99, 0x2A, 0x00, 0x00, 0x99, 0x28, 0x00, 0x81, 0x1F, 0x92, 0x47, 0x7F, 0x00, 0x99, 0x2A, 0x32, 0x01, 0x99, 0x2A, 0x00, 0x81, 0x11, 
	0x92, 0x47, 0x00, 0x0E, 0x91, 0x2C, 0x79, 0x00, 0x92, 0x48, 0x7F, 0x00, 0x99, 0x2A, 0x32, 0x00, 0x99, 0x24, 0x4E, 0x01, 0x99, 0x2A, 0x00, 0x00, 0x99, 0x24, 0x00, 0x77, 0x97, 0x4D, 0x00, 0x00, 0x97, 0x54, 0x00, 0x14, 0x95, 0x4F, 0x00, 0x00, 0x95, 0x5B, 0x00, 0x06, 0x91, 0x2C, 0x00, 0x00, 0x92, 0x48, 0x00, 0x0E, 0x91, 0x2B, 0x79, 0x00, 0x92, 0x47, 0x7F, 0x00, 0x92, 0x4D, 0x7F, 0x00, 
	0x92, 0x52, 0x7F, 0x00, 0x95, 0x54, 0x79, 0x00, 0x95, 0x60, 0x79, 0x00, 0x99, 0x37, 0x6A, 0x00, 0x99, 0x24, 0x6A, 0x01, 0x99, 0x37, 0x00, 0x00, 0x99, 0x24, 0x00, 0x82, 0x2B, 0x91, 0x2B, 0x00, 0x00, 0x92, 0x47, 0x00, 0x00, 0x92, 0x4D, 0x00, 0x00, 0x92, 0x52, 0x00, 0x14, 0x99, 0x28, 0x40, 0x01, 0x99, 0x28, 0x00, 0x81, 0x01, 0x95, 0x54, 0x00, 0x00, 0x95, 0x60, 0x00, 0x1E, 0x91, 0x2B, 
	0x79, 0x00, 0x92, 0x47, 0x7F, 0x00, 0x92, 0x4D, 0x7F, 0x00, 0x92, 0x50, 0x7F, 0x00, 0x95, 0x52, 0x79, 0x00, 0x95, 0x5E, 0x79, 0x00, 0x99, 0x28, 0x5C, 0x01, 0x99, 0x28, 0x00, 0x81, 0x1F, 0x99, 0x28, 0x40, 0x01, 0x99, 0x28, 0x00, 0x81, 0x0B, 0x91, 0x2B, 0x00, 0x00, 0x92, 0x47, 0x00, 0x00, 0x92, 0x4D, 0x00, 0x00, 0x92, 0x50, 0x00, 0x14, 0x99, 0x28, 0x5C, 0x01, 0x99, 0x28, 0x00, 0x81, 
	0x01, 0x95, 0x52, 0x00, 0x00, 0x95, 0x5E, 0x00, 0x1E, 0x91, 0x2B, 0x79, 0x00, 0x92, 0x47, 0x7F, 0x00, 0x92, 0x4C, 0x7F, 0x00, 0x92, 0x4F, 0x7F, 0x00, 0x95, 0x4F, 0x79, 0x00, 0x95, 0x5B, 0x79, 0x00, 0x99, 0x30, 0x5C, 0x01, 0x99, 0x30, 0x00, 0x81, 0x1F, 0x99, 0x30, 0x4E, 0x01, 0x99, 0x30, 0x00, 0x81, 0x0B, 0x91, 0x2B, 0x00, 0x00, 0x92, 0x47, 0x00, 0x00, 0x92, 0x4C, 0x00, 0x00, 0x92, 
	0x4F, 0x00, 0x14, 0x99, 0x30, 0x5C, 0x01, 0x99, 0x30, 0x00, 0x81, 0x01, 0x95, 0x4F, 0x00, 0x00, 0x95, 0x5B, 0x00, 0x1E, 0x91, 0x2B, 0x79, 0x00, 0x92, 0x43, 0x7F, 0x00, 0x92, 0x47, 0x7F, 0x00, 0x92, 0x4D, 0x7F, 0x00, 0x95, 0x4D, 0x79, 0x00, 0x95, 0x59, 0x79, 0x00, 0x99, 0x2D, 0x5C, 0x01, 0x99, 0x2D, 0x00, 0x81, 0x1F, 0x99, 0x2D, 0x4E, 0x01, 0x99, 0x2D, 0x00, 0x81, 0x0B, 0x91, 0x2B, 
	0x00, 0x00, 0x92, 0x43, 0x00, 0x00, 0x92, 0x47, 0x00, 0x00, 0x92, 0x4D, 0x00, 0x14, 0x99, 0x29, 0x5C, 0x01, 0x99, 0x29, 0x00, 0x81, 0x01, 0x95, 0x4D, 0x00, 0x00, 0x95, 0x59, 0x00, 0x1E, 0x91, 0x24, 0x79, 0x00, 0x92, 0x43, 0x76, 0x00, 0x92, 0x48, 0x76, 0x00, 0x92, 0x4C, 0x76, 0x00, 0x96, 0x40, 0x6F, 0x00, 0x96, 0x43, 0x6F, 0x00, 0x96, 0x48, 0x6F, 0x00, 0x99, 0x31, 0x4E, 0x00, 0x99, 
	0x24, 0x6A, 0x01, 0x99, 0x31, 0x00, 0x00, 0x99, 0x24, 0x00, 0x81, 0x6F, 0x92, 0x43, 0x00, 0x00, 0x92, 0x48, 0x00, 0x00, 0x92, 0x4C, 0x00, 0x3C, 0x91, 0x24, 0x00, 0x81, 0x34, 0x91, 0x24, 0x79, 0x00, 0x92, 0x43, 0x76, 0x00, 0x92, 0x48, 0x76, 0x00, 0x92, 0x4C, 0x76, 0x00, 0x93, 0x43, 0x7F, 0x00, 0x99, 0x2A, 0x4E, 0x00, 0x99, 0x28, 0x6A, 0x01, 0x99, 0x2A, 0x00, 0x00, 0x99, 0x28, 0x00, 
	0x81, 0x1F, 0x99, 0x2A, 0x32, 0x01, 0x99, 0x2A, 0x00, 0x4F, 0x92, 0x43, 0x00, 0x00, 0x92, 0x48, 0x00, 0x00, 0x92, 0x4C, 0x00, 0x3C, 0x91, 0x24, 0x00, 0x14, 0x94, 0x43, 0x7F, 0x00, 0x99, 0x2A, 0x32, 0x00, 0x99, 0x24, 0x4E, 0x01, 0x99, 0x2A, 0x00, 0x00, 0x99, 0x24, 0x00, 0x81, 0x1F, 0x91, 0x24, 0x79, 0x00, 0x92, 0x43, 0x76, 0x00, 0x92, 0x48, 0x76, 0x00, 0x92, 0x4C, 0x76, 0x00, 0x99, 
	0x2A, 0x4E, 0x00, 0x99, 0x24, 0x6A, 0x01, 0x99, 0x2A, 0x00, 0x00, 0x99, 0x24, 0x00, 0x81, 0x1F, 0x99, 0x2A, 0x32, 0x01, 0x99, 0x2A, 0x00, 0x4F, 0x92, 0x43, 0x00, 0x00, 0x92, 0x48, 0x00, 0x00, 0x92, 0x4C, 0x00, 0x3C, 0x93, 0x43, 0x00, 0x14, 0x93, 0x43, 0x74, 0x00, 0x99, 0x2A, 0x32, 0x00, 0x99, 0x24, 0x6A, 0x01, 0x99, 0x2A, 0x00, 0x00, 0x99, 0x24, 0x00, 0x81, 0x11, 0x93, 0x43, 0x00, 
	0x0E, 0x92, 0x43, 0x76, 0x00, 0x92, 0x48, 0x76, 0x00, 0x92, 0x4C, 0x76, 0x00, 0x93, 0x4C, 0x7F, 0x00, 0x99, 0x2A, 0x4E, 0x00, 0x99, 0x28, 0x6A, 0x01, 0x99, 0x2A, 0x00, 0x00, 0x99, 0x28, 0x00, 0x81, 0x0B, 0x94, 0x43, 0x00, 0x14, 0x94, 0x43, 0x74, 0x00, 0x99, 0x2A, 0x32, 0x01, 0x99, 0x2A, 0x00, 0x4F, 0x92, 0x43, 0x00, 0x00, 0x92, 0x48, 0x00, 0x00, 0x92, 0x4C, 0x00, 0x3C, 0x91, 0x24, 
	0x00, 0x00, 0x93, 0x4C, 0x00, 0x06, 0x94, 0x43, 0x00, 0x0E, 0x91, 0x23, 0x79, 0x00, 0x93, 0x4A, 0x7F, 0x00, 0x94, 0x4C, 0x7F, 0x00, 0x99, 0x2A, 0x32, 0x00, 0x99, 0x24, 0x4E, 0x01, 0x99, 0x2A, 0x00, 0x00, 0x99, 0x24, 0x00, 0x81, 0x0B, 0x96, 0x40, 0x00, 0x00, 0x96, 0x43, 0x00, 0x00, 0x96, 0x48, 0x00, 0x06, 0x91, 0x23, 0x00, 0x0E, 0x92, 0x43, 0x76, 0x00, 0x92, 0x47, 0x76, 0x00, 0x92, 
	0x4A, 0x76, 0x00, 0x96, 0x3E, 0x6F, 0x00, 0x96, 0x43, 0x6F, 0x00, 0x96, 0x47, 0x6F, 0x00, 0x99, 0x2A, 0x4E, 0x01, 0x99, 0x2A, 0x00, 0x81, 0x0B, 0x94, 0x4C, 0x00, 0x14, 0x94, 0x4A, 0x7F, 0x00, 0x99, 0x2A, 0x32, 0x01, 0x99, 0x2A, 0x00, 0x4F, 0x92, 0x43, 0x00, 0x00, 0x92, 0x47, 0x00, 0x00, 0x92, 0x4A, 0x00, 0x50, 0x91, 0x23, 0x79, 0x00, 0x99, 0x2A, 0x32, 0x00, 0x99, 0x24, 0x4E, 0x01, 
	0x99, 0x2A, 0x00, 0x00, 0x99, 0x24, 0x00, 0x81, 0x11, 0x91, 0x23, 0x00, 0x0E, 0x92, 0x43, 0x76, 0x00, 0x92, 0x47, 0x76, 0x00, 0x92, 0x4A, 0x76, 0x00, 0x99, 0x2A, 0x4E, 0x00, 0x99, 0x28, 0x6A, 0x01, 0x99, 0x2A, 0x00, 0x00, 0x99, 0x28, 0x00, 0x81, 0x1F, 0x99, 0x2A, 0x32, 0x01, 0x99, 0x2A, 0x00, 0x4F, 0x92, 0x43, 0x00, 0x00, 0x92, 0x47, 0x00, 0x00, 0x92, 0x4A, 0x00, 0x50, 0x91, 0x23, 
	0x79, 0x00, 0x99, 0x2A, 0x32, 0x00, 0x99, 0x24, 0x4E, 0x01, 0x99, 0x2A, 0x00, 0x00, 0x99, 0x24, 0x00, 0x77, 0x93, 0x4A, 0x00, 0x1A, 0x91, 0x23, 0x00, 0x0E, 0x91, 0x23, 0x79, 0x00, 0x92, 0x43, 0x76, 0x00, 0x92, 0x47, 0x76, 0x00, 0x92, 0x4A, 0x76, 0x00, 0x93, 0x47, 0x7F, 0x00, 0x99, 0x2A, 0x4E, 0x00, 0x99, 0x24, 0x6A, 0x01, 0x99, 0x2A, 0x00, 0x00, 0x99, 0x24, 0x00, 0x81, 0x11, 0x93, 
	0x47, 0x00, 0x0E, 0x93, 0x48, 0x7F, 0x00, 0x99, 0x2A, 0x32, 0x01, 0x99, 0x2A, 0x00, 0x4F, 0x92, 0x43, 0x00, 0x00, 0x92, 0x47, 0x00, 0x00, 0x92, 0x4A, 0x00, 0x28, 0x94, 0x4A, 0x00, 0x1A, 0x93, 0x48, 0x00, 0x0E, 0x93, 0x4A, 0x7F, 0x00, 0x94, 0x47, 0x7F, 0x00, 0x99, 0x2A, 0x32, 0x01, 0x99, 0x2A, 0x00, 0x81, 0x01, 0x91, 0x23, 0x00, 0x10, 0x93, 0x4A, 0x00, 0x00, 0x94, 0x47, 0x00, 0x0E, 
	0x91, 0x28, 0x79, 0x00, 0x92, 0x43, 0x76, 0x00, 0x92, 0x47, 0x76, 0x00, 0x92, 0x4A, 0x76, 0x00, 0x93, 0x4F, 0x7F, 0x00, 0x94, 0x48, 0x7F, 0x00, 0x99, 0x2E, 0x4E, 0x00, 0x99, 0x28, 0x6A, 0x01, 0x99, 0x2E, 0x00, 0x00, 0x99, 0x28, 0x00, 0x81, 0x11, 0x94, 0x48, 0x00, 0x0E, 0x94, 0x4A, 0x7F, 0x00, 0x99, 0x2A, 0x4E, 0x01, 0x99, 0x2A, 0x00, 0x4F, 0x92, 0x43, 0x00, 0x00, 0x92, 0x47, 0x00, 
	0x00, 0x92, 0x4A, 0x00, 0x3C, 0x93, 0x4F, 0x00, 0x06, 0x94, 0x4A, 0x00, 0x0E, 0x93, 0x48, 0x7F, 0x00, 0x94, 0x4F, 0x7F, 0x00, 0x99, 0x2A, 0x32, 0x01, 0x99, 0x2A, 0x00, 0x81, 0x01, 0x91, 0x28, 0x00, 0x0A, 0x96, 0x3E, 0x00, 0x00, 0x96, 0x43, 0x00, 0x00, 0x96, 0x47, 0x00, 0x14, 0x91, 0x29, 0x79, 0x00, 0x92, 0x41, 0x76, 0x00, 0x92, 0x45, 0x76, 0x00, 0x92, 0x48, 0x76, 0x00, 0x96, 0x41, 
	0x6F, 0x00, 0x96, 0x45, 0x6F, 0x00, 0x96, 0x48, 0x6F, 0x00, 0x99, 0x2A, 0x4E, 0x00, 0x99, 0x24, 0x6A, 0x01, 0x99, 0x2A, 0x00, 0x00, 0x99, 0x24, 0x00, 0x81, 0x0B, 0x94, 0x4F, 0x00, 0x14, 0x94, 0x48, 0x7F, 0x00, 0x99, 0x2A, 0x32, 0x01, 0x99, 0x2A, 0x00, 0x4F, 0x92, 0x41, 0x00, 0x00, 0x92, 0x45, 0x00, 0x00, 0x92, 0x48, 0x00, 0x3C, 0x91, 0x29, 0x00, 0x14, 0x99, 0x2A, 0x32, 0x01, 0x99, 
	0x2A, 0x00, 0x81, 0x1F, 0x91, 0x29, 0x79, 0x00, 0x92, 0x41, 0x76, 0x00, 0x92, 0x45, 0x76, 0x00, 0x92, 0x48, 0x76, 0x00, 0x99, 0x2A, 0x4E, 0x00, 0x99, 0x28, 0x6A, 0x01, 0x99, 0x2A, 0x00, 0x00, 0x99, 0x28, 0x00, 0x81, 0x1F, 0x99, 0x2A, 0x32, 0x01, 0x99, 0x2A, 0x00, 0x4F, 0x92, 0x41, 0x00, 0x00, 0x92, 0x45, 0x00, 0x00, 0x92, 0x48, 0x00, 0x3C, 0x91, 0x29, 0x00, 0x14, 0x99, 0x2A, 0x32, 
	0x00, 0x99, 0x24, 0x4E, 0x01, 0x99, 0x2A, 0x00, 0x00, 0x99, 0x24, 0x00, 0x81, 0x1F, 0x91, 0x29, 0x79, 0x00, 0x92, 0x41, 0x76, 0x00, 0x92, 0x45, 0x76, 0x00, 0x92, 0x48, 0x76, 0x00, 0x99, 0x2A, 0x4E, 0x00, 0x99, 0x24, 0x6A, 0x01, 0x99, 0x2A, 0x00, 0x00, 0x99, 0x24, 0x00, 0x81, 0x1F, 0x99, 0x2A, 0x32, 0x01, 0x99, 0x2A, 0x00, 0x4F, 0x92, 0x41, 0x00, 0x00, 0x92, 0x45, 0x00, 0x00, 0x92, 
	0x48, 0x00, 0x50, 0x99, 0x2A, 0x32, 0x00, 0x99, 0x24, 0x6A, 0x01, 0x99, 0x2A, 0x00, 0x00, 0x99, 0x24, 0x00, 0x81, 0x0B, 0x93, 0x48, 0x00, 0x14, 0x92, 0x41, 0x76, 0x00, 0x92, 0x45, 0x76, 0x00, 0x92, 0x48, 0x76, 0x00, 0x93, 0x48, 0x7F, 0x00, 0x99, 0x2A, 0x4E, 0x00, 0x99, 0x28, 0x6A, 0x01, 0x99, 0x2A, 0x00, 0x00, 0x99, 0x28, 0x00, 0x81, 0x11, 0x93, 0x48, 0x00, 0x0E, 0x93, 0x47, 0x7F, 
	0x00, 0x99, 0x2A, 0x32, 0x01, 0x99, 0x2A, 0x00, 0x4F, 0x92, 0x41, 0x00, 0x00, 0x92, 0x45, 0x00, 0x00, 0x92, 0x48, 0x00, 0x3C, 0x91, 0x29, 0x00, 0x00, 0x94, 0x48, 0x00, 0x06, 0x93, 0x47, 0x00, 0x0E, 0x91, 0x2B, 0x79, 0x00, 0x93, 0x45, 0x7F, 0x00, 0x94, 0x48, 0x7F, 0x00, 0x99, 0x2A, 0x32, 0x00, 0x99, 0x24, 0x4E, 0x01, 0x99, 0x2A, 0x00, 0x00, 0x99, 0x24, 0x00, 0x81, 0x0B, 0x96, 0x41, 
	0x00, 0x00, 0x96, 0x45, 0x00, 0x00, 0x96, 0x48, 0x00, 0x06, 0x91, 0x2B, 0x00, 0x00, 0x93, 0x45, 0x00, 0x00, 0x94, 0x48, 0x00, 0x0E, 0x92, 0x43, 0x76, 0x00, 0x92, 0x47, 0x76, 0x00, 0x92, 0x4A, 0x76, 0x00, 0x93, 0x47, 0x7F, 0x00, 0x94, 0x47, 0x7F, 0x00, 0x96, 0x43, 0x6F, 0x00, 0x96, 0x47, 0x6F, 0x00, 0x96, 0x4A, 0x6F, 0x00, 0x99, 0x2A, 0x4E, 0x01, 0x99, 0x2A, 0x00, 0x81, 0x11, 0x94, 
	0x47, 0x00, 0x0E, 0x94, 0x45, 0x7F, 0x00, 0x99, 0x2A, 0x32, 0x01, 0x99, 0x2A, 0x00, 0x4F, 0x92, 0x43, 0x00, 0x00, 0x92, 0x47, 0x00, 0x00, 0x92, 0x4A, 0x00, 0x42, 0x94, 0x45, 0x00, 0x0E, 0x91, 0x2B, 0x79, 0x00, 0x94, 0x47, 0x7F, 0x00, 0x99, 0x2A, 0x32, 0x00, 0x99, 0x24, 0x4E, 0x01, 0x99, 0x2A, 0x00, 0x00, 0x99, 0x24, 0x00, 0x81, 0x01, 0x93, 0x47, 0x00, 0x10, 0x91, 0x2B, 0x00, 0x0E, 
	0x92, 0x43, 0x76, 0x00, 0x92, 0x47, 0x76, 0x00, 0x92, 0x4A, 0x76, 0x00, 0x93, 0x48, 0x7F, 0x00, 0x99, 0x2A, 0x4E, 0x00, 0x99, 0x28, 0x6A, 0x01, 0x99, 0x2A, 0x00, 0x00, 0x99, 0x28, 0x00, 0x81, 0x1F, 0x99, 0x2A, 0x32, 0x01, 0x99, 0x2A, 0x00, 0x4F, 0x92, 0x43, 0x00, 0x00, 0x92, 0x47, 0x00, 0x00, 0x92, 0x4A, 0x00, 0x32, 0x94, 0x47, 0x00, 0x1E, 0x91, 0x2B, 0x79, 0x00, 0x94, 0x48, 0x7F, 
	0x00, 0x99, 0x2A, 0x32, 0x00, 0x99, 0x24, 0x4E, 0x01, 0x99, 0x2A, 0x00, 0x00, 0x99, 0x24, 0x00, 0x81, 0x01, 0x93, 0x48, 0x00, 0x10, 0x91, 0x2B, 0x00, 0x0E, 0x91, 0x2B, 0x79, 0x00, 0x92, 0x43, 0x76, 0x00, 0x92, 0x47, 0x76, 0x00, 0x92, 0x4A, 0x76, 0x00, 0x93, 0x4A, 0x7F, 0x00, 0x99, 0x2A, 0x4E, 0x00, 0x99, 0x24, 0x6A, 0x01, 0x99, 0x2A, 0x00, 0x00, 0x99, 0x24, 0x00, 0x81, 0x1F, 0x99, 
	0x2A, 0x32, 0x01, 0x99, 0x2A, 0x00, 0x4F, 0x92, 0x43, 0x00, 0x00, 0x92, 0x47, 0x00, 0x00, 0x92, 0x4A, 0x00, 0x32, 0x94, 0x48, 0x00, 0x0A, 0x93, 0x4A, 0x00, 0x14, 0x93, 0x4C, 0x7F, 0x00, 0x94, 0x4A, 0x7F, 0x00, 0x99, 0x2A, 0x32, 0x01, 0x99, 0x2A, 0x00, 0x81, 0x01, 0x91, 0x2B, 0x00, 0x1E, 0x91, 0x23, 0x79, 0x00, 0x92, 0x43, 0x76, 0x00, 0x92, 0x47, 0x76, 0x00, 0x92, 0x4A, 0x76, 0x00, 
	0x99, 0x2A, 0x4E, 0x00, 0x99, 0x28, 0x6A, 0x01, 0x99, 0x2A, 0x00, 0x00, 0x99, 0x28, 0x00, 0x81, 0x0B, 0x94, 0x4A, 0x00, 0x14, 0x94, 0x4C, 0x7F, 0x00, 0x99, 0x2A, 0x32, 0x01, 0x99, 0x2A, 0x00, 0x4F, 0x92, 0x43, 0x00, 0x00, 0x92, 0x47, 0x00, 0x00, 0x92, 0x4A, 0x00, 0x3C, 0x93, 0x4C, 0x00, 0x14, 0x93, 0x48, 0x7F, 0x00, 0x99, 0x2A, 0x32, 0x01, 0x99, 0x2A, 0x00, 0x81, 0x01, 0x91, 0x23, 
	0x00, 0x0A, 0x96, 0x43, 0x00, 0x00, 0x96, 0x47, 0x00, 0x00, 0x96, 0x4A, 0x00, 0x14, 0x91, 0x24, 0x79, 0x00, 0x92, 0x43, 0x76, 0x00, 0x92, 0x48, 0x76, 0x00, 0x92, 0x4C, 0x76, 0x00, 0x96, 0x40, 0x6F, 0x00, 0x96, 0x43, 0x6F, 0x00, 0x96, 0x48, 0x6F, 0x00, 0x99, 0x2A, 0x4E, 0x00, 0x99, 0x24, 0x6A, 0x01, 0x99, 0x2A, 0x00, 0x00, 0x99, 0x24, 0x00, 0x81, 0x0B, 0x94, 0x4C, 0x00, 0x14, 0x94, 
	0x48, 0x7F, 0x00, 0x99, 0x2A, 0x32, 0x01, 0x99, 0x2A, 0x00, 0x4F, 0x92, 0x43, 0x00, 0x00, 0x92, 0x48, 0x00, 0x00, 0x92, 0x4C, 0x00, 0x3C, 0x91, 0x24, 0x00, 0x14, 0x99, 0x2A, 0x32, 0x01, 0x99, 0x2A, 0x00, 0x81, 0x1F, 0x91, 0x24, 0x79, 0x00, 0x92, 0x43, 0x76, 0x00, 0x92, 0x48, 0x76, 0x00, 0x92, 0x4C, 0x76, 0x00, 0x99, 0x2A, 0x4E, 0x00, 0x99, 0x28, 0x6A, 0x01, 0x99, 0x2A, 0x00, 0x00, 
	0x99, 0x28, 0x00, 0x81, 0x1F, 0x99, 0x2A, 0x32, 0x01, 0x99, 0x2A, 0x00, 0x4F, 0x92, 0x43, 0x00, 0x00, 0x92, 0x48, 0x00, 0x00, 0x92, 0x4C, 0x00, 0x3C, 0x91, 0x24, 0x00, 0x14, 0x99, 0x2A, 0x32, 0x00, 0x99, 0x24, 0x4E, 0x01, 0x99, 0x2A, 0x00, 0x00, 0x99, 0x24, 0x00, 0x77, 0x93, 0x48, 0x00, 0x28, 0x91, 0x24, 0x79, 0x00, 0x92, 0x43, 0x76, 0x00, 0x92, 0x48, 0x76, 0x00, 0x92, 0x4C, 0x76, 
	0x00, 0x93, 0x43, 0x7F, 0x00, 0x99, 0x2A, 0x4E, 0x00, 0x99, 0x24, 0x6A, 0x01, 0x99, 0x2A, 0x00, 0x00, 0x99, 0x24, 0x00, 0x81, 0x1F, 0x99, 0x2A, 0x32, 0x01, 0x99, 0x2A, 0x00, 0x4F, 0x92, 0x43, 0x00, 0x00, 0x92, 0x48, 0x00, 0x00, 0x92, 0x4C, 0x00, 0x28, 0x94, 0x48, 0x00, 0x14, 0x93, 0x43, 0x00, 0x14, 0x93, 0x45, 0x7F, 0x00, 0x94, 0x43, 0x7F, 0x00, 0x99, 0x2A, 0x32, 0x00, 0x99, 0x24, 
	0x6A, 0x01, 0x99, 0x2A, 0x00, 0x00, 0x99, 0x24, 0x00, 0x81, 0x11, 0x93, 0x45, 0x00, 0x0E, 0x92, 0x43, 0x76, 0x00, 0x92, 0x48, 0x76, 0x00, 0x92, 0x4C, 0x76, 0x00, 0x93, 0x51, 0x7F, 0x00, 0x99, 0x2A, 0x4E, 0x00, 0x99, 0x28, 0x6A, 0x01, 0x99, 0x2A, 0x00, 0x00, 0x99, 0x28, 0x00, 0x81, 0x0B, 0x94, 0x43, 0x00, 0x14, 0x94, 0x45, 0x7F, 0x00, 0x99, 0x2A, 0x32, 0x01, 0x99, 0x2A, 0x00, 0x4F, 
	0x92, 0x43, 0x00, 0x00, 0x92, 0x48, 0x00, 0x00, 0x92, 0x4C, 0x00, 0x3C, 0x91, 0x24, 0x00, 0x00, 0x93, 0x51, 0x00, 0x06, 0x94, 0x45, 0x00, 0x0E, 0x91, 0x23, 0x79, 0x00, 0x93, 0x4F, 0x7F, 0x00, 0x94, 0x51, 0x7F, 0x00, 0x99, 0x2A, 0x32, 0x00, 0x99, 0x24, 0x4E, 0x01, 0x99, 0x2A, 0x00, 0x00, 0x99, 0x24, 0x00, 0x81, 0x0B, 0x96, 0x40, 0x00, 0x00, 0x96, 0x43, 0x00, 0x00, 0x96, 0x48, 0x00, 
	0x06, 0x91, 0x23, 0x00, 0x0E, 0x92, 0x43, 0x76, 0x00, 0x92, 0x47, 0x76, 0x00, 0x92, 0x4C, 0x76, 0x00, 0x96, 0x3E, 0x6F, 0x00, 0x96, 0x43, 0x6F, 0x00, 0x96, 0x47, 0x6F, 0x00, 0x99, 0x2A, 0x4E, 0x01, 0x99, 0x2A, 0x00, 0x81, 0x0B, 0x94, 0x51, 0x00, 0x14, 0x94, 0x4F, 0x7F, 0x00, 0x99, 0x2A, 0x32, 0x01, 0x99, 0x2A, 0x00, 0x4F, 0x92, 0x43, 0x00, 0x00, 0x92, 0x47, 0x00, 0x00, 0x92, 0x4C, 
	0x00, 0x50, 0x91, 0x23, 0x79, 0x00, 0x99, 0x2A, 0x32, 0x00, 0x99, 0x24, 0x4E, 0x01, 0x99, 0x2A, 0x00, 0x00, 0x99, 0x24, 0x00, 0x81, 0x11, 0x91, 0x23, 0x00, 0x0E, 0x92, 0x43, 0x76, 0x00, 0x92, 0x47, 0x76, 0x00, 0x92, 0x4C, 0x76, 0x00, 0x99, 0x2A, 0x4E, 0x00, 0x99, 0x28, 0x6A, 0x01, 0x99, 0x2A, 0x00, 0x00, 0x99, 0x28, 0x00, 0x81, 0x1F, 0x99, 0x2A, 0x32, 0x01, 0x99, 0x2A, 0x00, 0x4F, 
	0x92, 0x43, 0x00, 0x00, 0x92, 0x47, 0x00, 0x00, 0x92, 0x4C, 0x00, 0x50, 0x91, 0x23, 0x79, 0x00, 0x99, 0x2A, 0x32, 0x00, 0x99, 0x24, 0x4E, 0x01, 0x99, 0x2A, 0x00, 0x00, 0x99, 0x24, 0x00, 0x81, 0x11, 0x91, 0x23, 0x00, 0x0E, 0x91, 0x23, 0x79, 0x00, 0x92, 0x43, 0x76, 0x00, 0x92, 0x47, 0x76, 0x00, 0x92, 0x4C, 0x76, 0x00, 0x99, 0x2A, 0x4E, 0x00, 0x99, 0x24, 0x6A, 0x01, 0x99, 0x2A, 0x00, 
	0x00, 0x99, 0x24, 0x00, 0x81, 0x1F, 0x99, 0x2A, 0x32, 0x01, 0x99, 0x2A, 0x00, 0x4F, 0x92, 0x43, 0x00, 0x00, 0x92, 0x47, 0x00, 0x00, 0x92, 0x4C, 0x00, 0x3C, 0x93, 0x4F, 0x00, 0x14, 0x93, 0x4C, 0x7F, 0x00, 0x99, 0x2A, 0x32, 0x01, 0x99, 0x2A, 0x00, 0x81, 0x01, 0x91, 0x23, 0x00, 0x10, 0x93, 0x4C, 0x00, 0x0E, 0x91, 0x28, 0x79, 0x00, 0x92, 0x43, 0x76, 0x00, 0x92, 0x47, 0x76, 0x00, 0x92, 
	0x4C, 0x76, 0x00, 0x93, 0x4D, 0x7F, 0x00, 0x99, 0x2A, 0x4E, 0x00, 0x99, 0x28, 0x6A, 0x01, 0x99, 0x2A, 0x00, 0x00, 0x99, 0x28, 0x00, 0x81, 0x0B, 0x94, 0x4F, 0x00, 0x14, 0x94, 0x4C, 0x7F, 0x00, 0x99, 0x2A, 0x32, 0x01, 0x99, 0x2A, 0x00, 0x4F, 0x92, 0x43, 0x00, 0x00, 0x92, 0x47, 0x00, 0x00, 0x92, 0x4C, 0x00, 0x3C, 0x93, 0x4D, 0x00, 0x06, 0x94, 0x4C, 0x00, 0x0E, 0x93, 0x4F, 0x7F, 0x00, 
	0x94, 0x4D, 0x7F, 0x00, 0x99, 0x2A, 0x32, 0x01, 0x99, 0x2A, 0x00, 0x81, 0x01, 0x91, 0x28, 0x00, 0x0A, 0x96, 0x3E, 0x00, 0x00, 0x96, 0x43, 0x00, 0x00, 0x96, 0x47, 0x00, 0x14, 0x91, 0x29, 0x79, 0x00, 0x92, 0x45, 0x76, 0x00, 0x92, 0x48, 0x76, 0x00, 0x92, 0x4D, 0x76, 0x00, 0x96, 0x41, 0x6F, 0x00, 0x96, 0x45, 0x6F, 0x00, 0x96, 0x48, 0x6F, 0x00, 0x99, 0x2A, 0x4E, 0x00, 0x99, 0x24, 0x6A, 
	0x01, 0x99, 0x2A, 0x00, 0x00, 0x99, 0x24, 0x00, 0x81, 0x0B, 0x94, 0x4D, 0x00, 0x14, 0x94, 0x4F, 0x7F, 0x00, 0x99, 0x2A, 0x32, 0x01, 0x99, 0x2A, 0x00, 0x4F, 0x92, 0x45, 0x00, 0x00, 0x92, 0x48, 0x00, 0x00, 0x92, 0x4D, 0x00, 0x3C, 0x91, 0x29, 0x00, 0x14, 0x99, 0x2A, 0x32, 0x01, 0x99, 0x2A, 0x00, 0x81, 0x01, 0x93, 0x4F, 0x00, 0x1E, 0x91, 0x29, 0x79, 0x00, 0x92, 0x45, 0x76, 0x00, 0x92, 
	0x48, 0x76, 0x00, 0x92, 0x4D, 0x76, 0x00, 0x93, 0x48, 0x7F, 0x00, 0x99, 0x2A, 0x4E, 0x00, 0x99, 0x28, 0x6A, 0x01, 0x99, 0x2A, 0x00, 0x00, 0x99, 0x28, 0x00, 0x81, 0x1F, 0x99, 0x2A, 0x32, 0x01, 0x99, 0x2A, 0x00, 0x4F, 0x92, 0x45, 0x00, 0x00, 0x92, 0x48, 0x00, 0x00, 0x92, 0x4D, 0x00, 0x32, 0x94, 0x4F, 0x00, 0x0A, 0x91, 0x29, 0x00, 0x14, 0x94, 0x48, 0x7F, 0x00, 0x99, 0x2A, 0x32, 0x00, 
	0x99, 0x24, 0x4E, 0x01, 0x99, 0x2A, 0x00, 0x00, 0x99, 0x24, 0x00, 0x81, 0x01, 0x93, 0x48, 0x00, 0x1E, 0x91, 0x29, 0x79, 0x00, 0x92, 0x45, 0x76, 0x00, 0x92, 0x48, 0x76, 0x00, 0x92, 0x4D, 0x76, 0x00, 0x93, 0x48, 0x7F, 0x00, 0x99, 0x2A, 0x4E, 0x00, 0x99, 0x24, 0x6A, 0x01, 0x99, 0x2A, 0x00, 0x00, 0x99, 0x24, 0x00, 0x81, 0x1F, 0x99, 0x2A, 0x32, 0x01, 0x99, 0x2A, 0x00, 0x4F, 0x92, 0x45, 
	0x00, 0x00, 0x92, 0x48, 0x00, 0x00, 0x92, 0x4D, 0x00, 0x32, 0x94, 0x48, 0x00, 0x1E, 0x94, 0x48, 0x7F, 0x00, 0x99, 0x2A, 0x32, 0x00, 0x99, 0x24, 0x6A, 0x01, 0x99, 0x2A, 0x00, 0x00, 0x99, 0x24, 0x00, 0x81, 0x01, 0x93, 0x48, 0x00, 0x1E, 0x92, 0x45, 0x76, 0x00, 0x92, 0x48, 0x76, 0x00, 0x92, 0x4D, 0x76, 0x00, 0x93, 0x4C, 0x7F, 0x00, 0x99, 0x2A, 0x4E, 0x00, 0x99, 0x28, 0x6A, 0x01, 0x99, 
	0x2A, 0x00, 0x00, 0x99, 0x28, 0x00, 0x81, 0x1F, 0x99, 0x2A, 0x32, 0x01, 0x99, 0x2A, 0x00, 0x4F, 0x92, 0x45, 0x00, 0x00, 0x92, 0x48, 0x00, 0x00, 0x92, 0x4D, 0x00, 0x32, 0x94, 0x48, 0x00, 0x0A, 0x91, 0x29, 0x00, 0x00, 0x93, 0x4C, 0x00, 0x14, 0x91, 0x2B, 0x79, 0x00, 0x93, 0x4A, 0x7F, 0x00, 0x94, 0x4C, 0x7F, 0x00, 0x99, 0x2A, 0x32, 0x00, 0x99, 0x24, 0x4E, 0x01, 0x99, 0x2A, 0x00, 0x00, 
	0x99, 0x24, 0x00, 0x81, 0x0B, 0x96, 0x41, 0x00, 0x00, 0x96, 0x45, 0x00, 0x00, 0x96, 0x48, 0x00, 0x06, 0x91, 0x2B, 0x00, 0x0E, 0x92, 0x47, 0x76, 0x00, 0x92, 0x4A, 0x76, 0x00, 0x92, 0x4F, 0x76, 0x00, 0x96, 0x43, 0x6F, 0x00, 0x96, 0x47, 0x6F, 0x00, 0x96, 0x4A, 0x6F, 0x00, 0x99, 0x2A, 0x4E, 0x01, 0x99, 0x2A, 0x00, 0x81, 0x0B, 0x94, 0x4C, 0x00, 0x14, 0x94, 0x4A, 0x7F, 0x00, 0x99, 0x2A, 
	0x32, 0x01, 0x99, 0x2A, 0x00, 0x4F, 0x92, 0x47, 0x00, 0x00, 0x92, 0x4A, 0x00, 0x00, 0x92, 0x4F, 0x00, 0x50, 0x91, 0x2B, 0x79, 0x00, 0x99, 0x2A, 0x32, 0x00, 0x99, 0x24, 0x4E, 0x01, 0x99, 0x2A, 0x00, 0x00, 0x99, 0x24, 0x00, 0x81, 0x11, 0x91, 0x2B, 0x00, 0x0E, 0x92, 0x47, 0x76, 0x00, 0x92, 0x4A, 0x76, 0x00, 0x92, 0x4F, 0x76, 0x00, 0x99, 0x2A, 0x4E, 0x00, 0x99, 0x28, 0x6A, 0x01, 0x99, 
	0x2A, 0x00, 0x00, 0x99, 0x28, 0x00, 0x81, 0x1F, 0x99, 0x2A, 0x32, 0x01, 0x99, 0x2A, 0x00, 0x4F, 0x92, 0x47, 0x00, 0x00, 0x92, 0x4A, 0x00, 0x00, 0x92, 0x4F, 0x00, 0x50, 0x91, 0x2B, 0x79, 0x00, 0x99, 0x2A, 0x32, 0x00, 0x99, 0x24, 0x4E, 0x01, 0x99, 0x2A, 0x00, 0x00, 0x99, 0x24, 0x00, 0x81, 0x11, 0x91, 0x2B, 0x00, 0x0E, 0x91, 0x2B, 0x79, 0x00, 0x92, 0x47, 0x76, 0x00, 0x92, 0x4A, 0x76, 
	0x00, 0x92, 0x4F, 0x76, 0x00, 0x99, 0x2A, 0x4E, 0x00, 0x99, 0x24, 0x6A, 0x01, 0x99, 0x2A, 0x00, 0x00, 0x99, 0x24, 0x00, 0x81, 0x1F, 0x99, 0x2A, 0x32, 0x01, 0x99, 0x2A, 0x00, 0x4F, 0x92, 0x47, 0x00, 0x00, 0x92, 0x4A, 0x00, 0x00, 0x92, 0x4F, 0x00, 0x3C, 0x93, 0x4A, 0x00, 0x14, 0x93, 0x48, 0x7F, 0x00, 0x99, 0x2A, 0x32, 0x01, 0x99, 0x2A, 0x00, 0x81, 0x11, 0x93, 0x48, 0x00, 0x0E, 0x92, 
	0x47, 0x76, 0x00, 0x92, 0x4A, 0x76, 0x00, 0x92, 0x4F, 0x76, 0x00, 0x93, 0x47, 0x7F, 0x00, 0x99, 0x2A, 0x4E, 0x00, 0x99, 0x28, 0x6A, 0x01, 0x99, 0x2A, 0x00, 0x00, 0x99, 0x28, 0x00, 0x81, 0x0B, 0x94, 0x4A, 0x00, 0x14, 0x94, 0x48, 0x7F, 0x00, 0x99, 0x2A, 0x32, 0x01, 0x99, 0x2A, 0x00, 0x4F, 0x92, 0x47, 0x00, 0x00, 0x92, 0x4A, 0x00, 0x00, 0x92, 0x4F, 0x00, 0x3C, 0x93, 0x47, 0x00, 0x06, 
	0x94, 0x48, 0x00, 0x0E, 0x93, 0x48, 0x7F, 0x00, 0x94, 0x47, 0x7F, 0x00, 0x99, 0x2A, 0x32, 0x01, 0x99, 0x2A, 0x00, 0x77, 0x91, 0x2B, 0x00, 0x14, 0x96, 0x43, 0x00, 0x00, 0x96, 0x47, 0x00, 0x00, 0x96, 0x4A, 0x00, 0x14, 0x91, 0x29, 0x79, 0x00, 0x92, 0x35, 0x76, 0x00, 0x95, 0x4C, 0x63, 0x00, 0x95, 0x58, 0x79, 0x00, 0x96, 0x41, 0x6F, 0x00, 0x96, 0x45, 0x6F, 0x00, 0x96, 0x48, 0x6F, 0x00, 
	0x99, 0x2A, 0x4E, 0x00, 0x99, 0x24, 0x6A, 0x01, 0x99, 0x2A, 0x00, 0x00, 0x99, 0x24, 0x00, 0x13, 0x92, 0x45, 0x76, 0x14, 0x92, 0x48, 0x76, 0x14, 0x92, 0x4D, 0x76, 0x50, 0x94, 0x47, 0x00, 0x14, 0x94, 0x48, 0x7F, 0x00, 0x99, 0x2A, 0x32, 0x01, 0x99, 0x2A, 0x00, 0x81, 0x1F, 0x99, 0x2A, 0x32, 0x01, 0x99, 0x2A, 0x00, 0x81, 0x1F, 0x97, 0x48, 0x63, 0x00, 0x97, 0x51, 0x7F, 0x00, 0x99, 0x2A, 
	0x4E, 0x00, 0x99, 0x28, 0x6A, 0x01, 0x99, 0x2A, 0x00, 0x00, 0x99, 0x28, 0x00, 0x81, 0x1F, 0x99, 0x2A, 0x32, 0x01, 0x99, 0x2A, 0x00, 0x81, 0x1F, 0x99, 0x2A, 0x32, 0x00, 0x99, 0x24, 0x4E, 0x01, 0x99, 0x2A, 0x00, 0x00, 0x99, 0x24, 0x00, 0x81, 0x01, 0x97, 0x48, 0x00, 0x00, 0x97, 0x51, 0x00, 0x1E, 0x97, 0x4C, 0x63, 0x00, 0x97, 0x54, 0x7F, 0x00, 0x99, 0x2A, 0x4E, 0x00, 0x99, 0x24, 0x6A, 
	0x01, 0x99, 0x2A, 0x00, 0x00, 0x99, 0x24, 0x00, 0x81, 0x1F, 0x99, 0x2A, 0x32, 0x01, 0x99, 0x2A, 0x00, 0x81, 0x1F, 0x99, 0x2A, 0x32, 0x00, 0x99, 0x24, 0x6A, 0x01, 0x99, 0x2A, 0x00, 0x00, 0x99, 0x24, 0x00, 0x81, 0x01, 0x97, 0x4C, 0x00, 0x00, 0x97, 0x54, 0x00, 0x1E, 0x97, 0x4F, 0x63, 0x00, 0x97, 0x58, 0x7F, 0x00, 0x99, 0x2A, 0x4E, 0x00, 0x99, 0x28, 0x6A, 0x01, 0x99, 0x2A, 0x00, 0x00, 
	0x99, 0x28, 0x00, 0x81, 0x1F, 0x99, 0x2A, 0x32, 0x01, 0x99, 0x2A, 0x00, 0x81, 0x1F, 0x99, 0x2A, 0x32, 0x00, 0x99, 0x24, 0x4E, 0x01, 0x99, 0x2A, 0x00, 0x00, 0x99, 0x24, 0x00, 0x81, 0x01, 0x97, 0x4F, 0x00, 0x00, 0x97, 0x58, 0x00, 0x0A, 0x91, 0x29, 0x00, 0x00, 0x95, 0x4C, 0x00, 0x00, 0x95, 0x58, 0x00, 0x00, 0x96, 0x41, 0x00, 0x00, 0x96, 0x45, 0x00, 0x00, 0x96, 0x48, 0x00, 0x14, 0x91, 
	0x2B, 0x79, 0x00, 0x92, 0x35, 0x00, 0x00, 0x92, 0x45, 0x00, 0x00, 0x92, 0x48, 0x00, 0x00, 0x92, 0x4D, 0x00, 0x00, 0x92, 0x37, 0x76, 0x00, 0x95, 0x4A, 0x63, 0x00, 0x95, 0x56, 0x79, 0x00, 0x96, 0x43, 0x6F, 0x00, 0x96, 0x47, 0x6F, 0x00, 0x96, 0x4A, 0x6F, 0x00, 0x97, 0x4D, 0x63, 0x00, 0x97, 0x56, 0x7F, 0x00, 0x99, 0x2A, 0x4E, 0x01, 0x99, 0x2A, 0x00, 0x13, 0x92, 0x47, 0x76, 0x14, 0x92, 
	0x4A, 0x76, 0x14, 0x92, 0x4F, 0x76, 0x64, 0x99, 0x2A, 0x32, 0x01, 0x99, 0x2A, 0x00, 0x81, 0x1F, 0x99, 0x2A, 0x32, 0x00, 0x99, 0x24, 0x4E, 0x01, 0x99, 0x2A, 0x00, 0x00, 0x99, 0x24, 0x00, 0x81, 0x01, 0x93, 0x48, 0x00, 0x1E, 0x93, 0x48, 0x7F, 0x00, 0x99, 0x2A, 0x4E, 0x00, 0x99, 0x28, 0x6A, 0x01, 0x99, 0x2A, 0x00, 0x00, 0x99, 0x28, 0x00, 0x81, 0x1F, 0x99, 0x2A, 0x32, 0x01, 0x99, 0x2A, 
	0x00, 0x81, 0x01, 0x94, 0x48, 0x00, 0x1E, 0x94, 0x48, 0x7F, 0x00, 0x99, 0x2A, 0x32, 0x00, 0x99, 0x24, 0x4E, 0x01, 0x99, 0x2A, 0x00, 0x00, 0x99, 0x24, 0x00, 0x77, 0x95, 0x4A, 0x00, 0x00, 0x95, 0x56, 0x00, 0x0A, 0x93, 0x48, 0x00, 0x1E, 0x93, 0x4A, 0x7F, 0x00, 0x95, 0x45, 0x63, 0x00, 0x95, 0x51, 0x79, 0x00, 0x99, 0x2A, 0x4E, 0x00, 0x99, 0x24, 0x6A, 0x01, 0x99, 0x2A, 0x00, 0x00, 0x99, 
	0x24, 0x00, 0x81, 0x1F, 0x99, 0x2A, 0x32, 0x01, 0x99, 0x2A, 0x00, 0x81, 0x01, 0x94, 0x48, 0x00, 0x0A, 0x93, 0x4A, 0x00, 0x14, 0x93, 0x48, 0x7F, 0x00, 0x94, 0x4A, 0x7F, 0x00, 0x99, 0x2A, 0x32, 0x01, 0x99, 0x2A, 0x00, 0x81, 0x1F, 0x99, 0x2A, 0x4E, 0x00, 0x99, 0x28, 0x6A, 0x01, 0x99, 0x2A, 0x00, 0x00, 0x99, 0x28, 0x00, 0x81, 0x0B, 0x94, 0x4A, 0x00, 0x14, 0x94, 0x48, 0x7F, 0x00, 0x99, 
	0x2A, 0x32, 0x01, 0x99, 0x2A, 0x00, 0x81, 0x0B, 0x93, 0x48, 0x00, 0x14, 0x93, 0x4A, 0x7F, 0x00, 0x99, 0x2A, 0x32, 0x01, 0x99, 0x2A, 0x00, 0x77, 0x95, 0x45, 0x00, 0x00, 0x95, 0x51, 0x00, 0x14, 0x91, 0x2B, 0x00, 0x00, 0x96, 0x43, 0x00, 0x00, 0x96, 0x47, 0x00, 0x00, 0x96, 0x4A, 0x00, 0x00, 0x97, 0x4D, 0x00, 0x00, 0x97, 0x56, 0x00, 0x06, 0x93, 0x4A, 0x00, 0x0E, 0x91, 0x24, 0x79, 0x00, 
	0x92, 0x37, 0x00, 0x00, 0x92, 0x47, 0x00, 0x00, 0x92, 0x4A, 0x00, 0x00, 0x92, 0x4F, 0x00, 0x00, 0x92, 0x43, 0x76, 0x00, 0x92, 0x48, 0x76, 0x00, 0x92, 0x4C, 0x76, 0x00, 0x93, 0x4F, 0x7F, 0x00, 0x95, 0x48, 0x63, 0x00, 0x95, 0x54, 0x79, 0x00, 0x96, 0x40, 0x6F, 0x00, 0x96, 0x43, 0x6F, 0x00, 0x96, 0x48, 0x6F, 0x00, 0x99, 0x31, 0x4E, 0x00, 0x99, 0x24, 0x6A, 0x01, 0x99, 0x31, 0x00, 0x00, 
	0x99, 0x24, 0x00, 0x81, 0x0B, 0x94, 0x48, 0x00, 0x14, 0x94, 0x4A, 0x7F, 0x50, 0x92, 0x43, 0x00, 0x00, 0x92, 0x48, 0x00, 0x00, 0x92, 0x4C, 0x00, 0x3C, 0x91, 0x24, 0x00, 0x06, 0x94, 0x4A, 0x00, 0x0E, 0x94, 0x4F, 0x7F, 0x81, 0x02, 0x93, 0x4F, 0x00, 0x1E, 0x91, 0x24, 0x79, 0x00, 0x92, 0x43, 0x76, 0x00, 0x92, 0x48, 0x76, 0x00, 0x92, 0x4C, 0x76, 0x00, 0x93, 0x4F, 0x7F, 0x00, 0x97, 0x4F, 
	0x63, 0x00, 0x97, 0x58, 0x7F, 0x00, 0x99, 0x2A, 0x4E, 0x00, 0x99, 0x28, 0x6A, 0x01, 0x99, 0x2A, 0x00, 0x00, 0x99, 0x28, 0x00, 0x81, 0x1F, 0x99, 0x2A, 0x32, 0x01, 0x99, 0x2A, 0x00, 0x4F, 0x92, 0x43, 0x00, 0x00, 0x92, 0x48, 0x00, 0x00, 0x92, 0x4C, 0x00, 0x32, 0x94, 0x4F, 0x00, 0x0A, 0x91, 0x24, 0x00, 0x14, 0x94, 0x4F, 0x7F, 0x00, 0x99, 0x2A, 0x32, 0x00, 0x99, 0x24, 0x4E, 0x01, 0x99, 
	0x2A, 0x00, 0x00, 0x99, 0x24, 0x00, 0x77, 0x96, 0x40, 0x00, 0x00, 0x96, 0x43, 0x00, 0x00, 0x96, 0x48, 0x00, 0x0A, 0x93, 0x4F, 0x00, 0x00, 0x97, 0x4F, 0x00, 0x00, 0x97, 0x58, 0x00, 0x1E, 0x91, 0x23, 0x79, 0x00, 0x92, 0x43, 0x76, 0x00, 0x92, 0x47, 0x76, 0x00, 0x92, 0x4A, 0x76, 0x00, 0x93, 0x4C, 0x7F, 0x00, 0x96, 0x3E, 0x6F, 0x00, 0x96, 0x43, 0x6F, 0x00, 0x96, 0x47, 0x6F, 0x00, 0x97, 
	0x51, 0x63, 0x00, 0x97, 0x59, 0x7F, 0x00, 0x99, 0x2A, 0x4E, 0x00, 0x99, 0x24, 0x6A, 0x01, 0x99, 0x2A, 0x00, 0x00, 0x99, 0x24, 0x00, 0x81, 0x1F, 0x99, 0x2A, 0x32, 0x01, 0x99, 0x2A, 0x00, 0x4F, 0x92, 0x43, 0x00, 0x00, 0x92, 0x47, 0x00, 0x00, 0x92, 0x4A, 0x00, 0x32, 0x94, 0x4F, 0x00, 0x1E, 0x94, 0x4C, 0x7F, 0x00, 0x99, 0x2A, 0x32, 0x00, 0x99, 0x24, 0x6A, 0x01, 0x99, 0x2A, 0x00, 0x00, 
	0x99, 0x24, 0x00, 0x81, 0x01, 0x93, 0x4C, 0x00, 0x00, 0x97, 0x51, 0x00, 0x00, 0x97, 0x59, 0x00, 0x1E, 0x92, 0x43, 0x76, 0x00, 0x92, 0x47, 0x76, 0x00, 0x92, 0x4A, 0x76, 0x00, 0x93, 0x4F, 0x7F, 0x00, 0x97, 0x53, 0x63, 0x00, 0x97, 0x5B, 0x7F, 0x00, 0x99, 0x2A, 0x4E, 0x00, 0x99, 0x28, 0x6A, 0x01, 0x99, 0x2A, 0x00, 0x00, 0x99, 0x28, 0x00, 0x81, 0x1F, 0x99, 0x2A, 0x32, 0x01, 0x99, 0x2A, 
	0x00, 0x4F, 0x92, 0x43, 0x00, 0x00, 0x92, 0x47, 0x00, 0x00, 0x92, 0x4A, 0x00, 0x32, 0x94, 0x4C, 0x00, 0x0A, 0x91, 0x23, 0x00, 0x00, 0x93, 0x4F, 0x00, 0x00, 0x97, 0x53, 0x00, 0x00, 0x97, 0x5B, 0x00, 0x14, 0x91, 0x2D, 0x79, 0x00, 0x93, 0x48, 0x7F, 0x00, 0x94, 0x4F, 0x7F, 0x00, 0x97, 0x4C, 0x63, 0x00, 0x97, 0x54, 0x7F, 0x00, 0x99, 0x2A, 0x32, 0x00, 0x99, 0x24, 0x4E, 0x01, 0x99, 0x2A, 
	0x00, 0x00, 0x99, 0x24, 0x00, 0x77, 0x96, 0x3E, 0x00, 0x00, 0x96, 0x43, 0x00, 0x00, 0x96, 0x47, 0x00, 0x1A, 0x91, 0x2D, 0x00, 0x0E, 0x92, 0x45, 0x76, 0x00, 0x92, 0x48, 0x76, 0x00, 0x92, 0x4C, 0x76, 0x00, 0x96, 0x40, 0x6F, 0x00, 0x96, 0x45, 0x6F, 0x00, 0x96, 0x48, 0x6F, 0x00, 0x99, 0x2A, 0x4E, 0x01, 0x99, 0x2A, 0x00, 0x81, 0x0B, 0x94, 0x4F, 0x00, 0x14, 0x94, 0x48, 0x7F, 0x00, 0x99, 
	0x2A, 0x32, 0x01, 0x99, 0x2A, 0x00, 0x4F, 0x92, 0x45, 0x00, 0x00, 0x92, 0x48, 0x00, 0x00, 0x92, 0x4C, 0x00, 0x50, 0x91, 0x2D, 0x79, 0x00, 0x99, 0x2A, 0x32, 0x00, 0x99, 0x24, 0x4E, 0x01, 0x99, 0x2A, 0x00, 0x00, 0x99, 0x24, 0x00, 0x81, 0x11, 0x91, 0x2D, 0x00, 0x0E, 0x92, 0x45, 0x76, 0x00, 0x92, 0x48, 0x76, 0x00, 0x92, 0x4C, 0x76, 0x00, 0x99, 0x2A, 0x4E, 0x00, 0x99, 0x28, 0x6A, 0x01, 
	0x99, 0x2A, 0x00, 0x00, 0x99, 0x28, 0x00, 0x81, 0x1F, 0x99, 0x2A, 0x32, 0x01, 0x99, 0x2A, 0x00, 0x4F, 0x92, 0x45, 0x00, 0x00, 0x92, 0x48, 0x00, 0x00, 0x92, 0x4C, 0x00, 0x50, 0x91, 0x2D, 0x79, 0x00, 0x99, 0x2A, 0x32, 0x00, 0x99, 0x24, 0x4E, 0x01, 0x99, 0x2A, 0x00, 0x00, 0x99, 0x24, 0x00, 0x77, 0x97, 0x4C, 0x00, 0x00, 0x97, 0x54, 0x00, 0x1A, 0x91, 0x2D, 0x00, 0x0E, 0x91, 0x2D, 0x79, 
	0x00, 0x92, 0x43, 0x76, 0x00, 0x92, 0x48, 0x76, 0x00, 0x92, 0x4C, 0x76, 0x00, 0x97, 0x4F, 0x50, 0x00, 0x97, 0x58, 0x6E, 0x00, 0x99, 0x2A, 0x4E, 0x00, 0x99, 0x24, 0x6A, 0x01, 0x99, 0x2A, 0x00, 0x00, 0x99, 0x24, 0x00, 0x81, 0x1F, 0x99, 0x2A, 0x32, 0x01, 0x99, 0x2A, 0x00, 0x4F, 0x92, 0x43, 0x00, 0x00, 0x92, 0x48, 0x00, 0x00, 0x92, 0x4C, 0x00, 0x3C, 0x93, 0x48, 0x00, 0x14, 0x93, 0x48, 
	0x7F, 0x00, 0x99, 0x2A, 0x32, 0x01, 0x99, 0x2A, 0x00, 0x81, 0x01, 0x91, 0x2D, 0x00, 0x10, 0x93, 0x48, 0x00, 0x0E, 0x91, 0x2B, 0x79, 0x00, 0x92, 0x43, 0x76, 0x00, 0x92, 0x48, 0x76, 0x00, 0x92, 0x4C, 0x76, 0x00, 0x93, 0x48, 0x7F, 0x00, 0x99, 0x2A, 0x4E, 0x00, 0x99, 0x28, 0x6A, 0x01, 0x99, 0x2A, 0x00, 0x00, 0x99, 0x28, 0x00, 0x81, 0x0B, 0x94, 0x48, 0x00, 0x14, 0x94, 0x48, 0x7F, 0x00, 
	0x99, 0x2A, 0x32, 0x01, 0x99, 0x2A, 0x00, 0x4F, 0x92, 0x43, 0x00, 0x00, 0x92, 0x48, 0x00, 0x00, 0x92, 0x4C, 0x00, 0x3C, 0x93, 0x48, 0x00, 0x06, 0x94, 0x48, 0x00, 0x0E, 0x93, 0x48, 0x7F, 0x00, 0x94, 0x48, 0x7F, 0x00, 0x99, 0x2A, 0x32, 0x01, 0x99, 0x2A, 0x00, 0x77, 0x97, 0x4F, 0x00, 0x00, 0x97, 0x58, 0x00, 0x0A, 0x91, 0x2B, 0x00, 0x0A, 0x96, 0x40, 0x00, 0x00, 0x96, 0x45, 0x00, 0x00, 
	0x96, 0x48, 0x00, 0x06, 0x93, 0x48, 0x00, 0x0E, 0x91, 0x29, 0x79, 0x00, 0x92, 0x45, 0x76, 0x00, 0x92, 0x48, 0x76, 0x00, 0x92, 0x4D, 0x76, 0x00, 0x93, 0x4F, 0x7F, 0x00, 0x96, 0x41, 0x6F, 0x00, 0x96, 0x45, 0x6F, 0x00, 0x96, 0x48, 0x6F, 0x00, 0x97, 0x51, 0x63, 0x00, 0x97, 0x59, 0x7F, 0x00, 0x99, 0x24, 0x6A, 0x00, 0x99, 0x2A, 0x4E, 0x01, 0x99, 0x24, 0x00, 0x00, 0x99, 0x2A, 0x00, 0x81, 
	0x0B, 0x94, 0x48, 0x00, 0x14, 0x94, 0x48, 0x7F, 0x00, 0x99, 0x2A, 0x32, 0x01, 0x99, 0x2A, 0x00, 0x4F, 0x92, 0x45, 0x00, 0x00, 0x92, 0x48, 0x00, 0x00, 0x92, 0x4D, 0x00, 0x3C, 0x91, 0x29, 0x00, 0x00, 0x93, 0x4F, 0x00, 0x06, 0x94, 0x48, 0x00, 0x0E, 0x93, 0x4F, 0x7F, 0x00, 0x94, 0x4F, 0x7F, 0x00, 0x99, 0x2A, 0x32, 0x01, 0x99, 0x2A, 0x00, 0x81, 0x11, 0x93, 0x4F, 0x00, 0x0E, 0x91, 0x29, 
	0x79, 0x00, 0x92, 0x45, 0x76, 0x00, 0x92, 0x48, 0x76, 0x00, 0x92, 0x4D, 0x76, 0x00, 0x93, 0x4D, 0x7F, 0x00, 0x99, 0x28, 0x6A, 0x00, 0x99, 0x2A, 0x4E, 0x01, 0x99, 0x28, 0x00, 0x00, 0x99, 0x2A, 0x00, 0x81, 0x0B, 0x94, 0x4F, 0x00, 0x14, 0x94, 0x4F, 0x7F, 0x00, 0x99, 0x2A, 0x32, 0x01, 0x99, 0x2A, 0x00, 0x4F, 0x92, 0x45, 0x00, 0x00, 0x92, 0x48, 0x00, 0x00, 0x92, 0x4D, 0x00, 0x3C, 0x91, 
	0x29, 0x00, 0x00, 0x93, 0x4D, 0x00, 0x06, 0x94, 0x4F, 0x00, 0x0E, 0x93, 0x4D, 0x7F, 0x00, 0x94, 0x4D, 0x7F, 0x00, 0x99, 0x24, 0x4E, 0x00, 0x99, 0x2A, 0x32, 0x01, 0x99, 0x24, 0x00, 0x00, 0x99, 0x2A, 0x00, 0x81, 0x11, 0x93, 0x4D, 0x00, 0x0E, 0x91, 0x29, 0x79, 0x00, 0x92, 0x45, 0x76, 0x00, 0x92, 0x4D, 0x76, 0x00, 0x93, 0x4C, 0x7F, 0x00, 0x99, 0x28, 0x5C, 0x01, 0x99, 0x28, 0x00, 0x81, 
	0x0B, 0x94, 0x4D, 0x00, 0x14, 0x94, 0x4D, 0x7F, 0x00, 0x99, 0x28, 0x4E, 0x01, 0x99, 0x28, 0x00, 0x81, 0x0B, 0x92, 0x45, 0x00, 0x00, 0x92, 0x4D, 0x00, 0x00, 0x93, 0x4C, 0x00, 0x06, 0x94, 0x4D, 0x00, 0x0E, 0x92, 0x4C, 0x76, 0x00, 0x93, 0x4A, 0x7F, 0x00, 0x94, 0x4C, 0x7F, 0x00, 0x99, 0x30, 0x5C, 0x01, 0x99, 0x30, 0x00, 0x81, 0x11, 0x92, 0x4C, 0x00, 0x00, 0x93, 0x4A, 0x00, 0x0E, 0x92, 
	0x4D, 0x76, 0x00, 0x93, 0x48, 0x7F, 0x00, 0x99, 0x2D, 0x5C, 0x01, 0x99, 0x2D, 0x00, 0x81, 0x0B, 0x94, 0x4C, 0x00, 0x14, 0x94, 0x4A, 0x7F, 0x81, 0x0C, 0x91, 0x29, 0x00, 0x00, 0x92, 0x4D, 0x00, 0x00, 0x93, 0x48, 0x00, 0x06, 0x94, 0x4A, 0x00, 0x0E, 0x91, 0x2B, 0x79, 0x00, 0x92, 0x47, 0x76, 0x00, 0x92, 0x4A, 0x76, 0x00, 0x92, 0x4F, 0x76, 0x00, 0x93, 0x4A, 0x7F, 0x00, 0x94, 0x48, 0x7F, 
	0x00, 0x99, 0x31, 0x4E, 0x00, 0x99, 0x24, 0x4E, 0x01, 0x99, 0x31, 0x00, 0x00, 0x99, 0x24, 0x00, 0x27, 0x96, 0x41, 0x00, 0x00, 0x96, 0x45, 0x00, 0x00, 0x96, 0x48, 0x00, 0x64, 0x95, 0x48, 0x00, 0x00, 0x95, 0x54, 0x00, 0x00, 0x97, 0x51, 0x00, 0x00, 0x97, 0x59, 0x00, 0x06, 0x91, 0x2B, 0x00, 0x00, 0x92, 0x47, 0x00, 0x00, 0x92, 0x4A, 0x00, 0x00, 0x92, 0x4F, 0x00, 0x81, 0x1A, 0x94, 0x48, 
	0x00, 0x14, 0x94, 0x4A, 0x7F, 0x82, 0x40, 0x91, 0x1F, 0x79, 0x00, 0x92, 0x3B, 0x76, 0x00, 0x92, 0x3E, 0x76, 0x00, 0x92, 0x43, 0x76, 0x00, 0x99, 0x24, 0x6A, 0x01, 0x99, 0x24, 0x00, 0x83, 0x5F, 0x99, 0x24, 0x6A, 0x01, 0x99, 0x24, 0x00, 0x82, 0x2B, 0x93, 0x4A, 0x00, 0x14, 0x93, 0x48, 0x7F, 0x00, 0x99, 0x28, 0x6A, 0x01, 0x99, 0x28, 0x00, 0x81, 0x11, 0x93, 0x48, 0x00, 0x0E, 0x93, 0x47, 
	0x7F, 0x00, 0x99, 0x2D, 0x5C, 0x01, 0x99, 0x2D, 0x00, 0x81, 0x0B, 0x94, 0x4A, 0x00, 0x14, 0x94, 0x48, 0x7F, 0x00, 0x99, 0x29, 0x5C, 0x01, 0x99, 0x29, 0x00, 0x81, 0x0B, 0x93, 0x47, 0x00, 0x06, 0x94, 0x48, 0x00, 0x0E, 0x93, 0x48, 0x7F, 0x00, 0x94, 0x47, 0x7F, 0x00, 0x99, 0x28, 0x6A, 0x01, 0x99, 0x28, 0x00, 0x81, 0x0B, 0x91, 0x1F, 0x00, 0x00, 0x92, 0x3B, 0x00, 0x00, 0x92, 0x3E, 0x00, 
	0x00, 0x92, 0x43, 0x00, 0x14, 0x91, 0x24, 0x79, 0x00, 0x92, 0x43, 0x76, 0x00, 0x92, 0x48, 0x76, 0x00, 0x92, 0x4C, 0x76, 0x00, 0x95, 0x48, 0x63, 0x00, 0x95, 0x54, 0x79, 0x00, 0x96, 0x43, 0x6F, 0x00, 0x96, 0x48, 0x6F, 0x00, 0x96, 0x4C, 0x6F, 0x00, 0x99, 0x31, 0x4E, 0x00, 0x99, 0x24, 0x6A, 0x01, 0x99, 0x31, 0x00, 0x00, 0x99, 0x24, 0x00, 0x81, 0x0B, 0x94, 0x47, 0x00, 0x14, 0x94, 0x48, 
	0x7F, 0x50, 0x92, 0x43, 0x00, 0x00, 0x92, 0x48, 0x00, 0x00, 0x92, 0x4C, 0x00, 0x3C, 0x91, 0x24, 0x00, 0x81, 0x34, 0x91, 0x24, 0x79, 0x00, 0x92, 0x43, 0x76, 0x00, 0x92, 0x48, 0x76, 0x00, 0x92, 0x4C, 0x76, 0x00, 0x97, 0x48, 0x63, 0x00, 0x97, 0x4F, 0x7F, 0x00, 0x99, 0x2A, 0x4E, 0x00, 0x99, 0x28, 0x6A, 0x01, 0x99, 0x2A, 0x00, 0x00, 0x99, 0x28, 0x00, 0x81, 0x1F, 0x99, 0x2A, 0x32, 0x01, 
	0x99, 0x2A, 0x00, 0x4F, 0x92, 0x43, 0x00, 0x00, 0x92, 0x48, 0x00, 0x00, 0x92, 0x4C, 0x00, 0x3C, 0x91, 0x24, 0x00, 0x14, 0x99, 0x2A, 0x32, 0x00, 0x99, 0x24, 0x4E, 0x01, 0x99, 0x2A, 0x00, 0x00, 0x99, 0x24, 0x00, 0x81, 0x01, 0x97, 0x48, 0x00, 0x00, 0x97, 0x4F, 0x00, 0x1E, 0x91, 0x24, 0x79, 0x00, 0x92, 0x43, 0x76, 0x00, 0x92, 0x48, 0x76, 0x00, 0x92, 0x4C, 0x76, 0x00, 0x97, 0x4C, 0x63, 
	0x00, 0x97, 0x54, 0x7F, 0x00, 0x99, 0x2A, 0x4E, 0x00, 0x99, 0x24, 0x6A, 0x01, 0x99, 0x2A, 0x00, 0x00, 0x99, 0x24, 0x00, 0x81, 0x1F, 0x99, 0x2A, 0x32, 0x01, 0x99, 0x2A, 0x00, 0x81, 0x1F, 0x99, 0x2A, 0x32, 0x00, 0x99, 0x24, 0x6A, 0x01, 0x99, 0x2A, 0x00, 0x00, 0x99, 0x24, 0x00, 0x81, 0x01, 0x97, 0x4C, 0x00, 0x00, 0x97, 0x54, 0x00, 0x1E, 0x97, 0x4F, 0x63, 0x00, 0x97, 0x58, 0x7F, 0x00, 
	0x99, 0x2A, 0x4E, 0x00, 0x99, 0x28, 0x6A, 0x01, 0x99, 0x2A, 0x00, 0x00, 0x99, 0x28, 0x00, 0x81, 0x1F, 0x99, 0x2A, 0x32, 0x01, 0x99, 0x2A, 0x00, 0x81, 0x0B, 0x91, 0x24, 0x00, 0x00, 0x92, 0x43, 0x00, 0x00, 0x92, 0x48, 0x00, 0x00, 0x92, 0x4C, 0x00, 0x00, 0x97, 0x4F, 0x00, 0x00, 0x97, 0x58, 0x00, 0x14, 0x91, 0x24, 0x79, 0x00, 0x92, 0x45, 0x76, 0x00, 0x92, 0x48, 0x76, 0x00, 0x92, 0x4D, 
	0x76, 0x00, 0x97, 0x51, 0x63, 0x00, 0x97, 0x59, 0x7F, 0x00, 0x99, 0x2A, 0x32, 0x00, 0x99, 0x24, 0x4E, 0x01, 0x99, 0x2A, 0x00, 0x00, 0x99, 0x24, 0x00, 0x81, 0x0B, 0x93, 0x48, 0x00, 0x06, 0x91, 0x24, 0x00, 0x00, 0x92, 0x45, 0x00, 0x00, 0x92, 0x48, 0x00, 0x00, 0x92, 0x4D, 0x00, 0x0E, 0xB3, 0x20, 0x40, 0x00, 0xC3, 0x3E, 0x00, 0x99, 0x2A, 0x4E, 0x01, 0x99, 0x2A, 0x00, 0x81, 0x1F, 0x99, 
	0x2A, 0x32, 0x01, 0x99, 0x2A, 0x00, 0x81, 0x0B, 0x94, 0x48, 0x00, 0x00, 0x97, 0x51, 0x00, 0x00, 0x97, 0x59, 0x00, 0x14, 0x91, 0x24, 0x79, 0x00, 0x92, 0x43, 0x76, 0x00, 0x92, 0x47, 0x76, 0x00, 0x92, 0x4A, 0x76, 0x00, 0xB4, 0x20, 0x40, 0x00, 0xC4, 0x3E, 0x00, 0x97, 0x4D, 0x63, 0x00, 0x97, 0x56, 0x7F, 0x00, 0x99, 0x2A, 0x32, 0x00, 0x99, 0x24, 0x4E, 0x01, 0x99, 0x2A, 0x00, 0x00, 0x99, 
	0x24, 0x00, 0x81, 0x11, 0x91, 0x24, 0x00, 0x00, 0x92, 0x43, 0x00, 0x00, 0x92, 0x47, 0x00, 0x00, 0x92, 0x4A, 0x00, 0x0E, 0x99, 0x2A, 0x4E, 0x00, 0x99, 0x28, 0x6A, 0x01, 0x99, 0x2A, 0x00, 0x00, 0x99, 0x28, 0x00, 0x81, 0x1F, 0x99, 0x2A, 0x32, 0x01, 0x99, 0x2A, 0x00, 0x81, 0x0B, 0x97, 0x4D, 0x00, 0x00, 0x97, 0x56, 0x00, 0x14, 0x91, 0x24, 0x79, 0x00, 0x92, 0x43, 0x76, 0x00, 0x92, 0x48, 
	0x76, 0x00, 0x92, 0x4C, 0x76, 0x00, 0x97, 0x4F, 0x63, 0x00, 0x97, 0x58, 0x7F, 0x00, 0x99, 0x2A, 0x32, 0x00, 0x99, 0x24, 0x4E, 0x01, 0x99, 0x2A, 0x00, 0x00, 0x99, 0x24, 0x00, 0x81, 0x11, 0x91, 0x24, 0x00, 0x00, 0x92, 0x43, 0x00, 0x00, 0x92, 0x48, 0x00, 0x00, 0x92, 0x4C, 0x00, 0x00, 0x97, 0x4F, 0x00, 0x00, 0x97, 0x58, 0x00, 0x0E, 0x91, 0x24, 0x79, 0x00, 0x92, 0x43, 0x76, 0x00, 0x92, 
	0x48, 0x76, 0x00, 0x92, 0x4C, 0x76, 0x00, 0x97, 0x4F, 0x63, 0x00, 0x97, 0x58, 0x7F, 0x00, 0x99, 0x2A, 0x4E, 0x00, 0x99, 0x24, 0x6A, 0x01, 0x99, 0x2A, 0x00, 0x00, 0x99, 0x24, 0x00, 0x81, 0x1F, 0x99, 0x2A, 0x32, 0x01, 0x99, 0x2A, 0x00, 0x81, 0x1F, 0x99, 0x2A, 0x32, 0x01, 0x99, 0x2A, 0x00, 0x81, 0x01, 0x91, 0x24, 0x00, 0x1E, 0x91, 0x24, 0x79, 0x00, 0x99, 0x28, 0x6A, 0x01, 0x99, 0x28, 
	0x00, 0x81, 0x1F, 0x93, 0x45, 0x7F, 0x00, 0x99, 0x2D, 0x6A, 0x01, 0x99, 0x2D, 0x00, 0x81, 0x11, 0x93, 0x45, 0x00, 0x0E, 0x93, 0x47, 0x7F, 0x00, 0x99, 0x29, 0x6A, 0x01, 0x99, 0x29, 0x00, 0x77, 0x92, 0x43, 0x00, 0x00, 0x92, 0x48, 0x00, 0x00, 0x92, 0x4C, 0x00, 0x00, 0x97, 0x4F, 0x00, 0x00, 0x97, 0x58, 0x00, 0x0A, 0x91, 0x24, 0x00, 0x0A, 0x95, 0x48, 0x00, 0x00, 0x95, 0x54, 0x00, 0x00, 
	0x96, 0x43, 0x00, 0x00, 0x96, 0x48, 0x00, 0x00, 0x96, 0x4C, 0x00, 0x06, 0x93, 0x47, 0x00, 0x0E, 0x91, 0x29, 0x79, 0x00, 0x92, 0x45, 0x76, 0x00, 0x92, 0x48, 0x76, 0x00, 0x92, 0x4C, 0x76, 0x00, 0x93, 0x48, 0x7F, 0x00, 0x94, 0x45, 0x7F, 0x00, 0x95, 0x48, 0x63, 0x00, 0x95, 0x54, 0x79, 0x00, 0x96, 0x45, 0x6F, 0x00, 0x96, 0x48, 0x6F, 0x00, 0x96, 0x4C, 0x6F, 0x00, 0x99, 0x31, 0x4E, 0x00, 
	0x99, 0x2A, 0x4E, 0x00, 0x99, 0x24, 0x6A, 0x01, 0x99, 0x31, 0x00, 0x00, 0x99, 0x2A, 0x00, 0x00, 0x99, 0x24, 0x00, 0x81, 0x11, 0x94, 0x45, 0x00, 0x0E, 0x94, 0x47, 0x7F, 0x00, 0x99, 0x2A, 0x32, 0x01, 0x99, 0x2A, 0x00, 0x4F, 0x91, 0x29, 0x00, 0x00, 0x92, 0x45, 0x00, 0x00, 0x92, 0x48, 0x00, 0x00, 0x92, 0x4C, 0x00, 0x42, 0x94, 0x47, 0x00, 0x0E, 0x94, 0x48, 0x7F, 0x00, 0x99, 0x2A, 0x32, 
	0x01, 0x99, 0x2A, 0x00, 0x81, 0x1F, 0x91, 0x29, 0x79, 0x00, 0x92, 0x45, 0x76, 0x00, 0x92, 0x48, 0x76, 0x00, 0x92, 0x4C, 0x76, 0x00, 0x99, 0x2A, 0x4E, 0x00, 0x99, 0x28, 0x6A, 0x01, 0x99, 0x2A, 0x00, 0x00, 0x99, 0x28, 0x00, 0x81, 0x1F, 0x99, 0x2A, 0x32, 0x01, 0x99, 0x2A, 0x00, 0x4F, 0x91, 0x29, 0x00, 0x00, 0x92, 0x45, 0x00, 0x00, 0x92, 0x48, 0x00, 0x00, 0x92, 0x4C, 0x00, 0x50, 0x99, 
	0x2A, 0x32, 0x00, 0x99, 0x24, 0x4E, 0x01, 0x99, 0x2A, 0x00, 0x00, 0x99, 0x24, 0x00, 0x81, 0x1F, 0x91, 0x29, 0x79, 0x00, 0x92, 0x45, 0x76, 0x00, 0x92, 0x48, 0x76, 0x00, 0x92, 0x4C, 0x76, 0x00, 0x99, 0x2A, 0x4E, 0x00, 0x99, 0x24, 0x6A, 0x01, 0x99, 0x2A, 0x00, 0x00, 0x99, 0x24, 0x00, 0x81, 0x1F, 0x99, 0x2A, 0x32, 0x01, 0x99, 0x2A, 0x00, 0x4F, 0x91, 0x29, 0x00, 0x00, 0x92, 0x45, 0x00, 
	0x00, 0x92, 0x48, 0x00, 0x00, 0x92, 0x4C, 0x00, 0x50, 0x99, 0x2A, 0x32, 0x01, 0x99, 0x2A, 0x00, 0x81, 0x0B, 0x93, 0x48, 0x00, 0x14, 0x91, 0x29, 0x79, 0x00, 0x92, 0x45, 0x76, 0x00, 0x92, 0x48, 0x76, 0x00, 0x92, 0x4C, 0x76, 0x00, 0x93, 0x4A, 0x7F, 0x00, 0x99, 0x2A, 0x4E, 0x00, 0x99, 0x28, 0x6A, 0x01, 0x99, 0x2A, 0x00, 0x00, 0x99, 0x28, 0x00, 0x81, 0x1F, 0x99, 0x2A, 0x32, 0x01, 0x99, 
	0x2A, 0x00, 0x4F, 0x91, 0x29, 0x00, 0x00, 0x92, 0x45, 0x00, 0x00, 0x92, 0x48, 0x00, 0x00, 0x92, 0x4C, 0x00, 0x3C, 0x93, 0x4A, 0x00, 0x00, 0x94, 0x48, 0x00, 0x14, 0x93, 0x47, 0x7F, 0x00, 0x94, 0x4A, 0x7F, 0x00, 0x99, 0x2A, 0x32, 0x01, 0x99, 0x2A, 0x00, 0x81, 0x0B, 0x95, 0x48, 0x00, 0x00, 0x95, 0x54, 0x00, 0x00, 0x96, 0x45, 0x00, 0x00, 0x96, 0x48, 0x00, 0x00, 0x96, 0x4C, 0x00, 0x14, 
	0x91, 0x2B, 0x79, 0x00, 0x92, 0x43, 0x76, 0x00, 0x92, 0x47, 0x76, 0x00, 0x92, 0x4A, 0x76, 0x00, 0x95, 0x4A, 0x63, 0x00, 0x95, 0x56, 0x79, 0x00, 0x96, 0x43, 0x6F, 0x00, 0x96, 0x47, 0x6F, 0x00, 0x96, 0x4A, 0x6F, 0x00, 0x99, 0x24, 0x6A, 0x00, 0x99, 0x2A, 0x4E, 0x01, 0x99, 0x24, 0x00, 0x00, 0x99, 0x2A, 0x00, 0x81, 0x0B, 0x94, 0x4A, 0x00, 0x14, 0x94, 0x47, 0x7F, 0x00, 0x99, 0x2A, 0x32, 
	0x01, 0x99, 0x2A, 0x00, 0x4F, 0x91, 0x2B, 0x00, 0x00, 0x92, 0x43, 0x00, 0x00, 0x92, 0x47, 0x00, 0x00, 0x92, 0x4A, 0x00, 0x50, 0x99, 0x2A, 0x32, 0x01, 0x99, 0x2A, 0x00, 0x81, 0x1F, 0x91, 0x2B, 0x79, 0x00, 0x92, 0x43, 0x76, 0x00, 0x92, 0x47, 0x76, 0x00, 0x92, 0x4A, 0x76, 0x00, 0x99, 0x2A, 0x4E, 0x00, 0x99, 0x28, 0x6A, 0x01, 0x99, 0x2A, 0x00, 0x00, 0x99, 0x28, 0x00, 0x81, 0x1F, 0x99, 
	0x2A, 0x32, 0x01, 0x99, 0x2A, 0x00, 0x4F, 0x91, 0x2B, 0x00, 0x00, 0x92, 0x43, 0x00, 0x00, 0x92, 0x47, 0x00, 0x00, 0x92, 0x4A, 0x00, 0x3C, 0x93, 0x47, 0x00, 0x14, 0x93, 0x45, 0x7F, 0x00, 0x99, 0x2A, 0x32, 0x00, 0x99, 0x24, 0x4E, 0x01, 0x99, 0x2A, 0x00, 0x00, 0x99, 0x24, 0x00, 0x81, 0x11, 0x93, 0x45, 0x00, 0x0E, 0x91, 0x2B, 0x79, 0x00, 0x92, 0x43, 0x76, 0x00, 0x92, 0x47, 0x76, 0x00, 
	0x92, 0x4A, 0x76, 0x00, 0x93, 0x43, 0x7F, 0x00, 0x99, 0x2A, 0x4E, 0x00, 0x99, 0x24, 0x6A, 0x01, 0x99, 0x2A, 0x00, 0x00, 0x99, 0x24, 0x00, 0x81, 0x0B, 0x94, 0x47, 0x00, 0x14, 0x94, 0x45, 0x7F, 0x00, 0x99, 0x2A, 0x32, 0x01, 0x99, 0x2A, 0x00, 0x4F, 0x91, 0x2B, 0x00, 0x00, 0x92, 0x43, 0x00, 0x00, 0x92, 0x47, 0x00, 0x00, 0x92, 0x4A, 0x00, 0x3C, 0x93, 0x43, 0x00, 0x06, 0x94, 0x45, 0x00, 
	0x0E, 0x93, 0x45, 0x7F, 0x00, 0x94, 0x43, 0x7F, 0x00, 0x99, 0x2A, 0x32, 0x01, 0x99, 0x2A, 0x00, 0x81, 0x1F, 0x91, 0x2B, 0x79, 0x00, 0x92, 0x43, 0x76, 0x00, 0x92, 0x47, 0x76, 0x00, 0x92, 0x4A, 0x76, 0x00, 0x99, 0x2A, 0x4E, 0x00, 0x99, 0x28, 0x6A, 0x01, 0x99, 0x2A, 0x00, 0x00, 0x99, 0x28, 0x00, 0x81, 0x0B, 0x94, 0x43, 0x00, 0x14, 0x94, 0x45, 0x7F, 0x00, 0x99, 0x2A, 0x32, 0x01, 0x99, 
	0x2A, 0x00, 0x4F, 0x91, 0x2B, 0x00, 0x00, 0x92, 0x43, 0x00, 0x00, 0x92, 0x47, 0x00, 0x00, 0x92, 0x4A, 0x00, 0x3C, 0x93, 0x45, 0x00, 0x14, 0x93, 0x4C, 0x7F, 0x00, 0x99, 0x2A, 0x32, 0x01, 0x99, 0x2A, 0x00, 0x81, 0x0B, 0x95, 0x4A, 0x00, 0x00, 0x95, 0x56, 0x00, 0x00, 0x96, 0x43, 0x00, 0x00, 0x96, 0x47, 0x00, 0x00, 0x96, 0x4A, 0x00, 0x14, 0x91, 0x2D, 0x79, 0x00, 0x92, 0x45, 0x76, 0x00, 
	0x92, 0x48, 0x76, 0x00, 0x92, 0x4C, 0x76, 0x00, 0x95, 0x4C, 0x63, 0x00, 0x95, 0x58, 0x79, 0x00, 0x96, 0x45, 0x6F, 0x00, 0x96, 0x48, 0x6F, 0x00, 0x96, 0x4C, 0x6F, 0x00, 0x99, 0x2A, 0x4E, 0x00, 0x99, 0x24, 0x6A, 0x01, 0x99, 0x2A, 0x00, 0x00, 0x99, 0x24, 0x00, 0x81, 0x0B, 0x94, 0x45, 0x00, 0x14, 0x94, 0x4C, 0x7F, 0x00, 0x99, 0x2A, 0x32, 0x01, 0x99, 0x2A, 0x00, 0x4F, 0x91, 0x2D, 0x00, 
	0x00, 0x92, 0x45, 0x00, 0x00, 0x92, 0x48, 0x00, 0x00, 0x92, 0x4C, 0x00, 0x50, 0x99, 0x2A, 0x32, 0x01, 0x99, 0x2A, 0x00, 0x81, 0x01, 0x93, 0x4C, 0x00, 0x1E, 0x91, 0x2D, 0x79, 0x00, 0x92, 0x45, 0x76, 0x00, 0x92, 0x48, 0x76, 0x00, 0x92, 0x4C, 0x76, 0x00, 0x93, 0x51, 0x7F, 0x00, 0x99, 0x2A, 0x4E, 0x00, 0x99, 0x28, 0x6A, 0x01, 0x99, 0x2A, 0x00, 0x00, 0x99, 0x28, 0x00, 0x81, 0x1F, 0x99, 
	0x2A, 0x32, 0x01, 0x99, 0x2A, 0x00, 0x4F, 0x91, 0x2D, 0x00, 0x00, 0x92, 0x45, 0x00, 0x00, 0x92, 0x48, 0x00, 0x00, 0x92, 0x4C, 0x00, 0x32, 0x94, 0x4C, 0x00, 0x1E, 0x94, 0x51, 0x7F, 0x00, 0x99, 0x2A, 0x32, 0x00, 0x99, 0x24, 0x4E, 0x01, 0x99, 0x2A, 0x00, 0x00, 0x99, 0x24, 0x00, 0x77, 0x96, 0x45, 0x00, 0x00, 0x96, 0x48, 0x00, 0x00, 0x96, 0x4C, 0x00, 0x0A, 0x93, 0x51, 0x00, 0x1E, 0x91, 
	0x2B, 0x79, 0x00, 0x92, 0x43, 0x76, 0x00, 0x92, 0x47, 0x76, 0x00, 0x92, 0x4A, 0x76, 0x00, 0x93, 0x4C, 0x7F, 0x00, 0x96, 0x43, 0x6F, 0x00, 0x96, 0x47, 0x6F, 0x00, 0x96, 0x4A, 0x6F, 0x00, 0x99, 0x2A, 0x4E, 0x00, 0x99, 0x24, 0x6A, 0x01, 0x99, 0x2A, 0x00, 0x00, 0x99, 0x24, 0x00, 0x81, 0x1F, 0x99, 0x2A, 0x32, 0x01, 0x99, 0x2A, 0x00, 0x4F, 0x91, 0x2B, 0x00, 0x00, 0x92, 0x43, 0x00, 0x00, 
	0x92, 0x47, 0x00, 0x00, 0x92, 0x4A, 0x00, 0x32, 0x94, 0x51, 0x00, 0x1E, 0x94, 0x4C, 0x7F, 0x00, 0x99, 0x2A, 0x32, 0x01, 0x99, 0x2A, 0x00, 0x81, 0x01, 0x93, 0x4C, 0x00, 0x1E, 0x91, 0x2B, 0x79, 0x00, 0x92, 0x43, 0x76, 0x00, 0x92, 0x47, 0x76, 0x00, 0x92, 0x4A, 0x76, 0x00, 0x93, 0x4A, 0x7F, 0x00, 0x99, 0x2A, 0x4E, 0x00, 0x99, 0x28, 0x6A, 0x01, 0x99, 0x2A, 0x00, 0x00, 0x99, 0x28, 0x00, 
	0x81, 0x1F, 0x99, 0x2A, 0x32, 0x01, 0x99, 0x2A, 0x00, 0x4F, 0x91, 0x2B, 0x00, 0x00, 0x92, 0x43, 0x00, 0x00, 0x92, 0x47, 0x00, 0x00, 0x92, 0x4A, 0x00, 0x32, 0x94, 0x4C, 0x00, 0x0A, 0x93, 0x4A, 0x00, 0x14, 0x93, 0x4A, 0x7F, 0x00, 0x94, 0x4A, 0x7F, 0x00, 0x99, 0x2A, 0x32, 0x01, 0x99, 0x2A, 0x00, 0x77, 0x96, 0x43, 0x00, 0x00, 0x96, 0x47, 0x00, 0x00, 0x96, 0x4A, 0x00, 0x28, 0x91, 0x29, 
	0x79, 0x00, 0x92, 0x45, 0x76, 0x00, 0x92, 0x48, 0x76, 0x00, 0x92, 0x4C, 0x76, 0x00, 0x96, 0x45, 0x6F, 0x00, 0x96, 0x48, 0x6F, 0x00, 0x96, 0x4C, 0x6F, 0x00, 0x99, 0x24, 0x6A, 0x00, 0x99, 0x2A, 0x4E, 0x01, 0x99, 0x24, 0x00, 0x00, 0x99, 0x2A, 0x00, 0x81, 0x0B, 0x94, 0x4A, 0x00, 0x14, 0x94, 0x4A, 0x7F, 0x00, 0x99, 0x2A, 0x32, 0x01, 0x99, 0x2A, 0x00, 0x4F, 0x91, 0x29, 0x00, 0x00, 0x92, 
	0x45, 0x00, 0x00, 0x92, 0x48, 0x00, 0x00, 0x92, 0x4C, 0x00, 0x3C, 0x93, 0x4A, 0x00, 0x14, 0x93, 0x4C, 0x7F, 0x00, 0x99, 0x2A, 0x32, 0x01, 0x99, 0x2A, 0x00, 0x81, 0x11, 0x93, 0x4C, 0x00, 0x0E, 0x91, 0x29, 0x79, 0x00, 0x92, 0x45, 0x76, 0x00, 0x92, 0x48, 0x76, 0x00, 0x92, 0x4C, 0x76, 0x00, 0x93, 0x48, 0x7F, 0x00, 0x99, 0x2A, 0x4E, 0x00, 0x99, 0x28, 0x6A, 0x01, 0x99, 0x2A, 0x00, 0x00, 
	0x99, 0x28, 0x00, 0x81, 0x0B, 0x94, 0x4A, 0x00, 0x14, 0x94, 0x4C, 0x7F, 0x00, 0x99, 0x2A, 0x32, 0x01, 0x99, 0x2A, 0x00, 0x4F, 0x91, 0x29, 0x00, 0x00, 0x92, 0x45, 0x00, 0x00, 0x92, 0x48, 0x00, 0x00, 0x92, 0x4C, 0x00, 0x42, 0x94, 0x4C, 0x00, 0x0E, 0x94, 0x48, 0x7F, 0x00, 0x99, 0x2A, 0x32, 0x00, 0x99, 0x24, 0x4E, 0x01, 0x99, 0x2A, 0x00, 0x00, 0x99, 0x24, 0x00, 0x81, 0x1F, 0x91, 0x29, 
	0x79, 0x00, 0x92, 0x45, 0x76, 0x00, 0x92, 0x48, 0x76, 0x00, 0x92, 0x4C, 0x76, 0x00, 0x99, 0x2A, 0x4E, 0x00, 0x99, 0x24, 0x6A, 0x01, 0x99, 0x2A, 0x00, 0x00, 0x99, 0x24, 0x00, 0x81, 0x1F, 0x99, 0x2A, 0x32, 0x01, 0x99, 0x2A, 0x00, 0x4F, 0x91, 0x29, 0x00, 0x00, 0x92, 0x45, 0x00, 0x00, 0x92, 0x48, 0x00, 0x00, 0x92, 0x4C, 0x00, 0x50, 0x99, 0x2A, 0x32, 0x01, 0x99, 0x2A, 0x00, 0x77, 0x93, 
	0x48, 0x00, 0x28, 0x91, 0x29, 0x79, 0x00, 0x92, 0x45, 0x76, 0x00, 0x92, 0x48, 0x76, 0x00, 0x92, 0x4C, 0x76, 0x00, 0x99, 0x2E, 0x4E, 0x00, 0x99, 0x28, 0x6A, 0x01, 0x99, 0x2E, 0x00, 0x00, 0x99, 0x28, 0x00, 0x81, 0x1F, 0x93, 0x48, 0x7F, 0x00, 0x99, 0x2A, 0x4E, 0x01, 0x99, 0x2A, 0x00, 0x4F, 0x91, 0x29, 0x00, 0x00, 0x92, 0x45, 0x00, 0x00, 0x92, 0x48, 0x00, 0x00, 0x92, 0x4C, 0x00, 0x28, 
	0x94, 0x48, 0x00, 0x1A, 0x93, 0x48, 0x00, 0x0E, 0x93, 0x4A, 0x7F, 0x00, 0x99, 0x2A, 0x32, 0x01, 0x99, 0x2A, 0x00, 0x81, 0x0B, 0x95, 0x4C, 0x00, 0x00, 0x95, 0x58, 0x00, 0x00, 0x96, 0x45, 0x00, 0x00, 0x96, 0x48, 0x00, 0x00, 0x96, 0x4C, 0x00, 0x06, 0x93, 0x4A, 0x00, 0x0E, 0x91, 0x26, 0x79, 0x00, 0x92, 0x45, 0x76, 0x00, 0x92, 0x48, 0x76, 0x00, 0x92, 0x4D, 0x76, 0x00, 0x93, 0x4F, 0x7F, 
	0x00, 0x94, 0x48, 0x7F, 0x00, 0x95, 0x4D, 0x63, 0x00, 0x95, 0x59, 0x79, 0x00, 0x96, 0x45, 0x6F, 0x00, 0x96, 0x48, 0x6F, 0x00, 0x96, 0x4D, 0x6F, 0x00, 0x99, 0x30, 0x6A, 0x01, 0x99, 0x30, 0x00, 0x81, 0x11, 0x94, 0x48, 0x00, 0x0E, 0x94, 0x4A, 0x7F, 0x28, 0x92, 0x45, 0x00, 0x00, 0x92, 0x48, 0x00, 0x00, 0x92, 0x4D, 0x00, 0x64, 0x91, 0x26, 0x00, 0x00, 0x93, 0x4F, 0x00, 0x06, 0x94, 0x4A, 
	0x00, 0x0E, 0x91, 0x26, 0x79, 0x00, 0x92, 0x45, 0x76, 0x00, 0x92, 0x48, 0x76, 0x00, 0x92, 0x4D, 0x76, 0x00, 0x93, 0x4D, 0x7F, 0x00, 0x94, 0x4F, 0x7F, 0x00, 0x99, 0x30, 0x6A, 0x01, 0x99, 0x30, 0x00, 0x81, 0x47, 0x92, 0x45, 0x00, 0x00, 0x92, 0x48, 0x00, 0x00, 0x92, 0x4D, 0x00, 0x64, 0x91, 0x26, 0x00, 0x00, 0x93, 0x4D, 0x00, 0x00, 0x94, 0x4F, 0x00, 0x14, 0x91, 0x26, 0x79, 0x00, 0x92, 
	0x45, 0x76, 0x00, 0x92, 0x48, 0x76, 0x00, 0x92, 0x4D, 0x76, 0x00, 0x93, 0x4C, 0x7F, 0x00, 0x94, 0x4D, 0x7F, 0x00, 0x99, 0x2D, 0x6A, 0x01, 0x99, 0x2D, 0x00, 0x81, 0x47, 0x92, 0x45, 0x00, 0x00, 0x92, 0x48, 0x00, 0x00, 0x92, 0x4D, 0x00, 0x64, 0x91, 0x26, 0x00, 0x00, 0x93, 0x4C, 0x00, 0x00, 0x94, 0x4D, 0x00, 0x14, 0x91, 0x26, 0x79, 0x00, 0x92, 0x45, 0x76, 0x00, 0x92, 0x48, 0x76, 0x00, 
	0x92, 0x4D, 0x76, 0x00, 0x93, 0x4C, 0x7F, 0x00, 0x94, 0x4C, 0x7F, 0x00, 0x99, 0x29, 0x6A, 0x01, 0x99, 0x29, 0x00, 0x82, 0x2B, 0x91, 0x26, 0x00, 0x00, 0x92, 0x45, 0x00, 0x00, 0x92, 0x48, 0x00, 0x00, 0x92, 0x4D, 0x00, 0x00, 0x93, 0x4C, 0x00, 0x00, 0x94, 0x4C, 0x00, 0x14, 0x91, 0x26, 0x79, 0x00, 0x92, 0x45, 0x76, 0x00, 0x92, 0x48, 0x76, 0x00, 0x92, 0x4C, 0x76, 0x00, 0x93, 0x48, 0x7F, 
	0x00, 0x94, 0x4C, 0x7F, 0x00, 0x99, 0x28, 0x5C, 0x01, 0x99, 0x28, 0x00, 0x81, 0x11, 0x91, 0x26, 0x00, 0x00, 0x92, 0x45, 0x00, 0x00, 0x92, 0x48, 0x00, 0x00, 0x92, 0x4C, 0x00, 0x00, 0x93, 0x48, 0x00, 0x0E, 0x91, 0x26, 0x79, 0x00, 0x92, 0x45, 0x76, 0x00, 0x92, 0x48, 0x76, 0x00, 0x92, 0x4D, 0x76, 0x00, 0x93, 0x45, 0x7F, 0x00, 0x99, 0x28, 0x6A, 0x01, 0x99, 0x28, 0x00, 0x81, 0x0B, 0x94, 
	0x4C, 0x00, 0x14, 0x94, 0x48, 0x7F, 0x81, 0x0C, 0x91, 0x26, 0x00, 0x00, 0x92, 0x45, 0x00, 0x00, 0x92, 0x48, 0x00, 0x00, 0x92, 0x4D, 0x00, 0x00, 0x93, 0x45, 0x00, 0x00, 0x95, 0x4D, 0x00, 0x00, 0x95, 0x59, 0x00, 0x06, 0x94, 0x48, 0x00, 0x0E, 0x91, 0x2B, 0x79, 0x00, 0x92, 0x47, 0x76, 0x00, 0x92, 0x4A, 0x76, 0x00, 0x92, 0x4F, 0x76, 0x00, 0x93, 0x4A, 0x7F, 0x00, 0x94, 0x45, 0x7F, 0x00, 
	0x95, 0x4F, 0x63, 0x00, 0x95, 0x5B, 0x79, 0x00, 0x99, 0x31, 0x4E, 0x00, 0x99, 0x24, 0x6A, 0x01, 0x99, 0x31, 0x00, 0x00, 0x99, 0x24, 0x00, 0x27, 0x96, 0x45, 0x00, 0x00, 0x96, 0x48, 0x00, 0x00, 0x96, 0x4D, 0x00, 0x6A, 0x91, 0x2B, 0x00, 0x00, 0x92, 0x47, 0x00, 0x00, 0x92, 0x4A, 0x00, 0x00, 0x92, 0x4F, 0x00, 0x00, 0x95, 0x4F, 0x00, 0x00, 0x95, 0x5B, 0x00, 0x81, 0x1A, 0x94, 0x45, 0x00, 
	0x14, 0x94, 0x4A, 0x7F, 0x82, 0x40, 0x91, 0x1F, 0x79, 0x00, 0x92, 0x3B, 0x76, 0x00, 0x92, 0x3E, 0x76, 0x00, 0x92, 0x43, 0x76, 0x00, 0x99, 0x24, 0x6A, 0x01, 0x99, 0x24, 0x00, 0x82, 0x2B, 0x93, 0x4A, 0x00, 0x14, 0x93, 0x4C, 0x7F, 0x81, 0x20, 0x99, 0x24, 0x6A, 0x01, 0x99, 0x24, 0x00, 0x81, 0x0B, 0x94, 0x4A, 0x00, 0x14, 0x94, 0x4C, 0x7F, 0x81, 0x20, 0x99, 0x28, 0x6A, 0x01, 0x99, 0x28, 
	0x00, 0x81, 0x11, 0x93, 0x4C, 0x00, 0x0E, 0x93, 0x4F, 0x7F, 0x00, 0x99, 0x2D, 0x5C, 0x01, 0x99, 0x2D, 0x00, 0x81, 0x1F, 0x99, 0x29, 0x5C, 0x01, 0x99, 0x29, 0x00, 0x81, 0x11, 0x94, 0x4C, 0x00, 0x0E, 0x94, 0x4F, 0x7F, 0x00, 0x99, 0x28, 0x6A, 0x01, 0x99, 0x28, 0x00, 0x81, 0x01, 0x93, 0x4F, 0x00, 0x0A, 0x91, 0x1F, 0x00, 0x00, 0x92, 0x3B, 0x00, 0x00, 0x92, 0x3E, 0x00, 0x00, 0x92, 0x43, 
	0x00, 0x14, 0x91, 0x24, 0x79, 0x00, 0x92, 0x43, 0x76, 0x00, 0x92, 0x48, 0x76, 0x00, 0x92, 0x4C, 0x76, 0x00, 0x93, 0x4A, 0x7F, 0x00, 0x95, 0x48, 0x63, 0x00, 0x95, 0x54, 0x79, 0x00, 0x96, 0x40, 0x6F, 0x00, 0x96, 0x43, 0x6F, 0x00, 0x96, 0x48, 0x6F, 0x00, 0x99, 0x31, 0x4E, 0x00, 0x99, 0x24, 0x6A, 0x01, 0x99, 0x31, 0x00, 0x00, 0x99, 0x24, 0x00, 0x81, 0x6F, 0x92, 0x43, 0x00, 0x00, 0x92, 
	0x48, 0x00, 0x00, 0x92, 0x4C, 0x00, 0x32, 0x94, 0x4F, 0x00, 0x0A, 0x91, 0x24, 0x00, 0x14, 0x94, 0x4A, 0x7F, 0x81, 0x20, 0x91, 0x24, 0x79, 0x00, 0x92, 0x43, 0x76, 0x00, 0x92, 0x48, 0x76, 0x00, 0x92, 0x4C, 0x76, 0x00, 0x99, 0x2A, 0x4E, 0x00, 0x99, 0x28, 0x6A, 0x01, 0x99, 0x2A, 0x00, 0x00, 0x99, 0x28, 0x00, 0x81, 0x1F, 0x99, 0x2A, 0x32, 0x01, 0x99, 0x2A, 0x00, 0x4F, 0x92, 0x43, 0x00, 
	0x00, 0x92, 0x48, 0x00, 0x00, 0x92, 0x4C, 0x00, 0x3C, 0x91, 0x24, 0x00, 0x00, 0x93, 0x4A, 0x00, 0x14, 0x93, 0x48, 0x7F, 0x00, 0x99, 0x2A, 0x32, 0x00, 0x99, 0x24, 0x4E, 0x01, 0x99, 0x2A, 0x00, 0x00, 0x99, 0x24, 0x00, 0x81, 0x1F, 0x91, 0x24, 0x79, 0x00, 0x92, 0x43, 0x76, 0x00, 0x92, 0x48, 0x76, 0x00, 0x92, 0x4C, 0x76, 0x00, 0x99, 0x2A, 0x4E, 0x00, 0x99, 0x24, 0x6A, 0x01, 0x99, 0x2A, 
	0x00, 0x00, 0x99, 0x24, 0x00, 0x81, 0x0B, 0x94, 0x4A, 0x00, 0x14, 0x94, 0x48, 0x7F, 0x00, 0x99, 0x2A, 0x32, 0x01, 0x99, 0x2A, 0x00, 0x4F, 0x92, 0x43, 0x00, 0x00, 0x92, 0x48, 0x00, 0x00, 0x92, 0x4C, 0x00, 0x50, 0x99, 0x2A, 0x32, 0x00, 0x99, 0x24, 0x6A, 0x01, 0x99, 0x2A, 0x00, 0x00, 0x99, 0x24, 0x00, 0x81, 0x1F, 0x92, 0x43, 0x76, 0x00, 0x92, 0x48, 0x76, 0x00, 0x92, 0x4C, 0x76, 0x00, 
	0x99, 0x2A, 0x4E, 0x00, 0x99, 0x28, 0x6A, 0x01, 0x99, 0x2A, 0x00, 0x00, 0x99, 0x28, 0x00, 0x81, 0x1F, 0x99, 0x2A, 0x32, 0x01, 0x99, 0x2A, 0x00, 0x4F, 0x92, 0x43, 0x00, 0x00, 0x92, 0x48, 0x00, 0x00, 0x92, 0x4C, 0x00, 0x3C, 0x91, 0x24, 0x00, 0x14, 0x91, 0x29, 0x79, 0x00, 0x99, 0x2A, 0x32, 0x00, 0x99, 0x24, 0x4E, 0x01, 0x99, 0x2A, 0x00, 0x00, 0x99, 0x24, 0x00, 0x77, 0x93, 0x48, 0x00, 
	0x14, 0x96, 0x40, 0x00, 0x00, 0x96, 0x43, 0x00, 0x00, 0x96, 0x48, 0x00, 0x06, 0x91, 0x29, 0x00, 0x0E, 0x92, 0x41, 0x76, 0x00, 0x92, 0x44, 0x76, 0x00, 0x92, 0x48, 0x76, 0x00, 0x93, 0x4A, 0x7F, 0x00, 0x96, 0x41, 0x6F, 0x00, 0x96, 0x44, 0x6F, 0x00, 0x96, 0x48, 0x6F, 0x00, 0x99, 0x2A, 0x4E, 0x01, 0x99, 0x2A, 0x00, 0x81, 0x1F, 0x99, 0x2A, 0x32, 0x01, 0x99, 0x2A, 0x00, 0x4F, 0x92, 0x41, 
	0x00, 0x00, 0x92, 0x44, 0x00, 0x00, 0x92, 0x48, 0x00, 0x28, 0x94, 0x48, 0x00, 0x28, 0x91, 0x29, 0x79, 0x00, 0x94, 0x4A, 0x7F, 0x00, 0x99, 0x2A, 0x32, 0x00, 0x99, 0x24, 0x4E, 0x01, 0x99, 0x2A, 0x00, 0x00, 0x99, 0x24, 0x00, 0x81, 0x11, 0x91, 0x29, 0x00, 0x0E, 0x92, 0x41, 0x76, 0x00, 0x92, 0x44, 0x76, 0x00, 0x92, 0x48, 0x76, 0x00, 0x99, 0x2A, 0x4E, 0x00, 0x99, 0x28, 0x6A, 0x01, 0x99, 
	0x2A, 0x00, 0x00, 0x99, 0x28, 0x00, 0x81, 0x1F, 0x99, 0x2A, 0x32, 0x01, 0x99, 0x2A, 0x00, 0x4F, 0x92, 0x41, 0x00, 0x00, 0x92, 0x44, 0x00, 0x00, 0x92, 0x48, 0x00, 0x3C, 0x93, 0x4A, 0x00, 0x14, 0x91, 0x29, 0x79, 0x00, 0x93, 0x4C, 0x7F, 0x00, 0x99, 0x2A, 0x32, 0x00, 0x99, 0x24, 0x4E, 0x01, 0x99, 0x2A, 0x00, 0x00, 0x99, 0x24, 0x00, 0x81, 0x11, 0x91, 0x29, 0x00, 0x0E, 0x91, 0x29, 0x79, 
	0x00, 0x92, 0x41, 0x76, 0x00, 0x92, 0x44, 0x76, 0x00, 0x92, 0x48, 0x76, 0x00, 0x99, 0x2A, 0x4E, 0x00, 0x99, 0x24, 0x6A, 0x01, 0x99, 0x2A, 0x00, 0x00, 0x99, 0x24, 0x00, 0x81, 0x0B, 0x94, 0x4A, 0x00, 0x14, 0x94, 0x4C, 0x7F, 0x00, 0x99, 0x2A, 0x32, 0x01, 0x99, 0x2A, 0x00, 0x4F, 0x92, 0x41, 0x00, 0x00, 0x92, 0x44, 0x00, 0x00, 0x92, 0x48, 0x00, 0x50, 0x99, 0x2A, 0x32, 0x01, 0x99, 0x2A, 
	0x00, 0x81, 0x01, 0x91, 0x29, 0x00, 0x10, 0x93, 0x4C, 0x00, 0x0E, 0x91, 0x29, 0x79, 0x00, 0x92, 0x41, 0x76, 0x00, 0x92, 0x44, 0x76, 0x00, 0x92, 0x48, 0x76, 0x00, 0x93, 0x4F, 0x7F, 0x00, 0x99, 0x2E, 0x4E, 0x00, 0x99, 0x28, 0x6A, 0x01, 0x99, 0x2E, 0x00, 0x00, 0x99, 0x28, 0x00, 0x81, 0x1F, 0x99, 0x2A, 0x4E, 0x01, 0x99, 0x2A, 0x00, 0x4F, 0x92, 0x41, 0x00, 0x00, 0x92, 0x44, 0x00, 0x00, 
	0x92, 0x48, 0x00, 0x42, 0x94, 0x4C, 0x00, 0x0E, 0x94, 0x4F, 0x7F, 0x00, 0x99, 0x2A, 0x32, 0x01, 0x99, 0x2A, 0x00, 0x81, 0x01, 0x91, 0x29, 0x00, 0x00, 0x93, 0x4F, 0x00, 0x0A, 0x96, 0x41, 0x00, 0x00, 0x96, 0x44, 0x00, 0x00, 0x96, 0x48, 0x00, 0x14, 0x91, 0x24, 0x79, 0x00, 0x92, 0x43, 0x76, 0x00, 0x92, 0x48, 0x76, 0x00, 0x92, 0x4C, 0x76, 0x00, 0x93, 0x4A, 0x7F, 0x00, 0x96, 0x40, 0x6F, 
	0x00, 0x96, 0x43, 0x6F, 0x00, 0x96, 0x48, 0x6F, 0x00, 0x99, 0x2A, 0x4E, 0x00, 0x99, 0x24, 0x6A, 0x01, 0x99, 0x2A, 0x00, 0x00, 0x99, 0x24, 0x00, 0x81, 0x1F, 0x99, 0x2A, 0x32, 0x01, 0x99, 0x2A, 0x00, 0x4F, 0x92, 0x43, 0x00, 0x00, 0x92, 0x48, 0x00, 0x00, 0x92, 0x4C, 0x00, 0x32, 0x94, 0x4F, 0x00, 0x0A, 0x91, 0x24, 0x00, 0x14, 0x94, 0x4A, 0x7F, 0x00, 0x99, 0x2A, 0x32, 0x01, 0x99, 0x2A, 
	0x00, 0x81, 0x1F, 0x91, 0x24, 0x79, 0x00, 0x92, 0x43, 0x76, 0x00, 0x92, 0x48, 0x76, 0x00, 0x92, 0x4C, 0x76, 0x00, 0x99, 0x2A, 0x4E, 0x00, 0x99, 0x28, 0x6A, 0x01, 0x99, 0x2A, 0x00, 0x00, 0x99, 0x28, 0x00, 0x81, 0x1F, 0x99, 0x2A, 0x32, 0x01, 0x99, 0x2A, 0x00, 0x4F, 0x92, 0x43, 0x00, 0x00, 0x92, 0x48, 0x00, 0x00, 0x92, 0x4C, 0x00, 0x3C, 0x91, 0x24, 0x00, 0x00, 0x93, 0x4A, 0x00, 0x14, 
	0x93, 0x48, 0x7F, 0x00, 0x99, 0x2A, 0x32, 0x00, 0x99, 0x24, 0x4E, 0x01, 0x99, 0x2A, 0x00, 0x00, 0x99, 0x24, 0x00, 0x81, 0x1F, 0x91, 0x24, 0x79, 0x00, 0x92, 0x43, 0x76, 0x00, 0x92, 0x48, 0x76, 0x00, 0x92, 0x4C, 0x76, 0x00, 0x99, 0x2A, 0x4E, 0x00, 0x99, 0x24, 0x6A, 0x01, 0x99, 0x2A, 0x00, 0x00, 0x99, 0x24, 0x00, 0x81, 0x0B, 0x94, 0x4A, 0x00, 0x14, 0x94, 0x48, 0x7F, 0x00, 0x99, 0x2A, 
	0x32, 0x01, 0x99, 0x2A, 0x00, 0x4F, 0x92, 0x43, 0x00, 0x00, 0x92, 0x48, 0x00, 0x00, 0x92, 0x4C, 0x00, 0x50, 0x99, 0x2A, 0x32, 0x00, 0x99, 0x24, 0x6A, 0x01, 0x99, 0x2A, 0x00, 0x00, 0x99, 0x24, 0x00, 0x81, 0x1F, 0x92, 0x43, 0x76, 0x00, 0x92, 0x48, 0x76, 0x00, 0x92, 0x4C, 0x76, 0x00, 0x99, 0x2A, 0x4E, 0x00, 0x99, 0x28, 0x6A, 0x01, 0x99, 0x2A, 0x00, 0x00, 0x99, 0x28, 0x00, 0x81, 0x1F, 
	0x99, 0x2A, 0x32, 0x01, 0x99, 0x2A, 0x00, 0x4F, 0x92, 0x43, 0x00, 0x00, 0x92, 0x48, 0x00, 0x00, 0x92, 0x4C, 0x00, 0x3C, 0x91, 0x24, 0x00, 0x14, 0x91, 0x24, 0x79, 0x00, 0x99, 0x2A, 0x32, 0x00, 0x99, 0x24, 0x4E, 0x01, 0x99, 0x2A, 0x00, 0x00, 0x99, 0x24, 0x00, 0x77, 0x93, 0x48, 0x00, 0x14, 0x96, 0x40, 0x00, 0x00, 0x96, 0x43, 0x00, 0x00, 0x96, 0x48, 0x00, 0x06, 0x91, 0x24, 0x00, 0x0E, 
	0x92, 0x43, 0x76, 0x00, 0x92, 0x48, 0x76, 0x00, 0x92, 0x4C, 0x76, 0x00, 0x96, 0x40, 0x6F, 0x00, 0x96, 0x43, 0x6F, 0x00, 0x96, 0x48, 0x6F, 0x00, 0x99, 0x2A, 0x4E, 0x01, 0x99, 0x2A, 0x00, 0x81, 0x1F, 0x99, 0x2A, 0x32, 0x01, 0x99, 0x2A, 0x00, 0x4F, 0x92, 0x43, 0x00, 0x00, 0x92, 0x48, 0x00, 0x00, 0x92, 0x4C, 0x00, 0x28, 0x94, 0x48, 0x00, 0x28, 0x91, 0x24, 0x79, 0x00, 0x99, 0x2A, 0x32, 
	0x00, 0x99, 0x24, 0x4E, 0x01, 0x99, 0x2A, 0x00, 0x00, 0x99, 0x24, 0x00, 0x81, 0x11, 0x91, 0x24, 0x00, 0x0E, 0x92, 0x43, 0x76, 0x00, 0x92, 0x48, 0x76, 0x00, 0x92, 0x4C, 0x76, 0x00, 0x99, 0x2A, 0x4E, 0x00, 0x99, 0x28, 0x6A, 0x01, 0x99, 0x2A, 0x00, 0x00, 0x99, 0x28, 0x00, 0x81, 0x1F, 0x99, 0x2A, 0x32, 0x01, 0x99, 0x2A, 0x00, 0x4F, 0x92, 0x43, 0x00, 0x00, 0x92, 0x48, 0x00, 0x00, 0x92, 
	0x4C, 0x00, 0x50, 0x91, 0x24, 0x79, 0x00, 0x99, 0x2A, 0x32, 0x00, 0x99, 0x24, 0x4E, 0x01, 0x99, 0x2A, 0x00, 0x00, 0x99, 0x24, 0x00, 0x81, 0x11, 0x91, 0x24, 0x00, 0x0E, 0x91, 0x24, 0x79, 0x00, 0x92, 0x43, 0x76, 0x00, 0x92, 0x48, 0x76, 0x00, 0x92, 0x4C, 0x76, 0x00, 0x99, 0x28, 0x5C, 0x00, 0x99, 0x2A, 0x4E, 0x01, 0x99, 0x28, 0x00, 0x00, 0x99, 0x2A, 0x00, 0x4F, 0x99, 0x28, 0x4E, 0x01, 
	0x99, 0x28, 0x00, 0x4F, 0x99, 0x28, 0x5C, 0x00, 0x99, 0x2A, 0x32, 0x01, 0x99, 0x28, 0x00, 0x00, 0x99, 0x2A, 0x00, 0x81, 0x1F, 0x99, 0x28, 0x4E, 0x00, 0x99, 0x2A, 0x32, 0x01, 0x99, 0x28, 0x00, 0x00, 0x99, 0x2A, 0x00, 0x81, 0x01, 0x91, 0x24, 0x00, 0x00, 0x92, 0x43, 0x00, 0x00, 0x92, 0x48, 0x00, 0x00, 0x92, 0x4C, 0x00, 0x1E, 0x91, 0x1F, 0x79, 0x00, 0x92, 0x41, 0x76, 0x00, 0x92, 0x47, 
	0x76, 0x00, 0x92, 0x4A, 0x76, 0x00, 0x99, 0x30, 0x6A, 0x01, 0x99, 0x30, 0x00, 0x81, 0x1F, 0x99, 0x30, 0x6A, 0x01, 0x99, 0x30, 0x00, 0x81, 0x1F, 0x99, 0x29, 0x6A, 0x01, 0x99, 0x29, 0x00, 0x81, 0x01, 0x91, 0x1F, 0x00, 0x00, 0x92, 0x41, 0x00, 0x00, 0x92, 0x47, 0x00, 0x00, 0x92, 0x4A, 0x00, 0x0A, 0x95, 0x48, 0x00, 0x00, 0x95, 0x54, 0x00, 0x00, 0x96, 0x40, 0x00, 0x00, 0x96, 0x43, 0x00, 
	0x00, 0x96, 0x48, 0x00, 0x14, 0x91, 0x24, 0x79, 0x00, 0x92, 0x40, 0x7F, 0x00, 0x92, 0x43, 0x7F, 0x00, 0x92, 0x4A, 0x7F, 0x00, 0xB3, 0x20, 0x00, 0x00, 0xC3, 0x0B, 0x00, 0x99, 0x31, 0x4E, 0x00, 0x99, 0x24, 0x6A, 0x01, 0x99, 0x31, 0x00, 0x00, 0x99, 0x24, 0x00, 0x82, 0x2B, 0x91, 0x24, 0x00, 0x00, 0x92, 0x40, 0x00, 0x00, 0x92, 0x43, 0x00, 0x00, 0x92, 0x4A, 0x00, 0x14, 0xB4, 0x20, 0x00, 
	0x00, 0xC4, 0x0B, 0x81, 0x20, 0x99, 0x2A, 0x4E, 0x00, 0x99, 0x28, 0x6A, 0x01, 0x99, 0x2A, 0x00, 0x00, 0x99, 0x28, 0x00, 0x81, 0x1F, 0x99, 0x2A, 0x32, 0x01, 0x99, 0x2A, 0x00, 0x81, 0x1F, 0x91, 0x24, 0x79, 0x00, 0x92, 0x40, 0x7F, 0x00, 0x92, 0x43, 0x7F, 0x00, 0x92, 0x4A, 0x7F, 0x00, 0x99, 0x2A, 0x32, 0x00, 0x99, 0x24, 0x4E, 0x01, 0x99, 0x2A, 0x00, 0x00, 0x99, 0x24, 0x00, 0x81, 0x11, 
	0x91, 0x24, 0x00, 0x00, 0x92, 0x40, 0x00, 0x00, 0x92, 0x43, 0x00, 0x00, 0x92, 0x4A, 0x00, 0x0E, 0x91, 0x24, 0x79, 0x00, 0x92, 0x40, 0x7F, 0x00, 0x92, 0x43, 0x7F, 0x00, 0x92, 0x48, 0x7F, 0x00, 0x99, 0x2A, 0x4E, 0x00, 0x99, 0x24, 0x6A, 0x01, 0x99, 0x2A, 0x00, 0x00, 0x99, 0x24, 0x00, 0x81, 0x1F, 0x99, 0x2A, 0x32, 0x01, 0x99, 0x2A, 0x00, 0x81, 0x0B, 0x91, 0x24, 0x00, 0x00, 0x92, 0x40, 
	0x00, 0x00, 0x92, 0x43, 0x00, 0x00, 0x92, 0x48, 0x00, 0x14, 0x91, 0x24, 0x79, 0x00, 0x92, 0x40, 0x7F, 0x00, 0x92, 0x43, 0x7F, 0x00, 0x92, 0x48, 0x7F, 0x00, 0x99, 0x2A, 0x32, 0x00, 0x99, 0x24, 0x6A, 0x01, 0x99, 0x2A, 0x00, 0x00, 0x99, 0x24, 0x00, 0x81, 0x11, 0x91, 0x24, 0x00, 0x00, 0x92, 0x40, 0x00, 0x00, 0x92, 0x43, 0x00, 0x00, 0x92, 0x48, 0x00, 0x0E, 0x99, 0x2A, 0x4E, 0x00, 0x99, 
	0x28, 0x6A, 0x01, 0x99, 0x2A, 0x00, 0x00, 0x99, 0x28, 0x00, 0x81, 0x1F, 0x99, 0x2A, 0x32, 0x01, 0x99, 0x2A, 0x00, 0x81, 0x1F, 0x91, 0x28, 0x79, 0x00, 0x92, 0x40, 0x7F, 0x00, 0x92, 0x43, 0x7F, 0x00, 0x92, 0x4A, 0x7F, 0x00, 0x99, 0x2A, 0x32, 0x00, 0x99, 0x24, 0x4E, 0x01, 0x99, 0x2A, 0x00, 0x00, 0x99, 0x24, 0x00, 0x81, 0x11, 0x91, 0x28, 0x00, 0x00, 0x92, 0x40, 0x00, 0x00, 0x92, 0x43, 
	0x00, 0x00, 0x92, 0x4A, 0x00, 0x0E, 0x99, 0x2A, 0x4E, 0x01, 0x99, 0x2A, 0x00, 0x81, 0x1F, 0x99, 0x2A, 0x32, 0x01, 0x99, 0x2A, 0x00, 0x81, 0x1F, 0x91, 0x28, 0x79, 0x00, 0x92, 0x40, 0x7F, 0x00, 0x92, 0x43, 0x7F, 0x00, 0x92, 0x4A, 0x7F, 0x00, 0x99, 0x2A, 0x32, 0x00, 0x99, 0x24, 0x4E, 0x01, 0x99, 0x2A, 0x00, 0x00, 0x99, 0x24, 0x00, 0x81, 0x11, 0x91, 0x28, 0x00, 0x0E, 0x99, 0x2A, 0x4E, 
	0x00, 0x99, 0x28, 0x6A, 0x01, 0x99, 0x2A, 0x00, 0x00, 0x99, 0x28, 0x00, 0x09, 0x92, 0x40, 0x00, 0x00, 0x92, 0x43, 0x00, 0x00, 0x92, 0x4A, 0x00, 0x81, 0x16, 0x99, 0x2A, 0x32, 0x01, 0x99, 0x2A, 0x00, 0x81, 0x1F, 0x91, 0x28, 0x79, 0x00, 0x92, 0x40, 0x7F, 0x00, 0x92, 0x43, 0x7F, 0x00, 0x92, 0x48, 0x7F, 0x00, 0x99, 0x2A, 0x32, 0x00, 0x99, 0x24, 0x4E, 0x01, 0x99, 0x2A, 0x00, 0x00, 0x99, 
	0x24, 0x00, 0x81, 0x11, 0x91, 0x28, 0x00, 0x00, 0x92, 0x40, 0x00, 0x00, 0x92, 0x43, 0x00, 0x00, 0x92, 0x48, 0x00, 0x0E, 0x91, 0x28, 0x79, 0x00, 0x92, 0x40, 0x7F, 0x00, 0x92, 0x43, 0x7F, 0x00, 0x92, 0x48, 0x7F, 0x00, 0x99, 0x2A, 0x4E, 0x00, 0x99, 0x24, 0x6A, 0x01, 0x99, 0x2A, 0x00, 0x00, 0x99, 0x24, 0x00, 0x81, 0x1F, 0x99, 0x2A, 0x32, 0x01, 0x99, 0x2A, 0x00, 0x81, 0x0B, 0x91, 0x28, 
	0x00, 0x14, 0x91, 0x28, 0x79, 0x00, 0x99, 0x2A, 0x32, 0x01, 0x99, 0x2A, 0x00, 0x81, 0x11, 0x91, 0x28, 0x00, 0x0E, 0x91, 0x28, 0x79, 0x00, 0x99, 0x2E, 0x4E, 0x00, 0x99, 0x28, 0x6A, 0x01, 0x99, 0x2E, 0x00, 0x00, 0x99, 0x28, 0x00, 0x81, 0x11, 0x91, 0x28, 0x00, 0x0E, 0x91, 0x26, 0x79, 0x00, 0x99, 0x2A, 0x4E, 0x01, 0x99, 0x2A, 0x00, 0x81, 0x11, 0x91, 0x26, 0x00, 0x0E, 0x91, 0x28, 0x79, 
	0x00, 0x99, 0x2A, 0x32, 0x01, 0x99, 0x2A, 0x00, 0x77, 0x92, 0x40, 0x00, 0x00, 0x92, 0x43, 0x00, 0x00, 0x92, 0x48, 0x00, 0x1A, 0x91, 0x28, 0x00, 0x0E, 0x91, 0x29, 0x79, 0x00, 0x92, 0x41, 0x7F, 0x00, 0x92, 0x45, 0x7F, 0x00, 0x92, 0x4A, 0x7F, 0x00, 0x99, 0x2A, 0x4E, 0x00, 0x99, 0x24, 0x6A, 0x01, 0x99, 0x2A, 0x00, 0x00, 0x99, 0x24, 0x00, 0x81, 0x1F, 0x99, 0x2A, 0x32, 0x01, 0x99, 0x2A, 
	0x00, 0x81, 0x0B, 0x91, 0x29, 0x00, 0x00, 0x92, 0x41, 0x00, 0x00, 0x92, 0x45, 0x00, 0x00, 0x92, 0x4A, 0x00, 0x14, 0x99, 0x2A, 0x32, 0x01, 0x99, 0x2A, 0x00, 0x81, 0x1F, 0x99, 0x2A, 0x4E, 0x00, 0x99, 0x28, 0x6A, 0x01, 0x99, 0x2A, 0x00, 0x00, 0x99, 0x28, 0x00, 0x81, 0x1F, 0x99, 0x2A, 0x32, 0x01, 0x99, 0x2A, 0x00, 0x81, 0x1F, 0x91, 0x29, 0x79, 0x00, 0x92, 0x41, 0x7F, 0x00, 0x92, 0x45, 
	0x7F, 0x00, 0x92, 0x4A, 0x7F, 0x00, 0x99, 0x2A, 0x32, 0x00, 0x99, 0x24, 0x4E, 0x01, 0x99, 0x2A, 0x00, 0x00, 0x99, 0x24, 0x00, 0x81, 0x11, 0x91, 0x29, 0x00, 0x00, 0x92, 0x41, 0x00, 0x00, 0x92, 0x45, 0x00, 0x00, 0x92, 0x4A, 0x00, 0x0E, 0x91, 0x29, 0x79, 0x00, 0x92, 0x41, 0x7F, 0x00, 0x92, 0x45, 0x7F, 0x00, 0x92, 0x48, 0x7F, 0x00, 0x99, 0x2A, 0x4E, 0x00, 0x99, 0x24, 0x6A, 0x01, 0x99, 
	0x2A, 0x00, 0x00, 0x99, 0x24, 0x00, 0x81, 0x1F, 0x99, 0x2A, 0x32, 0x01, 0x99, 0x2A, 0x00, 0x81, 0x0B, 0x91, 0x29, 0x00, 0x00, 0x92, 0x41, 0x00, 0x00, 0x92, 0x45, 0x00, 0x00, 0x92, 0x48, 0x00, 0x14, 0x91, 0x29, 0x79, 0x00, 0x92, 0x41, 0x7F, 0x00, 0x92, 0x45, 0x7F, 0x00, 0x92, 0x48, 0x7F, 0x00, 0x99, 0x2A, 0x32, 0x00, 0x99, 0x24, 0x6A, 0x01, 0x99, 0x2A, 0x00, 0x00, 0x99, 0x24, 0x00, 
	0x81, 0x11, 0x91, 0x29, 0x00, 0x00, 0x92, 0x41, 0x00, 0x00, 0x92, 0x45, 0x00, 0x00, 0x92, 0x48, 0x00, 0x0E, 0x99, 0x2A, 0x4E, 0x00, 0x99, 0x28, 0x6A, 0x01, 0x99, 0x2A, 0x00, 0x00, 0x99, 0x28, 0x00, 0x81, 0x1F, 0x99, 0x2A, 0x32, 0x01, 0x99, 0x2A, 0x00, 0x81, 0x1F, 0x91, 0x2C, 0x79, 0x00, 0x92, 0x41, 0x7F, 0x00, 0x92, 0x44, 0x7F, 0x00, 0x92, 0x4A, 0x7F, 0x00, 0x99, 0x2A, 0x32, 0x00, 
	0x99, 0x24, 0x4E, 0x01, 0x99, 0x2A, 0x00, 0x00, 0x99, 0x24, 0x00, 0x81, 0x11, 0x91, 0x2C, 0x00, 0x00, 0x92, 0x41, 0x00, 0x00, 0x92, 0x44, 0x00, 0x00, 0x92, 0x4A, 0x00, 0x0E, 0x99, 0x2A, 0x4E, 0x01, 0x99, 0x2A, 0x00, 0x81, 0x1F, 0x99, 0x2A, 0x32, 0x01, 0x99, 0x2A, 0x00, 0x81, 0x1F, 0x91, 0x2C, 0x79, 0x00, 0x92, 0x41, 0x7F, 0x00, 0x92, 0x44, 0x7F, 0x00, 0x92, 0x4A, 0x7F, 0x00, 0x99, 
	0x2A, 0x32, 0x00, 0x99, 0x24, 0x4E, 0x01, 0x99, 0x2A, 0x00, 0x00, 0x99, 0x24, 0x00, 0x81, 0x11, 0x91, 0x2C, 0x00, 0x0E, 0x99, 0x2A, 0x4E, 0x00, 0x99, 0x28, 0x6A, 0x01, 0x99, 0x2A, 0x00, 0x00, 0x99, 0x28, 0x00, 0x09, 0x92, 0x41, 0x00, 0x00, 0x92, 0x44, 0x00, 0x00, 0x92, 0x4A, 0x00, 0x81, 0x16, 0x99, 0x2A, 0x32, 0x01, 0x99, 0x2A, 0x00, 0x81, 0x1F, 0x91, 0x2C, 0x79, 0x00, 0x92, 0x41, 
	0x7F, 0x00, 0x92, 0x44, 0x7F, 0x00, 0x92, 0x48, 0x7F, 0x00, 0x99, 0x2A, 0x32, 0x00, 0x99, 0x24, 0x4E, 0x01, 0x99, 0x2A, 0x00, 0x00, 0x99, 0x24, 0x00, 0x81, 0x11, 0x91, 0x2C, 0x00, 0x00, 0x92, 0x41, 0x00, 0x00, 0x92, 0x44, 0x00, 0x00, 0x92, 0x48, 0x00, 0x0E, 0x91, 0x2C, 0x79, 0x00, 0x92, 0x41, 0x7F, 0x00, 0x92, 0x44, 0x7F, 0x00, 0x92, 0x48, 0x7F, 0x00, 0x95, 0x45, 0x4B, 0x00, 0x95, 
	0x51, 0x4B, 0x00, 0x99, 0x2A, 0x4E, 0x00, 0x99, 0x24, 0x6A, 0x01, 0x99, 0x2A, 0x00, 0x00, 0x99, 0x24, 0x00, 0x81, 0x1F, 0x95, 0x45, 0x00, 0x00, 0x95, 0x51, 0x00, 0x00, 0x95, 0x47, 0x54, 0x00, 0x95, 0x53, 0x54, 0x00, 0x99, 0x2A, 0x32, 0x01, 0x99, 0x2A, 0x00, 0x81, 0x1F, 0x95, 0x47, 0x00, 0x00, 0x95, 0x53, 0x00, 0x00, 0x95, 0x48, 0x5D, 0x00, 0x95, 0x54, 0x5D, 0x00, 0x99, 0x2A, 0x32, 
	0x01, 0x99, 0x2A, 0x00, 0x81, 0x01, 0x91, 0x2C, 0x00, 0x00, 0x92, 0x41, 0x00, 0x00, 0x92, 0x44, 0x00, 0x00, 0x92, 0x48, 0x00, 0x1E, 0x91, 0x22, 0x79, 0x00, 0x92, 0x41, 0x7F, 0x00, 0x92, 0x44, 0x7F, 0x00, 0x92, 0x4A, 0x7F, 0x00, 0x95, 0x48, 0x00, 0x00, 0x95, 0x54, 0x00, 0x00, 0x95, 0x4A, 0x67, 0x00, 0x95, 0x56, 0x67, 0x00, 0x99, 0x28, 0x6A, 0x01, 0x99, 0x28, 0x00, 0x81, 0x1F, 0x95, 
	0x4A, 0x00, 0x00, 0x95, 0x56, 0x00, 0x00, 0x95, 0x4C, 0x70, 0x00, 0x95, 0x58, 0x70, 0x00, 0x99, 0x30, 0x5C, 0x01, 0x99, 0x30, 0x00, 0x81, 0x1F, 0x95, 0x4C, 0x00, 0x00, 0x95, 0x58, 0x00, 0x00, 0x95, 0x4D, 0x79, 0x00, 0x95, 0x59, 0x79, 0x00, 0x99, 0x2D, 0x5C, 0x01, 0x99, 0x2D, 0x00, 0x81, 0x01, 0x91, 0x22, 0x00, 0x00, 0x92, 0x41, 0x00, 0x00, 0x92, 0x44, 0x00, 0x00, 0x92, 0x4A, 0x00, 
	0x1E, 0x91, 0x24, 0x79, 0x00, 0x92, 0x40, 0x7F, 0x00, 0x92, 0x43, 0x7F, 0x00, 0x92, 0x4A, 0x7F, 0x00, 0x95, 0x4D, 0x00, 0x00, 0x95, 0x59, 0x00, 0x00, 0x95, 0x4F, 0x79, 0x00, 0x95, 0x5B, 0x79, 0x00, 0x99, 0x31, 0x4E, 0x00, 0x99, 0x24, 0x6A, 0x01, 0x99, 0x31, 0x00, 0x00, 0x99, 0x24, 0x00, 0x82, 0x2B, 0x91, 0x24, 0x00, 0x00, 0x92, 0x40, 0x00, 0x00, 0x92, 0x43, 0x00, 0x00, 0x92, 0x4A, 
	0x00, 0x81, 0x34, 0x99, 0x2A, 0x4E, 0x00, 0x99, 0x28, 0x6A, 0x01, 0x99, 0x2A, 0x00, 0x00, 0x99, 0x28, 0x00, 0x81, 0x1F, 0x99, 0x2A, 0x32, 0x01, 0x99, 0x2A, 0x00, 0x81, 0x1F, 0x91, 0x24, 0x79, 0x00, 0x92, 0x40, 0x7F, 0x00, 0x92, 0x43, 0x7F, 0x00, 0x92, 0x4A, 0x7F, 0x00, 0x99, 0x2A, 0x32, 0x00, 0x99, 0x24, 0x4E, 0x01, 0x99, 0x2A, 0x00, 0x00, 0x99, 0x24, 0x00, 0x81, 0x11, 0x91, 0x24, 
	0x00, 0x00, 0x92, 0x40, 0x00, 0x00, 0x92, 0x43, 0x00, 0x00, 0x92, 0x4A, 0x00, 0x0E, 0x91, 0x24, 0x79, 0x00, 0x92, 0x40, 0x7F, 0x00, 0x92, 0x43, 0x7F, 0x00, 0x92, 0x48, 0x7F, 0x00, 0x99, 0x2A, 0x4E, 0x00, 0x99, 0x24, 0x6A, 0x01, 0x99, 0x2A, 0x00, 0x00, 0x99, 0x24, 0x00, 0x81, 0x1F, 0x99, 0x2A, 0x32, 0x01, 0x99, 0x2A, 0x00, 0x81, 0x0B, 0x91, 0x24, 0x00, 0x00, 0x92, 0x40, 0x00, 0x00, 
	0x92, 0x43, 0x00, 0x00, 0x92, 0x48, 0x00, 0x14, 0x91, 0x24, 0x79, 0x00, 0x92, 0x40, 0x7F, 0x00, 0x92, 0x43, 0x7F, 0x00, 0x92, 0x48, 0x7F, 0x00, 0x99, 0x2A, 0x32, 0x00, 0x99, 0x24, 0x6A, 0x01, 0x99, 0x2A, 0x00, 0x00, 0x99, 0x24, 0x00, 0x81, 0x11, 0x91, 0x24, 0x00, 0x00, 0x92, 0x40, 0x00, 0x00, 0x92, 0x43, 0x00, 0x00, 0x92, 0x48, 0x00, 0x0E, 0x99, 0x2A, 0x4E, 0x00, 0x99, 0x28, 0x6A, 
	0x01, 0x99, 0x2A, 0x00, 0x00, 0x99, 0x28, 0x00, 0x81, 0x1F, 0x99, 0x2A, 0x32, 0x01, 0x99, 0x2A, 0x00, 0x81, 0x1F, 0x91, 0x28, 0x79, 0x00, 0x92, 0x40, 0x7F, 0x00, 0x92, 0x43, 0x7F, 0x00, 0x92, 0x4A, 0x7F, 0x00, 0x99, 0x2A, 0x32, 0x00, 0x99, 0x24, 0x4E, 0x01, 0x99, 0x2A, 0x00, 0x00, 0x99, 0x24, 0x00, 0x81, 0x11, 0x91, 0x28, 0x00, 0x00, 0x92, 0x40, 0x00, 0x00, 0x92, 0x43, 0x00, 0x00, 
	0x92, 0x4A, 0x00, 0x0E, 0x99, 0x2A, 0x4E, 0x01, 0x99, 0x2A, 0x00, 0x81, 0x1F, 0x99, 0x2A, 0x32, 0x01, 0x99, 0x2A, 0x00, 0x81, 0x1F, 0x91, 0x28, 0x79, 0x00, 0x92, 0x40, 0x7F, 0x00, 0x92, 0x43, 0x7F, 0x00, 0x92, 0x4A, 0x7F, 0x00, 0x99, 0x2A, 0x32, 0x00, 0x99, 0x24, 0x4E, 0x01, 0x99, 0x2A, 0x00, 0x00, 0x99, 0x24, 0x00, 0x81, 0x11, 0x91, 0x28, 0x00, 0x0E, 0x97, 0x4F, 0x63, 0x00, 0x97, 
	0x58, 0x7F, 0x00, 0x99, 0x2A, 0x4E, 0x00, 0x99, 0x28, 0x6A, 0x01, 0x99, 0x2A, 0x00, 0x00, 0x99, 0x28, 0x00, 0x09, 0x92, 0x40, 0x00, 0x00, 0x92, 0x43, 0x00, 0x00, 0x92, 0x4A, 0x00, 0x81, 0x16, 0x99, 0x2A, 0x32, 0x01, 0x99, 0x2A, 0x00, 0x81, 0x1F, 0x91, 0x28, 0x79, 0x00, 0x92, 0x40, 0x7F, 0x00, 0x92, 0x43, 0x7F, 0x00, 0x92, 0x48, 0x7F, 0x00, 0x99, 0x2A, 0x32, 0x00, 0x99, 0x24, 0x4E, 
	0x01, 0x99, 0x2A, 0x00, 0x00, 0x99, 0x24, 0x00, 0x81, 0x01, 0x97, 0x4F, 0x00, 0x00, 0x97, 0x58, 0x00, 0x10, 0x91, 0x28, 0x00, 0x00, 0x92, 0x40, 0x00, 0x00, 0x92, 0x43, 0x00, 0x00, 0x92, 0x48, 0x00, 0x0E, 0x91, 0x28, 0x79, 0x00, 0x92, 0x40, 0x7F, 0x00, 0x92, 0x43, 0x7F, 0x00, 0x92, 0x48, 0x7F, 0x00, 0x97, 0x51, 0x63, 0x00, 0x97, 0x59, 0x7F, 0x00, 0x99, 0x2A, 0x4E, 0x00, 0x99, 0x24, 
	0x6A, 0x01, 0x99, 0x2A, 0x00, 0x00, 0x99, 0x24, 0x00, 0x81, 0x1F, 0x99, 0x2A, 0x32, 0x01, 0x99, 0x2A, 0x00, 0x81, 0x0B, 0x91, 0x28, 0x00, 0x14, 0x91, 0x28, 0x79, 0x00, 0x99, 0x2A, 0x32, 0x01, 0x99, 0x2A, 0x00, 0x81, 0x01, 0x97, 0x51, 0x00, 0x00, 0x97, 0x59, 0x00, 0x10, 0x91, 0x28, 0x00, 0x0E, 0x91, 0x28, 0x79, 0x00, 0x97, 0x53, 0x63, 0x00, 0x97, 0x5B, 0x7F, 0x00, 0x99, 0x2E, 0x4E, 
	0x00, 0x99, 0x28, 0x6A, 0x01, 0x99, 0x2E, 0x00, 0x00, 0x99, 0x28, 0x00, 0x81, 0x11, 0x91, 0x28, 0x00, 0x0E, 0x91, 0x26, 0x79, 0x00, 0x99, 0x2A, 0x4E, 0x01, 0x99, 0x2A, 0x00, 0x81, 0x11, 0x91, 0x26, 0x00, 0x0E, 0x91, 0x28, 0x79, 0x00, 0x99, 0x2A, 0x32, 0x01, 0x99, 0x2A, 0x00, 0x77, 0x92, 0x40, 0x00, 0x00, 0x92, 0x43, 0x00, 0x00, 0x92, 0x48, 0x00, 0x0A, 0x97, 0x53, 0x00, 0x00, 0x97, 
	0x5B, 0x00, 0x10, 0x91, 0x28, 0x00, 0x0E, 0x91, 0x29, 0x79, 0x00, 0x92, 0x41, 0x7F, 0x00, 0x92, 0x45, 0x7F, 0x00, 0x92, 0x4A, 0x7F, 0x00, 0x97, 0x53, 0x63, 0x00, 0x97, 0x5B, 0x7F, 0x00, 0x99, 0x2A, 0x4E, 0x00, 0x99, 0x24, 0x6A, 0x01, 0x99, 0x2A, 0x00, 0x00, 0x99, 0x24, 0x00, 0x81, 0x1F, 0x99, 0x2A, 0x32, 0x01, 0x99, 0x2A, 0x00, 0x81, 0x0B, 0x91, 0x29, 0x00, 0x00, 0x92, 0x41, 0x00, 
	0x00, 0x92, 0x45, 0x00, 0x00, 0x92, 0x4A, 0x00, 0x14, 0x99, 0x2A, 0x32, 0x01, 0x99, 0x2A, 0x00, 0x81, 0x01, 0x97, 0x53, 0x00, 0x00, 0x97, 0x5B, 0x00, 0x1E, 0x97, 0x54, 0x63, 0x00, 0x97, 0x5D, 0x7F, 0x00, 0x99, 0x2A, 0x4E, 0x00, 0x99, 0x28, 0x6A, 0x01, 0x99, 0x2A, 0x00, 0x00, 0x99, 0x28, 0x00, 0x81, 0x1F, 0x99, 0x2A, 0x32, 0x01, 0x99, 0x2A, 0x00, 0x81, 0x0B, 0x97, 0x54, 0x00, 0x00, 
	0x97, 0x5D, 0x00, 0x14, 0x91, 0x29, 0x79, 0x00, 0x92, 0x41, 0x7F, 0x00, 0x92, 0x45, 0x7F, 0x00, 0x92, 0x4A, 0x7F, 0x00, 0x97, 0x4D, 0x63, 0x00, 0x97, 0x54, 0x7F, 0x00, 0x99, 0x2A, 0x32, 0x00, 0x99, 0x24, 0x4E, 0x01, 0x99, 0x2A, 0x00, 0x00, 0x99, 0x24, 0x00, 0x81, 0x11, 0x91, 0x29, 0x00, 0x00, 0x92, 0x41, 0x00, 0x00, 0x92, 0x45, 0x00, 0x00, 0x92, 0x4A, 0x00, 0x0E, 0x91, 0x29, 0x79, 
	0x00, 0x92, 0x41, 0x7F, 0x00, 0x92, 0x45, 0x7F, 0x00, 0x92, 0x48, 0x7F, 0x00, 0x99, 0x2A, 0x4E, 0x00, 0x99, 0x24, 0x6A, 0x01, 0x99, 0x2A, 0x00, 0x00, 0x99, 0x24, 0x00, 0x81, 0x1F, 0x99, 0x2A, 0x32, 0x01, 0x99, 0x2A, 0x00, 0x81, 0x0B, 0x91, 0x29, 0x00, 0x00, 0x92, 0x41, 0x00, 0x00, 0x92, 0x45, 0x00, 0x00, 0x92, 0x48, 0x00, 0x14, 0x91, 0x29, 0x79, 0x00, 0x92, 0x41, 0x7F, 0x00, 0x92, 
	0x45, 0x7F, 0x00, 0x92, 0x48, 0x7F, 0x00, 0x99, 0x2A, 0x32, 0x00, 0x99, 0x24, 0x6A, 0x01, 0x99, 0x2A, 0x00, 0x00, 0x99, 0x24, 0x00, 0x81, 0x11, 0x91, 0x29, 0x00, 0x00, 0x92, 0x41, 0x00, 0x00, 0x92, 0x45, 0x00, 0x00, 0x92, 0x48, 0x00, 0x0E, 0x99, 0x2A, 0x4E, 0x00, 0x99, 0x28, 0x6A, 0x01, 0x99, 0x2A, 0x00, 0x00, 0x99, 0x28, 0x00, 0x81, 0x1F, 0x92, 0x47, 0x7F, 0x00, 0x99, 0x2A, 0x32, 
	0x01, 0x99, 0x2A, 0x00, 0x81, 0x11, 0x92, 0x47, 0x00, 0x0E, 0x91, 0x2C, 0x79, 0x00, 0x92, 0x48, 0x7F, 0x00, 0x99, 0x2A, 0x32, 0x00, 0x99, 0x24, 0x4E, 0x01, 0x99, 0x2A, 0x00, 0x00, 0x99, 0x24, 0x00, 0x77, 0x97, 0x4D, 0x00, 0x00, 0x97, 0x54, 0x00, 0x14, 0x95, 0x4F, 0x00, 0x00, 0x95, 0x5B, 0x00, 0x06, 0x91, 0x2C, 0x00, 0x00, 0x92, 0x48, 0x00, 0x0E, 0x91, 0x2B, 0x79, 0x00, 0x92, 0x47, 
	0x7F, 0x00, 0x92, 0x4D, 0x7F, 0x00, 0x92, 0x52, 0x7F, 0x00, 0x95, 0x54, 0x79, 0x00, 0x95, 0x60, 0x79, 0x00, 0x99, 0x37, 0x6A, 0x00, 0x99, 0x24, 0x6A, 0x01, 0x99, 0x37, 0x00, 0x00, 0x99, 0x24, 0x00, 0x82, 0x2B, 0x91, 0x2B, 0x00, 0x00, 0x92, 0x47, 0x00, 0x00, 0x92, 0x4D, 0x00, 0x00, 0x92, 0x52, 0x00, 0x14, 0x99, 0x28, 0x40, 0x01, 0x99, 0x28, 0x00, 0x81, 0x01, 0x95, 0x54, 0x00, 0x00, 
	0x95, 0x60, 0x00, 0x1E, 0x91, 0x2B, 0x79, 0x00, 0x92, 0x47, 0x7F, 0x00, 0x92, 0x4D, 0x7F, 0x00, 0x92, 0x50, 0x7F, 0x00, 0x95, 0x52, 0x79, 0x00, 0x95, 0x5E, 0x79, 0x00, 0x99, 0x28, 0x5C, 0x01, 0x99, 0x28, 0x00, 0x81, 0x1F, 0x99, 0x28, 0x40, 0x01, 0x99, 0x28, 0x00, 0x81, 0x0B, 0x91, 0x2B, 0x00, 0x00, 0x92, 0x47, 0x00, 0x00, 0x92, 0x4D, 0x00, 0x00, 0x92, 0x50, 0x00, 0x14, 0x99, 0x28, 
	0x5C, 0x01, 0x99, 0x28, 0x00, 0x81, 0x01, 0x95, 0x52, 0x00, 0x00, 0x95, 0x5E, 0x00, 0x1E, 0x91, 0x2B, 0x79, 0x00, 0x92, 0x47, 0x7F, 0x00, 0x92, 0x4C, 0x7F, 0x00, 0x92, 0x4F, 0x7F, 0x00, 0x95, 0x4F, 0x79, 0x00, 0x95, 0x5B, 0x79, 0x00, 0x99, 0x30, 0x5C, 0x01, 0x99, 0x30, 0x00, 0x81, 0x1F, 0x99, 0x30, 0x4E, 0x01, 0x99, 0x30, 0x00, 0x81, 0x0B, 0x91, 0x2B, 0x00, 0x00, 0x92, 0x47, 0x00, 
	0x00, 0x92, 0x4C, 0x00, 0x00, 0x92, 0x4F, 0x00, 0x14, 0x99, 0x30, 0x5C, 0x01, 0x99, 0x30, 0x00, 0x81, 0x01, 0x95, 0x4F, 0x00, 0x00, 0x95, 0x5B, 0x00, 0x1E, 0x91, 0x2B, 0x79, 0x00, 0x92, 0x43, 0x7F, 0x00, 0x92, 0x47, 0x7F, 0x00, 0x92, 0x4D, 0x7F, 0x00, 0x95, 0x4D, 0x79, 0x00, 0x95, 0x59, 0x79, 0x00, 0x99, 0x2D, 0x5C, 0x01, 0x99, 0x2D, 0x00, 0x81, 0x1F, 0x99, 0x2D, 0x4E, 0x01, 0x99, 
	0x2D, 0x00, 0x81, 0x0B, 0x91, 0x2B, 0x00, 0x00, 0x92, 0x43, 0x00, 0x00, 0x92, 0x47, 0x00, 0x00, 0x92, 0x4D, 0x00, 0x14, 0x99, 0x29, 0x5C, 0x01, 0x99, 0x29, 0x00, 0x81, 0x01, 0x95, 0x4D, 0x00, 0x00, 0x95, 0x59, 0x00, 0x1E, 0x91, 0x24, 0x79, 0x00, 0x92, 0x43, 0x76, 0x00, 0x92, 0x48, 0x76, 0x00, 0x92, 0x4C, 0x76, 0x00, 0x96, 0x40, 0x6F, 0x00, 0x96, 0x43, 0x6F, 0x00, 0x96, 0x48, 0x6F, 
	0x00, 0x99, 0x31, 0x4E, 0x00, 0x99, 0x24, 0x6A, 0x01, 0x99, 0x31, 0x00, 0x00, 0x99, 0x24, 0x00, 0x81, 0x6F, 0x92, 0x43, 0x00, 0x00, 0x92, 0x48, 0x00, 0x00, 0x92, 0x4C, 0x00, 0x3C, 0x91, 0x24, 0x00, 0x81, 0x34, 0x91, 0x24, 0x79, 0x00, 0x92, 0x43, 0x76, 0x00, 0x92, 0x48, 0x76, 0x00, 0x92, 0x4C, 0x76, 0x00, 0x93, 0x43, 0x7F, 0x00, 0x99, 0x2A, 0x4E, 0x00, 0x99, 0x28, 0x6A, 0x01, 0x99, 
	0x2A, 0x00, 0x00, 0x99, 0x28, 0x00, 0x81, 0x1F, 0x99, 0x2A, 0x32, 0x01, 0x99, 0x2A, 0x00, 0x4F, 0x92, 0x43, 0x00, 0x00, 0x92, 0x48, 0x00, 0x00, 0x92, 0x4C, 0x00, 0x3C, 0x91, 0x24, 0x00, 0x14, 0x94, 0x43, 0x7F, 0x00, 0x99, 0x2A, 0x32, 0x00, 0x99, 0x24, 0x4E, 0x01, 0x99, 0x2A, 0x00, 0x00, 0x99, 0x24, 0x00, 0x81, 0x1F, 0x91, 0x24, 0x79, 0x00, 0x92, 0x43, 0x76, 0x00, 0x92, 0x48, 0x76, 
	0x00, 0x92, 0x4C, 0x76, 0x00, 0x99, 0x2A, 0x4E, 0x00, 0x99, 0x24, 0x6A, 0x01, 0x99, 0x2A, 0x00, 0x00, 0x99, 0x24, 0x00, 0x81, 0x1F, 0x99, 0x2A, 0x32, 0x01, 0x99, 0x2A, 0x00, 0x4F, 0x92, 0x43, 0x00, 0x00, 0x92, 0x48, 0x00, 0x00, 0x92, 0x4C, 0x00, 0x3C, 0x93, 0x43, 0x00, 0x14, 0x93, 0x43, 0x74, 0x00, 0x99, 0x2A, 0x32, 0x00, 0x99, 0x24, 0x6A, 0x01, 0x99, 0x2A, 0x00, 0x00, 0x99, 0x24, 
	0x00, 0x81, 0x11, 0x93, 0x43, 0x00, 0x0E, 0x92, 0x43, 0x76, 0x00, 0x92, 0x48, 0x76, 0x00, 0x92, 0x4C, 0x76, 0x00, 0x93, 0x4C, 0x7F, 0x00, 0x99, 0x2A, 0x4E, 0x00, 0x99, 0x28, 0x6A, 0x01, 0x99, 0x2A, 0x00, 0x00, 0x99, 0x28, 0x00, 0x81, 0x0B, 0x94, 0x43, 0x00, 0x14, 0x94, 0x43, 0x74, 0x00, 0x99, 0x2A, 0x32, 0x01, 0x99, 0x2A, 0x00, 0x4F, 0x92, 0x43, 0x00, 0x00, 0x92, 0x48, 0x00, 0x00, 
	0x92, 0x4C, 0x00, 0x3C, 0x91, 0x24, 0x00, 0x00, 0x93, 0x4C, 0x00, 0x06, 0x94, 0x43, 0x00, 0x0E, 0x91, 0x23, 0x79, 0x00, 0x93, 0x4A, 0x7F, 0x00, 0x94, 0x4C, 0x7F, 0x00, 0x99, 0x2A, 0x32, 0x00, 0x99, 0x24, 0x4E, 0x01, 0x99, 0x2A, 0x00, 0x00, 0x99, 0x24, 0x00, 0x81, 0x0B, 0x96, 0x40, 0x00, 0x00, 0x96, 0x43, 0x00, 0x00, 0x96, 0x48, 0x00, 0x06, 0x91, 0x23, 0x00, 0x0E, 0x92, 0x43, 0x76, 
	0x00, 0x92, 0x47, 0x76, 0x00, 0x92, 0x4A, 0x76, 0x00, 0x96, 0x3E, 0x6F, 0x00, 0x96, 0x43, 0x6F, 0x00, 0x96, 0x47, 0x6F, 0x00, 0x99, 0x2A, 0x4E, 0x01, 0x99, 0x2A, 0x00, 0x81, 0x0B, 0x94, 0x4C, 0x00, 0x14, 0x94, 0x4A, 0x7F, 0x00, 0x99, 0x2A, 0x32, 0x01, 0x99, 0x2A, 0x00, 0x4F, 0x92, 0x43, 0x00, 0x00, 0x92, 0x47, 0x00, 0x00, 0x92, 0x4A, 0x00, 0x50, 0x91, 0x23, 0x79, 0x00, 0x99, 0x2A, 
	0x32, 0x00, 0x99, 0x24, 0x4E, 0x01, 0x99, 0x2A, 0x00, 0x00, 0x99, 0x24, 0x00, 0x81, 0x11, 0x91, 0x23, 0x00, 0x0E, 0x92, 0x43, 0x76, 0x00, 0x92, 0x47, 0x76, 0x00, 0x92, 0x4A, 0x76, 0x00, 0x99, 0x2A, 0x4E, 0x00, 0x99, 0x28, 0x6A, 0x01, 0x99, 0x2A, 0x00, 0x00, 0x99, 0x28, 0x00, 0x81, 0x1F, 0x99, 0x2A, 0x32, 0x01, 0x99, 0x2A, 0x00, 0x4F, 0x92, 0x43, 0x00, 0x00, 0x92, 0x47, 0x00, 0x00, 
	0x92, 0x4A, 0x00, 0x50, 0x91, 0x23, 0x79, 0x00, 0x99, 0x2A, 0x32, 0x00, 0x99, 0x24, 0x4E, 0x01, 0x99, 0x2A, 0x00, 0x00, 0x99, 0x24, 0x00, 0x77, 0x93, 0x4A, 0x00, 0x1A, 0x91, 0x23, 0x00, 0x0E, 0x91, 0x23, 0x79, 0x00, 0x92, 0x43, 0x76, 0x00, 0x92, 0x47, 0x76, 0x00, 0x92, 0x4A, 0x76, 0x00, 0x93, 0x47, 0x7F, 0x00, 0x99, 0x2A, 0x4E, 0x00, 0x99, 0x24, 0x6A, 0x01, 0x99, 0x2A, 0x00, 0x00, 
	0x99, 0x24, 0x00, 0x81, 0x11, 0x93, 0x47, 0x00, 0x0E, 0x93, 0x48, 0x7F, 0x00, 0x99, 0x2A, 0x32, 0x01, 0x99, 0x2A, 0x00, 0x4F, 0x92, 0x43, 0x00, 0x00, 0x92, 0x47, 0x00, 0x00, 0x92, 0x4A, 0x00, 0x28, 0x94, 0x4A, 0x00, 0x1A, 0x93, 0x48, 0x00, 0x0E, 0x93, 0x4A, 0x7F, 0x00, 0x94, 0x47, 0x7F, 0x00, 0x99, 0x2A, 0x32, 0x01, 0x99, 0x2A, 0x00, 0x81, 0x01, 0x91, 0x23, 0x00, 0x10, 0x93, 0x4A, 
	0x00, 0x00, 0x94, 0x47, 0x00, 0x0E, 0x91, 0x28, 0x79, 0x00, 0x92, 0x43, 0x76, 0x00, 0x92, 0x47, 0x76, 0x00, 0x92, 0x4A, 0x76, 0x00, 0x93, 0x4F, 0x7F, 0x00, 0x94, 0x48, 0x7F, 0x00, 0x99, 0x2E, 0x4E, 0x00, 0x99, 0x28, 0x6A, 0x01, 0x99, 0x2E, 0x00, 0x00, 0x99, 0x28, 0x00, 0x81, 0x11, 0x94, 0x48, 0x00, 0x0E, 0x94, 0x4A, 0x7F, 0x00, 0x99, 0x2A, 0x4E, 0x01, 0x99, 0x2A, 0x00, 0x4F, 0x92, 
	0x43, 0x00, 0x00, 0x92, 0x47, 0x00, 0x00, 0x92, 0x4A, 0x00, 0x3C, 0x93, 0x4F, 0x00, 0x06, 0x94, 0x4A, 0x00, 0x0E, 0x93, 0x48, 0x7F, 0x00, 0x94, 0x4F, 0x7F, 0x00, 0x99, 0x2A, 0x32, 0x01, 0x99, 0x2A, 0x00, 0x81, 0x01, 0x91, 0x28, 0x00, 0x0A, 0x96, 0x3E, 0x00, 0x00, 0x96, 0x43, 0x00, 0x00, 0x96, 0x47, 0x00, 0x14, 0x91, 0x29, 0x79, 0x00, 0x92, 0x41, 0x76, 0x00, 0x92, 0x45, 0x76, 0x00, 
	0x92, 0x48, 0x76, 0x00, 0x96, 0x41, 0x6F, 0x00, 0x96, 0x45, 0x6F, 0x00, 0x96, 0x48, 0x6F, 0x00, 0x99, 0x2A, 0x4E, 0x00, 0x99, 0x24, 0x6A, 0x01, 0x99, 0x2A, 0x00, 0x00, 0x99, 0x24, 0x00, 0x81, 0x0B, 0x94, 0x4F, 0x00, 0x14, 0x94, 0x48, 0x7F, 0x00, 0x99, 0x2A, 0x32, 0x01, 0x99, 0x2A, 0x00, 0x4F, 0x92, 0x41, 0x00, 0x00, 0x92, 0x45, 0x00, 0x00, 0x92, 0x48, 0x00, 0x3C, 0x91, 0x29, 0x00, 
	0x14, 0x99, 0x2A, 0x32, 0x01, 0x99, 0x2A, 0x00, 0x81, 0x1F, 0x91, 0x29, 0x79, 0x00, 0x92, 0x41, 0x76, 0x00, 0x92, 0x45, 0x76, 0x00, 0x92, 0x48, 0x76, 0x00, 0x99, 0x2A, 0x4E, 0x00, 0x99, 0x28, 0x6A, 0x01, 0x99, 0x2A, 0x00, 0x00, 0x99, 0x28, 0x00, 0x81, 0x1F, 0x99, 0x2A, 0x32, 0x01, 0x99, 0x2A, 0x00, 0x4F, 0x92, 0x41, 0x00, 0x00, 0x92, 0x45, 0x00, 0x00, 0x92, 0x48, 0x00, 0x3C, 0x91, 
	0x29, 0x00, 0x14, 0x99, 0x2A, 0x32, 0x00, 0x99, 0x24, 0x4E, 0x01, 0x99, 0x2A, 0x00, 0x00, 0x99, 0x24, 0x00, 0x81, 0x1F, 0x91, 0x29, 0x79, 0x00, 0x92, 0x41, 0x76, 0x00, 0x92, 0x45, 0x76, 0x00, 0x92, 0x48, 0x76, 0x00, 0x99, 0x2A, 0x4E, 0x00, 0x99, 0x24, 0x6A, 0x01, 0x99, 0x2A, 0x00, 0x00, 0x99, 0x24, 0x00, 0x81, 0x1F, 0x99, 0x2A, 0x32, 0x01, 0x99, 0x2A, 0x00, 0x4F, 0x92, 0x41, 0x00, 
	0x00, 0x92, 0x45, 0x00, 0x00, 0x92, 0x48, 0x00, 0x50, 0x99, 0x2A, 0x32, 0x00, 0x99, 0x24, 0x6A, 0x01, 0x99, 0x2A, 0x00, 0x00, 0x99, 0x24, 0x00, 0x81, 0x0B, 0x93, 0x48, 0x00, 0x14, 0x92, 0x41, 0x76, 0x00, 0x92, 0x45, 0x76, 0x00, 0x92, 0x48, 0x76, 0x00, 0x93, 0x48, 0x7F, 0x00, 0x99, 0x2A, 0x4E, 0x00, 0x99, 0x28, 0x6A, 0x01, 0x99, 0x2A, 0x00, 0x00, 0x99, 0x28, 0x00, 0x81, 0x11, 0x93, 
	0x48, 0x00, 0x0E, 0x93, 0x47, 0x7F, 0x00, 0x99, 0x2A, 0x32, 0x01, 0x99, 0x2A, 0x00, 0x4F, 0x92, 0x41, 0x00, 0x00, 0x92, 0x45, 0x00, 0x00, 0x92, 0x48, 0x00, 0x3C, 0x91, 0x29, 0x00, 0x00, 0x94, 0x48, 0x00, 0x06, 0x93, 0x47, 0x00, 0x0E, 0x91, 0x2B, 0x79, 0x00, 0x93, 0x45, 0x7F, 0x00, 0x94, 0x48, 0x7F, 0x00, 0x99, 0x2A, 0x32, 0x00, 0x99, 0x24, 0x4E, 0x01, 0x99, 0x2A, 0x00, 0x00, 0x99, 
	0x24, 0x00, 0x81, 0x0B, 0x96, 0x41, 0x00, 0x00, 0x96, 0x45, 0x00, 0x00, 0x96, 0x48, 0x00, 0x06, 0x91, 0x2B, 0x00, 0x00, 0x93, 0x45, 0x00, 0x00, 0x94, 0x48, 0x00, 0x0E, 0x92, 0x43, 0x76, 0x00, 0x92, 0x47, 0x76, 0x00, 0x92, 0x4A, 0x76, 0x00, 0x93, 0x47, 0x7F, 0x00, 0x94, 0x47, 0x7F, 0x00, 0x96, 0x43, 0x6F, 0x00, 0x96, 0x47, 0x6F, 0x00, 0x96, 0x4A, 0x6F, 0x00, 0x99, 0x2A, 0x4E, 0x01, 
	0x99, 0x2A, 0x00, 0x81, 0x11, 0x94, 0x47, 0x00, 0x0E, 0x94, 0x45, 0x7F, 0x00, 0x99, 0x2A, 0x32, 0x01, 0x99, 0x2A, 0x00, 0x4F, 0x92, 0x43, 0x00, 0x00, 0x92, 0x47, 0x00, 0x00, 0x92, 0x4A, 0x00, 0x42, 0x94, 0x45, 0x00, 0x0E, 0x91, 0x2B, 0x79, 0x00, 0x94, 0x47, 0x7F, 0x00, 0x99, 0x2A, 0x32, 0x00, 0x99, 0x24, 0x4E, 0x01, 0x99, 0x2A, 0x00, 0x00, 0x99, 0x24, 0x00, 0x81, 0x01, 0x93, 0x47, 
	0x00, 0x10, 0x91, 0x2B, 0x00, 0x0E, 0x92, 0x43, 0x76, 0x00, 0x92, 0x47, 0x76, 0x00, 0x92, 0x4A, 0x76, 0x00, 0x93, 0x48, 0x7F, 0x00, 0x99, 0x2A, 0x4E, 0x00, 0x99, 0x28, 0x6A, 0x01, 0x99, 0x2A, 0x00, 0x00, 0x99, 0x28, 0x00, 0x81, 0x1F, 0x99, 0x2A, 0x32, 0x01, 0x99, 0x2A, 0x00, 0x4F, 0x92, 0x43, 0x00, 0x00, 0x92, 0x47, 0x00, 0x00, 0x92, 0x4A, 0x00, 0x32, 0x94, 0x47, 0x00, 0x1E, 0x91, 
	0x2B, 0x79, 0x00, 0x94, 0x48, 0x7F, 0x00, 0x99, 0x2A, 0x32, 0x00, 0x99, 0x24, 0x4E, 0x01, 0x99, 0x2A, 0x00, 0x00, 0x99, 0x24, 0x00, 0x81, 0x01, 0x93, 0x48, 0x00, 0x10, 0x91, 0x2B, 0x00, 0x0E, 0x91, 0x2B, 0x79, 0x00, 0x92, 0x43, 0x76, 0x00, 0x92, 0x47, 0x76, 0x00, 0x92, 0x4A, 0x76, 0x00, 0x93, 0x4A, 0x7F, 0x00, 0x99, 0x2A, 0x4E, 0x00, 0x99, 0x24, 0x6A, 0x01, 0x99, 0x2A, 0x00, 0x00, 
	0x99, 0x24, 0x00, 0x81, 0x1F, 0x99, 0x2A, 0x32, 0x01, 0x99, 0x2A, 0x00, 0x4F, 0x92, 0x43, 0x00, 0x00, 0x92, 0x47, 0x00, 0x00, 0x92, 0x4A, 0x00, 0x32, 0x94, 0x48, 0x00, 0x0A, 0x93, 0x4A, 0x00, 0x14, 0x93, 0x4C, 0x7F, 0x00, 0x94, 0x4A, 0x7F, 0x00, 0x99, 0x2A, 0x32, 0x01, 0x99, 0x2A, 0x00, 0x81, 0x01, 0x91, 0x2B, 0x00, 0x1E, 0x91, 0x23, 0x79, 0x00, 0x92, 0x43, 0x76, 0x00, 0x92, 0x47, 
	0x76, 0x00, 0x92, 0x4A, 0x76, 0x00, 0x99, 0x2A, 0x4E, 0x00, 0x99, 0x28, 0x6A, 0x01, 0x99, 0x2A, 0x00, 0x00, 0x99, 0x28, 0x00, 0x81, 0x0B, 0x94, 0x4A, 0x00, 0x14, 0x94, 0x4C, 0x7F, 0x00, 0x99, 0x2A, 0x32, 0x01, 0x99, 0x2A, 0x00, 0x4F, 0x92, 0x43, 0x00, 0x00, 0x92, 0x47, 0x00, 0x00, 0x92, 0x4A, 0x00, 0x3C, 0x93, 0x4C, 0x00, 0x14, 0x93, 0x48, 0x7F, 0x00, 0x99, 0x2A, 0x32, 0x01, 0x99, 
	0x2A, 0x00, 0x81, 0x01, 0x91, 0x23, 0x00, 0x0A, 0x96, 0x43, 0x00, 0x00, 0x96, 0x47, 0x00, 0x00, 0x96, 0x4A, 0x00, 0x14, 0x91, 0x24, 0x79, 0x00, 0x92, 0x43, 0x76, 0x00, 0x92, 0x48, 0x76, 0x00, 0x92, 0x4C, 0x76, 0x00, 0x96, 0x40, 0x6F, 0x00, 0x96, 0x43, 0x6F, 0x00, 0x96, 0x48, 0x6F, 0x00, 0x99, 0x2A, 0x4E, 0x00, 0x99, 0x24, 0x6A, 0x01, 0x99, 0x2A, 0x00, 0x00, 0x99, 0x24, 0x00, 0x81, 
	0x0B, 0x94, 0x4C, 0x00, 0x14, 0x94, 0x48, 0x7F, 0x00, 0x99, 0x2A, 0x32, 0x01, 0x99, 0x2A, 0x00, 0x4F, 0x92, 0x43, 0x00, 0x00, 0x92, 0x48, 0x00, 0x00, 0x92, 0x4C, 0x00, 0x3C, 0x91, 0x24, 0x00, 0x14, 0x99, 0x2A, 0x32, 0x01, 0x99, 0x2A, 0x00, 0x81, 0x1F, 0x91, 0x24, 0x79, 0x00, 0x92, 0x43, 0x76, 0x00, 0x92, 0x48, 0x76, 0x00, 0x92, 0x4C, 0x76, 0x00, 0x99, 0x2A, 0x4E, 0x00, 0x99, 0x28, 
	0x6A, 0x01, 0x99, 0x2A, 0x00, 0x00, 0x99, 0x28, 0x00, 0x81, 0x1F, 0x99, 0x2A, 0x32, 0x01, 0x99, 0x2A, 0x00, 0x4F, 0x92, 0x43, 0x00, 0x00, 0x92, 0x48, 0x00, 0x00, 0x92, 0x4C, 0x00, 0x3C, 0x91, 0x24, 0x00, 0x14, 0x99, 0x2A, 0x32, 0x00, 0x99, 0x24, 0x4E, 0x01, 0x99, 0x2A, 0x00, 0x00, 0x99, 0x24, 0x00, 0x77, 0x93, 0x48, 0x00, 0x28, 0x91, 0x24, 0x79, 0x00, 0x92, 0x43, 0x76, 0x00, 0x92, 
	0x48, 0x76, 0x00, 0x92, 0x4C, 0x76, 0x00, 0x93, 0x43, 0x7F, 0x00, 0x99, 0x2A, 0x4E, 0x00, 0x99, 0x24, 0x6A, 0x01, 0x99, 0x2A, 0x00, 0x00, 0x99, 0x24, 0x00, 0x81, 0x1F, 0x99, 0x2A, 0x32, 0x01, 0x99, 0x2A, 0x00, 0x4F, 0x92, 0x43, 0x00, 0x00, 0x92, 0x48, 0x00, 0x00, 0x92, 0x4C, 0x00, 0x28, 0x94, 0x48, 0x00, 0x14, 0x93, 0x43, 0x00, 0x14, 0x93, 0x45, 0x7F, 0x00, 0x94, 0x43, 0x7F, 0x00, 
	0x99, 0x2A, 0x32, 0x00, 0x99, 0x24, 0x6A, 0x01, 0x99, 0x2A, 0x00, 0x00, 0x99, 0x24, 0x00, 0x81, 0x11, 0x93, 0x45, 0x00, 0x0E, 0x92, 0x43, 0x76, 0x00, 0x92, 0x48, 0x76, 0x00, 0x92, 0x4C, 0x76, 0x00, 0x93, 0x51, 0x7F, 0x00, 0x99, 0x2A, 0x4E, 0x00, 0x99, 0x28, 0x6A, 0x01, 0x99, 0x2A, 0x00, 0x00, 0x99, 0x28, 0x00, 0x81, 0x0B, 0x94, 0x43, 0x00, 0x14, 0x94, 0x45, 0x7F, 0x00, 0x99, 0x2A, 
	0x32, 0x01, 0x99, 0x2A, 0x00, 0x4F, 0x92, 0x43, 0x00, 0x00, 0x92, 0x48, 0x00, 0x00, 0x92, 0x4C, 0x00, 0x3C, 0x91, 0x24, 0x00, 0x00, 0x93, 0x51, 0x00, 0x06, 0x94, 0x45, 0x00, 0x0E, 0x91, 0x23, 0x79, 0x00, 0x93, 0x4F, 0x7F, 0x00, 0x94, 0x51, 0x7F, 0x00, 0x99, 0x2A, 0x32, 0x00, 0x99, 0x24, 0x4E, 0x01, 0x99, 0x2A, 0x00, 0x00, 0x99, 0x24, 0x00, 0x81, 0x0B, 0x96, 0x40, 0x00, 0x00, 0x96, 
	0x43, 0x00, 0x00, 0x96, 0x48, 0x00, 0x06, 0x91, 0x23, 0x00, 0x0E, 0x92, 0x43, 0x76, 0x00, 0x92, 0x47, 0x76, 0x00, 0x92, 0x4C, 0x76, 0x00, 0x96, 0x3E, 0x6F, 0x00, 0x96, 0x43, 0x6F, 0x00, 0x96, 0x47, 0x6F, 0x00, 0x99, 0x2A, 0x4E, 0x01, 0x99, 0x2A, 0x00, 0x81, 0x0B, 0x94, 0x51, 0x00, 0x14, 0x94, 0x4F, 0x7F, 0x00, 0x99, 0x2A, 0x32, 0x01, 0x99, 0x2A, 0x00, 0x4F, 0x92, 0x43, 0x00, 0x00, 
	0x92, 0x47, 0x00, 0x00, 0x92, 0x4C, 0x00, 0x50, 0x91, 0x23, 0x79, 0x00, 0x99, 0x2A, 0x32, 0x00, 0x99, 0x24, 0x4E, 0x01, 0x99, 0x2A, 0x00, 0x00, 0x99, 0x24, 0x00, 0x81, 0x11, 0x91, 0x23, 0x00, 0x0E, 0x92, 0x43, 0x76, 0x00, 0x92, 0x47, 0x76, 0x00, 0x92, 0x4C, 0x76, 0x00, 0x99, 0x2A, 0x4E, 0x00, 0x99, 0x28, 0x6A, 0x01, 0x99, 0x2A, 0x00, 0x00, 0x99, 0x28, 0x00, 0x81, 0x1F, 0x99, 0x2A, 
	0x32, 0x01, 0x99, 0x2A, 0x00, 0x4F, 0x92, 0x43, 0x00, 0x00, 0x92, 0x47, 0x00, 0x00, 0x92, 0x4C, 0x00, 0x50, 0x91, 0x23, 0x79, 0x00, 0x99, 0x2A, 0x32, 0x00, 0x99, 0x24, 0x4E, 0x01, 0x99, 0x2A, 0x00, 0x00, 0x99, 0x24, 0x00, 0x81, 0x11, 0x91, 0x23, 0x00, 0x0E, 0x91, 0x23, 0x79, 0x00, 0x92, 0x43, 0x76, 0x00, 0x92, 0x47, 0x76, 0x00, 0x92, 0x4C, 0x76, 0x00, 0x99, 0x2A, 0x4E, 0x00, 0x99, 
	0x24, 0x6A, 0x01, 0x99, 0x2A, 0x00, 0x00, 0x99, 0x24, 0x00, 0x81, 0x1F, 0x99, 0x2A, 0x32, 0x01, 0x99, 0x2A, 0x00, 0x4F, 0x92, 0x43, 0x00, 0x00, 0x92, 0x47, 0x00, 0x00, 0x92, 0x4C, 0x00, 0x3C, 0x93, 0x4F, 0x00, 0x14, 0x93, 0x4C, 0x7F, 0x00, 0x99, 0x2A, 0x32, 0x01, 0x99, 0x2A, 0x00, 0x81, 0x01, 0x91, 0x23, 0x00, 0x10, 0x93, 0x4C, 0x00, 0x0E, 0x91, 0x28, 0x79, 0x00, 0x92, 0x43, 0x76, 
	0x00, 0x92, 0x47, 0x76, 0x00, 0x92, 0x4C, 0x76, 0x00, 0x93, 0x4D, 0x7F, 0x00, 0x99, 0x2A, 0x4E, 0x00, 0x99, 0x28, 0x6A, 0x01, 0x99, 0x2A, 0x00, 0x00, 0x99, 0x28, 0x00, 0x81, 0x0B, 0x94, 0x4F, 0x00, 0x14, 0x94, 0x4C, 0x7F, 0x00, 0x99, 0x2A, 0x32, 0x01, 0x99, 0x2A, 0x00, 0x4F, 0x92, 0x43, 0x00, 0x00, 0x92, 0x47, 0x00, 0x00, 0x92, 0x4C, 0x00, 0x3C, 0x93, 0x4D, 0x00, 0x06, 0x94, 0x4C, 
	0x00, 0x0E, 0x93, 0x4F, 0x7F, 0x00, 0x94, 0x4D, 0x7F, 0x00, 0x99, 0x2A, 0x32, 0x01, 0x99, 0x2A, 0x00, 0x81, 0x01, 0x91, 0x28, 0x00, 0x0A, 0x96, 0x3E, 0x00, 0x00, 0x96, 0x43, 0x00, 0x00, 0x96, 0x47, 0x00, 0x14, 0x91, 0x29, 0x79, 0x00, 0x92, 0x45, 0x76, 0x00, 0x92, 0x48, 0x76, 0x00, 0x92, 0x4D, 0x76, 0x00, 0x96, 0x41, 0x6F, 0x00, 0x96, 0x45, 0x6F, 0x00, 0x96, 0x48, 0x6F, 0x00, 0x99, 
	0x2A, 0x4E, 0x00, 0x99, 0x24, 0x6A, 0x01, 0x99, 0x2A, 0x00, 0x00, 0x99, 0x24, 0x00, 0x81, 0x0B, 0x94, 0x4D, 0x00, 0x14, 0x94, 0x4F, 0x7F, 0x00, 0x99, 0x2A, 0x32, 0x01, 0x99, 0x2A, 0x00, 0x4F, 0x92, 0x45, 0x00, 0x00, 0x92, 0x48, 0x00, 0x00, 0x92, 0x4D, 0x00, 0x3C, 0x91, 0x29, 0x00, 0x14, 0x99, 0x2A, 0x32, 0x01, 0x99, 0x2A, 0x00, 0x81, 0x01, 0x93, 0x4F, 0x00, 0x1E, 0x91, 0x29, 0x79, 
	0x00, 0x92, 0x45, 0x76, 0x00, 0x92, 0x48, 0x76, 0x00, 0x92, 0x4D, 0x76, 0x00, 0x93, 0x48, 0x7F, 0x00, 0x99, 0x2A, 0x4E, 0x00, 0x99, 0x28, 0x6A, 0x01, 0x99, 0x2A, 0x00, 0x00, 0x99, 0x28, 0x00, 0x81, 0x1F, 0x99, 0x2A, 0x32, 0x01, 0x99, 0x2A, 0x00, 0x4F, 0x92, 0x45, 0x00, 0x00, 0x92, 0x48, 0x00, 0x00, 0x92, 0x4D, 0x00, 0x32, 0x94, 0x4F, 0x00, 0x0A, 0x91, 0x29, 0x00, 0x14, 0x94, 0x48, 
	0x7F, 0x00, 0x99, 0x2A, 0x32, 0x00, 0x99, 0x24, 0x4E, 0x01, 0x99, 0x2A, 0x00, 0x00, 0x99, 0x24, 0x00, 0x81, 0x01, 0x93, 0x48, 0x00, 0x1E, 0x91, 0x29, 0x79, 0x00, 0x92, 0x45, 0x76, 0x00, 0x92, 0x48, 0x76, 0x00, 0x92, 0x4D, 0x76, 0x00, 0x93, 0x48, 0x7F, 0x00, 0x99, 0x2A, 0x4E, 0x00, 0x99, 0x24, 0x6A, 0x01, 0x99, 0x2A, 0x00, 0x00, 0x99, 0x24, 0x00, 0x81, 0x1F, 0x99, 0x2A, 0x32, 0x01, 
	0x99, 0x2A, 0x00, 0x4F, 0x92, 0x45, 0x00, 0x00, 0x92, 0x48, 0x00, 0x00, 0x92, 0x4D, 0x00, 0x32, 0x94, 0x48, 0x00, 0x1E, 0x94, 0x48, 0x7F, 0x00, 0x99, 0x2A, 0x32, 0x00, 0x99, 0x24, 0x6A, 0x01, 0x99, 0x2A, 0x00, 0x00, 0x99, 0x24, 0x00, 0x81, 0x01, 0x93, 0x48, 0x00, 0x1E, 0x92, 0x45, 0x76, 0x00, 0x92, 0x48, 0x76, 0x00, 0x92, 0x4D, 0x76, 0x00, 0x93, 0x4C, 0x7F, 0x00, 0x99, 0x2A, 0x4E, 
	0x00, 0x99, 0x28, 0x6A, 0x01, 0x99, 0x2A, 0x00, 0x00, 0x99, 0x28, 0x00, 0x81, 0x1F, 0x99, 0x2A, 0x32, 0x01, 0x99, 0x2A, 0x00, 0x4F, 0x92, 0x45, 0x00, 0x00, 0x92, 0x48, 0x00, 0x00, 0x92, 0x4D, 0x00, 0x32, 0x94, 0x48, 0x00, 0x0A, 0x91, 0x29, 0x00, 0x00, 0x93, 0x4C, 0x00, 0x14, 0x91, 0x2B, 0x79, 0x00, 0x93, 0x4A, 0x7F, 0x00, 0x94, 0x4C, 0x7F, 0x00, 0x99, 0x2A, 0x32, 0x00, 0x99, 0x24, 
	0x4E, 0x01, 0x99, 0x2A, 0x00, 0x00, 0x99, 0x24, 0x00, 0x81, 0x0B, 0x96, 0x41, 0x00, 0x00, 0x96, 0x45, 0x00, 0x00, 0x96, 0x48, 0x00, 0x06, 0x91, 0x2B, 0x00, 0x0E, 0x92, 0x47, 0x76, 0x00, 0x92, 0x4A, 0x76, 0x00, 0x92, 0x4F, 0x76, 0x00, 0x96, 0x43, 0x6F, 0x00, 0x96, 0x47, 0x6F, 0x00, 0x96, 0x4A, 0x6F, 0x00, 0x99, 0x2A, 0x4E, 0x01, 0x99, 0x2A, 0x00, 0x81, 0x0B, 0x94, 0x4C, 0x00, 0x14, 
	0x94, 0x4A, 0x7F, 0x00, 0x99, 0x2A, 0x32, 0x01, 0x99, 0x2A, 0x00, 0x4F, 0x92, 0x47, 0x00, 0x00, 0x92, 0x4A, 0x00, 0x00, 0x92, 0x4F, 0x00, 0x50, 0x91, 0x2B, 0x79, 0x00, 0x99, 0x2A, 0x32, 0x00, 0x99, 0x24, 0x4E, 0x01, 0x99, 0x2A, 0x00, 0x00, 0x99, 0x24, 0x00, 0x81, 0x11, 0x91, 0x2B, 0x00, 0x0E, 0x92, 0x47, 0x76, 0x00, 0x92, 0x4A, 0x76, 0x00, 0x92, 0x4F, 0x76, 0x00, 0x99, 0x2A, 0x4E, 
	0x00, 0x99, 0x28, 0x6A, 0x01, 0x99, 0x2A, 0x00, 0x00, 0x99, 0x28, 0x00, 0x81, 0x1F, 0x99, 0x2A, 0x32, 0x01, 0x99, 0x2A, 0x00, 0x4F, 0x92, 0x47, 0x00, 0x00, 0x92, 0x4A, 0x00, 0x00, 0x92, 0x4F, 0x00, 0x50, 0x91, 0x2B, 0x79, 0x00, 0x99, 0x2A, 0x32, 0x00, 0x99, 0x24, 0x4E, 0x01, 0x99, 0x2A, 0x00, 0x00, 0x99, 0x24, 0x00, 0x81, 0x11, 0x91, 0x2B, 0x00, 0x0E, 0x91, 0x2B, 0x79, 0x00, 0x92, 
	0x47, 0x76, 0x00, 0x92, 0x4A, 0x76, 0x00, 0x92, 0x4F, 0x76, 0x00, 0x99, 0x2A, 0x4E, 0x00, 0x99, 0x24, 0x6A, 0x01, 0x99, 0x2A, 0x00, 0x00, 0x99, 0x24, 0x00, 0x81, 0x1F, 0x99, 0x2A, 0x32, 0x01, 0x99, 0x2A, 0x00, 0x4F, 0x92, 0x47, 0x00, 0x00, 0x92, 0x4A, 0x00, 0x00, 0x92, 0x4F, 0x00, 0x3C, 0x93, 0x4A, 0x00, 0x14, 0x93, 0x48, 0x7F, 0x00, 0x99, 0x2A, 0x32, 0x01, 0x99, 0x2A, 0x00, 0x81, 
	0x11, 0x93, 0x48, 0x00, 0x0E, 0x92, 0x47, 0x76, 0x00, 0x92, 0x4A, 0x76, 0x00, 0x92, 0x4F, 0x76, 0x00, 0x93, 0x47, 0x7F, 0x00, 0x99, 0x2A, 0x4E, 0x00, 0x99, 0x28, 0x6A, 0x01, 0x99, 0x2A, 0x00, 0x00, 0x99, 0x28, 0x00, 0x81, 0x0B, 0x94, 0x4A, 0x00, 0x14, 0x94, 0x48, 0x7F, 0x00, 0x99, 0x2A, 0x32, 0x01, 0x99, 0x2A, 0x00, 0x4F, 0x92, 0x47, 0x00, 0x00, 0x92, 0x4A, 0x00, 0x00, 0x92, 0x4F, 
	0x00, 0x3C, 0x93, 0x47, 0x00, 0x06, 0x94, 0x48, 0x00, 0x0E, 0x93, 0x48, 0x7F, 0x00, 0x94, 0x47, 0x7F, 0x00, 0x99, 0x2A, 0x32, 0x01, 0x99, 0x2A, 0x00, 0x77, 0x91, 0x2B, 0x00, 0x14, 0x96, 0x43, 0x00, 0x00, 0x96, 0x47, 0x00, 0x00, 0x96, 0x4A, 0x00, 0x14, 0x91, 0x29, 0x79, 0x00, 0x92, 0x35, 0x76, 0x00, 0x95, 0x4C, 0x63, 0x00, 0x95, 0x58, 0x79, 0x00, 0x96, 0x41, 0x6F, 0x00, 0x96, 0x45, 
	0x6F, 0x00, 0x96, 0x48, 0x6F, 0x00, 0x99, 0x2A, 0x4E, 0x00, 0x99, 0x24, 0x6A, 0x01, 0x99, 0x2A, 0x00, 0x00, 0x99, 0x24, 0x00, 0x13, 0x92, 0x45, 0x76, 0x14, 0x92, 0x48, 0x76, 0x14, 0x92, 0x4D, 0x76, 0x50, 0x94, 0x47, 0x00, 0x14, 0x94, 0x48, 0x7F, 0x00, 0x99, 0x2A, 0x32, 0x01, 0x99, 0x2A, 0x00, 0x81, 0x1F, 0x99, 0x2A, 0x32, 0x01, 0x99, 0x2A, 0x00, 0x81, 0x1F, 0x97, 0x48, 0x63, 0x00, 
	0x97, 0x51, 0x7F, 0x00, 0x99, 0x2A, 0x4E, 0x00, 0x99, 0x28, 0x6A, 0x01, 0x99, 0x2A, 0x00, 0x00, 0x99, 0x28, 0x00, 0x81, 0x1F, 0x99, 0x2A, 0x32, 0x01, 0x99, 0x2A, 0x00, 0x81, 0x1F, 0x99, 0x2A, 0x32, 0x00, 0x99, 0x24, 0x4E, 0x01, 0x99, 0x2A, 0x00, 0x00, 0x99, 0x24, 0x00, 0x81, 0x01, 0x97, 0x48, 0x00, 0x00, 0x97, 0x51, 0x00, 0x1E, 0x97, 0x4C, 0x63, 0x00, 0x97, 0x54, 0x7F, 0x00, 0x99, 
	0x2A, 0x4E, 0x00, 0x99, 0x24, 0x6A, 0x01, 0x99, 0x2A, 0x00, 0x00, 0x99, 0x24, 0x00, 0x81, 0x1F, 0x99, 0x2A, 0x32, 0x01, 0x99, 0x2A, 0x00, 0x81, 0x1F, 0x99, 0x2A, 0x32, 0x00, 0x99, 0x24, 0x6A, 0x01, 0x99, 0x2A, 0x00, 0x00, 0x99, 0x24, 0x00, 0x81, 0x01, 0x97, 0x4C, 0x00, 0x00, 0x97, 0x54, 0x00, 0x1E, 0x97, 0x4F, 0x63, 0x00, 0x97, 0x58, 0x7F, 0x00, 0x99, 0x2A, 0x4E, 0x00, 0x99, 0x28, 
	0x6A, 0x01, 0x99, 0x2A, 0x00, 0x00, 0x99, 0x28, 0x00, 0x81, 0x1F, 0x99, 0x2A, 0x32, 0x01, 0x99, 0x2A, 0x00, 0x81, 0x1F, 0x99, 0x2A, 0x32, 0x00, 0x99, 0x24, 0x4E, 0x01, 0x99, 0x2A, 0x00, 0x00, 0x99, 0x24, 0x00, 0x81, 0x01, 0x97, 0x4F, 0x00, 0x00, 0x97, 0x58, 0x00, 0x0A, 0x91, 0x29, 0x00, 0x00, 0x95, 0x4C, 0x00, 0x00, 0x95, 0x58, 0x00, 0x00, 0x96, 0x41, 0x00, 0x00, 0x96, 0x45, 0x00, 
	0x00, 0x96, 0x48, 0x00, 0x14, 0x91, 0x2B, 0x79, 0x00, 0x92, 0x35, 0x00, 0x00, 0x92, 0x45, 0x00, 0x00, 0x92, 0x48, 0x00, 0x00, 0x92, 0x4D, 0x00, 0x00, 0x92, 0x37, 0x76, 0x00, 0x95, 0x4A, 0x63, 0x00, 0x95, 0x56, 0x79, 0x00, 0x96, 0x43, 0x6F, 0x00, 0x96, 0x47, 0x6F, 0x00, 0x96, 0x4A, 0x6F, 0x00, 0x97, 0x4D, 0x63, 0x00, 0x97, 0x56, 0x7F, 0x00, 0x99, 0x2A, 0x4E, 0x01, 0x99, 0x2A, 0x00, 
	0x13, 0x92, 0x47, 0x76, 0x14, 0x92, 0x4A, 0x76, 0x14, 0x92, 0x4F, 0x76, 0x64, 0x99, 0x2A, 0x32, 0x01, 0x99, 0x2A, 0x00, 0x81, 0x1F, 0x99, 0x2A, 0x32, 0x00, 0x99, 0x24, 0x4E, 0x01, 0x99, 0x2A, 0x00, 0x00, 0x99, 0x24, 0x00, 0x81, 0x01, 0x93, 0x48, 0x00, 0x1E, 0x93, 0x48, 0x7F, 0x00, 0x99, 0x2A, 0x4E, 0x00, 0x99, 0x28, 0x6A, 0x01, 0x99, 0x2A, 0x00, 0x00, 0x99, 0x28, 0x00, 0x81, 0x1F, 
	0x99, 0x2A, 0x32, 0x01, 0x99, 0x2A, 0x00, 0x81, 0x01, 0x94, 0x48, 0x00, 0x1E, 0x94, 0x48, 0x7F, 0x00, 0x99, 0x2A, 0x32, 0x00, 0x99, 0x24, 0x4E, 0x01, 0x99, 0x2A, 0x00, 0x00, 0x99, 0x24, 0x00, 0x77, 0x95, 0x4A, 0x00, 0x00, 0x95, 0x56, 0x00, 0x0A, 0x93, 0x48, 0x00, 0x1E, 0x93, 0x4A, 0x7F, 0x00, 0x95, 0x45, 0x63, 0x00, 0x95, 0x51, 0x79, 0x00, 0x99, 0x2A, 0x4E, 0x00, 0x99, 0x24, 0x6A, 
	0x01, 0x99, 0x2A, 0x00, 0x00, 0x99, 0x24, 0x00, 0x81, 0x1F, 0x99, 0x2A, 0x32, 0x01, 0x99, 0x2A, 0x00, 0x81, 0x01, 0x94, 0x48, 0x00, 0x0A, 0x93, 0x4A, 0x00, 0x14, 0x93, 0x48, 0x7F, 0x00, 0x94, 0x4A, 0x7F, 0x00, 0x99, 0x2A, 0x32, 0x01, 0x99, 0x2A, 0x00, 0x81, 0x1F, 0x99, 0x2A, 0x4E, 0x00, 0x99, 0x28, 0x6A, 0x01, 0x99, 0x2A, 0x00, 0x00, 0x99, 0x28, 0x00, 0x81, 0x0B, 0x94, 0x4A, 0x00, 
	0x14, 0x94, 0x48, 0x7F, 0x00, 0x99, 0x2A, 0x32, 0x01, 0x99, 0x2A, 0x00, 0x81, 0x0B, 0x93, 0x48, 0x00, 0x14, 0x93, 0x4A, 0x7F, 0x00, 0x99, 0x2A, 0x32, 0x01, 0x99, 0x2A, 0x00, 0x77, 0x95, 0x45, 0x00, 0x00, 0x95, 0x51, 0x00, 0x14, 0x91, 0x2B, 0x00, 0x00, 0x96, 0x43, 0x00, 0x00, 0x96, 0x47, 0x00, 0x00, 0x96, 0x4A, 0x00, 0x00, 0x97, 0x4D, 0x00, 0x00, 0x97, 0x56, 0x00, 0x06, 0x93, 0x4A, 
	0x00, 0x0E, 0x91, 0x24, 0x79, 0x00, 0x92, 0x37, 0x00, 0x00, 0x92, 0x47, 0x00, 0x00, 0x92, 0x4A, 0x00, 0x00, 0x92, 0x4F, 0x00, 0x00, 0x92, 0x43, 0x76, 0x00, 0x92, 0x48, 0x76, 0x00, 0x92, 0x4C, 0x76, 0x00, 0x93, 0x4F, 0x7F, 0x00, 0x95, 0x48, 0x63, 0x00, 0x95, 0x54, 0x79, 0x00, 0x96, 0x40, 0x6F, 0x00, 0x96, 0x43, 0x6F, 0x00, 0x96, 0x48, 0x6F, 0x00, 0x99, 0x31, 0x4E, 0x00, 0x99, 0x24, 
	0x6A, 0x01, 0x99, 0x31, 0x00, 0x00, 0x99, 0x24, 0x00, 0x81, 0x0B, 0x94, 0x48, 0x00, 0x14, 0x94, 0x4A, 0x7F, 0x50, 0x92, 0x43, 0x00, 0x00, 0x92, 0x48, 0x00, 0x00, 0x92, 0x4C, 0x00, 0x3C, 0x91, 0x24, 0x00, 0x06, 0x94, 0x4A, 0x00, 0x0E, 0x94, 0x4F, 0x7F, 0x81, 0x02, 0x93, 0x4F, 0x00, 0x1E, 0x91, 0x24, 0x79, 0x00, 0x92, 0x43, 0x76, 0x00, 0x92, 0x48, 0x76, 0x00, 0x92, 0x4C, 0x76, 0x00, 
	0x93, 0x4F, 0x7F, 0x00, 0x97, 0x4F, 0x63, 0x00, 0x97, 0x58, 0x7F, 0x00, 0x99, 0x2A, 0x4E, 0x00, 0x99, 0x28, 0x6A, 0x01, 0x99, 0x2A, 0x00, 0x00, 0x99, 0x28, 0x00, 0x81, 0x1F, 0x99, 0x2A, 0x32, 0x01, 0x99, 0x2A, 0x00, 0x4F, 0x92, 0x43, 0x00, 0x00, 0x92, 0x48, 0x00, 0x00, 0x92, 0x4C, 0x00, 0x32, 0x94, 0x4F, 0x00, 0x0A, 0x91, 0x24, 0x00, 0x14, 0x94, 0x4F, 0x7F, 0x00, 0x99, 0x2A, 0x32, 
	0x00, 0x99, 0x24, 0x4E, 0x01, 0x99, 0x2A, 0x00, 0x00, 0x99, 0x24, 0x00, 0x77, 0x96, 0x40, 0x00, 0x00, 0x96, 0x43, 0x00, 0x00, 0x96, 0x48, 0x00, 0x0A, 0x93, 0x4F, 0x00, 0x00, 0x97, 0x4F, 0x00, 0x00, 0x97, 0x58, 0x00, 0x1E, 0x91, 0x23, 0x79, 0x00, 0x92, 0x43, 0x76, 0x00, 0x92, 0x47, 0x76, 0x00, 0x92, 0x4A, 0x76, 0x00, 0x93, 0x4C, 0x7F, 0x00, 0x96, 0x3E, 0x6F, 0x00, 0x96, 0x43, 0x6F, 
	0x00, 0x96, 0x47, 0x6F, 0x00, 0x97, 0x51, 0x63, 0x00, 0x97, 0x59, 0x7F, 0x00, 0x99, 0x2A, 0x4E, 0x00, 0x99, 0x24, 0x6A, 0x01, 0x99, 0x2A, 0x00, 0x00, 0x99, 0x24, 0x00, 0x81, 0x1F, 0x99, 0x2A, 0x32, 0x01, 0x99, 0x2A, 0x00, 0x4F, 0x92, 0x43, 0x00, 0x00, 0x92, 0x47, 0x00, 0x00, 0x92, 0x4A, 0x00, 0x32, 0x94, 0x4F, 0x00, 0x1E, 0x94, 0x4C, 0x7F, 0x00, 0x99, 0x2A, 0x32, 0x00, 0x99, 0x24, 
	0x6A, 0x01, 0x99, 0x2A, 0x00, 0x00, 0x99, 0x24, 0x00, 0x81, 0x01, 0x93, 0x4C, 0x00, 0x00, 0x97, 0x51, 0x00, 0x00, 0x97, 0x59, 0x00, 0x1E, 0x92, 0x43, 0x76, 0x00, 0x92, 0x47, 0x76, 0x00, 0x92, 0x4A, 0x76, 0x00, 0x93, 0x4F, 0x7F, 0x00, 0x97, 0x53, 0x63, 0x00, 0x97, 0x5B, 0x7F, 0x00, 0x99, 0x2A, 0x4E, 0x00, 0x99, 0x28, 0x6A, 0x01, 0x99, 0x2A, 0x00, 0x00, 0x99, 0x28, 0x00, 0x81, 0x1F, 
	0x99, 0x2A, 0x32, 0x01, 0x99, 0x2A, 0x00, 0x4F, 0x92, 0x43, 0x00, 0x00, 0x92, 0x47, 0x00, 0x00, 0x92, 0x4A, 0x00, 0x32, 0x94, 0x4C, 0x00, 0x0A, 0x91, 0x23, 0x00, 0x00, 0x93, 0x4F, 0x00, 0x00, 0x97, 0x53, 0x00, 0x00, 0x97, 0x5B, 0x00, 0x14, 0x91, 0x2D, 0x79, 0x00, 0x93, 0x48, 0x7F, 0x00, 0x94, 0x4F, 0x7F, 0x00, 0x97, 0x4C, 0x63, 0x00, 0x97, 0x54, 0x7F, 0x00, 0x99, 0x2A, 0x32, 0x00, 
	0x99, 0x24, 0x4E, 0x01, 0x99, 0x2A, 0x00, 0x00, 0x99, 0x24, 0x00, 0x77, 0x96, 0x3E, 0x00, 0x00, 0x96, 0x43, 0x00, 0x00, 0x96, 0x47, 0x00, 0x1A, 0x91, 0x2D, 0x00, 0x0E, 0x92, 0x45, 0x76, 0x00, 0x92, 0x48, 0x76, 0x00, 0x92, 0x4C, 0x76, 0x00, 0x96, 0x40, 0x6F, 0x00, 0x96, 0x45, 0x6F, 0x00, 0x96, 0x48, 0x6F, 0x00, 0x99, 0x2A, 0x4E, 0x01, 0x99, 0x2A, 0x00, 0x81, 0x0B, 0x94, 0x4F, 0x00, 
	0x14, 0x94, 0x48, 0x7F, 0x00, 0x99, 0x2A, 0x32, 0x01, 0x99, 0x2A, 0x00, 0x4F, 0x92, 0x45, 0x00, 0x00, 0x92, 0x48, 0x00, 0x00, 0x92, 0x4C, 0x00, 0x50, 0x91, 0x2D, 0x79, 0x00, 0x99, 0x2A, 0x32, 0x00, 0x99, 0x24, 0x4E, 0x01, 0x99, 0x2A, 0x00, 0x00, 0x99, 0x24, 0x00, 0x81, 0x11, 0x91, 0x2D, 0x00, 0x0E, 0x92, 0x45, 0x76, 0x00, 0x92, 0x48, 0x76, 0x00, 0x92, 0x4C, 0x76, 0x00, 0x99, 0x2A, 
	0x4E, 0x00, 0x99, 0x28, 0x6A, 0x01, 0x99, 0x2A, 0x00, 0x00, 0x99, 0x28, 0x00, 0x81, 0x1F, 0x99, 0x2A, 0x32, 0x01, 0x99, 0x2A, 0x00, 0x4F, 0x92, 0x45, 0x00, 0x00, 0x92, 0x48, 0x00, 0x00, 0x92, 0x4C, 0x00, 0x50, 0x91, 0x2D, 0x79, 0x00, 0x99, 0x2A, 0x32, 0x00, 0x99, 0x24, 0x4E, 0x01, 0x99, 0x2A, 0x00, 0x00, 0x99, 0x24, 0x00, 0x77, 0x97, 0x4C, 0x00, 0x00, 0x97, 0x54, 0x00, 0x1A, 0x91, 
	0x2D, 0x00, 0x0E, 0x91, 0x2D, 0x79, 0x00, 0x92, 0x43, 0x76, 0x00, 0x92, 0x48, 0x76, 0x00, 0x92, 0x4C, 0x76, 0x00, 0x97, 0x4F, 0x50, 0x00, 0x97, 0x58, 0x6E, 0x00, 0x99, 0x2A, 0x4E, 0x00, 0x99, 0x24, 0x6A, 0x01, 0x99, 0x2A, 0x00, 0x00, 0x99, 0x24, 0x00, 0x81, 0x1F, 0x99, 0x2A, 0x32, 0x01, 0x99, 0x2A, 0x00, 0x4F, 0x92, 0x43, 0x00, 0x00, 0x92, 0x48, 0x00, 0x00, 0x92, 0x4C, 0x00, 0x3C, 
	0x93, 0x48, 0x00, 0x14, 0x93, 0x48, 0x7F, 0x00, 0x99, 0x2A, 0x32, 0x01, 0x99, 0x2A, 0x00, 0x81, 0x01, 0x91, 0x2D, 0x00, 0x10, 0x93, 0x48, 0x00, 0x0E, 0x91, 0x2B, 0x79, 0x00, 0x92, 0x43, 0x76, 0x00, 0x92, 0x48, 0x76, 0x00, 0x92, 0x4C, 0x76, 0x00, 0x93, 0x48, 0x7F, 0x00, 0x99, 0x2A, 0x4E, 0x00, 0x99, 0x28, 0x6A, 0x01, 0x99, 0x2A, 0x00, 0x00, 0x99, 0x28, 0x00, 0x81, 0x0B, 0x94, 0x48, 
	0x00, 0x14, 0x94, 0x48, 0x7F, 0x00, 0x99, 0x2A, 0x32, 0x01, 0x99, 0x2A, 0x00, 0x4F, 0x92, 0x43, 0x00, 0x00, 0x92, 0x48, 0x00, 0x00, 0x92, 0x4C, 0x00, 0x3C, 0x93, 0x48, 0x00, 0x06, 0x94, 0x48, 0x00, 0x0E, 0x93, 0x48, 0x7F, 0x00, 0x94, 0x48, 0x7F, 0x00, 0x99, 0x2A, 0x32, 0x01, 0x99, 0x2A, 0x00, 0x77, 0x97, 0x4F, 0x00, 0x00, 0x97, 0x58, 0x00, 0x0A, 0x91, 0x2B, 0x00, 0x0A, 0x96, 0x40, 
	0x00, 0x00, 0x96, 0x45, 0x00, 0x00, 0x96, 0x48, 0x00, 0x06, 0x93, 0x48, 0x00, 0x0E, 0x91, 0x29, 0x79, 0x00, 0x92, 0x45, 0x76, 0x00, 0x92, 0x48, 0x76, 0x00, 0x92, 0x4D, 0x76, 0x00, 0x93, 0x4F, 0x7F, 0x00, 0x96, 0x41, 0x6F, 0x00, 0x96, 0x45, 0x6F, 0x00, 0x96, 0x48, 0x6F, 0x00, 0x97, 0x51, 0x63, 0x00, 0x97, 0x59, 0x7F, 0x00, 0x99, 0x24, 0x6A, 0x00, 0x99, 0x2A, 0x4E, 0x01, 0x99, 0x24, 
	0x00, 0x00, 0x99, 0x2A, 0x00, 0x81, 0x0B, 0x94, 0x48, 0x00, 0x14, 0x94, 0x48, 0x7F, 0x00, 0x99, 0x2A, 0x32, 0x01, 0x99, 0x2A, 0x00, 0x4F, 0x92, 0x45, 0x00, 0x00, 0x92, 0x48, 0x00, 0x00, 0x92, 0x4D, 0x00, 0x3C, 0x91, 0x29, 0x00, 0x00, 0x93, 0x4F, 0x00, 0x06, 0x94, 0x48, 0x00, 0x0E, 0x93, 0x4F, 0x7F, 0x00, 0x94, 0x4F, 0x7F, 0x00, 0x99, 0x2A, 0x32, 0x01, 0x99, 0x2A, 0x00, 0x81, 0x11, 
	0x93, 0x4F, 0x00, 0x0E, 0x91, 0x29, 0x79, 0x00, 0x92, 0x45, 0x76, 0x00, 0x92, 0x48, 0x76, 0x00, 0x92, 0x4D, 0x76, 0x00, 0x93, 0x4D, 0x7F, 0x00, 0x99, 0x28, 0x6A, 0x00, 0x99, 0x2A, 0x4E, 0x01, 0x99, 0x28, 0x00, 0x00, 0x99, 0x2A, 0x00, 0x81, 0x0B, 0x94, 0x4F, 0x00, 0x14, 0x94, 0x4F, 0x7F, 0x00, 0x99, 0x2A, 0x32, 0x01, 0x99, 0x2A, 0x00, 0x4F, 0x92, 0x45, 0x00, 0x00, 0x92, 0x48, 0x00, 
	0x00, 0x92, 0x4D, 0x00, 0x3C, 0x91, 0x29, 0x00, 0x00, 0x93, 0x4D, 0x00, 0x06, 0x94, 0x4F, 0x00, 0x0E, 0x93, 0x4D, 0x7F, 0x00, 0x94, 0x4D, 0x7F, 0x00, 0x99, 0x24, 0x4E, 0x00, 0x99, 0x2A, 0x32, 0x01, 0x99, 0x24, 0x00, 0x00, 0x99, 0x2A, 0x00, 0x81, 0x11, 0x93, 0x4D, 0x00, 0x0E, 0x91, 0x29, 0x79, 0x00, 0x92, 0x45, 0x76, 0x00, 0x92, 0x4D, 0x76, 0x00, 0x93, 0x4C, 0x7F, 0x00, 0x99, 0x28, 
	0x5C, 0x01, 0x99, 0x28, 0x00, 0x81, 0x0B, 0x94, 0x4D, 0x00, 0x14, 0x94, 0x4D, 0x7F, 0x00, 0x99, 0x28, 0x4E, 0x01, 0x99, 0x28, 0x00, 0x81, 0x0B, 0x92, 0x45, 0x00, 0x00, 0x92, 0x4D, 0x00, 0x00, 0x93, 0x4C, 0x00, 0x06, 0x94, 0x4D, 0x00, 0x0E, 0x92, 0x4C, 0x76, 0x00, 0x93, 0x4A, 0x7F, 0x00, 0x94, 0x4C, 0x7F, 0x00, 0x99, 0x30, 0x5C, 0x01, 0x99, 0x30, 0x00, 0x81, 0x11, 0x92, 0x4C, 0x00, 
	0x00, 0x93, 0x4A, 0x00, 0x0E, 0x92, 0x4D, 0x76, 0x00, 0x93, 0x48, 0x7F, 0x00, 0x99, 0x2D, 0x5C, 0x01, 0x99, 0x2D, 0x00, 0x81, 0x0B, 0x94, 0x4C, 0x00, 0x14, 0x94, 0x4A, 0x7F, 0x81, 0x0C, 0x91, 0x29, 0x00, 0x00, 0x92, 0x4D, 0x00, 0x00, 0x93, 0x48, 0x00, 0x06, 0x94, 0x4A, 0x00, 0x0E, 0x91, 0x2B, 0x79, 0x00, 0x92, 0x47, 0x76, 0x00, 0x92, 0x4A, 0x76, 0x00, 0x92, 0x4F, 0x76, 0x00, 0x93, 
	0x4A, 0x7F, 0x00, 0x94, 0x48, 0x7F, 0x00, 0x99, 0x31, 0x4E, 0x00, 0x99, 0x24, 0x4E, 0x01, 0x99, 0x31, 0x00, 0x00, 0x99, 0x24, 0x00, 0x27, 0x96, 0x41, 0x00, 0x00, 0x96, 0x45, 0x00, 0x00, 0x96, 0x48, 0x00, 0x64, 0x95, 0x48, 0x00, 0x00, 0x95, 0x54, 0x00, 0x00, 0x97, 0x51, 0x00, 0x00, 0x97, 0x59, 0x00, 0x06, 0x91, 0x2B, 0x00, 0x00, 0x92, 0x47, 0x00, 0x00, 0x92, 0x4A, 0x00, 0x00, 0x92, 
	0x4F, 0x00, 0x81, 0x1A, 0x94, 0x48, 0x00, 0x14, 0x94, 0x4A, 0x7F, 0x82, 0x40, 0x91, 0x1F, 0x79, 0x00, 0x92, 0x3B, 0x76, 0x00, 0x92, 0x3E, 0x76, 0x00, 0x92, 0x43, 0x76, 0x00, 0x99, 0x24, 0x6A, 0x01, 0x99, 0x24, 0x00, 0x83, 0x5F, 0x99, 0x24, 0x6A, 0x01, 0x99, 0x24, 0x00, 0x82, 0x2B, 0x93, 0x4A, 0x00, 0x14, 0x93, 0x48, 0x7F, 0x00, 0x99, 0x28, 0x6A, 0x01, 0x99, 0x28, 0x00, 0x81, 0x11, 
	0x93, 0x48, 0x00, 0x0E, 0x93, 0x47, 0x7F, 0x00, 0x99, 0x2D, 0x5C, 0x01, 0x99, 0x2D, 0x00, 0x81, 0x0B, 0x94, 0x4A, 0x00, 0x14, 0x94, 0x48, 0x7F, 0x00, 0x99, 0x29, 0x5C, 0x01, 0x99, 0x29, 0x00, 0x81, 0x0B, 0x93, 0x47, 0x00, 0x06, 0x94, 0x48, 0x00, 0x0E, 0x93, 0x48, 0x7F, 0x00, 0x94, 0x47, 0x7F, 0x00, 0x99, 0x28, 0x6A, 0x01, 0x99, 0x28, 0x00, 0x81, 0x0B, 0x91, 0x1F, 0x00, 0x00, 0x92, 
	0x3B, 0x00, 0x00, 0x92, 0x3E, 0x00, 0x00, 0x92, 0x43, 0x00, 0x14, 0x91, 0x24, 0x79, 0x00, 0x92, 0x43, 0x76, 0x00, 0x92, 0x48, 0x76, 0x00, 0x92, 0x4C, 0x76, 0x00, 0x95, 0x48, 0x63, 0x00, 0x95, 0x54, 0x79, 0x00, 0x96, 0x43, 0x6F, 0x00, 0x96, 0x48, 0x6F, 0x00, 0x96, 0x4C, 0x6F, 0x00, 0x99, 0x31, 0x4E, 0x00, 0x99, 0x24, 0x6A, 0x01, 0x99, 0x31, 0x00, 0x00, 0x99, 0x24, 0x00, 0x81, 0x0B, 
	0x94, 0x47, 0x00, 0x14, 0x94, 0x48, 0x7F, 0x50, 0x92, 0x43, 0x00, 0x00, 0x92, 0x48, 0x00, 0x00, 0x92, 0x4C, 0x00, 0x3C, 0x91, 0x24, 0x00, 0x81, 0x34, 0x91, 0x24, 0x79, 0x00, 0x92, 0x43, 0x76, 0x00, 0x92, 0x48, 0x76, 0x00, 0x92, 0x4C, 0x76, 0x00, 0x97, 0x48, 0x63, 0x00, 0x97, 0x4F, 0x7F, 0x00, 0x99, 0x2A, 0x4E, 0x00, 0x99, 0x28, 0x6A, 0x01, 0x99, 0x2A, 0x00, 0x00, 0x99, 0x28, 0x00, 
	0x81, 0x1F, 0x99, 0x2A, 0x32, 0x01, 0x99, 0x2A, 0x00, 0x4F, 0x92, 0x43, 0x00, 0x00, 0x92, 0x48, 0x00, 0x00, 0x92, 0x4C, 0x00, 0x3C, 0x91, 0x24, 0x00, 0x14, 0x99, 0x2A, 0x32, 0x00, 0x99, 0x24, 0x4E, 0x01, 0x99, 0x2A, 0x00, 0x00, 0x99, 0x24, 0x00, 0x81, 0x01, 0x97, 0x48, 0x00, 0x00, 0x97, 0x4F, 0x00, 0x1E, 0x91, 0x24, 0x79, 0x00, 0x92, 0x43, 0x76, 0x00, 0x92, 0x48, 0x76, 0x00, 0x92, 
	0x4C, 0x76, 0x00, 0x97, 0x4C, 0x63, 0x00, 0x97, 0x54, 0x7F, 0x00, 0x99, 0x2A, 0x4E, 0x00, 0x99, 0x24, 0x6A, 0x01, 0x99, 0x2A, 0x00, 0x00, 0x99, 0x24, 0x00, 0x81, 0x1F, 0x99, 0x2A, 0x32, 0x01, 0x99, 0x2A, 0x00, 0x81, 0x1F, 0x99, 0x2A, 0x32, 0x00, 0x99, 0x24, 0x6A, 0x01, 0x99, 0x2A, 0x00, 0x00, 0x99, 0x24, 0x00, 0x81, 0x01, 0x97, 0x4C, 0x00, 0x00, 0x97, 0x54, 0x00, 0x1E, 0x97, 0x4F, 
	0x63, 0x00, 0x97, 0x58, 0x7F, 0x00, 0x99, 0x2A, 0x4E, 0x00, 0x99, 0x28, 0x6A, 0x01, 0x99, 0x2A, 0x00, 0x00, 0x99, 0x28, 0x00, 0x81, 0x1F, 0x99, 0x2A, 0x32, 0x01, 0x99, 0x2A, 0x00, 0x81, 0x0B, 0x91, 0x24, 0x00, 0x00, 0x92, 0x43, 0x00, 0x00, 0x92, 0x48, 0x00, 0x00, 0x92, 0x4C, 0x00, 0x00, 0x97, 0x4F, 0x00, 0x00, 0x97, 0x58, 0x00, 0x14, 0x91, 0x24, 0x79, 0x00, 0x92, 0x45, 0x76, 0x00, 
	0x92, 0x48, 0x76, 0x00, 0x92, 0x4D, 0x76, 0x00, 0x97, 0x51, 0x63, 0x00, 0x97, 0x59, 0x7F, 0x00, 0x99, 0x2A, 0x32, 0x00, 0x99, 0x24, 0x4E, 0x01, 0x99, 0x2A, 0x00, 0x00, 0x99, 0x24, 0x00, 0x81, 0x0B, 0x93, 0x48, 0x00, 0x06, 0x91, 0x24, 0x00, 0x00, 0x92, 0x45, 0x00, 0x00, 0x92, 0x48, 0x00, 0x00, 0x92, 0x4D, 0x00, 0x0E, 0xB3, 0x20, 0x40, 0x00, 0xC3, 0x3E, 0x00, 0x99, 0x2A, 0x4E, 0x01, 
	0x99, 0x2A, 0x00, 0x81, 0x1F, 0x99, 0x2A, 0x32, 0x01, 0x99, 0x2A, 0x00, 0x81, 0x0B, 0x94, 0x48, 0x00, 0x00, 0x97, 0x51, 0x00, 0x00, 0x97, 0x59, 0x00, 0x14, 0x91, 0x24, 0x79, 0x00, 0x92, 0x43, 0x76, 0x00, 0x92, 0x47, 0x76, 0x00, 0x92, 0x4A, 0x76, 0x00, 0xB4, 0x20, 0x40, 0x00, 0xC4, 0x3E, 0x00, 0x97, 0x4D, 0x63, 0x00, 0x97, 0x56, 0x7F, 0x00, 0x99, 0x2A, 0x32, 0x00, 0x99, 0x24, 0x4E, 
	0x01, 0x99, 0x2A, 0x00, 0x00, 0x99, 0x24, 0x00, 0x81, 0x11, 0x91, 0x24, 0x00, 0x00, 0x92, 0x43, 0x00, 0x00, 0x92, 0x47, 0x00, 0x00, 0x92, 0x4A, 0x00, 0x0E, 0x99, 0x2A, 0x4E, 0x00, 0x99, 0x28, 0x6A, 0x01, 0x99, 0x2A, 0x00, 0x00, 0x99, 0x28, 0x00, 0x81, 0x1F, 0x99, 0x2A, 0x32, 0x01, 0x99, 0x2A, 0x00, 0x81, 0x0B, 0x97, 0x4D, 0x00, 0x00, 0x97, 0x56, 0x00, 0x14, 0x91, 0x24, 0x79, 0x00, 
	0x92, 0x43, 0x76, 0x00, 0x92, 0x48, 0x76, 0x00, 0x92, 0x4C, 0x76, 0x00, 0x97, 0x4F, 0x63, 0x00, 0x97, 0x58, 0x7F, 0x00, 0x99, 0x2A, 0x32, 0x00, 0x99, 0x24, 0x4E, 0x01, 0x99, 0x2A, 0x00, 0x00, 0x99, 0x24, 0x00, 0x81, 0x11, 0x91, 0x24, 0x00, 0x00, 0x92, 0x43, 0x00, 0x00, 0x92, 0x48, 0x00, 0x00, 0x92, 0x4C, 0x00, 0x00, 0x97, 0x4F, 0x00, 0x00, 0x97, 0x58, 0x00, 0x0E, 0x91, 0x24, 0x79, 
	0x00, 0x92, 0x43, 0x76, 0x00, 0x92, 0x48, 0x76, 0x00, 0x92, 0x4C, 0x76, 0x00, 0x97, 0x4F, 0x63, 0x00, 0x97, 0x58, 0x7F, 0x00, 0x99, 0x2A, 0x4E, 0x00, 0x99, 0x24, 0x6A, 0x01, 0x99, 0x2A, 0x00, 0x00, 0x99, 0x24, 0x00, 0x81, 0x1F, 0x99, 0x2A, 0x32, 0x01, 0x99, 0x2A, 0x00, 0x81, 0x1F, 0x99, 0x2A, 0x32, 0x01, 0x99, 0x2A, 0x00, 0x81, 0x01, 0x91, 0x24, 0x00, 0x1E, 0x91, 0x24, 0x79, 0x00, 
	0x99, 0x28, 0x6A, 0x01, 0x99, 0x28, 0x00, 0x81, 0x1F, 0x93, 0x45, 0x7F, 0x00, 0x99, 0x2D, 0x6A, 0x01, 0x99, 0x2D, 0x00, 0x81, 0x11, 0x93, 0x45, 0x00, 0x0E, 0x93, 0x47, 0x7F, 0x00, 0x99, 0x29, 0x6A, 0x01, 0x99, 0x29, 0x00, 0x77, 0x92, 0x43, 0x00, 0x00, 0x92, 0x48, 0x00, 0x00, 0x92, 0x4C, 0x00, 0x00, 0x97, 0x4F, 0x00, 0x00, 0x97, 0x58, 0x00, 0x0A, 0x91, 0x24, 0x00, 0x0A, 0x95, 0x48, 
	0x00, 0x00, 0x95, 0x54, 0x00, 0x00, 0x96, 0x43, 0x00, 0x00, 0x96, 0x48, 0x00, 0x00, 0x96, 0x4C, 0x00, 0x06, 0x93, 0x47, 0x00, 0x0E, 0x91, 0x29, 0x79, 0x00, 0x92, 0x45, 0x76, 0x00, 0x92, 0x48, 0x76, 0x00, 0x92, 0x4C, 0x76, 0x00, 0x93, 0x48, 0x7F, 0x00, 0x94, 0x45, 0x7F, 0x00, 0x95, 0x48, 0x63, 0x00, 0x95, 0x54, 0x79, 0x00, 0x96, 0x45, 0x6F, 0x00, 0x96, 0x48, 0x6F, 0x00, 0x96, 0x4C, 
	0x6F, 0x00, 0x99, 0x31, 0x4E, 0x00, 0x99, 0x2A, 0x4E, 0x00, 0x99, 0x24, 0x6A, 0x01, 0x99, 0x31, 0x00, 0x00, 0x99, 0x2A, 0x00, 0x00, 0x99, 0x24, 0x00, 0x81, 0x11, 0x94, 0x45, 0x00, 0x0E, 0x94, 0x47, 0x7F, 0x00, 0x99, 0x2A, 0x32, 0x01, 0x99, 0x2A, 0x00, 0x4F, 0x91, 0x29, 0x00, 0x00, 0x92, 0x45, 0x00, 0x00, 0x92, 0x48, 0x00, 0x00, 0x92, 0x4C, 0x00, 0x42, 0x94, 0x47, 0x00, 0x0E, 0x94, 
	0x48, 0x7F, 0x00, 0x99, 0x2A, 0x32, 0x01, 0x99, 0x2A, 0x00, 0x81, 0x1F, 0x91, 0x29, 0x79, 0x00, 0x92, 0x45, 0x76, 0x00, 0x92, 0x48, 0x76, 0x00, 0x92, 0x4C, 0x76, 0x00, 0x99, 0x2A, 0x4E, 0x00, 0x99, 0x28, 0x6A, 0x01, 0x99, 0x2A, 0x00, 0x00, 0x99, 0x28, 0x00, 0x81, 0x1F, 0x99, 0x2A, 0x32, 0x01, 0x99, 0x2A, 0x00, 0x4F, 0x91, 0x29, 0x00, 0x00, 0x92, 0x45, 0x00, 0x00, 0x92, 0x48, 0x00, 
	0x00, 0x92, 0x4C, 0x00, 0x50, 0x99, 0x2A, 0x32, 0x00, 0x99, 0x24, 0x4E, 0x01, 0x99, 0x2A, 0x00, 0x00, 0x99, 0x24, 0x00, 0x81, 0x1F, 0x91, 0x29, 0x79, 0x00, 0x92, 0x45, 0x76, 0x00, 0x92, 0x48, 0x76, 0x00, 0x92, 0x4C, 0x76, 0x00, 0x99, 0x2A, 0x4E, 0x00, 0x99, 0x24, 0x6A, 0x01, 0x99, 0x2A, 0x00, 0x00, 0x99, 0x24, 0x00, 0x81, 0x1F, 0x99, 0x2A, 0x32, 0x01, 0x99, 0x2A, 0x00, 0x4F, 0x91, 
	0x29, 0x00, 0x00, 0x92, 0x45, 0x00, 0x00, 0x92, 0x48, 0x00, 0x00, 0x92, 0x4C, 0x00, 0x50, 0x99, 0x2A, 0x32, 0x01, 0x99, 0x2A, 0x00, 0x81, 0x0B, 0x93, 0x48, 0x00, 0x14, 0x91, 0x29, 0x79, 0x00, 0x92, 0x45, 0x76, 0x00, 0x92, 0x48, 0x76, 0x00, 0x92, 0x4C, 0x76, 0x00, 0x93, 0x4A, 0x7F, 0x00, 0x99, 0x2A, 0x4E, 0x00, 0x99, 0x28, 0x6A, 0x01, 0x99, 0x2A, 0x00, 0x00, 0x99, 0x28, 0x00, 0x81, 
	0x1F, 0x99, 0x2A, 0x32, 0x01, 0x99, 0x2A, 0x00, 0x4F, 0x91, 0x29, 0x00, 0x00, 0x92, 0x45, 0x00, 0x00, 0x92, 0x48, 0x00, 0x00, 0x92, 0x4C, 0x00, 0x3C, 0x93, 0x4A, 0x00, 0x00, 0x94, 0x48, 0x00, 0x14, 0x93, 0x47, 0x7F, 0x00, 0x94, 0x4A, 0x7F, 0x00, 0x99, 0x2A, 0x32, 0x01, 0x99, 0x2A, 0x00, 0x81, 0x0B, 0x95, 0x48, 0x00, 0x00, 0x95, 0x54, 0x00, 0x00, 0x96, 0x45, 0x00, 0x00, 0x96, 0x48, 
	0x00, 0x00, 0x96, 0x4C, 0x00, 0x14, 0x91, 0x2B, 0x79, 0x00, 0x92, 0x43, 0x76, 0x00, 0x92, 0x47, 0x76, 0x00, 0x92, 0x4A, 0x76, 0x00, 0x95, 0x4A, 0x63, 0x00, 0x95, 0x56, 0x79, 0x00, 0x96, 0x43, 0x6F, 0x00, 0x96, 0x47, 0x6F, 0x00, 0x96, 0x4A, 0x6F, 0x00, 0x99, 0x24, 0x6A, 0x00, 0x99, 0x2A, 0x4E, 0x01, 0x99, 0x24, 0x00, 0x00, 0x99, 0x2A, 0x00, 0x81, 0x0B, 0x94, 0x4A, 0x00, 0x14, 0x94, 
	0x47, 0x7F, 0x00, 0x99, 0x2A, 0x32, 0x01, 0x99, 0x2A, 0x00, 0x4F, 0x91, 0x2B, 0x00, 0x00, 0x92, 0x43, 0x00, 0x00, 0x92, 0x47, 0x00, 0x00, 0x92, 0x4A, 0x00, 0x50, 0x99, 0x2A, 0x32, 0x01, 0x99, 0x2A, 0x00, 0x81, 0x1F, 0x91, 0x2B, 0x79, 0x00, 0x92, 0x43, 0x76, 0x00, 0x92, 0x47, 0x76, 0x00, 0x92, 0x4A, 0x76, 0x00, 0x99, 0x2A, 0x4E, 0x00, 0x99, 0x28, 0x6A, 0x01, 0x99, 0x2A, 0x00, 0x00, 
	0x99, 0x28, 0x00, 0x81, 0x1F, 0x99, 0x2A, 0x32, 0x01, 0x99, 0x2A, 0x00, 0x4F, 0x91, 0x2B, 0x00, 0x00, 0x92, 0x43, 0x00, 0x00, 0x92, 0x47, 0x00, 0x00, 0x92, 0x4A, 0x00, 0x3C, 0x93, 0x47, 0x00, 0x14, 0x93, 0x45, 0x7F, 0x00, 0x99, 0x2A, 0x32, 0x00, 0x99, 0x24, 0x4E, 0x01, 0x99, 0x2A, 0x00, 0x00, 0x99, 0x24, 0x00, 0x81, 0x11, 0x93, 0x45, 0x00, 0x0E, 0x91, 0x2B, 0x79, 0x00, 0x92, 0x43, 
	0x76, 0x00, 0x92, 0x47, 0x76, 0x00, 0x92, 0x4A, 0x76, 0x00, 0x93, 0x43, 0x7F, 0x00, 0x99, 0x2A, 0x4E, 0x00, 0x99, 0x24, 0x6A, 0x01, 0x99, 0x2A, 0x00, 0x00, 0x99, 0x24, 0x00, 0x81, 0x0B, 0x94, 0x47, 0x00, 0x14, 0x94, 0x45, 0x7F, 0x00, 0x99, 0x2A, 0x32, 0x01, 0x99, 0x2A, 0x00, 0x4F, 0x91, 0x2B, 0x00, 0x00, 0x92, 0x43, 0x00, 0x00, 0x92, 0x47, 0x00, 0x00, 0x92, 0x4A, 0x00, 0x3C, 0x93, 
	0x43, 0x00, 0x06, 0x94, 0x45, 0x00, 0x0E, 0x93, 0x45, 0x7F, 0x00, 0x94, 0x43, 0x7F, 0x00, 0x99, 0x2A, 0x32, 0x01, 0x99, 0x2A, 0x00, 0x81, 0x1F, 0x91, 0x2B, 0x79, 0x00, 0x92, 0x43, 0x76, 0x00, 0x92, 0x47, 0x76, 0x00, 0x92, 0x4A, 0x76, 0x00, 0x99, 0x2A, 0x4E, 0x00, 0x99, 0x28, 0x6A, 0x01, 0x99, 0x2A, 0x00, 0x00, 0x99, 0x28, 0x00, 0x81, 0x0B, 0x94, 0x43, 0x00, 0x14, 0x94, 0x45, 0x7F, 
	0x00, 0x99, 0x2A, 0x32, 0x01, 0x99, 0x2A, 0x00, 0x4F, 0x91, 0x2B, 0x00, 0x00, 0x92, 0x43, 0x00, 0x00, 0x92, 0x47, 0x00, 0x00, 0x92, 0x4A, 0x00, 0x3C, 0x93, 0x45, 0x00, 0x14, 0x93, 0x4C, 0x7F, 0x00, 0x99, 0x2A, 0x32, 0x01, 0x99, 0x2A, 0x00, 0x81, 0x0B, 0x95, 0x4A, 0x00, 0x00, 0x95, 0x56, 0x00, 0x00, 0x96, 0x43, 0x00, 0x00, 0x96, 0x47, 0x00, 0x00, 0x96, 0x4A, 0x00, 0x14, 0x91, 0x2D, 
	0x79, 0x00, 0x92, 0x45, 0x76, 0x00, 0x92, 0x48, 0x76, 0x00, 0x92, 0x4C, 0x76, 0x00, 0x95, 0x4C, 0x63, 0x00, 0x95, 0x58, 0x79, 0x00, 0x96, 0x45, 0x6F, 0x00, 0x96, 0x48, 0x6F, 0x00, 0x96, 0x4C, 0x6F, 0x00, 0x99, 0x2A, 0x4E, 0x00, 0x99, 0x24, 0x6A, 0x01, 0x99, 0x2A, 0x00, 0x00, 0x99, 0x24, 0x00, 0x81, 0x0B, 0x94, 0x45, 0x00, 0x14, 0x94, 0x4C, 0x7F, 0x00, 0x99, 0x2A, 0x32, 0x01, 0x99, 
	0x2A, 0x00, 0x4F, 0x91, 0x2D, 0x00, 0x00, 0x92, 0x45, 0x00, 0x00, 0x92, 0x48, 0x00, 0x00, 0x92, 0x4C, 0x00, 0x50, 0x99, 0x2A, 0x32, 0x01, 0x99, 0x2A, 0x00, 0x81, 0x01, 0x93, 0x4C, 0x00, 0x1E, 0x91, 0x2D, 0x79, 0x00, 0x92, 0x45, 0x76, 0x00, 0x92, 0x48, 0x76, 0x00, 0x92, 0x4C, 0x76, 0x00, 0x93, 0x51, 0x7F, 0x00, 0x99, 0x2A, 0x4E, 0x00, 0x99, 0x28, 0x6A, 0x01, 0x99, 0x2A, 0x00, 0x00, 
	0x99, 0x28, 0x00, 0x81, 0x1F, 0x99, 0x2A, 0x32, 0x01, 0x99, 0x2A, 0x00, 0x4F, 0x91, 0x2D, 0x00, 0x00, 0x92, 0x45, 0x00, 0x00, 0x92, 0x48, 0x00, 0x00, 0x92, 0x4C, 0x00, 0x32, 0x94, 0x4C, 0x00, 0x1E, 0x94, 0x51, 0x7F, 0x00, 0x99, 0x2A, 0x32, 0x00, 0x99, 0x24, 0x4E, 0x01, 0x99, 0x2A, 0x00, 0x00, 0x99, 0x24, 0x00, 0x77, 0x96, 0x45, 0x00, 0x00, 0x96, 0x48, 0x00, 0x00, 0x96, 0x4C, 0x00, 
	0x0A, 0x93, 0x51, 0x00, 0x1E, 0x91, 0x2B, 0x79, 0x00, 0x92, 0x43, 0x76, 0x00, 0x92, 0x47, 0x76, 0x00, 0x92, 0x4A, 0x76, 0x00, 0x93, 0x4C, 0x7F, 0x00, 0x96, 0x43, 0x6F, 0x00, 0x96, 0x47, 0x6F, 0x00, 0x96, 0x4A, 0x6F, 0x00, 0x99, 0x2A, 0x4E, 0x00, 0x99, 0x24, 0x6A, 0x01, 0x99, 0x2A, 0x00, 0x00, 0x99, 0x24, 0x00, 0x81, 0x1F, 0x99, 0x2A, 0x32, 0x01, 0x99, 0x2A, 0x00, 0x4F, 0x91, 0x2B, 
	0x00, 0x00, 0x92, 0x43, 0x00, 0x00, 0x92, 0x47, 0x00, 0x00, 0x92, 0x4A, 0x00, 0x32, 0x94, 0x51, 0x00, 0x1E, 0x94, 0x4C, 0x7F, 0x00, 0x99, 0x2A, 0x32, 0x01, 0x99, 0x2A, 0x00, 0x81, 0x01, 0x93, 0x4C, 0x00, 0x1E, 0x91, 0x2B, 0x79, 0x00, 0x92, 0x43, 0x76, 0x00, 0x92, 0x47, 0x76, 0x00, 0x92, 0x4A, 0x76, 0x00, 0x93, 0x4A, 0x7F, 0x00, 0x99, 0x2A, 0x4E, 0x00, 0x99, 0x28, 0x6A, 0x01, 0x99, 
	0x2A, 0x00, 0x00, 0x99, 0x28, 0x00, 0x81, 0x1F, 0x99, 0x2A, 0x32, 0x01, 0x99, 0x2A, 0x00, 0x4F, 0x91, 0x2B, 0x00, 0x00, 0x92, 0x43, 0x00, 0x00, 0x92, 0x47, 0x00, 0x00, 0x92, 0x4A, 0x00, 0x32, 0x94, 0x4C, 0x00, 0x0A, 0x93, 0x4A, 0x00, 0x14, 0x93, 0x4A, 0x7F, 0x00, 0x94, 0x4A, 0x7F, 0x00, 0x99, 0x2A, 0x32, 0x01, 0x99, 0x2A, 0x00, 0x77, 0x96, 0x43, 0x00, 0x00, 0x96, 0x47, 0x00, 0x00, 
	0x96, 0x4A, 0x00, 0x28, 0x91, 0x29, 0x79, 0x00, 0x92, 0x45, 0x76, 0x00, 0x92, 0x48, 0x76, 0x00, 0x92, 0x4C, 0x76, 0x00, 0x96, 0x45, 0x6F, 0x00, 0x96, 0x48, 0x6F, 0x00, 0x96, 0x4C, 0x6F, 0x00, 0x99, 0x24, 0x6A, 0x00, 0x99, 0x2A, 0x4E, 0x01, 0x99, 0x24, 0x00, 0x00, 0x99, 0x2A, 0x00, 0x81, 0x0B, 0x94, 0x4A, 0x00, 0x14, 0x94, 0x4A, 0x7F, 0x00, 0x99, 0x2A, 0x32, 0x01, 0x99, 0x2A, 0x00, 
	0x4F, 0x91, 0x29, 0x00, 0x00, 0x92, 0x45, 0x00, 0x00, 0x92, 0x48, 0x00, 0x00, 0x92, 0x4C, 0x00, 0x3C, 0x93, 0x4A, 0x00, 0x14, 0x93, 0x4C, 0x7F, 0x00, 0x99, 0x2A, 0x32, 0x01, 0x99, 0x2A, 0x00, 0x81, 0x11, 0x93, 0x4C, 0x00, 0x0E, 0x91, 0x29, 0x79, 0x00, 0x92, 0x45, 0x76, 0x00, 0x92, 0x48, 0x76, 0x00, 0x92, 0x4C, 0x76, 0x00, 0x93, 0x48, 0x7F, 0x00, 0x99, 0x2A, 0x4E, 0x00, 0x99, 0x28, 
	0x6A, 0x01, 0x99, 0x2A, 0x00, 0x00, 0x99, 0x28, 0x00, 0x81, 0x0B, 0x94, 0x4A, 0x00, 0x14, 0x94, 0x4C, 0x7F, 0x00, 0x99, 0x2A, 0x32, 0x01, 0x99, 0x2A, 0x00, 0x4F, 0x91, 0x29, 0x00, 0x00, 0x92, 0x45, 0x00, 0x00, 0x92, 0x48, 0x00, 0x00, 0x92, 0x4C, 0x00, 0x42, 0x94, 0x4C, 0x00, 0x0E, 0x94, 0x48, 0x7F, 0x00, 0x99, 0x2A, 0x32, 0x00, 0x99, 0x24, 0x4E, 0x01, 0x99, 0x2A, 0x00, 0x00, 0x99, 
	0x24, 0x00, 0x81, 0x1F, 0x91, 0x29, 0x79, 0x00, 0x92, 0x45, 0x76, 0x00, 0x92, 0x48, 0x76, 0x00, 0x92, 0x4C, 0x76, 0x00, 0x99, 0x2A, 0x4E, 0x00, 0x99, 0x24, 0x6A, 0x01, 0x99, 0x2A, 0x00, 0x00, 0x99, 0x24, 0x00, 0x81, 0x1F, 0x99, 0x2A, 0x32, 0x01, 0x99, 0x2A, 0x00, 0x4F, 0x91, 0x29, 0x00, 0x00, 0x92, 0x45, 0x00, 0x00, 0x92, 0x48, 0x00, 0x00, 0x92, 0x4C, 0x00, 0x50, 0x99, 0x2A, 0x32, 
	0x01, 0x99, 0x2A, 0x00, 0x77, 0x93, 0x48, 0x00, 0x28, 0x91, 0x29, 0x79, 0x00, 0x92, 0x45, 0x76, 0x00, 0x92, 0x48, 0x76, 0x00, 0x92, 0x4C, 0x76, 0x00, 0x99, 0x2E, 0x4E, 0x00, 0x99, 0x28, 0x6A, 0x01, 0x99, 0x2E, 0x00, 0x00, 0x99, 0x28, 0x00, 0x81, 0x1F, 0x93, 0x48, 0x7F, 0x00, 0x99, 0x2A, 0x4E, 0x01, 0x99, 0x2A, 0x00, 0x4F, 0x91, 0x29, 0x00, 0x00, 0x92, 0x45, 0x00, 0x00, 0x92, 0x48, 
	0x00, 0x00, 0x92, 0x4C, 0x00, 0x28, 0x94, 0x48, 0x00, 0x1A, 0x93, 0x48, 0x00, 0x0E, 0x93, 0x4A, 0x7F, 0x00, 0x99, 0x2A, 0x32, 0x01, 0x99, 0x2A, 0x00, 0x81, 0x0B, 0x95, 0x4C, 0x00, 0x00, 0x95, 0x58, 0x00, 0x00, 0x96, 0x45, 0x00, 0x00, 0x96, 0x48, 0x00, 0x00, 0x96, 0x4C, 0x00, 0x06, 0x93, 0x4A, 0x00, 0x0E, 0x91, 0x26, 0x79, 0x00, 0x92, 0x45, 0x76, 0x00, 0x92, 0x48, 0x76, 0x00, 0x92, 
	0x4D, 0x76, 0x00, 0x93, 0x4F, 0x7F, 0x00, 0x94, 0x48, 0x7F, 0x00, 0x95, 0x4D, 0x63, 0x00, 0x95, 0x59, 0x79, 0x00, 0x96, 0x45, 0x6F, 0x00, 0x96, 0x48, 0x6F, 0x00, 0x96, 0x4D, 0x6F, 0x00, 0x99, 0x30, 0x6A, 0x01, 0x99, 0x30, 0x00, 0x81, 0x11, 0x94, 0x48, 0x00, 0x0E, 0x94, 0x4A, 0x7F, 0x28, 0x92, 0x45, 0x00, 0x00, 0x92, 0x48, 0x00, 0x00, 0x92, 0x4D, 0x00, 0x64, 0x91, 0x26, 0x00, 0x00, 
	0x93, 0x4F, 0x00, 0x06, 0x94, 0x4A, 0x00, 0x0E, 0x91, 0x26, 0x79, 0x00, 0x92, 0x45, 0x76, 0x00, 0x92, 0x48, 0x76, 0x00, 0x92, 0x4D, 0x76, 0x00, 0x93, 0x4D, 0x7F, 0x00, 0x94, 0x4F, 0x7F, 0x00, 0x99, 0x30, 0x6A, 0x01, 0x99, 0x30, 0x00, 0x81, 0x47, 0x92, 0x45, 0x00, 0x00, 0x92, 0x48, 0x00, 0x00, 0x92, 0x4D, 0x00, 0x64, 0x91, 0x26, 0x00, 0x00, 0x93, 0x4D, 0x00, 0x00, 0x94, 0x4F, 0x00, 
	0x14, 0x91, 0x26, 0x79, 0x00, 0x92, 0x45, 0x76, 0x00, 0x92, 0x48, 0x76, 0x00, 0x92, 0x4D, 0x76, 0x00, 0x93, 0x4C, 0x7F, 0x00, 0x94, 0x4D, 0x7F, 0x00, 0x99, 0x2D, 0x6A, 0x01, 0x99, 0x2D, 0x00, 0x81, 0x47, 0x92, 0x45, 0x00, 0x00, 0x92, 0x48, 0x00, 0x00, 0x92, 0x4D, 0x00, 0x64, 0x91, 0x26, 0x00, 0x00, 0x93, 0x4C, 0x00, 0x00, 0x94, 0x4D, 0x00, 0x14, 0x91, 0x26, 0x79, 0x00, 0x92, 0x45, 
	0x76, 0x00, 0x92, 0x48, 0x76, 0x00, 0x92, 0x4D, 0x76, 0x00, 0x93, 0x4C, 0x7F, 0x00, 0x94, 0x4C, 0x7F, 0x00, 0x99, 0x29, 0x6A, 0x01, 0x99, 0x29, 0x00, 0x82, 0x2B, 0x91, 0x26, 0x00, 0x00, 0x92, 0x45, 0x00, 0x00, 0x92, 0x48, 0x00, 0x00, 0x92, 0x4D, 0x00, 0x00, 0x93, 0x4C, 0x00, 0x00, 0x94, 0x4C, 0x00, 0x14, 0x91, 0x26, 0x79, 0x00, 0x92, 0x45, 0x76, 0x00, 0x92, 0x48, 0x76, 0x00, 0x92, 
	0x4C, 0x76, 0x00, 0x93, 0x48, 0x7F, 0x00, 0x94, 0x4C, 0x7F, 0x00, 0x99, 0x28, 0x5C, 0x01, 0x99, 0x28, 0x00, 0x81, 0x11, 0x91, 0x26, 0x00, 0x00, 0x92, 0x45, 0x00, 0x00, 0x92, 0x48, 0x00, 0x00, 0x92, 0x4C, 0x00, 0x00, 0x93, 0x48, 0x00, 0x0E, 0x91, 0x26, 0x79, 0x00, 0x92, 0x45, 0x76, 0x00, 0x92, 0x48, 0x76, 0x00, 0x92, 0x4D, 0x76, 0x00, 0x93, 0x45, 0x7F, 0x00, 0x99, 0x28, 0x6A, 0x01, 
	0x99, 0x28, 0x00, 0x81, 0x0B, 0x94, 0x4C, 0x00, 0x14, 0x94, 0x48, 0x7F, 0x81, 0x0C, 0x91, 0x26, 0x00, 0x00, 0x92, 0x45, 0x00, 0x00, 0x92, 0x48, 0x00, 0x00, 0x92, 0x4D, 0x00, 0x00, 0x93, 0x45, 0x00, 0x00, 0x95, 0x4D, 0x00, 0x00, 0x95, 0x59, 0x00, 0x06, 0x94, 0x48, 0x00, 0x0E, 0x91, 0x2B, 0x79, 0x00, 0x92, 0x47, 0x76, 0x00, 0x92, 0x4A, 0x76, 0x00, 0x92, 0x4F, 0x76, 0x00, 0x93, 0x4A, 
	0x7F, 0x00, 0x94, 0x45, 0x7F, 0x00, 0x95, 0x4F, 0x63, 0x00, 0x95, 0x5B, 0x79, 0x00, 0x99, 0x31, 0x4E, 0x00, 0x99, 0x24, 0x6A, 0x01, 0x99, 0x31, 0x00, 0x00, 0x99, 0x24, 0x00, 0x27, 0x96, 0x45, 0x00, 0x00, 0x96, 0x48, 0x00, 0x00, 0x96, 0x4D, 0x00, 0x6A, 0x91, 0x2B, 0x00, 0x00, 0x92, 0x47, 0x00, 0x00, 0x92, 0x4A, 0x00, 0x00, 0x92, 0x4F, 0x00, 0x00, 0x95, 0x4F, 0x00, 0x00, 0x95, 0x5B, 
	0x00, 0x81, 0x1A, 0x94, 0x45, 0x00, 0x14, 0x94, 0x4A, 0x7F, 0x82, 0x40, 0x91, 0x1F, 0x79, 0x00, 0x92, 0x3B, 0x76, 0x00, 0x92, 0x3E, 0x76, 0x00, 0x92, 0x43, 0x76, 0x00, 0x99, 0x24, 0x6A, 0x01, 0x99, 0x24, 0x00, 0x82, 0x2B, 0x93, 0x4A, 0x00, 0x14, 0x93, 0x4C, 0x7F, 0x81, 0x20, 0x99, 0x24, 0x6A, 0x01, 0x99, 0x24, 0x00, 0x81, 0x0B, 0x94, 0x4A, 0x00, 0x14, 0x94, 0x4C, 0x7F, 0x81, 0x20, 
	0x99, 0x28, 0x6A, 0x01, 0x99, 0x28, 0x00, 0x81, 0x11, 0x93, 0x4C, 0x00, 0x0E, 0x93, 0x4F, 0x7F, 0x00, 0x99, 0x2D, 0x5C, 0x01, 0x99, 0x2D, 0x00, 0x81, 0x1F, 0x99, 0x29, 0x5C, 0x01, 0x99, 0x29, 0x00, 0x81, 0x11, 0x94, 0x4C, 0x00, 0x0E, 0x94, 0x4F, 0x7F, 0x00, 0x99, 0x28, 0x6A, 0x01, 0x99, 0x28, 0x00, 0x81, 0x01, 0x93, 0x4F, 0x00, 0x0A, 0x91, 0x1F, 0x00, 0x00, 0x92, 0x3B, 0x00, 0x00, 
	0x92, 0x3E, 0x00, 0x00, 0x92, 0x43, 0x00, 0x14, 0x91, 0x24, 0x79, 0x00, 0x92, 0x43, 0x76, 0x00, 0x92, 0x48, 0x76, 0x00, 0x92, 0x4C, 0x76, 0x00, 0x93, 0x4A, 0x7F, 0x00, 0x95, 0x48, 0x63, 0x00, 0x95, 0x54, 0x79, 0x00, 0x96, 0x40, 0x6F, 0x00, 0x96, 0x43, 0x6F, 0x00, 0x96, 0x48, 0x6F, 0x00, 0x99, 0x31, 0x4E, 0x00, 0x99, 0x24, 0x6A, 0x01, 0x99, 0x31, 0x00, 0x00, 0x99, 0x24, 0x00, 0x81, 
	0x6F, 0x92, 0x43, 0x00, 0x00, 0x92, 0x48, 0x00, 0x00, 0x92, 0x4C, 0x00, 0x32, 0x94, 0x4F, 0x00, 0x0A, 0x91, 0x24, 0x00, 0x14, 0x94, 0x4A, 0x7F, 0x81, 0x20, 0x91, 0x24, 0x79, 0x00, 0x92, 0x43, 0x76, 0x00, 0x92, 0x48, 0x76, 0x00, 0x92, 0x4C, 0x76, 0x00, 0x99, 0x2A, 0x4E, 0x00, 0x99, 0x28, 0x6A, 0x01, 0x99, 0x2A, 0x00, 0x00, 0x99, 0x28, 0x00, 0x81, 0x1F, 0x99, 0x2A, 0x32, 0x01, 0x99, 
	0x2A, 0x00, 0x4F, 0x92, 0x43, 0x00, 0x00, 0x92, 0x48, 0x00, 0x00, 0x92, 0x4C, 0x00, 0x3C, 0x91, 0x24, 0x00, 0x00, 0x93, 0x4A, 0x00, 0x14, 0x93, 0x48, 0x7F, 0x00, 0x99, 0x2A, 0x32, 0x00, 0x99, 0x24, 0x4E, 0x01, 0x99, 0x2A, 0x00, 0x00, 0x99, 0x24, 0x00, 0x81, 0x1F, 0x91, 0x24, 0x79, 0x00, 0x92, 0x43, 0x76, 0x00, 0x92, 0x48, 0x76, 0x00, 0x92, 0x4C, 0x76, 0x00, 0x99, 0x2A, 0x4E, 0x00, 
	0x99, 0x24, 0x6A, 0x01, 0x99, 0x2A, 0x00, 0x00, 0x99, 0x24, 0x00, 0x81, 0x0B, 0x94, 0x4A, 0x00, 0x14, 0x94, 0x48, 0x7F, 0x00, 0x99, 0x2A, 0x32, 0x01, 0x99, 0x2A, 0x00, 0x4F, 0x92, 0x43, 0x00, 0x00, 0x92, 0x48, 0x00, 0x00, 0x92, 0x4C, 0x00, 0x50, 0x99, 0x2A, 0x32, 0x00, 0x99, 0x24, 0x6A, 0x01, 0x99, 0x2A, 0x00, 0x00, 0x99, 0x24, 0x00, 0x81, 0x1F, 0x92, 0x43, 0x76, 0x00, 0x92, 0x48, 
	0x76, 0x00, 0x92, 0x4C, 0x76, 0x00, 0x99, 0x2A, 0x4E, 0x00, 0x99, 0x28, 0x6A, 0x01, 0x99, 0x2A, 0x00, 0x00, 0x99, 0x28, 0x00, 0x81, 0x1F, 0x99, 0x2A, 0x32, 0x01, 0x99, 0x2A, 0x00, 0x4F, 0x92, 0x43, 0x00, 0x00, 0x92, 0x48, 0x00, 0x00, 0x92, 0x4C, 0x00, 0x3C, 0x91, 0x24, 0x00, 0x14, 0x91, 0x29, 0x79, 0x00, 0x99, 0x2A, 0x32, 0x00, 0x99, 0x24, 0x4E, 0x01, 0x99, 0x2A, 0x00, 0x00, 0x99, 
	0x24, 0x00, 0x77, 0x93, 0x48, 0x00, 0x14, 0x96, 0x40, 0x00, 0x00, 0x96, 0x43, 0x00, 0x00, 0x96, 0x48, 0x00, 0x06, 0x91, 0x29, 0x00, 0x0E, 0x92, 0x41, 0x76, 0x00, 0x92, 0x44, 0x76, 0x00, 0x92, 0x48, 0x76, 0x00, 0x93, 0x4A, 0x7F, 0x00, 0x96, 0x41, 0x6F, 0x00, 0x96, 0x44, 0x6F, 0x00, 0x96, 0x48, 0x6F, 0x00, 0x99, 0x2A, 0x4E, 0x01, 0x99, 0x2A, 0x00, 0x81, 0x1F, 0x99, 0x2A, 0x32, 0x01, 
	0x99, 0x2A, 0x00, 0x4F, 0x92, 0x41, 0x00, 0x00, 0x92, 0x44, 0x00, 0x00, 0x92, 0x48, 0x00, 0x28, 0x94, 0x48, 0x00, 0x28, 0x91, 0x29, 0x79, 0x00, 0x94, 0x4A, 0x7F, 0x00, 0x99, 0x2A, 0x32, 0x00, 0x99, 0x24, 0x4E, 0x01, 0x99, 0x2A, 0x00, 0x00, 0x99, 0x24, 0x00, 0x81, 0x11, 0x91, 0x29, 0x00, 0x0E, 0x92, 0x41, 0x76, 0x00, 0x92, 0x44, 0x76, 0x00, 0x92, 0x48, 0x76, 0x00, 0x99, 0x2A, 0x4E, 
	0x00, 0x99, 0x28, 0x6A, 0x01, 0x99, 0x2A, 0x00, 0x00, 0x99, 0x28, 0x00, 0x81, 0x1F, 0x99, 0x2A, 0x32, 0x01, 0x99, 0x2A, 0x00, 0x4F, 0x92, 0x41, 0x00, 0x00, 0x92, 0x44, 0x00, 0x00, 0x92, 0x48, 0x00, 0x3C, 0x93, 0x4A, 0x00, 0x14, 0x91, 0x29, 0x79, 0x00, 0x93, 0x4C, 0x7F, 0x00, 0x99, 0x2A, 0x32, 0x00, 0x99, 0x24, 0x4E, 0x01, 0x99, 0x2A, 0x00, 0x00, 0x99, 0x24, 0x00, 0x81, 0x11, 0x91, 
	0x29, 0x00, 0x0E, 0x91, 0x29, 0x79, 0x00, 0x92, 0x41, 0x76, 0x00, 0x92, 0x44, 0x76, 0x00, 0x92, 0x48, 0x76, 0x00, 0x99, 0x2A, 0x4E, 0x00, 0x99, 0x24, 0x6A, 0x01, 0x99, 0x2A, 0x00, 0x00, 0x99, 0x24, 0x00, 0x81, 0x0B, 0x94, 0x4A, 0x00, 0x14, 0x94, 0x4C, 0x7F, 0x00, 0x99, 0x2A, 0x32, 0x01, 0x99, 0x2A, 0x00, 0x4F, 0x92, 0x41, 0x00, 0x00, 0x92, 0x44, 0x00, 0x00, 0x92, 0x48, 0x00, 0x50, 
	0x99, 0x2A, 0x32, 0x01, 0x99, 0x2A, 0x00, 0x81, 0x01, 0x91, 0x29, 0x00, 0x10, 0x93, 0x4C, 0x00, 0x0E, 0x91, 0x29, 0x79, 0x00, 0x92, 0x41, 0x76, 0x00, 0x92, 0x44, 0x76, 0x00, 0x92, 0x48, 0x76, 0x00, 0x93, 0x4F, 0x7F, 0x00, 0x99, 0x2E, 0x4E, 0x00, 0x99, 0x28, 0x6A, 0x01, 0x99, 0x2E, 0x00, 0x00, 0x99, 0x28, 0x00, 0x81, 0x1F, 0x99, 0x2A, 0x4E, 0x01, 0x99, 0x2A, 0x00, 0x4F, 0x92, 0x41, 
	0x00, 0x00, 0x92, 0x44, 0x00, 0x00, 0x92, 0x48, 0x00, 0x42, 0x94, 0x4C, 0x00, 0x0E, 0x94, 0x4F, 0x7F, 0x00, 0x99, 0x2A, 0x32, 0x01, 0x99, 0x2A, 0x00, 0x81, 0x01, 0x91, 0x29, 0x00, 0x00, 0x93, 0x4F, 0x00, 0x0A, 0x96, 0x41, 0x00, 0x00, 0x96, 0x44, 0x00, 0x00, 0x96, 0x48, 0x00, 0x14, 0x91, 0x24, 0x79, 0x00, 0x92, 0x43, 0x76, 0x00, 0x92, 0x48, 0x76, 0x00, 0x92, 0x4C, 0x76, 0x00, 0x93, 
	0x4A, 0x7F, 0x00, 0x96, 0x40, 0x6F, 0x00, 0x96, 0x43, 0x6F, 0x00, 0x96, 0x48, 0x6F, 0x00, 0x99, 0x2A, 0x4E, 0x00, 0x99, 0x24, 0x6A, 0x01, 0x99, 0x2A, 0x00, 0x00, 0x99, 0x24, 0x00, 0x81, 0x1F, 0x99, 0x2A, 0x32, 0x01, 0x99, 0x2A, 0x00, 0x4F, 0x92, 0x43, 0x00, 0x00, 0x92, 0x48, 0x00, 0x00, 0x92, 0x4C, 0x00, 0x32, 0x94, 0x4F, 0x00, 0x0A, 0x91, 0x24, 0x00, 0x14, 0x94, 0x4A, 0x7F, 0x00, 
	0x99, 0x2A, 0x32, 0x01, 0x99, 0x2A, 0x00, 0x81, 0x1F, 0x91, 0x24, 0x79, 0x00, 0x92, 0x43, 0x76, 0x00, 0x92, 0x48, 0x76, 0x00, 0x92, 0x4C, 0x76, 0x00, 0x99, 0x2A, 0x4E, 0x00, 0x99, 0x28, 0x6A, 0x01, 0x99, 0x2A, 0x00, 0x00, 0x99, 0x28, 0x00, 0x81, 0x1F, 0x99, 0x2A, 0x32, 0x01, 0x99, 0x2A, 0x00, 0x4F, 0x92, 0x43, 0x00, 0x00, 0x92, 0x48, 0x00, 0x00, 0x92, 0x4C, 0x00, 0x3C, 0x91, 0x24, 
	0x00, 0x00, 0x93, 0x4A, 0x00, 0x14, 0x93, 0x48, 0x7F, 0x00, 0x99, 0x2A, 0x32, 0x00, 0x99, 0x24, 0x4E, 0x01, 0x99, 0x2A, 0x00, 0x00, 0x99, 0x24, 0x00, 0x81, 0x1F, 0x91, 0x24, 0x79, 0x00, 0x92, 0x43, 0x76, 0x00, 0x92, 0x48, 0x76, 0x00, 0x92, 0x4C, 0x76, 0x00, 0x99, 0x2A, 0x4E, 0x00, 0x99, 0x24, 0x6A, 0x01, 0x99, 0x2A, 0x00, 0x00, 0x99, 0x24, 0x00, 0x81, 0x0B, 0x94, 0x4A, 0x00, 0x14, 
	0x94, 0x48, 0x7F, 0x00, 0x99, 0x2A, 0x32, 0x01, 0x99, 0x2A, 0x00, 0x4F, 0x92, 0x43, 0x00, 0x00, 0x92, 0x48, 0x00, 0x00, 0x92, 0x4C, 0x00, 0x50, 0x99, 0x2A, 0x32, 0x00, 0x99, 0x24, 0x6A, 0x01, 0x99, 0x2A, 0x00, 0x00, 0x99, 0x24, 0x00, 0x81, 0x1F, 0x92, 0x43, 0x76, 0x00, 0x92, 0x48, 0x76, 0x00, 0x92, 0x4C, 0x76, 0x00, 0x99, 0x2A, 0x4E, 0x00, 0x99, 0x28, 0x6A, 0x01, 0x99, 0x2A, 0x00, 
	0x00, 0x99, 0x28, 0x00, 0x81, 0x1F, 0x99, 0x2A, 0x32, 0x01, 0x99, 0x2A, 0x00, 0x4F, 0x92, 0x43, 0x00, 0x00, 0x92, 0x48, 0x00, 0x00, 0x92, 0x4C, 0x00, 0x3C, 0x91, 0x24, 0x00, 0x14, 0x91, 0x24, 0x79, 0x00, 0x99, 0x2A, 0x32, 0x00, 0x99, 0x24, 0x4E, 0x01, 0x99, 0x2A, 0x00, 0x00, 0x99, 0x24, 0x00, 0x77, 0x93, 0x48, 0x00, 0x14, 0x96, 0x40, 0x00, 0x00, 0x96, 0x43, 0x00, 0x00, 0x96, 0x48, 
	0x00, 0x06, 0x91, 0x24, 0x00, 0x0E, 0x92, 0x43, 0x76, 0x00, 0x92, 0x48, 0x76, 0x00, 0x92, 0x4C, 0x76, 0x00, 0x96, 0x40, 0x6F, 0x00, 0x96, 0x43, 0x6F, 0x00, 0x96, 0x48, 0x6F, 0x00, 0x99, 0x2A, 0x4E, 0x01, 0x99, 0x2A, 0x00, 0x81, 0x1F, 0x99, 0x2A, 0x32, 0x01, 0x99, 0x2A, 0x00, 0x4F, 0x92, 0x43, 0x00, 0x00, 0x92, 0x48, 0x00, 0x00, 0x92, 0x4C, 0x00, 0x28, 0x94, 0x48, 0x00, 0x28, 0x91, 
	0x24, 0x79, 0x00, 0x99, 0x2A, 0x32, 0x00, 0x99, 0x24, 0x4E, 0x01, 0x99, 0x2A, 0x00, 0x00, 0x99, 0x24, 0x00, 0x81, 0x11, 0x91, 0x24, 0x00, 0x0E, 0x92, 0x43, 0x76, 0x00, 0x92, 0x48, 0x76, 0x00, 0x92, 0x4C, 0x76, 0x00, 0x99, 0x2A, 0x4E, 0x00, 0x99, 0x28, 0x6A, 0x01, 0x99, 0x2A, 0x00, 0x00, 0x99, 0x28, 0x00, 0x81, 0x1F, 0x99, 0x2A, 0x32, 0x01, 0x99, 0x2A, 0x00, 0x4F, 0x92, 0x43, 0x00, 
	0x00, 0x92, 0x48, 0x00, 0x00, 0x92, 0x4C, 0x00, 0x50, 0x91, 0x24, 0x79, 0x00, 0x99, 0x2A, 0x32, 0x00, 0x99, 0x24, 0x4E, 0x01, 0x99, 0x2A, 0x00, 0x00, 0x99, 0x24, 0x00, 0x81, 0x11, 0x91, 0x24, 0x00, 0x0E, 0x91, 0x24, 0x79, 0x00, 0x92, 0x43, 0x76, 0x00, 0x92, 0x48, 0x76, 0x00, 0x92, 0x4C, 0x76, 0x00, 0x99, 0x28, 0x5C, 0x00, 0x99, 0x2A, 0x4E, 0x01, 0x99, 0x28, 0x00, 0x00, 0x99, 0x2A, 
	0x00, 0x4F, 0x99, 0x28, 0x4E, 0x01, 0x99, 0x28, 0x00, 0x4F, 0x99, 0x28, 0x5C, 0x00, 0x99, 0x2A, 0x32, 0x01, 0x99, 0x28, 0x00, 0x00, 0x99, 0x2A, 0x00, 0x81, 0x1F, 0x99, 0x28, 0x4E, 0x00, 0x99, 0x2A, 0x32, 0x01, 0x99, 0x28, 0x00, 0x00, 0x99, 0x2A, 0x00, 0x81, 0x01, 0x91, 0x24, 0x00, 0x00, 0x92, 0x43, 0x00, 0x00, 0x92, 0x48, 0x00, 0x00, 0x92, 0x4C, 0x00, 0x1E, 0x91, 0x1F, 0x79, 0x00, 
	0x92, 0x41, 0x76, 0x00, 0x92, 0x47, 0x76, 0x00, 0x92, 0x4A, 0x76, 0x00, 0x99, 0x30, 0x6A, 0x01, 0x99, 0x30, 0x00, 0x81, 0x1F, 0x99, 0x30, 0x6A, 0x01, 0x99, 0x30, 0x00, 0x81, 0x1F, 0x99, 0x29, 0x6A, 0x01, 0x99, 0x29, 0x00, 0x81, 0x01, 0x91, 0x1F, 0x00, 0x00, 0x92, 0x41, 0x00, 0x00, 0x92, 0x47, 0x00, 0x00, 0x92, 0x4A, 0x00, 0x0A, 0x95, 0x48, 0x00, 0x00, 0x95, 0x54, 0x00, 0x00, 0x96, 
	0x40, 0x00, 0x00, 0x96, 0x43, 0x00, 0x00, 0x96, 0x48, 0x00, 0x14, 0x91, 0x24, 0x79, 0x00, 0x92, 0x40, 0x7F, 0x00, 0x92, 0x43, 0x7F, 0x00, 0x92, 0x4A, 0x7F, 0x00, 0xB3, 0x20, 0x00, 0x00, 0xC3, 0x0B, 0x00, 0x99, 0x31, 0x4E, 0x00, 0x99, 0x24, 0x6A, 0x01, 0x99, 0x31, 0x00, 0x00, 0x99, 0x24, 0x00, 0x82, 0x2B, 0x91, 0x24, 0x00, 0x00, 0x92, 0x40, 0x00, 0x00, 0x92, 0x43, 0x00, 0x00, 0x92, 
	0x4A, 0x00, 0x14, 0xB4, 0x20, 0x00, 0x00, 0xC4, 0x0B, 0x81, 0x20, 0x99, 0x2A, 0x4E, 0x00, 0x99, 0x28, 0x6A, 0x01, 0x99, 0x2A, 0x00, 0x00, 0x99, 0x28, 0x00, 0x81, 0x1F, 0x99, 0x2A, 0x32, 0x01, 0x99, 0x2A, 0x00, 0x81, 0x1F, 0x91, 0x24, 0x79, 0x00, 0x92, 0x40, 0x7F, 0x00, 0x92, 0x43, 0x7F, 0x00, 0x92, 0x4A, 0x7F, 0x00, 0x99, 0x2A, 0x32, 0x00, 0x99, 0x24, 0x4E, 0x01, 0x99, 0x2A, 0x00, 
	0x00, 0x99, 0x24, 0x00, 0x81, 0x11, 0x91, 0x24, 0x00, 0x00, 0x92, 0x40, 0x00, 0x00, 0x92, 0x43, 0x00, 0x00, 0x92, 0x4A, 0x00, 0x0E, 0x91, 0x24, 0x79, 0x00, 0x92, 0x40, 0x7F, 0x00, 0x92, 0x43, 0x7F, 0x00, 0x92, 0x48, 0x7F, 0x00, 0x99, 0x2A, 0x4E, 0x00, 0x99, 0x24, 0x6A, 0x01, 0x99, 0x2A, 0x00, 0x00, 0x99, 0x24, 0x00, 0x81, 0x1F, 0x99, 0x2A, 0x32, 0x01, 0x99, 0x2A, 0x00, 0x81, 0x0B, 
	0x91, 0x24, 0x00, 0x00, 0x92, 0x40, 0x00, 0x00, 0x92, 0x43, 0x00, 0x00, 0x92, 0x48, 0x00, 0x14, 0x91, 0x24, 0x79, 0x00, 0x92, 0x40, 0x7F, 0x00, 0x92, 0x43, 0x7F, 0x00, 0x92, 0x48, 0x7F, 0x00, 0x99, 0x2A, 0x32, 0x00, 0x99, 0x24, 0x6A, 0x01, 0x99, 0x2A, 0x00, 0x00, 0x99, 0x24, 0x00, 0x81, 0x11, 0x91, 0x24, 0x00, 0x00, 0x92, 0x40, 0x00, 0x00, 0x92, 0x43, 0x00, 0x00, 0x92, 0x48, 0x00, 
	0x0E, 0x99, 0x2A, 0x4E, 0x00, 0x99, 0x28, 0x6A, 0x01, 0x99, 0x2A, 0x00, 0x00, 0x99, 0x28, 0x00, 0x81, 0x1F, 0x99, 0x2A, 0x32, 0x01, 0x99, 0x2A, 0x00, 0x81, 0x1F, 0x91, 0x28, 0x79, 0x00, 0x92, 0x40, 0x7F, 0x00, 0x92, 0x43, 0x7F, 0x00, 0x92, 0x4A, 0x7F, 0x00, 0x99, 0x2A, 0x32, 0x00, 0x99, 0x24, 0x4E, 0x01, 0x99, 0x2A, 0x00, 0x00, 0x99, 0x24, 0x00, 0x81, 0x11, 0x91, 0x28, 0x00, 0x00, 
	0x92, 0x40, 0x00, 0x00, 0x92, 0x43, 0x00, 0x00, 0x92, 0x4A, 0x00, 0x0E, 0x99, 0x2A, 0x4E, 0x01, 0x99, 0x2A, 0x00, 0x81, 0x1F, 0x99, 0x2A, 0x32, 0x01, 0x99, 0x2A, 0x00, 0x81, 0x1F, 0x91, 0x28, 0x79, 0x00, 0x92, 0x40, 0x7F, 0x00, 0x92, 0x43, 0x7F, 0x00, 0x92, 0x4A, 0x7F, 0x00, 0x99, 0x2A, 0x32, 0x00, 0x99, 0x24, 0x4E, 0x01, 0x99, 0x2A, 0x00, 0x00, 0x99, 0x24, 0x00, 0x81, 0x11, 0x91, 
	0x28, 0x00, 0x0E, 0x99, 0x2A, 0x4E, 0x00, 0x99, 0x28, 0x6A, 0x01, 0x99, 0x2A, 0x00, 0x00, 0x99, 0x28, 0x00, 0x09, 0x92, 0x40, 0x00, 0x00, 0x92, 0x43, 0x00, 0x00, 0x92, 0x4A, 0x00, 0x81, 0x16, 0x99, 0x2A, 0x32, 0x01, 0x99, 0x2A, 0x00, 0x81, 0x1F, 0x91, 0x28, 0x79, 0x00, 0x92, 0x40, 0x7F, 0x00, 0x92, 0x43, 0x7F, 0x00, 0x92, 0x48, 0x7F, 0x00, 0x99, 0x2A, 0x32, 0x00, 0x99, 0x24, 0x4E, 
	0x01, 0x99, 0x2A, 0x00, 0x00, 0x99, 0x24, 0x00, 0x81, 0x11, 0x91, 0x28, 0x00, 0x00, 0x92, 0x40, 0x00, 0x00, 0x92, 0x43, 0x00, 0x00, 0x92, 0x48, 0x00, 0x0E, 0x91, 0x28, 0x79, 0x00, 0x92, 0x40, 0x7F, 0x00, 0x92, 0x43, 0x7F, 0x00, 0x92, 0x48, 0x7F, 0x00, 0x99, 0x2A, 0x4E, 0x00, 0x99, 0x24, 0x6A, 0x01, 0x99, 0x2A, 0x00, 0x00, 0x99, 0x24, 0x00, 0x81, 0x1F, 0x99, 0x2A, 0x32, 0x01, 0x99, 
	0x2A, 0x00, 0x81, 0x0B, 0x91, 0x28, 0x00, 0x14, 0x91, 0x28, 0x79, 0x00, 0x99, 0x2A, 0x32, 0x01, 0x99, 0x2A, 0x00, 0x81, 0x11, 0x91, 0x28, 0x00, 0x0E, 0x91, 0x28, 0x79, 0x00, 0x99, 0x2E, 0x4E, 0x00, 0x99, 0x28, 0x6A, 0x01, 0x99, 0x2E, 0x00, 0x00, 0x99, 0x28, 0x00, 0x81, 0x11, 0x91, 0x28, 0x00, 0x0E, 0x91, 0x26, 0x79, 0x00, 0x99, 0x2A, 0x4E, 0x01, 0x99, 0x2A, 0x00, 0x81, 0x11, 0x91, 
	0x26, 0x00, 0x0E, 0x91, 0x28, 0x79, 0x00, 0x99, 0x2A, 0x32, 0x01, 0x99, 0x2A, 0x00, 0x77, 0x92, 0x40, 0x00, 0x00, 0x92, 0x43, 0x00, 0x00, 0x92, 0x48, 0x00, 0x1A, 0x91, 0x28, 0x00, 0x0E, 0x91, 0x29, 0x79, 0x00, 0x92, 0x41, 0x7F, 0x00, 0x92, 0x45, 0x7F, 0x00, 0x92, 0x4A, 0x7F, 0x00, 0x99, 0x2A, 0x4E, 0x00, 0x99, 0x24, 0x6A, 0x01, 0x99, 0x2A, 0x00, 0x00, 0x99, 0x24, 0x00, 0x81, 0x1F, 
	0x99, 0x2A, 0x32, 0x01, 0x99, 0x2A, 0x00, 0x81, 0x0B, 0x91, 0x29, 0x00, 0x00, 0x92, 0x41, 0x00, 0x00, 0x92, 0x45, 0x00, 0x00, 0x92, 0x4A, 0x00, 0x14, 0x99, 0x2A, 0x32, 0x01, 0x99, 0x2A, 0x00, 0x81, 0x1F, 0x99, 0x2A, 0x4E, 0x00, 0x99, 0x28, 0x6A, 0x01, 0x99, 0x2A, 0x00, 0x00, 0x99, 0x28, 0x00, 0x81, 0x1F, 0x99, 0x2A, 0x32, 0x01, 0x99, 0x2A, 0x00, 0x81, 0x1F, 0x91, 0x29, 0x79, 0x00, 
	0x92, 0x41, 0x7F, 0x00, 0x92, 0x45, 0x7F, 0x00, 0x92, 0x4A, 0x7F, 0x00, 0x99, 0x2A, 0x32, 0x00, 0x99, 0x24, 0x4E, 0x01, 0x99, 0x2A, 0x00, 0x00, 0x99, 0x24, 0x00, 0x81, 0x11, 0x91, 0x29, 0x00, 0x00, 0x92, 0x41, 0x00, 0x00, 0x92, 0x45, 0x00, 0x00, 0x92, 0x4A, 0x00, 0x0E, 0x91, 0x29, 0x79, 0x00, 0x92, 0x41, 0x7F, 0x00, 0x92, 0x45, 0x7F, 0x00, 0x92, 0x48, 0x7F, 0x00, 0x99, 0x2A, 0x4E, 
	0x00, 0x99, 0x24, 0x6A, 0x01, 0x99, 0x2A, 0x00, 0x00, 0x99, 0x24, 0x00, 0x81, 0x1F, 0x99, 0x2A, 0x32, 0x01, 0x99, 0x2A, 0x00, 0x81, 0x0B, 0x91, 0x29, 0x00, 0x00, 0x92, 0x41, 0x00, 0x00, 0x92, 0x45, 0x00, 0x00, 0x92, 0x48, 0x00, 0x14, 0x91, 0x29, 0x79, 0x00, 0x92, 0x41, 0x7F, 0x00, 0x92, 0x45, 0x7F, 0x00, 0x92, 0x48, 0x7F, 0x00, 0x99, 0x2A, 0x32, 0x00, 0x99, 0x24, 0x6A, 0x01, 0x99, 
	0x2A, 0x00, 0x00, 0x99, 0x24, 0x00, 0x81, 0x11, 0x91, 0x29, 0x00, 0x00, 0x92, 0x41, 0x00, 0x00, 0x92, 0x45, 0x00, 0x00, 0x92, 0x48, 0x00, 0x0E, 0x99, 0x2A, 0x4E, 0x00, 0x99, 0x28, 0x6A, 0x01, 0x99, 0x2A, 0x00, 0x00, 0x99, 0x28, 0x00, 0x81, 0x1F, 0x99, 0x2A, 0x32, 0x01, 0x99, 0x2A, 0x00, 0x81, 0x1F, 0x91, 0x2C, 0x79, 0x00, 0x92, 0x41, 0x7F, 0x00, 0x92, 0x44, 0x7F, 0x00, 0x92, 0x4A, 
	0x7F, 0x00, 0x99, 0x2A, 0x32, 0x00, 0x99, 0x24, 0x4E, 0x01, 0x99, 0x2A, 0x00, 0x00, 0x99, 0x24, 0x00, 0x81, 0x11, 0x91, 0x2C, 0x00, 0x00, 0x92, 0x41, 0x00, 0x00, 0x92, 0x44, 0x00, 0x00, 0x92, 0x4A, 0x00, 0x0E, 0x99, 0x2A, 0x4E, 0x01, 0x99, 0x2A, 0x00, 0x81, 0x1F, 0x99, 0x2A, 0x32, 0x01, 0x99, 0x2A, 0x00, 0x81, 0x1F, 0x91, 0x2C, 0x79, 0x00, 0x92, 0x41, 0x7F, 0x00, 0x92, 0x44, 0x7F, 
	0x00, 0x92, 0x4A, 0x7F, 0x00, 0x99, 0x2A, 0x32, 0x00, 0x99, 0x24, 0x4E, 0x01, 0x99, 0x2A, 0x00, 0x00, 0x99, 0x24, 0x00, 0x81, 0x11, 0x91, 0x2C, 0x00, 0x0E, 0x99, 0x2A, 0x4E, 0x00, 0x99, 0x28, 0x6A, 0x01, 0x99, 0x2A, 0x00, 0x00, 0x99, 0x28, 0x00, 0x09, 0x92, 0x41, 0x00, 0x00, 0x92, 0x44, 0x00, 0x00, 0x92, 0x4A, 0x00, 0x81, 0x16, 0x99, 0x2A, 0x32, 0x01, 0x99, 0x2A, 0x00, 0x81, 0x1F, 
	0x91, 0x2C, 0x79, 0x00, 0x92, 0x41, 0x7F, 0x00, 0x92, 0x44, 0x7F, 0x00, 0x92, 0x48, 0x7F, 0x00, 0x99, 0x2A, 0x32, 0x00, 0x99, 0x24, 0x4E, 0x01, 0x99, 0x2A, 0x00, 0x00, 0x99, 0x24, 0x00, 0x81, 0x11, 0x91, 0x2C, 0x00, 0x00, 0x92, 0x41, 0x00, 0x00, 0x92, 0x44, 0x00, 0x00, 0x92, 0x48, 0x00, 0x0E, 0x91, 0x2C, 0x79, 0x00, 0x92, 0x41, 0x7F, 0x00, 0x92, 0x44, 0x7F, 0x00, 0x92, 0x48, 0x7F, 
	0x00, 0x95, 0x45, 0x4B, 0x00, 0x95, 0x51, 0x4B, 0x00, 0x99, 0x2A, 0x4E, 0x00, 0x99, 0x24, 0x6A, 0x01, 0x99, 0x2A, 0x00, 0x00, 0x99, 0x24, 0x00, 0x81, 0x1F, 0x95, 0x45, 0x00, 0x00, 0x95, 0x51, 0x00, 0x00, 0x95, 0x47, 0x54, 0x00, 0x95, 0x53, 0x54, 0x00, 0x99, 0x2A, 0x32, 0x01, 0x99, 0x2A, 0x00, 0x81, 0x1F, 0x95, 0x47, 0x00, 0x00, 0x95, 0x53, 0x00, 0x00, 0x95, 0x48, 0x5D, 0x00, 0x95, 
	0x54, 0x5D, 0x00, 0x99, 0x2A, 0x32, 0x01, 0x99, 0x2A, 0x00, 0x81, 0x01, 0x91, 0x2C, 0x00, 0x00, 0x92, 0x41, 0x00, 0x00, 0x92, 0x44, 0x00, 0x00, 0x92, 0x48, 0x00, 0x1E, 0x91, 0x22, 0x79, 0x00, 0x92, 0x41, 0x7F, 0x00, 0x92, 0x44, 0x7F, 0x00, 0x92, 0x4A, 0x7F, 0x00, 0x95, 0x48, 0x00, 0x00, 0x95, 0x54, 0x00, 0x00, 0x95, 0x4A, 0x67, 0x00, 0x95, 0x56, 0x67, 0x00, 0x99, 0x28, 0x6A, 0x01, 
	0x99, 0x28, 0x00, 0x81, 0x1F, 0x95, 0x4A, 0x00, 0x00, 0x95, 0x56, 0x00, 0x00, 0x95, 0x4C, 0x70, 0x00, 0x95, 0x58, 0x70, 0x00, 0x99, 0x30, 0x5C, 0x01, 0x99, 0x30, 0x00, 0x81, 0x1F, 0x95, 0x4C, 0x00, 0x00, 0x95, 0x58, 0x00, 0x00, 0x95, 0x4D, 0x79, 0x00, 0x95, 0x59, 0x79, 0x00, 0x99, 0x2D, 0x5C, 0x01, 0x99, 0x2D, 0x00, 0x81, 0x01, 0x91, 0x22, 0x00, 0x00, 0x92, 0x41, 0x00, 0x00, 0x92, 
	0x44, 0x00, 0x00, 0x92, 0x4A, 0x00, 0x1E, 0x91, 0x24, 0x79, 0x00, 0x92, 0x40, 0x7F, 0x00, 0x92, 0x43, 0x7F, 0x00, 0x92, 0x4A, 0x7F, 0x00, 0x95, 0x4D, 0x00, 0x00, 0x95, 0x59, 0x00, 0x00, 0x95, 0x4F, 0x79, 0x00, 0x95, 0x5B, 0x79, 0x00, 0x99, 0x31, 0x4E, 0x00, 0x99, 0x24, 0x6A, 0x01, 0x99, 0x31, 0x00, 0x00, 0x99, 0x24, 0x00, 0x82, 0x2B, 0x91, 0x24, 0x00, 0x00, 0x92, 0x40, 0x00, 0x00, 
	0x92, 0x43, 0x00, 0x00, 0x92, 0x4A, 0x00, 0x81, 0x34, 0x99, 0x2A, 0x4E, 0x00, 0x99, 0x28, 0x6A, 0x01, 0x99, 0x2A, 0x00, 0x00, 0x99, 0x28, 0x00, 0x81, 0x1F, 0x99, 0x2A, 0x32, 0x01, 0x99, 0x2A, 0x00, 0x81, 0x1F, 0x91, 0x24, 0x79, 0x00, 0x92, 0x40, 0x7F, 0x00, 0x92, 0x43, 0x7F, 0x00, 0x92, 0x4A, 0x7F, 0x00, 0x99, 0x2A, 0x32, 0x00, 0x99, 0x24, 0x4E, 0x01, 0x99, 0x2A, 0x00, 0x00, 0x99, 
	0x24, 0x00, 0x81, 0x11, 0x91, 0x24, 0x00, 0x00, 0x92, 0x40, 0x00, 0x00, 0x92, 0x43, 0x00, 0x00, 0x92, 0x4A, 0x00, 0x0E, 0x91, 0x24, 0x79, 0x00, 0x92, 0x40, 0x7F, 0x00, 0x92, 0x43, 0x7F, 0x00, 0x92, 0x48, 0x7F, 0x00, 0x99, 0x2A, 0x4E, 0x00, 0x99, 0x24, 0x6A, 0x01, 0x99, 0x2A, 0x00, 0x00, 0x99, 0x24, 0x00, 0x81, 0x1F, 0x99, 0x2A, 0x32, 0x01, 0x99, 0x2A, 0x00, 0x81, 0x0B, 0x91, 0x24, 
	0x00, 0x00, 0x92, 0x40, 0x00, 0x00, 0x92, 0x43, 0x00, 0x00, 0x92, 0x48, 0x00, 0x14, 0x91, 0x24, 0x79, 0x00, 0x92, 0x40, 0x7F, 0x00, 0x92, 0x43, 0x7F, 0x00, 0x92, 0x48, 0x7F, 0x00, 0x99, 0x2A, 0x32, 0x00, 0x99, 0x24, 0x6A, 0x01, 0x99, 0x2A, 0x00, 0x00, 0x99, 0x24, 0x00, 0x81, 0x11, 0x91, 0x24, 0x00, 0x00, 0x92, 0x40, 0x00, 0x00, 0x92, 0x43, 0x00, 0x00, 0x92, 0x48, 0x00, 0x0E, 0x99, 
	0x2A, 0x4E, 0x00, 0x99, 0x28, 0x6A, 0x01, 0x99, 0x2A, 0x00, 0x00, 0x99, 0x28, 0x00, 0x81, 0x1F, 0x99, 0x2A, 0x32, 0x01, 0x99, 0x2A, 0x00, 0x81, 0x1F, 0x91, 0x28, 0x79, 0x00, 0x92, 0x40, 0x7F, 0x00, 0x92, 0x43, 0x7F, 0x00, 0x92, 0x4A, 0x7F, 0x00, 0x99, 0x2A, 0x32, 0x00, 0x99, 0x24, 0x4E, 0x01, 0x99, 0x2A, 0x00, 0x00, 0x99, 0x24, 0x00, 0x81, 0x11, 0x91, 0x28, 0x00, 0x00, 0x92, 0x40, 
	0x00, 0x00, 0x92, 0x43, 0x00, 0x00, 0x92, 0x4A, 0x00, 0x0E, 0x99, 0x2A, 0x4E, 0x01, 0x99, 0x2A, 0x00, 0x81, 0x1F, 0x99, 0x2A, 0x32, 0x01, 0x99, 0x2A, 0x00, 0x81, 0x1F, 0x91, 0x28, 0x79, 0x00, 0x92, 0x40, 0x7F, 0x00, 0x92, 0x43, 0x7F, 0x00, 0x92, 0x4A, 0x7F, 0x00, 0x99, 0x2A, 0x32, 0x00, 0x99, 0x24, 0x4E, 0x01, 0x99, 0x2A, 0x00, 0x00, 0x99, 0x24, 0x00, 0x81, 0x11, 0x91, 0x28, 0x00, 
	0x0E, 0x97, 0x4F, 0x63, 0x00, 0x97, 0x58, 0x7F, 0x00, 0x99, 0x2A, 0x4E, 0x00, 0x99, 0x28, 0x6A, 0x01, 0x99, 0x2A, 0x00, 0x00, 0x99, 0x28, 0x00, 0x09, 0x92, 0x40, 0x00, 0x00, 0x92, 0x43, 0x00, 0x00, 0x92, 0x4A, 0x00, 0x81, 0x16, 0x99, 0x2A, 0x32, 0x01, 0x99, 0x2A, 0x00, 0x81, 0x1F, 0x91, 0x28, 0x79, 0x00, 0x92, 0x40, 0x7F, 0x00, 0x92, 0x43, 0x7F, 0x00, 0x92, 0x48, 0x7F, 0x00, 0x99, 
	0x2A, 0x32, 0x00, 0x99, 0x24, 0x4E, 0x01, 0x99, 0x2A, 0x00, 0x00, 0x99, 0x24, 0x00, 0x81, 0x01, 0x97, 0x4F, 0x00, 0x00, 0x97, 0x58, 0x00, 0x10, 0x91, 0x28, 0x00, 0x00, 0x92, 0x40, 0x00, 0x00, 0x92, 0x43, 0x00, 0x00, 0x92, 0x48, 0x00, 0x0E, 0x91, 0x28, 0x79, 0x00, 0x92, 0x40, 0x7F, 0x00, 0x92, 0x43, 0x7F, 0x00, 0x92, 0x48, 0x7F, 0x00, 0x97, 0x51, 0x63, 0x00, 0x97, 0x59, 0x7F, 0x00, 
	0x99, 0x2A, 0x4E, 0x00, 0x99, 0x24, 0x6A, 0x01, 0x99, 0x2A, 0x00, 0x00, 0x99, 0x24, 0x00, 0x81, 0x1F, 0x99, 0x2A, 0x32, 0x01, 0x99, 0x2A, 0x00, 0x81, 0x0B, 0x91, 0x28, 0x00, 0x14, 0x91, 0x28, 0x79, 0x00, 0x99, 0x2A, 0x32, 0x01, 0x99, 0x2A, 0x00, 0x81, 0x01, 0x97, 0x51, 0x00, 0x00, 0x97, 0x59, 0x00, 0x10, 0x91, 0x28, 0x00, 0x0E, 0x91, 0x28, 0x79, 0x00, 0x97, 0x53, 0x63, 0x00, 0x97, 
	0x5B, 0x7F, 0x00, 0x99, 0x2E, 0x4E, 0x00, 0x99, 0x28, 0x6A, 0x01, 0x99, 0x2E, 0x00, 0x00, 0x99, 0x28, 0x00, 0x81, 0x11, 0x91, 0x28, 0x00, 0x0E, 0x91, 0x26, 0x79, 0x00, 0x99, 0x2A, 0x4E, 0x01, 0x99, 0x2A, 0x00, 0x81, 0x11, 0x91, 0x26, 0x00, 0x0E, 0x91, 0x28, 0x79, 0x00, 0x99, 0x2A, 0x32, 0x01, 0x99, 0x2A, 0x00, 0x77, 0x92, 0x40, 0x00, 0x00, 0x92, 0x43, 0x00, 0x00, 0x92, 0x48, 0x00, 
	0x0A, 0x97, 0x53, 0x00, 0x00, 0x97, 0x5B, 0x00, 0x10, 0x91, 0x28, 0x00, 0x0E, 0x91, 0x29, 0x79, 0x00, 0x92, 0x41, 0x7F, 0x00, 0x92, 0x45, 0x7F, 0x00, 0x92, 0x4A, 0x7F, 0x00, 0x97, 0x53, 0x63, 0x00, 0x97, 0x5B, 0x7F, 0x00, 0x99, 0x2A, 0x4E, 0x00, 0x99, 0x24, 0x6A, 0x01, 0x99, 0x2A, 0x00, 0x00, 0x99, 0x24, 0x00, 0x81, 0x1F, 0x99, 0x2A, 0x32, 0x01, 0x99, 0x2A, 0x00, 0x81, 0x0B, 0x91, 
	0x29, 0x00, 0x00, 0x92, 0x41, 0x00, 0x00, 0x92, 0x45, 0x00, 0x00, 0x92, 0x4A, 0x00, 0x14, 0x99, 0x2A, 0x32, 0x01, 0x99, 0x2A, 0x00, 0x81, 0x01, 0x97, 0x53, 0x00, 0x00, 0x97, 0x5B, 0x00, 0x1E, 0x97, 0x54, 0x63, 0x00, 0x97, 0x5D, 0x7F, 0x00, 0x99, 0x2A, 0x4E, 0x00, 0x99, 0x28, 0x6A, 0x01, 0x99, 0x2A, 0x00, 0x00, 0x99, 0x28, 0x00, 0x81, 0x1F, 0x99, 0x2A, 0x32, 0x01, 0x99, 0x2A, 0x00, 
	0x81, 0x0B, 0x97, 0x54, 0x00, 0x00, 0x97, 0x5D, 0x00, 0x14, 0x91, 0x29, 0x79, 0x00, 0x92, 0x41, 0x7F, 0x00, 0x92, 0x45, 0x7F, 0x00, 0x92, 0x4A, 0x7F, 0x00, 0x97, 0x4D, 0x63, 0x00, 0x97, 0x54, 0x7F, 0x00, 0x99, 0x2A, 0x32, 0x00, 0x99, 0x24, 0x4E, 0x01, 0x99, 0x2A, 0x00, 0x00, 0x99, 0x24, 0x00, 0x81, 0x11, 0x91, 0x29, 0x00, 0x00, 0x92, 0x41, 0x00, 0x00, 0x92, 0x45, 0x00, 0x00, 0x92, 
	0x4A, 0x00, 0x0E, 0x91, 0x29, 0x79, 0x00, 0x92, 0x41, 0x7F, 0x00, 0x92, 0x45, 0x7F, 0x00, 0x92, 0x48, 0x7F, 0x00, 0x99, 0x2A, 0x4E, 0x00, 0x99, 0x24, 0x6A, 0x01, 0x99, 0x2A, 0x00, 0x00, 0x99, 0x24, 0x00, 0x81, 0x1F, 0x99, 0x2A, 0x32, 0x01, 0x99, 0x2A, 0x00, 0x81, 0x0B, 0x91, 0x29, 0x00, 0x00, 0x92, 0x41, 0x00, 0x00, 0x92, 0x45, 0x00, 0x00, 0x92, 0x48, 0x00, 0x14, 0x91, 0x29, 0x79, 
	0x00, 0x92, 0x41, 0x7F, 0x00, 0x92, 0x45, 0x7F, 0x00, 0x92, 0x48, 0x7F, 0x00, 0x99, 0x2A, 0x32, 0x00, 0x99, 0x24, 0x6A, 0x01, 0x99, 0x2A, 0x00, 0x00, 0x99, 0x24, 0x00, 0x81, 0x11, 0x91, 0x29, 0x00, 0x00, 0x92, 0x41, 0x00, 0x00, 0x92, 0x45, 0x00, 0x00, 0x92, 0x48, 0x00, 0x0E, 0x99, 0x2A, 0x4E, 0x00, 0x99, 0x28, 0x6A, 0x01, 0x99, 0x2A, 0x00, 0x00, 0x99, 0x28, 0x00, 0x81, 0x1F, 0x92, 
	0x47, 0x7F, 0x00, 0x99, 0x2A, 0x32, 0x01, 0x99, 0x2A, 0x00, 0x81, 0x11, 0x92, 0x47, 0x00, 0x0E, 0x91, 0x2C, 0x79, 0x00, 0x92, 0x48, 0x7F, 0x00, 0x99, 0x2A, 0x32, 0x00, 0x99, 0x24, 0x4E, 0x01, 0x99, 0x2A, 0x00, 0x00, 0x99, 0x24, 0x00, 0x77, 0x97, 0x4D, 0x00, 0x00, 0x97, 0x54, 0x00, 0x14, 0x95, 0x4F, 0x00, 0x00, 0x95, 0x5B, 0x00, 0x06, 0x91, 0x2C, 0x00, 0x00, 0x92, 0x48, 0x00, 0x0E, 
	0x91, 0x2B, 0x79, 0x00, 0x92, 0x47, 0x7F, 0x00, 0x92, 0x4D, 0x7F, 0x00, 0x92, 0x52, 0x7F, 0x00, 0x95, 0x54, 0x79, 0x00, 0x95, 0x60, 0x79, 0x00, 0x99, 0x37, 0x6A, 0x00, 0x99, 0x24, 0x6A, 0x01, 0x99, 0x37, 0x00, 0x00, 0x99, 0x24, 0x00, 0x82, 0x2B, 0x91, 0x2B, 0x00, 0x00, 0x92, 0x47, 0x00, 0x00, 0x92, 0x4D, 0x00, 0x00, 0x92, 0x52, 0x00, 0x14, 0x99, 0x28, 0x40, 0x01, 0x99, 0x28, 0x00, 
	0x81, 0x01, 0x95, 0x54, 0x00, 0x00, 0x95, 0x60, 0x00, 0x1E, 0x91, 0x2B, 0x79, 0x00, 0x92, 0x47, 0x7F, 0x00, 0x92, 0x4D, 0x7F, 0x00, 0x92, 0x50, 0x7F, 0x00, 0x95, 0x52, 0x79, 0x00, 0x95, 0x5E, 0x79, 0x00, 0x99, 0x28, 0x5C, 0x01, 0x99, 0x28, 0x00, 0x81, 0x1F, 0x99, 0x28, 0x40, 0x01, 0x99, 0x28, 0x00, 0x81, 0x0B, 0x91, 0x2B, 0x00, 0x00, 0x92, 0x47, 0x00, 0x00, 0x92, 0x4D, 0x00, 0x00, 
	0x92, 0x50, 0x00, 0x14, 0x99, 0x28, 0x5C, 0x01, 0x99, 0x28, 0x00, 0x81, 0x01, 0x95, 0x52, 0x00, 0x00, 0x95, 0x5E, 0x00, 0x1E, 0x91, 0x2B, 0x79, 0x00, 0x92, 0x47, 0x7F, 0x00, 0x92, 0x4C, 0x7F, 0x00, 0x92, 0x4F, 0x7F, 0x00, 0x95, 0x4F, 0x79, 0x00, 0x95, 0x5B, 0x79, 0x00, 0x99, 0x30, 0x5C, 0x01, 0x99, 0x30, 0x00, 0x81, 0x1F, 0x99, 0x30, 0x4E, 0x01, 0x99, 0x30, 0x00, 0x81, 0x0B, 0x91, 
	0x2B, 0x00, 0x00, 0x92, 0x47, 0x00, 0x00, 0x92, 0x4C, 0x00, 0x00, 0x92, 0x4F, 0x00, 0x14, 0x99, 0x30, 0x5C, 0x01, 0x99, 0x30, 0x00, 0x81, 0x01, 0x95, 0x4F, 0x00, 0x00, 0x95, 0x5B, 0x00, 0x1E, 0x91, 0x2B, 0x79, 0x00, 0x92, 0x43, 0x7F, 0x00, 0x92, 0x47, 0x7F, 0x00, 0x92, 0x4D, 0x7F, 0x00, 0x95, 0x4D, 0x79, 0x00, 0x95, 0x59, 0x79, 0x00, 0x99, 0x2D, 0x5C, 0x01, 0x99, 0x2D, 0x00, 0x81, 
	0x1F, 0x99, 0x2D, 0x4E, 0x01, 0x99, 0x2D, 0x00, 0x81, 0x0B, 0x91, 0x2B, 0x00, 0x00, 0x92, 0x43, 0x00, 0x00, 0x92, 0x47, 0x00, 0x00, 0x92, 0x4D, 0x00, 0x14, 0x99, 0x29, 0x5C, 0x01, 0x99, 0x29, 0x00, 0x81, 0x01, 0x95, 0x4D, 0x00, 0x00, 0x95, 0x59, 0x00, 0x1E, 0x91, 0x24, 0x79, 0x00, 0x92, 0x43, 0x76, 0x00, 0x92, 0x48, 0x76, 0x00, 0x92, 0x4C, 0x76, 0x00, 0x96, 0x40, 0x6F, 0x00, 0x96, 
	0x43, 0x6F, 0x00, 0x96, 0x48, 0x6F, 0x00, 0x99, 0x31, 0x4E, 0x00, 0x99, 0x24, 0x6A, 0x01, 0x99, 0x31, 0x00, 0x00, 0x99, 0x24, 0x00, 0x81, 0x6F, 0x92, 0x43, 0x00, 0x00, 0x92, 0x48, 0x00, 0x00, 0x92, 0x4C, 0x00, 0x3C, 0x91, 0x24, 0x00, 0x81, 0x34, 0x91, 0x24, 0x79, 0x00, 0x92, 0x43, 0x76, 0x00, 0x92, 0x48, 0x76, 0x00, 0x92, 0x4C, 0x76, 0x00, 0x93, 0x43, 0x7F, 0x00, 0x99, 0x2A, 0x4E, 
	0x00, 0x99, 0x28, 0x6A, 0x01, 0x99, 0x2A, 0x00, 0x00, 0x99, 0x28, 0x00, 0x81, 0x1F, 0x99, 0x2A, 0x32, 0x01, 0x99, 0x2A, 0x00, 0x4F, 0x92, 0x43, 0x00, 0x00, 0x92, 0x48, 0x00, 0x00, 0x92, 0x4C, 0x00, 0x3C, 0x91, 0x24, 0x00, 0x14, 0x94, 0x43, 0x7F, 0x00, 0x99, 0x2A, 0x32, 0x00, 0x99, 0x24, 0x4E, 0x01, 0x99, 0x2A, 0x00, 0x00, 0x99, 0x24, 0x00, 0x81, 0x1F, 0x91, 0x24, 0x79, 0x00, 0x92, 
	0x43, 0x76, 0x00, 0x92, 0x48, 0x76, 0x00, 0x92, 0x4C, 0x76, 0x00, 0x99, 0x2A, 0x4E, 0x00, 0x99, 0x24, 0x6A, 0x01, 0x99, 0x2A, 0x00, 0x00, 0x99, 0x24, 0x00, 0x81, 0x1F, 0x99, 0x2A, 0x32, 0x01, 0x99, 0x2A, 0x00, 0x4F, 0x92, 0x43, 0x00, 0x00, 0x92, 0x48, 0x00, 0x00, 0x92, 0x4C, 0x00, 0x3C, 0x93, 0x43, 0x00, 0x14, 0x93, 0x43, 0x74, 0x00, 0x99, 0x2A, 0x32, 0x00, 0x99, 0x24, 0x6A, 0x01, 
	0x99, 0x2A, 0x00, 0x00, 0x99, 0x24, 0x00, 0x81, 0x11, 0x93, 0x43, 0x00, 0x0E, 0x92, 0x43, 0x76, 0x00, 0x92, 0x48, 0x76, 0x00, 0x92, 0x4C, 0x76, 0x00, 0x93, 0x4C, 0x7F, 0x00, 0x99, 0x2A, 0x4E, 0x00, 0x99, 0x28, 0x6A, 0x01, 0x99, 0x2A, 0x00, 0x00, 0x99, 0x28, 0x00, 0x81, 0x0B, 0x94, 0x43, 0x00, 0x14, 0x94, 0x43, 0x74, 0x00, 0x99, 0x2A, 0x32, 0x01, 0x99, 0x2A, 0x00, 0x4F, 0x92, 0x43, 
	0x00, 0x00, 0x92, 0x48, 0x00, 0x00, 0x92, 0x4C, 0x00, 0x3C, 0x91, 0x24, 0x00, 0x00, 0x93, 0x4C, 0x00, 0x06, 0x94, 0x43, 0x00, 0x0E, 0x91, 0x23, 0x79, 0x00, 0x93, 0x4A, 0x7F, 0x00, 0x94, 0x4C, 0x7F, 0x00, 0x99, 0x2A, 0x32, 0x00, 0x99, 0x24, 0x4E, 0x01, 0x99, 0x2A, 0x00, 0x00, 0x99, 0x24, 0x00, 0x81, 0x0B, 0x96, 0x40, 0x00, 0x00, 0x96, 0x43, 0x00, 0x00, 0x96, 0x48, 0x00, 0x06, 0x91, 
	0x23, 0x00, 0x0E, 0x92, 0x43, 0x76, 0x00, 0x92, 0x47, 0x76, 0x00, 0x92, 0x4A, 0x76, 0x00, 0x96, 0x3E, 0x6F, 0x00, 0x96, 0x43, 0x6F, 0x00, 0x96, 0x47, 0x6F, 0x00, 0x99, 0x2A, 0x4E, 0x01, 0x99, 0x2A, 0x00, 0x81, 0x0B, 0x94, 0x4C, 0x00, 0x14, 0x94, 0x4A, 0x7F, 0x00, 0x99, 0x2A, 0x32, 0x01, 0x99, 0x2A, 0x00, 0x4F, 0x92, 0x43, 0x00, 0x00, 0x92, 0x47, 0x00, 0x00, 0x92, 0x4A, 0x00, 0x50, 
	0x91, 0x23, 0x79, 0x00, 0x99, 0x2A, 0x32, 0x00, 0x99, 0x24, 0x4E, 0x01, 0x99, 0x2A, 0x00, 0x00, 0x99, 0x24, 0x00, 0x81, 0x11, 0x91, 0x23, 0x00, 0x0E, 0x92, 0x43, 0x76, 0x00, 0x92, 0x47, 0x76, 0x00, 0x92, 0x4A, 0x76, 0x00, 0x99, 0x2A, 0x4E, 0x00, 0x99, 0x28, 0x6A, 0x01, 0x99, 0x2A, 0x00, 0x00, 0x99, 0x28, 0x00, 0x81, 0x1F, 0x99, 0x2A, 0x32, 0x01, 0x99, 0x2A, 0x00, 0x4F, 0x92, 0x43, 
	0x00, 0x00, 0x92, 0x47, 0x00, 0x00, 0x92, 0x4A, 0x00, 0x50, 0x91, 0x23, 0x79, 0x00, 0x99, 0x2A, 0x32, 0x00, 0x99, 0x24, 0x4E, 0x01, 0x99, 0x2A, 0x00, 0x00, 0x99, 0x24, 0x00, 0x77, 0x93, 0x4A, 0x00, 0x1A, 0x91, 0x23, 0x00, 0x0E, 0x91, 0x23, 0x79, 0x00, 0x92, 0x43, 0x76, 0x00, 0x92, 0x47, 0x76, 0x00, 0x92, 0x4A, 0x76, 0x00, 0x93, 0x47, 0x7F, 0x00, 0x99, 0x2A, 0x4E, 0x00, 0x99, 0x24, 
	0x6A, 0x01, 0x99, 0x2A, 0x00, 0x00, 0x99, 0x24, 0x00, 0x81, 0x11, 0x93, 0x47, 0x00, 0x0E, 0x93, 0x48, 0x7F, 0x00, 0x99, 0x2A, 0x32, 0x01, 0x99, 0x2A, 0x00, 0x4F, 0x92, 0x43, 0x00, 0x00, 0x92, 0x47, 0x00, 0x00, 0x92, 0x4A, 0x00, 0x28, 0x94, 0x4A, 0x00, 0x1A, 0x93, 0x48, 0x00, 0x0E, 0x93, 0x4A, 0x7F, 0x00, 0x94, 0x47, 0x7F, 0x00, 0x99, 0x2A, 0x32, 0x01, 0x99, 0x2A, 0x00, 0x81, 0x01, 
	0x91, 0x23, 0x00, 0x10, 0x93, 0x4A, 0x00, 0x00, 0x94, 0x47, 0x00, 0x0E, 0x91, 0x28, 0x79, 0x00, 0x92, 0x43, 0x76, 0x00, 0x92, 0x47, 0x76, 0x00, 0x92, 0x4A, 0x76, 0x00, 0x93, 0x4F, 0x7F, 0x00, 0x94, 0x48, 0x7F, 0x00, 0x99, 0x2E, 0x4E, 0x00, 0x99, 0x28, 0x6A, 0x01, 0x99, 0x2E, 0x00, 0x00, 0x99, 0x28, 0x00, 0x81, 0x11, 0x94, 0x48, 0x00, 0x0E, 0x94, 0x4A, 0x7F, 0x00, 0x99, 0x2A, 0x4E, 
	0x01, 0x99, 0x2A, 0x00, 0x4F, 0x92, 0x43, 0x00, 0x00, 0x92, 0x47, 0x00, 0x00, 0x92, 0x4A, 0x00, 0x3C, 0x93, 0x4F, 0x00, 0x06, 0x94, 0x4A, 0x00, 0x0E, 0x93, 0x48, 0x7F, 0x00, 0x94, 0x4F, 0x7F, 0x00, 0x99, 0x2A, 0x32, 0x01, 0x99, 0x2A, 0x00, 0x81, 0x01, 0x91, 0x28, 0x00, 0x0A, 0x96, 0x3E, 0x00, 0x00, 0x96, 0x43, 0x00, 0x00, 0x96, 0x47, 0x00, 0x14, 0x91, 0x29, 0x79, 0x00, 0x92, 0x41, 
	0x76, 0x00, 0x92, 0x45, 0x76, 0x00, 0x92, 0x48, 0x76, 0x00, 0x96, 0x41, 0x6F, 0x00, 0x96, 0x45, 0x6F, 0x00, 0x96, 0x48, 0x6F, 0x00, 0x99, 0x2A, 0x4E, 0x00, 0x99, 0x24, 0x6A, 0x01, 0x99, 0x2A, 0x00, 0x00, 0x99, 0x24, 0x00, 0x81, 0x0B, 0x94, 0x4F, 0x00, 0x14, 0x94, 0x48, 0x7F, 0x00, 0x99, 0x2A, 0x32, 0x01, 0x99, 0x2A, 0x00, 0x4F, 0x92, 0x41, 0x00, 0x00, 0x92, 0x45, 0x00, 0x00, 0x92, 
	0x48, 0x00, 0x3C, 0x91, 0x29, 0x00, 0x14, 0x99, 0x2A, 0x32, 0x01, 0x99, 0x2A, 0x00, 0x81, 0x1F, 0x91, 0x29, 0x79, 0x00, 0x92, 0x41, 0x76, 0x00, 0x92, 0x45, 0x76, 0x00, 0x92, 0x48, 0x76, 0x00, 0x99, 0x2A, 0x4E, 0x00, 0x99, 0x28, 0x6A, 0x01, 0x99, 0x2A, 0x00, 0x00, 0x99, 0x28, 0x00, 0x81, 0x1F, 0x99, 0x2A, 0x32, 0x01, 0x99, 0x2A, 0x00, 0x4F, 0x92, 0x41, 0x00, 0x00, 0x92, 0x45, 0x00, 
	0x00, 0x92, 0x48, 0x00, 0x3C, 0x91, 0x29, 0x00, 0x14, 0x99, 0x2A, 0x32, 0x00, 0x99, 0x24, 0x4E, 0x01, 0x99, 0x2A, 0x00, 0x00, 0x99, 0x24, 0x00, 0x81, 0x1F, 0x91, 0x29, 0x79, 0x00, 0x92, 0x41, 0x76, 0x00, 0x92, 0x45, 0x76, 0x00, 0x92, 0x48, 0x76, 0x00, 0x99, 0x2A, 0x4E, 0x00, 0x99, 0x24, 0x6A, 0x01, 0x99, 0x2A, 0x00, 0x00, 0x99, 0x24, 0x00, 0x81, 0x1F, 0x99, 0x2A, 0x32, 0x01, 0x99, 
	0x2A, 0x00, 0x4F, 0x92, 0x41, 0x00, 0x00, 0x92, 0x45, 0x00, 0x00, 0x92, 0x48, 0x00, 0x50, 0x99, 0x2A, 0x32, 0x00, 0x99, 0x24, 0x6A, 0x01, 0x99, 0x2A, 0x00, 0x00, 0x99, 0x24, 0x00, 0x81, 0x0B, 0x93, 0x48, 0x00, 0x14, 0x92, 0x41, 0x76, 0x00, 0x92, 0x45, 0x76, 0x00, 0x92, 0x48, 0x76, 0x00, 0x93, 0x48, 0x7F, 0x00, 0x99, 0x2A, 0x4E, 0x00, 0x99, 0x28, 0x6A, 0x01, 0x99, 0x2A, 0x00, 0x00, 
	0x99, 0x28, 0x00, 0x81, 0x11, 0x93, 0x48, 0x00, 0x0E, 0x93, 0x47, 0x7F, 0x00, 0x99, 0x2A, 0x32, 0x01, 0x99, 0x2A, 0x00, 0x4F, 0x92, 0x41, 0x00, 0x00, 0x92, 0x45, 0x00, 0x00, 0x92, 0x48, 0x00, 0x3C, 0x91, 0x29, 0x00, 0x00, 0x94, 0x48, 0x00, 0x06, 0x93, 0x47, 0x00, 0x0E, 0x91, 0x2B, 0x79, 0x00, 0x93, 0x45, 0x7F, 0x00, 0x94, 0x48, 0x7F, 0x00, 0x99, 0x2A, 0x32, 0x00, 0x99, 0x24, 0x4E, 
	0x01, 0x99, 0x2A, 0x00, 0x00, 0x99, 0x24, 0x00, 0x81, 0x0B, 0x96, 0x41, 0x00, 0x00, 0x96, 0x45, 0x00, 0x00, 0x96, 0x48, 0x00, 0x06, 0x91, 0x2B, 0x00, 0x00, 0x93, 0x45, 0x00, 0x00, 0x94, 0x48, 0x00, 0x0E, 0x92, 0x43, 0x76, 0x00, 0x92, 0x47, 0x76, 0x00, 0x92, 0x4A, 0x76, 0x00, 0x93, 0x47, 0x7F, 0x00, 0x94, 0x47, 0x7F, 0x00, 0x96, 0x43, 0x6F, 0x00, 0x96, 0x47, 0x6F, 0x00, 0x96, 0x4A, 
	0x6F, 0x00, 0x99, 0x2A, 0x4E, 0x01, 0x99, 0x2A, 0x00, 0x81, 0x11, 0x94, 0x47, 0x00, 0x0E, 0x94, 0x45, 0x7F, 0x00, 0x99, 0x2A, 0x32, 0x01, 0x99, 0x2A, 0x00, 0x4F, 0x92, 0x43, 0x00, 0x00, 0x92, 0x47, 0x00, 0x00, 0x92, 0x4A, 0x00, 0x42, 0x94, 0x45, 0x00, 0x0E, 0x91, 0x2B, 0x79, 0x00, 0x94, 0x47, 0x7F, 0x00, 0x99, 0x2A, 0x32, 0x00, 0x99, 0x24, 0x4E, 0x01, 0x99, 0x2A, 0x00, 0x00, 0x99, 
	0x24, 0x00, 0x81, 0x01, 0x93, 0x47, 0x00, 0x10, 0x91, 0x2B, 0x00, 0x0E, 0x92, 0x43, 0x76, 0x00, 0x92, 0x47, 0x76, 0x00, 0x92, 0x4A, 0x76, 0x00, 0x93, 0x48, 0x7F, 0x00, 0x99, 0x2A, 0x4E, 0x00, 0x99, 0x28, 0x6A, 0x01, 0x99, 0x2A, 0x00, 0x00, 0x99, 0x28, 0x00, 0x81, 0x1F, 0x99, 0x2A, 0x32, 0x01, 0x99, 0x2A, 0x00, 0x4F, 0x92, 0x43, 0x00, 0x00, 0x92, 0x47, 0x00, 0x00, 0x92, 0x4A, 0x00, 
	0x32, 0x94, 0x47, 0x00, 0x1E, 0x91, 0x2B, 0x79, 0x00, 0x94, 0x48, 0x7F, 0x00, 0x99, 0x2A, 0x32, 0x00, 0x99, 0x24, 0x4E, 0x01, 0x99, 0x2A, 0x00, 0x00, 0x99, 0x24, 0x00, 0x81, 0x01, 0x93, 0x48, 0x00, 0x10, 0x91, 0x2B, 0x00, 0x0E, 0x91, 0x2B, 0x79, 0x00, 0x92, 0x43, 0x76, 0x00, 0x92, 0x47, 0x76, 0x00, 0x92, 0x4A, 0x76, 0x00, 0x93, 0x4A, 0x7F, 0x00, 0x99, 0x2A, 0x4E, 0x00, 0x99, 0x24, 
	0x6A, 0x01, 0x99, 0x2A, 0x00, 0x00, 0x99, 0x24, 0x00, 0x81, 0x1F, 0x99, 0x2A, 0x32, 0x01, 0x99, 0x2A, 0x00, 0x4F, 0x92, 0x43, 0x00, 0x00, 0x92, 0x47, 0x00, 0x00, 0x92, 0x4A, 0x00, 0x32, 0x94, 0x48, 0x00, 0x0A, 0x93, 0x4A, 0x00, 0x14, 0x93, 0x4C, 0x7F, 0x00, 0x94, 0x4A, 0x7F, 0x00, 0x99, 0x2A, 0x32, 0x01, 0x99, 0x2A, 0x00, 0x81, 0x01, 0x91, 0x2B, 0x00, 0x1E, 0x91, 0x23, 0x79, 0x00, 
	0x92, 0x43, 0x76, 0x00, 0x92, 0x47, 0x76, 0x00, 0x92, 0x4A, 0x76, 0x00, 0x99, 0x2A, 0x4E, 0x00, 0x99, 0x28, 0x6A, 0x01, 0x99, 0x2A, 0x00, 0x00, 0x99, 0x28, 0x00, 0x81, 0x0B, 0x94, 0x4A, 0x00, 0x14, 0x94, 0x4C, 0x7F, 0x00, 0x99, 0x2A, 0x32, 0x01, 0x99, 0x2A, 0x00, 0x4F, 0x92, 0x43, 0x00, 0x00, 0x92, 0x47, 0x00, 0x00, 0x92, 0x4A, 0x00, 0x3C, 0x93, 0x4C, 0x00, 0x14, 0x93, 0x48, 0x7F, 
	0x00, 0x99, 0x2A, 0x32, 0x01, 0x99, 0x2A, 0x00, 0x81, 0x01, 0x91, 0x23, 0x00, 0x0A, 0x96, 0x43, 0x00, 0x00, 0x96, 0x47, 0x00, 0x00, 0x96, 0x4A, 0x00, 0x14, 0x91, 0x24, 0x79, 0x00, 0x92, 0x43, 0x76, 0x00, 0x92, 0x48, 0x76, 0x00, 0x92, 0x4C, 0x76, 0x00, 0x96, 0x40, 0x6F, 0x00, 0x96, 0x43, 0x6F, 0x00, 0x96, 0x48, 0x6F, 0x00, 0x99, 0x2A, 0x4E, 0x00, 0x99, 0x24, 0x6A, 0x01, 0x99, 0x2A, 
	0x00, 0x00, 0x99, 0x24, 0x00, 0x81, 0x0B, 0x94, 0x4C, 0x00, 0x14, 0x94, 0x48, 0x7F, 0x00, 0x99, 0x2A, 0x32, 0x01, 0x99, 0x2A, 0x00, 0x4F, 0x92, 0x43, 0x00, 0x00, 0x92, 0x48, 0x00, 0x00, 0x92, 0x4C, 0x00, 0x3C, 0x91, 0x24, 0x00, 0x14, 0x99, 0x2A, 0x32, 0x01, 0x99, 0x2A, 0x00, 0x81, 0x1F, 0x91, 0x24, 0x79, 0x00, 0x92, 0x43, 0x76, 0x00, 0x92, 0x48, 0x76, 0x00, 0x92, 0x4C, 0x76, 0x00, 
	0x99, 0x2A, 0x4E, 0x00, 0x99, 0x28, 0x6A, 0x01, 0x99, 0x2A, 0x00, 0x00, 0x99, 0x28, 0x00, 0x81, 0x1F, 0x99, 0x2A, 0x32, 0x01, 0x99, 0x2A, 0x00, 0x4F, 0x92, 0x43, 0x00, 0x00, 0x92, 0x48, 0x00, 0x00, 0x92, 0x4C, 0x00, 0x3C, 0x91, 0x24, 0x00, 0x14, 0x99, 0x2A, 0x32, 0x00, 0x99, 0x24, 0x4E, 0x01, 0x99, 0x2A, 0x00, 0x00, 0x99, 0x24, 0x00, 0x77, 0x93, 0x48, 0x00, 0x28, 0x91, 0x24, 0x79, 
	0x00, 0x92, 0x43, 0x76, 0x00, 0x92, 0x48, 0x76, 0x00, 0x92, 0x4C, 0x76, 0x00, 0x93, 0x43, 0x7F, 0x00, 0x99, 0x2A, 0x4E, 0x00, 0x99, 0x24, 0x6A, 0x01, 0x99, 0x2A, 0x00, 0x00, 0x99, 0x24, 0x00, 0x81, 0x1F, 0x99, 0x2A, 0x32, 0x01, 0x99, 0x2A, 0x00, 0x4F, 0x92, 0x43, 0x00, 0x00, 0x92, 0x48, 0x00, 0x00, 0x92, 0x4C, 0x00, 0x28, 0x94, 0x48, 0x00, 0x14, 0x93, 0x43, 0x00, 0x14, 0x93, 0x45, 
	0x7F, 0x00, 0x94, 0x43, 0x7F, 0x00, 0x99, 0x2A, 0x32, 0x00, 0x99, 0x24, 0x6A, 0x01, 0x99, 0x2A, 0x00, 0x00, 0x99, 0x24, 0x00, 0x81, 0x11, 0x93, 0x45, 0x00, 0x0E, 0x92, 0x43, 0x76, 0x00, 0x92, 0x48, 0x76, 0x00, 0x92, 0x4C, 0x76, 0x00, 0x93, 0x51, 0x7F, 0x00, 0x99, 0x2A, 0x4E, 0x00, 0x99, 0x28, 0x6A, 0x01, 0x99, 0x2A, 0x00, 0x00, 0x99, 0x28, 0x00, 0x81, 0x0B, 0x94, 0x43, 0x00, 0x14, 
	0x94, 0x45, 0x7F, 0x00, 0x99, 0x2A, 0x32, 0x01, 0x99, 0x2A, 0x00, 0x4F, 0x92, 0x43, 0x00, 0x00, 0x92, 0x48, 0x00, 0x00, 0x92, 0x4C, 0x00, 0x3C, 0x91, 0x24, 0x00, 0x00, 0x93, 0x51, 0x00, 0x06, 0x94, 0x45, 0x00, 0x0E, 0x91, 0x23, 0x79, 0x00, 0x93, 0x4F, 0x7F, 0x00, 0x94, 0x51, 0x7F, 0x00, 0x99, 0x2A, 0x32, 0x00, 0x99, 0x24, 0x4E, 0x01, 0x99, 0x2A, 0x00, 0x00, 0x99, 0x24, 0x00, 0x81, 
	0x0B, 0x96, 0x40, 0x00, 0x00, 0x96, 0x43, 0x00, 0x00, 0x96, 0x48, 0x00, 0x06, 0x91, 0x23, 0x00, 0x0E, 0x92, 0x43, 0x76, 0x00, 0x92, 0x47, 0x76, 0x00, 0x92, 0x4C, 0x76, 0x00, 0x96, 0x3E, 0x6F, 0x00, 0x96, 0x43, 0x6F, 0x00, 0x96, 0x47, 0x6F, 0x00, 0x99, 0x2A, 0x4E, 0x01, 0x99, 0x2A, 0x00, 0x81, 0x0B, 0x94, 0x51, 0x00, 0x14, 0x94, 0x4F, 0x7F, 0x00, 0x99, 0x2A, 0x32, 0x01, 0x99, 0x2A, 
	0x00, 0x4F, 0x92, 0x43, 0x00, 0x00, 0x92, 0x47, 0x00, 0x00, 0x92, 0x4C, 0x00, 0x50, 0x91, 0x23, 0x79, 0x00, 0x99, 0x2A, 0x32, 0x00, 0x99, 0x24, 0x4E, 0x01, 0x99, 0x2A, 0x00, 0x00, 0x99, 0x24, 0x00, 0x81, 0x11, 0x91, 0x23, 0x00, 0x0E, 0x92, 0x43, 0x76, 0x00, 0x92, 0x47, 0x76, 0x00, 0x92, 0x4C, 0x76, 0x00, 0x99, 0x2A, 0x4E, 0x00, 0x99, 0x28, 0x6A, 0x01, 0x99, 0x2A, 0x00, 0x00, 0x99, 
	0x28, 0x00, 0x81, 0x1F, 0x99, 0x2A, 0x32, 0x01, 0x99, 0x2A, 0x00, 0x4F, 0x92, 0x43, 0x00, 0x00, 0x92, 0x47, 0x00, 0x00, 0x92, 0x4C, 0x00, 0x50, 0x91, 0x23, 0x79, 0x00, 0x99, 0x2A, 0x32, 0x00, 0x99, 0x24, 0x4E, 0x01, 0x99, 0x2A, 0x00, 0x00, 0x99, 0x24, 0x00, 0x81, 0x11, 0x91, 0x23, 0x00, 0x0E, 0x91, 0x23, 0x79, 0x00, 0x92, 0x43, 0x76, 0x00, 0x92, 0x47, 0x76, 0x00, 0x92, 0x4C, 0x76, 
	0x00, 0x99, 0x2A, 0x4E, 0x00, 0x99, 0x24, 0x6A, 0x01, 0x99, 0x2A, 0x00, 0x00, 0x99, 0x24, 0x00, 0x81, 0x1F, 0x99, 0x2A, 0x32, 0x01, 0x99, 0x2A, 0x00, 0x4F, 0x92, 0x43, 0x00, 0x00, 0x92, 0x47, 0x00, 0x00, 0x92, 0x4C, 0x00, 0x3C, 0x93, 0x4F, 0x00, 0x14, 0x93, 0x4C, 0x7F, 0x00, 0x99, 0x2A, 0x32, 0x01, 0x99, 0x2A, 0x00, 0x81, 0x01, 0x91, 0x23, 0x00, 0x10, 0x93, 0x4C, 0x00, 0x0E, 0x91, 
	0x28, 0x79, 0x00, 0x92, 0x43, 0x76, 0x00, 0x92, 0x47, 0x76, 0x00, 0x92, 0x4C, 0x76, 0x00, 0x93, 0x4D, 0x7F, 0x00, 0x99, 0x2A, 0x4E, 0x00, 0x99, 0x28, 0x6A, 0x01, 0x99, 0x2A, 0x00, 0x00, 0x99, 0x28, 0x00, 0x81, 0x0B, 0x94, 0x4F, 0x00, 0x14, 0x94, 0x4C, 0x7F, 0x00, 0x99, 0x2A, 0x32, 0x01, 0x99, 0x2A, 0x00, 0x4F, 0x92, 0x43, 0x00, 0x00, 0x92, 0x47, 0x00, 0x00, 0x92, 0x4C, 0x00, 0x3C, 
	0x93, 0x4D, 0x00, 0x06, 0x94, 0x4C, 0x00, 0x0E, 0x93, 0x4F, 0x7F, 0x00, 0x94, 0x4D, 0x7F, 0x00, 0x99, 0x2A, 0x32, 0x01, 0x99, 0x2A, 0x00, 0x81, 0x01, 0x91, 0x28, 0x00, 0x0A, 0x96, 0x3E, 0x00, 0x00, 0x96, 0x43, 0x00, 0x00, 0x96, 0x47, 0x00, 0x14, 0x91, 0x29, 0x79, 0x00, 0x92, 0x45, 0x76, 0x00, 0x92, 0x48, 0x76, 0x00, 0x92, 0x4D, 0x76, 0x00, 0x96, 0x41, 0x6F, 0x00, 0x96, 0x45, 0x6F, 
	0x00, 0x96, 0x48, 0x6F, 0x00, 0x99, 0x2A, 0x4E, 0x00, 0x99, 0x24, 0x6A, 0x01, 0x99, 0x2A, 0x00, 0x00, 0x99, 0x24, 0x00, 0x81, 0x0B, 0x94, 0x4D, 0x00, 0x14, 0x94, 0x4F, 0x7F, 0x00, 0x99, 0x2A, 0x32, 0x01, 0x99, 0x2A, 0x00, 0x4F, 0x92, 0x45, 0x00, 0x00, 0x92, 0x48, 0x00, 0x00, 0x92, 0x4D, 0x00, 0x3C, 0x91, 0x29, 0x00, 0x14, 0x99, 0x2A, 0x32, 0x01, 0x99, 0x2A, 0x00, 0x81, 0x01, 0x93, 
	0x4F, 0x00, 0x1E, 0x91, 0x29, 0x79, 0x00, 0x92, 0x45, 0x76, 0x00, 0x92, 0x48, 0x76, 0x00, 0x92, 0x4D, 0x76, 0x00, 0x93, 0x48, 0x7F, 0x00, 0x99, 0x2A, 0x4E, 0x00, 0x99, 0x28, 0x6A, 0x01, 0x99, 0x2A, 0x00, 0x00, 0x99, 0x28, 0x00, 0x81, 0x1F, 0x99, 0x2A, 0x32, 0x01, 0x99, 0x2A, 0x00, 0x4F, 0x92, 0x45, 0x00, 0x00, 0x92, 0x48, 0x00, 0x00, 0x92, 0x4D, 0x00, 0x32, 0x94, 0x4F, 0x00, 0x0A, 
	0x91, 0x29, 0x00, 0x14, 0x94, 0x48, 0x7F, 0x00, 0x99, 0x2A, 0x32, 0x00, 0x99, 0x24, 0x4E, 0x01, 0x99, 0x2A, 0x00, 0x00, 0x99, 0x24, 0x00, 0x81, 0x01, 0x93, 0x48, 0x00, 0x1E, 0x91, 0x29, 0x79, 0x00, 0x92, 0x45, 0x76, 0x00, 0x92, 0x48, 0x76, 0x00, 0x92, 0x4D, 0x76, 0x00, 0x93, 0x48, 0x7F, 0x00, 0x99, 0x2A, 0x4E, 0x00, 0x99, 0x24, 0x6A, 0x01, 0x99, 0x2A, 0x00, 0x00, 0x99, 0x24, 0x00, 
	0x81, 0x1F, 0x99, 0x2A, 0x32, 0x01, 0x99, 0x2A, 0x00, 0x4F, 0x92, 0x45, 0x00, 0x00, 0x92, 0x48, 0x00, 0x00, 0x92, 0x4D, 0x00, 0x32, 0x94, 0x48, 0x00, 0x1E, 0x94, 0x48, 0x7F, 0x00, 0x99, 0x2A, 0x32, 0x00, 0x99, 0x24, 0x6A, 0x01, 0x99, 0x2A, 0x00, 0x00, 0x99, 0x24, 0x00, 0x81, 0x01, 0x93, 0x48, 0x00, 0x1E, 0x92, 0x45, 0x76, 0x00, 0x92, 0x48, 0x76, 0x00, 0x92, 0x4D, 0x76, 0x00, 0x93, 
	0x4C, 0x7F, 0x00, 0x99, 0x2A, 0x4E, 0x00, 0x99, 0x28, 0x6A, 0x01, 0x99, 0x2A, 0x00, 0x00, 0x99, 0x28, 0x00, 0x81, 0x1F, 0x99, 0x2A, 0x32, 0x01, 0x99, 0x2A, 0x00, 0x4F, 0x92, 0x45, 0x00, 0x00, 0x92, 0x48, 0x00, 0x00, 0x92, 0x4D, 0x00, 0x32, 0x94, 0x48, 0x00, 0x0A, 0x91, 0x29, 0x00, 0x00, 0x93, 0x4C, 0x00, 0x14, 0x91, 0x2B, 0x79, 0x00, 0x93, 0x4A, 0x7F, 0x00, 0x94, 0x4C, 0x7F, 0x00, 
	0x99, 0x2A, 0x32, 0x00, 0x99, 0x24, 0x4E, 0x01, 0x99, 0x2A, 0x00, 0x00, 0x99, 0x24, 0x00, 0x81, 0x0B, 0x96, 0x41, 0x00, 0x00, 0x96, 0x45, 0x00, 0x00, 0x96, 0x48, 0x00, 0x06, 0x91, 0x2B, 0x00, 0x0E, 0x92, 0x47, 0x76, 0x00, 0x92, 0x4A, 0x76, 0x00, 0x92, 0x4F, 0x76, 0x00, 0x96, 0x43, 0x6F, 0x00, 0x96, 0x47, 0x6F, 0x00, 0x96, 0x4A, 0x6F, 0x00, 0x99, 0x2A, 0x4E, 0x01, 0x99, 0x2A, 0x00, 
	0x81, 0x0B, 0x94, 0x4C, 0x00, 0x14, 0x94, 0x4A, 0x7F, 0x00, 0x99, 0x2A, 0x32, 0x01, 0x99, 0x2A, 0x00, 0x4F, 0x92, 0x47, 0x00, 0x00, 0x92, 0x4A, 0x00, 0x00, 0x92, 0x4F, 0x00, 0x50, 0x91, 0x2B, 0x79, 0x00, 0x99, 0x2A, 0x32, 0x00, 0x99, 0x24, 0x4E, 0x01, 0x99, 0x2A, 0x00, 0x00, 0x99, 0x24, 0x00, 0x81, 0x11, 0x91, 0x2B, 0x00, 0x0E, 0x92, 0x47, 0x76, 0x00, 0x92, 0x4A, 0x76, 0x00, 0x92, 
	0x4F, 0x76, 0x00, 0x99, 0x2A, 0x4E, 0x00, 0x99, 0x28, 0x6A, 0x01, 0x99, 0x2A, 0x00, 0x00, 0x99, 0x28, 0x00, 0x81, 0x1F, 0x99, 0x2A, 0x32, 0x01, 0x99, 0x2A, 0x00, 0x4F, 0x92, 0x47, 0x00, 0x00, 0x92, 0x4A, 0x00, 0x00, 0x92, 0x4F, 0x00, 0x50, 0x91, 0x2B, 0x79, 0x00, 0x99, 0x2A, 0x32, 0x00, 0x99, 0x24, 0x4E, 0x01, 0x99, 0x2A, 0x00, 0x00, 0x99, 0x24, 0x00, 0x81, 0x11, 0x91, 0x2B, 0x00, 
	0x0E, 0x91, 0x2B, 0x79, 0x00, 0x92, 0x47, 0x76, 0x00, 0x92, 0x4A, 0x76, 0x00, 0x92, 0x4F, 0x76, 0x00, 0x99, 0x2A, 0x4E, 0x00, 0x99, 0x24, 0x6A, 0x01, 0x99, 0x2A, 0x00, 0x00, 0x99, 0x24, 0x00, 0x81, 0x1F, 0x99, 0x2A, 0x32, 0x01, 0x99, 0x2A, 0x00, 0x4F, 0x92, 0x47, 0x00, 0x00, 0x92, 0x4A, 0x00, 0x00, 0x92, 0x4F, 0x00, 0x3C, 0x93, 0x4A, 0x00, 0x14, 0x93, 0x48, 0x7F, 0x00, 0x99, 0x2A, 
	0x32, 0x01, 0x99, 0x2A, 0x00, 0x81, 0x11, 0x93, 0x48, 0x00, 0x0E, 0x92, 0x47, 0x76, 0x00, 0x92, 0x4A, 0x76, 0x00, 0x92, 0x4F, 0x76, 0x00, 0x93, 0x47, 0x7F, 0x00, 0x99, 0x2A, 0x4E, 0x00, 0x99, 0x28, 0x6A, 0x01, 0x99, 0x2A, 0x00, 0x00, 0x99, 0x28, 0x00, 0x81, 0x0B, 0x94, 0x4A, 0x00, 0x14, 0x94, 0x48, 0x7F, 0x00, 0x99, 0x2A, 0x32, 0x01, 0x99, 0x2A, 0x00, 0x4F, 0x92, 0x47, 0x00, 0x00, 
	0x92, 0x4A, 0x00, 0x00, 0x92, 0x4F, 0x00, 0x3C, 0x93, 0x47, 0x00, 0x06, 0x94, 0x48, 0x00, 0x0E, 0x93, 0x48, 0x7F, 0x00, 0x94, 0x47, 0x7F, 0x00, 0x99, 0x2A, 0x32, 0x01, 0x99, 0x2A, 0x00, 0x77, 0x91, 0x2B, 0x00, 0x14, 0x96, 0x43, 0x00, 0x00, 0x96, 0x47, 0x00, 0x00, 0x96, 0x4A, 0x00, 0x14, 0x91, 0x29, 0x79, 0x00, 0x92, 0x35, 0x76, 0x00, 0x95, 0x4C, 0x63, 0x00, 0x95, 0x58, 0x79, 0x00, 
	0x96, 0x41, 0x6F, 0x00, 0x96, 0x45, 0x6F, 0x00, 0x96, 0x48, 0x6F, 0x00, 0x99, 0x2A, 0x4E, 0x00, 0x99, 0x24, 0x6A, 0x01, 0x99, 0x2A, 0x00, 0x00, 0x99, 0x24, 0x00, 0x13, 0x92, 0x45, 0x76, 0x14, 0x92, 0x48, 0x76, 0x14, 0x92, 0x4D, 0x76, 0x50, 0x94, 0x47, 0x00, 0x14, 0x94, 0x48, 0x7F, 0x00, 0x99, 0x2A, 0x32, 0x01, 0x99, 0x2A, 0x00, 0x81, 0x1F, 0x99, 0x2A, 0x32, 0x01, 0x99, 0x2A, 0x00, 
	0x81, 0x1F, 0x97, 0x48, 0x63, 0x00, 0x97, 0x51, 0x7F, 0x00, 0x99, 0x2A, 0x4E, 0x00, 0x99, 0x28, 0x6A, 0x01, 0x99, 0x2A, 0x00, 0x00, 0x99, 0x28, 0x00, 0x81, 0x1F, 0x99, 0x2A, 0x32, 0x01, 0x99, 0x2A, 0x00, 0x81, 0x1F, 0x99, 0x2A, 0x32, 0x00, 0x99, 0x24, 0x4E, 0x01, 0x99, 0x2A, 0x00, 0x00, 0x99, 0x24, 0x00, 0x81, 0x01, 0x97, 0x48, 0x00, 0x00, 0x97, 0x51, 0x00, 0x1E, 0x97, 0x4C, 0x63, 
	0x00, 0x97, 0x54, 0x7F, 0x00, 0x99, 0x2A, 0x4E, 0x00, 0x99, 0x24, 0x6A, 0x01, 0x99, 0x2A, 0x00, 0x00, 0x99, 0x24, 0x00, 0x81, 0x1F, 0x99, 0x2A, 0x32, 0x01, 0x99, 0x2A, 0x00, 0x81, 0x1F, 0x99, 0x2A, 0x32, 0x00, 0x99, 0x24, 0x6A, 0x01, 0x99, 0x2A, 0x00, 0x00, 0x99, 0x24, 0x00, 0x81, 0x01, 0x97, 0x4C, 0x00, 0x00, 0x97, 0x54, 0x00, 0x1E, 0x97, 0x4F, 0x63, 0x00, 0x97, 0x58, 0x7F, 0x00, 
	0x99, 0x2A, 0x4E, 0x00, 0x99, 0x28, 0x6A, 0x01, 0x99, 0x2A, 0x00, 0x00, 0x99, 0x28, 0x00, 0x81, 0x1F, 0x99, 0x2A, 0x32, 0x01, 0x99, 0x2A, 0x00, 0x81, 0x1F, 0x99, 0x2A, 0x32, 0x00, 0x99, 0x24, 0x4E, 0x01, 0x99, 0x2A, 0x00, 0x00, 0x99, 0x24, 0x00, 0x81, 0x01, 0x97, 0x4F, 0x00, 0x00, 0x97, 0x58, 0x00, 0x0A, 0x91, 0x29, 0x00, 0x00, 0x95, 0x4C, 0x00, 0x00, 0x95, 0x58, 0x00, 0x00, 0x96, 
	0x41, 0x00, 0x00, 0x96, 0x45, 0x00, 0x00, 0x96, 0x48, 0x00, 0x14, 0x91, 0x2B, 0x79, 0x00, 0x92, 0x35, 0x00, 0x00, 0x92, 0x45, 0x00, 0x00, 0x92, 0x48, 0x00, 0x00, 0x92, 0x4D, 0x00, 0x00, 0x92, 0x37, 0x76, 0x00, 0x95, 0x4A, 0x63, 0x00, 0x95, 0x56, 0x79, 0x00, 0x96, 0x43, 0x6F, 0x00, 0x96, 0x47, 0x6F, 0x00, 0x96, 0x4A, 0x6F, 0x00, 0x97, 0x4D, 0x63, 0x00, 0x97, 0x56, 0x7F, 0x00, 0x99, 
	0x2A, 0x4E, 0x01, 0x99, 0x2A, 0x00, 0x13, 0x92, 0x47, 0x76, 0x14, 0x92, 0x4A, 0x76, 0x14, 0x92, 0x4F, 0x76, 0x64, 0x99, 0x2A, 0x32, 0x01, 0x99, 0x2A, 0x00, 0x81, 0x1F, 0x99, 0x2A, 0x32, 0x00, 0x99, 0x24, 0x4E, 0x01, 0x99, 0x2A, 0x00, 0x00, 0x99, 0x24, 0x00, 0x81, 0x01, 0x93, 0x48, 0x00, 0x1E, 0x93, 0x48, 0x7F, 0x00, 0x99, 0x2A, 0x4E, 0x00, 0x99, 0x28, 0x6A, 0x01, 0x99, 0x2A, 0x00, 
	0x00, 0x99, 0x28, 0x00, 0x81, 0x1F, 0x99, 0x2A, 0x32, 0x01, 0x99, 0x2A, 0x00, 0x81, 0x01, 0x94, 0x48, 0x00, 0x1E, 0x94, 0x48, 0x7F, 0x00, 0x99, 0x2A, 0x32, 0x00, 0x99, 0x24, 0x4E, 0x01, 0x99, 0x2A, 0x00, 0x00, 0x99, 0x24, 0x00, 0x77, 0x95, 0x4A, 0x00, 0x00, 0x95, 0x56, 0x00, 0x0A, 0x93, 0x48, 0x00, 0x1E, 0x93, 0x4A, 0x7F, 0x00, 0x95, 0x45, 0x63, 0x00, 0x95, 0x51, 0x79, 0x00, 0x99, 
	0x2A, 0x4E, 0x00, 0x99, 0x24, 0x6A, 0x01, 0x99, 0x2A, 0x00, 0x00, 0x99, 0x24, 0x00, 0x81, 0x1F, 0x99, 0x2A, 0x32, 0x01, 0x99, 0x2A, 0x00, 0x81, 0x01, 0x94, 0x48, 0x00, 0x0A, 0x93, 0x4A, 0x00, 0x14, 0x93, 0x48, 0x7F, 0x00, 0x94, 0x4A, 0x7F, 0x00, 0x99, 0x2A, 0x32, 0x01, 0x99, 0x2A, 0x00, 0x81, 0x1F, 0x99, 0x2A, 0x4E, 0x00, 0x99, 0x28, 0x6A, 0x01, 0x99, 0x2A, 0x00, 0x00, 0x99, 0x28, 
	0x00, 0x81, 0x0B, 0x94, 0x4A, 0x00, 0x14, 0x94, 0x48, 0x7F, 0x00, 0x99, 0x2A, 0x32, 0x01, 0x99, 0x2A, 0x00, 0x81, 0x0B, 0x93, 0x48, 0x00, 0x14, 0x93, 0x4A, 0x7F, 0x00, 0x99, 0x2A, 0x32, 0x01, 0x99, 0x2A, 0x00, 0x77, 0x95, 0x45, 0x00, 0x00, 0x95, 0x51, 0x00, 0x14, 0x91, 0x2B, 0x00, 0x00, 0x96, 0x43, 0x00, 0x00, 0x96, 0x47, 0x00, 0x00, 0x96, 0x4A, 0x00, 0x00, 0x97, 0x4D, 0x00, 0x00, 
	0x97, 0x56, 0x00, 0x06, 0x93, 0x4A, 0x00, 0x0E, 0x91, 0x24, 0x79, 0x00, 0x92, 0x37, 0x00, 0x00, 0x92, 0x47, 0x00, 0x00, 0x92, 0x4A, 0x00, 0x00, 0x92, 0x4F, 0x00, 0x00, 0x92, 0x43, 0x76, 0x00, 0x92, 0x48, 0x76, 0x00, 0x92, 0x4C, 0x76, 0x00, 0x93, 0x4F, 0x7F, 0x00, 0x95, 0x48, 0x63, 0x00, 0x95, 0x54, 0x79, 0x00, 0x96, 0x40, 0x6F, 0x00, 0x96, 0x43, 0x6F, 0x00, 0x96, 0x48, 0x6F, 0x00, 
	0x99, 0x31, 0x4E, 0x00, 0x99, 0x24, 0x6A, 0x01, 0x99, 0x31, 0x00, 0x00, 0x99, 0x24, 0x00, 0x81, 0x0B, 0x94, 0x48, 0x00, 0x14, 0x94, 0x4A, 0x7F, 0x50, 0x92, 0x43, 0x00, 0x00, 0x92, 0x48, 0x00, 0x00, 0x92, 0x4C, 0x00, 0x3C, 0x91, 0x24, 0x00, 0x06, 0x94, 0x4A, 0x00, 0x0E, 0x94, 0x4F, 0x7F, 0x81, 0x02, 0x93, 0x4F, 0x00, 0x1E, 0x91, 0x24, 0x79, 0x00, 0x92, 0x43, 0x76, 0x00, 0x92, 0x48, 
	0x76, 0x00, 0x92, 0x4C, 0x76, 0x00, 0x93, 0x4F, 0x7F, 0x00, 0x97, 0x4F, 0x63, 0x00, 0x97, 0x58, 0x7F, 0x00, 0x99, 0x2A, 0x4E, 0x00, 0x99, 0x28, 0x6A, 0x01, 0x99, 0x2A, 0x00, 0x00, 0x99, 0x28, 0x00, 0x81, 0x1F, 0x99, 0x2A, 0x32, 0x01, 0x99, 0x2A, 0x00, 0x4F, 0x92, 0x43, 0x00, 0x00, 0x92, 0x48, 0x00, 0x00, 0x92, 0x4C, 0x00, 0x32, 0x94, 0x4F, 0x00, 0x0A, 0x91, 0x24, 0x00, 0x14, 0x94, 
	0x4F, 0x7F, 0x00, 0x99, 0x2A, 0x32, 0x00, 0x99, 0x24, 0x4E, 0x01, 0x99, 0x2A, 0x00, 0x00, 0x99, 0x24, 0x00, 0x77, 0x96, 0x40, 0x00, 0x00, 0x96, 0x43, 0x00, 0x00, 0x96, 0x48, 0x00, 0x0A, 0x93, 0x4F, 0x00, 0x00, 0x97, 0x4F, 0x00, 0x00, 0x97, 0x58, 0x00, 0x1E, 0x91, 0x23, 0x79, 0x00, 0x92, 0x43, 0x76, 0x00, 0x92, 0x47, 0x76, 0x00, 0x92, 0x4A, 0x76, 0x00, 0x93, 0x4C, 0x7F, 0x00, 0x96, 
	0x3E, 0x6F, 0x00, 0x96, 0x43, 0x6F, 0x00, 0x96, 0x47, 0x6F, 0x00, 0x97, 0x51, 0x63, 0x00, 0x97, 0x59, 0x7F, 0x00, 0x99, 0x2A, 0x4E, 0x00, 0x99, 0x24, 0x6A, 0x01, 0x99, 0x2A, 0x00, 0x00, 0x99, 0x24, 0x00, 0x81, 0x1F, 0x99, 0x2A, 0x32, 0x01, 0x99, 0x2A, 0x00, 0x4F, 0x92, 0x43, 0x00, 0x00, 0x92, 0x47, 0x00, 0x00, 0x92, 0x4A, 0x00, 0x32, 0x94, 0x4F, 0x00, 0x1E, 0x94, 0x4C, 0x7F, 0x00, 
	0x99, 0x2A, 0x32, 0x00, 0x99, 0x24, 0x6A, 0x01, 0x99, 0x2A, 0x00, 0x00, 0x99, 0x24, 0x00, 0x81, 0x01, 0x93, 0x4C, 0x00, 0x00, 0x97, 0x51, 0x00, 0x00, 0x97, 0x59, 0x00, 0x1E, 0x92, 0x43, 0x76, 0x00, 0x92, 0x47, 0x76, 0x00, 0x92, 0x4A, 0x76, 0x00, 0x93, 0x4F, 0x7F, 0x00, 0x97, 0x53, 0x63, 0x00, 0x97, 0x5B, 0x7F, 0x00, 0x99, 0x2A, 0x4E, 0x00, 0x99, 0x28, 0x6A, 0x01, 0x99, 0x2A, 0x00, 
	0x00, 0x99, 0x28, 0x00, 0x81, 0x1F, 0x99, 0x2A, 0x32, 0x01, 0x99, 0x2A, 0x00, 0x4F, 0x92, 0x43, 0x00, 0x00, 0x92, 0x47, 0x00, 0x00, 0x92, 0x4A, 0x00, 0x32, 0x94, 0x4C, 0x00, 0x0A, 0x91, 0x23, 0x00, 0x00, 0x93, 0x4F, 0x00, 0x00, 0x97, 0x53, 0x00, 0x00, 0x97, 0x5B, 0x00, 0x14, 0x91, 0x2D, 0x79, 0x00, 0x93, 0x48, 0x7F, 0x00, 0x94, 0x4F, 0x7F, 0x00, 0x97, 0x4C, 0x63, 0x00, 0x97, 0x54, 
	0x7F, 0x00, 0x99, 0x2A, 0x32, 0x00, 0x99, 0x24, 0x4E, 0x01, 0x99, 0x2A, 0x00, 0x00, 0x99, 0x24, 0x00, 0x77, 0x96, 0x3E, 0x00, 0x00, 0x96, 0x43, 0x00, 0x00, 0x96, 0x47, 0x00, 0x1A, 0x91, 0x2D, 0x00, 0x0E, 0x92, 0x45, 0x76, 0x00, 0x92, 0x48, 0x76, 0x00, 0x92, 0x4C, 0x76, 0x00, 0x96, 0x40, 0x6F, 0x00, 0x96, 0x45, 0x6F, 0x00, 0x96, 0x48, 0x6F, 0x00, 0x99, 0x2A, 0x4E, 0x01, 0x99, 0x2A, 
	0x00, 0x81, 0x0B, 0x94, 0x4F, 0x00, 0x14, 0x94, 0x48, 0x7F, 0x00, 0x99, 0x2A, 0x32, 0x01, 0x99, 0x2A, 0x00, 0x4F, 0x92, 0x45, 0x00, 0x00, 0x92, 0x48, 0x00, 0x00, 0x92, 0x4C, 0x00, 0x50, 0x91, 0x2D, 0x79, 0x00, 0x99, 0x2A, 0x32, 0x00, 0x99, 0x24, 0x4E, 0x01, 0x99, 0x2A, 0x00, 0x00, 0x99, 0x24, 0x00, 0x81, 0x11, 0x91, 0x2D, 0x00, 0x0E, 0x92, 0x45, 0x76, 0x00, 0x92, 0x48, 0x76, 0x00, 
	0x92, 0x4C, 0x76, 0x00, 0x99, 0x2A, 0x4E, 0x00, 0x99, 0x28, 0x6A, 0x01, 0x99, 0x2A, 0x00, 0x00, 0x99, 0x28, 0x00, 0x81, 0x1F, 0x99, 0x2A, 0x32, 0x01, 0x99, 0x2A, 0x00, 0x4F, 0x92, 0x45, 0x00, 0x00, 0x92, 0x48, 0x00, 0x00, 0x92, 0x4C, 0x00, 0x50, 0x91, 0x2D, 0x79, 0x00, 0x99, 0x2A, 0x32, 0x00, 0x99, 0x24, 0x4E, 0x01, 0x99, 0x2A, 0x00, 0x00, 0x99, 0x24, 0x00, 0x77, 0x97, 0x4C, 0x00, 
	0x00, 0x97, 0x54, 0x00, 0x1A, 0x91, 0x2D, 0x00, 0x0E, 0x91, 0x2D, 0x79, 0x00, 0x92, 0x43, 0x76, 0x00, 0x92, 0x48, 0x76, 0x00, 0x92, 0x4C, 0x76, 0x00, 0x97, 0x4F, 0x50, 0x00, 0x97, 0x58, 0x6E, 0x00, 0x99, 0x2A, 0x4E, 0x00, 0x99, 0x24, 0x6A, 0x01, 0x99, 0x2A, 0x00, 0x00, 0x99, 0x24, 0x00, 0x81, 0x1F, 0x99, 0x2A, 0x32, 0x01, 0x99, 0x2A, 0x00, 0x4F, 0x92, 0x43, 0x00, 0x00, 0x92, 0x48, 
	0x00, 0x00, 0x92, 0x4C, 0x00, 0x3C, 0x93, 0x48, 0x00, 0x14, 0x93, 0x48, 0x7F, 0x00, 0x99, 0x2A, 0x32, 0x01, 0x99, 0x2A, 0x00, 0x81, 0x01, 0x91, 0x2D, 0x00, 0x10, 0x93, 0x48, 0x00, 0x0E, 0x91, 0x2B, 0x79, 0x00, 0x92, 0x43, 0x76, 0x00, 0x92, 0x48, 0x76, 0x00, 0x92, 0x4C, 0x76, 0x00, 0x93, 0x48, 0x7F, 0x00, 0x99, 0x2A, 0x4E, 0x00, 0x99, 0x28, 0x6A, 0x01, 0x99, 0x2A, 0x00, 0x00, 0x99, 
	0x28, 0x00, 0x81, 0x0B, 0x94, 0x48, 0x00, 0x14, 0x94, 0x48, 0x7F, 0x00, 0x99, 0x2A, 0x32, 0x01, 0x99, 0x2A, 0x00, 0x4F, 0x92, 0x43, 0x00, 0x00, 0x92, 0x48, 0x00, 0x00, 0x92, 0x4C, 0x00, 0x3C, 0x93, 0x48, 0x00, 0x06, 0x94, 0x48, 0x00, 0x0E, 0x93, 0x48, 0x7F, 0x00, 0x94, 0x48, 0x7F, 0x00, 0x99, 0x2A, 0x32, 0x01, 0x99, 0x2A, 0x00, 0x77, 0x97, 0x4F, 0x00, 0x00, 0x97, 0x58, 0x00, 0x0A, 
	0x91, 0x2B, 0x00, 0x0A, 0x96, 0x40, 0x00, 0x00, 0x96, 0x45, 0x00, 0x00, 0x96, 0x48, 0x00, 0x06, 0x93, 0x48, 0x00, 0x0E, 0x91, 0x29, 0x79, 0x00, 0x92, 0x45, 0x76, 0x00, 0x92, 0x48, 0x76, 0x00, 0x92, 0x4D, 0x76, 0x00, 0x93, 0x4F, 0x7F, 0x00, 0x96, 0x41, 0x6F, 0x00, 0x96, 0x45, 0x6F, 0x00, 0x96, 0x48, 0x6F, 0x00, 0x97, 0x51, 0x63, 0x00, 0x97, 0x59, 0x7F, 0x00, 0x99, 0x24, 0x6A, 0x00, 
	0x99, 0x2A, 0x4E, 0x01, 0x99, 0x24, 0x00, 0x00, 0x99, 0x2A, 0x00, 0x81, 0x0B, 0x94, 0x48, 0x00, 0x14, 0x94, 0x48, 0x7F, 0x00, 0x99, 0x2A, 0x32, 0x01, 0x99, 0x2A, 0x00, 0x4F, 0x92, 0x45, 0x00, 0x00, 0x92, 0x48, 0x00, 0x00, 0x92, 0x4D, 0x00, 0x3C, 0x91, 0x29, 0x00, 0x00, 0x93, 0x4F, 0x00, 0x06, 0x94, 0x48, 0x00, 0x0E, 0x93, 0x4F, 0x7F, 0x00, 0x94, 0x4F, 0x7F, 0x00, 0x99, 0x2A, 0x32, 
	0x01, 0x99, 0x2A, 0x00, 0x81, 0x11, 0x93, 0x4F, 0x00, 0x0E, 0x91, 0x29, 0x79, 0x00, 0x92, 0x45, 0x76, 0x00, 0x92, 0x48, 0x76, 0x00, 0x92, 0x4D, 0x76, 0x00, 0x93, 0x4D, 0x7F, 0x00, 0x99, 0x28, 0x6A, 0x00, 0x99, 0x2A, 0x4E, 0x01, 0x99, 0x28, 0x00, 0x00, 0x99, 0x2A, 0x00, 0x81, 0x0B, 0x94, 0x4F, 0x00, 0x14, 0x94, 0x4F, 0x7F, 0x00, 0x99, 0x2A, 0x32, 0x01, 0x99, 0x2A, 0x00, 0x4F, 0x92, 
	0x45, 0x00, 0x00, 0x92, 0x48, 0x00, 0x00, 0x92, 0x4D, 0x00, 0x3C, 0x91, 0x29, 0x00, 0x00, 0x93, 0x4D, 0x00, 0x06, 0x94, 0x4F, 0x00, 0x0E, 0x93, 0x4D, 0x7F, 0x00, 0x94, 0x4D, 0x7F, 0x00, 0x99, 0x24, 0x4E, 0x00, 0x99, 0x2A, 0x32, 0x01, 0x99, 0x24, 0x00, 0x00, 0x99, 0x2A, 0x00, 0x81, 0x11, 0x93, 0x4D, 0x00, 0x0E, 0x91, 0x29, 0x79, 0x00, 0x92, 0x45, 0x76, 0x00, 0x92, 0x4D, 0x76, 0x00, 
	0x93, 0x4C, 0x7F, 0x00, 0x99, 0x28, 0x5C, 0x01, 0x99, 0x28, 0x00, 0x81, 0x0B, 0x94, 0x4D, 0x00, 0x14, 0x94, 0x4D, 0x7F, 0x00, 0x99, 0x28, 0x4E, 0x01, 0x99, 0x28, 0x00, 0x81, 0x0B, 0x92, 0x45, 0x00, 0x00, 0x92, 0x4D, 0x00, 0x00, 0x93, 0x4C, 0x00, 0x06, 0x94, 0x4D, 0x00, 0x0E, 0x92, 0x4C, 0x76, 0x00, 0x93, 0x4A, 0x7F, 0x00, 0x94, 0x4C, 0x7F, 0x00, 0x99, 0x30, 0x5C, 0x01, 0x99, 0x30, 
	0x00, 0x81, 0x11, 0x92, 0x4C, 0x00, 0x00, 0x93, 0x4A, 0x00, 0x0E, 0x92, 0x4D, 0x76, 0x00, 0x93, 0x48, 0x7F, 0x00, 0x99, 0x2D, 0x5C, 0x01, 0x99, 0x2D, 0x00, 0x81, 0x0B, 0x94, 0x4C, 0x00, 0x14, 0x94, 0x4A, 0x7F, 0x81, 0x0C, 0x91, 0x29, 0x00, 0x00, 0x92, 0x4D, 0x00, 0x00, 0x93, 0x48, 0x00, 0x06, 0x94, 0x4A, 0x00, 0x0E, 0x91, 0x2B, 0x79, 0x00, 0x92, 0x47, 0x76, 0x00, 0x92, 0x4A, 0x76, 
	0x00, 0x92, 0x4F, 0x76, 0x00, 0x93, 0x4A, 0x7F, 0x00, 0x94, 0x48, 0x7F, 0x00, 0x99, 0x31, 0x4E, 0x00, 0x99, 0x24, 0x4E, 0x01, 0x99, 0x31, 0x00, 0x00, 0x99, 0x24, 0x00, 0x27, 0x96, 0x41, 0x00, 0x00, 0x96, 0x45, 0x00, 0x00, 0x96, 0x48, 0x00, 0x64, 0x95, 0x48, 0x00, 0x00, 0x95, 0x54, 0x00, 0x00, 0x97, 0x51, 0x00, 0x00, 0x97, 0x59, 0x00, 0x06, 0x91, 0x2B, 0x00, 0x00, 0x92, 0x47, 0x00, 
	0x00, 0x92, 0x4A, 0x00, 0x00, 0x92, 0x4F, 0x00, 0x81, 0x1A, 0x94, 0x48, 0x00, 0x14, 0x94, 0x4A, 0x7F, 0x82, 0x40, 0x91, 0x1F, 0x79, 0x00, 0x92, 0x3B, 0x76, 0x00, 0x92, 0x3E, 0x76, 0x00, 0x92, 0x43, 0x76, 0x00, 0x99, 0x24, 0x6A, 0x01, 0x99, 0x24, 0x00, 0x83, 0x5F, 0x99, 0x24, 0x6A, 0x01, 0x99, 0x24, 0x00, 0x82, 0x2B, 0x93, 0x4A, 0x00, 0x14, 0x93, 0x48, 0x7F, 0x00, 0x99, 0x28, 0x6A, 
	0x01, 0x99, 0x28, 0x00, 0x81, 0x11, 0x93, 0x48, 0x00, 0x0E, 0x93, 0x47, 0x7F, 0x00, 0x99, 0x2D, 0x5C, 0x01, 0x99, 0x2D, 0x00, 0x81, 0x0B, 0x94, 0x4A, 0x00, 0x14, 0x94, 0x48, 0x7F, 0x00, 0x99, 0x29, 0x5C, 0x01, 0x99, 0x29, 0x00, 0x81, 0x0B, 0x93, 0x47, 0x00, 0x06, 0x94, 0x48, 0x00, 0x0E, 0x93, 0x48, 0x7F, 0x00, 0x94, 0x47, 0x7F, 0x00, 0x99, 0x28, 0x6A, 0x01, 0x99, 0x28, 0x00, 0x81, 
	0x0B, 0x91, 0x1F, 0x00, 0x00, 0x92, 0x3B, 0x00, 0x00, 0x92, 0x3E, 0x00, 0x00, 0x92, 0x43, 0x00, 0x14, 0x91, 0x24, 0x79, 0x00, 0x92, 0x43, 0x76, 0x00, 0x92, 0x48, 0x76, 0x00, 0x92, 0x4C, 0x76, 0x00, 0x95, 0x48, 0x63, 0x00, 0x95, 0x54, 0x79, 0x00, 0x96, 0x43, 0x6F, 0x00, 0x96, 0x48, 0x6F, 0x00, 0x96, 0x4C, 0x6F, 0x00, 0x99, 0x31, 0x4E, 0x00, 0x99, 0x24, 0x6A, 0x01, 0x99, 0x31, 0x00, 
	0x00, 0x99, 0x24, 0x00, 0x81, 0x0B, 0x94, 0x47, 0x00, 0x14, 0x94, 0x48, 0x7F, 0x50, 0x92, 0x43, 0x00, 0x00, 0x92, 0x48, 0x00, 0x00, 0x92, 0x4C, 0x00, 0x3C, 0x91, 0x24, 0x00, 0x81, 0x34, 0x91, 0x24, 0x79, 0x00, 0x92, 0x43, 0x76, 0x00, 0x92, 0x48, 0x76, 0x00, 0x92, 0x4C, 0x76, 0x00, 0x97, 0x48, 0x63, 0x00, 0x97, 0x4F, 0x7F, 0x00, 0x99, 0x2A, 0x4E, 0x00, 0x99, 0x28, 0x6A, 0x01, 0x99, 
	0x2A, 0x00, 0x00, 0x99, 0x28, 0x00, 0x81, 0x1F, 0x99, 0x2A, 0x32, 0x01, 0x99, 0x2A, 0x00, 0x4F, 0x92, 0x43, 0x00, 0x00, 0x92, 0x48, 0x00, 0x00, 0x92, 0x4C, 0x00, 0x3C, 0x91, 0x24, 0x00, 0x14, 0x99, 0x2A, 0x32, 0x00, 0x99, 0x24, 0x4E, 0x01, 0x99, 0x2A, 0x00, 0x00, 0x99, 0x24, 0x00, 0x81, 0x01, 0x97, 0x48, 0x00, 0x00, 0x97, 0x4F, 0x00, 0x1E, 0x91, 0x24, 0x79, 0x00, 0x92, 0x43, 0x76, 
	0x00, 0x92, 0x48, 0x76, 0x00, 0x92, 0x4C, 0x76, 0x00, 0x97, 0x4C, 0x63, 0x00, 0x97, 0x54, 0x7F, 0x00, 0x99, 0x2A, 0x4E, 0x00, 0x99, 0x24, 0x6A, 0x01, 0x99, 0x2A, 0x00, 0x00, 0x99, 0x24, 0x00, 0x81, 0x1F, 0x99, 0x2A, 0x32, 0x01, 0x99, 0x2A, 0x00, 0x81, 0x1F, 0x99, 0x2A, 0x32, 0x00, 0x99, 0x24, 0x6A, 0x01, 0x99, 0x2A, 0x00, 0x00, 0x99, 0x24, 0x00, 0x81, 0x01, 0x97, 0x4C, 0x00, 0x00, 
	0x97, 0x54, 0x00, 0x1E, 0x97, 0x4F, 0x63, 0x00, 0x97, 0x58, 0x7F, 0x00, 0x99, 0x2A, 0x4E, 0x00, 0x99, 0x28, 0x6A, 0x01, 0x99, 0x2A, 0x00, 0x00, 0x99, 0x28, 0x00, 0x81, 0x1F, 0x99, 0x2A, 0x32, 0x01, 0x99, 0x2A, 0x00, 0x81, 0x0B, 0x91, 0x24, 0x00, 0x00, 0x92, 0x43, 0x00, 0x00, 0x92, 0x48, 0x00, 0x00, 0x92, 0x4C, 0x00, 0x00, 0x97, 0x4F, 0x00, 0x00, 0x97, 0x58, 0x00, 0x14, 0x91, 0x24, 
	0x79, 0x00, 0x92, 0x45, 0x76, 0x00, 0x92, 0x48, 0x76, 0x00, 0x92, 0x4D, 0x76, 0x00, 0x97, 0x51, 0x63, 0x00, 0x97, 0x59, 0x7F, 0x00, 0x99, 0x2A, 0x32, 0x00, 0x99, 0x24, 0x4E, 0x01, 0x99, 0x2A, 0x00, 0x00, 0x99, 0x24, 0x00, 0x81, 0x0B, 0x93, 0x48, 0x00, 0x06, 0x91, 0x24, 0x00, 0x00, 0x92, 0x45, 0x00, 0x00, 0x92, 0x48, 0x00, 0x00, 0x92, 0x4D, 0x00, 0x0E, 0xB3, 0x20, 0x40, 0x00, 0xC3, 
	0x3E, 0x00, 0x99, 0x2A, 0x4E, 0x01, 0x99, 0x2A, 0x00, 0x81, 0x1F, 0x99, 0x2A, 0x32, 0x01, 0x99, 0x2A, 0x00, 0x81, 0x0B, 0x94, 0x48, 0x00, 0x00, 0x97, 0x51, 0x00, 0x00, 0x97, 0x59, 0x00, 0x14, 0x91, 0x24, 0x79, 0x00, 0x92, 0x43, 0x76, 0x00, 0x92, 0x47, 0x76, 0x00, 0x92, 0x4A, 0x76, 0x00, 0xB4, 0x20, 0x40, 0x00, 0xC4, 0x3E, 0x00, 0x97, 0x4D, 0x63, 0x00, 0x97, 0x56, 0x7F, 0x00, 0x99, 
	0x2A, 0x32, 0x00, 0x99, 0x24, 0x4E, 0x01, 0x99, 0x2A, 0x00, 0x00, 0x99, 0x24, 0x00, 0x81, 0x11, 0x91, 0x24, 0x00, 0x00, 0x92, 0x43, 0x00, 0x00, 0x92, 0x47, 0x00, 0x00, 0x92, 0x4A, 0x00, 0x0E, 0x99, 0x2A, 0x4E, 0x00, 0x99, 0x28, 0x6A, 0x01, 0x99, 0x2A, 0x00, 0x00, 0x99, 0x28, 0x00, 0x81, 0x1F, 0x99, 0x2A, 0x32, 0x01, 0x99, 0x2A, 0x00, 0x81, 0x0B, 0x97, 0x4D, 0x00, 0x00, 0x97, 0x56, 
	0x00, 0x14, 0x91, 0x24, 0x79, 0x00, 0x92, 0x43, 0x76, 0x00, 0x92, 0x48, 0x76, 0x00, 0x92, 0x4C, 0x76, 0x00, 0x97, 0x4F, 0x63, 0x00, 0x97, 0x58, 0x7F, 0x00, 0x99, 0x2A, 0x32, 0x00, 0x99, 0x24, 0x4E, 0x01, 0x99, 0x2A, 0x00, 0x00, 0x99, 0x24, 0x00, 0x81, 0x11, 0x91, 0x24, 0x00, 0x00, 0x92, 0x43, 0x00, 0x00, 0x92, 0x48, 0x00, 0x00, 0x92, 0x4C, 0x00, 0x00, 0x97, 0x4F, 0x00, 0x00, 0x97, 
	0x58, 0x00, 0x0E, 0x91, 0x24, 0x79, 0x00, 0x92, 0x43, 0x76, 0x00, 0x92, 0x48, 0x76, 0x00, 0x92, 0x4C, 0x76, 0x00, 0x97, 0x4F, 0x63, 0x00, 0x97, 0x58, 0x7F, 0x00, 0x99, 0x2A, 0x4E, 0x00, 0x99, 0x24, 0x6A, 0x01, 0x99, 0x2A, 0x00, 0x00, 0x99, 0x24, 0x00, 0x81, 0x1F, 0x99, 0x2A, 0x32, 0x01, 0x99, 0x2A, 0x00, 0x81, 0x1F, 0x99, 0x2A, 0x32, 0x01, 0x99, 0x2A, 0x00, 0x81, 0x01, 0x91, 0x24, 
	0x00, 0x1E, 0x91, 0x24, 0x79, 0x00, 0x99, 0x28, 0x6A, 0x01, 0x99, 0x28, 0x00, 0x81, 0x1F, 0x93, 0x45, 0x7F, 0x00, 0x99, 0x2D, 0x6A, 0x01, 0x99, 0x2D, 0x00, 0x81, 0x11, 0x93, 0x45, 0x00, 0x0E, 0x93, 0x47, 0x7F, 0x00, 0x99, 0x29, 0x6A, 0x01, 0x99, 0x29, 0x00, 0x77, 0x92, 0x43, 0x00, 0x00, 0x92, 0x48, 0x00, 0x00, 0x92, 0x4C, 0x00, 0x00, 0x97, 0x4F, 0x00, 0x00, 0x97, 0x58, 0x00, 0x0A, 
	0x91, 0x24, 0x00, 0x0A, 0x95, 0x48, 0x00, 0x00, 0x95, 0x54, 0x00, 0x00, 0x96, 0x43, 0x00, 0x00, 0x96, 0x48, 0x00, 0x00, 0x96, 0x4C, 0x00, 0x06, 0x93, 0x47, 0x00, 0x0E, 0x91, 0x29, 0x79, 0x00, 0x92, 0x45, 0x76, 0x00, 0x92, 0x48, 0x76, 0x00, 0x92, 0x4C, 0x76, 0x00, 0x93, 0x48, 0x7F, 0x00, 0x94, 0x45, 0x7F, 0x00, 0x95, 0x48, 0x63, 0x00, 0x95, 0x54, 0x79, 0x00, 0x96, 0x45, 0x6F, 0x00, 
	0x96, 0x48, 0x6F, 0x00, 0x96, 0x4C, 0x6F, 0x00, 0x99, 0x31, 0x4E, 0x00, 0x99, 0x2A, 0x4E, 0x00, 0x99, 0x24, 0x6A, 0x01, 0x99, 0x31, 0x00, 0x00, 0x99, 0x2A, 0x00, 0x00, 0x99, 0x24, 0x00, 0x81, 0x11, 0x94, 0x45, 0x00, 0x0E, 0x94, 0x47, 0x7F, 0x00, 0x99, 0x2A, 0x32, 0x01, 0x99, 0x2A, 0x00, 0x4F, 0x91, 0x29, 0x00, 0x00, 0x92, 0x45, 0x00, 0x00, 0x92, 0x48, 0x00, 0x00, 0x92, 0x4C, 0x00, 
	0x42, 0x94, 0x47, 0x00, 0x0E, 0x94, 0x48, 0x7F, 0x00, 0x99, 0x2A, 0x32, 0x01, 0x99, 0x2A, 0x00, 0x81, 0x1F, 0x91, 0x29, 0x79, 0x00, 0x92, 0x45, 0x76, 0x00, 0x92, 0x48, 0x76, 0x00, 0x92, 0x4C, 0x76, 0x00, 0x99, 0x2A, 0x4E, 0x00, 0x99, 0x28, 0x6A, 0x01, 0x99, 0x2A, 0x00, 0x00, 0x99, 0x28, 0x00, 0x81, 0x1F, 0x99, 0x2A, 0x32, 0x01, 0x99, 0x2A, 0x00, 0x4F, 0x91, 0x29, 0x00, 0x00, 0x92, 
	0x45, 0x00, 0x00, 0x92, 0x48, 0x00, 0x00, 0x92, 0x4C, 0x00, 0x50, 0x99, 0x2A, 0x32, 0x00, 0x99, 0x24, 0x4E, 0x01, 0x99, 0x2A, 0x00, 0x00, 0x99, 0x24, 0x00, 0x81, 0x1F, 0x91, 0x29, 0x79, 0x00, 0x92, 0x45, 0x76, 0x00, 0x92, 0x48, 0x76, 0x00, 0x92, 0x4C, 0x76, 0x00, 0x99, 0x2A, 0x4E, 0x00, 0x99, 0x24, 0x6A, 0x01, 0x99, 0x2A, 0x00, 0x00, 0x99, 0x24, 0x00, 0x81, 0x1F, 0x99, 0x2A, 0x32, 
	0x01, 0x99, 0x2A, 0x00, 0x4F, 0x91, 0x29, 0x00, 0x00, 0x92, 0x45, 0x00, 0x00, 0x92, 0x48, 0x00, 0x00, 0x92, 0x4C, 0x00, 0x50, 0x99, 0x2A, 0x32, 0x01, 0x99, 0x2A, 0x00, 0x81, 0x0B, 0x93, 0x48, 0x00, 0x14, 0x91, 0x29, 0x79, 0x00, 0x92, 0x45, 0x76, 0x00, 0x92, 0x48, 0x76, 0x00, 0x92, 0x4C, 0x76, 0x00, 0x93, 0x4A, 0x7F, 0x00, 0x99, 0x2A, 0x4E, 0x00, 0x99, 0x28, 0x6A, 0x01, 0x99, 0x2A, 
	0x00, 0x00, 0x99, 0x28, 0x00, 0x81, 0x1F, 0x99, 0x2A, 0x32, 0x01, 0x99, 0x2A, 0x00, 0x4F, 0x91, 0x29, 0x00, 0x00, 0x92, 0x45, 0x00, 0x00, 0x92, 0x48, 0x00, 0x00, 0x92, 0x4C, 0x00, 0x3C, 0x93, 0x4A, 0x00, 0x00, 0x94, 0x48, 0x00, 0x14, 0x93, 0x47, 0x7F, 0x00, 0x94, 0x4A, 0x7F, 0x00, 0x99, 0x2A, 0x32, 0x01, 0x99, 0x2A, 0x00, 0x81, 0x0B, 0x95, 0x48, 0x00, 0x00, 0x95, 0x54, 0x00, 0x00, 
	0x96, 0x45, 0x00, 0x00, 0x96, 0x48, 0x00, 0x00, 0x96, 0x4C, 0x00, 0x14, 0x91, 0x2B, 0x79, 0x00, 0x92, 0x43, 0x76, 0x00, 0x92, 0x47, 0x76, 0x00, 0x92, 0x4A, 0x76, 0x00, 0x95, 0x4A, 0x63, 0x00, 0x95, 0x56, 0x79, 0x00, 0x96, 0x43, 0x6F, 0x00, 0x96, 0x47, 0x6F, 0x00, 0x96, 0x4A, 0x6F, 0x00, 0x99, 0x24, 0x6A, 0x00, 0x99, 0x2A, 0x4E, 0x01, 0x99, 0x24, 0x00, 0x00, 0x99, 0x2A, 0x00, 0x81, 
	0x0B, 0x94, 0x4A, 0x00, 0x14, 0x94, 0x47, 0x7F, 0x00, 0x99, 0x2A, 0x32, 0x01, 0x99, 0x2A, 0x00, 0x4F, 0x91, 0x2B, 0x00, 0x00, 0x92, 0x43, 0x00, 0x00, 0x92, 0x47, 0x00, 0x00, 0x92, 0x4A, 0x00, 0x50, 0x99, 0x2A, 0x32, 0x01, 0x99, 0x2A, 0x00, 0x81, 0x1F, 0x91, 0x2B, 0x79, 0x00, 0x92, 0x43, 0x76, 0x00, 0x92, 0x47, 0x76, 0x00, 0x92, 0x4A, 0x76, 0x00, 0x99, 0x2A, 0x4E, 0x00, 0x99, 0x28, 
	0x6A, 0x01, 0x99, 0x2A, 0x00, 0x00, 0x99, 0x28, 0x00, 0x81, 0x1F, 0x99, 0x2A, 0x32, 0x01, 0x99, 0x2A, 0x00, 0x4F, 0x91, 0x2B, 0x00, 0x00, 0x92, 0x43, 0x00, 0x00, 0x92, 0x47, 0x00, 0x00, 0x92, 0x4A, 0x00, 0x3C, 0x93, 0x47, 0x00, 0x14, 0x93, 0x45, 0x7F, 0x00, 0x99, 0x2A, 0x32, 0x00, 0x99, 0x24, 0x4E, 0x01, 0x99, 0x2A, 0x00, 0x00, 0x99, 0x24, 0x00, 0x81, 0x11, 0x93, 0x45, 0x00, 0x0E, 
	0x91, 0x2B, 0x79, 0x00, 0x92, 0x43, 0x76, 0x00, 0x92, 0x47, 0x76, 0x00, 0x92, 0x4A, 0x76, 0x00, 0x93, 0x43, 0x7F, 0x00, 0x99, 0x2A, 0x4E, 0x00, 0x99, 0x24, 0x6A, 0x01, 0x99, 0x2A, 0x00, 0x00, 0x99, 0x24, 0x00, 0x81, 0x0B, 0x94, 0x47, 0x00, 0x14, 0x94, 0x45, 0x7F, 0x00, 0x99, 0x2A, 0x32, 0x01, 0x99, 0x2A, 0x00, 0x4F, 0x91, 0x2B, 0x00, 0x00, 0x92, 0x43, 0x00, 0x00, 0x92, 0x47, 0x00, 
	0x00, 0x92, 0x4A, 0x00, 0x3C, 0x93, 0x43, 0x00, 0x06, 0x94, 0x45, 0x00, 0x0E, 0x93, 0x45, 0x7F, 0x00, 0x94, 0x43, 0x7F, 0x00, 0x99, 0x2A, 0x32, 0x01, 0x99, 0x2A, 0x00, 0x81, 0x1F, 0x91, 0x2B, 0x79, 0x00, 0x92, 0x43, 0x76, 0x00, 0x92, 0x47, 0x76, 0x00, 0x92, 0x4A, 0x76, 0x00, 0x99, 0x2A, 0x4E, 0x00, 0x99, 0x28, 0x6A, 0x01, 0x99, 0x2A, 0x00, 0x00, 0x99, 0x28, 0x00, 0x81, 0x0B, 0x94, 
	0x43, 0x00, 0x14, 0x94, 0x45, 0x7F, 0x00, 0x99, 0x2A, 0x32, 0x01, 0x99, 0x2A, 0x00, 0x4F, 0x91, 0x2B, 0x00, 0x00, 0x92, 0x43, 0x00, 0x00, 0x92, 0x47, 0x00, 0x00, 0x92, 0x4A, 0x00, 0x3C, 0x93, 0x45, 0x00, 0x14, 0x93, 0x4C, 0x7F, 0x00, 0x99, 0x2A, 0x32, 0x01, 0x99, 0x2A, 0x00, 0x81, 0x0B, 0x95, 0x4A, 0x00, 0x00, 0x95, 0x56, 0x00, 0x00, 0x96, 0x43, 0x00, 0x00, 0x96, 0x47, 0x00, 0x00, 
	0x96, 0x4A, 0x00, 0x14, 0x91, 0x2D, 0x79, 0x00, 0x92, 0x45, 0x76, 0x00, 0x92, 0x48, 0x76, 0x00, 0x92, 0x4C, 0x76, 0x00, 0x95, 0x4C, 0x63, 0x00, 0x95, 0x58, 0x79, 0x00, 0x96, 0x45, 0x6F, 0x00, 0x96, 0x48, 0x6F, 0x00, 0x96, 0x4C, 0x6F, 0x00, 0x99, 0x2A, 0x4E, 0x00, 0x99, 0x24, 0x6A, 0x01, 0x99, 0x2A, 0x00, 0x00, 0x99, 0x24, 0x00, 0x81, 0x0B, 0x94, 0x45, 0x00, 0x14, 0x94, 0x4C, 0x7F, 
	0x00, 0x99, 0x2A, 0x32, 0x01, 0x99, 0x2A, 0x00, 0x4F, 0x91, 0x2D, 0x00, 0x00, 0x92, 0x45, 0x00, 0x00, 0x92, 0x48, 0x00, 0x00, 0x92, 0x4C, 0x00, 0x50, 0x99, 0x2A, 0x32, 0x01, 0x99, 0x2A, 0x00, 0x81, 0x01, 0x93, 0x4C, 0x00, 0x1E, 0x91, 0x2D, 0x79, 0x00, 0x92, 0x45, 0x76, 0x00, 0x92, 0x48, 0x76, 0x00, 0x92, 0x4C, 0x76, 0x00, 0x93, 0x51, 0x7F, 0x00, 0x99, 0x2A, 0x4E, 0x00, 0x99, 0x28, 
	0x6A, 0x01, 0x99, 0x2A, 0x00, 0x00, 0x99, 0x28, 0x00, 0x81, 0x1F, 0x99, 0x2A, 0x32, 0x01, 0x99, 0x2A, 0x00, 0x4F, 0x91, 0x2D, 0x00, 0x00, 0x92, 0x45, 0x00, 0x00, 0x92, 0x48, 0x00, 0x00, 0x92, 0x4C, 0x00, 0x32, 0x94, 0x4C, 0x00, 0x1E, 0x94, 0x51, 0x7F, 0x00, 0x99, 0x2A, 0x32, 0x00, 0x99, 0x24, 0x4E, 0x01, 0x99, 0x2A, 0x00, 0x00, 0x99, 0x24, 0x00, 0x77, 0x96, 0x45, 0x00, 0x00, 0x96, 
	0x48, 0x00, 0x00, 0x96, 0x4C, 0x00, 0x0A, 0x93, 0x51, 0x00, 0x1E, 0x91, 0x2B, 0x79, 0x00, 0x92, 0x43, 0x76, 0x00, 0x92, 0x47, 0x76, 0x00, 0x92, 0x4A, 0x76, 0x00, 0x93, 0x4C, 0x7F, 0x00, 0x96, 0x43, 0x6F, 0x00, 0x96, 0x47, 0x6F, 0x00, 0x96, 0x4A, 0x6F, 0x00, 0x99, 0x2A, 0x4E, 0x00, 0x99, 0x24, 0x6A, 0x01, 0x99, 0x2A, 0x00, 0x00, 0x99, 0x24, 0x00, 0x81, 0x1F, 0x99, 0x2A, 0x32, 0x01, 
	0x99, 0x2A, 0x00, 0x4F, 0x91, 0x2B, 0x00, 0x00, 0x92, 0x43, 0x00, 0x00, 0x92, 0x47, 0x00, 0x00, 0x92, 0x4A, 0x00, 0x32, 0x94, 0x51, 0x00, 0x1E, 0x94, 0x4C, 0x7F, 0x00, 0x99, 0x2A, 0x32, 0x01, 0x99, 0x2A, 0x00, 0x81, 0x01, 0x93, 0x4C, 0x00, 0x1E, 0x91, 0x2B, 0x79, 0x00, 0x92, 0x43, 0x76, 0x00, 0x92, 0x47, 0x76, 0x00, 0x92, 0x4A, 0x76, 0x00, 0x93, 0x4A, 0x7F, 0x00, 0x99, 0x2A, 0x4E, 
	0x00, 0x99, 0x28, 0x6A, 0x01, 0x99, 0x2A, 0x00, 0x00, 0x99, 0x28, 0x00, 0x81, 0x1F, 0x99, 0x2A, 0x32, 0x01, 0x99, 0x2A, 0x00, 0x4F, 0x91, 0x2B, 0x00, 0x00, 0x92, 0x43, 0x00, 0x00, 0x92, 0x47, 0x00, 0x00, 0x92, 0x4A, 0x00, 0x32, 0x94, 0x4C, 0x00, 0x0A, 0x93, 0x4A, 0x00, 0x14, 0x93, 0x4A, 0x7F, 0x00, 0x94, 0x4A, 0x7F, 0x00, 0x99, 0x2A, 0x32, 0x01, 0x99, 0x2A, 0x00, 0x77, 0x96, 0x43, 
	0x00, 0x00, 0x96, 0x47, 0x00, 0x00, 0x96, 0x4A, 0x00, 0x28, 0x91, 0x29, 0x79, 0x00, 0x92, 0x45, 0x76, 0x00, 0x92, 0x48, 0x76, 0x00, 0x92, 0x4C, 0x76, 0x00, 0x96, 0x45, 0x6F, 0x00, 0x96, 0x48, 0x6F, 0x00, 0x96, 0x4C, 0x6F, 0x00, 0x99, 0x24, 0x6A, 0x00, 0x99, 0x2A, 0x4E, 0x01, 0x99, 0x24, 0x00, 0x00, 0x99, 0x2A, 0x00, 0x81, 0x0B, 0x94, 0x4A, 0x00, 0x14, 0x94, 0x4A, 0x7F, 0x00, 0x99, 
	0x2A, 0x32, 0x01, 0x99, 0x2A, 0x00, 0x4F, 0x91, 0x29, 0x00, 0x00, 0x92, 0x45, 0x00, 0x00, 0x92, 0x48, 0x00, 0x00, 0x92, 0x4C, 0x00, 0x3C, 0x93, 0x4A, 0x00, 0x14, 0x93, 0x4C, 0x7F, 0x00, 0x99, 0x2A, 0x32, 0x01, 0x99, 0x2A, 0x00, 0x81, 0x11, 0x93, 0x4C, 0x00, 0x0E, 0x91, 0x29, 0x79, 0x00, 0x92, 0x45, 0x76, 0x00, 0x92, 0x48, 0x76, 0x00, 0x92, 0x4C, 0x76, 0x00, 0x93, 0x48, 0x7F, 0x00, 
	0x99, 0x2A, 0x4E, 0x00, 0x99, 0x28, 0x6A, 0x01, 0x99, 0x2A, 0x00, 0x00, 0x99, 0x28, 0x00, 0x81, 0x0B, 0x94, 0x4A, 0x00, 0x14, 0x94, 0x4C, 0x7F, 0x00, 0x99, 0x2A, 0x32, 0x01, 0x99, 0x2A, 0x00, 0x4F, 0x91, 0x29, 0x00, 0x00, 0x92, 0x45, 0x00, 0x00, 0x92, 0x48, 0x00, 0x00, 0x92, 0x4C, 0x00, 0x42, 0x94, 0x4C, 0x00, 0x0E, 0x94, 0x48, 0x7F, 0x00, 0x99, 0x2A, 0x32, 0x00, 0x99, 0x24, 0x4E, 
	0x01, 0x99, 0x2A, 0x00, 0x00, 0x99, 0x24, 0x00, 0x81, 0x1F, 0x91, 0x29, 0x79, 0x00, 0x92, 0x45, 0x76, 0x00, 0x92, 0x48, 0x76, 0x00, 0x92, 0x4C, 0x76, 0x00, 0x99, 0x2A, 0x4E, 0x00, 0x99, 0x24, 0x6A, 0x01, 0x99, 0x2A, 0x00, 0x00, 0x99, 0x24, 0x00, 0x81, 0x1F, 0x99, 0x2A, 0x32, 0x01, 0x99, 0x2A, 0x00, 0x4F, 0x91, 0x29, 0x00, 0x00, 0x92, 0x45, 0x00, 0x00, 0x92, 0x48, 0x00, 0x00, 0x92, 
	0x4C, 0x00, 0x50, 0x99, 0x2A, 0x32, 0x01, 0x99, 0x2A, 0x00, 0x77, 0x93, 0x48, 0x00, 0x28, 0x91, 0x29, 0x79, 0x00, 0x92, 0x45, 0x76, 0x00, 0x92, 0x48, 0x76, 0x00, 0x92, 0x4C, 0x76, 0x00, 0x99, 0x2E, 0x4E, 0x00, 0x99, 0x28, 0x6A, 0x01, 0x99, 0x2E, 0x00, 0x00, 0x99, 0x28, 0x00, 0x81, 0x1F, 0x93, 0x48, 0x7F, 0x00, 0x99, 0x2A, 0x4E, 0x01, 0x99, 0x2A, 0x00, 0x4F, 0x91, 0x29, 0x00, 0x00, 
	0x92, 0x45, 0x00, 0x00, 0x92, 0x48, 0x00, 0x00, 0x92, 0x4C, 0x00, 0x28, 0x94, 0x48, 0x00, 0x1A, 0x93, 0x48, 0x00, 0x0E, 0x93, 0x4A, 0x7F, 0x00, 0x99, 0x2A, 0x32, 0x01, 0x99, 0x2A, 0x00, 0x81, 0x0B, 0x95, 0x4C, 0x00, 0x00, 0x95, 0x58, 0x00, 0x00, 0x96, 0x45, 0x00, 0x00, 0x96, 0x48, 0x00, 0x00, 0x96, 0x4C, 0x00, 0x06, 0x93, 0x4A, 0x00, 0x0E, 0x91, 0x26, 0x79, 0x00, 0x92, 0x45, 0x76, 
	0x00, 0x92, 0x48, 0x76, 0x00, 0x92, 0x4D, 0x76, 0x00, 0x93, 0x4F, 0x7F, 0x00, 0x94, 0x48, 0x7F, 0x00, 0x95, 0x4D, 0x63, 0x00, 0x95, 0x59, 0x79, 0x00, 0x96, 0x45, 0x6F, 0x00, 0x96, 0x48, 0x6F, 0x00, 0x96, 0x4D, 0x6F, 0x00, 0x99, 0x30, 0x6A, 0x01, 0x99, 0x30, 0x00, 0x81, 0x11, 0x94, 0x48, 0x00, 0x0E, 0x94, 0x4A, 0x7F, 0x28, 0x92, 0x45, 0x00, 0x00, 0x92, 0x48, 0x00, 0x00, 0x92, 0x4D, 
	0x00, 0x64, 0x91, 0x26, 0x00, 0x00, 0x93, 0x4F, 0x00, 0x06, 0x94, 0x4A, 0x00, 0x0E, 0x91, 0x26, 0x79, 0x00, 0x92, 0x45, 0x76, 0x00, 0x92, 0x48, 0x76, 0x00, 0x92, 0x4D, 0x76, 0x00, 0x93, 0x4D, 0x7F, 0x00, 0x94, 0x4F, 0x7F, 0x00, 0x99, 0x30, 0x6A, 0x01, 0x99, 0x30, 0x00, 0x81, 0x47, 0x92, 0x45, 0x00, 0x00, 0x92, 0x48, 0x00, 0x00, 0x92, 0x4D, 0x00, 0x64, 0x91, 0x26, 0x00, 0x00, 0x93, 
	0x4D, 0x00, 0x00, 0x94, 0x4F, 0x00, 0x14, 0x91, 0x26, 0x79, 0x00, 0x92, 0x45, 0x76, 0x00, 0x92, 0x48, 0x76, 0x00, 0x92, 0x4D, 0x76, 0x00, 0x93, 0x4C, 0x7F, 0x00, 0x94, 0x4D, 0x7F, 0x00, 0x99, 0x2D, 0x6A, 0x01, 0x99, 0x2D, 0x00, 0x81, 0x47, 0x92, 0x45, 0x00, 0x00, 0x92, 0x48, 0x00, 0x00, 0x92, 0x4D, 0x00, 0x64, 0x91, 0x26, 0x00, 0x00, 0x93, 0x4C, 0x00, 0x00, 0x94, 0x4D, 0x00, 0x14, 
	0x91, 0x26, 0x79, 0x00, 0x92, 0x45, 0x76, 0x00, 0x92, 0x48, 0x76, 0x00, 0x92, 0x4D, 0x76, 0x00, 0x93, 0x4C, 0x7F, 0x00, 0x94, 0x4C, 0x7F, 0x00, 0x99, 0x29, 0x6A, 0x01, 0x99, 0x29, 0x00, 0x82, 0x2B, 0x91, 0x26, 0x00, 0x00, 0x92, 0x45, 0x00, 0x00, 0x92, 0x48, 0x00, 0x00, 0x92, 0x4D, 0x00, 0x00, 0x93, 0x4C, 0x00, 0x00, 0x94, 0x4C, 0x00, 0x14, 0x91, 0x26, 0x79, 0x00, 0x92, 0x45, 0x76, 
	0x00, 0x92, 0x48, 0x76, 0x00, 0x92, 0x4C, 0x76, 0x00, 0x93, 0x48, 0x7F, 0x00, 0x94, 0x4C, 0x7F, 0x00, 0x99, 0x28, 0x5C, 0x01, 0x99, 0x28, 0x00, 0x81, 0x11, 0x91, 0x26, 0x00, 0x00, 0x92, 0x45, 0x00, 0x00, 0x92, 0x48, 0x00, 0x00, 0x92, 0x4C, 0x00, 0x00, 0x93, 0x48, 0x00, 0x0E, 0x91, 0x26, 0x79, 0x00, 0x92, 0x45, 0x76, 0x00, 0x92, 0x48, 0x76, 0x00, 0x92, 0x4D, 0x76, 0x00, 0x93, 0x45, 
	0x7F, 0x00, 0x99, 0x28, 0x6A, 0x01, 0x99, 0x28, 0x00, 0x81, 0x0B, 0x94, 0x4C, 0x00, 0x14, 0x94, 0x48, 0x7F, 0x81, 0x0C, 0x91, 0x26, 0x00, 0x00, 0x92, 0x45, 0x00, 0x00, 0x92, 0x48, 0x00, 0x00, 0x92, 0x4D, 0x00, 0x00, 0x93, 0x45, 0x00, 0x00, 0x95, 0x4D, 0x00, 0x00, 0x95, 0x59, 0x00, 0x06, 0x94, 0x48, 0x00, 0x0E, 0x91, 0x2B, 0x79, 0x00, 0x92, 0x47, 0x76, 0x00, 0x92, 0x4A, 0x76, 0x00, 
	0x92, 0x4F, 0x76, 0x00, 0x93, 0x4A, 0x7F, 0x00, 0x94, 0x45, 0x7F, 0x00, 0x95, 0x4F, 0x63, 0x00, 0x95, 0x5B, 0x79, 0x00, 0x99, 0x31, 0x4E, 0x00, 0x99, 0x24, 0x6A, 0x01, 0x99, 0x31, 0x00, 0x00, 0x99, 0x24, 0x00, 0x27, 0x96, 0x45, 0x00, 0x00, 0x96, 0x48, 0x00, 0x00, 0x96, 0x4D, 0x00, 0x6A, 0x91, 0x2B, 0x00, 0x00, 0x92, 0x47, 0x00, 0x00, 0x92, 0x4A, 0x00, 0x00, 0x92, 0x4F, 0x00, 0x00, 
	0x95, 0x4F, 0x00, 0x00, 0x95, 0x5B, 0x00, 0x81, 0x1A, 0x94, 0x45, 0x00, 0x14, 0x94, 0x4A, 0x7F, 0x82, 0x40, 0x91, 0x1F, 0x79, 0x00, 0x92, 0x3B, 0x76, 0x00, 0x92, 0x3E, 0x76, 0x00, 0x92, 0x43, 0x76, 0x00, 0x99, 0x24, 0x6A, 0x01, 0x99, 0x24, 0x00, 0x82, 0x2B, 0x93, 0x4A, 0x00, 0x14, 0x93, 0x4C, 0x7F, 0x81, 0x20, 0x99, 0x24, 0x6A, 0x01, 0x99, 0x24, 0x00, 0x81, 0x0B, 0x94, 0x4A, 0x00, 
	0x14, 0x94, 0x4C, 0x7F, 0x81, 0x20, 0x99, 0x28, 0x6A, 0x01, 0x99, 0x28, 0x00, 0x81, 0x11, 0x93, 0x4C, 0x00, 0x0E, 0x93, 0x4F, 0x7F, 0x00, 0x99, 0x2D, 0x5C, 0x01, 0x99, 0x2D, 0x00, 0x81, 0x1F, 0x99, 0x29, 0x5C, 0x01, 0x99, 0x29, 0x00, 0x81, 0x11, 0x94, 0x4C, 0x00, 0x0E, 0x94, 0x4F, 0x7F, 0x00, 0x99, 0x28, 0x6A, 0x01, 0x99, 0x28, 0x00, 0x81, 0x01, 0x93, 0x4F, 0x00, 0x0A, 0x91, 0x1F, 
	0x00, 0x00, 0x92, 0x3B, 0x00, 0x00, 0x92, 0x3E, 0x00, 0x00, 0x92, 0x43, 0x00, 0x14, 0x91, 0x24, 0x79, 0x00, 0x92, 0x43, 0x76, 0x00, 0x92, 0x48, 0x76, 0x00, 0x92, 0x4C, 0x76, 0x00, 0x93, 0x4A, 0x7F, 0x00, 0x95, 0x48, 0x63, 0x00, 0x95, 0x54, 0x79, 0x00, 0x96, 0x40, 0x6F, 0x00, 0x96, 0x43, 0x6F, 0x00, 0x96, 0x48, 0x6F, 0x00, 0x99, 0x31, 0x4E, 0x00, 0x99, 0x24, 0x6A, 0x01, 0x99, 0x31, 
	0x00, 0x00, 0x99, 0x24, 0x00, 0x81, 0x6F, 0x92, 0x43, 0x00, 0x00, 0x92, 0x48, 0x00, 0x00, 0x92, 0x4C, 0x00, 0x32, 0x94, 0x4F, 0x00, 0x0A, 0x91, 0x24, 0x00, 0x14, 0x94, 0x4A, 0x7F, 0x81, 0x20, 0x91, 0x24, 0x79, 0x00, 0x92, 0x43, 0x76, 0x00, 0x92, 0x48, 0x76, 0x00, 0x92, 0x4C, 0x76, 0x00, 0x99, 0x2A, 0x4E, 0x00, 0x99, 0x28, 0x6A, 0x01, 0x99, 0x2A, 0x00, 0x00, 0x99, 0x28, 0x00, 0x81, 
	0x1F, 0x99, 0x2A, 0x32, 0x01, 0x99, 0x2A, 0x00, 0x4F, 0x92, 0x43, 0x00, 0x00, 0x92, 0x48, 0x00, 0x00, 0x92, 0x4C, 0x00, 0x3C, 0x91, 0x24, 0x00, 0x00, 0x93, 0x4A, 0x00, 0x14, 0x93, 0x48, 0x7F, 0x00, 0x99, 0x2A, 0x32, 0x00, 0x99, 0x24, 0x4E, 0x01, 0x99, 0x2A, 0x00, 0x00, 0x99, 0x24, 0x00, 0x81, 0x1F, 0x91, 0x24, 0x79, 0x00, 0x92, 0x43, 0x76, 0x00, 0x92, 0x48, 0x76, 0x00, 0x92, 0x4C, 
	0x76, 0x00, 0x99, 0x2A, 0x4E, 0x00, 0x99, 0x24, 0x6A, 0x01, 0x99, 0x2A, 0x00, 0x00, 0x99, 0x24, 0x00, 0x81, 0x0B, 0x94, 0x4A, 0x00, 0x14, 0x94, 0x48, 0x7F, 0x00, 0x99, 0x2A, 0x32, 0x01, 0x99, 0x2A, 0x00, 0x4F, 0x92, 0x43, 0x00, 0x00, 0x92, 0x48, 0x00, 0x00, 0x92, 0x4C, 0x00, 0x50, 0x99, 0x2A, 0x32, 0x00, 0x99, 0x24, 0x6A, 0x01, 0x99, 0x2A, 0x00, 0x00, 0x99, 0x24, 0x00, 0x81, 0x1F, 
	0x92, 0x43, 0x76, 0x00, 0x92, 0x48, 0x76, 0x00, 0x92, 0x4C, 0x76, 0x00, 0x99, 0x2A, 0x4E, 0x00, 0x99, 0x28, 0x6A, 0x01, 0x99, 0x2A, 0x00, 0x00, 0x99, 0x28, 0x00, 0x81, 0x1F, 0x99, 0x2A, 0x32, 0x01, 0x99, 0x2A, 0x00, 0x4F, 0x92, 0x43, 0x00, 0x00, 0x92, 0x48, 0x00, 0x00, 0x92, 0x4C, 0x00, 0x3C, 0x91, 0x24, 0x00, 0x14, 0x91, 0x29, 0x79, 0x00, 0x99, 0x2A, 0x32, 0x00, 0x99, 0x24, 0x4E, 
	0x01, 0x99, 0x2A, 0x00, 0x00, 0x99, 0x24, 0x00, 0x77, 0x93, 0x48, 0x00, 0x14, 0x96, 0x40, 0x00, 0x00, 0x96, 0x43, 0x00, 0x00, 0x96, 0x48, 0x00, 0x06, 0x91, 0x29, 0x00, 0x0E, 0x92, 0x41, 0x76, 0x00, 0x92, 0x44, 0x76, 0x00, 0x92, 0x48, 0x76, 0x00, 0x93, 0x4A, 0x7F, 0x00, 0x96, 0x41, 0x6F, 0x00, 0x96, 0x44, 0x6F, 0x00, 0x96, 0x48, 0x6F, 0x00, 0x99, 0x2A, 0x4E, 0x01, 0x99, 0x2A, 0x00, 
	0x81, 0x1F, 0x99, 0x2A, 0x32, 0x01, 0x99, 0x2A, 0x00, 0x4F, 0x92, 0x41, 0x00, 0x00, 0x92, 0x44, 0x00, 0x00, 0x92, 0x48, 0x00, 0x28, 0x94, 0x48, 0x00, 0x28, 0x91, 0x29, 0x79, 0x00, 0x94, 0x4A, 0x7F, 0x00, 0x99, 0x2A, 0x32, 0x00, 0x99, 0x24, 0x4E, 0x01, 0x99, 0x2A, 0x00, 0x00, 0x99, 0x24, 0x00, 0x81, 0x11, 0x91, 0x29, 0x00, 0x0E, 0x92, 0x41, 0x76, 0x00, 0x92, 0x44, 0x76, 0x00, 0x92, 
	0x48, 0x76, 0x00, 0x99, 0x2A, 0x4E, 0x00, 0x99, 0x28, 0x6A, 0x01, 0x99, 0x2A, 0x00, 0x00, 0x99, 0x28, 0x00, 0x81, 0x1F, 0x99, 0x2A, 0x32, 0x01, 0x99, 0x2A, 0x00, 0x4F, 0x92, 0x41, 0x00, 0x00, 0x92, 0x44, 0x00, 0x00, 0x92, 0x48, 0x00, 0x3C, 0x93, 0x4A, 0x00, 0x14, 0x91, 0x29, 0x79, 0x00, 0x93, 0x4C, 0x7F, 0x00, 0x99, 0x2A, 0x32, 0x00, 0x99, 0x24, 0x4E, 0x01, 0x99, 0x2A, 0x00, 0x00, 
	0x99, 0x24, 0x00, 0x81, 0x11, 0x91, 0x29, 0x00, 0x0E, 0x91, 0x29, 0x79, 0x00, 0x92, 0x41, 0x76, 0x00, 0x92, 0x44, 0x76, 0x00, 0x92, 0x48, 0x76, 0x00, 0x99, 0x2A, 0x4E, 0x00, 0x99, 0x24, 0x6A, 0x01, 0x99, 0x2A, 0x00, 0x00, 0x99, 0x24, 0x00, 0x81, 0x0B, 0x94, 0x4A, 0x00, 0x14, 0x94, 0x4C, 0x7F, 0x00, 0x99, 0x2A, 0x32, 0x01, 0x99, 0x2A, 0x00, 0x4F, 0x92, 0x41, 0x00, 0x00, 0x92, 0x44, 
	0x00, 0x00, 0x92, 0x48, 0x00, 0x50, 0x99, 0x2A, 0x32, 0x01, 0x99, 0x2A, 0x00, 0x81, 0x01, 0x91, 0x29, 0x00, 0x10, 0x93, 0x4C, 0x00, 0x0E, 0x91, 0x29, 0x79, 0x00, 0x92, 0x41, 0x76, 0x00, 0x92, 0x44, 0x76, 0x00, 0x92, 0x48, 0x76, 0x00, 0x93, 0x4F, 0x7F, 0x00, 0x99, 0x2E, 0x4E, 0x00, 0x99, 0x28, 0x6A, 0x01, 0x99, 0x2E, 0x00, 0x00, 0x99, 0x28, 0x00, 0x81, 0x1F, 0x99, 0x2A, 0x4E, 0x01, 
	0x99, 0x2A, 0x00, 0x4F, 0x92, 0x41, 0x00, 0x00, 0x92, 0x44, 0x00, 0x00, 0x92, 0x48, 0x00, 0x42, 0x94, 0x4C, 0x00, 0x0E, 0x94, 0x4F, 0x7F, 0x00, 0x99, 0x2A, 0x32, 0x01, 0x99, 0x2A, 0x00, 0x81, 0x01, 0x91, 0x29, 0x00, 0x00, 0x93, 0x4F, 0x00, 0x0A, 0x96, 0x41, 0x00, 0x00, 0x96, 0x44, 0x00, 0x00, 0x96, 0x48, 0x00, 0x14, 0x91, 0x24, 0x79, 0x00, 0x92, 0x43, 0x76, 0x00, 0x92, 0x48, 0x76, 
	0x00, 0x92, 0x4C, 0x76, 0x00, 0x93, 0x4A, 0x7F, 0x00, 0x96, 0x40, 0x6F, 0x00, 0x96, 0x43, 0x6F, 0x00, 0x96, 0x48, 0x6F, 0x00, 0x99, 0x2A, 0x4E, 0x00, 0x99, 0x24, 0x6A, 0x01, 0x99, 0x2A, 0x00, 0x00, 0x99, 0x24, 0x00, 0x81, 0x1F, 0x99, 0x2A, 0x32, 0x01, 0x99, 0x2A, 0x00, 0x4F, 0x92, 0x43, 0x00, 0x00, 0x92, 0x48, 0x00, 0x00, 0x92, 0x4C, 0x00, 0x32, 0x94, 0x4F, 0x00, 0x0A, 0x91, 0x24, 
	0x00, 0x14, 0x94, 0x4A, 0x7F, 0x00, 0x99, 0x2A, 0x32, 0x01, 0x99, 0x2A, 0x00, 0x81, 0x1F, 0x91, 0x24, 0x79, 0x00, 0x92, 0x43, 0x76, 0x00, 0x92, 0x48, 0x76, 0x00, 0x92, 0x4C, 0x76, 0x00, 0x99, 0x2A, 0x4E, 0x00, 0x99, 0x28, 0x6A, 0x01, 0x99, 0x2A, 0x00, 0x00, 0x99, 0x28, 0x00, 0x81, 0x1F, 0x99, 0x2A, 0x32, 0x01, 0x99, 0x2A, 0x00, 0x4F, 0x92, 0x43, 0x00, 0x00, 0x92, 0x48, 0x00, 0x00, 
	0x92, 0x4C, 0x00, 0x3C, 0x91, 0x24, 0x00, 0x00, 0x93, 0x4A, 0x00, 0x14, 0x93, 0x48, 0x7F, 0x00, 0x99, 0x2A, 0x32, 0x00, 0x99, 0x24, 0x4E, 0x01, 0x99, 0x2A, 0x00, 0x00, 0x99, 0x24, 0x00, 0x81, 0x1F, 0x91, 0x24, 0x79, 0x00, 0x92, 0x43, 0x76, 0x00, 0x92, 0x48, 0x76, 0x00, 0x92, 0x4C, 0x76, 0x00, 0x99, 0x2A, 0x4E, 0x00, 0x99, 0x24, 0x6A, 0x01, 0x99, 0x2A, 0x00, 0x00, 0x99, 0x24, 0x00, 
	0x81, 0x0B, 0x94, 0x4A, 0x00, 0x14, 0x94, 0x48, 0x7F, 0x00, 0x99, 0x2A, 0x32, 0x01, 0x99, 0x2A, 0x00, 0x4F, 0x92, 0x43, 0x00, 0x00, 0x92, 0x48, 0x00, 0x00, 0x92, 0x4C, 0x00, 0x50, 0x99, 0x2A, 0x32, 0x00, 0x99, 0x24, 0x6A, 0x01, 0x99, 0x2A, 0x00, 0x00, 0x99, 0x24, 0x00, 0x81, 0x1F, 0x92, 0x43, 0x76, 0x00, 0x92, 0x48, 0x76, 0x00, 0x92, 0x4C, 0x76, 0x00, 0x99, 0x2A, 0x4E, 0x00, 0x99, 
	0x28, 0x6A, 0x01, 0x99, 0x2A, 0x00, 0x00, 0x99, 0x28, 0x00, 0x81, 0x1F, 0x99, 0x2A, 0x32, 0x01, 0x99, 0x2A, 0x00, 0x4F, 0x92, 0x43, 0x00, 0x00, 0x92, 0x48, 0x00, 0x00, 0x92, 0x4C, 0x00, 0x3C, 0x91, 0x24, 0x00, 0x14, 0x91, 0x24, 0x79, 0x00, 0x99, 0x2A, 0x32, 0x00, 0x99, 0x24, 0x4E, 0x01, 0x99, 0x2A, 0x00, 0x00, 0x99, 0x24, 0x00, 0x77, 0x93, 0x48, 0x00, 0x14, 0x96, 0x40, 0x00, 0x00, 
	0x96, 0x43, 0x00, 0x00, 0x96, 0x48, 0x00, 0x06, 0x91, 0x24, 0x00, 0x0E, 0x92, 0x43, 0x76, 0x00, 0x92, 0x48, 0x76, 0x00, 0x92, 0x4C, 0x76, 0x00, 0x96, 0x40, 0x6F, 0x00, 0x96, 0x43, 0x6F, 0x00, 0x96, 0x48, 0x6F, 0x00, 0x99, 0x2A, 0x4E, 0x01, 0x99, 0x2A, 0x00, 0x81, 0x1F, 0x99, 0x2A, 0x32, 0x01, 0x99, 0x2A, 0x00, 0x4F, 0x92, 0x43, 0x00, 0x00, 0x92, 0x48, 0x00, 0x00, 0x92, 0x4C, 0x00, 
	0x28, 0x94, 0x48, 0x00, 0x28, 0x91, 0x24, 0x79, 0x00, 0x99, 0x2A, 0x32, 0x00, 0x99, 0x24, 0x4E, 0x01, 0x99, 0x2A, 0x00, 0x00, 0x99, 0x24, 0x00, 0x81, 0x11, 0x91, 0x24, 0x00, 0x0E, 0x92, 0x43, 0x76, 0x00, 0x92, 0x48, 0x76, 0x00, 0x92, 0x4C, 0x76, 0x00, 0x99, 0x2A, 0x4E, 0x00, 0x99, 0x28, 0x6A, 0x01, 0x99, 0x2A, 0x00, 0x00, 0x99, 0x28, 0x00, 0x81, 0x1F, 0x99, 0x2A, 0x32, 0x01, 0x99, 
	0x2A, 0x00, 0x4F, 0x92, 0x43, 0x00, 0x00, 0x92, 0x48, 0x00, 0x00, 0x92, 0x4C, 0x00, 0x50, 0x91, 0x24, 0x79, 0x00, 0x99, 0x2A, 0x32, 0x00, 0x99, 0x24, 0x4E, 0x01, 0x99, 0x2A, 0x00, 0x00, 0x99, 0x24, 0x00, 0x81, 0x11, 0x91, 0x24, 0x00, 0x0E, 0x91, 0x24, 0x79, 0x00, 0x92, 0x43, 0x76, 0x00, 0x92, 0x48, 0x76, 0x00, 0x92, 0x4C, 0x76, 0x00, 0x99, 0x28, 0x5C, 0x00, 0x99, 0x2A, 0x4E, 0x01, 
	0x99, 0x28, 0x00, 0x00, 0x99, 0x2A, 0x00, 0x4F, 0x99, 0x28, 0x4E, 0x01, 0x99, 0x28, 0x00, 0x4F, 0x99, 0x28, 0x5C, 0x00, 0x99, 0x2A, 0x32, 0x01, 0x99, 0x28, 0x00, 0x00, 0x99, 0x2A, 0x00, 0x81, 0x1F, 0x99, 0x28, 0x4E, 0x00, 0x99, 0x2A, 0x32, 0x01, 0x99, 0x28, 0x00, 0x00, 0x99, 0x2A, 0x00, 0x81, 0x01, 0x91, 0x24, 0x00, 0x00, 0x92, 0x43, 0x00, 0x00, 0x92, 0x48, 0x00, 0x00, 0x92, 0x4C, 
	0x00, 0x1E, 0x91, 0x1F, 0x79, 0x00, 0x92, 0x41, 0x76, 0x00, 0x92, 0x47, 0x76, 0x00, 0x92, 0x4A, 0x76, 0x00, 0x99, 0x30, 0x6A, 0x01, 0x99, 0x30, 0x00, 0x81, 0x1F, 0x99, 0x30, 0x6A, 0x01, 0x99, 0x30, 0x00, 0x81, 0x1F, 0x99, 0x29, 0x6A, 0x01, 0x99, 0x29, 0x00, 0x81, 0x01, 0x91, 0x1F, 0x00, 0x00, 0x92, 0x41, 0x00, 0x00, 0x92, 0x47, 0x00, 0x00, 0x92, 0x4A, 0x00, 0x0A, 0x95, 0x48, 0x00, 
	0x00, 0x95, 0x54, 0x00, 0x00, 0x96, 0x40, 0x00, 0x00, 0x96, 0x43, 0x00, 0x00, 0x96, 0x48, 0x00, 0x14, 0x91, 0x24, 0x79, 0x00, 0x92, 0x40, 0x7F, 0x00, 0x92, 0x43, 0x7F, 0x00, 0x92, 0x4A, 0x7F, 0x00, 0xB3, 0x20, 0x00, 0x00, 0xC3, 0x0B, 0x00, 0x99, 0x31, 0x4E, 0x00, 0x99, 0x24, 0x6A, 0x01, 0x99, 0x31, 0x00, 0x00, 0x99, 0x24, 0x00, 0x82, 0x2B, 0x91, 0x24, 0x00, 0x00, 0x92, 0x40, 0x00, 
	0x00, 0x92, 0x43, 0x00, 0x00, 0x92, 0x4A, 0x00, 0x14, 0xB4, 0x20, 0x00, 0x00, 0xC4, 0x0B, 0x81, 0x20, 0x99, 0x2A, 0x4E, 0x00, 0x99, 0x28, 0x6A, 0x01, 0x99, 0x2A, 0x00, 0x00, 0x99, 0x28, 0x00, 0x81, 0x1F, 0x99, 0x2A, 0x32, 0x01, 0x99, 0x2A, 0x00, 0x81, 0x1F, 0x91, 0x24, 0x79, 0x00, 0x92, 0x40, 0x7F, 0x00, 0x92, 0x43, 0x7F, 0x00, 0x92, 0x4A, 0x7F, 0x00, 0x99, 0x2A, 0x32, 0x00, 0x99, 
	0x24, 0x4E, 0x01, 0x99, 0x2A, 0x00, 0x00, 0x99, 0x24, 0x00, 0x81, 0x11, 0x91, 0x24, 0x00, 0x00, 0x92, 0x40, 0x00, 0x00, 0x92, 0x43, 0x00, 0x00, 0x92, 0x4A, 0x00, 0x0E, 0x91, 0x24, 0x79, 0x00, 0x92, 0x40, 0x7F, 0x00, 0x92, 0x43, 0x7F, 0x00, 0x92, 0x48, 0x7F, 0x00, 0x99, 0x2A, 0x4E, 0x00, 0x99, 0x24, 0x6A, 0x01, 0x99, 0x2A, 0x00, 0x00, 0x99, 0x24, 0x00, 0x81, 0x1F, 0x99, 0x2A, 0x32, 
	0x01, 0x99, 0x2A, 0x00, 0x81, 0x0B, 0x91, 0x24, 0x00, 0x00, 0x92, 0x40, 0x00, 0x00, 0x92, 0x43, 0x00, 0x00, 0x92, 0x48, 0x00, 0x14, 0x91, 0x24, 0x79, 0x00, 0x92, 0x40, 0x7F, 0x00, 0x92, 0x43, 0x7F, 0x00, 0x92, 0x48, 0x7F, 0x00, 0x99, 0x2A, 0x32, 0x00, 0x99, 0x24, 0x6A, 0x01, 0x99, 0x2A, 0x00, 0x00, 0x99, 0x24, 0x00, 0x81, 0x11, 0x91, 0x24, 0x00, 0x00, 0x92, 0x40, 0x00, 0x00, 0x92, 
	0x43, 0x00, 0x00, 0x92, 0x48, 0x00, 0x0E, 0x99, 0x2A, 0x4E, 0x00, 0x99, 0x28, 0x6A, 0x01, 0x99, 0x2A, 0x00, 0x00, 0x99, 0x28, 0x00, 0x81, 0x1F, 0x99, 0x2A, 0x32, 0x01, 0x99, 0x2A, 0x00, 0x81, 0x1F, 0x91, 0x28, 0x79, 0x00, 0x92, 0x40, 0x7F, 0x00, 0x92, 0x43, 0x7F, 0x00, 0x92, 0x4A, 0x7F, 0x00, 0x99, 0x2A, 0x32, 0x00, 0x99, 0x24, 0x4E, 0x01, 0x99, 0x2A, 0x00, 0x00, 0x99, 0x24, 0x00, 
	0x81, 0x11, 0x91, 0x28, 0x00, 0x00, 0x92, 0x40, 0x00, 0x00, 0x92, 0x43, 0x00, 0x00, 0x92, 0x4A, 0x00, 0x0E, 0x99, 0x2A, 0x4E, 0x01, 0x99, 0x2A, 0x00, 0x81, 0x1F, 0x99, 0x2A, 0x32, 0x01, 0x99, 0x2A, 0x00, 0x81, 0x1F, 0x91, 0x28, 0x79, 0x00, 0x92, 0x40, 0x7F, 0x00, 0x92, 0x43, 0x7F, 0x00, 0x92, 0x4A, 0x7F, 0x00, 0x99, 0x2A, 0x32, 0x00, 0x99, 0x24, 0x4E, 0x01, 0x99, 0x2A, 0x00, 0x00, 
	0x99, 0x24, 0x00, 0x81, 0x11, 0x91, 0x28, 0x00, 0x0E, 0x99, 0x2A, 0x4E, 0x00, 0x99, 0x28, 0x6A, 0x01, 0x99, 0x2A, 0x00, 0x00, 0x99, 0x28, 0x00, 0x09, 0x92, 0x40, 0x00, 0x00, 0x92, 0x43, 0x00, 0x00, 0x92, 0x4A, 0x00, 0x81, 0x16, 0x99, 0x2A, 0x32, 0x01, 0x99, 0x2A, 0x00, 0x81, 0x1F, 0x91, 0x28, 0x79, 0x00, 0x92, 0x40, 0x7F, 0x00, 0x92, 0x43, 0x7F, 0x00, 0x92, 0x48, 0x7F, 0x00, 0x99, 
	0x2A, 0x32, 0x00, 0x99, 0x24, 0x4E, 0x01, 0x99, 0x2A, 0x00, 0x00, 0x99, 0x24, 0x00, 0x81, 0x11, 0x91, 0x28, 0x00, 0x00, 0x92, 0x40, 0x00, 0x00, 0x92, 0x43, 0x00, 0x00, 0x92, 0x48, 0x00, 0x0E, 0x91, 0x28, 0x79, 0x00, 0x92, 0x40, 0x7F, 0x00, 0x92, 0x43, 0x7F, 0x00, 0x92, 0x48, 0x7F, 0x00, 0x99, 0x2A, 0x4E, 0x00, 0x99, 0x24, 0x6A, 0x01, 0x99, 0x2A, 0x00, 0x00, 0x99, 0x24, 0x00, 0x81, 
	0x1F, 0x99, 0x2A, 0x32, 0x01, 0x99, 0x2A, 0x00, 0x81, 0x0B, 0x91, 0x28, 0x00, 0x14, 0x91, 0x28, 0x79, 0x00, 0x99, 0x2A, 0x32, 0x01, 0x99, 0x2A, 0x00, 0x81, 0x11, 0x91, 0x28, 0x00, 0x0E, 0x91, 0x28, 0x79, 0x00, 0x99, 0x2E, 0x4E, 0x00, 0x99, 0x28, 0x6A, 0x01, 0x99, 0x2E, 0x00, 0x00, 0x99, 0x28, 0x00, 0x81, 0x11, 0x91, 0x28, 0x00, 0x0E, 0x91, 0x26, 0x79, 0x00, 0x99, 0x2A, 0x4E, 0x01, 
	0x99, 0x2A, 0x00, 0x81, 0x11, 0x91, 0x26, 0x00, 0x0E, 0x91, 0x28, 0x79, 0x00, 0x99, 0x2A, 0x32, 0x01, 0x99, 0x2A, 0x00, 0x77, 0x92, 0x40, 0x00, 0x00, 0x92, 0x43, 0x00, 0x00, 0x92, 0x48, 0x00, 0x1A, 0x91, 0x28, 0x00, 0x0E, 0x91, 0x29, 0x79, 0x00, 0x92, 0x41, 0x7F, 0x00, 0x92, 0x45, 0x7F, 0x00, 0x92, 0x4A, 0x7F, 0x00, 0x99, 0x2A, 0x4E, 0x00, 0x99, 0x24, 0x6A, 0x01, 0x99, 0x2A, 0x00, 
	0x00, 0x99, 0x24, 0x00, 0x81, 0x1F, 0x99, 0x2A, 0x32, 0x01, 0x99, 0x2A, 0x00, 0x81, 0x0B, 0x91, 0x29, 0x00, 0x00, 0x92, 0x41, 0x00, 0x00, 0x92, 0x45, 0x00, 0x00, 0x92, 0x4A, 0x00, 0x14, 0x99, 0x2A, 0x32, 0x01, 0x99, 0x2A, 0x00, 0x81, 0x1F, 0x99, 0x2A, 0x4E, 0x00, 0x99, 0x28, 0x6A, 0x01, 0x99, 0x2A, 0x00, 0x00, 0x99, 0x28, 0x00, 0x81, 0x1F, 0x99, 0x2A, 0x32, 0x01, 0x99, 0x2A, 0x00, 
	0x81, 0x1F, 0x91, 0x29, 0x79, 0x00, 0x92, 0x41, 0x7F, 0x00, 0x92, 0x45, 0x7F, 0x00, 0x92, 0x4A, 0x7F, 0x00, 0x99, 0x2A, 0x32, 0x00, 0x99, 0x24, 0x4E, 0x01, 0x99, 0x2A, 0x00, 0x00, 0x99, 0x24, 0x00, 0x81, 0x11, 0x91, 0x29, 0x00, 0x00, 0x92, 0x41, 0x00, 0x00, 0x92, 0x45, 0x00, 0x00, 0x92, 0x4A, 0x00, 0x0E, 0x91, 0x29, 0x79, 0x00, 0x92, 0x41, 0x7F, 0x00, 0x92, 0x45, 0x7F, 0x00, 0x92, 
	0x48, 0x7F, 0x00, 0x99, 0x2A, 0x4E, 0x00, 0x99, 0x24, 0x6A, 0x01, 0x99, 0x2A, 0x00, 0x00, 0x99, 0x24, 0x00, 0x81, 0x1F, 0x99, 0x2A, 0x32, 0x01, 0x99, 0x2A, 0x00, 0x81, 0x0B, 0x91, 0x29, 0x00, 0x00, 0x92, 0x41, 0x00, 0x00, 0x92, 0x45, 0x00, 0x00, 0x92, 0x48, 0x00, 0x14, 0x91, 0x29, 0x79, 0x00, 0x92, 0x41, 0x7F, 0x00, 0x92, 0x45, 0x7F, 0x00, 0x92, 0x48, 0x7F, 0x00, 0x99, 0x2A, 0x32, 
	0x00, 0x99, 0x24, 0x6A, 0x01, 0x99, 0x2A, 0x00, 0x00, 0x99, 0x24, 0x00, 0x81, 0x11, 0x91, 0x29, 0x00, 0x00, 0x92, 0x41, 0x00, 0x00, 0x92, 0x45, 0x00, 0x00, 0x92, 0x48, 0x00, 0x0E, 0x99, 0x2A, 0x4E, 0x00, 0x99, 0x28, 0x6A, 0x01, 0x99, 0x2A, 0x00, 0x00, 0x99, 0x28, 0x00, 0x81, 0x1F, 0x99, 0x2A, 0x32, 0x01, 0x99, 0x2A, 0x00, 0x81, 0x1F, 0x91, 0x2C, 0x79, 0x00, 0x92, 0x41, 0x7F, 0x00, 
	0x92, 0x44, 0x7F, 0x00, 0x92, 0x4A, 0x7F, 0x00, 0x99, 0x2A, 0x32, 0x00, 0x99, 0x24, 0x4E, 0x01, 0x99, 0x2A, 0x00, 0x00, 0x99, 0x24, 0x00, 0x81, 0x11, 0x91, 0x2C, 0x00, 0x00, 0x92, 0x41, 0x00, 0x00, 0x92, 0x44, 0x00, 0x00, 0x92, 0x4A, 0x00, 0x0E, 0x99, 0x2A, 0x4E, 0x01, 0x99, 0x2A, 0x00, 0x81, 0x1F, 0x99, 0x2A, 0x32, 0x01, 0x99, 0x2A, 0x00, 0x81, 0x1F, 0x91, 0x2C, 0x79, 0x00, 0x92, 
	0x41, 0x7F, 0x00, 0x92, 0x44, 0x7F, 0x00, 0x92, 0x4A, 0x7F, 0x00, 0x99, 0x2A, 0x32, 0x00, 0x99, 0x24, 0x4E, 0x01, 0x99, 0x2A, 0x00, 0x00, 0x99, 0x24, 0x00, 0x81, 0x11, 0x91, 0x2C, 0x00, 0x0E, 0x99, 0x2A, 0x4E, 0x00, 0x99, 0x28, 0x6A, 0x01, 0x99, 0x2A, 0x00, 0x00, 0x99, 0x28, 0x00, 0x09, 0x92, 0x41, 0x00, 0x00, 0x92, 0x44, 0x00, 0x00, 0x92, 0x4A, 0x00, 0x81, 0x16, 0x99, 0x2A, 0x32, 
	0x01, 0x99, 0x2A, 0x00, 0x81, 0x1F, 0x91, 0x2C, 0x79, 0x00, 0x92, 0x41, 0x7F, 0x00, 0x92, 0x44, 0x7F, 0x00, 0x92, 0x48, 0x7F, 0x00, 0x99, 0x2A, 0x32, 0x00, 0x99, 0x24, 0x4E, 0x01, 0x99, 0x2A, 0x00, 0x00, 0x99, 0x24, 0x00, 0x81, 0x11, 0x91, 0x2C, 0x00, 0x00, 0x92, 0x41, 0x00, 0x00, 0x92, 0x44, 0x00, 0x00, 0x92, 0x48, 0x00, 0x0E, 0x91, 0x2C, 0x79, 0x00, 0x92, 0x41, 0x7F, 0x00, 0x92, 
	0x44, 0x7F, 0x00, 0x92, 0x48, 0x7F, 0x00, 0x95, 0x45, 0x4B, 0x00, 0x95, 0x51, 0x4B, 0x00, 0x99, 0x2A, 0x4E, 0x00, 0x99, 0x24, 0x6A, 0x01, 0x99, 0x2A, 0x00, 0x00, 0x99, 0x24, 0x00, 0x81, 0x1F, 0x95, 0x45, 0x00, 0x00, 0x95, 0x51, 0x00, 0x00, 0x95, 0x47, 0x54, 0x00, 0x95, 0x53, 0x54, 0x00, 0x99, 0x2A, 0x32, 0x01, 0x99, 0x2A, 0x00, 0x81, 0x1F, 0x95, 0x47, 0x00, 0x00, 0x95, 0x53, 0x00, 
	0x00, 0x95, 0x48, 0x5D, 0x00, 0x95, 0x54, 0x5D, 0x00, 0x99, 0x2A, 0x32, 0x01, 0x99, 0x2A, 0x00, 0x81, 0x01, 0x91, 0x2C, 0x00, 0x00, 0x92, 0x41, 0x00, 0x00, 0x92, 0x44, 0x00, 0x00, 0x92, 0x48, 0x00, 0x1E, 0x91, 0x22, 0x79, 0x00, 0x92, 0x41, 0x7F, 0x00, 0x92, 0x44, 0x7F, 0x00, 0x92, 0x4A, 0x7F, 0x00, 0x95, 0x48, 0x00, 0x00, 0x95, 0x54, 0x00, 0x00, 0x95, 0x4A, 0x67, 0x00, 0x95, 0x56, 
	0x67, 0x00, 0x99, 0x28, 0x6A, 0x01, 0x99, 0x28, 0x00, 0x81, 0x1F, 0x95, 0x4A, 0x00, 0x00, 0x95, 0x56, 0x00, 0x00, 0x95, 0x4C, 0x70, 0x00, 0x95, 0x58, 0x70, 0x00, 0x99, 0x30, 0x5C, 0x01, 0x99, 0x30, 0x00, 0x81, 0x1F, 0x95, 0x4C, 0x00, 0x00, 0x95, 0x58, 0x00, 0x00, 0x95, 0x4D, 0x79, 0x00, 0x95, 0x59, 0x79, 0x00, 0x99, 0x2D, 0x5C, 0x01, 0x99, 0x2D, 0x00, 0x81, 0x01, 0x91, 0x22, 0x00, 
	0x00, 0x92, 0x41, 0x00, 0x00, 0x92, 0x44, 0x00, 0x00, 0x92, 0x4A, 0x00, 0x1E, 0x91, 0x24, 0x79, 0x00, 0x92, 0x40, 0x7F, 0x00, 0x92, 0x43, 0x7F, 0x00, 0x92, 0x4A, 0x7F, 0x00, 0x95, 0x4D, 0x00, 0x00, 0x95, 0x59, 0x00, 0x00, 0x95, 0x4F, 0x79, 0x00, 0x95, 0x5B, 0x79, 0x00, 0x99, 0x31, 0x4E, 0x00, 0x99, 0x24, 0x6A, 0x01, 0x99, 0x31, 0x00, 0x00, 0x99, 0x24, 0x00, 0x82, 0x2B, 0x91, 0x24, 
	0x00, 0x00, 0x92, 0x40, 0x00, 0x00, 0x92, 0x43, 0x00, 0x00, 0x92, 0x4A, 0x00, 0x81, 0x34, 0x99, 0x2A, 0x4E, 0x00, 0x99, 0x28, 0x6A, 0x01, 0x99, 0x2A, 0x00, 0x00, 0x99, 0x28, 0x00, 0x81, 0x1F, 0x99, 0x2A, 0x32, 0x01, 0x99, 0x2A, 0x00, 0x81, 0x1F, 0x91, 0x24, 0x79, 0x00, 0x92, 0x40, 0x7F, 0x00, 0x92, 0x43, 0x7F, 0x00, 0x92, 0x4A, 0x7F, 0x00, 0x99, 0x2A, 0x32, 0x00, 0x99, 0x24, 0x4E, 
	0x01, 0x99, 0x2A, 0x00, 0x00, 0x99, 0x24, 0x00, 0x81, 0x11, 0x91, 0x24, 0x00, 0x00, 0x92, 0x40, 0x00, 0x00, 0x92, 0x43, 0x00, 0x00, 0x92, 0x4A, 0x00, 0x0E, 0x91, 0x24, 0x79, 0x00, 0x92, 0x40, 0x7F, 0x00, 0x92, 0x43, 0x7F, 0x00, 0x92, 0x48, 0x7F, 0x00, 0x99, 0x2A, 0x4E, 0x00, 0x99, 0x24, 0x6A, 0x01, 0x99, 0x2A, 0x00, 0x00, 0x99, 0x24, 0x00, 0x81, 0x1F, 0x99, 0x2A, 0x32, 0x01, 0x99, 
	0x2A, 0x00, 0x81, 0x0B, 0x91, 0x24, 0x00, 0x00, 0x92, 0x40, 0x00, 0x00, 0x92, 0x43, 0x00, 0x00, 0x92, 0x48, 0x00, 0x14, 0x91, 0x24, 0x79, 0x00, 0x92, 0x40, 0x7F, 0x00, 0x92, 0x43, 0x7F, 0x00, 0x92, 0x48, 0x7F, 0x00, 0x99, 0x2A, 0x32, 0x00, 0x99, 0x24, 0x6A, 0x01, 0x99, 0x2A, 0x00, 0x00, 0x99, 0x24, 0x00, 0x81, 0x11, 0x91, 0x24, 0x00, 0x00, 0x92, 0x40, 0x00, 0x00, 0x92, 0x43, 0x00, 
	0x00, 0x92, 0x48, 0x00, 0x0E, 0x99, 0x2A, 0x4E, 0x00, 0x99, 0x28, 0x6A, 0x01, 0x99, 0x2A, 0x00, 0x00, 0x99, 0x28, 0x00, 0x81, 0x1F, 0x99, 0x2A, 0x32, 0x01, 0x99, 0x2A, 0x00, 0x81, 0x1F, 0x91, 0x28, 0x79, 0x00, 0x92, 0x40, 0x7F, 0x00, 0x92, 0x43, 0x7F, 0x00, 0x92, 0x4A, 0x7F, 0x00, 0x99, 0x2A, 0x32, 0x00, 0x99, 0x24, 0x4E, 0x01, 0x99, 0x2A, 0x00, 0x00, 0x99, 0x24, 0x00, 0x81, 0x11, 
	0x91, 0x28, 0x00, 0x00, 0x92, 0x40, 0x00, 0x00, 0x92, 0x43, 0x00, 0x00, 0x92, 0x4A, 0x00, 0x0E, 0x99, 0x2A, 0x4E, 0x01, 0x99, 0x2A, 0x00, 0x81, 0x1F, 0x99, 0x2A, 0x32, 0x01, 0x99, 0x2A, 0x00, 0x81, 0x1F, 0x91, 0x28, 0x79, 0x00, 0x92, 0x40, 0x7F, 0x00, 0x92, 0x43, 0x7F, 0x00, 0x92, 0x4A, 0x7F, 0x00, 0x99, 0x2A, 0x32, 0x00, 0x99, 0x24, 0x4E, 0x01, 0x99, 0x2A, 0x00, 0x00, 0x99, 0x24, 
	0x00, 0x81, 0x11, 0x91, 0x28, 0x00, 0x0E, 0x97, 0x4F, 0x63, 0x00, 0x97, 0x58, 0x7F, 0x00, 0x99, 0x2A, 0x4E, 0x00, 0x99, 0x28, 0x6A, 0x01, 0x99, 0x2A, 0x00, 0x00, 0x99, 0x28, 0x00, 0x09, 0x92, 0x40, 0x00, 0x00, 0x92, 0x43, 0x00, 0x00, 0x92, 0x4A, 0x00, 0x81, 0x16, 0x99, 0x2A, 0x32, 0x01, 0x99, 0x2A, 0x00, 0x81, 0x1F, 0x91, 0x28, 0x79, 0x00, 0x92, 0x40, 0x7F, 0x00, 0x92, 0x43, 0x7F, 
	0x00, 0x92, 0x48, 0x7F, 0x00, 0x99, 0x2A, 0x32, 0x00, 0x99, 0x24, 0x4E, 0x01, 0x99, 0x2A, 0x00, 0x00, 0x99, 0x24, 0x00, 0x81, 0x01, 0x97, 0x4F, 0x00, 0x00, 0x97, 0x58, 0x00, 0x10, 0x91, 0x28, 0x00, 0x00, 0x92, 0x40, 0x00, 0x00, 0x92, 0x43, 0x00, 0x00, 0x92, 0x48, 0x00, 0x0E, 0x91, 0x28, 0x79, 0x00, 0x92, 0x40, 0x7F, 0x00, 0x92, 0x43, 0x7F, 0x00, 0x92, 0x48, 0x7F, 0x00, 0x97, 0x51, 
	0x63, 0x00, 0x97, 0x59, 0x7F, 0x00, 0x99, 0x2A, 0x4E, 0x00, 0x99, 0x24, 0x6A, 0x01, 0x99, 0x2A, 0x00, 0x00, 0x99, 0x24, 0x00, 0x81, 0x1F, 0x99, 0x2A, 0x32, 0x01, 0x99, 0x2A, 0x00, 0x81, 0x0B, 0x91, 0x28, 0x00, 0x14, 0x91, 0x28, 0x79, 0x00, 0x99, 0x2A, 0x32, 0x01, 0x99, 0x2A, 0x00, 0x81, 0x01, 0x97, 0x51, 0x00, 0x00, 0x97, 0x59, 0x00, 0x10, 0x91, 0x28, 0x00, 0x0E, 0x91, 0x28, 0x79, 
	0x00, 0x97, 0x53, 0x63, 0x00, 0x97, 0x5B, 0x7F, 0x00, 0x99, 0x2E, 0x4E, 0x00, 0x99, 0x28, 0x6A, 0x01, 0x99, 0x2E, 0x00, 0x00, 0x99, 0x28, 0x00, 0x81, 0x11, 0x91, 0x28, 0x00, 0x0E, 0x91, 0x26, 0x79, 0x00, 0x99, 0x2A, 0x4E, 0x01, 0x99, 0x2A, 0x00, 0x81, 0x11, 0x91, 0x26, 0x00, 0x0E, 0x91, 0x28, 0x79, 0x00, 0x99, 0x2A, 0x32, 0x01, 0x99, 0x2A, 0x00, 0x77, 0x92, 0x40, 0x00, 0x00, 0x92, 
	0x43, 0x00, 0x00, 0x92, 0x48, 0x00, 0x0A, 0x97, 0x53, 0x00, 0x00, 0x97, 0x5B, 0x00, 0x10, 0x91, 0x28, 0x00, 0x0E, 0x91, 0x29, 0x79, 0x00, 0x92, 0x41, 0x7F, 0x00, 0x92, 0x45, 0x7F, 0x00, 0x92, 0x4A, 0x7F, 0x00, 0x97, 0x53, 0x63, 0x00, 0x97, 0x5B, 0x7F, 0x00, 0x99, 0x2A, 0x4E, 0x00, 0x99, 0x24, 0x6A, 0x01, 0x99, 0x2A, 0x00, 0x00, 0x99, 0x24, 0x00, 0x81, 0x1F, 0x99, 0x2A, 0x32, 0x01, 
	0x99, 0x2A, 0x00, 0x81, 0x0B, 0x91, 0x29, 0x00, 0x00, 0x92, 0x41, 0x00, 0x00, 0x92, 0x45, 0x00, 0x00, 0x92, 0x4A, 0x00, 0x14, 0x99, 0x2A, 0x32, 0x01, 0x99, 0x2A, 0x00, 0x81, 0x01, 0x97, 0x53, 0x00, 0x00, 0x97, 0x5B, 0x00, 0x1E, 0x97, 0x54, 0x63, 0x00, 0x97, 0x5D, 0x7F, 0x00, 0x99, 0x2A, 0x4E, 0x00, 0x99, 0x28, 0x6A, 0x01, 0x99, 0x2A, 0x00, 0x00, 0x99, 0x28, 0x00, 0x81, 0x1F, 0x99, 
	0x2A, 0x32, 0x01, 0x99, 0x2A, 0x00, 0x81, 0x0B, 0x97, 0x54, 0x00, 0x00, 0x97, 0x5D, 0x00, 0x14, 0x91, 0x29, 0x79, 0x00, 0x92, 0x41, 0x7F, 0x00, 0x92, 0x45, 0x7F, 0x00, 0x92, 0x4A, 0x7F, 0x00, 0x97, 0x4D, 0x63, 0x00, 0x97, 0x54, 0x7F, 0x00, 0x99, 0x2A, 0x32, 0x00, 0x99, 0x24, 0x4E, 0x01, 0x99, 0x2A, 0x00, 0x00, 0x99, 0x24, 0x00, 0x81, 0x11, 0x91, 0x29, 0x00, 0x00, 0x92, 0x41, 0x00, 
	0x00, 0x92, 0x45, 0x00, 0x00, 0x92, 0x4A, 0x00, 0x0E, 0x91, 0x29, 0x79, 0x00, 0x92, 0x41, 0x7F, 0x00, 0x92, 0x45, 0x7F, 0x00, 0x92, 0x48, 0x7F, 0x00, 0x99, 0x2A, 0x4E, 0x00, 0x99, 0x24, 0x6A, 0x01, 0x99, 0x2A, 0x00, 0x00, 0x99, 0x24, 0x00, 0x81, 0x1F, 0x99, 0x2A, 0x32, 0x01, 0x99, 0x2A, 0x00, 0x81, 0x0B, 0x91, 0x29, 0x00, 0x00, 0x92, 0x41, 0x00, 0x00, 0x92, 0x45, 0x00, 0x00, 0x92, 
	0x48, 0x00, 0x14, 0x91, 0x29, 0x79, 0x00, 0x92, 0x41, 0x7F, 0x00, 0x92, 0x45, 0x7F, 0x00, 0x92, 0x48, 0x7F, 0x00, 0x99, 0x2A, 0x32, 0x00, 0x99, 0x24, 0x6A, 0x01, 0x99, 0x2A, 0x00, 0x00, 0x99, 0x24, 0x00, 0x81, 0x11, 0x91, 0x29, 0x00, 0x00, 0x92, 0x41, 0x00, 0x00, 0x92, 0x45, 0x00, 0x00, 0x92, 0x48, 0x00, 0x0E, 0x99, 0x2A, 0x4E, 0x00, 0x99, 0x28, 0x6A, 0x01, 0x99, 0x2A, 0x00, 0x00, 
	0x99, 0x28, 0x00, 0x81, 0x1F, 0x92, 0x47, 0x7F, 0x00, 0x99, 0x2A, 0x32, 0x01, 0x99, 0x2A, 0x00, 0x81, 0x11, 0x92, 0x47, 0x00, 0x0E, 0x91, 0x2C, 0x79, 0x00, 0x92, 0x48, 0x7F, 0x00, 0x99, 0x2A, 0x32, 0x00, 0x99, 0x24, 0x4E, 0x01, 0x99, 0x2A, 0x00, 0x00, 0x99, 0x24, 0x00, 0x77, 0x97, 0x4D, 0x00, 0x00, 0x97, 0x54, 0x00, 0x14, 0x95, 0x4F, 0x00, 0x00, 0x95, 0x5B, 0x00, 0x06, 0x91, 0x2C, 
	0x00, 0x00, 0x92, 0x48, 0x00, 0x0E, 0x91, 0x2B, 0x79, 0x00, 0x92, 0x47, 0x7F, 0x00, 0x92, 0x4D, 0x7F, 0x00, 0x92, 0x52, 0x7F, 0x00, 0x95, 0x54, 0x79, 0x00, 0x95, 0x60, 0x79, 0x00, 0x99, 0x37, 0x6A, 0x00, 0x99, 0x24, 0x6A, 0x01, 0x99, 0x37, 0x00, 0x00, 0x99, 0x24, 0x00, 0x82, 0x2B, 0x91, 0x2B, 0x00, 0x00, 0x92, 0x47, 0x00, 0x00, 0x92, 0x4D, 0x00, 0x00, 0x92, 0x52, 0x00, 0x14, 0x99, 
	0x28, 0x40, 0x01, 0x99, 0x28, 0x00, 0x81, 0x01, 0x95, 0x54, 0x00, 0x00, 0x95, 0x60, 0x00, 0x1E, 0x91, 0x2B, 0x79, 0x00, 0x92, 0x47, 0x7F, 0x00, 0x92, 0x4D, 0x7F, 0x00, 0x92, 0x50, 0x7F, 0x00, 0x95, 0x52, 0x79, 0x00, 0x95, 0x5E, 0x79, 0x00, 0x99, 0x28, 0x5C, 0x01, 0x99, 0x28, 0x00, 0x81, 0x1F, 0x99, 0x28, 0x40, 0x01, 0x99, 0x28, 0x00, 0x81, 0x0B, 0x91, 0x2B, 0x00, 0x00, 0x92, 0x47, 
	0x00, 0x00, 0x92, 0x4D, 0x00, 0x00, 0x92, 0x50, 0x00, 0x14, 0x99, 0x28, 0x5C, 0x01, 0x99, 0x28, 0x00, 0x81, 0x01, 0x95, 0x52, 0x00, 0x00, 0x95, 0x5E, 0x00, 0x1E, 0x91, 0x2B, 0x79, 0x00, 0x92, 0x47, 0x7F, 0x00, 0x92, 0x4C, 0x7F, 0x00, 0x92, 0x4F, 0x7F, 0x00, 0x95, 0x4F, 0x79, 0x00, 0x95, 0x5B, 0x79, 0x00, 0x99, 0x30, 0x5C, 0x01, 0x99, 0x30, 0x00, 0x81, 0x1F, 0x99, 0x30, 0x4E, 0x01, 
	0x99, 0x30, 0x00, 0x81, 0x0B, 0x91, 0x2B, 0x00, 0x00, 0x92, 0x47, 0x00, 0x00, 0x92, 0x4C, 0x00, 0x00, 0x92, 0x4F, 0x00, 0x14, 0x99, 0x30, 0x5C, 0x01, 0x99, 0x30, 0x00, 0x81, 0x01, 0x95, 0x4F, 0x00, 0x00, 0x95, 0x5B, 0x00, 0x1E, 0x91, 0x2B, 0x79, 0x00, 0x92, 0x43, 0x7F, 0x00, 0x92, 0x47, 0x7F, 0x00, 0x92, 0x4D, 0x7F, 0x00, 0x95, 0x4D, 0x79, 0x00, 0x95, 0x59, 0x79, 0x00, 0x99, 0x2D, 
	0x5C, 0x01, 0x99, 0x2D, 0x00, 0x81, 0x1F, 0x99, 0x2D, 0x4E, 0x01, 0x99, 0x2D, 0x00, 0x81, 0x0B, 0x91, 0x2B, 0x00, 0x00, 0x92, 0x43, 0x00, 0x00, 0x92, 0x47, 0x00, 0x00, 0x92, 0x4D, 0x00, 0x14, 0x99, 0x29, 0x5C, 0x01, 0x99, 0x29, 0x00, 0x81, 0x01, 0x95, 0x4D, 0x00, 0x00, 0x95, 0x59, 0x00, 0x1E, 0x91, 0x24, 0x79, 0x00, 0x92, 0x43, 0x76, 0x00, 0x92, 0x48, 0x76, 0x00, 0x92, 0x4C, 0x76, 
	0x00, 0x96, 0x40, 0x6F, 0x00, 0x96, 0x43, 0x6F, 0x00, 0x96, 0x48, 0x6F, 0x00, 0x99, 0x31, 0x4E, 0x00, 0x99, 0x24, 0x6A, 0x01, 0x99, 0x31, 0x00, 0x00, 0x99, 0x24, 0x00, 0x81, 0x6F, 0x92, 0x43, 0x00, 0x00, 0x92, 0x48, 0x00, 0x00, 0x92, 0x4C, 0x00, 0x3C, 0x91, 0x24, 0x00, 0x81, 0x34, 0x91, 0x24, 0x79, 0x00, 0x92, 0x43, 0x76, 0x00, 0x92, 0x48, 0x76, 0x00, 0x92, 0x4C, 0x76, 0x00, 0x93, 
	0x43, 0x7F, 0x00, 0x99, 0x2A, 0x4E, 0x00, 0x99, 0x28, 0x6A, 0x01, 0x99, 0x2A, 0x00, 0x00, 0x99, 0x28, 0x00, 0x81, 0x1F, 0x99, 0x2A, 0x32, 0x01, 0x99, 0x2A, 0x00, 0x4F, 0x92, 0x43, 0x00, 0x00, 0x92, 0x48, 0x00, 0x00, 0x92, 0x4C, 0x00, 0x3C, 0x91, 0x24, 0x00, 0x14, 0x94, 0x43, 0x7F, 0x00, 0x99, 0x2A, 0x32, 0x00, 0x99, 0x24, 0x4E, 0x01, 0x99, 0x2A, 0x00, 0x00, 0x99, 0x24, 0x00, 0x81, 
	0x1F, 0x91, 0x24, 0x79, 0x00, 0x92, 0x43, 0x76, 0x00, 0x92, 0x48, 0x76, 0x00, 0x92, 0x4C, 0x76, 0x00, 0x99, 0x2A, 0x4E, 0x00, 0x99, 0x24, 0x6A, 0x01, 0x99, 0x2A, 0x00, 0x00, 0x99, 0x24, 0x00, 0x81, 0x1F, 0x99, 0x2A, 0x32, 0x01, 0x99, 0x2A, 0x00, 0x4F, 0x92, 0x43, 0x00, 0x00, 0x92, 0x48, 0x00, 0x00, 0x92, 0x4C, 0x00, 0x3C, 0x93, 0x43, 0x00, 0x14, 0x93, 0x43, 0x74, 0x00, 0x99, 0x2A, 
	0x32, 0x00, 0x99, 0x24, 0x6A, 0x01, 0x99, 0x2A, 0x00, 0x00, 0x99, 0x24, 0x00, 0x81, 0x11, 0x93, 0x43, 0x00, 0x0E, 0x92, 0x43, 0x76, 0x00, 0x92, 0x48, 0x76, 0x00, 0x92, 0x4C, 0x76, 0x00, 0x93, 0x4C, 0x7F, 0x00, 0x99, 0x2A, 0x4E, 0x00, 0x99, 0x28, 0x6A, 0x01, 0x99, 0x2A, 0x00, 0x00, 0x99, 0x28, 0x00, 0x81, 0x0B, 0x94, 0x43, 0x00, 0x14, 0x94, 0x43, 0x74, 0x00, 0x99, 0x2A, 0x32, 0x01, 
	0x99, 0x2A, 0x00, 0x4F, 0x92, 0x43, 0x00, 0x00, 0x92, 0x48, 0x00, 0x00, 0x92, 0x4C, 0x00, 0x3C, 0x91, 0x24, 0x00, 0x00, 0x93, 0x4C, 0x00, 0x06, 0x94, 0x43, 0x00, 0x0E, 0x91, 0x23, 0x79, 0x00, 0x93, 0x4A, 0x7F, 0x00, 0x94, 0x4C, 0x7F, 0x00, 0x99, 0x2A, 0x32, 0x00, 0x99, 0x24, 0x4E, 0x01, 0x99, 0x2A, 0x00, 0x00, 0x99, 0x24, 0x00, 0x81, 0x0B, 0x96, 0x40, 0x00, 0x00, 0x96, 0x43, 0x00, 
	0x00, 0x96, 0x48, 0x00, 0x06, 0x91, 0x23, 0x00, 0x0E, 0x92, 0x43, 0x76, 0x00, 0x92, 0x47, 0x76, 0x00, 0x92, 0x4A, 0x76, 0x00, 0x96, 0x3E, 0x6F, 0x00, 0x96, 0x43, 0x6F, 0x00, 0x96, 0x47, 0x6F, 0x00, 0x99, 0x2A, 0x4E, 0x01, 0x99, 0x2A, 0x00, 0x81, 0x0B, 0x94, 0x4C, 0x00, 0x14, 0x94, 0x4A, 0x7F, 0x00, 0x99, 0x2A, 0x32, 0x01, 0x99, 0x2A, 0x00, 0x4F, 0x92, 0x43, 0x00, 0x00, 0x92, 0x47, 
	0x00, 0x00, 0x92, 0x4A, 0x00, 0x50, 0x91, 0x23, 0x79, 0x00, 0x99, 0x2A, 0x32, 0x00, 0x99, 0x24, 0x4E, 0x01, 0x99, 0x2A, 0x00, 0x00, 0x99, 0x24, 0x00, 0x81, 0x11, 0x91, 0x23, 0x00, 0x0E, 0x92, 0x43, 0x76, 0x00, 0x92, 0x47, 0x76, 0x00, 0x92, 0x4A, 0x76, 0x00, 0x99, 0x2A, 0x4E, 0x00, 0x99, 0x28, 0x6A, 0x01, 0x99, 0x2A, 0x00, 0x00, 0x99, 0x28, 0x00, 0x81, 0x1F, 0x99, 0x2A, 0x32, 0x01, 
	0x99, 0x2A, 0x00, 0x4F, 0x92, 0x43, 0x00, 0x00, 0x92, 0x47, 0x00, 0x00, 0x92, 0x4A, 0x00, 0x50, 0x91, 0x23, 0x79, 0x00, 0x99, 0x2A, 0x32, 0x00, 0x99, 0x24, 0x4E, 0x01, 0x99, 0x2A, 0x00, 0x00, 0x99, 0x24, 0x00, 0x77, 0x93, 0x4A, 0x00, 0x1A, 0x91, 0x23, 0x00, 0x0E, 0x91, 0x23, 0x79, 0x00, 0x92, 0x43, 0x76, 0x00, 0x92, 0x47, 0x76, 0x00, 0x92, 0x4A, 0x76, 0x00, 0x93, 0x47, 0x7F, 0x00, 
	0x99, 0x2A, 0x4E, 0x00, 0x99, 0x24, 0x6A, 0x01, 0x99, 0x2A, 0x00, 0x00, 0x99, 0x24, 0x00, 0x81, 0x11, 0x93, 0x47, 0x00, 0x0E, 0x93, 0x48, 0x7F, 0x00, 0x99, 0x2A, 0x32, 0x01, 0x99, 0x2A, 0x00, 0x4F, 0x92, 0x43, 0x00, 0x00, 0x92, 0x47, 0x00, 0x00, 0x92, 0x4A, 0x00, 0x28, 0x94, 0x4A, 0x00, 0x1A, 0x93, 0x48, 0x00, 0x0E, 0x93, 0x4A, 0x7F, 0x00, 0x94, 0x47, 0x7F, 0x00, 0x99, 0x2A, 0x32, 
	0x01, 0x99, 0x2A, 0x00, 0x81, 0x01, 0x91, 0x23, 0x00, 0x10, 0x93, 0x4A, 0x00, 0x00, 0x94, 0x47, 0x00, 0x0E, 0x91, 0x28, 0x79, 0x00, 0x92, 0x43, 0x76, 0x00, 0x92, 0x47, 0x76, 0x00, 0x92, 0x4A, 0x76, 0x00, 0x93, 0x4F, 0x7F, 0x00, 0x94, 0x48, 0x7F, 0x00, 0x99, 0x2E, 0x4E, 0x00, 0x99, 0x28, 0x6A, 0x01, 0x99, 0x2E, 0x00, 0x00, 0x99, 0x28, 0x00, 0x81, 0x11, 0x94, 0x48, 0x00, 0x0E, 0x94, 
	0x4A, 0x7F, 0x00, 0x99, 0x2A, 0x4E, 0x01, 0x99, 0x2A, 0x00, 0x4F, 0x92, 0x43, 0x00, 0x00, 0x92, 0x47, 0x00, 0x00, 0x92, 0x4A, 0x00, 0x3C, 0x93, 0x4F, 0x00, 0x06, 0x94, 0x4A, 0x00, 0x0E, 0x93, 0x48, 0x7F, 0x00, 0x94, 0x4F, 0x7F, 0x00, 0x99, 0x2A, 0x32, 0x01, 0x99, 0x2A, 0x00, 0x81, 0x01, 0x91, 0x28, 0x00, 0x0A, 0x96, 0x3E, 0x00, 0x00, 0x96, 0x43, 0x00, 0x00, 0x96, 0x47, 0x00, 0x14, 
	0x91, 0x29, 0x79, 0x00, 0x92, 0x41, 0x76, 0x00, 0x92, 0x45, 0x76, 0x00, 0x92, 0x48, 0x76, 0x00, 0x96, 0x41, 0x6F, 0x00, 0x96, 0x45, 0x6F, 0x00, 0x96, 0x48, 0x6F, 0x00, 0x99, 0x2A, 0x4E, 0x00, 0x99, 0x24, 0x6A, 0x01, 0x99, 0x2A, 0x00, 0x00, 0x99, 0x24, 0x00, 0x81, 0x0B, 0x94, 0x4F, 0x00, 0x14, 0x94, 0x48, 0x7F, 0x00, 0x99, 0x2A, 0x32, 0x01, 0x99, 0x2A, 0x00, 0x4F, 0x92, 0x41, 0x00, 
	0x00, 0x92, 0x45, 0x00, 0x00, 0x92, 0x48, 0x00, 0x3C, 0x91, 0x29, 0x00, 0x14, 0x99, 0x2A, 0x32, 0x01, 0x99, 0x2A, 0x00, 0x81, 0x1F, 0x91, 0x29, 0x79, 0x00, 0x92, 0x41, 0x76, 0x00, 0x92, 0x45, 0x76, 0x00, 0x92, 0x48, 0x76, 0x00, 0x99, 0x2A, 0x4E, 0x00, 0x99, 0x28, 0x6A, 0x01, 0x99, 0x2A, 0x00, 0x00, 0x99, 0x28, 0x00, 0x81, 0x1F, 0x99, 0x2A, 0x32, 0x01, 0x99, 0x2A, 0x00, 0x4F, 0x92, 
	0x41, 0x00, 0x00, 0x92, 0x45, 0x00, 0x00, 0x92, 0x48, 0x00, 0x3C, 0x91, 0x29, 0x00, 0x14, 0x99, 0x2A, 0x32, 0x00, 0x99, 0x24, 0x4E, 0x01, 0x99, 0x2A, 0x00, 0x00, 0x99, 0x24, 0x00, 0x81, 0x1F, 0x91, 0x29, 0x79, 0x00, 0x92, 0x41, 0x76, 0x00, 0x92, 0x45, 0x76, 0x00, 0x92, 0x48, 0x76, 0x00, 0x99, 0x2A, 0x4E, 0x00, 0x99, 0x24, 0x6A, 0x01, 0x99, 0x2A, 0x00, 0x00, 0x99, 0x24, 0x00, 0x81, 
	0x1F, 0x99, 0x2A, 0x32, 0x01, 0x99, 0x2A, 0x00, 0x4F, 0x92, 0x41, 0x00, 0x00, 0x92, 0x45, 0x00, 0x00, 0x92, 0x48, 0x00, 0x50, 0x99, 0x2A, 0x32, 0x00, 0x99, 0x24, 0x6A, 0x01, 0x99, 0x2A, 0x00, 0x00, 0x99, 0x24, 0x00, 0x81, 0x0B, 0x93, 0x48, 0x00, 0x14, 0x92, 0x41, 0x76, 0x00, 0x92, 0x45, 0x76, 0x00, 0x92, 0x48, 0x76, 0x00, 0x93, 0x48, 0x7F, 0x00, 0x99, 0x2A, 0x4E, 0x00, 0x99, 0x28, 
	0x6A, 0x01, 0x99, 0x2A, 0x00, 0x00, 0x99, 0x28, 0x00, 0x81, 0x11, 0x93, 0x48, 0x00, 0x0E, 0x93, 0x47, 0x7F, 0x00, 0x99, 0x2A, 0x32, 0x01, 0x99, 0x2A, 0x00, 0x4F, 0x92, 0x41, 0x00, 0x00, 0x92, 0x45, 0x00, 0x00, 0x92, 0x48, 0x00, 0x3C, 0x91, 0x29, 0x00, 0x00, 0x94, 0x48, 0x00, 0x06, 0x93, 0x47, 0x00, 0x0E, 0x91, 0x2B, 0x79, 0x00, 0x93, 0x45, 0x7F, 0x00, 0x94, 0x48, 0x7F, 0x00, 0x99, 
	0x2A, 0x32, 0x00, 0x99, 0x24, 0x4E, 0x01, 0x99, 0x2A, 0x00, 0x00, 0x99, 0x24, 0x00, 0x81, 0x0B, 0x96, 0x41, 0x00, 0x00, 0x96, 0x45, 0x00, 0x00, 0x96, 0x48, 0x00, 0x06, 0x91, 0x2B, 0x00, 0x00, 0x93, 0x45, 0x00, 0x00, 0x94, 0x48, 0x00, 0x0E, 0x92, 0x43, 0x76, 0x00, 0x92, 0x47, 0x76, 0x00, 0x92, 0x4A, 0x76, 0x00, 0x93, 0x47, 0x7F, 0x00, 0x94, 0x47, 0x7F, 0x00, 0x96, 0x43, 0x6F, 0x00, 
	0x96, 0x47, 0x6F, 0x00, 0x96, 0x4A, 0x6F, 0x00, 0x99, 0x2A, 0x4E, 0x01, 0x99, 0x2A, 0x00, 0x81, 0x11, 0x94, 0x47, 0x00, 0x0E, 0x94, 0x45, 0x7F, 0x00, 0x99, 0x2A, 0x32, 0x01, 0x99, 0x2A, 0x00, 0x4F, 0x92, 0x43, 0x00, 0x00, 0x92, 0x47, 0x00, 0x00, 0x92, 0x4A, 0x00, 0x42, 0x94, 0x45, 0x00, 0x0E, 0x91, 0x2B, 0x79, 0x00, 0x94, 0x47, 0x7F, 0x00, 0x99, 0x2A, 0x32, 0x00, 0x99, 0x24, 0x4E, 
	0x01, 0x99, 0x2A, 0x00, 0x00, 0x99, 0x24, 0x00, 0x81, 0x01, 0x93, 0x47, 0x00, 0x10, 0x91, 0x2B, 0x00, 0x0E, 0x92, 0x43, 0x76, 0x00, 0x92, 0x47, 0x76, 0x00, 0x92, 0x4A, 0x76, 0x00, 0x93, 0x48, 0x7F, 0x00, 0x99, 0x2A, 0x4E, 0x00, 0x99, 0x28, 0x6A, 0x01, 0x99, 0x2A, 0x00, 0x00, 0x99, 0x28, 0x00, 0x81, 0x1F, 0x99, 0x2A, 0x32, 0x01, 0x99, 0x2A, 0x00, 0x4F, 0x92, 0x43, 0x00, 0x00, 0x92, 
	0x47, 0x00, 0x00, 0x92, 0x4A, 0x00, 0x32, 0x94, 0x47, 0x00, 0x1E, 0x91, 0x2B, 0x79, 0x00, 0x94, 0x48, 0x7F, 0x00, 0x99, 0x2A, 0x32, 0x00, 0x99, 0x24, 0x4E, 0x01, 0x99, 0x2A, 0x00, 0x00, 0x99, 0x24, 0x00, 0x81, 0x01, 0x93, 0x48, 0x00, 0x10, 0x91, 0x2B, 0x00, 0x0E, 0x91, 0x2B, 0x79, 0x00, 0x92, 0x43, 0x76, 0x00, 0x92, 0x47, 0x76, 0x00, 0x92, 0x4A, 0x76, 0x00, 0x93, 0x4A, 0x7F, 0x00, 
	0x99, 0x2A, 0x4E, 0x00, 0x99, 0x24, 0x6A, 0x01, 0x99, 0x2A, 0x00, 0x00, 0x99, 0x24, 0x00, 0x81, 0x1F, 0x99, 0x2A, 0x32, 0x01, 0x99, 0x2A, 0x00, 0x4F, 0x92, 0x43, 0x00, 0x00, 0x92, 0x47, 0x00, 0x00, 0x92, 0x4A, 0x00, 0x32, 0x94, 0x48, 0x00, 0x0A, 0x93, 0x4A, 0x00, 0x14, 0x93, 0x4C, 0x7F, 0x00, 0x94, 0x4A, 0x7F, 0x00, 0x99, 0x2A, 0x32, 0x01, 0x99, 0x2A, 0x00, 0x81, 0x01, 0x91, 0x2B, 
	0x00, 0x1E, 0x91, 0x23, 0x79, 0x00, 0x92, 0x43, 0x76, 0x00, 0x92, 0x47, 0x76, 0x00, 0x92, 0x4A, 0x76, 0x00, 0x99, 0x2A, 0x4E, 0x00, 0x99, 0x28, 0x6A, 0x01, 0x99, 0x2A, 0x00, 0x00, 0x99, 0x28, 0x00, 0x81, 0x0B, 0x94, 0x4A, 0x00, 0x14, 0x94, 0x4C, 0x7F, 0x00, 0x99, 0x2A, 0x32, 0x01, 0x99, 0x2A, 0x00, 0x4F, 0x92, 0x43, 0x00, 0x00, 0x92, 0x47, 0x00, 0x00, 0x92, 0x4A, 0x00, 0x3C, 0x93, 
	0x4C, 0x00, 0x14, 0x93, 0x48, 0x7F, 0x00, 0x99, 0x2A, 0x32, 0x01, 0x99, 0x2A, 0x00, 0x81, 0x01, 0x91, 0x23, 0x00, 0x0A, 0x96, 0x43, 0x00, 0x00, 0x96, 0x47, 0x00, 0x00, 0x96, 0x4A, 0x00, 0x14, 0x91, 0x24, 0x79, 0x00, 0x92, 0x43, 0x76, 0x00, 0x92, 0x48, 0x76, 0x00, 0x92, 0x4C, 0x76, 0x00, 0x96, 0x40, 0x6F, 0x00, 0x96, 0x43, 0x6F, 0x00, 0x96, 0x48, 0x6F, 0x00, 0x99, 0x2A, 0x4E, 0x00, 
	0x99, 0x24, 0x6A, 0x01, 0x99, 0x2A, 0x00, 0x00, 0x99, 0x24, 0x00, 0x81, 0x0B, 0x94, 0x4C, 0x00, 0x14, 0x94, 0x48, 0x7F, 0x00, 0x99, 0x2A, 0x32, 0x01, 0x99, 0x2A, 0x00, 0x4F, 0x92, 0x43, 0x00, 0x00, 0x92, 0x48, 0x00, 0x00, 0x92, 0x4C, 0x00, 0x3C, 0x91, 0x24, 0x00, 0x14, 0x99, 0x2A, 0x32, 0x01, 0x99, 0x2A, 0x00, 0x81, 0x1F, 0x91, 0x24, 0x79, 0x00, 0x92, 0x43, 0x76, 0x00, 0x92, 0x48, 
	0x76, 0x00, 0x92, 0x4C, 0x76, 0x00, 0x99, 0x2A, 0x4E, 0x00, 0x99, 0x28, 0x6A, 0x01, 0x99, 0x2A, 0x00, 0x00, 0x99, 0x28, 0x00, 0x81, 0x1F, 0x99, 0x2A, 0x32, 0x01, 0x99, 0x2A, 0x00, 0x4F, 0x92, 0x43, 0x00, 0x00, 0x92, 0x48, 0x00, 0x00, 0x92, 0x4C, 0x00, 0x3C, 0x91, 0x24, 0x00, 0x14, 0x99, 0x2A, 0x32, 0x00, 0x99, 0x24, 0x4E, 0x01, 0x99, 0x2A, 0x00, 0x00, 0x99, 0x24, 0x00, 0x77, 0x93, 
	0x48, 0x00, 0x28, 0x91, 0x24, 0x79, 0x00, 0x92, 0x43, 0x76, 0x00, 0x92, 0x48, 0x76, 0x00, 0x92, 0x4C, 0x76, 0x00, 0x93, 0x43, 0x7F, 0x00, 0x99, 0x2A, 0x4E, 0x00, 0x99, 0x24, 0x6A, 0x01, 0x99, 0x2A, 0x00, 0x00, 0x99, 0x24, 0x00, 0x81, 0x1F, 0x99, 0x2A, 0x32, 0x01, 0x99, 0x2A, 0x00, 0x4F, 0x92, 0x43, 0x00, 0x00, 0x92, 0x48, 0x00, 0x00, 0x92, 0x4C, 0x00, 0x28, 0x94, 0x48, 0x00, 0x14, 
	0x93, 0x43, 0x00, 0x14, 0x93, 0x45, 0x7F, 0x00, 0x94, 0x43, 0x7F, 0x00, 0x99, 0x2A, 0x32, 0x00, 0x99, 0x24, 0x6A, 0x01, 0x99, 0x2A, 0x00, 0x00, 0x99, 0x24, 0x00, 0x81, 0x11, 0x93, 0x45, 0x00, 0x0E, 0x92, 0x43, 0x76, 0x00, 0x92, 0x48, 0x76, 0x00, 0x92, 0x4C, 0x76, 0x00, 0x93, 0x51, 0x7F, 0x00, 0x99, 0x2A, 0x4E, 0x00, 0x99, 0x28, 0x6A, 0x01, 0x99, 0x2A, 0x00, 0x00, 0x99, 0x28, 0x00, 
	0x81, 0x0B, 0x94, 0x43, 0x00, 0x14, 0x94, 0x45, 0x7F, 0x00, 0x99, 0x2A, 0x32, 0x01, 0x99, 0x2A, 0x00, 0x4F, 0x92, 0x43, 0x00, 0x00, 0x92, 0x48, 0x00, 0x00, 0x92, 0x4C, 0x00, 0x3C, 0x91, 0x24, 0x00, 0x00, 0x93, 0x51, 0x00, 0x06, 0x94, 0x45, 0x00, 0x0E, 0x91, 0x23, 0x79, 0x00, 0x93, 0x4F, 0x7F, 0x00, 0x94, 0x51, 0x7F, 0x00, 0x99, 0x2A, 0x32, 0x00, 0x99, 0x24, 0x4E, 0x01, 0x99, 0x2A, 
	0x00, 0x00, 0x99, 0x24, 0x00, 0x81, 0x0B, 0x96, 0x40, 0x00, 0x00, 0x96, 0x43, 0x00, 0x00, 0x96, 0x48, 0x00, 0x06, 0x91, 0x23, 0x00, 0x0E, 0x92, 0x43, 0x76, 0x00, 0x92, 0x47, 0x76, 0x00, 0x92, 0x4C, 0x76, 0x00, 0x96, 0x3E, 0x6F, 0x00, 0x96, 0x43, 0x6F, 0x00, 0x96, 0x47, 0x6F, 0x00, 0x99, 0x2A, 0x4E, 0x01, 0x99, 0x2A, 0x00, 0x81, 0x0B, 0x94, 0x51, 0x00, 0x14, 0x94, 0x4F, 0x7F, 0x00, 
	0x99, 0x2A, 0x32, 0x01, 0x99, 0x2A, 0x00, 0x4F, 0x92, 0x43, 0x00, 0x00, 0x92, 0x47, 0x00, 0x00, 0x92, 0x4C, 0x00, 0x50, 0x91, 0x23, 0x79, 0x00, 0x99, 0x2A, 0x32, 0x00, 0x99, 0x24, 0x4E, 0x01, 0x99, 0x2A, 0x00, 0x00, 0x99, 0x24, 0x00, 0x81, 0x11, 0x91, 0x23, 0x00, 0x0E, 0x92, 0x43, 0x76, 0x00, 0x92, 0x47, 0x76, 0x00, 0x92, 0x4C, 0x76, 0x00, 0x99, 0x2A, 0x4E, 0x00, 0x99, 0x28, 0x6A, 
	0x01, 0x99, 0x2A, 0x00, 0x00, 0x99, 0x28, 0x00, 0x81, 0x1F, 0x99, 0x2A, 0x32, 0x01, 0x99, 0x2A, 0x00, 0x4F, 0x92, 0x43, 0x00, 0x00, 0x92, 0x47, 0x00, 0x00, 0x92, 0x4C, 0x00, 0x50, 0x91, 0x23, 0x79, 0x00, 0x99, 0x2A, 0x32, 0x00, 0x99, 0x24, 0x4E, 0x01, 0x99, 0x2A, 0x00, 0x00, 0x99, 0x24, 0x00, 0x81, 0x11, 0x91, 0x23, 0x00, 0x0E, 0x91, 0x23, 0x79, 0x00, 0x92, 0x43, 0x76, 0x00, 0x92, 
	0x47, 0x76, 0x00, 0x92, 0x4C, 0x76, 0x00, 0x99, 0x2A, 0x4E, 0x00, 0x99, 0x24, 0x6A, 0x01, 0x99, 0x2A, 0x00, 0x00, 0x99, 0x24, 0x00, 0x81, 0x1F, 0x99, 0x2A, 0x32, 0x01, 0x99, 0x2A, 0x00, 0x4F, 0x92, 0x43, 0x00, 0x00, 0x92, 0x47, 0x00, 0x00, 0x92, 0x4C, 0x00, 0x3C, 0x93, 0x4F, 0x00, 0x14, 0x93, 0x4C, 0x7F, 0x00, 0x99, 0x2A, 0x32, 0x01, 0x99, 0x2A, 0x00, 0x81, 0x01, 0x91, 0x23, 0x00, 
	0x10, 0x93, 0x4C, 0x00, 0x0E, 0x91, 0x28, 0x79, 0x00, 0x92, 0x43, 0x76, 0x00, 0x92, 0x47, 0x76, 0x00, 0x92, 0x4C, 0x76, 0x00, 0x93, 0x4D, 0x7F, 0x00, 0x99, 0x2A, 0x4E, 0x00, 0x99, 0x28, 0x6A, 0x01, 0x99, 0x2A, 0x00, 0x00, 0x99, 0x28, 0x00, 0x81, 0x0B, 0x94, 0x4F, 0x00, 0x14, 0x94, 0x4C, 0x7F, 0x00, 0x99, 0x2A, 0x32, 0x01, 0x99, 0x2A, 0x00, 0x4F, 0x92, 0x43, 0x00, 0x00, 0x92, 0x47, 
	0x00, 0x00, 0x92, 0x4C, 0x00, 0x3C, 0x93, 0x4D, 0x00, 0x06, 0x94, 0x4C, 0x00, 0x0E, 0x93, 0x4F, 0x7F, 0x00, 0x94, 0x4D, 0x7F, 0x00, 0x99, 0x2A, 0x32, 0x01, 0x99, 0x2A, 0x00, 0x81, 0x01, 0x91, 0x28, 0x00, 0x0A, 0x96, 0x3E, 0x00, 0x00, 0x96, 0x43, 0x00, 0x00, 0x96, 0x47, 0x00, 0x14, 0x91, 0x29, 0x79, 0x00, 0x92, 0x45, 0x76, 0x00, 0x92, 0x48, 0x76, 0x00, 0x92, 0x4D, 0x76, 0x00, 0x96, 
	0x41, 0x6F, 0x00, 0x96, 0x45, 0x6F, 0x00, 0x96, 0x48, 0x6F, 0x00, 0x99, 0x2A, 0x4E, 0x00, 0x99, 0x24, 0x6A, 0x01, 0x99, 0x2A, 0x00, 0x00, 0x99, 0x24, 0x00, 0x81, 0x0B, 0x94, 0x4D, 0x00, 0x14, 0x94, 0x4F, 0x7F, 0x00, 0x99, 0x2A, 0x32, 0x01, 0x99, 0x2A, 0x00, 0x4F, 0x92, 0x45, 0x00, 0x00, 0x92, 0x48, 0x00, 0x00, 0x92, 0x4D, 0x00, 0x3C, 0x91, 0x29, 0x00, 0x14, 0x99, 0x2A, 0x32, 0x01, 
	0x99, 0x2A, 0x00, 0x81, 0x01, 0x93, 0x4F, 0x00, 0x1E, 0x91, 0x29, 0x79, 0x00, 0x92, 0x45, 0x76, 0x00, 0x92, 0x48, 0x76, 0x00, 0x92, 0x4D, 0x76, 0x00, 0x93, 0x48, 0x7F, 0x00, 0x99, 0x2A, 0x4E, 0x00, 0x99, 0x28, 0x6A, 0x01, 0x99, 0x2A, 0x00, 0x00, 0x99, 0x28, 0x00, 0x81, 0x1F, 0x99, 0x2A, 0x32, 0x01, 0x99, 0x2A, 0x00, 0x4F, 0x92, 0x45, 0x00, 0x00, 0x92, 0x48, 0x00, 0x00, 0x92, 0x4D, 
	0x00, 0x32, 0x94, 0x4F, 0x00, 0x0A, 0x91, 0x29, 0x00, 0x14, 0x94, 0x48, 0x7F, 0x00, 0x99, 0x2A, 0x32, 0x00, 0x99, 0x24, 0x4E, 0x01, 0x99, 0x2A, 0x00, 0x00, 0x99, 0x24, 0x00, 0x81, 0x01, 0x93, 0x48, 0x00, 0x1E, 0x91, 0x29, 0x79, 0x00, 0x92, 0x45, 0x76, 0x00, 0x92, 0x48, 0x76, 0x00, 0x92, 0x4D, 0x76, 0x00, 0x93, 0x48, 0x7F, 0x00, 0x99, 0x2A, 0x4E, 0x00, 0x99, 0x24, 0x6A, 0x01, 0x99, 
	0x2A, 0x00, 0x00, 0x99, 0x24, 0x00, 0x81, 0x1F, 0x99, 0x2A, 0x32, 0x01, 0x99, 0x2A, 0x00, 0x4F, 0x92, 0x45, 0x00, 0x00, 0x92, 0x48, 0x00, 0x00, 0x92, 0x4D, 0x00, 0x32, 0x94, 0x48, 0x00, 0x1E, 0x94, 0x48, 0x7F, 0x00, 0x99, 0x2A, 0x32, 0x00, 0x99, 0x24, 0x6A, 0x01, 0x99, 0x2A, 0x00, 0x00, 0x99, 0x24, 0x00, 0x81, 0x01, 0x93, 0x48, 0x00, 0x1E, 0x92, 0x45, 0x76, 0x00, 0x92, 0x48, 0x76, 
	0x00, 0x92, 0x4D, 0x76, 0x00, 0x93, 0x4C, 0x7F, 0x00, 0x99, 0x2A, 0x4E, 0x00, 0x99, 0x28, 0x6A, 0x01, 0x99, 0x2A, 0x00, 0x00, 0x99, 0x28, 0x00, 0x81, 0x1F, 0x99, 0x2A, 0x32, 0x01, 0x99, 0x2A, 0x00, 0x4F, 0x92, 0x45, 0x00, 0x00, 0x92, 0x48, 0x00, 0x00, 0x92, 0x4D, 0x00, 0x32, 0x94, 0x48, 0x00, 0x0A, 0x91, 0x29, 0x00, 0x00, 0x93, 0x4C, 0x00, 0x14, 0x91, 0x2B, 0x79, 0x00, 0x93, 0x4A, 
	0x7F, 0x00, 0x94, 0x4C, 0x7F, 0x00, 0x99, 0x2A, 0x32, 0x00, 0x99, 0x24, 0x4E, 0x01, 0x99, 0x2A, 0x00, 0x00, 0x99, 0x24, 0x00, 0x81, 0x0B, 0x96, 0x41, 0x00, 0x00, 0x96, 0x45, 0x00, 0x00, 0x96, 0x48, 0x00, 0x06, 0x91, 0x2B, 0x00, 0x0E, 0x92, 0x47, 0x76, 0x00, 0x92, 0x4A, 0x76, 0x00, 0x92, 0x4F, 0x76, 0x00, 0x96, 0x43, 0x6F, 0x00, 0x96, 0x47, 0x6F, 0x00, 0x96, 0x4A, 0x6F, 0x00, 0x99, 
	0x2A, 0x4E, 0x01, 0x99, 0x2A, 0x00, 0x81, 0x0B, 0x94, 0x4C, 0x00, 0x14, 0x94, 0x4A, 0x7F, 0x00, 0x99, 0x2A, 0x32, 0x01, 0x99, 0x2A, 0x00, 0x4F, 0x92, 0x47, 0x00, 0x00, 0x92, 0x4A, 0x00, 0x00, 0x92, 0x4F, 0x00, 0x50, 0x91, 0x2B, 0x79, 0x00, 0x99, 0x2A, 0x32, 0x00, 0x99, 0x24, 0x4E, 0x01, 0x99, 0x2A, 0x00, 0x00, 0x99, 0x24, 0x00, 0x81, 0x11, 0x91, 0x2B, 0x00, 0x0E, 0x92, 0x47, 0x76, 
	0x00, 0x92, 0x4A, 0x76, 0x00, 0x92, 0x4F, 0x76, 0x00, 0x99, 0x2A, 0x4E, 0x00, 0x99, 0x28, 0x6A, 0x01, 0x99, 0x2A, 0x00, 0x00, 0x99, 0x28, 0x00, 0x81, 0x1F, 0x99, 0x2A, 0x32, 0x01, 0x99, 0x2A, 0x00, 0x4F, 0x92, 0x47, 0x00, 0x00, 0x92, 0x4A, 0x00, 0x00, 0x92, 0x4F, 0x00, 0x50, 0x91, 0x2B, 0x79, 0x00, 0x99, 0x2A, 0x32, 0x00, 0x99, 0x24, 0x4E, 0x01, 0x99, 0x2A, 0x00, 0x00, 0x99, 0x24, 
	0x00, 0x81, 0x11, 0x91, 0x2B, 0x00, 0x0E, 0x91, 0x2B, 0x79, 0x00, 0x92, 0x47, 0x76, 0x00, 0x92, 0x4A, 0x76, 0x00, 0x92, 0x4F, 0x76, 0x00, 0x99, 0x2A, 0x4E, 0x00, 0x99, 0x24, 0x6A, 0x01, 0x99, 0x2A, 0x00, 0x00, 0x99, 0x24, 0x00, 0x81, 0x1F, 0x99, 0x2A, 0x32, 0x01, 0x99, 0x2A, 0x00, 0x4F, 0x92, 0x47, 0x00, 0x00, 0x92, 0x4A, 0x00, 0x00, 0x92, 0x4F, 0x00, 0x3C, 0x93, 0x4A, 0x00, 0x14, 
	0x93, 0x48, 0x7F, 0x00, 0x99, 0x2A, 0x32, 0x01, 0x99, 0x2A, 0x00, 0x81, 0x11, 0x93, 0x48, 0x00, 0x0E, 0x92, 0x47, 0x76, 0x00, 0x92, 0x4A, 0x76, 0x00, 0x92, 0x4F, 0x76, 0x00, 0x93, 0x47, 0x7F, 0x00, 0x99, 0x2A, 0x4E, 0x00, 0x99, 0x28, 0x6A, 0x01, 0x99, 0x2A, 0x00, 0x00, 0x99, 0x28, 0x00, 0x81, 0x0B, 0x94, 0x4A, 0x00, 0x14, 0x94, 0x48, 0x7F, 0x00, 0x99, 0x2A, 0x32, 0x01, 0x99, 0x2A, 
	0x00, 0x4F, 0x92, 0x47, 0x00, 0x00, 0x92, 0x4A, 0x00, 0x00, 0x92, 0x4F, 0x00, 0x3C, 0x93, 0x47, 0x00, 0x06, 0x94, 0x48, 0x00, 0x0E, 0x93, 0x48, 0x7F, 0x00, 0x94, 0x47, 0x7F, 0x00, 0x99, 0x2A, 0x32, 0x01, 0x99, 0x2A, 0x00, 0x77, 0x91, 0x2B, 0x00, 0x14, 0x96, 0x43, 0x00, 0x00, 0x96, 0x47, 0x00, 0x00, 0x96, 0x4A, 0x00, 0x14, 0x91, 0x29, 0x79, 0x00, 0x92, 0x35, 0x76, 0x00, 0x95, 0x4C, 
	0x63, 0x00, 0x95, 0x58, 0x79, 0x00, 0x96, 0x41, 0x6F, 0x00, 0x96, 0x45, 0x6F, 0x00, 0x96, 0x48, 0x6F, 0x00, 0x99, 0x2A, 0x4E, 0x00, 0x99, 0x24, 0x6A, 0x01, 0x99, 0x2A, 0x00, 0x00, 0x99, 0x24, 0x00, 0x13, 0x92, 0x45, 0x76, 0x14, 0x92, 0x48, 0x76, 0x14, 0x92, 0x4D, 0x76, 0x50, 0x94, 0x47, 0x00, 0x14, 0x94, 0x48, 0x7F, 0x00, 0x99, 0x2A, 0x32, 0x01, 0x99, 0x2A, 0x00, 0x81, 0x1F, 0x99, 
	0x2A, 0x32, 0x01, 0x99, 0x2A, 0x00, 0x81, 0x1F, 0x97, 0x48, 0x63, 0x00, 0x97, 0x51, 0x7F, 0x00, 0x99, 0x2A, 0x4E, 0x00, 0x99, 0x28, 0x6A, 0x01, 0x99, 0x2A, 0x00, 0x00, 0x99, 0x28, 0x00, 0x81, 0x1F, 0x99, 0x2A, 0x32, 0x01, 0x99, 0x2A, 0x00, 0x81, 0x1F, 0x99, 0x2A, 0x32, 0x00, 0x99, 0x24, 0x4E, 0x01, 0x99, 0x2A, 0x00, 0x00, 0x99, 0x24, 0x00, 0x81, 0x01, 0x97, 0x48, 0x00, 0x00, 0x97, 
	0x51, 0x00, 0x1E, 0x97, 0x4C, 0x63, 0x00, 0x97, 0x54, 0x7F, 0x00, 0x99, 0x2A, 0x4E, 0x00, 0x99, 0x24, 0x6A, 0x01, 0x99, 0x2A, 0x00, 0x00, 0x99, 0x24, 0x00, 0x81, 0x1F, 0x99, 0x2A, 0x32, 0x01, 0x99, 0x2A, 0x00, 0x81, 0x1F, 0x99, 0x2A, 0x32, 0x00, 0x99, 0x24, 0x6A, 0x01, 0x99, 0x2A, 0x00, 0x00, 0x99, 0x24, 0x00, 0x81, 0x01, 0x97, 0x4C, 0x00, 0x00, 0x97, 0x54, 0x00, 0x1E, 0x97, 0x4F, 
	0x63, 0x00, 0x97, 0x58, 0x7F, 0x00, 0x99, 0x2A, 0x4E, 0x00, 0x99, 0x28, 0x6A, 0x01, 0x99, 0x2A, 0x00, 0x00, 0x99, 0x28, 0x00, 0x81, 0x1F, 0x99, 0x2A, 0x32, 0x01, 0x99, 0x2A, 0x00, 0x81, 0x1F, 0x99, 0x2A, 0x32, 0x00, 0x99, 0x24, 0x4E, 0x01, 0x99, 0x2A, 0x00, 0x00, 0x99, 0x24, 0x00, 0x81, 0x01, 0x97, 0x4F, 0x00, 0x00, 0x97, 0x58, 0x00, 0x0A, 0x91, 0x29, 0x00, 0x00, 0x95, 0x4C, 0x00, 
	0x00, 0x95, 0x58, 0x00, 0x00, 0x96, 0x41, 0x00, 0x00, 0x96, 0x45, 0x00, 0x00, 0x96, 0x48, 0x00, 0x14, 0x91, 0x2B, 0x79, 0x00, 0x92, 0x35, 0x00, 0x00, 0x92, 0x45, 0x00, 0x00, 0x92, 0x48, 0x00, 0x00, 0x92, 0x4D, 0x00, 0x00, 0x92, 0x37, 0x76, 0x00, 0x95, 0x4A, 0x63, 0x00, 0x95, 0x56, 0x79, 0x00, 0x96, 0x43, 0x6F, 0x00, 0x96, 0x47, 0x6F, 0x00, 0x96, 0x4A, 0x6F, 0x00, 0x97, 0x4D, 0x63, 
	0x00, 0x97, 0x56, 0x7F, 0x00, 0x99, 0x2A, 0x4E, 0x01, 0x99, 0x2A, 0x00, 0x13, 0x92, 0x47, 0x76, 0x14, 0x92, 0x4A, 0x76, 0x14, 0x92, 0x4F, 0x76, 0x64, 0x99, 0x2A, 0x32, 0x01, 0x99, 0x2A, 0x00, 0x81, 0x1F, 0x99, 0x2A, 0x32, 0x00, 0x99, 0x24, 0x4E, 0x01, 0x99, 0x2A, 0x00, 0x00, 0x99, 0x24, 0x00, 0x81, 0x01, 0x93, 0x48, 0x00, 0x1E, 0x93, 0x48, 0x7F, 0x00, 0x99, 0x2A, 0x4E, 0x00, 0x99, 
	0x28, 0x6A, 0x01, 0x99, 0x2A, 0x00, 0x00, 0x99, 0x28, 0x00, 0x81, 0x1F, 0x99, 0x2A, 0x32, 0x01, 0x99, 0x2A, 0x00, 0x81, 0x01, 0x94, 0x48, 0x00, 0x1E, 0x94, 0x48, 0x7F, 0x00, 0x99, 0x2A, 0x32, 0x00, 0x99, 0x24, 0x4E, 0x01, 0x99, 0x2A, 0x00, 0x00, 0x99, 0x24, 0x00, 0x77, 0x95, 0x4A, 0x00, 0x00, 0x95, 0x56, 0x00, 0x0A, 0x93, 0x48, 0x00, 0x1E, 0x93, 0x4A, 0x7F, 0x00, 0x95, 0x45, 0x63, 
	0x00, 0x95, 0x51, 0x79, 0x00, 0x99, 0x2A, 0x4E, 0x00, 0x99, 0x24, 0x6A, 0x01, 0x99, 0x2A, 0x00, 0x00, 0x99, 0x24, 0x00, 0x81, 0x1F, 0x99, 0x2A, 0x32, 0x01, 0x99, 0x2A, 0x00, 0x81, 0x01, 0x94, 0x48, 0x00, 0x0A, 0x93, 0x4A, 0x00, 0x14, 0x93, 0x48, 0x7F, 0x00, 0x94, 0x4A, 0x7F, 0x00, 0x99, 0x2A, 0x32, 0x01, 0x99, 0x2A, 0x00, 0x81, 0x1F, 0x99, 0x2A, 0x4E, 0x00, 0x99, 0x28, 0x6A, 0x01, 
	0x99, 0x2A, 0x00, 0x00, 0x99, 0x28, 0x00, 0x81, 0x0B, 0x94, 0x4A, 0x00, 0x14, 0x94, 0x48, 0x7F, 0x00, 0x99, 0x2A, 0x32, 0x01, 0x99, 0x2A, 0x00, 0x81, 0x0B, 0x93, 0x48, 0x00, 0x14, 0x93, 0x4A, 0x7F, 0x00, 0x99, 0x2A, 0x32, 0x01, 0x99, 0x2A, 0x00, 0x77, 0x95, 0x45, 0x00, 0x00, 0x95, 0x51, 0x00, 0x14, 0x91, 0x2B, 0x00, 0x00, 0x96, 0x43, 0x00, 0x00, 0x96, 0x47, 0x00, 0x00, 0x96, 0x4A, 
	0x00, 0x00, 0x97, 0x4D, 0x00, 0x00, 0x97, 0x56, 0x00, 0x06, 0x93, 0x4A, 0x00, 0x0E, 0x91, 0x24, 0x79, 0x00, 0x92, 0x37, 0x00, 0x00, 0x92, 0x47, 0x00, 0x00, 0x92, 0x4A, 0x00, 0x00, 0x92, 0x4F, 0x00, 0x00, 0x92, 0x43, 0x76, 0x00, 0x92, 0x48, 0x76, 0x00, 0x92, 0x4C, 0x76, 0x00, 0x93, 0x4F, 0x7F, 0x00, 0x95, 0x48, 0x63, 0x00, 0x95, 0x54, 0x79, 0x00, 0x96, 0x40, 0x6F, 0x00, 0x96, 0x43, 
	0x6F, 0x00, 0x96, 0x48, 0x6F, 0x00, 0x99, 0x31, 0x4E, 0x00, 0x99, 0x24, 0x6A, 0x01, 0x99, 0x31, 0x00, 0x00, 0x99, 0x24, 0x00, 0x81, 0x0B, 0x94, 0x48, 0x00, 0x14, 0x94, 0x4A, 0x7F, 0x50, 0x92, 0x43, 0x00, 0x00, 0x92, 0x48, 0x00, 0x00, 0x92, 0x4C, 0x00, 0x3C, 0x91, 0x24, 0x00, 0x06, 0x94, 0x4A, 0x00, 0x0E, 0x94, 0x4F, 0x7F, 0x81, 0x02, 0x93, 0x4F, 0x00, 0x1E, 0x91, 0x24, 0x79, 0x00, 
	0x92, 0x43, 0x76, 0x00, 0x92, 0x48, 0x76, 0x00, 0x92, 0x4C, 0x76, 0x00, 0x93, 0x4F, 0x7F, 0x00, 0x97, 0x4F, 0x63, 0x00, 0x97, 0x58, 0x7F, 0x00, 0x99, 0x2A, 0x4E, 0x00, 0x99, 0x28, 0x6A, 0x01, 0x99, 0x2A, 0x00, 0x00, 0x99, 0x28, 0x00, 0x81, 0x1F, 0x99, 0x2A, 0x32, 0x01, 0x99, 0x2A, 0x00, 0x4F, 0x92, 0x43, 0x00, 0x00, 0x92, 0x48, 0x00, 0x00, 0x92, 0x4C, 0x00, 0x32, 0x94, 0x4F, 0x00, 
	0x0A, 0x91, 0x24, 0x00, 0x14, 0x94, 0x4F, 0x7F, 0x00, 0x99, 0x2A, 0x32, 0x00, 0x99, 0x24, 0x4E, 0x01, 0x99, 0x2A, 0x00, 0x00, 0x99, 0x24, 0x00, 0x77, 0x96, 0x40, 0x00, 0x00, 0x96, 0x43, 0x00, 0x00, 0x96, 0x48, 0x00, 0x0A, 0x93, 0x4F, 0x00, 0x00, 0x97, 0x4F, 0x00, 0x00, 0x97, 0x58, 0x00, 0x1E, 0x91, 0x23, 0x79, 0x00, 0x92, 0x43, 0x76, 0x00, 0x92, 0x47, 0x76, 0x00, 0x92, 0x4A, 0x76, 
	0x00, 0x93, 0x4C, 0x7F, 0x00, 0x96, 0x3E, 0x6F, 0x00, 0x96, 0x43, 0x6F, 0x00, 0x96, 0x47, 0x6F, 0x00, 0x97, 0x51, 0x63, 0x00, 0x97, 0x59, 0x7F, 0x00, 0x99, 0x2A, 0x4E, 0x00, 0x99, 0x24, 0x6A, 0x01, 0x99, 0x2A, 0x00, 0x00, 0x99, 0x24, 0x00, 0x81, 0x1F, 0x99, 0x2A, 0x32, 0x01, 0x99, 0x2A, 0x00, 0x4F, 0x92, 0x43, 0x00, 0x00, 0x92, 0x47, 0x00, 0x00, 0x92, 0x4A, 0x00, 0x32, 0x94, 0x4F, 
	0x00, 0x1E, 0x94, 0x4C, 0x7F, 0x00, 0x99, 0x2A, 0x32, 0x00, 0x99, 0x24, 0x6A, 0x01, 0x99, 0x2A, 0x00, 0x00, 0x99, 0x24, 0x00, 0x81, 0x01, 0x93, 0x4C, 0x00, 0x00, 0x97, 0x51, 0x00, 0x00, 0x97, 0x59, 0x00, 0x1E, 0x92, 0x43, 0x76, 0x00, 0x92, 0x47, 0x76, 0x00, 0x92, 0x4A, 0x76, 0x00, 0x93, 0x4F, 0x7F, 0x00, 0x97, 0x53, 0x63, 0x00, 0x97, 0x5B, 0x7F, 0x00, 0x99, 0x2A, 0x4E, 0x00, 0x99, 
	0x28, 0x6A, 0x01, 0x99, 0x2A, 0x00, 0x00, 0x99, 0x28, 0x00, 0x81, 0x1F, 0x99, 0x2A, 0x32, 0x01, 0x99, 0x2A, 0x00, 0x4F, 0x92, 0x43, 0x00, 0x00, 0x92, 0x47, 0x00, 0x00, 0x92, 0x4A, 0x00, 0x32, 0x94, 0x4C, 0x00, 0x0A, 0x91, 0x23, 0x00, 0x00, 0x93, 0x4F, 0x00, 0x00, 0x97, 0x53, 0x00, 0x00, 0x97, 0x5B, 0x00, 0x14, 0x91, 0x2D, 0x79, 0x00, 0x93, 0x48, 0x7F, 0x00, 0x94, 0x4F, 0x7F, 0x00, 
	0x97, 0x4C, 0x63, 0x00, 0x97, 0x54, 0x7F, 0x00, 0x99, 0x2A, 0x32, 0x00, 0x99, 0x24, 0x4E, 0x01, 0x99, 0x2A, 0x00, 0x00, 0x99, 0x24, 0x00, 0x77, 0x96, 0x3E, 0x00, 0x00, 0x96, 0x43, 0x00, 0x00, 0x96, 0x47, 0x00, 0x1A, 0x91, 0x2D, 0x00, 0x0E, 0x92, 0x45, 0x76, 0x00, 0x92, 0x48, 0x76, 0x00, 0x92, 0x4C, 0x76, 0x00, 0x96, 0x40, 0x6F, 0x00, 0x96, 0x45, 0x6F, 0x00, 0x96, 0x48, 0x6F, 0x00, 
	0x99, 0x2A, 0x4E, 0x01, 0x99, 0x2A, 0x00, 0x81, 0x0B, 0x94, 0x4F, 0x00, 0x14, 0x94, 0x48, 0x7F, 0x00, 0x99, 0x2A, 0x32, 0x01, 0x99, 0x2A, 0x00, 0x4F, 0x92, 0x45, 0x00, 0x00, 0x92, 0x48, 0x00, 0x00, 0x92, 0x4C, 0x00, 0x50, 0x91, 0x2D, 0x79, 0x00, 0x99, 0x2A, 0x32, 0x00, 0x99, 0x24, 0x4E, 0x01, 0x99, 0x2A, 0x00, 0x00, 0x99, 0x24, 0x00, 0x81, 0x11, 0x91, 0x2D, 0x00, 0x0E, 0x92, 0x45, 
	0x76, 0x00, 0x92, 0x48, 0x76, 0x00, 0x92, 0x4C, 0x76, 0x00, 0x99, 0x2A, 0x4E, 0x00, 0x99, 0x28, 0x6A, 0x01, 0x99, 0x2A, 0x00, 0x00, 0x99, 0x28, 0x00, 0x81, 0x1F, 0x99, 0x2A, 0x32, 0x01, 0x99, 0x2A, 0x00, 0x4F, 0x92, 0x45, 0x00, 0x00, 0x92, 0x48, 0x00, 0x00, 0x92, 0x4C, 0x00, 0x50, 0x91, 0x2D, 0x79, 0x00, 0x99, 0x2A, 0x32, 0x00, 0x99, 0x24, 0x4E, 0x01, 0x99, 0x2A, 0x00, 0x00, 0x99, 
	0x24, 0x00, 0x77, 0x97, 0x4C, 0x00, 0x00, 0x97, 0x54, 0x00, 0x1A, 0x91, 0x2D, 0x00, 0x0E, 0x91, 0x2D, 0x79, 0x00, 0x92, 0x43, 0x76, 0x00, 0x92, 0x48, 0x76, 0x00, 0x92, 0x4C, 0x76, 0x00, 0x97, 0x4F, 0x50, 0x00, 0x97, 0x58, 0x6E, 0x00, 0x99, 0x2A, 0x4E, 0x00, 0x99, 0x24, 0x6A, 0x01, 0x99, 0x2A, 0x00, 0x00, 0x99, 0x24, 0x00, 0x81, 0x1F, 0x99, 0x2A, 0x32, 0x01, 0x99, 0x2A, 0x00, 0x4F, 
	0x92, 0x43, 0x00, 0x00, 0x92, 0x48, 0x00, 0x00, 0x92, 0x4C, 0x00, 0x3C, 0x93, 0x48, 0x00, 0x14, 0x93, 0x48, 0x7F, 0x00, 0x99, 0x2A, 0x32, 0x01, 0x99, 0x2A, 0x00, 0x81, 0x01, 0x91, 0x2D, 0x00, 0x10, 0x93, 0x48, 0x00, 0x0E, 0x91, 0x2B, 0x79, 0x00, 0x92, 0x43, 0x76, 0x00, 0x92, 0x48, 0x76, 0x00, 0x92, 0x4C, 0x76, 0x00, 0x93, 0x48, 0x7F, 0x00, 0x99, 0x2A, 0x4E, 0x00, 0x99, 0x28, 0x6A, 
	0x01, 0x99, 0x2A, 0x00, 0x00, 0x99, 0x28, 0x00, 0x81, 0x0B, 0x94, 0x48, 0x00, 0x14, 0x94, 0x48, 0x7F, 0x00, 0x99, 0x2A, 0x32, 0x01, 0x99, 0x2A, 0x00, 0x4F, 0x92, 0x43, 0x00, 0x00, 0x92, 0x48, 0x00, 0x00, 0x92, 0x4C, 0x00, 0x3C, 0x93, 0x48, 0x00, 0x06, 0x94, 0x48, 0x00, 0x0E, 0x93, 0x48, 0x7F, 0x00, 0x94, 0x48, 0x7F, 0x00, 0x99, 0x2A, 0x32, 0x01, 0x99, 0x2A, 0x00, 0x77, 0x97, 0x4F, 
	0x00, 0x00, 0x97, 0x58, 0x00, 0x0A, 0x91, 0x2B, 0x00, 0x0A, 0x96, 0x40, 0x00, 0x00, 0x96, 0x45, 0x00, 0x00, 0x96, 0x48, 0x00, 0x06, 0x93, 0x48, 0x00, 0x0E, 0x91, 0x29, 0x79, 0x00, 0x92, 0x45, 0x76, 0x00, 0x92, 0x48, 0x76, 0x00, 0x92, 0x4D, 0x76, 0x00, 0x93, 0x4F, 0x7F, 0x00, 0x96, 0x41, 0x6F, 0x00, 0x96, 0x45, 0x6F, 0x00, 0x96, 0x48, 0x6F, 0x00, 0x97, 0x51, 0x63, 0x00, 0x97, 0x59, 
	0x7F, 0x00, 0x99, 0x24, 0x6A, 0x00, 0x99, 0x2A, 0x4E, 0x01, 0x99, 0x24, 0x00, 0x00, 0x99, 0x2A, 0x00, 0x81, 0x0B, 0x94, 0x48, 0x00, 0x14, 0x94, 0x48, 0x7F, 0x00, 0x99, 0x2A, 0x32, 0x01, 0x99, 0x2A, 0x00, 0x4F, 0x92, 0x45, 0x00, 0x00, 0x92, 0x48, 0x00, 0x00, 0x92, 0x4D, 0x00, 0x3C, 0x91, 0x29, 0x00, 0x00, 0x93, 0x4F, 0x00, 0x06, 0x94, 0x48, 0x00, 0x0E, 0x93, 0x4F, 0x7F, 0x00, 0x94, 
	0x4F, 0x7F, 0x00, 0x99, 0x2A, 0x32, 0x01, 0x99, 0x2A, 0x00, 0x81, 0x11, 0x93, 0x4F, 0x00, 0x0E, 0x91, 0x29, 0x79, 0x00, 0x92, 0x45, 0x76, 0x00, 0x92, 0x48, 0x76, 0x00, 0x92, 0x4D, 0x76, 0x00, 0x93, 0x4D, 0x7F, 0x00, 0x99, 0x28, 0x6A, 0x00, 0x99, 0x2A, 0x4E, 0x01, 0x99, 0x28, 0x00, 0x00, 0x99, 0x2A, 0x00, 0x81, 0x0B, 0x94, 0x4F, 0x00, 0x14, 0x94, 0x4F, 0x7F, 0x00, 0x99, 0x2A, 0x32, 
	0x01, 0x99, 0x2A, 0x00, 0x4F, 0x92, 0x45, 0x00, 0x00, 0x92, 0x48, 0x00, 0x00, 0x92, 0x4D, 0x00, 0x3C, 0x91, 0x29, 0x00, 0x00, 0x93, 0x4D, 0x00, 0x06, 0x94, 0x4F, 0x00, 0x0E, 0x93, 0x4D, 0x7F, 0x00, 0x94, 0x4D, 0x7F, 0x00, 0x99, 0x24, 0x4E, 0x00, 0x99, 0x2A, 0x32, 0x01, 0x99, 0x24, 0x00, 0x00, 0x99, 0x2A, 0x00, 0x81, 0x11, 0x93, 0x4D, 0x00, 0x0E, 0x91, 0x29, 0x79, 0x00, 0x92, 0x45, 
	0x76, 0x00, 0x92, 0x4D, 0x76, 0x00, 0x93, 0x4C, 0x7F, 0x00, 0x99, 0x28, 0x5C, 0x01, 0x99, 0x28, 0x00, 0x81, 0x0B, 0x94, 0x4D, 0x00, 0x14, 0x94, 0x4D, 0x7F, 0x00, 0x99, 0x28, 0x4E, 0x01, 0x99, 0x28, 0x00, 0x81, 0x0B, 0x92, 0x45, 0x00, 0x00, 0x92, 0x4D, 0x00, 0x00, 0x93, 0x4C, 0x00, 0x06, 0x94, 0x4D, 0x00, 0x0E, 0x92, 0x4C, 0x76, 0x00, 0x93, 0x4A, 0x7F, 0x00, 0x94, 0x4C, 0x7F, 0x00, 
	0x99, 0x30, 0x5C, 0x01, 0x99, 0x30, 0x00, 0x81, 0x11, 0x92, 0x4C, 0x00, 0x00, 0x93, 0x4A, 0x00, 0x0E, 0x92, 0x4D, 0x76, 0x00, 0x93, 0x48, 0x7F, 0x00, 0x99, 0x2D, 0x5C, 0x01, 0x99, 0x2D, 0x00, 0x81, 0x0B, 0x94, 0x4C, 0x00, 0x14, 0x94, 0x4A, 0x7F, 0x81, 0x0C, 0x91, 0x29, 0x00, 0x00, 0x92, 0x4D, 0x00, 0x00, 0x93, 0x48, 0x00, 0x06, 0x94, 0x4A, 0x00, 0x0E, 0x91, 0x2B, 0x79, 0x00, 0x92, 
	0x47, 0x76, 0x00, 0x92, 0x4A, 0x76, 0x00, 0x92, 0x4F, 0x76, 0x00, 0x93, 0x4A, 0x7F, 0x00, 0x94, 0x48, 0x7F, 0x00, 0x99, 0x31, 0x4E, 0x00, 0x99, 0x24, 0x4E, 0x01, 0x99, 0x31, 0x00, 0x00, 0x99, 0x24, 0x00, 0x27, 0x96, 0x41, 0x00, 0x00, 0x96, 0x45, 0x00, 0x00, 0x96, 0x48, 0x00, 0x64, 0x95, 0x48, 0x00, 0x00, 0x95, 0x54, 0x00, 0x00, 0x97, 0x51, 0x00, 0x00, 0x97, 0x59, 0x00, 0x06, 0x91, 
	0x2B, 0x00, 0x00, 0x92, 0x47, 0x00, 0x00, 0x92, 0x4A, 0x00, 0x00, 0x92, 0x4F, 0x00, 0x81, 0x1A, 0x94, 0x48, 0x00, 0x14, 0x94, 0x4A, 0x7F, 0x82, 0x40, 0x91, 0x1F, 0x79, 0x00, 0x92, 0x3B, 0x76, 0x00, 0x92, 0x3E, 0x76, 0x00, 0x92, 0x43, 0x76, 0x00, 0x99, 0x24, 0x6A, 0x01, 0x99, 0x24, 0x00, 0x83, 0x5F, 0x99, 0x24, 0x6A, 0x01, 0x99, 0x24, 0x00, 0x82, 0x2B, 0x93, 0x4A, 0x00, 0x14, 0x93, 
	0x48, 0x7F, 0x00, 0x99, 0x28, 0x6A, 0x01, 0x99, 0x28, 0x00, 0x81, 0x11, 0x93, 0x48, 0x00, 0x0E, 0x93, 0x47, 0x7F, 0x00, 0x99, 0x2D, 0x5C, 0x01, 0x99, 0x2D, 0x00, 0x81, 0x0B, 0x94, 0x4A, 0x00, 0x14, 0x94, 0x48, 0x7F, 0x00, 0x99, 0x29, 0x5C, 0x01, 0x99, 0x29, 0x00, 0x81, 0x0B, 0x93, 0x47, 0x00, 0x06, 0x94, 0x48, 0x00, 0x0E, 0x93, 0x48, 0x7F, 0x00, 0x94, 0x47, 0x7F, 0x00, 0x99, 0x28, 
	0x6A, 0x01, 0x99, 0x28, 0x00, 0x81, 0x0B, 0x91, 0x1F, 0x00, 0x00, 0x92, 0x3B, 0x00, 0x00, 0x92, 0x3E, 0x00, 0x00, 0x92, 0x43, 0x00, 0x14, 0x91, 0x24, 0x79, 0x00, 0x92, 0x43, 0x76, 0x00, 0x92, 0x48, 0x76, 0x00, 0x92, 0x4C, 0x76, 0x00, 0x95, 0x48, 0x63, 0x00, 0x95, 0x54, 0x79, 0x00, 0x96, 0x43, 0x6F, 0x00, 0x96, 0x48, 0x6F, 0x00, 0x96, 0x4C, 0x6F, 0x00, 0x99, 0x31, 0x4E, 0x00, 0x99, 
	0x24, 0x6A, 0x01, 0x99, 0x31, 0x00, 0x00, 0x99, 0x24, 0x00, 0x81, 0x0B, 0x94, 0x47, 0x00, 0x14, 0x94, 0x48, 0x7F, 0x50, 0x92, 0x43, 0x00, 0x00, 0x92, 0x48, 0x00, 0x00, 0x92, 0x4C, 0x00, 0x3C, 0x91, 0x24, 0x00, 0x81, 0x34, 0x91, 0x24, 0x79, 0x00, 0x92, 0x43, 0x76, 0x00, 0x92, 0x48, 0x76, 0x00, 0x92, 0x4C, 0x76, 0x00, 0x97, 0x48, 0x63, 0x00, 0x97, 0x4F, 0x7F, 0x00, 0x99, 0x2A, 0x4E, 
	0x00, 0x99, 0x28, 0x6A, 0x01, 0x99, 0x2A, 0x00, 0x00, 0x99, 0x28, 0x00, 0x81, 0x1F, 0x99, 0x2A, 0x32, 0x01, 0x99, 0x2A, 0x00, 0x4F, 0x92, 0x43, 0x00, 0x00, 0x92, 0x48, 0x00, 0x00, 0x92, 0x4C, 0x00, 0x3C, 0x91, 0x24, 0x00, 0x14, 0x99, 0x2A, 0x32, 0x00, 0x99, 0x24, 0x4E, 0x01, 0x99, 0x2A, 0x00, 0x00, 0x99, 0x24, 0x00, 0x81, 0x01, 0x97, 0x48, 0x00, 0x00, 0x97, 0x4F, 0x00, 0x1E, 0x91, 
	0x24, 0x79, 0x00, 0x92, 0x43, 0x76, 0x00, 0x92, 0x48, 0x76, 0x00, 0x92, 0x4C, 0x76, 0x00, 0x97, 0x4C, 0x63, 0x00, 0x97, 0x54, 0x7F, 0x00, 0x99, 0x2A, 0x4E, 0x00, 0x99, 0x24, 0x6A, 0x01, 0x99, 0x2A, 0x00, 0x00, 0x99, 0x24, 0x00, 0x81, 0x1F, 0x99, 0x2A, 0x32, 0x01, 0x99, 0x2A, 0x00, 0x81, 0x1F, 0x99, 0x2A, 0x32, 0x00, 0x99, 0x24, 0x6A, 0x01, 0x99, 0x2A, 0x00, 0x00, 0x99, 0x24, 0x00, 
	0x81, 0x01, 0x97, 0x4C, 0x00, 0x00, 0x97, 0x54, 0x00, 0x1E, 0x97, 0x4F, 0x63, 0x00, 0x97, 0x58, 0x7F, 0x00, 0x99, 0x2A, 0x4E, 0x00, 0x99, 0x28, 0x6A, 0x01, 0x99, 0x2A, 0x00, 0x00, 0x99, 0x28, 0x00, 0x81, 0x1F, 0x99, 0x2A, 0x32, 0x01, 0x99, 0x2A, 0x00, 0x81, 0x0B, 0x91, 0x24, 0x00, 0x00, 0x92, 0x43, 0x00, 0x00, 0x92, 0x48, 0x00, 0x00, 0x92, 0x4C, 0x00, 0x00, 0x97, 0x4F, 0x00, 0x00, 
	0x97, 0x58, 0x00, 0x14, 0x91, 0x24, 0x79, 0x00, 0x92, 0x45, 0x76, 0x00, 0x92, 0x48, 0x76, 0x00, 0x92, 0x4D, 0x76, 0x00, 0x97, 0x51, 0x63, 0x00, 0x97, 0x59, 0x7F, 0x00, 0x99, 0x2A, 0x32, 0x00, 0x99, 0x24, 0x4E, 0x01, 0x99, 0x2A, 0x00, 0x00, 0x99, 0x24, 0x00, 0x81, 0x0B, 0x93, 0x48, 0x00, 0x06, 0x91, 0x24, 0x00, 0x00, 0x92, 0x45, 0x00, 0x00, 0x92, 0x48, 0x00, 0x00, 0x92, 0x4D, 0x00, 
	0x0E, 0xB3, 0x20, 0x40, 0x00, 0xC3, 0x3E, 0x00, 0x99, 0x2A, 0x4E, 0x01, 0x99, 0x2A, 0x00, 0x81, 0x1F, 0x99, 0x2A, 0x32, 0x01, 0x99, 0x2A, 0x00, 0x81, 0x0B, 0x94, 0x48, 0x00, 0x00, 0x97, 0x51, 0x00, 0x00, 0x97, 0x59, 0x00, 0x14, 0x91, 0x24, 0x79, 0x00, 0x92, 0x43, 0x76, 0x00, 0x92, 0x47, 0x76, 0x00, 0x92, 0x4A, 0x76, 0x00, 0xB4, 0x20, 0x40, 0x00, 0xC4, 0x3E, 0x00, 0x97, 0x4D, 0x63, 
	0x00, 0x97, 0x56, 0x7F, 0x00, 0x99, 0x2A, 0x32, 0x00, 0x99, 0x24, 0x4E, 0x01, 0x99, 0x2A, 0x00, 0x00, 0x99, 0x24, 0x00, 0x81, 0x11, 0x91, 0x24, 0x00, 0x00, 0x92, 0x43, 0x00, 0x00, 0x92, 0x47, 0x00, 0x00, 0x92, 0x4A, 0x00, 0x0E, 0x99, 0x2A, 0x4E, 0x00, 0x99, 0x28, 0x6A, 0x01, 0x99, 0x2A, 0x00, 0x00, 0x99, 0x28, 0x00, 0x81, 0x1F, 0x99, 0x2A, 0x32, 0x01, 0x99, 0x2A, 0x00, 0x81, 0x0B, 
	0x97, 0x4D, 0x00, 0x00, 0x97, 0x56, 0x00, 0x14, 0x91, 0x24, 0x79, 0x00, 0x92, 0x43, 0x76, 0x00, 0x92, 0x48, 0x76, 0x00, 0x92, 0x4C, 0x76, 0x00, 0x97, 0x4F, 0x63, 0x00, 0x97, 0x58, 0x7F, 0x00, 0x99, 0x2A, 0x32, 0x00, 0x99, 0x24, 0x4E, 0x01, 0x99, 0x2A, 0x00, 0x00, 0x99, 0x24, 0x00, 0x81, 0x11, 0x91, 0x24, 0x00, 0x00, 0x92, 0x43, 0x00, 0x00, 0x92, 0x48, 0x00, 0x00, 0x92, 0x4C, 0x00, 
	0x00, 0x97, 0x4F, 0x00, 0x00, 0x97, 0x58, 0x00, 0x0E, 0x91, 0x24, 0x79, 0x00, 0x92, 0x43, 0x76, 0x00, 0x92, 0x48, 0x76, 0x00, 0x92, 0x4C, 0x76, 0x00, 0x97, 0x4F, 0x63, 0x00, 0x97, 0x58, 0x7F, 0x00, 0x99, 0x2A, 0x4E, 0x00, 0x99, 0x24, 0x6A, 0x01, 0x99, 0x2A, 0x00, 0x00, 0x99, 0x24, 0x00, 0x81, 0x1F, 0x99, 0x2A, 0x32, 0x01, 0x99, 0x2A, 0x00, 0x81, 0x1F, 0x99, 0x2A, 0x32, 0x01, 0x99, 
	0x2A, 0x00, 0x81, 0x01, 0x91, 0x24, 0x00, 0x1E, 0x91, 0x24, 0x79, 0x00, 0x99, 0x28, 0x6A, 0x01, 0x99, 0x28, 0x00, 0x81, 0x1F, 0x93, 0x45, 0x7F, 0x00, 0x99, 0x2D, 0x6A, 0x01, 0x99, 0x2D, 0x00, 0x81, 0x11, 0x93, 0x45, 0x00, 0x0E, 0x93, 0x47, 0x7F, 0x00, 0x99, 0x29, 0x6A, 0x01, 0x99, 0x29, 0x00, 0x77, 0x92, 0x43, 0x00, 0x00, 0x92, 0x48, 0x00, 0x00, 0x92, 0x4C, 0x00, 0x00, 0x97, 0x4F, 
	0x00, 0x00, 0x97, 0x58, 0x00, 0x0A, 0x91, 0x24, 0x00, 0x0A, 0x95, 0x48, 0x00, 0x00, 0x95, 0x54, 0x00, 0x00, 0x96, 0x43, 0x00, 0x00, 0x96, 0x48, 0x00, 0x00, 0x96, 0x4C, 0x00, 0x06, 0x93, 0x47, 0x00, 0x0E, 0x91, 0x29, 0x79, 0x00, 0x92, 0x45, 0x76, 0x00, 0x92, 0x48, 0x76, 0x00, 0x92, 0x4C, 0x76, 0x00, 0x93, 0x48, 0x7F, 0x00, 0x94, 0x45, 0x7F, 0x00, 0x95, 0x48, 0x63, 0x00, 0x95, 0x54, 
	0x79, 0x00, 0x96, 0x45, 0x6F, 0x00, 0x96, 0x48, 0x6F, 0x00, 0x96, 0x4C, 0x6F, 0x00, 0x99, 0x31, 0x4E, 0x00, 0x99, 0x2A, 0x4E, 0x00, 0x99, 0x24, 0x6A, 0x01, 0x99, 0x31, 0x00, 0x00, 0x99, 0x2A, 0x00, 0x00, 0x99, 0x24, 0x00, 0x81, 0x11, 0x94, 0x45, 0x00, 0x0E, 0x94, 0x47, 0x7F, 0x00, 0x99, 0x2A, 0x32, 0x01, 0x99, 0x2A, 0x00, 0x4F, 0x91, 0x29, 0x00, 0x00, 0x92, 0x45, 0x00, 0x00, 0x92, 
	0x48, 0x00, 0x00, 0x92, 0x4C, 0x00, 0x42, 0x94, 0x47, 0x00, 0x0E, 0x94, 0x48, 0x7F, 0x00, 0x99, 0x2A, 0x32, 0x01, 0x99, 0x2A, 0x00, 0x81, 0x1F, 0x91, 0x29, 0x79, 0x00, 0x92, 0x45, 0x76, 0x00, 0x92, 0x48, 0x76, 0x00, 0x92, 0x4C, 0x76, 0x00, 0x99, 0x2A, 0x4E, 0x00, 0x99, 0x28, 0x6A, 0x01, 0x99, 0x2A, 0x00, 0x00, 0x99, 0x28, 0x00, 0x81, 0x1F, 0x99, 0x2A, 0x32, 0x01, 0x99, 0x2A, 0x00, 
	0x4F, 0x91, 0x29, 0x00, 0x00, 0x92, 0x45, 0x00, 0x00, 0x92, 0x48, 0x00, 0x00, 0x92, 0x4C, 0x00, 0x50, 0x99, 0x2A, 0x32, 0x00, 0x99, 0x24, 0x4E, 0x01, 0x99, 0x2A, 0x00, 0x00, 0x99, 0x24, 0x00, 0x81, 0x1F, 0x91, 0x29, 0x79, 0x00, 0x92, 0x45, 0x76, 0x00, 0x92, 0x48, 0x76, 0x00, 0x92, 0x4C, 0x76, 0x00, 0x99, 0x2A, 0x4E, 0x00, 0x99, 0x24, 0x6A, 0x01, 0x99, 0x2A, 0x00, 0x00, 0x99, 0x24, 
	0x00, 0x81, 0x1F, 0x99, 0x2A, 0x32, 0x01, 0x99, 0x2A, 0x00, 0x4F, 0x91, 0x29, 0x00, 0x00, 0x92, 0x45, 0x00, 0x00, 0x92, 0x48, 0x00, 0x00, 0x92, 0x4C, 0x00, 0x50, 0x99, 0x2A, 0x32, 0x01, 0x99, 0x2A, 0x00, 0x81, 0x0B, 0x93, 0x48, 0x00, 0x14, 0x91, 0x29, 0x79, 0x00, 0x92, 0x45, 0x76, 0x00, 0x92, 0x48, 0x76, 0x00, 0x92, 0x4C, 0x76, 0x00, 0x93, 0x4A, 0x7F, 0x00, 0x99, 0x2A, 0x4E, 0x00, 
	0x99, 0x28, 0x6A, 0x01, 0x99, 0x2A, 0x00, 0x00, 0x99, 0x28, 0x00, 0x81, 0x1F, 0x99, 0x2A, 0x32, 0x01, 0x99, 0x2A, 0x00, 0x4F, 0x91, 0x29, 0x00, 0x00, 0x92, 0x45, 0x00, 0x00, 0x92, 0x48, 0x00, 0x00, 0x92, 0x4C, 0x00, 0x3C, 0x93, 0x4A, 0x00, 0x00, 0x94, 0x48, 0x00, 0x14, 0x93, 0x47, 0x7F, 0x00, 0x94, 0x4A, 0x7F, 0x00, 0x99, 0x2A, 0x32, 0x01, 0x99, 0x2A, 0x00, 0x81, 0x0B, 0x95, 0x48, 
	0x00, 0x00, 0x95, 0x54, 0x00, 0x00, 0x96, 0x45, 0x00, 0x00, 0x96, 0x48, 0x00, 0x00, 0x96, 0x4C, 0x00, 0x14, 0x91, 0x2B, 0x79, 0x00, 0x92, 0x43, 0x76, 0x00, 0x92, 0x47, 0x76, 0x00, 0x92, 0x4A, 0x76, 0x00, 0x95, 0x4A, 0x63, 0x00, 0x95, 0x56, 0x79, 0x00, 0x96, 0x43, 0x6F, 0x00, 0x96, 0x47, 0x6F, 0x00, 0x96, 0x4A, 0x6F, 0x00, 0x99, 0x24, 0x6A, 0x00, 0x99, 0x2A, 0x4E, 0x01, 0x99, 0x24, 
	0x00, 0x00, 0x99, 0x2A, 0x00, 0x81, 0x0B, 0x94, 0x4A, 0x00, 0x14, 0x94, 0x47, 0x7F, 0x00, 0x99, 0x2A, 0x32, 0x01, 0x99, 0x2A, 0x00, 0x4F, 0x91, 0x2B, 0x00, 0x00, 0x92, 0x43, 0x00, 0x00, 0x92, 0x47, 0x00, 0x00, 0x92, 0x4A, 0x00, 0x50, 0x99, 0x2A, 0x32, 0x01, 0x99, 0x2A, 0x00, 0x81, 0x1F, 0x91, 0x2B, 0x79, 0x00, 0x92, 0x43, 0x76, 0x00, 0x92, 0x47, 0x76, 0x00, 0x92, 0x4A, 0x76, 0x00, 
	0x99, 0x2A, 0x4E, 0x00, 0x99, 0x28, 0x6A, 0x01, 0x99, 0x2A, 0x00, 0x00, 0x99, 0x28, 0x00, 0x81, 0x1F, 0x99, 0x2A, 0x32, 0x01, 0x99, 0x2A, 0x00, 0x4F, 0x91, 0x2B, 0x00, 0x00, 0x92, 0x43, 0x00, 0x00, 0x92, 0x47, 0x00, 0x00, 0x92, 0x4A, 0x00, 0x3C, 0x93, 0x47, 0x00, 0x14, 0x93, 0x45, 0x7F, 0x00, 0x99, 0x2A, 0x32, 0x00, 0x99, 0x24, 0x4E, 0x01, 0x99, 0x2A, 0x00, 0x00, 0x99, 0x24, 0x00, 
	0x81, 0x11, 0x93, 0x45, 0x00, 0x0E, 0x91, 0x2B, 0x79, 0x00, 0x92, 0x43, 0x76, 0x00, 0x92, 0x47, 0x76, 0x00, 0x92, 0x4A, 0x76, 0x00, 0x93, 0x43, 0x7F, 0x00, 0x99, 0x2A, 0x4E, 0x00, 0x99, 0x24, 0x6A, 0x01, 0x99, 0x2A, 0x00, 0x00, 0x99, 0x24, 0x00, 0x81, 0x0B, 0x94, 0x47, 0x00, 0x14, 0x94, 0x45, 0x7F, 0x00, 0x99, 0x2A, 0x32, 0x01, 0x99, 0x2A, 0x00, 0x4F, 0x91, 0x2B, 0x00, 0x00, 0x92, 
	0x43, 0x00, 0x00, 0x92, 0x47, 0x00, 0x00, 0x92, 0x4A, 0x00, 0x3C, 0x93, 0x43, 0x00, 0x06, 0x94, 0x45, 0x00, 0x0E, 0x93, 0x45, 0x7F, 0x00, 0x94, 0x43, 0x7F, 0x00, 0x99, 0x2A, 0x32, 0x01, 0x99, 0x2A, 0x00, 0x81, 0x1F, 0x91, 0x2B, 0x79, 0x00, 0x92, 0x43, 0x76, 0x00, 0x92, 0x47, 0x76, 0x00, 0x92, 0x4A, 0x76, 0x00, 0x99, 0x2A, 0x4E, 0x00, 0x99, 0x28, 0x6A, 0x01, 0x99, 0x2A, 0x00, 0x00, 
	0x99, 0x28, 0x00, 0x81, 0x0B, 0x94, 0x43, 0x00, 0x14, 0x94, 0x45, 0x7F, 0x00, 0x99, 0x2A, 0x32, 0x01, 0x99, 0x2A, 0x00, 0x4F, 0x91, 0x2B, 0x00, 0x00, 0x92, 0x43, 0x00, 0x00, 0x92, 0x47, 0x00, 0x00, 0x92, 0x4A, 0x00, 0x3C, 0x93, 0x45, 0x00, 0x14, 0x93, 0x4C, 0x7F, 0x00, 0x99, 0x2A, 0x32, 0x01, 0x99, 0x2A, 0x00, 0x81, 0x0B, 0x95, 0x4A, 0x00, 0x00, 0x95, 0x56, 0x00, 0x00, 0x96, 0x43, 
	0x00, 0x00, 0x96, 0x47, 0x00, 0x00, 0x96, 0x4A, 0x00, 0x14, 0x91, 0x2D, 0x79, 0x00, 0x92, 0x45, 0x76, 0x00, 0x92, 0x48, 0x76, 0x00, 0x92, 0x4C, 0x76, 0x00, 0x95, 0x4C, 0x63, 0x00, 0x95, 0x58, 0x79, 0x00, 0x96, 0x45, 0x6F, 0x00, 0x96, 0x48, 0x6F, 0x00, 0x96, 0x4C, 0x6F, 0x00, 0x99, 0x2A, 0x4E, 0x00, 0x99, 0x24, 0x6A, 0x01, 0x99, 0x2A, 0x00, 0x00, 0x99, 0x24, 0x00, 0x81, 0x0B, 0x94, 
	0x45, 0x00, 0x14, 0x94, 0x4C, 0x7F, 0x00, 0x99, 0x2A, 0x32, 0x01, 0x99, 0x2A, 0x00, 0x4F, 0x91, 0x2D, 0x00, 0x00, 0x92, 0x45, 0x00, 0x00, 0x92, 0x48, 0x00, 0x00, 0x92, 0x4C, 0x00, 0x50, 0x99, 0x2A, 0x32, 0x01, 0x99, 0x2A, 0x00, 0x81, 0x01, 0x93, 0x4C, 0x00, 0x1E, 0x91, 0x2D, 0x79, 0x00, 0x92, 0x45, 0x76, 0x00, 0x92, 0x48, 0x76, 0x00, 0x92, 0x4C, 0x76, 0x00, 0x93, 0x51, 0x7F, 0x00, 
	0x99, 0x2A, 0x4E, 0x00, 0x99, 0x28, 0x6A, 0x01, 0x99, 0x2A, 0x00, 0x00, 0x99, 0x28, 0x00, 0x81, 0x1F, 0x99, 0x2A, 0x32, 0x01, 0x99, 0x2A, 0x00, 0x4F, 0x91, 0x2D, 0x00, 0x00, 0x92, 0x45, 0x00, 0x00, 0x92, 0x48, 0x00, 0x00, 0x92, 0x4C, 0x00, 0x32, 0x94, 0x4C, 0x00, 0x1E, 0x94, 0x51, 0x7F, 0x00, 0x99, 0x2A, 0x32, 0x00, 0x99, 0x24, 0x4E, 0x01, 0x99, 0x2A, 0x00, 0x00, 0x99, 0x24, 0x00, 
	0x77, 0x96, 0x45, 0x00, 0x00, 0x96, 0x48, 0x00, 0x00, 0x96, 0x4C, 0x00, 0x0A, 0x93, 0x51, 0x00, 0x1E, 0x91, 0x2B, 0x79, 0x00, 0x92, 0x43, 0x76, 0x00, 0x92, 0x47, 0x76, 0x00, 0x92, 0x4A, 0x76, 0x00, 0x93, 0x4C, 0x7F, 0x00, 0x96, 0x43, 0x6F, 0x00, 0x96, 0x47, 0x6F, 0x00, 0x96, 0x4A, 0x6F, 0x00, 0x99, 0x2A, 0x4E, 0x00, 0x99, 0x24, 0x6A, 0x01, 0x99, 0x2A, 0x00, 0x00, 0x99, 0x24, 0x00, 
	0x81, 0x1F, 0x99, 0x2A, 0x32, 0x01, 0x99, 0x2A, 0x00, 0x4F, 0x91, 0x2B, 0x00, 0x00, 0x92, 0x43, 0x00, 0x00, 0x92, 0x47, 0x00, 0x00, 0x92, 0x4A, 0x00, 0x32, 0x94, 0x51, 0x00, 0x1E, 0x94, 0x4C, 0x7F, 0x00, 0x99, 0x2A, 0x32, 0x01, 0x99, 0x2A, 0x00, 0x81, 0x01, 0x93, 0x4C, 0x00, 0x1E, 0x91, 0x2B, 0x79, 0x00, 0x92, 0x43, 0x76, 0x00, 0x92, 0x47, 0x76, 0x00, 0x92, 0x4A, 0x76, 0x00, 0x93, 
	0x4A, 0x7F, 0x00, 0x99, 0x2A, 0x4E, 0x00, 0x99, 0x28, 0x6A, 0x01, 0x99, 0x2A, 0x00, 0x00, 0x99, 0x28, 0x00, 0x81, 0x1F, 0x99, 0x2A, 0x32, 0x01, 0x99, 0x2A, 0x00, 0x4F, 0x91, 0x2B, 0x00, 0x00, 0x92, 0x43, 0x00, 0x00, 0x92, 0x47, 0x00, 0x00, 0x92, 0x4A, 0x00, 0x32, 0x94, 0x4C, 0x00, 0x0A, 0x93, 0x4A, 0x00, 0x14, 0x93, 0x4A, 0x7F, 0x00, 0x94, 0x4A, 0x7F, 0x00, 0x99, 0x2A, 0x32, 0x01, 
	0x99, 0x2A, 0x00, 0x77, 0x96, 0x43, 0x00, 0x00, 0x96, 0x47, 0x00, 0x00, 0x96, 0x4A, 0x00, 0x28, 0x91, 0x29, 0x79, 0x00, 0x92, 0x45, 0x76, 0x00, 0x92, 0x48, 0x76, 0x00, 0x92, 0x4C, 0x76, 0x00, 0x96, 0x45, 0x6F, 0x00, 0x96, 0x48, 0x6F, 0x00, 0x96, 0x4C, 0x6F, 0x00, 0x99, 0x24, 0x6A, 0x00, 0x99, 0x2A, 0x4E, 0x01, 0x99, 0x24, 0x00, 0x00, 0x99, 0x2A, 0x00, 0x81, 0x0B, 0x94, 0x4A, 0x00, 
	0x14, 0x94, 0x4A, 0x7F, 0x00, 0x99, 0x2A, 0x32, 0x01, 0x99, 0x2A, 0x00, 0x4F, 0x91, 0x29, 0x00, 0x00, 0x92, 0x45, 0x00, 0x00, 0x92, 0x48, 0x00, 0x00, 0x92, 0x4C, 0x00, 0x3C, 0x93, 0x4A, 0x00, 0x14, 0x93, 0x4C, 0x7F, 0x00, 0x99, 0x2A, 0x32, 0x01, 0x99, 0x2A, 0x00, 0x81, 0x11, 0x93, 0x4C, 0x00, 0x0E, 0x91, 0x29, 0x79, 0x00, 0x92, 0x45, 0x76, 0x00, 0x92, 0x48, 0x76, 0x00, 0x92, 0x4C, 
	0x76, 0x00, 0x93, 0x48, 0x7F, 0x00, 0x99, 0x2A, 0x4E, 0x00, 0x99, 0x28, 0x6A, 0x01, 0x99, 0x2A, 0x00, 0x00, 0x99, 0x28, 0x00, 0x81, 0x0B, 0x94, 0x4A, 0x00, 0x14, 0x94, 0x4C, 0x7F, 0x00, 0x99, 0x2A, 0x32, 0x01, 0x99, 0x2A, 0x00, 0x4F, 0x91, 0x29, 0x00, 0x00, 0x92, 0x45, 0x00, 0x00, 0x92, 0x48, 0x00, 0x00, 0x92, 0x4C, 0x00, 0x42, 0x94, 0x4C, 0x00, 0x0E, 0x94, 0x48, 0x7F, 0x00, 0x99, 
	0x2A, 0x32, 0x00, 0x99, 0x24, 0x4E, 0x01, 0x99, 0x2A, 0x00, 0x00, 0x99, 0x24, 0x00, 0x81, 0x1F, 0x91, 0x29, 0x79, 0x00, 0x92, 0x45, 0x76, 0x00, 0x92, 0x48, 0x76, 0x00, 0x92, 0x4C, 0x76, 0x00, 0x99, 0x2A, 0x4E, 0x00, 0x99, 0x24, 0x6A, 0x01, 0x99, 0x2A, 0x00, 0x00, 0x99, 0x24, 0x00, 0x81, 0x1F, 0x99, 0x2A, 0x32, 0x01, 0x99, 0x2A, 0x00, 0x4F, 0x91, 0x29, 0x00, 0x00, 0x92, 0x45, 0x00, 
	0x00, 0x92, 0x48, 0x00, 0x00, 0x92, 0x4C, 0x00, 0x50, 0x99, 0x2A, 0x32, 0x01, 0x99, 0x2A, 0x00, 0x77, 0x93, 0x48, 0x00, 0x28, 0x91, 0x29, 0x79, 0x00, 0x92, 0x45, 0x76, 0x00, 0x92, 0x48, 0x76, 0x00, 0x92, 0x4C, 0x76, 0x00, 0x99, 0x2E, 0x4E, 0x00, 0x99, 0x28, 0x6A, 0x01, 0x99, 0x2E, 0x00, 0x00, 0x99, 0x28, 0x00, 0x81, 0x1F, 0x93, 0x48, 0x7F, 0x00, 0x99, 0x2A, 0x4E, 0x01, 0x99, 0x2A, 
	0x00, 0x4F, 0x91, 0x29, 0x00, 0x00, 0x92, 0x45, 0x00, 0x00, 0x92, 0x48, 0x00, 0x00, 0x92, 0x4C, 0x00, 0x28, 0x94, 0x48, 0x00, 0x1A, 0x93, 0x48, 0x00, 0x0E, 0x93, 0x4A, 0x7F, 0x00, 0x99, 0x2A, 0x32, 0x01, 0x99, 0x2A, 0x00, 0x81, 0x0B, 0x95, 0x4C, 0x00, 0x00, 0x95, 0x58, 0x00, 0x00, 0x96, 0x45, 0x00, 0x00, 0x96, 0x48, 0x00, 0x00, 0x96, 0x4C, 0x00, 0x06, 0x93, 0x4A, 0x00, 0x0E, 0x91, 
	0x26, 0x79, 0x00, 0x92, 0x45, 0x76, 0x00, 0x92, 0x48, 0x76, 0x00, 0x92, 0x4D, 0x76, 0x00, 0x93, 0x4F, 0x7F, 0x00, 0x94, 0x48, 0x7F, 0x00, 0x95, 0x4D, 0x63, 0x00, 0x95, 0x59, 0x79, 0x00, 0x96, 0x45, 0x6F, 0x00, 0x96, 0x48, 0x6F, 0x00, 0x96, 0x4D, 0x6F, 0x00, 0x99, 0x30, 0x6A, 0x01, 0x99, 0x30, 0x00, 0x81, 0x11, 0x94, 0x48, 0x00, 0x0E, 0x94, 0x4A, 0x7F, 0x28, 0x92, 0x45, 0x00, 0x00, 
	0x92, 0x48, 0x00, 0x00, 0x92, 0x4D, 0x00, 0x64, 0x91, 0x26, 0x00, 0x00, 0x93, 0x4F, 0x00, 0x06, 0x94, 0x4A, 0x00, 0x0E, 0x91, 0x26, 0x79, 0x00, 0x92, 0x45, 0x76, 0x00, 0x92, 0x48, 0x76, 0x00, 0x92, 0x4D, 0x76, 0x00, 0x93, 0x4D, 0x7F, 0x00, 0x94, 0x4F, 0x7F, 0x00, 0x99, 0x30, 0x6A, 0x01, 0x99, 0x30, 0x00, 0x81, 0x47, 0x92, 0x45, 0x00, 0x00, 0x92, 0x48, 0x00, 0x00, 0x92, 0x4D, 0x00, 
	0x64, 0x91, 0x26, 0x00, 0x00, 0x93, 0x4D, 0x00, 0x00, 0x94, 0x4F, 0x00, 0x14, 0x91, 0x26, 0x79, 0x00, 0x92, 0x45, 0x76, 0x00, 0x92, 0x48, 0x76, 0x00, 0x92, 0x4D, 0x76, 0x00, 0x93, 0x4C, 0x7F, 0x00, 0x94, 0x4D, 0x7F, 0x00, 0x99, 0x2D, 0x6A, 0x01, 0x99, 0x2D, 0x00, 0x81, 0x47, 0x92, 0x45, 0x00, 0x00, 0x92, 0x48, 0x00, 0x00, 0x92, 0x4D, 0x00, 0x64, 0x91, 0x26, 0x00, 0x00, 0x93, 0x4C, 
	0x00, 0x00, 0x94, 0x4D, 0x00, 0x14, 0x91, 0x26, 0x79, 0x00, 0x92, 0x45, 0x76, 0x00, 0x92, 0x48, 0x76, 0x00, 0x92, 0x4D, 0x76, 0x00, 0x93, 0x4C, 0x7F, 0x00, 0x94, 0x4C, 0x7F, 0x00, 0x99, 0x29, 0x6A, 0x01, 0x99, 0x29, 0x00, 0x82, 0x2B, 0x91, 0x26, 0x00, 0x00, 0x92, 0x45, 0x00, 0x00, 0x92, 0x48, 0x00, 0x00, 0x92, 0x4D, 0x00, 0x00, 0x93, 0x4C, 0x00, 0x00, 0x94, 0x4C, 0x00, 0x14, 0x91, 
	0x26, 0x79, 0x00, 0x92, 0x45, 0x76, 0x00, 0x92, 0x48, 0x76, 0x00, 0x92, 0x4C, 0x76, 0x00, 0x93, 0x48, 0x7F, 0x00, 0x94, 0x4C, 0x7F, 0x00, 0x99, 0x28, 0x5C, 0x01, 0x99, 0x28, 0x00, 0x81, 0x11, 0x91, 0x26, 0x00, 0x00, 0x92, 0x45, 0x00, 0x00, 0x92, 0x48, 0x00, 0x00, 0x92, 0x4C, 0x00, 0x00, 0x93, 0x48, 0x00, 0x0E, 0x91, 0x26, 0x79, 0x00, 0x92, 0x45, 0x76, 0x00, 0x92, 0x48, 0x76, 0x00, 
	0x92, 0x4D, 0x76, 0x00, 0x93, 0x45, 0x7F, 0x00, 0x99, 0x28, 0x6A, 0x01, 0x99, 0x28, 0x00, 0x81, 0x0B, 0x94, 0x4C, 0x00, 0x14, 0x94, 0x48, 0x7F, 0x81, 0x0C, 0x91, 0x26, 0x00, 0x00, 0x92, 0x45, 0x00, 0x00, 0x92, 0x48, 0x00, 0x00, 0x92, 0x4D, 0x00, 0x00, 0x93, 0x45, 0x00, 0x00, 0x95, 0x4D, 0x00, 0x00, 0x95, 0x59, 0x00, 0x06, 0x94, 0x48, 0x00, 0x0E, 0x91, 0x2B, 0x79, 0x00, 0x92, 0x47, 
	0x76, 0x00, 0x92, 0x4A, 0x76, 0x00, 0x92, 0x4F, 0x76, 0x00, 0x93, 0x4A, 0x7F, 0x00, 0x94, 0x45, 0x7F, 0x00, 0x95, 0x4F, 0x63, 0x00, 0x95, 0x5B, 0x79, 0x00, 0x99, 0x31, 0x4E, 0x00, 0x99, 0x24, 0x6A, 0x01, 0x99, 0x31, 0x00, 0x00, 0x99, 0x24, 0x00, 0x27, 0x96, 0x45, 0x00, 0x00, 0x96, 0x48, 0x00, 0x00, 0x96, 0x4D, 0x00, 0x6A, 0x91, 0x2B, 0x00, 0x00, 0x92, 0x47, 0x00, 0x00, 0x92, 0x4A, 
	0x00, 0x00, 0x92, 0x4F, 0x00, 0x00, 0x95, 0x4F, 0x00, 0x00, 0x95, 0x5B, 0x00, 0x81, 0x1A, 0x94, 0x45, 0x00, 0x14, 0x94, 0x4A, 0x7F, 0x82, 0x40, 0x91, 0x1F, 0x79, 0x00, 0x92, 0x3B, 0x76, 0x00, 0x92, 0x3E, 0x76, 0x00, 0x92, 0x43, 0x76, 0x00, 0x99, 0x24, 0x6A, 0x01, 0x99, 0x24, 0x00, 0x82, 0x2B, 0x93, 0x4A, 0x00, 0x14, 0x93, 0x4C, 0x7F, 0x81, 0x20, 0x99, 0x24, 0x6A, 0x01, 0x99, 0x24, 
	0x00, 0x81, 0x0B, 0x94, 0x4A, 0x00, 0x14, 0x94, 0x4C, 0x7F, 0x81, 0x20, 0x99, 0x28, 0x6A, 0x01, 0x99, 0x28, 0x00, 0x81, 0x11, 0x93, 0x4C, 0x00, 0x0E, 0x93, 0x4F, 0x7F, 0x00, 0x99, 0x2D, 0x5C, 0x01, 0x99, 0x2D, 0x00, 0x81, 0x1F, 0x99, 0x29, 0x5C, 0x01, 0x99, 0x29, 0x00, 0x81, 0x11, 0x94, 0x4C, 0x00, 0x0E, 0x94, 0x4F, 0x7F, 0x00, 0x99, 0x28, 0x6A, 0x01, 0x99, 0x28, 0x00, 0x81, 0x01, 
	0x93, 0x4F, 0x00, 0x0A, 0x91, 0x1F, 0x00, 0x00, 0x92, 0x3B, 0x00, 0x00, 0x92, 0x3E, 0x00, 0x00, 0x92, 0x43, 0x00, 0x14, 0x91, 0x24, 0x79, 0x00, 0x92, 0x43, 0x76, 0x00, 0x92, 0x48, 0x76, 0x00, 0x92, 0x4C, 0x76, 0x00, 0x93, 0x4A, 0x7F, 0x00, 0x95, 0x48, 0x63, 0x00, 0x95, 0x54, 0x79, 0x00, 0x96, 0x40, 0x6F, 0x00, 0x96, 0x43, 0x6F, 0x00, 0x96, 0x48, 0x6F, 0x00, 0x99, 0x31, 0x4E, 0x00, 
	0x99, 0x24, 0x6A, 0x01, 0x99, 0x31, 0x00, 0x00, 0x99, 0x24, 0x00, 0x81, 0x6F, 0x92, 0x43, 0x00, 0x00, 0x92, 0x48, 0x00, 0x00, 0x92, 0x4C, 0x00, 0x32, 0x94, 0x4F, 0x00, 0x0A, 0x91, 0x24, 0x00, 0x14, 0x94, 0x4A, 0x7F, 0x81, 0x20, 0x91, 0x24, 0x79, 0x00, 0x92, 0x43, 0x76, 0x00, 0x92, 0x48, 0x76, 0x00, 0x92, 0x4C, 0x76, 0x00, 0x99, 0x2A, 0x4E, 0x00, 0x99, 0x28, 0x6A, 0x01, 0x99, 0x2A, 
	0x00, 0x00, 0x99, 0x28, 0x00, 0x81, 0x1F, 0x99, 0x2A, 0x32, 0x01, 0x99, 0x2A, 0x00, 0x4F, 0x92, 0x43, 0x00, 0x00, 0x92, 0x48, 0x00, 0x00, 0x92, 0x4C, 0x00, 0x3C, 0x91, 0x24, 0x00, 0x00, 0x93, 0x4A, 0x00, 0x14, 0x93, 0x48, 0x7F, 0x00, 0x99, 0x2A, 0x32, 0x00, 0x99, 0x24, 0x4E, 0x01, 0x99, 0x2A, 0x00, 0x00, 0x99, 0x24, 0x00, 0x81, 0x1F, 0x91, 0x24, 0x79, 0x00, 0x92, 0x43, 0x76, 0x00, 
	0x92, 0x48, 0x76, 0x00, 0x92, 0x4C, 0x76, 0x00, 0x99, 0x2A, 0x4E, 0x00, 0x99, 0x24, 0x6A, 0x01, 0x99, 0x2A, 0x00, 0x00, 0x99, 0x24, 0x00, 0x81, 0x0B, 0x94, 0x4A, 0x00, 0x14, 0x94, 0x48, 0x7F, 0x00, 0x99, 0x2A, 0x32, 0x01, 0x99, 0x2A, 0x00, 0x4F, 0x92, 0x43, 0x00, 0x00, 0x92, 0x48, 0x00, 0x00, 0x92, 0x4C, 0x00, 0x50, 0x99, 0x2A, 0x32, 0x00, 0x99, 0x24, 0x6A, 0x01, 0x99, 0x2A, 0x00, 
	0x00, 0x99, 0x24, 0x00, 0x81, 0x1F, 0x92, 0x43, 0x76, 0x00, 0x92, 0x48, 0x76, 0x00, 0x92, 0x4C, 0x76, 0x00, 0x99, 0x2A, 0x4E, 0x00, 0x99, 0x28, 0x6A, 0x01, 0x99, 0x2A, 0x00, 0x00, 0x99, 0x28, 0x00, 0x81, 0x1F, 0x99, 0x2A, 0x32, 0x01, 0x99, 0x2A, 0x00, 0x4F, 0x92, 0x43, 0x00, 0x00, 0x92, 0x48, 0x00, 0x00, 0x92, 0x4C, 0x00, 0x3C, 0x91, 0x24, 0x00, 0x14, 0x91, 0x29, 0x79, 0x00, 0x99, 
	0x2A, 0x32, 0x00, 0x99, 0x24, 0x4E, 0x01, 0x99, 0x2A, 0x00, 0x00, 0x99, 0x24, 0x00, 0x77, 0x93, 0x48, 0x00, 0x14, 0x96, 0x40, 0x00, 0x00, 0x96, 0x43, 0x00, 0x00, 0x96, 0x48, 0x00, 0x06, 0x91, 0x29, 0x00, 0x0E, 0x92, 0x41, 0x76, 0x00, 0x92, 0x44, 0x76, 0x00, 0x92, 0x48, 0x76, 0x00, 0x93, 0x4A, 0x7F, 0x00, 0x96, 0x41, 0x6F, 0x00, 0x96, 0x44, 0x6F, 0x00, 0x96, 0x48, 0x6F, 0x00, 0x99, 
	0x2A, 0x4E, 0x01, 0x99, 0x2A, 0x00, 0x81, 0x1F, 0x99, 0x2A, 0x32, 0x01, 0x99, 0x2A, 0x00, 0x4F, 0x92, 0x41, 0x00, 0x00, 0x92, 0x44, 0x00, 0x00, 0x92, 0x48, 0x00, 0x28, 0x94, 0x48, 0x00, 0x28, 0x91, 0x29, 0x79, 0x00, 0x94, 0x4A, 0x7F, 0x00, 0x99, 0x2A, 0x32, 0x00, 0x99, 0x24, 0x4E, 0x01, 0x99, 0x2A, 0x00, 0x00, 0x99, 0x24, 0x00, 0x81, 0x11, 0x91, 0x29, 0x00, 0x0E, 0x92, 0x41, 0x76, 
	0x00, 0x92, 0x44, 0x76, 0x00, 0x92, 0x48, 0x76, 0x00, 0x99, 0x2A, 0x4E, 0x00, 0x99, 0x28, 0x6A, 0x01, 0x99, 0x2A, 0x00, 0x00, 0x99, 0x28, 0x00, 0x81, 0x1F, 0x99, 0x2A, 0x32, 0x01, 0x99, 0x2A, 0x00, 0x4F, 0x92, 0x41, 0x00, 0x00, 0x92, 0x44, 0x00, 0x00, 0x92, 0x48, 0x00, 0x3C, 0x93, 0x4A, 0x00, 0x14, 0x91, 0x29, 0x79, 0x00, 0x93, 0x4C, 0x7F, 0x00, 0x99, 0x2A, 0x32, 0x00, 0x99, 0x24, 
	0x4E, 0x01, 0x99, 0x2A, 0x00, 0x00, 0x99, 0x24, 0x00, 0x81, 0x11, 0x91, 0x29, 0x00, 0x0E, 0x91, 0x29, 0x79, 0x00, 0x92, 0x41, 0x76, 0x00, 0x92, 0x44, 0x76, 0x00, 0x92, 0x48, 0x76, 0x00, 0x99, 0x2A, 0x4E, 0x00, 0x99, 0x24, 0x6A, 0x01, 0x99, 0x2A, 0x00, 0x00, 0x99, 0x24, 0x00, 0x81, 0x0B, 0x94, 0x4A, 0x00, 0x14, 0x94, 0x4C, 0x7F, 0x00, 0x99, 0x2A, 0x32, 0x01, 0x99, 0x2A, 0x00, 0x4F, 
	0x92, 0x41, 0x00, 0x00, 0x92, 0x44, 0x00, 0x00, 0x92, 0x48, 0x00, 0x50, 0x99, 0x2A, 0x32, 0x01, 0x99, 0x2A, 0x00, 0x81, 0x01, 0x91, 0x29, 0x00, 0x10, 0x93, 0x4C, 0x00, 0x0E, 0x91, 0x29, 0x79, 0x00, 0x92, 0x41, 0x76, 0x00, 0x92, 0x44, 0x76, 0x00, 0x92, 0x48, 0x76, 0x00, 0x93, 0x4F, 0x7F, 0x00, 0x99, 0x2E, 0x4E, 0x00, 0x99, 0x28, 0x6A, 0x01, 0x99, 0x2E, 0x00, 0x00, 0x99, 0x28, 0x00, 
	0x81, 0x1F, 0x99, 0x2A, 0x4E, 0x01, 0x99, 0x2A, 0x00, 0x4F, 0x92, 0x41, 0x00, 0x00, 0x92, 0x44, 0x00, 0x00, 0x92, 0x48, 0x00, 0x42, 0x94, 0x4C, 0x00, 0x0E, 0x94, 0x4F, 0x7F, 0x00, 0x99, 0x2A, 0x32, 0x01, 0x99, 0x2A, 0x00, 0x81, 0x01, 0x91, 0x29, 0x00, 0x00, 0x93, 0x4F, 0x00, 0x0A, 0x96, 0x41, 0x00, 0x00, 0x96, 0x44, 0x00, 0x00, 0x96, 0x48, 0x00, 0x14, 0x91, 0x24, 0x79, 0x00, 0x92, 
	0x43, 0x76, 0x00, 0x92, 0x48, 0x76, 0x00, 0x92, 0x4C, 0x76, 0x00, 0x93, 0x4A, 0x7F, 0x00, 0x96, 0x40, 0x6F, 0x00, 0x96, 0x43, 0x6F, 0x00, 0x96, 0x48, 0x6F, 0x00, 0x99, 0x2A, 0x4E, 0x00, 0x99, 0x24, 0x6A, 0x01, 0x99, 0x2A, 0x00, 0x00, 0x99, 0x24, 0x00, 0x81, 0x1F, 0x99, 0x2A, 0x32, 0x01, 0x99, 0x2A, 0x00, 0x4F, 0x92, 0x43, 0x00, 0x00, 0x92, 0x48, 0x00, 0x00, 0x92, 0x4C, 0x00, 0x32, 
	0x94, 0x4F, 0x00, 0x0A, 0x91, 0x24, 0x00, 0x14, 0x94, 0x4A, 0x7F, 0x00, 0x99, 0x2A, 0x32, 0x01, 0x99, 0x2A, 0x00, 0x81, 0x1F, 0x91, 0x24, 0x79, 0x00, 0x92, 0x43, 0x76, 0x00, 0x92, 0x48, 0x76, 0x00, 0x92, 0x4C, 0x76, 0x00, 0x99, 0x2A, 0x4E, 0x00, 0x99, 0x28, 0x6A, 0x01, 0x99, 0x2A, 0x00, 0x00, 0x99, 0x28, 0x00, 0x81, 0x1F, 0x99, 0x2A, 0x32, 0x01, 0x99, 0x2A, 0x00, 0x4F, 0x92, 0x43, 
	0x00, 0x00, 0x92, 0x48, 0x00, 0x00, 0x92, 0x4C, 0x00, 0x3C, 0x91, 0x24, 0x00, 0x00, 0x93, 0x4A, 0x00, 0x14, 0x93, 0x48, 0x7F, 0x00, 0x99, 0x2A, 0x32, 0x00, 0x99, 0x24, 0x4E, 0x01, 0x99, 0x2A, 0x00, 0x00, 0x99, 0x24, 0x00, 0x81, 0x1F, 0x91, 0x24, 0x79, 0x00, 0x92, 0x43, 0x76, 0x00, 0x92, 0x48, 0x76, 0x00, 0x92, 0x4C, 0x76, 0x00, 0x99, 0x2A, 0x4E, 0x00, 0x99, 0x24, 0x6A, 0x01, 0x99, 
	0x2A, 0x00, 0x00, 0x99, 0x24, 0x00, 0x81, 0x0B, 0x94, 0x4A, 0x00, 0x14, 0x94, 0x48, 0x7F, 0x00, 0x99, 0x2A, 0x32, 0x01, 0x99, 0x2A, 0x00, 0x4F, 0x92, 0x43, 0x00, 0x00, 0x92, 0x48, 0x00, 0x00, 0x92, 0x4C, 0x00, 0x50, 0x99, 0x2A, 0x32, 0x00, 0x99, 0x24, 0x6A, 0x01, 0x99, 0x2A, 0x00, 0x00, 0x99, 0x24, 0x00, 0x81, 0x1F, 0x92, 0x43, 0x76, 0x00, 0x92, 0x48, 0x76, 0x00, 0x92, 0x4C, 0x76, 
	0x00, 0x99, 0x2A, 0x4E, 0x00, 0x99, 0x28, 0x6A, 0x01, 0x99, 0x2A, 0x00, 0x00, 0x99, 0x28, 0x00, 0x81, 0x1F, 0x99, 0x2A, 0x32, 0x01, 0x99, 0x2A, 0x00, 0x4F, 0x92, 0x43, 0x00, 0x00, 0x92, 0x48, 0x00, 0x00, 0x92, 0x4C, 0x00, 0x3C, 0x91, 0x24, 0x00, 0x14, 0x91, 0x24, 0x79, 0x00, 0x99, 0x2A, 0x32, 0x00, 0x99, 0x24, 0x4E, 0x01, 0x99, 0x2A, 0x00, 0x00, 0x99, 0x24, 0x00, 0x77, 0x93, 0x48, 
	0x00, 0x14, 0x96, 0x40, 0x00, 0x00, 0x96, 0x43, 0x00, 0x00, 0x96, 0x48, 0x00, 0x06, 0x91, 0x24, 0x00, 0x0E, 0x92, 0x43, 0x76, 0x00, 0x92, 0x48, 0x76, 0x00, 0x92, 0x4C, 0x76, 0x00, 0x96, 0x40, 0x6F, 0x00, 0x96, 0x43, 0x6F, 0x00, 0x96, 0x48, 0x6F, 0x00, 0x99, 0x2A, 0x4E, 0x01, 0x99, 0x2A, 0x00, 0x81, 0x1F, 0x99, 0x2A, 0x32, 0x01, 0x99, 0x2A, 0x00, 0x4F, 0x92, 0x43, 0x00, 0x00, 0x92, 
	0x48, 0x00, 0x00, 0x92, 0x4C, 0x00, 0x28, 0x94, 0x48, 0x00, 0x28, 0x91, 0x24, 0x79, 0x00, 0x99, 0x2A, 0x32, 0x00, 0x99, 0x24, 0x4E, 0x01, 0x99, 0x2A, 0x00, 0x00, 0x99, 0x24, 0x00, 0x81, 0x11, 0x91, 0x24, 0x00, 0x0E, 0x92, 0x43, 0x76, 0x00, 0x92, 0x48, 0x76, 0x00, 0x92, 0x4C, 0x76, 0x00, 0x99, 0x2A, 0x4E, 0x00, 0x99, 0x28, 0x6A, 0x01, 0x99, 0x2A, 0x00, 0x00, 0x99, 0x28, 0x00, 0x81, 
	0x1F, 0x99, 0x2A, 0x32, 0x01, 0x99, 0x2A, 0x00, 0x4F, 0x92, 0x43, 0x00, 0x00, 0x92, 0x48, 0x00, 0x00, 0x92, 0x4C, 0x00, 0x50, 0x91, 0x24, 0x79, 0x00, 0x99, 0x2A, 0x32, 0x00, 0x99, 0x24, 0x4E, 0x01, 0x99, 0x2A, 0x00, 0x00, 0x99, 0x24, 0x00, 0x81, 0x11, 0x91, 0x24, 0x00, 0x0E, 0x91, 0x24, 0x79, 0x00, 0x92, 0x43, 0x76, 0x00, 0x92, 0x48, 0x76, 0x00, 0x92, 0x4C, 0x76, 0x00, 0x99, 0x28, 
	0x5C, 0x00, 0x99, 0x2A, 0x4E, 0x01, 0x99, 0x28, 0x00, 0x00, 0x99, 0x2A, 0x00, 0x4F, 0x99, 0x28, 0x4E, 0x01, 0x99, 0x28, 0x00, 0x4F, 0x99, 0x28, 0x5C, 0x00, 0x99, 0x2A, 0x32, 0x01, 0x99, 0x28, 0x00, 0x00, 0x99, 0x2A, 0x00, 0x81, 0x1F, 0x99, 0x28, 0x4E, 0x00, 0x99, 0x2A, 0x32, 0x01, 0x99, 0x28, 0x00, 0x00, 0x99, 0x2A, 0x00, 0x81, 0x01, 0x91, 0x24, 0x00, 0x00, 0x92, 0x43, 0x00, 0x00, 
	0x92, 0x48, 0x00, 0x00, 0x92, 0x4C, 0x00, 0x1E, 0x91, 0x1F, 0x79, 0x00, 0x92, 0x41, 0x76, 0x00, 0x92, 0x47, 0x76, 0x00, 0x92, 0x4A, 0x76, 0x00, 0x99, 0x30, 0x6A, 0x01, 0x99, 0x30, 0x00, 0x81, 0x1F, 0x99, 0x30, 0x6A, 0x01, 0x99, 0x30, 0x00, 0x81, 0x1F, 0x99, 0x29, 0x6A, 0x01, 0x99, 0x29, 0x00, 0x81, 0x01, 0x91, 0x1F, 0x00, 0x00, 0x92, 0x41, 0x00, 0x00, 0x92, 0x47, 0x00, 0x00, 0x92, 
	0x4A, 0x00, 0x0A, 0x95, 0x48, 0x00, 0x00, 0x95, 0x54, 0x00, 0x00, 0x96, 0x40, 0x00, 0x00, 0x96, 0x43, 0x00, 0x00, 0x96, 0x48, 0x00, 0x82, 0x54, 0xFF, 0x2F, 0x00, 0x00
};
